%TF.GenerationSoftware,KiCad,Pcbnew,(5.99.0-10394-g2e15de97e0)*%
%TF.CreationDate,2021-05-18T08:40:14+02:00*%
%TF.ProjectId,BRIDGEADC01A,42524944-4745-4414-9443-3031412e6b69,REV*%
%TF.SameCoordinates,Original*%
%TF.FileFunction,Copper,L2,Bot*%
%TF.FilePolarity,Positive*%
%FSLAX46Y46*%
G04 Gerber Fmt 4.6, Leading zero omitted, Abs format (unit mm)*
G04 Created by KiCad (PCBNEW (5.99.0-10394-g2e15de97e0)) date 2021-05-18 08:40:14*
%MOMM*%
%LPD*%
G01*
G04 APERTURE LIST*
%ADD10C,0.300000*%
%TA.AperFunction,NonConductor*%
%ADD11C,0.300000*%
%TD*%
%TA.AperFunction,ComponentPad*%
%ADD12R,1.524000X1.524000*%
%TD*%
%TA.AperFunction,ComponentPad*%
%ADD13C,6.000000*%
%TD*%
%TA.AperFunction,ComponentPad*%
%ADD14C,1.501140*%
%TD*%
%TA.AperFunction,SMDPad,CuDef*%
%ADD15R,1.800000X2.230000*%
%TD*%
%TA.AperFunction,SMDPad,CuDef*%
%ADD16R,1.250000X1.000000*%
%TD*%
%TA.AperFunction,SMDPad,CuDef*%
%ADD17R,1.000000X1.250000*%
%TD*%
%TA.AperFunction,SMDPad,CuDef*%
%ADD18R,1.800860X2.499360*%
%TD*%
%TA.AperFunction,SMDPad,CuDef*%
%ADD19R,1.300000X0.700000*%
%TD*%
%TA.AperFunction,SMDPad,CuDef*%
%ADD20R,1.550000X0.600000*%
%TD*%
%TA.AperFunction,SMDPad,CuDef*%
%ADD21R,1.100000X0.400000*%
%TD*%
%TA.AperFunction,ViaPad*%
%ADD22C,0.800000*%
%TD*%
%TA.AperFunction,Conductor*%
%ADD23C,0.300000*%
%TD*%
%TA.AperFunction,Conductor*%
%ADD24C,0.500000*%
%TD*%
%TA.AperFunction,Conductor*%
%ADD25C,0.250000*%
%TD*%
%TA.AperFunction,Conductor*%
%ADD26C,0.600000*%
%TD*%
%TA.AperFunction,Conductor*%
%ADD27C,0.400000*%
%TD*%
G04 APERTURE END LIST*
D10*
D11*
X127404500Y-105961571D02*
X127404500Y-104461571D01*
X126904500Y-105533000D01*
X126404500Y-104461571D01*
X126404500Y-105961571D01*
X124975928Y-105961571D02*
X125690214Y-105961571D01*
X125690214Y-104461571D01*
X124547357Y-105533000D02*
X123833071Y-105533000D01*
X124690214Y-105961571D02*
X124190214Y-104461571D01*
X123690214Y-105961571D01*
X122690214Y-105175857D02*
X122475928Y-105247285D01*
X122404500Y-105318714D01*
X122333071Y-105461571D01*
X122333071Y-105675857D01*
X122404500Y-105818714D01*
X122475928Y-105890142D01*
X122618785Y-105961571D01*
X123190214Y-105961571D01*
X123190214Y-104461571D01*
X122690214Y-104461571D01*
X122547357Y-104533000D01*
X122475928Y-104604428D01*
X122404500Y-104747285D01*
X122404500Y-104890142D01*
X122475928Y-105033000D01*
X122547357Y-105104428D01*
X122690214Y-105175857D01*
X123190214Y-105175857D01*
D12*
%TO.P,J1,1*%
%TO.N,GND*%
X143876000Y-110682000D03*
%TO.P,J1,2*%
X141336000Y-110682000D03*
%TO.P,J1,3*%
%TO.N,VCC*%
X143876000Y-108142000D03*
%TO.P,J1,4*%
X141336000Y-108142000D03*
%TO.P,J1,5*%
%TO.N,GND*%
X143876000Y-105602000D03*
%TO.P,J1,6*%
X141336000Y-105602000D03*
%TD*%
%TO.P,J2,1*%
%TO.N,Net-(J2-Pad1)*%
X154798000Y-88838000D03*
%TO.P,J2,2*%
X157338000Y-88838000D03*
%TD*%
%TO.P,J3,1*%
%TO.N,Net-(J3-Pad1)*%
X154798000Y-86298000D03*
%TO.P,J3,2*%
X157338000Y-86298000D03*
%TD*%
%TO.P,J4,1*%
%TO.N,Net-(J4-Pad1)*%
X131493500Y-77662000D03*
%TO.P,J4,2*%
X131493500Y-80202000D03*
%TD*%
%TO.P,J5,1*%
%TO.N,Net-(J5-Pad1)*%
X134033500Y-77662000D03*
%TO.P,J5,2*%
X134033500Y-80202000D03*
%TD*%
%TO.P,J6,1*%
%TO.N,Net-(J6-Pad1)*%
X136573500Y-77662000D03*
%TO.P,J6,2*%
X136573500Y-80202000D03*
%TD*%
%TO.P,J7,1*%
%TO.N,Net-(J7-Pad1)*%
X139113500Y-80202000D03*
%TO.P,J7,2*%
X139113500Y-77662000D03*
%TD*%
%TO.P,J8,1*%
%TO.N,Net-(J8-Pad1)*%
X146748500Y-80200500D03*
%TO.P,J8,2*%
X146748500Y-77660500D03*
%TD*%
%TO.P,J9,1*%
%TO.N,Net-(J9-Pad1)*%
X141653500Y-80202000D03*
%TO.P,J9,2*%
X141653500Y-77662000D03*
%TD*%
%TO.P,J10,1*%
%TO.N,VCC*%
X141590000Y-98236000D03*
%TO.P,J10,2*%
%TO.N,Net-(J10-Pad2)*%
X139050000Y-98236000D03*
%TO.P,J10,3*%
%TO.N,GND*%
X136510000Y-98236000D03*
%TD*%
%TO.P,J11,1*%
%TO.N,Net-(J11-Pad1)*%
X124318000Y-86552000D03*
%TO.P,J11,2*%
X126858000Y-86552000D03*
%TD*%
%TO.P,J12,1*%
%TO.N,Net-(J12-Pad1)*%
X124318000Y-89092000D03*
%TO.P,J12,2*%
X126858000Y-89092000D03*
%TD*%
%TO.P,J13,1*%
%TO.N,Net-(J13-Pad1)*%
X154798000Y-96458000D03*
%TO.P,J13,2*%
X157338000Y-96458000D03*
%TD*%
%TO.P,J14,1*%
%TO.N,Net-(J14-Pad1)*%
X154798000Y-93918000D03*
%TO.P,J14,2*%
X157338000Y-93918000D03*
%TD*%
%TO.P,J15,1*%
%TO.N,Net-(J15-Pad1)*%
X124318000Y-96712000D03*
%TO.P,J15,2*%
X126858000Y-96712000D03*
%TD*%
%TO.P,J16,1*%
%TO.N,Net-(J16-Pad1)*%
X154798000Y-101538000D03*
%TO.P,J16,2*%
X157338000Y-101538000D03*
%TD*%
%TO.P,J17,1*%
%TO.N,Net-(J17-Pad1)*%
X154798000Y-98998000D03*
%TO.P,J17,2*%
X157338000Y-98998000D03*
%TD*%
%TO.P,J18,1*%
%TO.N,Net-(J18-Pad1)*%
X154798000Y-91378000D03*
%TO.P,J18,2*%
X157338000Y-91378000D03*
%TD*%
%TO.P,J19,1*%
%TO.N,GNDA*%
X136256000Y-105602000D03*
%TO.P,J19,2*%
X138796000Y-105602000D03*
%TO.P,J19,3*%
%TO.N,Net-(D2-Pad1)*%
X136256000Y-108142000D03*
%TO.P,J19,4*%
X138796000Y-108142000D03*
%TO.P,J19,5*%
%TO.N,GNDA*%
X136256000Y-110682000D03*
%TO.P,J19,6*%
X138796000Y-110682000D03*
%TD*%
%TO.P,J20,1*%
%TO.N,Net-(J20-Pad1)*%
X124318000Y-94172000D03*
%TO.P,J20,2*%
X126858000Y-94172000D03*
%TD*%
%TO.P,J21,1*%
%TO.N,Net-(J21-Pad1)*%
X124318000Y-91632000D03*
%TO.P,J21,2*%
X126858000Y-91632000D03*
%TD*%
D13*
%TO.P,M1,1*%
%TO.N,GND*%
X155560000Y-79440000D03*
%TD*%
%TO.P,M2,1*%
%TO.N,GND*%
X155560000Y-109920000D03*
%TD*%
%TO.P,M3,1*%
%TO.N,GND*%
X125080000Y-79440000D03*
%TD*%
%TO.P,M4,1*%
%TO.N,GND*%
X125080000Y-109920000D03*
%TD*%
D14*
%TO.P,Y1,1*%
%TO.N,Net-(J21-Pad1)*%
X131303000Y-92747060D03*
%TO.P,Y1,2*%
%TO.N,Net-(J20-Pad1)*%
X131303000Y-97628940D03*
%TD*%
D12*
%TO.P,J22,1*%
%TO.N,VAA*%
X144208500Y-77660500D03*
%TO.P,J22,2*%
X144208500Y-80200500D03*
%TD*%
%TO.P,J23,1*%
%TO.N,GNDA*%
X149288500Y-77660500D03*
%TO.P,J23,2*%
X149288500Y-80200500D03*
%TD*%
D15*
%TO.P,C1,1*%
%TO.N,VCC*%
X142162000Y-101792000D03*
%TO.P,C1,2*%
%TO.N,GND*%
X145082000Y-101792000D03*
%TD*%
D16*
%TO.P,C2,1*%
%TO.N,VCC*%
X144130000Y-95458000D03*
%TO.P,C2,2*%
%TO.N,GND*%
X144130000Y-97458000D03*
%TD*%
%TO.P,C3,1*%
%TO.N,VAA*%
X150734000Y-84504000D03*
%TO.P,C3,2*%
%TO.N,GNDA*%
X150734000Y-82504000D03*
%TD*%
D17*
%TO.P,C6,1*%
%TO.N,VAA*%
X133192000Y-87822000D03*
%TO.P,C6,2*%
%TO.N,GNDA*%
X131192000Y-87822000D03*
%TD*%
D18*
%TO.P,D1,1*%
%TO.N,VCC*%
X147432000Y-106397020D03*
%TO.P,D1,2*%
%TO.N,GND*%
X147432000Y-110394980D03*
%TD*%
%TO.P,D2,1*%
%TO.N,Net-(D2-Pad1)*%
X132700000Y-106397020D03*
%TO.P,D2,2*%
%TO.N,GNDA*%
X132700000Y-110394980D03*
%TD*%
D17*
%TO.P,L1,1*%
%TO.N,GNDA*%
X139144500Y-113157000D03*
%TO.P,L1,2*%
%TO.N,GND*%
X141144500Y-113157000D03*
%TD*%
D16*
%TO.P,L2,1*%
%TO.N,VAA*%
X132954000Y-101808000D03*
%TO.P,L2,2*%
%TO.N,Net-(D2-Pad1)*%
X132954000Y-103808000D03*
%TD*%
D19*
%TO.P,R1,1*%
%TO.N,VCC*%
X129398000Y-84652000D03*
%TO.P,R1,2*%
%TO.N,Net-(J11-Pad1)*%
X129398000Y-86552000D03*
%TD*%
%TO.P,R2,1*%
%TO.N,VCC*%
X121778000Y-91312000D03*
%TO.P,R2,2*%
%TO.N,Net-(J12-Pad1)*%
X121778000Y-89412000D03*
%TD*%
%TO.P,R3,1*%
%TO.N,VCC*%
X152258000Y-94614000D03*
%TO.P,R3,2*%
%TO.N,Net-(J18-Pad1)*%
X152258000Y-92714000D03*
%TD*%
D20*
%TO.P,U1,1*%
%TO.N,N/C*%
X146129000Y-90235000D03*
%TO.P,U1,2*%
%TO.N,Net-(U1-Pad2)*%
X146129000Y-88965000D03*
%TO.P,U1,3*%
%TO.N,GNDA*%
X146129000Y-87695000D03*
%TO.P,U1,4*%
%TO.N,Net-(U1-Pad4)*%
X146129000Y-86425000D03*
%TO.P,U1,5*%
%TO.N,Net-(J3-Pad1)*%
X151529000Y-86425000D03*
%TO.P,U1,6*%
%TO.N,VAA*%
X151529000Y-87695000D03*
%TO.P,U1,7*%
%TO.N,Net-(J2-Pad1)*%
X151529000Y-88965000D03*
%TO.P,U1,8*%
%TO.N,N/C*%
X151529000Y-90235000D03*
%TD*%
D21*
%TO.P,U2,1*%
%TO.N,Net-(J15-Pad1)*%
X135885001Y-94881534D03*
%TO.P,U2,2*%
%TO.N,Net-(J20-Pad1)*%
X135885001Y-94231534D03*
%TO.P,U2,3*%
%TO.N,Net-(J21-Pad1)*%
X135885001Y-93581534D03*
%TO.P,U2,4*%
%TO.N,Net-(J10-Pad2)*%
X135885001Y-92931534D03*
%TO.P,U2,5*%
%TO.N,Net-(J12-Pad1)*%
X135885001Y-92281534D03*
%TO.P,U2,6*%
%TO.N,Net-(J11-Pad1)*%
X135885001Y-91631534D03*
%TO.P,U2,7*%
%TO.N,N/C*%
X135885001Y-90981534D03*
%TO.P,U2,8*%
%TO.N,GNDA*%
X135885001Y-90331534D03*
%TO.P,U2,9*%
%TO.N,VAA*%
X135885001Y-89681534D03*
%TO.P,U2,10*%
%TO.N,Net-(J4-Pad1)*%
X135885001Y-89031534D03*
%TO.P,U2,11*%
%TO.N,Net-(J5-Pad1)*%
X135885001Y-88381534D03*
%TO.P,U2,12*%
%TO.N,Net-(J6-Pad1)*%
X135885001Y-87731534D03*
%TO.P,U2,13*%
%TO.N,Net-(J7-Pad1)*%
X141585001Y-87731534D03*
%TO.P,U2,14*%
%TO.N,Net-(J9-Pad1)*%
X141585001Y-88381534D03*
%TO.P,U2,15*%
%TO.N,Net-(J8-Pad1)*%
X141585001Y-89031534D03*
%TO.P,U2,16*%
%TO.N,Net-(U1-Pad2)*%
X141585001Y-89681534D03*
%TO.P,U2,17*%
%TO.N,Net-(U1-Pad4)*%
X141585001Y-90331534D03*
%TO.P,U2,18*%
%TO.N,Net-(J18-Pad1)*%
X141585001Y-90981534D03*
%TO.P,U2,19*%
%TO.N,Net-(J14-Pad1)*%
X141585001Y-91631534D03*
%TO.P,U2,20*%
%TO.N,Net-(J13-Pad1)*%
X141585001Y-92281534D03*
%TO.P,U2,21*%
%TO.N,Net-(J17-Pad1)*%
X141585001Y-92931534D03*
%TO.P,U2,22*%
%TO.N,Net-(J16-Pad1)*%
X141585001Y-93581534D03*
%TO.P,U2,23*%
%TO.N,VCC*%
X141585001Y-94231534D03*
%TO.P,U2,24*%
%TO.N,GND*%
X141585001Y-94881534D03*
%TD*%
D15*
%TO.P,C4,1*%
%TO.N,VAA*%
X148257000Y-83504000D03*
%TO.P,C4,2*%
%TO.N,GNDA*%
X145337000Y-83504000D03*
%TD*%
%TO.P,C5,1*%
%TO.N,VAA*%
X130604000Y-101030000D03*
%TO.P,C5,2*%
%TO.N,GNDA*%
X127684000Y-101030000D03*
%TD*%
D17*
%TO.P,C7,1*%
%TO.N,VAA*%
X142668500Y-82931000D03*
%TO.P,C7,2*%
%TO.N,GNDA*%
X140668500Y-82931000D03*
%TD*%
D22*
%TO.N,GND*%
X122047000Y-101282500D03*
%TO.N,VCC*%
X151623000Y-95061000D03*
X145542000Y-96139000D03*
%TO.N,VAA*%
X134351000Y-89472972D03*
X147701000Y-82804000D03*
X131886691Y-101808000D03*
X149542502Y-84582000D03*
%TO.N,GNDA*%
X140447000Y-82869000D03*
X132207000Y-99504500D03*
X130287000Y-88711000D03*
X137731500Y-95885000D03*
X138033998Y-89600000D03*
X128333500Y-98933000D03*
X127684000Y-101030000D03*
X130937000Y-94996000D03*
X132700000Y-110394980D03*
X138669000Y-86298000D03*
X132334000Y-89789000D03*
X139431000Y-93029000D03*
X130873500Y-104219500D03*
X135826500Y-82931000D03*
X150431500Y-82550000D03*
X145337000Y-83504000D03*
%TD*%
D23*
%TO.N,GND*%
X141585001Y-95381534D02*
X141822695Y-95619228D01*
X142166228Y-95619228D02*
X141822695Y-95619228D01*
D24*
X141144500Y-110873500D02*
X141336000Y-110682000D01*
D23*
X144005000Y-97458000D02*
X142166228Y-95619228D01*
X141585001Y-94881534D02*
X141585001Y-95381534D01*
D24*
X141144500Y-113157000D02*
X141144500Y-110873500D01*
D23*
X144130000Y-97458000D02*
X144005000Y-97458000D01*
D24*
%TO.N,VCC*%
X142162000Y-101792000D02*
X140762000Y-101792000D01*
X145687020Y-108142000D02*
X147432000Y-106397020D01*
X144544999Y-104389999D02*
X142162000Y-102007000D01*
D23*
X142162000Y-98808000D02*
X141590000Y-98236000D01*
X145055000Y-95458000D02*
X145542000Y-95945000D01*
X140735001Y-94231534D02*
X140685000Y-94281535D01*
D25*
X142385001Y-94231534D02*
X141585001Y-94231534D01*
D23*
X144130000Y-95458000D02*
X145055000Y-95458000D01*
D24*
X126046001Y-102758001D02*
X121778000Y-98490000D01*
X141336000Y-108142000D02*
X143876000Y-108142000D01*
X142162000Y-102007000D02*
X142162000Y-101792000D01*
D23*
X121478000Y-91312000D02*
X121778000Y-91312000D01*
D24*
X121778000Y-98490000D02*
X121778000Y-92162000D01*
D23*
X141590000Y-97174000D02*
X141590000Y-98236000D01*
D24*
X145774229Y-104389999D02*
X144544999Y-104389999D01*
D23*
X151623000Y-95061000D02*
X151811000Y-95061000D01*
D24*
X147432000Y-106397020D02*
X147432000Y-106047770D01*
X143876000Y-108142000D02*
X145687020Y-108142000D01*
D25*
X141590000Y-98236000D02*
X141590000Y-97224000D01*
D24*
X121778000Y-92162000D02*
X121778000Y-91312000D01*
D25*
X144005000Y-95458000D02*
X142778534Y-94231534D01*
D24*
X147432000Y-106047770D02*
X145774229Y-104389999D01*
D25*
X144130000Y-95458000D02*
X144005000Y-95458000D01*
D23*
X124063998Y-84652000D02*
X120777999Y-87937999D01*
X129398000Y-84652000D02*
X124063998Y-84652000D01*
X140685000Y-94281535D02*
X140685000Y-96269000D01*
X142162000Y-101792000D02*
X142162000Y-98808000D01*
X140685000Y-96269000D02*
X141590000Y-97174000D01*
D24*
X140762000Y-101792000D02*
X139795999Y-102758001D01*
D23*
X120777999Y-90611999D02*
X121478000Y-91312000D01*
X120777999Y-87937999D02*
X120777999Y-90611999D01*
X141585001Y-94231534D02*
X140735001Y-94231534D01*
X151811000Y-95061000D02*
X152258000Y-94614000D01*
X145542000Y-95945000D02*
X145542000Y-96139000D01*
D24*
X139795999Y-102758001D02*
X126046001Y-102758001D01*
D25*
X142778534Y-94231534D02*
X142385001Y-94231534D01*
D26*
%TO.N,VAA*%
X149591000Y-84757500D02*
X148672499Y-83838999D01*
D25*
X133192000Y-87947000D02*
X133192000Y-87822000D01*
D23*
X134351000Y-89472972D02*
X134351000Y-88981000D01*
D26*
X151529000Y-87695000D02*
X150154000Y-87695000D01*
X149542502Y-87083502D02*
X149542502Y-85147685D01*
X150154000Y-87695000D02*
X149542502Y-87083502D01*
X148257000Y-83719000D02*
X148354999Y-83621001D01*
D25*
X135885001Y-89681534D02*
X134926534Y-89681534D01*
D26*
X150734000Y-84504000D02*
X149337500Y-84504000D01*
D23*
X144208500Y-80200500D02*
X144208500Y-77660500D01*
D26*
X148354999Y-83521499D02*
X148354999Y-83457999D01*
X149542502Y-85147685D02*
X149542502Y-84582000D01*
D27*
X131382000Y-101808000D02*
X130604000Y-101030000D01*
D26*
X148672499Y-83838999D02*
X148354999Y-83521499D01*
D23*
X134351000Y-89472972D02*
X134559562Y-89681534D01*
D26*
X148100999Y-83203999D02*
X147701000Y-82804000D01*
D23*
X142668500Y-82931000D02*
X142668500Y-81740500D01*
X134559562Y-89681534D02*
X135885001Y-89681534D01*
D27*
X132954000Y-101808000D02*
X131886691Y-101808000D01*
X131886691Y-101808000D02*
X131382000Y-101808000D01*
D26*
X149591000Y-85536000D02*
X149591000Y-84757500D01*
X150609000Y-84504000D02*
X150734000Y-84504000D01*
X149337500Y-84504000D02*
X148672499Y-83838999D01*
X148354999Y-83457999D02*
X148100999Y-83203999D01*
D23*
X134351000Y-88981000D02*
X133192000Y-87822000D01*
D26*
X148354999Y-83621001D02*
X148354999Y-83521499D01*
D23*
X142668500Y-81740500D02*
X144208500Y-80200500D01*
D24*
%TO.N,GNDA*%
X138796000Y-110682000D02*
X138796000Y-112808500D01*
D26*
X145337000Y-83289000D02*
X146912502Y-81713498D01*
D24*
X137165815Y-95885000D02*
X137731500Y-95885000D01*
D26*
X145337000Y-83504000D02*
X145337000Y-83289000D01*
D23*
X139031001Y-92629001D02*
X139431000Y-93029000D01*
D24*
X127684000Y-99415000D02*
X128166000Y-98933000D01*
X132207000Y-99504500D02*
X132772685Y-99504500D01*
X130937000Y-94996000D02*
X130937000Y-95377000D01*
D26*
X144853999Y-87125001D02*
X145423998Y-87695000D01*
D24*
X130873500Y-108219230D02*
X130873500Y-104219500D01*
D26*
X131176000Y-89838000D02*
X131192000Y-89854000D01*
D24*
X136392185Y-95885000D02*
X137165815Y-95885000D01*
D25*
X135885001Y-90331534D02*
X132876534Y-90331534D01*
D24*
X127684000Y-101030000D02*
X127684000Y-99415000D01*
D26*
X150031501Y-82150001D02*
X150431500Y-82550000D01*
X145423998Y-87695000D02*
X146129000Y-87695000D01*
D24*
X128166000Y-98933000D02*
X128333500Y-98933000D01*
D26*
X150734000Y-82504000D02*
X150477500Y-82504000D01*
X131176000Y-87838000D02*
X131192000Y-87822000D01*
X150477500Y-82504000D02*
X150431500Y-82550000D01*
X145337000Y-85219000D02*
X144853999Y-85702001D01*
X149594998Y-81713498D02*
X150031501Y-82150001D01*
X146912502Y-81713498D02*
X149594998Y-81713498D01*
D23*
X137302464Y-90331534D02*
X137633999Y-89999999D01*
D26*
X144853999Y-85702001D02*
X144853999Y-87125001D01*
X131176000Y-88711000D02*
X131176000Y-87838000D01*
X131176000Y-88711000D02*
X131176000Y-89838000D01*
D23*
X135885001Y-90331534D02*
X137302464Y-90331534D01*
X138033998Y-86933002D02*
X138669000Y-86298000D01*
D24*
X132700000Y-110394980D02*
X132700000Y-110045730D01*
X132700000Y-110045730D02*
X130873500Y-108219230D01*
D25*
X132733999Y-90188999D02*
X132334000Y-89789000D01*
D24*
X138796000Y-112808500D02*
X139144500Y-113157000D01*
D26*
X130287000Y-88711000D02*
X131176000Y-88711000D01*
D23*
X138033998Y-89600000D02*
X138033998Y-86933002D01*
D24*
X132772685Y-99504500D02*
X136392185Y-95885000D01*
D23*
X138033998Y-91631998D02*
X139031001Y-92629001D01*
X137633999Y-89999999D02*
X138033998Y-89600000D01*
X138033998Y-89600000D02*
X138033998Y-91631998D01*
D26*
X145337000Y-83504000D02*
X145337000Y-85219000D01*
D25*
X132876534Y-90331534D02*
X132733999Y-90188999D01*
D27*
%TO.N,Net-(J2-Pad1)*%
X154798000Y-88838000D02*
X157338000Y-88838000D01*
D26*
X154671000Y-88965000D02*
X154798000Y-88838000D01*
X151529000Y-88965000D02*
X154671000Y-88965000D01*
D27*
%TO.N,Net-(J3-Pad1)*%
X154798000Y-86298000D02*
X157338000Y-86298000D01*
D26*
X151529000Y-86425000D02*
X154671000Y-86425000D01*
X154671000Y-86425000D02*
X154798000Y-86298000D01*
D25*
%TO.N,Net-(J4-Pad1)*%
X133540500Y-82804000D02*
X133540500Y-86460498D01*
X131493500Y-80202000D02*
X131493500Y-79190000D01*
X133540500Y-86460498D02*
X134559991Y-87479989D01*
X134559991Y-88506524D02*
X135085001Y-89031534D01*
X135085001Y-89031534D02*
X135885001Y-89031534D01*
X134559991Y-87479989D02*
X134559991Y-88506524D01*
X131493500Y-79190000D02*
X131493500Y-77662000D01*
X131493500Y-80202000D02*
X131493500Y-81214000D01*
X131940500Y-81661000D02*
X132397500Y-81661000D01*
X131493500Y-81214000D02*
X131940500Y-81661000D01*
X132397500Y-81661000D02*
X133540500Y-82804000D01*
%TO.N,Net-(J5-Pad1)*%
X134033500Y-81214000D02*
X133477000Y-81770500D01*
X133990510Y-86274098D02*
X135010000Y-87293588D01*
X134033500Y-79190000D02*
X134033500Y-77662000D01*
X134033500Y-80202000D02*
X134033500Y-81214000D01*
X135010000Y-87293588D02*
X135010000Y-88306533D01*
X135010000Y-88306533D02*
X135085001Y-88381534D01*
X133477000Y-82104090D02*
X133990510Y-82617600D01*
X133990510Y-82617600D02*
X133990510Y-86274098D01*
X134033500Y-80202000D02*
X134033500Y-79190000D01*
X135085001Y-88381534D02*
X135885001Y-88381534D01*
X133477000Y-81770500D02*
X133477000Y-82104090D01*
%TO.N,Net-(J6-Pad1)*%
X138669000Y-82217500D02*
X138669000Y-84393000D01*
X136573500Y-80202000D02*
X136573500Y-77662000D01*
X138669000Y-84393000D02*
X135885001Y-87176999D01*
X135885001Y-87176999D02*
X135885001Y-87731534D01*
X136827500Y-80456000D02*
X136573500Y-80202000D01*
X136573500Y-80202000D02*
X136573500Y-80249000D01*
X136653500Y-80202000D02*
X138669000Y-82217500D01*
X136573500Y-80202000D02*
X136653500Y-80202000D01*
%TO.N,Net-(J7-Pad1)*%
X141585001Y-87281534D02*
X141585001Y-87731534D01*
X139128500Y-81229000D02*
X139128500Y-84825033D01*
X139113500Y-79190000D02*
X139113500Y-77662000D01*
X139113500Y-80202000D02*
X139113500Y-81214000D01*
X139128500Y-84825033D02*
X141585001Y-87281534D01*
X139113500Y-81214000D02*
X139128500Y-81229000D01*
X139113500Y-80202000D02*
X139113500Y-79190000D01*
%TO.N,Net-(J8-Pad1)*%
X146748500Y-80200500D02*
X146748500Y-79188500D01*
X144953497Y-81287501D02*
X145661499Y-81287501D01*
X146748500Y-79188500D02*
X146748500Y-77660500D01*
X143764000Y-87652535D02*
X143764000Y-82476998D01*
X143764000Y-82476998D02*
X144953497Y-81287501D01*
X142385001Y-89031534D02*
X143764000Y-87652535D01*
X141585001Y-89031534D02*
X142385001Y-89031534D01*
X145661499Y-81287501D02*
X146748500Y-80200500D01*
%TO.N,Net-(J9-Pad1)*%
X141585001Y-88381534D02*
X141160011Y-88381534D01*
X141653500Y-80202000D02*
X141653500Y-86154500D01*
X142733000Y-87234000D02*
X142733000Y-87918537D01*
X141160011Y-88381534D02*
X141160011Y-88306544D01*
X141160011Y-88306544D02*
X142344993Y-88306544D01*
X141653500Y-77662000D02*
X141653500Y-78674000D01*
X141653500Y-86154500D02*
X142733000Y-87234000D01*
X142344993Y-88306544D02*
X142733000Y-87918537D01*
X141653500Y-78674000D02*
X141653500Y-80202000D01*
%TO.N,Net-(J10-Pad2)*%
X135885001Y-92931534D02*
X136685001Y-92931534D01*
X136685001Y-92931534D02*
X139050000Y-95296533D01*
X139050000Y-95296533D02*
X139050000Y-97224000D01*
X139050000Y-97224000D02*
X139050000Y-98236000D01*
%TO.N,Net-(J11-Pad1)*%
X129398000Y-87152000D02*
X129398000Y-86552000D01*
X129398000Y-89770002D02*
X129398000Y-87152000D01*
X134577467Y-91124000D02*
X130751998Y-91124000D01*
X128498000Y-86552000D02*
X126858000Y-86552000D01*
X130751998Y-91124000D02*
X129398000Y-89770002D01*
X126858000Y-86552000D02*
X124318000Y-86552000D01*
X135885001Y-91631534D02*
X135085001Y-91631534D01*
X135085001Y-91631534D02*
X134577467Y-91124000D01*
X129398000Y-86552000D02*
X128498000Y-86552000D01*
%TO.N,Net-(J12-Pad1)*%
X126858000Y-89092000D02*
X127870000Y-89092000D01*
X130449489Y-91671489D02*
X134474956Y-91671489D01*
X121778000Y-89412000D02*
X123998000Y-89412000D01*
X123998000Y-89412000D02*
X124318000Y-89092000D01*
X125330000Y-89092000D02*
X126858000Y-89092000D01*
X124318000Y-89092000D02*
X125330000Y-89092000D01*
X134474956Y-91671489D02*
X135085001Y-92281534D01*
X135085001Y-92281534D02*
X135885001Y-92281534D01*
X127870000Y-89092000D02*
X130449489Y-91671489D01*
%TO.N,Net-(J13-Pad1)*%
X141585001Y-92281534D02*
X142385001Y-92281534D01*
X148206824Y-96458000D02*
X153786000Y-96458000D01*
X146262801Y-94513977D02*
X148206824Y-96458000D01*
X153786000Y-96458000D02*
X154798000Y-96458000D01*
X144059846Y-92405022D02*
X146168801Y-94513977D01*
X154798000Y-96458000D02*
X155810000Y-96458000D01*
X142508489Y-92405022D02*
X144059846Y-92405022D01*
X155810000Y-96458000D02*
X157338000Y-96458000D01*
X142385001Y-92281534D02*
X142508489Y-92405022D01*
X146168801Y-94513977D02*
X146262801Y-94513977D01*
%TO.N,Net-(J14-Pad1)*%
X151880998Y-93918000D02*
X151909999Y-93888999D01*
X142398590Y-91631534D02*
X142722067Y-91955011D01*
X144269007Y-91955011D02*
X146231996Y-93918000D01*
X146231996Y-93918000D02*
X151880998Y-93918000D01*
X141585001Y-91631534D02*
X142398590Y-91631534D01*
X153786000Y-93918000D02*
X154798000Y-93918000D01*
X142722067Y-91955011D02*
X144269007Y-91955011D01*
X157338000Y-93918000D02*
X154798000Y-93918000D01*
X153756999Y-93888999D02*
X153786000Y-93918000D01*
X151909999Y-93888999D02*
X153756999Y-93888999D01*
%TO.N,Net-(J15-Pad1)*%
X129862511Y-98704511D02*
X132512024Y-98704511D01*
X135885001Y-95331534D02*
X135885001Y-94881534D01*
X126858000Y-96712000D02*
X127870000Y-96712000D01*
X127870000Y-96712000D02*
X129862511Y-98704511D01*
X132512024Y-98704511D02*
X135885001Y-95331534D01*
X126858000Y-96712000D02*
X124318000Y-96712000D01*
%TO.N,Net-(J16-Pad1)*%
X145751588Y-95413999D02*
X145890001Y-95413999D01*
X141585001Y-93581534D02*
X143919123Y-93581534D01*
X153786000Y-101538000D02*
X154798000Y-101538000D01*
X145890001Y-95413999D02*
X146711501Y-96235499D01*
X143919123Y-93581534D02*
X145751588Y-95413999D01*
X151875589Y-101538000D02*
X153786000Y-101538000D01*
X146711501Y-96235499D02*
X146711501Y-96373912D01*
X154798000Y-101538000D02*
X155810000Y-101538000D01*
X155810000Y-101538000D02*
X157338000Y-101538000D01*
X146711501Y-96373912D02*
X151875589Y-101538000D01*
%TO.N,Net-(J17-Pad1)*%
X142385001Y-92931534D02*
X141585001Y-92931534D01*
X157338000Y-98998000D02*
X154798000Y-98998000D01*
X154798000Y-98998000D02*
X150110413Y-98998000D01*
X143905534Y-92931534D02*
X142385001Y-92931534D01*
X150110413Y-98998000D02*
X146076401Y-94963988D01*
X146076401Y-94963988D02*
X145937988Y-94963988D01*
X145937988Y-94963988D02*
X143905534Y-92931534D01*
%TO.N,Net-(J18-Pad1)*%
X142385001Y-90981534D02*
X141585001Y-90981534D01*
X152512000Y-92648000D02*
X145654000Y-92648000D01*
X145654000Y-92648000D02*
X144511000Y-91505000D01*
X154798000Y-91378000D02*
X154798000Y-91391500D01*
X144511000Y-91505000D02*
X142908467Y-91505000D01*
X155810000Y-91378000D02*
X157338000Y-91378000D01*
X154798000Y-91378000D02*
X155810000Y-91378000D01*
X153475500Y-92714000D02*
X152258000Y-92714000D01*
X142908467Y-91505000D02*
X142385001Y-90981534D01*
X154798000Y-91391500D02*
X153475500Y-92714000D01*
%TO.N,Net-(J20-Pad1)*%
X125330000Y-94172000D02*
X126858000Y-94172000D01*
X135885001Y-94231534D02*
X135085001Y-94231534D01*
X133489940Y-95442000D02*
X131303000Y-97628940D01*
X124318000Y-94172000D02*
X125330000Y-94172000D01*
X131303000Y-97628940D02*
X127846060Y-94172000D01*
X133874535Y-95442000D02*
X133489940Y-95442000D01*
X135085001Y-94231534D02*
X133874535Y-95442000D01*
X127846060Y-94172000D02*
X126858000Y-94172000D01*
%TO.N,Net-(J21-Pad1)*%
X128382000Y-91632000D02*
X126858000Y-91632000D01*
X125846000Y-91632000D02*
X124318000Y-91632000D01*
X135885001Y-93581534D02*
X132137474Y-93581534D01*
X131303000Y-92747060D02*
X129497060Y-92747060D01*
X126858000Y-91632000D02*
X125846000Y-91632000D01*
X129497060Y-92747060D02*
X128382000Y-91632000D01*
X132137474Y-93581534D02*
X131303000Y-92747060D01*
%TO.N,Net-(U1-Pad2)*%
X144511000Y-88965000D02*
X146129000Y-88965000D01*
X143794466Y-89681534D02*
X144511000Y-88965000D01*
X143794466Y-89681534D02*
X141585001Y-89681534D01*
%TO.N,Net-(U1-Pad4)*%
X147229001Y-87050001D02*
X146604000Y-86425000D01*
X142913468Y-90860001D02*
X147164001Y-90860001D01*
X146604000Y-86425000D02*
X146129000Y-86425000D01*
X147229001Y-90795001D02*
X147229001Y-87050001D01*
X142385001Y-90331534D02*
X142913468Y-90860001D01*
X141585001Y-90331534D02*
X142385001Y-90331534D01*
X147164001Y-90860001D02*
X147229001Y-90795001D01*
D27*
%TO.N,Net-(D2-Pad1)*%
X138796000Y-108142000D02*
X136256000Y-108142000D01*
X134095730Y-108142000D02*
X132700000Y-106746270D01*
X136256000Y-108142000D02*
X134095730Y-108142000D01*
X132700000Y-104062000D02*
X132954000Y-103808000D01*
X132700000Y-106397020D02*
X132700000Y-104062000D01*
X132700000Y-106746270D02*
X132700000Y-106397020D01*
%TD*%
%TA.AperFunction,Conductor*%
%TO.N,GND*%
G36*
X159820121Y-75142002D02*
G01*
X159866614Y-75195658D01*
X159878000Y-75248000D01*
X159878000Y-114112000D01*
X159857998Y-114180121D01*
X159804342Y-114226614D01*
X159752000Y-114238000D01*
X142190478Y-114238000D01*
X142122357Y-114217998D01*
X142075864Y-114164342D01*
X142065760Y-114094068D01*
X142078340Y-114060389D01*
X142076063Y-114059349D01*
X142132977Y-113934725D01*
X142138002Y-113917612D01*
X142156861Y-113786446D01*
X142157500Y-113777505D01*
X142157500Y-113429115D01*
X142153025Y-113413876D01*
X142151635Y-113412671D01*
X142143952Y-113411000D01*
X141016500Y-113411000D01*
X140948379Y-113390998D01*
X140901886Y-113337342D01*
X140890500Y-113285000D01*
X140890500Y-112083000D01*
X140905314Y-112032548D01*
X141398500Y-112032548D01*
X141398500Y-112884885D01*
X141402975Y-112900124D01*
X141404365Y-112901329D01*
X141412048Y-112903000D01*
X142139385Y-112903000D01*
X142154624Y-112898525D01*
X142155829Y-112897135D01*
X142157500Y-112889452D01*
X142157500Y-112534257D01*
X142157339Y-112529750D01*
X142152760Y-112465731D01*
X142150374Y-112452509D01*
X142113681Y-112327542D01*
X142106267Y-112311308D01*
X142037074Y-112203640D01*
X142025387Y-112190153D01*
X142011621Y-112178224D01*
X141973238Y-112118498D01*
X141973238Y-112047501D01*
X142011622Y-111987775D01*
X142076203Y-111958282D01*
X142094134Y-111957000D01*
X142095743Y-111957000D01*
X142100250Y-111956839D01*
X142164269Y-111952260D01*
X142177491Y-111949874D01*
X142302458Y-111913181D01*
X142318692Y-111905767D01*
X142426360Y-111836574D01*
X142439847Y-111824888D01*
X142510677Y-111743145D01*
X142570403Y-111704761D01*
X142641400Y-111704761D01*
X142701126Y-111743144D01*
X142711900Y-111757537D01*
X142721426Y-111772360D01*
X142733112Y-111785847D01*
X142829840Y-111869662D01*
X142844848Y-111879307D01*
X142961275Y-111932477D01*
X142978388Y-111937502D01*
X143109554Y-111956361D01*
X143118495Y-111957000D01*
X143603885Y-111957000D01*
X143619124Y-111952525D01*
X143620329Y-111951135D01*
X143622000Y-111943452D01*
X143622000Y-110954115D01*
X143620659Y-110949548D01*
X144130000Y-110949548D01*
X144130000Y-111938885D01*
X144134475Y-111954124D01*
X144135865Y-111955329D01*
X144143548Y-111957000D01*
X144635743Y-111957000D01*
X144640250Y-111956839D01*
X144704269Y-111952260D01*
X144717491Y-111949874D01*
X144842458Y-111913181D01*
X144858692Y-111905767D01*
X144966360Y-111836574D01*
X144979847Y-111824888D01*
X145063662Y-111728160D01*
X145073307Y-111713152D01*
X145126477Y-111596725D01*
X145131502Y-111579612D01*
X145150361Y-111448446D01*
X145151000Y-111439505D01*
X145151000Y-110954115D01*
X145146525Y-110938876D01*
X145145135Y-110937671D01*
X145137452Y-110936000D01*
X144148115Y-110936000D01*
X144132876Y-110940475D01*
X144131671Y-110941865D01*
X144130000Y-110949548D01*
X143620659Y-110949548D01*
X143617525Y-110938876D01*
X143616135Y-110937671D01*
X143608452Y-110936000D01*
X141608115Y-110936000D01*
X141592876Y-110940475D01*
X141591671Y-110941865D01*
X141590000Y-110949548D01*
X141590000Y-111893000D01*
X141569998Y-111961121D01*
X141516342Y-112007614D01*
X141464000Y-112019000D01*
X141416615Y-112019000D01*
X141401376Y-112023475D01*
X141400171Y-112024865D01*
X141398500Y-112032548D01*
X140905314Y-112032548D01*
X140910502Y-112014879D01*
X140964158Y-111968386D01*
X141016500Y-111957000D01*
X141063885Y-111957000D01*
X141079124Y-111952525D01*
X141080329Y-111951135D01*
X141082000Y-111943452D01*
X141082000Y-110662528D01*
X146018570Y-110662528D01*
X146018570Y-111642403D01*
X146018731Y-111646910D01*
X146023310Y-111710929D01*
X146025696Y-111724151D01*
X146062389Y-111849118D01*
X146069803Y-111865352D01*
X146138996Y-111973020D01*
X146150682Y-111986507D01*
X146247410Y-112070322D01*
X146262418Y-112079967D01*
X146378845Y-112133137D01*
X146395958Y-112138162D01*
X146527124Y-112157021D01*
X146536065Y-112157660D01*
X147159885Y-112157660D01*
X147175124Y-112153185D01*
X147176329Y-112151795D01*
X147178000Y-112144112D01*
X147178000Y-110667095D01*
X147176659Y-110662528D01*
X147686000Y-110662528D01*
X147686000Y-112139545D01*
X147690475Y-112154784D01*
X147691865Y-112155989D01*
X147699548Y-112157660D01*
X148330173Y-112157660D01*
X148334680Y-112157499D01*
X148398699Y-112152920D01*
X148411921Y-112150534D01*
X148536888Y-112113841D01*
X148553122Y-112106427D01*
X148660790Y-112037234D01*
X148674277Y-112025548D01*
X148758092Y-111928820D01*
X148767737Y-111913812D01*
X148820907Y-111797385D01*
X148825932Y-111780272D01*
X148844791Y-111649106D01*
X148845430Y-111640163D01*
X148845430Y-110667095D01*
X148840955Y-110651856D01*
X148839565Y-110650651D01*
X148831882Y-110648980D01*
X147704115Y-110648980D01*
X147688876Y-110653455D01*
X147687671Y-110654845D01*
X147686000Y-110662528D01*
X147176659Y-110662528D01*
X147173525Y-110651856D01*
X147172135Y-110650651D01*
X147164452Y-110648980D01*
X146036685Y-110648980D01*
X146021446Y-110653455D01*
X146020241Y-110654845D01*
X146018570Y-110662528D01*
X141082000Y-110662528D01*
X141082000Y-110554000D01*
X141102002Y-110485879D01*
X141155658Y-110439386D01*
X141208000Y-110428000D01*
X145132885Y-110428000D01*
X145148124Y-110423525D01*
X145149329Y-110422135D01*
X145151000Y-110414452D01*
X145151000Y-109922257D01*
X145150839Y-109917750D01*
X145146260Y-109853731D01*
X145143874Y-109840509D01*
X145107181Y-109715542D01*
X145099767Y-109699308D01*
X145030574Y-109591640D01*
X145018888Y-109578154D01*
X144937534Y-109507661D01*
X144899150Y-109447935D01*
X144899150Y-109376939D01*
X144937533Y-109317212D01*
X144951925Y-109306438D01*
X144966691Y-109296949D01*
X144966694Y-109296947D01*
X144974271Y-109292077D01*
X145014048Y-109246172D01*
X145064082Y-109188431D01*
X145064084Y-109188428D01*
X145069984Y-109181619D01*
X145130700Y-109048670D01*
X145131982Y-109039756D01*
X145131984Y-109039748D01*
X145136467Y-109008567D01*
X145165960Y-108943987D01*
X145225687Y-108905604D01*
X145261184Y-108900500D01*
X145621033Y-108900500D01*
X145639983Y-108901933D01*
X145653140Y-108903935D01*
X145653144Y-108903935D01*
X145660374Y-108905035D01*
X145667666Y-108904442D01*
X145667669Y-108904442D01*
X145711030Y-108900915D01*
X145721244Y-108900500D01*
X145729906Y-108900500D01*
X145733540Y-108900076D01*
X145733544Y-108900076D01*
X145759503Y-108897049D01*
X145763882Y-108896616D01*
X145772667Y-108895901D01*
X145836625Y-108890700D01*
X145843588Y-108888444D01*
X145849476Y-108887268D01*
X145855392Y-108885870D01*
X145862663Y-108885022D01*
X145869542Y-108882525D01*
X145876671Y-108880840D01*
X145876997Y-108882220D01*
X145939860Y-108878277D01*
X146001872Y-108912848D01*
X146035349Y-108975456D01*
X146036716Y-109019089D01*
X146019209Y-109140852D01*
X146018570Y-109149795D01*
X146018570Y-110122865D01*
X146023045Y-110138104D01*
X146024435Y-110139309D01*
X146032118Y-110140980D01*
X147159885Y-110140980D01*
X147175124Y-110136505D01*
X147176329Y-110135115D01*
X147178000Y-110127432D01*
X147178000Y-108650415D01*
X147176659Y-108645848D01*
X147686000Y-108645848D01*
X147686000Y-110122865D01*
X147690475Y-110138104D01*
X147691865Y-110139309D01*
X147699548Y-110140980D01*
X148827315Y-110140980D01*
X148842554Y-110136505D01*
X148843759Y-110135115D01*
X148845430Y-110127432D01*
X148845430Y-109147557D01*
X148845269Y-109143050D01*
X148840690Y-109079031D01*
X148838304Y-109065809D01*
X148801611Y-108940842D01*
X148794197Y-108924608D01*
X148725004Y-108816940D01*
X148713318Y-108803453D01*
X148616590Y-108719638D01*
X148601582Y-108709993D01*
X148485155Y-108656823D01*
X148468042Y-108651798D01*
X148336876Y-108632939D01*
X148327935Y-108632300D01*
X147704115Y-108632300D01*
X147688876Y-108636775D01*
X147687671Y-108638165D01*
X147686000Y-108645848D01*
X147176659Y-108645848D01*
X147173525Y-108635176D01*
X147172135Y-108633971D01*
X147164452Y-108632300D01*
X146573591Y-108632300D01*
X146505470Y-108612298D01*
X146458977Y-108558642D01*
X146448873Y-108488368D01*
X146478367Y-108423788D01*
X146484496Y-108417205D01*
X146704596Y-108197105D01*
X146766908Y-108163079D01*
X146793691Y-108160200D01*
X148332430Y-108160200D01*
X148405509Y-108154973D01*
X148483595Y-108132045D01*
X148537100Y-108116335D01*
X148537102Y-108116334D01*
X148545746Y-108113796D01*
X148583902Y-108089274D01*
X148661121Y-108039649D01*
X148661124Y-108039647D01*
X148668701Y-108034777D01*
X148674602Y-108027967D01*
X148758512Y-107931131D01*
X148758514Y-107931128D01*
X148764414Y-107924319D01*
X148825130Y-107791370D01*
X148826412Y-107782454D01*
X148845291Y-107651148D01*
X148845292Y-107651141D01*
X148845930Y-107646700D01*
X148845930Y-105147340D01*
X148840703Y-105074261D01*
X148806174Y-104956665D01*
X148802065Y-104942670D01*
X148802064Y-104942668D01*
X148799526Y-104934024D01*
X148768931Y-104886418D01*
X148725379Y-104818649D01*
X148725377Y-104818646D01*
X148720507Y-104811069D01*
X148713697Y-104805168D01*
X148616861Y-104721258D01*
X148616858Y-104721256D01*
X148610049Y-104715356D01*
X148477100Y-104654640D01*
X148468185Y-104653358D01*
X148468184Y-104653358D01*
X148336878Y-104634479D01*
X148336871Y-104634478D01*
X148332430Y-104633840D01*
X147142941Y-104633840D01*
X147074820Y-104613838D01*
X147053846Y-104596935D01*
X146357232Y-103900321D01*
X146344844Y-103885907D01*
X146336958Y-103875191D01*
X146332618Y-103869293D01*
X146293879Y-103836381D01*
X146286362Y-103829451D01*
X146280245Y-103823334D01*
X146277372Y-103821061D01*
X146277363Y-103821053D01*
X146256886Y-103804853D01*
X146253482Y-103802062D01*
X146203435Y-103759544D01*
X146203433Y-103759543D01*
X146197853Y-103754802D01*
X146191335Y-103751474D01*
X146186310Y-103748122D01*
X146181165Y-103744945D01*
X146175427Y-103740405D01*
X146148218Y-103727688D01*
X146109324Y-103709510D01*
X146105374Y-103707579D01*
X146046884Y-103677713D01*
X146046882Y-103677712D01*
X146040364Y-103674384D01*
X146033257Y-103672645D01*
X146027606Y-103670543D01*
X146021857Y-103668630D01*
X146015227Y-103665532D01*
X146008064Y-103664042D01*
X146001114Y-103661730D01*
X146002155Y-103658602D01*
X145952454Y-103632098D01*
X145917815Y-103570125D01*
X145922180Y-103499262D01*
X145964163Y-103442009D01*
X146031675Y-103416447D01*
X146048270Y-103415260D01*
X146061491Y-103412874D01*
X146186458Y-103376181D01*
X146202692Y-103368767D01*
X146310360Y-103299574D01*
X146323847Y-103287888D01*
X146407662Y-103191160D01*
X146417307Y-103176152D01*
X146470477Y-103059725D01*
X146475502Y-103042612D01*
X146494361Y-102911446D01*
X146495000Y-102902505D01*
X146495000Y-102064115D01*
X146490525Y-102048876D01*
X146489135Y-102047671D01*
X146481452Y-102046000D01*
X144954000Y-102046000D01*
X144885879Y-102025998D01*
X144839386Y-101972342D01*
X144828000Y-101920000D01*
X144828000Y-100182115D01*
X144826659Y-100177548D01*
X145336000Y-100177548D01*
X145336000Y-101519885D01*
X145340475Y-101535124D01*
X145341865Y-101536329D01*
X145349548Y-101538000D01*
X146476885Y-101538000D01*
X146492124Y-101533525D01*
X146493329Y-101532135D01*
X146495000Y-101524452D01*
X146495000Y-100679257D01*
X146494839Y-100674750D01*
X146490260Y-100610731D01*
X146487874Y-100597509D01*
X146451181Y-100472542D01*
X146443767Y-100456308D01*
X146374574Y-100348640D01*
X146362888Y-100335153D01*
X146266160Y-100251338D01*
X146251152Y-100241693D01*
X146134725Y-100188523D01*
X146117612Y-100183498D01*
X145986446Y-100164639D01*
X145977505Y-100164000D01*
X145354115Y-100164000D01*
X145338876Y-100168475D01*
X145337671Y-100169865D01*
X145336000Y-100177548D01*
X144826659Y-100177548D01*
X144823525Y-100166876D01*
X144822135Y-100165671D01*
X144814452Y-100164000D01*
X144184257Y-100164000D01*
X144179750Y-100164161D01*
X144115731Y-100168740D01*
X144102509Y-100171126D01*
X143977542Y-100207819D01*
X143961308Y-100215233D01*
X143853640Y-100284426D01*
X143840153Y-100296112D01*
X143756338Y-100392840D01*
X143746692Y-100407850D01*
X143737252Y-100428522D01*
X143690760Y-100482178D01*
X143622639Y-100502181D01*
X143554518Y-100482180D01*
X143516640Y-100444302D01*
X143454949Y-100348309D01*
X143454947Y-100348306D01*
X143450077Y-100340729D01*
X143443008Y-100334604D01*
X143346431Y-100250918D01*
X143346428Y-100250916D01*
X143339619Y-100245016D01*
X143312561Y-100232659D01*
X143214864Y-100188042D01*
X143214863Y-100188042D01*
X143206670Y-100184300D01*
X143197755Y-100183018D01*
X143197754Y-100183018D01*
X143066448Y-100164139D01*
X143066441Y-100164138D01*
X143062000Y-100163500D01*
X142946500Y-100163500D01*
X142878379Y-100143498D01*
X142831886Y-100089842D01*
X142820500Y-100037500D01*
X142820500Y-99223069D01*
X142831887Y-99170726D01*
X142840957Y-99150866D01*
X142844700Y-99142670D01*
X142854993Y-99071079D01*
X142864861Y-99002448D01*
X142864862Y-99002441D01*
X142865500Y-98998000D01*
X142865500Y-98331251D01*
X142885502Y-98263130D01*
X142939158Y-98216637D01*
X143009432Y-98206533D01*
X143074012Y-98236027D01*
X143097498Y-98263131D01*
X143112426Y-98286360D01*
X143124112Y-98299847D01*
X143220840Y-98383662D01*
X143235848Y-98393307D01*
X143352275Y-98446477D01*
X143369388Y-98451502D01*
X143500554Y-98470361D01*
X143509495Y-98471000D01*
X143857885Y-98471000D01*
X143873124Y-98466525D01*
X143874329Y-98465135D01*
X143876000Y-98457452D01*
X143876000Y-97725548D01*
X144384000Y-97725548D01*
X144384000Y-98452885D01*
X144388475Y-98468124D01*
X144389865Y-98469329D01*
X144397548Y-98471000D01*
X144752743Y-98471000D01*
X144757250Y-98470839D01*
X144821269Y-98466260D01*
X144834491Y-98463874D01*
X144959458Y-98427181D01*
X144975692Y-98419767D01*
X145083360Y-98350574D01*
X145096847Y-98338888D01*
X145180662Y-98242160D01*
X145190307Y-98227152D01*
X145243477Y-98110725D01*
X145248502Y-98093612D01*
X145267361Y-97962446D01*
X145268000Y-97953505D01*
X145268000Y-97730115D01*
X145263525Y-97714876D01*
X145262135Y-97713671D01*
X145254452Y-97712000D01*
X144402115Y-97712000D01*
X144386876Y-97716475D01*
X144385671Y-97717865D01*
X144384000Y-97725548D01*
X143876000Y-97725548D01*
X143876000Y-97330000D01*
X143896002Y-97261879D01*
X143949658Y-97215386D01*
X144002000Y-97204000D01*
X145249885Y-97204000D01*
X145265124Y-97199525D01*
X145266329Y-97198135D01*
X145268000Y-97190452D01*
X145268000Y-97165148D01*
X145288002Y-97097027D01*
X145341658Y-97050534D01*
X145411932Y-97040430D01*
X145420183Y-97041899D01*
X145433041Y-97044632D01*
X145440057Y-97046124D01*
X145440060Y-97046124D01*
X145446513Y-97047496D01*
X145637487Y-97047496D01*
X145643939Y-97046124D01*
X145643944Y-97046124D01*
X145730887Y-97027643D01*
X145824287Y-97007790D01*
X145875380Y-96985042D01*
X145992720Y-96932799D01*
X145992722Y-96932798D01*
X145998750Y-96930114D01*
X146025758Y-96910492D01*
X146127756Y-96836386D01*
X146194624Y-96812527D01*
X146263776Y-96828608D01*
X146290912Y-96849227D01*
X151372198Y-101930513D01*
X151379558Y-101938601D01*
X151383616Y-101944995D01*
X151389393Y-101950420D01*
X151432467Y-101990869D01*
X151435309Y-101993624D01*
X151455623Y-102013938D01*
X151459034Y-102016583D01*
X151468054Y-102024287D01*
X151500288Y-102054557D01*
X151507232Y-102058374D01*
X151507234Y-102058376D01*
X151518042Y-102064318D01*
X151534566Y-102075172D01*
X151550566Y-102087583D01*
X151557837Y-102090730D01*
X151557838Y-102090730D01*
X151591140Y-102105141D01*
X151601796Y-102110362D01*
X151640541Y-102131662D01*
X151648224Y-102133634D01*
X151648225Y-102133635D01*
X151660157Y-102136699D01*
X151678861Y-102143103D01*
X151690174Y-102147999D01*
X151690181Y-102148001D01*
X151697453Y-102151148D01*
X151705277Y-102152387D01*
X151705280Y-102152388D01*
X151741124Y-102158065D01*
X151752745Y-102160472D01*
X151789807Y-102169987D01*
X151795564Y-102171465D01*
X151796120Y-102171500D01*
X151816041Y-102171500D01*
X151835751Y-102173051D01*
X151847703Y-102174944D01*
X151847704Y-102174944D01*
X151855533Y-102176184D01*
X151863425Y-102175438D01*
X151899171Y-102172059D01*
X151911029Y-102171500D01*
X153396500Y-102171500D01*
X153464621Y-102191502D01*
X153511114Y-102245158D01*
X153522068Y-102295516D01*
X153522420Y-102295503D01*
X153522490Y-102297452D01*
X153522500Y-102297500D01*
X153522500Y-102300000D01*
X153527727Y-102373079D01*
X153568904Y-102513316D01*
X153573775Y-102520895D01*
X153643051Y-102628691D01*
X153643053Y-102628694D01*
X153647923Y-102636271D01*
X153654733Y-102642172D01*
X153751569Y-102726082D01*
X153751572Y-102726084D01*
X153758381Y-102731984D01*
X153891330Y-102792700D01*
X153900245Y-102793982D01*
X153900246Y-102793982D01*
X154031552Y-102812861D01*
X154031559Y-102812862D01*
X154036000Y-102813500D01*
X155560000Y-102813500D01*
X155633079Y-102808273D01*
X155711165Y-102785345D01*
X155764670Y-102769635D01*
X155764672Y-102769634D01*
X155773316Y-102767096D01*
X155837135Y-102726082D01*
X155888691Y-102692949D01*
X155888694Y-102692947D01*
X155896271Y-102688077D01*
X155972620Y-102599967D01*
X156032345Y-102561584D01*
X156103341Y-102561584D01*
X156163068Y-102599968D01*
X156173840Y-102614358D01*
X156187923Y-102636271D01*
X156194733Y-102642172D01*
X156291569Y-102726082D01*
X156291572Y-102726084D01*
X156298381Y-102731984D01*
X156431330Y-102792700D01*
X156440245Y-102793982D01*
X156440246Y-102793982D01*
X156571552Y-102812861D01*
X156571559Y-102812862D01*
X156576000Y-102813500D01*
X158100000Y-102813500D01*
X158173079Y-102808273D01*
X158251165Y-102785345D01*
X158304670Y-102769635D01*
X158304672Y-102769634D01*
X158313316Y-102767096D01*
X158377135Y-102726082D01*
X158428691Y-102692949D01*
X158428694Y-102692947D01*
X158436271Y-102688077D01*
X158476048Y-102642172D01*
X158526082Y-102584431D01*
X158526084Y-102584428D01*
X158531984Y-102577619D01*
X158592700Y-102444670D01*
X158603962Y-102366340D01*
X158612861Y-102304448D01*
X158612862Y-102304441D01*
X158613500Y-102300000D01*
X158613500Y-100776000D01*
X158608273Y-100702921D01*
X158579204Y-100603921D01*
X158569635Y-100571330D01*
X158569634Y-100571328D01*
X158567096Y-100562684D01*
X158520335Y-100489923D01*
X158492949Y-100447309D01*
X158492947Y-100447306D01*
X158488077Y-100439729D01*
X158399967Y-100363380D01*
X158361584Y-100303655D01*
X158361584Y-100232659D01*
X158399968Y-100172932D01*
X158414359Y-100162159D01*
X158436271Y-100148077D01*
X158476048Y-100102172D01*
X158526082Y-100044431D01*
X158526084Y-100044428D01*
X158531984Y-100037619D01*
X158592700Y-99904670D01*
X158603962Y-99826340D01*
X158612861Y-99764448D01*
X158612862Y-99764441D01*
X158613500Y-99760000D01*
X158613500Y-98236000D01*
X158608273Y-98162921D01*
X158567096Y-98022684D01*
X158521393Y-97951569D01*
X158492949Y-97907309D01*
X158492947Y-97907306D01*
X158488077Y-97899729D01*
X158399967Y-97823380D01*
X158361584Y-97763655D01*
X158361584Y-97692659D01*
X158399968Y-97632932D01*
X158414359Y-97622159D01*
X158436271Y-97608077D01*
X158476048Y-97562172D01*
X158526082Y-97504431D01*
X158526084Y-97504428D01*
X158531984Y-97497619D01*
X158539830Y-97480438D01*
X158588958Y-97372864D01*
X158588958Y-97372863D01*
X158592700Y-97364670D01*
X158603962Y-97286340D01*
X158612861Y-97224448D01*
X158612862Y-97224441D01*
X158613500Y-97220000D01*
X158613500Y-95696000D01*
X158608273Y-95622921D01*
X158583156Y-95537381D01*
X158569635Y-95491330D01*
X158569634Y-95491328D01*
X158567096Y-95482684D01*
X158521393Y-95411569D01*
X158492949Y-95367309D01*
X158492947Y-95367306D01*
X158488077Y-95359729D01*
X158399967Y-95283380D01*
X158361584Y-95223655D01*
X158361584Y-95152659D01*
X158399968Y-95092932D01*
X158414359Y-95082159D01*
X158419788Y-95078670D01*
X158436271Y-95068077D01*
X158448092Y-95054435D01*
X158526082Y-94964431D01*
X158526084Y-94964428D01*
X158531984Y-94957619D01*
X158539307Y-94941584D01*
X158588958Y-94832864D01*
X158588958Y-94832863D01*
X158592700Y-94824670D01*
X158602993Y-94753079D01*
X158612861Y-94684448D01*
X158612862Y-94684441D01*
X158613500Y-94680000D01*
X158613500Y-93156000D01*
X158608273Y-93082921D01*
X158583156Y-92997381D01*
X158569635Y-92951330D01*
X158569634Y-92951328D01*
X158567096Y-92942684D01*
X158525771Y-92878381D01*
X158492949Y-92827309D01*
X158492947Y-92827306D01*
X158488077Y-92819729D01*
X158399967Y-92743380D01*
X158361584Y-92683655D01*
X158361584Y-92612659D01*
X158399968Y-92552932D01*
X158414359Y-92542159D01*
X158419788Y-92538670D01*
X158436271Y-92528077D01*
X158476048Y-92482172D01*
X158526082Y-92424431D01*
X158526084Y-92424428D01*
X158531984Y-92417619D01*
X158541743Y-92396250D01*
X158588958Y-92292864D01*
X158588958Y-92292863D01*
X158592700Y-92284670D01*
X158597369Y-92252194D01*
X158612861Y-92144448D01*
X158612862Y-92144441D01*
X158613500Y-92140000D01*
X158613500Y-90616000D01*
X158608273Y-90542921D01*
X158583156Y-90457381D01*
X158569635Y-90411330D01*
X158569634Y-90411328D01*
X158567096Y-90402684D01*
X158521393Y-90331569D01*
X158492949Y-90287309D01*
X158492947Y-90287306D01*
X158488077Y-90279729D01*
X158399967Y-90203380D01*
X158361584Y-90143655D01*
X158361584Y-90072659D01*
X158399968Y-90012932D01*
X158414359Y-90002159D01*
X158419788Y-89998670D01*
X158436271Y-89988077D01*
X158480307Y-89937257D01*
X158526082Y-89884431D01*
X158526084Y-89884428D01*
X158531984Y-89877619D01*
X158592700Y-89744670D01*
X158605250Y-89657381D01*
X158612861Y-89604448D01*
X158612862Y-89604441D01*
X158613500Y-89600000D01*
X158613500Y-88076000D01*
X158608273Y-88002921D01*
X158583156Y-87917381D01*
X158569635Y-87871330D01*
X158569634Y-87871328D01*
X158567096Y-87862684D01*
X158521393Y-87791569D01*
X158492949Y-87747309D01*
X158492947Y-87747306D01*
X158488077Y-87739729D01*
X158399967Y-87663380D01*
X158361584Y-87603655D01*
X158361584Y-87532659D01*
X158399968Y-87472932D01*
X158414359Y-87462159D01*
X158419788Y-87458670D01*
X158436271Y-87448077D01*
X158480307Y-87397257D01*
X158526082Y-87344431D01*
X158526084Y-87344428D01*
X158531984Y-87337619D01*
X158541743Y-87316250D01*
X158588958Y-87212864D01*
X158588958Y-87212863D01*
X158592700Y-87204670D01*
X158602993Y-87133079D01*
X158612861Y-87064448D01*
X158612862Y-87064441D01*
X158613500Y-87060000D01*
X158613500Y-85536000D01*
X158608273Y-85462921D01*
X158567096Y-85322684D01*
X158521393Y-85251569D01*
X158492949Y-85207309D01*
X158492947Y-85207306D01*
X158488077Y-85199729D01*
X158481267Y-85193828D01*
X158384431Y-85109918D01*
X158384428Y-85109916D01*
X158377619Y-85104016D01*
X158244670Y-85043300D01*
X158235755Y-85042018D01*
X158235754Y-85042018D01*
X158104448Y-85023139D01*
X158104441Y-85023138D01*
X158100000Y-85022500D01*
X156576000Y-85022500D01*
X156502921Y-85027727D01*
X156449884Y-85043300D01*
X156371330Y-85066365D01*
X156371328Y-85066366D01*
X156362684Y-85068904D01*
X156355105Y-85073775D01*
X156247309Y-85143051D01*
X156247306Y-85143053D01*
X156239729Y-85147923D01*
X156233828Y-85154733D01*
X156218221Y-85172745D01*
X156188271Y-85207309D01*
X156163381Y-85236033D01*
X156103655Y-85274416D01*
X156032659Y-85274416D01*
X155972932Y-85236032D01*
X155962159Y-85221641D01*
X155952948Y-85207309D01*
X155948077Y-85199729D01*
X155941267Y-85193828D01*
X155844431Y-85109918D01*
X155844428Y-85109916D01*
X155837619Y-85104016D01*
X155704670Y-85043300D01*
X155695755Y-85042018D01*
X155695754Y-85042018D01*
X155564448Y-85023139D01*
X155564441Y-85023138D01*
X155560000Y-85022500D01*
X154036000Y-85022500D01*
X153962921Y-85027727D01*
X153909884Y-85043300D01*
X153831330Y-85066365D01*
X153831328Y-85066366D01*
X153822684Y-85068904D01*
X153815105Y-85073775D01*
X153707309Y-85143051D01*
X153707306Y-85143053D01*
X153699729Y-85147923D01*
X153693828Y-85154733D01*
X153609918Y-85251569D01*
X153609916Y-85251572D01*
X153604016Y-85258381D01*
X153600272Y-85266579D01*
X153590293Y-85288431D01*
X153543300Y-85391330D01*
X153542018Y-85400245D01*
X153542018Y-85400246D01*
X153526464Y-85508431D01*
X153496971Y-85573012D01*
X153437245Y-85611396D01*
X153401746Y-85616500D01*
X152347791Y-85616500D01*
X152329859Y-85615217D01*
X152308459Y-85612140D01*
X152308444Y-85612139D01*
X152304000Y-85611500D01*
X151777904Y-85611500D01*
X151709783Y-85591498D01*
X151663290Y-85537842D01*
X151653186Y-85467568D01*
X151682680Y-85402988D01*
X151690568Y-85395100D01*
X151695271Y-85392077D01*
X151701173Y-85385266D01*
X151785082Y-85288431D01*
X151785084Y-85288428D01*
X151790984Y-85281619D01*
X151797853Y-85266579D01*
X151847958Y-85156864D01*
X151847958Y-85156863D01*
X151851700Y-85148670D01*
X151858120Y-85104016D01*
X151871861Y-85008448D01*
X151871862Y-85008441D01*
X151872500Y-85004000D01*
X151872500Y-84099291D01*
X151892502Y-84031170D01*
X151930379Y-83993293D01*
X152020118Y-83935621D01*
X152024010Y-83933120D01*
X152077666Y-83886627D01*
X152172355Y-83777351D01*
X152232421Y-83645825D01*
X152252423Y-83577704D01*
X152254577Y-83562724D01*
X152272361Y-83439033D01*
X152272362Y-83439026D01*
X152273000Y-83434585D01*
X152273000Y-80731133D01*
X152267647Y-80657578D01*
X152262364Y-80621476D01*
X152246418Y-80549477D01*
X152201472Y-80399187D01*
X152201472Y-80399186D01*
X152165867Y-80280132D01*
X152162878Y-80267964D01*
X152149109Y-80196797D01*
X152149109Y-80196796D01*
X152099206Y-79938866D01*
X152097441Y-79926461D01*
X152066771Y-79592679D01*
X152066246Y-79580161D01*
X152068463Y-79297819D01*
X152068463Y-79297817D01*
X152068878Y-79244991D01*
X152069599Y-79232483D01*
X152075247Y-79180063D01*
X152105509Y-78899211D01*
X152107469Y-78886835D01*
X152167360Y-78601398D01*
X152167360Y-78601396D01*
X152176302Y-78558779D01*
X152179482Y-78546659D01*
X152242762Y-78346569D01*
X152242762Y-78346568D01*
X152243490Y-78344267D01*
X152261188Y-78268586D01*
X152267053Y-78230592D01*
X152269780Y-78195058D01*
X152272816Y-78155496D01*
X152272816Y-78155484D01*
X152273000Y-78153092D01*
X152273000Y-76461405D01*
X152271913Y-76428197D01*
X152270836Y-76411757D01*
X152267580Y-76378683D01*
X152253797Y-76273950D01*
X152240845Y-76208807D01*
X152232339Y-76177048D01*
X152210997Y-76114148D01*
X152173773Y-76024239D01*
X152167717Y-76011951D01*
X152145313Y-75966499D01*
X152145312Y-75966497D01*
X152144406Y-75964659D01*
X152127973Y-75936182D01*
X152126824Y-75934461D01*
X152092225Y-75882651D01*
X152092214Y-75882636D01*
X152091087Y-75880948D01*
X152080096Y-75866615D01*
X152033127Y-75805370D01*
X152031872Y-75803733D01*
X151988088Y-75753778D01*
X151964846Y-75730521D01*
X151914924Y-75686709D01*
X151837744Y-75627440D01*
X151814418Y-75611840D01*
X151784255Y-75591667D01*
X151784242Y-75591659D01*
X151782539Y-75590520D01*
X151780757Y-75589490D01*
X151755871Y-75575107D01*
X151755867Y-75575105D01*
X151754073Y-75574068D01*
X151694510Y-75544660D01*
X151692607Y-75543871D01*
X151692599Y-75543867D01*
X151606534Y-75508168D01*
X151604627Y-75507377D01*
X151541738Y-75485992D01*
X151509984Y-75477465D01*
X151507973Y-75477064D01*
X151507961Y-75477061D01*
X151467678Y-75469025D01*
X151444851Y-75464471D01*
X151442816Y-75464202D01*
X151442805Y-75464200D01*
X151341182Y-75450758D01*
X151341157Y-75450755D01*
X151340128Y-75450619D01*
X151339068Y-75450514D01*
X151339060Y-75450513D01*
X151308111Y-75447445D01*
X151307062Y-75447341D01*
X151306037Y-75447273D01*
X151306023Y-75447272D01*
X151299636Y-75446850D01*
X151290623Y-75446253D01*
X151285796Y-75446092D01*
X151258442Y-75445178D01*
X151258416Y-75445178D01*
X151257411Y-75445144D01*
X151256394Y-75445143D01*
X151256375Y-75445143D01*
X140696120Y-75438155D01*
X129984626Y-75431066D01*
X129983642Y-75431098D01*
X129983617Y-75431098D01*
X129952373Y-75432102D01*
X129952367Y-75432102D01*
X129951349Y-75432135D01*
X129950337Y-75432201D01*
X129950332Y-75432201D01*
X129935906Y-75433138D01*
X129935877Y-75433140D01*
X129934898Y-75433204D01*
X129901820Y-75436443D01*
X129867840Y-75440897D01*
X129799032Y-75449915D01*
X129799022Y-75449917D01*
X129796967Y-75450186D01*
X129731757Y-75463120D01*
X129699962Y-75471622D01*
X129636983Y-75492969D01*
X129546972Y-75530209D01*
X129487322Y-75559597D01*
X129485545Y-75560622D01*
X129485536Y-75560627D01*
X129471655Y-75568636D01*
X129458812Y-75576045D01*
X129457122Y-75577174D01*
X129457110Y-75577181D01*
X129435418Y-75591667D01*
X129403515Y-75612971D01*
X129401898Y-75614211D01*
X129401894Y-75614214D01*
X129327847Y-75671004D01*
X129327835Y-75671014D01*
X129326218Y-75672254D01*
X129324677Y-75673605D01*
X129324672Y-75673609D01*
X129277771Y-75714723D01*
X129277759Y-75714735D01*
X129276225Y-75716079D01*
X129274780Y-75717524D01*
X129274772Y-75717531D01*
X129254416Y-75737880D01*
X129254409Y-75737888D01*
X129252949Y-75739347D01*
X129209098Y-75789336D01*
X129149790Y-75866615D01*
X129148638Y-75868340D01*
X129148633Y-75868346D01*
X129140212Y-75880948D01*
X129112844Y-75921905D01*
X129096389Y-75950407D01*
X129095486Y-75952237D01*
X129095484Y-75952242D01*
X129088454Y-75966499D01*
X129066985Y-76010040D01*
X129029716Y-76100039D01*
X129029055Y-76101986D01*
X129029052Y-76101995D01*
X129024267Y-76116100D01*
X129008352Y-76163004D01*
X128999839Y-76194797D01*
X128986881Y-76260016D01*
X128973106Y-76364858D01*
X128969855Y-76397952D01*
X128968781Y-76414409D01*
X128967703Y-76447663D01*
X128967703Y-76448700D01*
X128967771Y-76647666D01*
X128968569Y-79005072D01*
X128969349Y-81310829D01*
X128949370Y-81378957D01*
X128935657Y-81396635D01*
X127040876Y-83435957D01*
X126954669Y-83562724D01*
X126922258Y-83630556D01*
X126877793Y-83777273D01*
X126877793Y-83867500D01*
X126857791Y-83935621D01*
X126804135Y-83982114D01*
X126751793Y-83993500D01*
X124143578Y-83993500D01*
X124133514Y-83993026D01*
X124126439Y-83991444D01*
X124078812Y-83992941D01*
X124063000Y-83993438D01*
X124059042Y-83993500D01*
X124024419Y-83993500D01*
X124018190Y-83994287D01*
X124006364Y-83995218D01*
X123960204Y-83996669D01*
X123952586Y-83998882D01*
X123952587Y-83998882D01*
X123939620Y-84002649D01*
X123920262Y-84006658D01*
X123916561Y-84007125D01*
X123906858Y-84008351D01*
X123906856Y-84008351D01*
X123898992Y-84009345D01*
X123856049Y-84026348D01*
X123844828Y-84030189D01*
X123808103Y-84040858D01*
X123808101Y-84040859D01*
X123800490Y-84043070D01*
X123793673Y-84047102D01*
X123793665Y-84047105D01*
X123782040Y-84053981D01*
X123764283Y-84062680D01*
X123758502Y-84064969D01*
X123751723Y-84067653D01*
X123751721Y-84067654D01*
X123744354Y-84070571D01*
X123706990Y-84097718D01*
X123697082Y-84104225D01*
X123657334Y-84127732D01*
X123654563Y-84130175D01*
X123640977Y-84143761D01*
X123625950Y-84156596D01*
X123609801Y-84168329D01*
X123604747Y-84174438D01*
X123604745Y-84174440D01*
X123581931Y-84202017D01*
X123573941Y-84210797D01*
X122172599Y-85612140D01*
X120977095Y-86807644D01*
X120914783Y-86841669D01*
X120843968Y-86836605D01*
X120787132Y-86794058D01*
X120762321Y-86727538D01*
X120762000Y-86718549D01*
X120762000Y-75248000D01*
X120782002Y-75179879D01*
X120835658Y-75133386D01*
X120888000Y-75122000D01*
X159752000Y-75122000D01*
X159820121Y-75142002D01*
G37*
%TD.AperFunction*%
%TA.AperFunction,Conductor*%
G36*
X120940346Y-92135070D02*
G01*
X120945846Y-92137582D01*
X120999500Y-92184077D01*
X121019500Y-92252194D01*
X121019500Y-98424013D01*
X121018067Y-98442963D01*
X121016558Y-98452885D01*
X121014965Y-98463354D01*
X121015558Y-98470646D01*
X121015558Y-98470649D01*
X121019085Y-98514010D01*
X121019500Y-98524224D01*
X121019500Y-98532886D01*
X121019924Y-98536520D01*
X121019924Y-98536524D01*
X121022951Y-98562483D01*
X121023384Y-98566862D01*
X121029300Y-98639605D01*
X121031556Y-98646568D01*
X121032732Y-98652456D01*
X121034130Y-98658373D01*
X121034978Y-98665643D01*
X121059887Y-98734267D01*
X121061304Y-98738395D01*
X121081542Y-98800868D01*
X121081544Y-98800873D01*
X121083798Y-98807830D01*
X121087593Y-98814084D01*
X121090101Y-98819562D01*
X121092815Y-98824981D01*
X121095313Y-98831864D01*
X121099326Y-98837984D01*
X121099326Y-98837985D01*
X121135335Y-98892907D01*
X121137682Y-98896627D01*
X121172622Y-98954208D01*
X121172625Y-98954212D01*
X121175534Y-98959006D01*
X121179249Y-98963212D01*
X121183751Y-98968310D01*
X121185972Y-98970894D01*
X121188255Y-98973624D01*
X121192269Y-98979747D01*
X121197584Y-98984782D01*
X121244132Y-99028877D01*
X121246574Y-99031255D01*
X125417724Y-103202405D01*
X125451750Y-103264717D01*
X125446685Y-103335532D01*
X125404138Y-103392368D01*
X125337618Y-103417179D01*
X125328629Y-103417500D01*
X121239357Y-103417500D01*
X121239357Y-107148500D01*
X128569643Y-107148500D01*
X128569643Y-103966173D01*
X128589645Y-103898052D01*
X128643301Y-103851559D01*
X128713575Y-103841455D01*
X128778155Y-103870949D01*
X128809557Y-103912326D01*
X128811300Y-103916013D01*
X128812925Y-103920201D01*
X128847766Y-103982060D01*
X128850507Y-103985622D01*
X128850511Y-103985629D01*
X128933191Y-104093100D01*
X128933195Y-104093105D01*
X128935935Y-104096666D01*
X128939150Y-104099797D01*
X128939154Y-104099802D01*
X129669389Y-104811069D01*
X129975057Y-105108797D01*
X130009916Y-105142751D01*
X130044757Y-105204610D01*
X130048000Y-105233011D01*
X130048000Y-113093242D01*
X130049088Y-113126469D01*
X130050166Y-113142915D01*
X130053424Y-113175996D01*
X130067218Y-113280771D01*
X130080181Y-113345939D01*
X130088694Y-113377711D01*
X130110054Y-113440638D01*
X130147308Y-113530577D01*
X130176702Y-113590181D01*
X130193149Y-113618667D01*
X130230063Y-113673911D01*
X130289326Y-113751144D01*
X130333139Y-113801103D01*
X130356397Y-113824361D01*
X130406356Y-113868174D01*
X130407993Y-113869430D01*
X130481932Y-113926166D01*
X130481941Y-113926173D01*
X130483589Y-113927437D01*
X130538833Y-113964351D01*
X130540619Y-113965382D01*
X130565531Y-113979766D01*
X130565539Y-113979770D01*
X130567319Y-113980798D01*
X130569158Y-113981705D01*
X130569190Y-113981722D01*
X130604216Y-113998995D01*
X130656465Y-114047063D01*
X130674431Y-114115749D01*
X130652411Y-114183245D01*
X130597396Y-114228120D01*
X130548487Y-114238000D01*
X120888000Y-114238000D01*
X120819879Y-114217998D01*
X120773386Y-114164342D01*
X120762000Y-114112000D01*
X120762000Y-92249682D01*
X120782002Y-92181561D01*
X120835658Y-92135068D01*
X120905932Y-92124964D01*
X120940346Y-92135070D01*
G37*
%TD.AperFunction*%
%TA.AperFunction,Conductor*%
G36*
X140712377Y-103018470D02*
G01*
X140769213Y-103061017D01*
X140789240Y-103101026D01*
X140794904Y-103120316D01*
X140799775Y-103127895D01*
X140869051Y-103235691D01*
X140869053Y-103235694D01*
X140873923Y-103243271D01*
X140880733Y-103249172D01*
X140977569Y-103333082D01*
X140977572Y-103333084D01*
X140984381Y-103338984D01*
X140992579Y-103342728D01*
X141103093Y-103393198D01*
X141117330Y-103399700D01*
X141126245Y-103400982D01*
X141126246Y-103400982D01*
X141257552Y-103419861D01*
X141257559Y-103419862D01*
X141262000Y-103420500D01*
X142450629Y-103420500D01*
X142518750Y-103440502D01*
X142539724Y-103457405D01*
X143194530Y-104112211D01*
X143228556Y-104174523D01*
X143223491Y-104245338D01*
X143180944Y-104302174D01*
X143113915Y-104325808D01*
X143114000Y-104327000D01*
X143047731Y-104331740D01*
X143034509Y-104334126D01*
X142909542Y-104370819D01*
X142893308Y-104378233D01*
X142785640Y-104447426D01*
X142772153Y-104459112D01*
X142701323Y-104540855D01*
X142641597Y-104579239D01*
X142570600Y-104579239D01*
X142510874Y-104540856D01*
X142500100Y-104526463D01*
X142490574Y-104511640D01*
X142478888Y-104498153D01*
X142382160Y-104414338D01*
X142367152Y-104404693D01*
X142250725Y-104351523D01*
X142233612Y-104346498D01*
X142102446Y-104327639D01*
X142093505Y-104327000D01*
X141608115Y-104327000D01*
X141592876Y-104331475D01*
X141591671Y-104332865D01*
X141590000Y-104340548D01*
X141590000Y-105329885D01*
X141594475Y-105345124D01*
X141595865Y-105346329D01*
X141603548Y-105348000D01*
X145132885Y-105348000D01*
X145148124Y-105343525D01*
X145149329Y-105342135D01*
X145151000Y-105334452D01*
X145151000Y-105274499D01*
X145171002Y-105206378D01*
X145224658Y-105159885D01*
X145277000Y-105148499D01*
X145407858Y-105148499D01*
X145475979Y-105168501D01*
X145496953Y-105185404D01*
X145981165Y-105669616D01*
X146015191Y-105731928D01*
X146018070Y-105758711D01*
X146018070Y-106686079D01*
X145998068Y-106754200D01*
X145981165Y-106775174D01*
X145409744Y-107346595D01*
X145347432Y-107380621D01*
X145320649Y-107383500D01*
X145263081Y-107383500D01*
X145194960Y-107363498D01*
X145148467Y-107309842D01*
X145142185Y-107292998D01*
X145107635Y-107175330D01*
X145107634Y-107175328D01*
X145105096Y-107166684D01*
X145063771Y-107102381D01*
X145030949Y-107051309D01*
X145030947Y-107051306D01*
X145026077Y-107043729D01*
X145019267Y-107037828D01*
X144937578Y-106967043D01*
X144899195Y-106907316D01*
X144899195Y-106836320D01*
X144937579Y-106776594D01*
X144951971Y-106765821D01*
X144966360Y-106756574D01*
X144979847Y-106744888D01*
X145063662Y-106648160D01*
X145073307Y-106633152D01*
X145126477Y-106516725D01*
X145131502Y-106499612D01*
X145150361Y-106368446D01*
X145151000Y-106359505D01*
X145151000Y-105874115D01*
X145146525Y-105858876D01*
X145145135Y-105857671D01*
X145137452Y-105856000D01*
X141208000Y-105856000D01*
X141139879Y-105835998D01*
X141093386Y-105782342D01*
X141082000Y-105730000D01*
X141082000Y-104345115D01*
X141077525Y-104329876D01*
X141076135Y-104328671D01*
X141068452Y-104327000D01*
X140651500Y-104327000D01*
X140583379Y-104306998D01*
X140536886Y-104253342D01*
X140525500Y-104201000D01*
X140525500Y-103637517D01*
X140509103Y-103509493D01*
X140506439Y-103499262D01*
X140494111Y-103451923D01*
X140494109Y-103451916D01*
X140493098Y-103448035D01*
X140490677Y-103442009D01*
X140450775Y-103342728D01*
X140444968Y-103328278D01*
X140439795Y-103321506D01*
X140438471Y-103319178D01*
X140422176Y-103250077D01*
X140445826Y-103183136D01*
X140458897Y-103167784D01*
X140579250Y-103047431D01*
X140641562Y-103013405D01*
X140712377Y-103018470D01*
G37*
%TD.AperFunction*%
%TA.AperFunction,Conductor*%
G36*
X136706121Y-98002002D02*
G01*
X136752614Y-98055658D01*
X136764000Y-98108000D01*
X136764000Y-99492885D01*
X136768475Y-99508124D01*
X136769865Y-99509329D01*
X136777548Y-99511000D01*
X137269743Y-99511000D01*
X137274250Y-99510839D01*
X137338269Y-99506260D01*
X137351491Y-99503874D01*
X137476458Y-99467181D01*
X137492692Y-99459767D01*
X137600360Y-99390574D01*
X137613846Y-99378888D01*
X137684339Y-99297534D01*
X137744065Y-99259150D01*
X137815061Y-99259150D01*
X137874788Y-99297533D01*
X137885562Y-99311925D01*
X137895051Y-99326691D01*
X137895053Y-99326694D01*
X137899923Y-99334271D01*
X137906733Y-99340172D01*
X138003569Y-99424082D01*
X138003572Y-99424084D01*
X138010381Y-99429984D01*
X138143330Y-99490700D01*
X138152245Y-99491982D01*
X138152246Y-99491982D01*
X138283552Y-99510861D01*
X138283559Y-99510862D01*
X138288000Y-99511500D01*
X139812000Y-99511500D01*
X139885079Y-99506273D01*
X139963165Y-99483345D01*
X140016670Y-99467635D01*
X140016672Y-99467634D01*
X140025316Y-99465096D01*
X140124273Y-99401500D01*
X140140691Y-99390949D01*
X140140694Y-99390947D01*
X140148271Y-99386077D01*
X140224620Y-99297967D01*
X140284345Y-99259584D01*
X140355341Y-99259584D01*
X140415068Y-99297968D01*
X140425840Y-99312358D01*
X140439923Y-99334271D01*
X140446733Y-99340172D01*
X140543569Y-99424082D01*
X140543572Y-99424084D01*
X140550381Y-99429984D01*
X140683330Y-99490700D01*
X140692245Y-99491982D01*
X140692246Y-99491982D01*
X140823552Y-99510861D01*
X140823559Y-99510862D01*
X140828000Y-99511500D01*
X141377500Y-99511500D01*
X141445621Y-99531502D01*
X141492114Y-99585158D01*
X141503500Y-99637500D01*
X141503500Y-100037500D01*
X141483498Y-100105621D01*
X141429842Y-100152114D01*
X141377500Y-100163500D01*
X141262000Y-100163500D01*
X141188921Y-100168727D01*
X141135884Y-100184300D01*
X141057330Y-100207365D01*
X141057328Y-100207366D01*
X141048684Y-100209904D01*
X141041105Y-100214775D01*
X140933309Y-100284051D01*
X140933306Y-100284053D01*
X140925729Y-100288923D01*
X140919828Y-100295733D01*
X140835918Y-100392569D01*
X140835916Y-100392572D01*
X140830016Y-100399381D01*
X140826272Y-100407579D01*
X140775537Y-100518674D01*
X140769300Y-100532330D01*
X140768018Y-100541245D01*
X140768018Y-100541246D01*
X140749139Y-100672552D01*
X140749138Y-100672559D01*
X140748500Y-100677000D01*
X140748500Y-100916062D01*
X140728498Y-100984183D01*
X140674842Y-101030676D01*
X140632716Y-101041647D01*
X140619693Y-101042706D01*
X140619690Y-101042707D01*
X140612395Y-101043300D01*
X140605434Y-101045555D01*
X140599539Y-101046733D01*
X140593626Y-101048131D01*
X140586357Y-101048978D01*
X140517733Y-101073887D01*
X140513605Y-101075304D01*
X140451132Y-101095542D01*
X140451127Y-101095544D01*
X140444170Y-101097798D01*
X140437916Y-101101593D01*
X140432438Y-101104101D01*
X140427019Y-101106815D01*
X140420136Y-101109313D01*
X140359077Y-101149345D01*
X140355388Y-101151672D01*
X140331170Y-101166368D01*
X140297792Y-101186622D01*
X140297788Y-101186625D01*
X140292994Y-101189534D01*
X140288788Y-101193249D01*
X140283690Y-101197751D01*
X140281106Y-101199972D01*
X140278376Y-101202255D01*
X140272253Y-101206269D01*
X140267218Y-101211584D01*
X140223123Y-101258132D01*
X140220745Y-101260574D01*
X139518723Y-101962596D01*
X139456411Y-101996622D01*
X139429628Y-101999501D01*
X135889000Y-101999501D01*
X135820879Y-101979499D01*
X135774386Y-101925843D01*
X135763000Y-101873501D01*
X135763000Y-99637000D01*
X135783002Y-99568879D01*
X135836658Y-99522386D01*
X135889000Y-99511000D01*
X136237885Y-99511000D01*
X136253124Y-99506525D01*
X136254329Y-99505135D01*
X136256000Y-99497452D01*
X136256000Y-98108000D01*
X136276002Y-98039879D01*
X136329658Y-97993386D01*
X136382000Y-97982000D01*
X136638000Y-97982000D01*
X136706121Y-98002002D01*
G37*
%TD.AperFunction*%
%TA.AperFunction,Conductor*%
G36*
X141727122Y-94965036D02*
G01*
X141773615Y-95018692D01*
X141785001Y-95071034D01*
X141785001Y-95576419D01*
X141789476Y-95591658D01*
X141790866Y-95592863D01*
X141798549Y-95594534D01*
X142132744Y-95594534D01*
X142137251Y-95594373D01*
X142201270Y-95589794D01*
X142214492Y-95587408D01*
X142339459Y-95550715D01*
X142355693Y-95543301D01*
X142463361Y-95474108D01*
X142476848Y-95462422D01*
X142560663Y-95365694D01*
X142570308Y-95350686D01*
X142627221Y-95226063D01*
X142628756Y-95226764D01*
X142661476Y-95175854D01*
X142726057Y-95146362D01*
X142796331Y-95156468D01*
X142833081Y-95181985D01*
X142954595Y-95303499D01*
X142988621Y-95365811D01*
X142991500Y-95392594D01*
X142991500Y-95958000D01*
X142996727Y-96031079D01*
X143037904Y-96171316D01*
X143042775Y-96178895D01*
X143112051Y-96286691D01*
X143112053Y-96286694D01*
X143116923Y-96294271D01*
X143123734Y-96300173D01*
X143123736Y-96300175D01*
X143194820Y-96361770D01*
X143233204Y-96421496D01*
X143233204Y-96492492D01*
X143194820Y-96552218D01*
X143180426Y-96562993D01*
X143176641Y-96565426D01*
X143163153Y-96577112D01*
X143079338Y-96673840D01*
X143069693Y-96688848D01*
X143016523Y-96805275D01*
X143011498Y-96822388D01*
X142992639Y-96953554D01*
X142992000Y-96962495D01*
X142992000Y-97100612D01*
X142971998Y-97168733D01*
X142918342Y-97215226D01*
X142848068Y-97225330D01*
X142783488Y-97195836D01*
X142760002Y-97168733D01*
X142740077Y-97137729D01*
X142687097Y-97091821D01*
X142636431Y-97047918D01*
X142636428Y-97047916D01*
X142629619Y-97042016D01*
X142554675Y-97007790D01*
X142504864Y-96985042D01*
X142504863Y-96985042D01*
X142496670Y-96981300D01*
X142487755Y-96980018D01*
X142487754Y-96980018D01*
X142356448Y-96961139D01*
X142356441Y-96961138D01*
X142352000Y-96960500D01*
X142300374Y-96960500D01*
X142232253Y-96940498D01*
X142191923Y-96898644D01*
X142188017Y-96892040D01*
X142179318Y-96874282D01*
X142174347Y-96861725D01*
X142174346Y-96861723D01*
X142171429Y-96854356D01*
X142144282Y-96816992D01*
X142137775Y-96807084D01*
X142117295Y-96772454D01*
X142117294Y-96772452D01*
X142114268Y-96767336D01*
X142111825Y-96764565D01*
X142098239Y-96750979D01*
X142085404Y-96735952D01*
X142073671Y-96719803D01*
X142067562Y-96714749D01*
X142067560Y-96714747D01*
X142039989Y-96691938D01*
X142031209Y-96683949D01*
X141380405Y-96033146D01*
X141346380Y-95970833D01*
X141343500Y-95944050D01*
X141343500Y-95681631D01*
X141363502Y-95613510D01*
X141374275Y-95599119D01*
X141383330Y-95588669D01*
X141385001Y-95580986D01*
X141385001Y-95071034D01*
X141405003Y-95002913D01*
X141458659Y-94956420D01*
X141511001Y-94945034D01*
X141659001Y-94945034D01*
X141727122Y-94965036D01*
G37*
%TD.AperFunction*%
%TD*%
%TA.AperFunction,Conductor*%
%TO.N,GNDA*%
G36*
X131757621Y-103536503D02*
G01*
X131804114Y-103590159D01*
X131815500Y-103642501D01*
X131815500Y-104308000D01*
X131820727Y-104381079D01*
X131839130Y-104443754D01*
X131848932Y-104477137D01*
X131848932Y-104548134D01*
X131810548Y-104607860D01*
X131745967Y-104637353D01*
X131737023Y-104638314D01*
X131726491Y-104639067D01*
X131673454Y-104654640D01*
X131594900Y-104677705D01*
X131594898Y-104677706D01*
X131586254Y-104680244D01*
X131578675Y-104685115D01*
X131470879Y-104754391D01*
X131470876Y-104754393D01*
X131463299Y-104759263D01*
X131457398Y-104766073D01*
X131373488Y-104862909D01*
X131373486Y-104862912D01*
X131367586Y-104869721D01*
X131306870Y-105002670D01*
X131305588Y-105011585D01*
X131305588Y-105011586D01*
X131286709Y-105142892D01*
X131286708Y-105142899D01*
X131286070Y-105147340D01*
X131286070Y-107646700D01*
X131291297Y-107719779D01*
X131332474Y-107860016D01*
X131337345Y-107867595D01*
X131406621Y-107975391D01*
X131406623Y-107975394D01*
X131411493Y-107982971D01*
X131418303Y-107988872D01*
X131515139Y-108072782D01*
X131515142Y-108072784D01*
X131521951Y-108078684D01*
X131654900Y-108139400D01*
X131663815Y-108140682D01*
X131663816Y-108140682D01*
X131795122Y-108159561D01*
X131795129Y-108159562D01*
X131799570Y-108160200D01*
X133059770Y-108160200D01*
X133127891Y-108180202D01*
X133148865Y-108197105D01*
X133576389Y-108624629D01*
X133582242Y-108630894D01*
X133618305Y-108672234D01*
X133670578Y-108708972D01*
X133675873Y-108712905D01*
X133704468Y-108735326D01*
X133726118Y-108752302D01*
X133733042Y-108755428D01*
X133735355Y-108756829D01*
X133749971Y-108765166D01*
X133752348Y-108766441D01*
X133758565Y-108770810D01*
X133765644Y-108773570D01*
X133765646Y-108773571D01*
X133791013Y-108783461D01*
X133818078Y-108794013D01*
X133824153Y-108796566D01*
X133875441Y-108819724D01*
X133875443Y-108819725D01*
X133882365Y-108822850D01*
X133889835Y-108824234D01*
X133892400Y-108825038D01*
X133908632Y-108829662D01*
X133911213Y-108830325D01*
X133918290Y-108833084D01*
X133981626Y-108841422D01*
X133988118Y-108842450D01*
X134050929Y-108854092D01*
X134058509Y-108853655D01*
X134058510Y-108853655D01*
X134090420Y-108851815D01*
X134109599Y-108850709D01*
X134116850Y-108850500D01*
X134859364Y-108850500D01*
X134927485Y-108870502D01*
X134973978Y-108924158D01*
X134985043Y-108967515D01*
X134985727Y-108977079D01*
X135026904Y-109117316D01*
X135031775Y-109124895D01*
X135101051Y-109232691D01*
X135101053Y-109232694D01*
X135105923Y-109240271D01*
X135112733Y-109246172D01*
X135209569Y-109330082D01*
X135209572Y-109330084D01*
X135216381Y-109335984D01*
X135349330Y-109396700D01*
X135358245Y-109397982D01*
X135358246Y-109397982D01*
X135489552Y-109416861D01*
X135489559Y-109416862D01*
X135494000Y-109417500D01*
X137018000Y-109417500D01*
X137091079Y-109412273D01*
X137169165Y-109389345D01*
X137222670Y-109373635D01*
X137222672Y-109373634D01*
X137231316Y-109371096D01*
X137295135Y-109330082D01*
X137346691Y-109296949D01*
X137346694Y-109296947D01*
X137354271Y-109292077D01*
X137430620Y-109203967D01*
X137490345Y-109165584D01*
X137561341Y-109165584D01*
X137621068Y-109203968D01*
X137631840Y-109218358D01*
X137645923Y-109240271D01*
X137652733Y-109246172D01*
X137749569Y-109330082D01*
X137749572Y-109330084D01*
X137756381Y-109335984D01*
X137889330Y-109396700D01*
X137898245Y-109397982D01*
X137898246Y-109397982D01*
X138029552Y-109416861D01*
X138029559Y-109416862D01*
X138034000Y-109417500D01*
X139558000Y-109417500D01*
X139631079Y-109412273D01*
X139709165Y-109389345D01*
X139762670Y-109373635D01*
X139762672Y-109373634D01*
X139771316Y-109371096D01*
X139823379Y-109337637D01*
X139891500Y-109317635D01*
X139959621Y-109337637D01*
X140006114Y-109391292D01*
X140017500Y-109443635D01*
X140017500Y-113093242D01*
X140016422Y-113109688D01*
X140002628Y-113214463D01*
X139994115Y-113246235D01*
X139956861Y-113336174D01*
X139940414Y-113364660D01*
X139881151Y-113441893D01*
X139857893Y-113465151D01*
X139780660Y-113524414D01*
X139752174Y-113540861D01*
X139662235Y-113578115D01*
X139630463Y-113586628D01*
X139525688Y-113600422D01*
X139509242Y-113601500D01*
X131064258Y-113601500D01*
X131047812Y-113600422D01*
X130943037Y-113586628D01*
X130911265Y-113578115D01*
X130821326Y-113540861D01*
X130792840Y-113524414D01*
X130715607Y-113465151D01*
X130692349Y-113441893D01*
X130633086Y-113364660D01*
X130616639Y-113336174D01*
X130579385Y-113246235D01*
X130570872Y-113214463D01*
X130557078Y-113109688D01*
X130556000Y-113093242D01*
X130556000Y-104965500D01*
X129290388Y-103732761D01*
X129255547Y-103670902D01*
X129259679Y-103600026D01*
X129301474Y-103542635D01*
X129367663Y-103516951D01*
X129378304Y-103516501D01*
X131689500Y-103516501D01*
X131757621Y-103536503D01*
G37*
%TD.AperFunction*%
%TA.AperFunction,Conductor*%
G36*
X139950807Y-103526347D02*
G01*
X140001495Y-103576059D01*
X140017500Y-103637517D01*
X140017500Y-106835676D01*
X139997498Y-106903797D01*
X139943842Y-106950290D01*
X139873568Y-106960394D01*
X139836312Y-106946499D01*
X139835619Y-106948016D01*
X139710864Y-106891042D01*
X139710863Y-106891042D01*
X139702670Y-106887300D01*
X139693755Y-106886018D01*
X139693754Y-106886018D01*
X139562448Y-106867139D01*
X139562441Y-106867138D01*
X139558000Y-106866500D01*
X138034000Y-106866500D01*
X137960921Y-106871727D01*
X137907884Y-106887300D01*
X137829330Y-106910365D01*
X137829328Y-106910366D01*
X137820684Y-106912904D01*
X137813105Y-106917775D01*
X137705309Y-106987051D01*
X137705306Y-106987053D01*
X137697729Y-106991923D01*
X137646271Y-107051309D01*
X137621381Y-107080033D01*
X137561655Y-107118416D01*
X137490659Y-107118416D01*
X137430932Y-107080032D01*
X137420159Y-107065641D01*
X137410948Y-107051309D01*
X137406077Y-107043729D01*
X137399267Y-107037828D01*
X137302431Y-106953918D01*
X137302428Y-106953916D01*
X137295619Y-106948016D01*
X137162670Y-106887300D01*
X137153755Y-106886018D01*
X137153754Y-106886018D01*
X137022448Y-106867139D01*
X137022441Y-106867138D01*
X137018000Y-106866500D01*
X135494000Y-106866500D01*
X135420921Y-106871727D01*
X135367884Y-106887300D01*
X135289330Y-106910365D01*
X135289328Y-106910366D01*
X135280684Y-106912904D01*
X135273105Y-106917775D01*
X135165309Y-106987051D01*
X135165306Y-106987053D01*
X135157729Y-106991923D01*
X135151828Y-106998733D01*
X135067918Y-107095569D01*
X135067916Y-107095572D01*
X135062016Y-107102381D01*
X135001300Y-107235330D01*
X135000018Y-107244245D01*
X135000018Y-107244246D01*
X134988346Y-107325431D01*
X134958853Y-107390012D01*
X134899127Y-107428396D01*
X134863628Y-107433500D01*
X134441391Y-107433500D01*
X134373270Y-107413498D01*
X134352296Y-107396595D01*
X134150835Y-107195134D01*
X134116809Y-107132822D01*
X134113930Y-107106039D01*
X134113930Y-105147340D01*
X134108703Y-105074261D01*
X134067526Y-104934024D01*
X134007100Y-104840000D01*
X133993379Y-104818649D01*
X133993377Y-104818646D01*
X133988507Y-104811069D01*
X133981698Y-104805169D01*
X133975796Y-104798358D01*
X133977712Y-104796698D01*
X133946606Y-104748289D01*
X133946610Y-104677292D01*
X133972280Y-104630285D01*
X133975401Y-104626684D01*
X134010984Y-104585619D01*
X134014728Y-104577421D01*
X134067958Y-104460864D01*
X134067958Y-104460863D01*
X134071700Y-104452670D01*
X134082962Y-104374340D01*
X134091861Y-104312448D01*
X134091862Y-104312441D01*
X134092500Y-104308000D01*
X134092500Y-103642501D01*
X134112502Y-103574380D01*
X134166158Y-103527887D01*
X134218500Y-103516501D01*
X139730012Y-103516501D01*
X139748962Y-103517934D01*
X139762119Y-103519936D01*
X139762123Y-103519936D01*
X139769353Y-103521036D01*
X139776645Y-103520443D01*
X139776648Y-103520443D01*
X139820009Y-103516916D01*
X139830223Y-103516501D01*
X139838885Y-103516501D01*
X139842519Y-103516077D01*
X139842523Y-103516077D01*
X139868482Y-103513050D01*
X139872826Y-103512620D01*
X139881291Y-103511931D01*
X139950807Y-103526347D01*
G37*
%TD.AperFunction*%
%TA.AperFunction,Conductor*%
G36*
X137157013Y-94299904D02*
G01*
X137163596Y-94306033D01*
X138379595Y-95522032D01*
X138413621Y-95584344D01*
X138416500Y-95611127D01*
X138416500Y-96834500D01*
X138396498Y-96902621D01*
X138342842Y-96949114D01*
X138292484Y-96960068D01*
X138292497Y-96960420D01*
X138290548Y-96960490D01*
X138290500Y-96960500D01*
X138288000Y-96960500D01*
X138214921Y-96965727D01*
X138161884Y-96981300D01*
X138083330Y-97004365D01*
X138083328Y-97004366D01*
X138074684Y-97006904D01*
X138067105Y-97011775D01*
X137959309Y-97081051D01*
X137959306Y-97081053D01*
X137951729Y-97085923D01*
X137900271Y-97145309D01*
X137875381Y-97174033D01*
X137815655Y-97212416D01*
X137744659Y-97212416D01*
X137684932Y-97174032D01*
X137674159Y-97159641D01*
X137664948Y-97145309D01*
X137660077Y-97137729D01*
X137609391Y-97093809D01*
X137556431Y-97047918D01*
X137556428Y-97047916D01*
X137549619Y-97042016D01*
X137416670Y-96981300D01*
X137407755Y-96980018D01*
X137407754Y-96980018D01*
X137276448Y-96961139D01*
X137276441Y-96961138D01*
X137272000Y-96960500D01*
X135748000Y-96960500D01*
X135674921Y-96965727D01*
X135621884Y-96981300D01*
X135543330Y-97004365D01*
X135543328Y-97004366D01*
X135534684Y-97006904D01*
X135527105Y-97011775D01*
X135419309Y-97081051D01*
X135419306Y-97081053D01*
X135411729Y-97085923D01*
X135405828Y-97092733D01*
X135321918Y-97189569D01*
X135321916Y-97189572D01*
X135316016Y-97196381D01*
X135312272Y-97204579D01*
X135305914Y-97218500D01*
X135255000Y-97218500D01*
X135255000Y-97331417D01*
X135254018Y-97338245D01*
X135254018Y-97338246D01*
X135235139Y-97469552D01*
X135235138Y-97469559D01*
X135234500Y-97474000D01*
X135234500Y-98998000D01*
X135239727Y-99071079D01*
X135247346Y-99097024D01*
X135249896Y-99105710D01*
X135255000Y-99141209D01*
X135255000Y-101906490D01*
X135251770Y-101927203D01*
X135204642Y-101980302D01*
X135137787Y-101999501D01*
X134218500Y-101999501D01*
X134150379Y-101979499D01*
X134103886Y-101925843D01*
X134092500Y-101873501D01*
X134092500Y-101308000D01*
X134087273Y-101234921D01*
X134056761Y-101131005D01*
X134048635Y-101103330D01*
X134048634Y-101103328D01*
X134046096Y-101094684D01*
X134005958Y-101032229D01*
X133971949Y-100979309D01*
X133971947Y-100979306D01*
X133967077Y-100971729D01*
X133960267Y-100965828D01*
X133863431Y-100881918D01*
X133863428Y-100881916D01*
X133856619Y-100876016D01*
X133723670Y-100815300D01*
X133714755Y-100814018D01*
X133714754Y-100814018D01*
X133583448Y-100795139D01*
X133583441Y-100795138D01*
X133579000Y-100794500D01*
X132329000Y-100794500D01*
X132255921Y-100799727D01*
X132249439Y-100801630D01*
X132249435Y-100801631D01*
X132178997Y-100822313D01*
X132108001Y-100822313D01*
X132048275Y-100783929D01*
X132018782Y-100719348D01*
X132017500Y-100701417D01*
X132017500Y-99915000D01*
X132012273Y-99841921D01*
X131971096Y-99701684D01*
X131916313Y-99616440D01*
X131896949Y-99586309D01*
X131896947Y-99586306D01*
X131892077Y-99578729D01*
X131869580Y-99559235D01*
X131831197Y-99499509D01*
X131831197Y-99428512D01*
X131869581Y-99368786D01*
X131934162Y-99339293D01*
X131952093Y-99338011D01*
X132433640Y-99338011D01*
X132444544Y-99338525D01*
X132451935Y-99340177D01*
X132459861Y-99339928D01*
X132459862Y-99339928D01*
X132518890Y-99338073D01*
X132522847Y-99338011D01*
X132551602Y-99338011D01*
X132555869Y-99337472D01*
X132567711Y-99336539D01*
X132599359Y-99335544D01*
X132603984Y-99335399D01*
X132611907Y-99335150D01*
X132631358Y-99329499D01*
X132650719Y-99325489D01*
X132653444Y-99325145D01*
X132662954Y-99323944D01*
X132662957Y-99323943D01*
X132670812Y-99322951D01*
X132678177Y-99320035D01*
X132678181Y-99320034D01*
X132711925Y-99306674D01*
X132723154Y-99302829D01*
X132765602Y-99290497D01*
X132772430Y-99286459D01*
X132783035Y-99280188D01*
X132800786Y-99271492D01*
X132812250Y-99266953D01*
X132812253Y-99266951D01*
X132819624Y-99264033D01*
X132855392Y-99238046D01*
X132865315Y-99231527D01*
X132867633Y-99230156D01*
X132903365Y-99209025D01*
X132903783Y-99208656D01*
X132917866Y-99194573D01*
X132932891Y-99181739D01*
X132949107Y-99169957D01*
X132977054Y-99136175D01*
X132985043Y-99127396D01*
X136277514Y-95834925D01*
X136285602Y-95827565D01*
X136291996Y-95823507D01*
X136337871Y-95774655D01*
X136340625Y-95771814D01*
X136360939Y-95751500D01*
X136363584Y-95748089D01*
X136371290Y-95739067D01*
X136396134Y-95712611D01*
X136401558Y-95706835D01*
X136405377Y-95699889D01*
X136411319Y-95689081D01*
X136422173Y-95672557D01*
X136429728Y-95662817D01*
X136434584Y-95656557D01*
X136437731Y-95649285D01*
X136440226Y-95645066D01*
X136492118Y-95596613D01*
X136513179Y-95588310D01*
X136603045Y-95561923D01*
X136639671Y-95551169D01*
X136639673Y-95551168D01*
X136648317Y-95548630D01*
X136703383Y-95513241D01*
X136763692Y-95474483D01*
X136763695Y-95474481D01*
X136771272Y-95469611D01*
X136796797Y-95440154D01*
X136861083Y-95365965D01*
X136861085Y-95365962D01*
X136866985Y-95359153D01*
X136911853Y-95260906D01*
X136923959Y-95234398D01*
X136923959Y-95234397D01*
X136927701Y-95226204D01*
X136932001Y-95196297D01*
X136947862Y-95085982D01*
X136947863Y-95085975D01*
X136948501Y-95081534D01*
X136948501Y-94681534D01*
X136943274Y-94608455D01*
X136937429Y-94588549D01*
X136933608Y-94535122D01*
X136947862Y-94435982D01*
X136947863Y-94435975D01*
X136948501Y-94431534D01*
X136948501Y-94395128D01*
X136968503Y-94327007D01*
X137022159Y-94280514D01*
X137092433Y-94270410D01*
X137157013Y-94299904D01*
G37*
%TD.AperFunction*%
%TA.AperFunction,Conductor*%
G36*
X128091514Y-97840653D02*
G01*
X128128268Y-97866172D01*
X129359120Y-99097024D01*
X129366480Y-99105112D01*
X129370538Y-99111506D01*
X129376315Y-99116931D01*
X129419389Y-99157380D01*
X129422231Y-99160135D01*
X129442545Y-99180449D01*
X129445956Y-99183094D01*
X129454976Y-99190798D01*
X129487210Y-99221068D01*
X129494153Y-99224885D01*
X129495774Y-99225776D01*
X129496801Y-99226809D01*
X129500571Y-99229548D01*
X129500129Y-99230156D01*
X129545833Y-99276121D01*
X129560728Y-99345537D01*
X129535728Y-99411987D01*
X129491227Y-99447745D01*
X129490684Y-99447904D01*
X129483103Y-99452776D01*
X129375309Y-99522051D01*
X129375306Y-99522053D01*
X129367729Y-99526923D01*
X129361828Y-99533733D01*
X129277918Y-99630569D01*
X129277916Y-99630572D01*
X129272016Y-99637381D01*
X129211300Y-99770330D01*
X129210018Y-99779245D01*
X129210018Y-99779246D01*
X129191139Y-99910552D01*
X129191138Y-99910559D01*
X129190500Y-99915000D01*
X129190500Y-101873501D01*
X129170498Y-101941622D01*
X129116842Y-101988115D01*
X129064500Y-101999501D01*
X127562131Y-101999501D01*
X127494010Y-101979499D01*
X127474215Y-101963761D01*
X126463511Y-100979309D01*
X125823642Y-100356059D01*
X125812443Y-100343596D01*
X125746112Y-100259086D01*
X125729139Y-100230274D01*
X125690668Y-100139099D01*
X125681871Y-100106836D01*
X125667614Y-100000350D01*
X125666500Y-99983630D01*
X125666500Y-98032682D01*
X125686502Y-97964561D01*
X125740158Y-97918068D01*
X125810432Y-97907964D01*
X125844843Y-97918069D01*
X125943133Y-97962957D01*
X125943136Y-97962958D01*
X125951330Y-97966700D01*
X125960245Y-97967982D01*
X125960246Y-97967982D01*
X126091552Y-97986861D01*
X126091559Y-97986862D01*
X126096000Y-97987500D01*
X127620000Y-97987500D01*
X127693079Y-97982273D01*
X127775746Y-97958000D01*
X127824670Y-97943635D01*
X127824672Y-97943634D01*
X127833316Y-97941096D01*
X127956271Y-97862077D01*
X127958933Y-97859005D01*
X128021240Y-97830550D01*
X128091514Y-97840653D01*
G37*
%TD.AperFunction*%
%TA.AperFunction,Conductor*%
G36*
X138726767Y-85335305D02*
G01*
X138771829Y-85364266D01*
X140559485Y-87151922D01*
X140593511Y-87214234D01*
X140588446Y-87285049D01*
X140585003Y-87293360D01*
X140549256Y-87371635D01*
X140542301Y-87386864D01*
X140541019Y-87395779D01*
X140541019Y-87395780D01*
X140522140Y-87527086D01*
X140522139Y-87527093D01*
X140521501Y-87531534D01*
X140521501Y-87931534D01*
X140526728Y-88004613D01*
X140528631Y-88011093D01*
X140532573Y-88024519D01*
X140536394Y-88077946D01*
X140522140Y-88177086D01*
X140522139Y-88177093D01*
X140521501Y-88181534D01*
X140521501Y-88581534D01*
X140526728Y-88654613D01*
X140528631Y-88661093D01*
X140532573Y-88674519D01*
X140536394Y-88727946D01*
X140522140Y-88827086D01*
X140522139Y-88827093D01*
X140521501Y-88831534D01*
X140521501Y-89231534D01*
X140526728Y-89304613D01*
X140528631Y-89311093D01*
X140532573Y-89324519D01*
X140536394Y-89377946D01*
X140522140Y-89477086D01*
X140522139Y-89477093D01*
X140521501Y-89481534D01*
X140521501Y-89881534D01*
X140526728Y-89954613D01*
X140528631Y-89961093D01*
X140532573Y-89974519D01*
X140536394Y-90027946D01*
X140522140Y-90127086D01*
X140522139Y-90127093D01*
X140521501Y-90131534D01*
X140521501Y-90531534D01*
X140526728Y-90604613D01*
X140528631Y-90611093D01*
X140532573Y-90624519D01*
X140536394Y-90677946D01*
X140522140Y-90777086D01*
X140522139Y-90777093D01*
X140521501Y-90781534D01*
X140521501Y-91181534D01*
X140526728Y-91254613D01*
X140528631Y-91261093D01*
X140532573Y-91274519D01*
X140536394Y-91327946D01*
X140522140Y-91427086D01*
X140522139Y-91427093D01*
X140521501Y-91431534D01*
X140521501Y-91831534D01*
X140526728Y-91904613D01*
X140528631Y-91911093D01*
X140532573Y-91924519D01*
X140536394Y-91977946D01*
X140522140Y-92077086D01*
X140522139Y-92077093D01*
X140521501Y-92081534D01*
X140521501Y-92481534D01*
X140526728Y-92554613D01*
X140528631Y-92561093D01*
X140532573Y-92574519D01*
X140536394Y-92627946D01*
X140522140Y-92727086D01*
X140522139Y-92727093D01*
X140521501Y-92731534D01*
X140521501Y-93131534D01*
X140526728Y-93204613D01*
X140528631Y-93211093D01*
X140532573Y-93224519D01*
X140536394Y-93277946D01*
X140522140Y-93377086D01*
X140522139Y-93377093D01*
X140521501Y-93381534D01*
X140521501Y-93521160D01*
X140501499Y-93589281D01*
X140459642Y-93629612D01*
X140453041Y-93633516D01*
X140435282Y-93642216D01*
X140422732Y-93647185D01*
X140415357Y-93650105D01*
X140408942Y-93654766D01*
X140408940Y-93654767D01*
X140378004Y-93677243D01*
X140368082Y-93683761D01*
X140328337Y-93707266D01*
X140325566Y-93709709D01*
X140311983Y-93723292D01*
X140296950Y-93736132D01*
X140280804Y-93747863D01*
X140275752Y-93753970D01*
X140266059Y-93765687D01*
X140260827Y-93771622D01*
X140258785Y-93773796D01*
X140218600Y-93816589D01*
X140215845Y-93819431D01*
X140191384Y-93843892D01*
X140187538Y-93848850D01*
X140179836Y-93857868D01*
X140153646Y-93885757D01*
X140153644Y-93885760D01*
X140148217Y-93891539D01*
X140144398Y-93898486D01*
X140144395Y-93898490D01*
X140137889Y-93910325D01*
X140127032Y-93926853D01*
X140113897Y-93943786D01*
X140095553Y-93986176D01*
X140090343Y-93996813D01*
X140068093Y-94037284D01*
X140066121Y-94044965D01*
X140062761Y-94058049D01*
X140056358Y-94076752D01*
X140047845Y-94096425D01*
X140046605Y-94104255D01*
X140046603Y-94104261D01*
X140040620Y-94142033D01*
X140038214Y-94153653D01*
X140028209Y-94192621D01*
X140028208Y-94192627D01*
X140026732Y-94198376D01*
X140026500Y-94202063D01*
X140026500Y-94221272D01*
X140024949Y-94240982D01*
X140021827Y-94260694D01*
X140022573Y-94268586D01*
X140025941Y-94304215D01*
X140026500Y-94316073D01*
X140026500Y-96189420D01*
X140026026Y-96199484D01*
X140024444Y-96206559D01*
X140024693Y-96214481D01*
X140026438Y-96270011D01*
X140026500Y-96273969D01*
X140026500Y-96308579D01*
X140026997Y-96312510D01*
X140026997Y-96312516D01*
X140027286Y-96314805D01*
X140028217Y-96326630D01*
X140029668Y-96372794D01*
X140031881Y-96380410D01*
X140031881Y-96380412D01*
X140035650Y-96393386D01*
X140039659Y-96412745D01*
X140042345Y-96434006D01*
X140045262Y-96441372D01*
X140045263Y-96441378D01*
X140059340Y-96476932D01*
X140063185Y-96488161D01*
X140076069Y-96532508D01*
X140080105Y-96539332D01*
X140086984Y-96550964D01*
X140095680Y-96568713D01*
X140103571Y-96588644D01*
X140108233Y-96595060D01*
X140130713Y-96626002D01*
X140137228Y-96635920D01*
X140160732Y-96675663D01*
X140163175Y-96678435D01*
X140176761Y-96692021D01*
X140189596Y-96707048D01*
X140201329Y-96723197D01*
X140207438Y-96728251D01*
X140207440Y-96728253D01*
X140235011Y-96751062D01*
X140243791Y-96759051D01*
X140387362Y-96902621D01*
X140445422Y-96960681D01*
X140479447Y-97022993D01*
X140474383Y-97093809D01*
X140451552Y-97132289D01*
X140415382Y-97174032D01*
X140355656Y-97212416D01*
X140284660Y-97212416D01*
X140224933Y-97174033D01*
X140214159Y-97159641D01*
X140204948Y-97145309D01*
X140200077Y-97137729D01*
X140149391Y-97093809D01*
X140096431Y-97047918D01*
X140096428Y-97047916D01*
X140089619Y-97042016D01*
X139956670Y-96981300D01*
X139947755Y-96980018D01*
X139947754Y-96980018D01*
X139816448Y-96961139D01*
X139816441Y-96961138D01*
X139812000Y-96960500D01*
X139807506Y-96960500D01*
X139803014Y-96960179D01*
X139803125Y-96958628D01*
X139741379Y-96940498D01*
X139694886Y-96886842D01*
X139683500Y-96834500D01*
X139683500Y-95374934D01*
X139684015Y-95364014D01*
X139685667Y-95356622D01*
X139683562Y-95289648D01*
X139683500Y-95285691D01*
X139683500Y-95256955D01*
X139682961Y-95252684D01*
X139682028Y-95240846D01*
X139681826Y-95234398D01*
X139680639Y-95196650D01*
X139674987Y-95177194D01*
X139670978Y-95157835D01*
X139669434Y-95145612D01*
X139669434Y-95145611D01*
X139668440Y-95137745D01*
X139656929Y-95108670D01*
X139652168Y-95096644D01*
X139648323Y-95085415D01*
X139638199Y-95050568D01*
X139638198Y-95050567D01*
X139635987Y-95042955D01*
X139625674Y-95025516D01*
X139616978Y-95007764D01*
X139612442Y-94996308D01*
X139609522Y-94988933D01*
X139583533Y-94953162D01*
X139577016Y-94943241D01*
X139554514Y-94905192D01*
X139554145Y-94904774D01*
X139540062Y-94890691D01*
X139527228Y-94875666D01*
X139515446Y-94859450D01*
X139481664Y-94831503D01*
X139472885Y-94823514D01*
X137188392Y-92539021D01*
X137181032Y-92530933D01*
X137176974Y-92524539D01*
X137128122Y-92478664D01*
X137125281Y-92475910D01*
X137104967Y-92455596D01*
X137101556Y-92452951D01*
X137092534Y-92445245D01*
X137066078Y-92420401D01*
X137060302Y-92414977D01*
X137053358Y-92411160D01*
X137053356Y-92411158D01*
X137042548Y-92405216D01*
X137026024Y-92394362D01*
X137016289Y-92386811D01*
X137010024Y-92381951D01*
X137008470Y-92381278D01*
X136961910Y-92331415D01*
X136948501Y-92274852D01*
X136948501Y-92081534D01*
X136943274Y-92008455D01*
X136937429Y-91988549D01*
X136933608Y-91935122D01*
X136947862Y-91835982D01*
X136947863Y-91835975D01*
X136948501Y-91831534D01*
X136948501Y-91431534D01*
X136943274Y-91358455D01*
X136937429Y-91338549D01*
X136933608Y-91285122D01*
X136947862Y-91185982D01*
X136947863Y-91185975D01*
X136948501Y-91181534D01*
X136948501Y-90781534D01*
X136943274Y-90708455D01*
X136913801Y-90608079D01*
X136904636Y-90576864D01*
X136904635Y-90576862D01*
X136902097Y-90568218D01*
X136860772Y-90503915D01*
X136827950Y-90452843D01*
X136827948Y-90452840D01*
X136823078Y-90445263D01*
X136801781Y-90426809D01*
X136763398Y-90367083D01*
X136763398Y-90296087D01*
X136789069Y-90249073D01*
X136861083Y-90165964D01*
X136866985Y-90159153D01*
X136872570Y-90146924D01*
X136923959Y-90034398D01*
X136923959Y-90034397D01*
X136927701Y-90026204D01*
X136928983Y-90017288D01*
X136947862Y-89885982D01*
X136947863Y-89885975D01*
X136948501Y-89881534D01*
X136948501Y-89481534D01*
X136943274Y-89408455D01*
X136937429Y-89388549D01*
X136933608Y-89335122D01*
X136947862Y-89235982D01*
X136947863Y-89235975D01*
X136948501Y-89231534D01*
X136948501Y-88831534D01*
X136943274Y-88758455D01*
X136937429Y-88738549D01*
X136933608Y-88685122D01*
X136947862Y-88585982D01*
X136947863Y-88585975D01*
X136948501Y-88581534D01*
X136948501Y-88181534D01*
X136943274Y-88108455D01*
X136937429Y-88088549D01*
X136933608Y-88035122D01*
X136947862Y-87935982D01*
X136947863Y-87935975D01*
X136948501Y-87931534D01*
X136948501Y-87531534D01*
X136943274Y-87458455D01*
X136915860Y-87365091D01*
X136904636Y-87326864D01*
X136904635Y-87326862D01*
X136902097Y-87318218D01*
X136854328Y-87243888D01*
X136834326Y-87175769D01*
X136854328Y-87107648D01*
X136871231Y-87086673D01*
X138593639Y-85364266D01*
X138655951Y-85330240D01*
X138726767Y-85335305D01*
G37*
%TD.AperFunction*%
%TA.AperFunction,Conductor*%
G36*
X128288644Y-92445783D02*
G01*
X128325398Y-92471302D01*
X128993669Y-93139573D01*
X129001029Y-93147661D01*
X129005087Y-93154055D01*
X129010864Y-93159480D01*
X129053938Y-93199929D01*
X129056780Y-93202684D01*
X129077094Y-93222998D01*
X129080505Y-93225643D01*
X129089525Y-93233347D01*
X129121759Y-93263617D01*
X129128703Y-93267434D01*
X129128705Y-93267436D01*
X129139513Y-93273378D01*
X129156037Y-93284232D01*
X129172037Y-93296643D01*
X129179308Y-93299790D01*
X129179309Y-93299790D01*
X129212611Y-93314201D01*
X129223267Y-93319422D01*
X129262012Y-93340722D01*
X129269695Y-93342694D01*
X129269696Y-93342695D01*
X129281628Y-93345759D01*
X129300332Y-93352163D01*
X129311645Y-93357059D01*
X129311652Y-93357061D01*
X129318924Y-93360208D01*
X129326748Y-93361447D01*
X129326751Y-93361448D01*
X129362595Y-93367125D01*
X129374216Y-93369532D01*
X129411278Y-93379047D01*
X129417035Y-93380525D01*
X129417591Y-93380560D01*
X129437512Y-93380560D01*
X129457222Y-93382111D01*
X129469174Y-93384004D01*
X129469175Y-93384004D01*
X129477004Y-93385244D01*
X129484896Y-93384498D01*
X129520642Y-93381119D01*
X129532500Y-93380560D01*
X130140576Y-93380560D01*
X130208697Y-93400562D01*
X130250669Y-93445279D01*
X130257512Y-93457573D01*
X130261067Y-93461916D01*
X130396304Y-93627143D01*
X130396308Y-93627147D01*
X130399857Y-93631483D01*
X130404120Y-93635124D01*
X130404121Y-93635125D01*
X130421660Y-93650105D01*
X130570748Y-93777439D01*
X130575593Y-93780270D01*
X130759938Y-93887993D01*
X130759941Y-93887994D01*
X130764785Y-93890825D01*
X130770055Y-93892754D01*
X130770056Y-93892754D01*
X130970571Y-93966132D01*
X130970574Y-93966133D01*
X130975835Y-93968058D01*
X130981351Y-93969021D01*
X130981356Y-93969022D01*
X131140667Y-93996826D01*
X131197225Y-94006697D01*
X131202831Y-94006668D01*
X131202835Y-94006668D01*
X131305364Y-94006131D01*
X131421959Y-94005520D01*
X131427477Y-94004497D01*
X131427480Y-94004497D01*
X131561049Y-93979742D01*
X131631674Y-93986995D01*
X131670263Y-94011782D01*
X131694336Y-94034388D01*
X131697178Y-94037143D01*
X131717507Y-94057472D01*
X131720927Y-94060124D01*
X131729950Y-94067831D01*
X131762173Y-94098091D01*
X131769117Y-94101908D01*
X131769122Y-94101912D01*
X131779924Y-94107850D01*
X131796451Y-94118706D01*
X131812451Y-94131117D01*
X131819722Y-94134264D01*
X131819723Y-94134264D01*
X131853025Y-94148675D01*
X131863681Y-94153896D01*
X131902426Y-94175196D01*
X131910109Y-94177168D01*
X131910110Y-94177169D01*
X131922042Y-94180233D01*
X131940746Y-94186637D01*
X131952059Y-94191533D01*
X131952066Y-94191535D01*
X131959338Y-94194682D01*
X131967162Y-94195921D01*
X131967165Y-94195922D01*
X132003009Y-94201599D01*
X132014630Y-94204006D01*
X132051692Y-94213521D01*
X132057449Y-94214999D01*
X132058005Y-94215034D01*
X132077926Y-94215034D01*
X132097636Y-94216585D01*
X132109588Y-94218478D01*
X132109589Y-94218478D01*
X132117418Y-94219718D01*
X132125310Y-94218972D01*
X132161056Y-94215593D01*
X132172914Y-94215034D01*
X133901407Y-94215034D01*
X133969528Y-94235036D01*
X134016021Y-94288692D01*
X134026125Y-94358966D01*
X133996631Y-94423546D01*
X133990502Y-94430129D01*
X133649760Y-94770871D01*
X133587448Y-94804897D01*
X133552883Y-94806972D01*
X133550028Y-94806334D01*
X133542101Y-94806583D01*
X133542100Y-94806583D01*
X133483074Y-94808438D01*
X133479116Y-94808500D01*
X133450362Y-94808500D01*
X133446095Y-94809039D01*
X133434253Y-94809972D01*
X133402605Y-94810967D01*
X133397980Y-94811112D01*
X133390057Y-94811361D01*
X133370607Y-94817012D01*
X133351245Y-94821022D01*
X133331152Y-94823560D01*
X133311088Y-94831504D01*
X133290048Y-94839834D01*
X133278818Y-94843679D01*
X133243974Y-94853802D01*
X133243972Y-94853803D01*
X133236361Y-94856014D01*
X133221007Y-94865094D01*
X133218929Y-94866323D01*
X133201176Y-94875020D01*
X133182340Y-94882478D01*
X133175925Y-94887139D01*
X133146566Y-94908469D01*
X133136647Y-94914984D01*
X133103698Y-94934471D01*
X133103695Y-94934473D01*
X133098599Y-94937487D01*
X133098181Y-94937855D01*
X133084098Y-94951938D01*
X133069073Y-94964772D01*
X133052857Y-94976554D01*
X133035608Y-94997405D01*
X133024911Y-95010335D01*
X133016921Y-95019115D01*
X131674600Y-96361436D01*
X131612288Y-96395462D01*
X131556092Y-96394860D01*
X131487659Y-96378431D01*
X131389898Y-96372794D01*
X131268902Y-96365817D01*
X131268899Y-96365817D01*
X131263295Y-96365494D01*
X131156388Y-96378431D01*
X131045754Y-96391819D01*
X131045753Y-96391819D01*
X131042333Y-96392233D01*
X131042332Y-96392233D01*
X131040185Y-96392493D01*
X131040133Y-96392065D01*
X130972625Y-96386912D01*
X130928128Y-96358164D01*
X128349451Y-93779487D01*
X128342091Y-93771399D01*
X128338033Y-93765005D01*
X128289181Y-93719130D01*
X128286340Y-93716376D01*
X128266026Y-93696062D01*
X128262615Y-93693417D01*
X128253593Y-93685711D01*
X128251517Y-93683761D01*
X128221361Y-93655443D01*
X128214417Y-93651626D01*
X128214415Y-93651624D01*
X128203607Y-93645682D01*
X128187086Y-93634830D01*
X128182277Y-93631100D01*
X128140708Y-93573545D01*
X128133500Y-93531538D01*
X128133500Y-93410000D01*
X128128273Y-93336921D01*
X128096668Y-93229284D01*
X128089635Y-93205330D01*
X128089634Y-93205328D01*
X128087096Y-93196684D01*
X128045771Y-93132381D01*
X128012949Y-93081309D01*
X128012947Y-93081306D01*
X128008077Y-93073729D01*
X127919967Y-92997380D01*
X127881584Y-92937655D01*
X127881584Y-92866659D01*
X127919968Y-92806932D01*
X127934359Y-92796159D01*
X127941769Y-92791397D01*
X127956271Y-92782077D01*
X127972145Y-92763758D01*
X128046082Y-92678431D01*
X128046084Y-92678428D01*
X128051984Y-92671619D01*
X128071929Y-92627946D01*
X128108956Y-92546869D01*
X128108957Y-92546867D01*
X128112700Y-92538670D01*
X128113983Y-92529747D01*
X128115406Y-92524900D01*
X128153789Y-92465173D01*
X128218370Y-92435680D01*
X128288644Y-92445783D01*
G37*
%TD.AperFunction*%
%TA.AperFunction,Conductor*%
G36*
X140695784Y-75946155D02*
G01*
X151257075Y-75953144D01*
X151273514Y-75954232D01*
X151378237Y-75968084D01*
X151409991Y-75976611D01*
X151499874Y-76013894D01*
X151528340Y-76030346D01*
X151605520Y-76089615D01*
X151628762Y-76112872D01*
X151687977Y-76190087D01*
X151704410Y-76218564D01*
X151741634Y-76308473D01*
X151750140Y-76340232D01*
X151763923Y-76444965D01*
X151765000Y-76461405D01*
X151765000Y-78153092D01*
X151759135Y-78191086D01*
X151685609Y-78423573D01*
X151684965Y-78426641D01*
X151684965Y-78426642D01*
X151670186Y-78497079D01*
X151603814Y-78813402D01*
X151603479Y-78816507D01*
X151603478Y-78816516D01*
X151570170Y-79125641D01*
X151561142Y-79209427D01*
X151561117Y-79212550D01*
X151561117Y-79212558D01*
X151560479Y-79293830D01*
X151558014Y-79607733D01*
X151594460Y-80004380D01*
X151595057Y-80007465D01*
X151595057Y-80007466D01*
X151650358Y-80293293D01*
X151670122Y-80395446D01*
X151714771Y-80544741D01*
X151759717Y-80695031D01*
X151765000Y-80731133D01*
X151765000Y-83434585D01*
X151744998Y-83502706D01*
X151691342Y-83549199D01*
X151621068Y-83559303D01*
X151586658Y-83549199D01*
X151511865Y-83515042D01*
X151511862Y-83515041D01*
X151503670Y-83511300D01*
X151494755Y-83510018D01*
X151494754Y-83510018D01*
X151363448Y-83491139D01*
X151363441Y-83491138D01*
X151359000Y-83490500D01*
X150109000Y-83490500D01*
X150035921Y-83495727D01*
X149982884Y-83511300D01*
X149904330Y-83534365D01*
X149904328Y-83534366D01*
X149895684Y-83536904D01*
X149888106Y-83541774D01*
X149888104Y-83541775D01*
X149864621Y-83556867D01*
X149796500Y-83576869D01*
X149728379Y-83556867D01*
X149681886Y-83503211D01*
X149670500Y-83450869D01*
X149670500Y-82389000D01*
X149665273Y-82315921D01*
X149638823Y-82225841D01*
X149626635Y-82184330D01*
X149626634Y-82184328D01*
X149624096Y-82175684D01*
X149578393Y-82104569D01*
X149549949Y-82060309D01*
X149549947Y-82060306D01*
X149545077Y-82052729D01*
X149538267Y-82046828D01*
X149441431Y-81962918D01*
X149441428Y-81962916D01*
X149434619Y-81957016D01*
X149357735Y-81921904D01*
X149309864Y-81900042D01*
X149309863Y-81900042D01*
X149301670Y-81896300D01*
X149292755Y-81895018D01*
X149292754Y-81895018D01*
X149161448Y-81876139D01*
X149161441Y-81876138D01*
X149157000Y-81875500D01*
X147357000Y-81875500D01*
X147283921Y-81880727D01*
X147230884Y-81896300D01*
X147152330Y-81919365D01*
X147152328Y-81919366D01*
X147143684Y-81921904D01*
X147136105Y-81926775D01*
X147028309Y-81996051D01*
X147028306Y-81996053D01*
X147020729Y-82000923D01*
X147014828Y-82007733D01*
X146930918Y-82104569D01*
X146930916Y-82104572D01*
X146925016Y-82111381D01*
X146921272Y-82119579D01*
X146870210Y-82231390D01*
X146864300Y-82244330D01*
X146863018Y-82253245D01*
X146863018Y-82253246D01*
X146844139Y-82384552D01*
X146844138Y-82384559D01*
X146843500Y-82389000D01*
X146843500Y-82483203D01*
X146837333Y-82522139D01*
X146807462Y-82614073D01*
X146787500Y-82804000D01*
X146807462Y-82993927D01*
X146809502Y-83000205D01*
X146809502Y-83000206D01*
X146837333Y-83085861D01*
X146843500Y-83124797D01*
X146843500Y-84619000D01*
X146848727Y-84692079D01*
X146889904Y-84832316D01*
X146894775Y-84839895D01*
X146964051Y-84947691D01*
X146964053Y-84947694D01*
X146968923Y-84955271D01*
X146975733Y-84961172D01*
X147072569Y-85045082D01*
X147072572Y-85045084D01*
X147079381Y-85050984D01*
X147212330Y-85111700D01*
X147221245Y-85112982D01*
X147221246Y-85112982D01*
X147352552Y-85131861D01*
X147352559Y-85131862D01*
X147357000Y-85132500D01*
X148608002Y-85132500D01*
X148676123Y-85152502D01*
X148722616Y-85206158D01*
X148734002Y-85258500D01*
X148734002Y-87085278D01*
X148733995Y-87086597D01*
X148733167Y-87165711D01*
X148739932Y-87197000D01*
X148742325Y-87208068D01*
X148744386Y-87220651D01*
X148749218Y-87263732D01*
X148760246Y-87295399D01*
X148764404Y-87310196D01*
X148770002Y-87336089D01*
X148770005Y-87336097D01*
X148771492Y-87342976D01*
X148784857Y-87371635D01*
X148789810Y-87382257D01*
X148794608Y-87394074D01*
X148800155Y-87410002D01*
X148808861Y-87435004D01*
X148826636Y-87463450D01*
X148833967Y-87476952D01*
X148848139Y-87507343D01*
X148852453Y-87512904D01*
X148852455Y-87512908D01*
X148874701Y-87541587D01*
X148881995Y-87552043D01*
X148901234Y-87582833D01*
X148901237Y-87582837D01*
X148904967Y-87588806D01*
X148909929Y-87593802D01*
X148909930Y-87593804D01*
X148932876Y-87616910D01*
X148934342Y-87618477D01*
X148935231Y-87619623D01*
X148983957Y-87668349D01*
X149032760Y-87717493D01*
X149033500Y-87717962D01*
X149034189Y-87718581D01*
X149583528Y-88267920D01*
X149584456Y-88268857D01*
X149639844Y-88325417D01*
X149645758Y-88329229D01*
X149645760Y-88329230D01*
X149653722Y-88334361D01*
X149676284Y-88348901D01*
X149686617Y-88356326D01*
X149720506Y-88383379D01*
X149750689Y-88397970D01*
X149764103Y-88405498D01*
X149786363Y-88419843D01*
X149792289Y-88423662D01*
X149798908Y-88426071D01*
X149798910Y-88426072D01*
X149815358Y-88432058D01*
X149833021Y-88438487D01*
X149844760Y-88443445D01*
X149883787Y-88462312D01*
X149916463Y-88469856D01*
X149931199Y-88474220D01*
X149962712Y-88485690D01*
X149999691Y-88490362D01*
X150005702Y-88491121D01*
X150018255Y-88493356D01*
X150060499Y-88503109D01*
X150067537Y-88503134D01*
X150067541Y-88503134D01*
X150086845Y-88503201D01*
X150100104Y-88503247D01*
X150102252Y-88503318D01*
X150103689Y-88503500D01*
X150118308Y-88503500D01*
X150186429Y-88523502D01*
X150232922Y-88577158D01*
X150243026Y-88647431D01*
X150241139Y-88660552D01*
X150241138Y-88660559D01*
X150240500Y-88665000D01*
X150240500Y-88906954D01*
X150220498Y-88975075D01*
X150201581Y-88998019D01*
X149420522Y-89744907D01*
X148078291Y-91028416D01*
X148059645Y-91046246D01*
X147996588Y-91078870D01*
X147925903Y-91072223D01*
X147870033Y-91028416D01*
X147846715Y-90961358D01*
X147848116Y-90935466D01*
X147849067Y-90929463D01*
X147851473Y-90917845D01*
X147860988Y-90880783D01*
X147860988Y-90880782D01*
X147862466Y-90875026D01*
X147862501Y-90874470D01*
X147862501Y-90854549D01*
X147864052Y-90834839D01*
X147865945Y-90822887D01*
X147865945Y-90822886D01*
X147867185Y-90815057D01*
X147863060Y-90771418D01*
X147862501Y-90759561D01*
X147862501Y-87128385D01*
X147863015Y-87117481D01*
X147864667Y-87110090D01*
X147862563Y-87043135D01*
X147862501Y-87039178D01*
X147862501Y-87010423D01*
X147861962Y-87006156D01*
X147861028Y-86994306D01*
X147859889Y-86958043D01*
X147859640Y-86950118D01*
X147853988Y-86930662D01*
X147849979Y-86911303D01*
X147848435Y-86899080D01*
X147848435Y-86899079D01*
X147847441Y-86891213D01*
X147842231Y-86878055D01*
X147831169Y-86850112D01*
X147827324Y-86838883D01*
X147817200Y-86804036D01*
X147817199Y-86804035D01*
X147814988Y-86796423D01*
X147804675Y-86778984D01*
X147795979Y-86761232D01*
X147791443Y-86749776D01*
X147788523Y-86742401D01*
X147762534Y-86706630D01*
X147756017Y-86696709D01*
X147754677Y-86694443D01*
X147733515Y-86658660D01*
X147733146Y-86658242D01*
X147719063Y-86644159D01*
X147706229Y-86629134D01*
X147694447Y-86612918D01*
X147660665Y-86584971D01*
X147651886Y-86576982D01*
X147454405Y-86379501D01*
X147420379Y-86317189D01*
X147417500Y-86290406D01*
X147417500Y-86125000D01*
X147412273Y-86051921D01*
X147371096Y-85911684D01*
X147308273Y-85813930D01*
X147296949Y-85796309D01*
X147296947Y-85796306D01*
X147292077Y-85788729D01*
X147285267Y-85782828D01*
X147188431Y-85698918D01*
X147188428Y-85698916D01*
X147181619Y-85693016D01*
X147173421Y-85689272D01*
X147056864Y-85636042D01*
X147056863Y-85636042D01*
X147048670Y-85632300D01*
X147039755Y-85631018D01*
X147039754Y-85631018D01*
X146908448Y-85612139D01*
X146908441Y-85612138D01*
X146904000Y-85611500D01*
X145354000Y-85611500D01*
X145280921Y-85616727D01*
X145215140Y-85636042D01*
X145149330Y-85655365D01*
X145149328Y-85655366D01*
X145140684Y-85657904D01*
X145102528Y-85682426D01*
X145025309Y-85732051D01*
X145025306Y-85732053D01*
X145017729Y-85736923D01*
X145011828Y-85743733D01*
X144927918Y-85840569D01*
X144927916Y-85840572D01*
X144922016Y-85847381D01*
X144918272Y-85855579D01*
X144886953Y-85924159D01*
X144861300Y-85980330D01*
X144860018Y-85989245D01*
X144860018Y-85989246D01*
X144841139Y-86120552D01*
X144841138Y-86120559D01*
X144840500Y-86125000D01*
X144840500Y-86725000D01*
X144845727Y-86798079D01*
X144847631Y-86804562D01*
X144881862Y-86921143D01*
X144886904Y-86938316D01*
X144891775Y-86945895D01*
X144961051Y-87053691D01*
X144961053Y-87053694D01*
X144965923Y-87061271D01*
X144972733Y-87067172D01*
X145069569Y-87151082D01*
X145069572Y-87151084D01*
X145076381Y-87156984D01*
X145084579Y-87160728D01*
X145125945Y-87179619D01*
X145209330Y-87217700D01*
X145218245Y-87218982D01*
X145218246Y-87218982D01*
X145349552Y-87237861D01*
X145349559Y-87237862D01*
X145354000Y-87238500D01*
X146469406Y-87238500D01*
X146537527Y-87258502D01*
X146558501Y-87275405D01*
X146558596Y-87275500D01*
X146592622Y-87337812D01*
X146595501Y-87364595D01*
X146595501Y-88025500D01*
X146575499Y-88093621D01*
X146521843Y-88140114D01*
X146469501Y-88151500D01*
X145354000Y-88151500D01*
X145280921Y-88156727D01*
X145211584Y-88177086D01*
X145149330Y-88195365D01*
X145149328Y-88195366D01*
X145140684Y-88197904D01*
X145133105Y-88202775D01*
X145025309Y-88272051D01*
X145025306Y-88272053D01*
X145017729Y-88276923D01*
X145011827Y-88283734D01*
X145011826Y-88283735D01*
X145008117Y-88288015D01*
X144948390Y-88326397D01*
X144912895Y-88331500D01*
X144589383Y-88331500D01*
X144578479Y-88330986D01*
X144571088Y-88329334D01*
X144563162Y-88329583D01*
X144563161Y-88329583D01*
X144504134Y-88331438D01*
X144500176Y-88331500D01*
X144471422Y-88331500D01*
X144467155Y-88332039D01*
X144455313Y-88332972D01*
X144423665Y-88333967D01*
X144419040Y-88334112D01*
X144411117Y-88334361D01*
X144391667Y-88340012D01*
X144372305Y-88344022D01*
X144369580Y-88344366D01*
X144360070Y-88345567D01*
X144360067Y-88345568D01*
X144352212Y-88346560D01*
X144344847Y-88349476D01*
X144344843Y-88349477D01*
X144311099Y-88362837D01*
X144299872Y-88366681D01*
X144271999Y-88374779D01*
X144201005Y-88374577D01*
X144141388Y-88336023D01*
X144112079Y-88271359D01*
X144122383Y-88201114D01*
X144147752Y-88164687D01*
X144156513Y-88155926D01*
X144164601Y-88148566D01*
X144170995Y-88144508D01*
X144216870Y-88095656D01*
X144219624Y-88092815D01*
X144239938Y-88072501D01*
X144242583Y-88069090D01*
X144250289Y-88060068D01*
X144258976Y-88050818D01*
X144280557Y-88027836D01*
X144289762Y-88011093D01*
X144290318Y-88010082D01*
X144301172Y-87993558D01*
X144308725Y-87983821D01*
X144308725Y-87983820D01*
X144313583Y-87977558D01*
X144331142Y-87936982D01*
X144336363Y-87926325D01*
X144351926Y-87898016D01*
X144357662Y-87887583D01*
X144359635Y-87879899D01*
X144362699Y-87867967D01*
X144369103Y-87849263D01*
X144373999Y-87837950D01*
X144374001Y-87837943D01*
X144377148Y-87830671D01*
X144384065Y-87787000D01*
X144386472Y-87775379D01*
X144395987Y-87738317D01*
X144395987Y-87738316D01*
X144397465Y-87732560D01*
X144397500Y-87732004D01*
X144397500Y-87712083D01*
X144399051Y-87692373D01*
X144400944Y-87680421D01*
X144400944Y-87680420D01*
X144402184Y-87672591D01*
X144398059Y-87628952D01*
X144397500Y-87617095D01*
X144397500Y-82791592D01*
X144417502Y-82723471D01*
X144434405Y-82702497D01*
X145178996Y-81957906D01*
X145241308Y-81923880D01*
X145268091Y-81921001D01*
X145583115Y-81921001D01*
X145594019Y-81921515D01*
X145601410Y-81923167D01*
X145609336Y-81922918D01*
X145609337Y-81922918D01*
X145668365Y-81921063D01*
X145672322Y-81921001D01*
X145701077Y-81921001D01*
X145705344Y-81920462D01*
X145717186Y-81919529D01*
X145748834Y-81918534D01*
X145753459Y-81918389D01*
X145761382Y-81918140D01*
X145780833Y-81912489D01*
X145800194Y-81908479D01*
X145802919Y-81908135D01*
X145812429Y-81906934D01*
X145812432Y-81906933D01*
X145820287Y-81905941D01*
X145827652Y-81903025D01*
X145827656Y-81903024D01*
X145861400Y-81889664D01*
X145872629Y-81885819D01*
X145915077Y-81873487D01*
X145921905Y-81869449D01*
X145932510Y-81863178D01*
X145950261Y-81854482D01*
X145961725Y-81849943D01*
X145961728Y-81849941D01*
X145969099Y-81847023D01*
X146004867Y-81821036D01*
X146014790Y-81814517D01*
X146052840Y-81792015D01*
X146053258Y-81791646D01*
X146067341Y-81777563D01*
X146082366Y-81764729D01*
X146098582Y-81752947D01*
X146126529Y-81719165D01*
X146134518Y-81710386D01*
X146331999Y-81512905D01*
X146394311Y-81478879D01*
X146421094Y-81476000D01*
X147510500Y-81476000D01*
X147583579Y-81470773D01*
X147661665Y-81447845D01*
X147715170Y-81432135D01*
X147715172Y-81432134D01*
X147723816Y-81429596D01*
X147785301Y-81390082D01*
X147839191Y-81355449D01*
X147839194Y-81355447D01*
X147846771Y-81350577D01*
X147852672Y-81343767D01*
X147936582Y-81246931D01*
X147936584Y-81246928D01*
X147942484Y-81240119D01*
X148003200Y-81107170D01*
X148004482Y-81098254D01*
X148023361Y-80966948D01*
X148023362Y-80966941D01*
X148024000Y-80962500D01*
X148024000Y-79438500D01*
X148018773Y-79365421D01*
X147977596Y-79225184D01*
X147932857Y-79155569D01*
X147903449Y-79109809D01*
X147903447Y-79109806D01*
X147898577Y-79102229D01*
X147810467Y-79025880D01*
X147772084Y-78966155D01*
X147772084Y-78895159D01*
X147810468Y-78835432D01*
X147824859Y-78824659D01*
X147846771Y-78810577D01*
X147852672Y-78803767D01*
X147936582Y-78706931D01*
X147936584Y-78706928D01*
X147942484Y-78700119D01*
X148003200Y-78567170D01*
X148004482Y-78558254D01*
X148023361Y-78426948D01*
X148023362Y-78426941D01*
X148024000Y-78422500D01*
X148024000Y-76898500D01*
X148018773Y-76825421D01*
X147977596Y-76685184D01*
X147932857Y-76615569D01*
X147903449Y-76569809D01*
X147903447Y-76569806D01*
X147898577Y-76562229D01*
X147891767Y-76556328D01*
X147794931Y-76472418D01*
X147794928Y-76472416D01*
X147788119Y-76466516D01*
X147705675Y-76428865D01*
X147663364Y-76409542D01*
X147663363Y-76409542D01*
X147655170Y-76405800D01*
X147646255Y-76404518D01*
X147646254Y-76404518D01*
X147514948Y-76385639D01*
X147514941Y-76385638D01*
X147510500Y-76385000D01*
X145986500Y-76385000D01*
X145913421Y-76390227D01*
X145847640Y-76409542D01*
X145781830Y-76428865D01*
X145781828Y-76428866D01*
X145773184Y-76431404D01*
X145765605Y-76436275D01*
X145657809Y-76505551D01*
X145657806Y-76505553D01*
X145650229Y-76510423D01*
X145598771Y-76569809D01*
X145573881Y-76598533D01*
X145514155Y-76636916D01*
X145443159Y-76636916D01*
X145383432Y-76598532D01*
X145372659Y-76584141D01*
X145363448Y-76569809D01*
X145358577Y-76562229D01*
X145351767Y-76556328D01*
X145254931Y-76472418D01*
X145254928Y-76472416D01*
X145248119Y-76466516D01*
X145165675Y-76428865D01*
X145123364Y-76409542D01*
X145123363Y-76409542D01*
X145115170Y-76405800D01*
X145106255Y-76404518D01*
X145106254Y-76404518D01*
X144974948Y-76385639D01*
X144974941Y-76385638D01*
X144970500Y-76385000D01*
X143446500Y-76385000D01*
X143373421Y-76390227D01*
X143307640Y-76409542D01*
X143241830Y-76428865D01*
X143241828Y-76428866D01*
X143233184Y-76431404D01*
X143225605Y-76436275D01*
X143117809Y-76505551D01*
X143117806Y-76505553D01*
X143110229Y-76510423D01*
X143104328Y-76517233D01*
X143024715Y-76609111D01*
X142964989Y-76647494D01*
X142893992Y-76647494D01*
X142834266Y-76609110D01*
X142823493Y-76594719D01*
X142808448Y-76571309D01*
X142803577Y-76563729D01*
X142795036Y-76556328D01*
X142699931Y-76473918D01*
X142699928Y-76473916D01*
X142693119Y-76468016D01*
X142560170Y-76407300D01*
X142551255Y-76406018D01*
X142551254Y-76406018D01*
X142419948Y-76387139D01*
X142419941Y-76387138D01*
X142415500Y-76386500D01*
X140891500Y-76386500D01*
X140818421Y-76391727D01*
X140752640Y-76411042D01*
X140686830Y-76430365D01*
X140686828Y-76430366D01*
X140678184Y-76432904D01*
X140640028Y-76457426D01*
X140562809Y-76507051D01*
X140562806Y-76507053D01*
X140555229Y-76511923D01*
X140480182Y-76598532D01*
X140478881Y-76600033D01*
X140419155Y-76638416D01*
X140348159Y-76638416D01*
X140288432Y-76600032D01*
X140277659Y-76585641D01*
X140268448Y-76571309D01*
X140263577Y-76563729D01*
X140255036Y-76556328D01*
X140159931Y-76473918D01*
X140159928Y-76473916D01*
X140153119Y-76468016D01*
X140020170Y-76407300D01*
X140011255Y-76406018D01*
X140011254Y-76406018D01*
X139879948Y-76387139D01*
X139879941Y-76387138D01*
X139875500Y-76386500D01*
X138351500Y-76386500D01*
X138278421Y-76391727D01*
X138212640Y-76411042D01*
X138146830Y-76430365D01*
X138146828Y-76430366D01*
X138138184Y-76432904D01*
X138100028Y-76457426D01*
X138022809Y-76507051D01*
X138022806Y-76507053D01*
X138015229Y-76511923D01*
X137940182Y-76598532D01*
X137938881Y-76600033D01*
X137879155Y-76638416D01*
X137808159Y-76638416D01*
X137748432Y-76600032D01*
X137737659Y-76585641D01*
X137728448Y-76571309D01*
X137723577Y-76563729D01*
X137715036Y-76556328D01*
X137619931Y-76473918D01*
X137619928Y-76473916D01*
X137613119Y-76468016D01*
X137480170Y-76407300D01*
X137471255Y-76406018D01*
X137471254Y-76406018D01*
X137339948Y-76387139D01*
X137339941Y-76387138D01*
X137335500Y-76386500D01*
X135811500Y-76386500D01*
X135738421Y-76391727D01*
X135672640Y-76411042D01*
X135606830Y-76430365D01*
X135606828Y-76430366D01*
X135598184Y-76432904D01*
X135560028Y-76457426D01*
X135482809Y-76507051D01*
X135482806Y-76507053D01*
X135475229Y-76511923D01*
X135400182Y-76598532D01*
X135398881Y-76600033D01*
X135339155Y-76638416D01*
X135268159Y-76638416D01*
X135208432Y-76600032D01*
X135197659Y-76585641D01*
X135188448Y-76571309D01*
X135183577Y-76563729D01*
X135175036Y-76556328D01*
X135079931Y-76473918D01*
X135079928Y-76473916D01*
X135073119Y-76468016D01*
X134940170Y-76407300D01*
X134931255Y-76406018D01*
X134931254Y-76406018D01*
X134799948Y-76387139D01*
X134799941Y-76387138D01*
X134795500Y-76386500D01*
X133271500Y-76386500D01*
X133198421Y-76391727D01*
X133132640Y-76411042D01*
X133066830Y-76430365D01*
X133066828Y-76430366D01*
X133058184Y-76432904D01*
X133020028Y-76457426D01*
X132942809Y-76507051D01*
X132942806Y-76507053D01*
X132935229Y-76511923D01*
X132860182Y-76598532D01*
X132858881Y-76600033D01*
X132799155Y-76638416D01*
X132728159Y-76638416D01*
X132668432Y-76600032D01*
X132657659Y-76585641D01*
X132648448Y-76571309D01*
X132643577Y-76563729D01*
X132635036Y-76556328D01*
X132539931Y-76473918D01*
X132539928Y-76473916D01*
X132533119Y-76468016D01*
X132400170Y-76407300D01*
X132391255Y-76406018D01*
X132391254Y-76406018D01*
X132259948Y-76387139D01*
X132259941Y-76387138D01*
X132255500Y-76386500D01*
X130731500Y-76386500D01*
X130658421Y-76391727D01*
X130592640Y-76411042D01*
X130526830Y-76430365D01*
X130526828Y-76430366D01*
X130518184Y-76432904D01*
X130480028Y-76457426D01*
X130402809Y-76507051D01*
X130402806Y-76507053D01*
X130395229Y-76511923D01*
X130389328Y-76518733D01*
X130305418Y-76615569D01*
X130305416Y-76615572D01*
X130299516Y-76622381D01*
X130238800Y-76755330D01*
X130237518Y-76764245D01*
X130237518Y-76764246D01*
X130218639Y-76895552D01*
X130218638Y-76895559D01*
X130218000Y-76900000D01*
X130218000Y-78424000D01*
X130223227Y-78497079D01*
X130264404Y-78637316D01*
X130269275Y-78644895D01*
X130338551Y-78752691D01*
X130338553Y-78752694D01*
X130343423Y-78760271D01*
X130419462Y-78826159D01*
X130431533Y-78836619D01*
X130469916Y-78896345D01*
X130469916Y-78967341D01*
X130431532Y-79027068D01*
X130417142Y-79037840D01*
X130395229Y-79051923D01*
X130389328Y-79058733D01*
X130305418Y-79155569D01*
X130305416Y-79155572D01*
X130299516Y-79162381D01*
X130238800Y-79295330D01*
X130237518Y-79304245D01*
X130237518Y-79304246D01*
X130218639Y-79435552D01*
X130218638Y-79435559D01*
X130218000Y-79440000D01*
X130218000Y-80964000D01*
X130223227Y-81037079D01*
X130243807Y-81107170D01*
X130250484Y-81129907D01*
X130264404Y-81177316D01*
X130269275Y-81184895D01*
X130338551Y-81292691D01*
X130338553Y-81292694D01*
X130343423Y-81300271D01*
X130350233Y-81306172D01*
X130447069Y-81390082D01*
X130447072Y-81390084D01*
X130453881Y-81395984D01*
X130462079Y-81399728D01*
X130476503Y-81406315D01*
X130586830Y-81456700D01*
X130595745Y-81457982D01*
X130595746Y-81457982D01*
X130727052Y-81476861D01*
X130727059Y-81476862D01*
X130731500Y-81477500D01*
X130837738Y-81477500D01*
X130905859Y-81497502D01*
X130939673Y-81529438D01*
X130959965Y-81557367D01*
X130966483Y-81567290D01*
X130988986Y-81605341D01*
X130989355Y-81605759D01*
X131003438Y-81619842D01*
X131016278Y-81634875D01*
X131028054Y-81651083D01*
X131034162Y-81656136D01*
X131061829Y-81679024D01*
X131070610Y-81687014D01*
X131437123Y-82053528D01*
X131444472Y-82061606D01*
X131448527Y-82067995D01*
X131497362Y-82113854D01*
X131500204Y-82116609D01*
X131520533Y-82136938D01*
X131523953Y-82139590D01*
X131532976Y-82147297D01*
X131565199Y-82177557D01*
X131572143Y-82181374D01*
X131572148Y-82181378D01*
X131582950Y-82187316D01*
X131599477Y-82198172D01*
X131615477Y-82210583D01*
X131622748Y-82213730D01*
X131622749Y-82213730D01*
X131656051Y-82228141D01*
X131666707Y-82233362D01*
X131705452Y-82254662D01*
X131713135Y-82256634D01*
X131713136Y-82256635D01*
X131725068Y-82259699D01*
X131743772Y-82266103D01*
X131755085Y-82270999D01*
X131755092Y-82271001D01*
X131762364Y-82274148D01*
X131770188Y-82275387D01*
X131770191Y-82275388D01*
X131806035Y-82281065D01*
X131817656Y-82283472D01*
X131854718Y-82292987D01*
X131860475Y-82294465D01*
X131861031Y-82294500D01*
X131880952Y-82294500D01*
X131900662Y-82296051D01*
X131912614Y-82297944D01*
X131912615Y-82297944D01*
X131920444Y-82299184D01*
X131928336Y-82298438D01*
X131964082Y-82295059D01*
X131975940Y-82294500D01*
X132082906Y-82294500D01*
X132151027Y-82314502D01*
X132172001Y-82331405D01*
X132870095Y-83029499D01*
X132904121Y-83091811D01*
X132907000Y-83118594D01*
X132907000Y-86382114D01*
X132906486Y-86393018D01*
X132904834Y-86400409D01*
X132905083Y-86408335D01*
X132905083Y-86408336D01*
X132906938Y-86467364D01*
X132907000Y-86471321D01*
X132907000Y-86500076D01*
X132907496Y-86504001D01*
X132907496Y-86504002D01*
X132907539Y-86504341D01*
X132908472Y-86516186D01*
X132909215Y-86539817D01*
X132909646Y-86553545D01*
X132891792Y-86622260D01*
X132839622Y-86670414D01*
X132783708Y-86683500D01*
X132692000Y-86683500D01*
X132618921Y-86688727D01*
X132557949Y-86706630D01*
X132487330Y-86727365D01*
X132487328Y-86727366D01*
X132478684Y-86729904D01*
X132447763Y-86749776D01*
X132363309Y-86804051D01*
X132363306Y-86804053D01*
X132355729Y-86808923D01*
X132349828Y-86815733D01*
X132265918Y-86912569D01*
X132265916Y-86912572D01*
X132260016Y-86919381D01*
X132256272Y-86927579D01*
X132223087Y-87000245D01*
X132199300Y-87052330D01*
X132198018Y-87061245D01*
X132198018Y-87061246D01*
X132179139Y-87192552D01*
X132179138Y-87192559D01*
X132178500Y-87197000D01*
X132178500Y-88447000D01*
X132183727Y-88520079D01*
X132190286Y-88542417D01*
X132221251Y-88647874D01*
X132224904Y-88660316D01*
X132229775Y-88667895D01*
X132299051Y-88775691D01*
X132299053Y-88775694D01*
X132303923Y-88783271D01*
X132310733Y-88789172D01*
X132407569Y-88873082D01*
X132407572Y-88873084D01*
X132414381Y-88878984D01*
X132422579Y-88882728D01*
X132484758Y-88911124D01*
X132547330Y-88939700D01*
X132556245Y-88940982D01*
X132556246Y-88940982D01*
X132687552Y-88959861D01*
X132687559Y-88959862D01*
X132692000Y-88960500D01*
X133347050Y-88960500D01*
X133415171Y-88980502D01*
X133436145Y-88997405D01*
X133467686Y-89028946D01*
X133501712Y-89091258D01*
X133498424Y-89156976D01*
X133457462Y-89283045D01*
X133456772Y-89289608D01*
X133456772Y-89289609D01*
X133451678Y-89338079D01*
X133437500Y-89472972D01*
X133438190Y-89479537D01*
X133451118Y-89602535D01*
X133457462Y-89662899D01*
X133516476Y-89844526D01*
X133519779Y-89850248D01*
X133519780Y-89850249D01*
X133537843Y-89881534D01*
X133611963Y-90009914D01*
X133616381Y-90014821D01*
X133616382Y-90014822D01*
X133717465Y-90127086D01*
X133739749Y-90151835D01*
X133745091Y-90155716D01*
X133745093Y-90155718D01*
X133892155Y-90262564D01*
X133935509Y-90318786D01*
X133941584Y-90389522D01*
X133908453Y-90452314D01*
X133846633Y-90487225D01*
X133818094Y-90490500D01*
X131066592Y-90490500D01*
X130998471Y-90470498D01*
X130977497Y-90453595D01*
X130068405Y-89544503D01*
X130034379Y-89482191D01*
X130031500Y-89455408D01*
X130031500Y-87530898D01*
X130051502Y-87462777D01*
X130105158Y-87416284D01*
X130122002Y-87410002D01*
X130252670Y-87371635D01*
X130252672Y-87371634D01*
X130261316Y-87369096D01*
X130301959Y-87342976D01*
X130376691Y-87294949D01*
X130376694Y-87294947D01*
X130384271Y-87290077D01*
X130396902Y-87275500D01*
X130474082Y-87186431D01*
X130474084Y-87186428D01*
X130479984Y-87179619D01*
X130492633Y-87151922D01*
X130536958Y-87054864D01*
X130536958Y-87054863D01*
X130540700Y-87046670D01*
X130545343Y-87014380D01*
X130560861Y-86906448D01*
X130560862Y-86906441D01*
X130561500Y-86902000D01*
X130561500Y-86202000D01*
X130556273Y-86128921D01*
X130531760Y-86045438D01*
X130517635Y-85997330D01*
X130517634Y-85997328D01*
X130515096Y-85988684D01*
X130457137Y-85898498D01*
X130440949Y-85873309D01*
X130440947Y-85873306D01*
X130436077Y-85865729D01*
X130424363Y-85855579D01*
X130332431Y-85775918D01*
X130332428Y-85775916D01*
X130325619Y-85770016D01*
X130206686Y-85715701D01*
X130153030Y-85669208D01*
X130133028Y-85601087D01*
X130153030Y-85532966D01*
X130206686Y-85486473D01*
X130223530Y-85480191D01*
X130252670Y-85471635D01*
X130252672Y-85471634D01*
X130261316Y-85469096D01*
X130325135Y-85428082D01*
X130376691Y-85394949D01*
X130376694Y-85394947D01*
X130384271Y-85390077D01*
X130403073Y-85368379D01*
X130474082Y-85286431D01*
X130474084Y-85286428D01*
X130479984Y-85279619D01*
X130540700Y-85146670D01*
X130546266Y-85107958D01*
X130560861Y-85006448D01*
X130560862Y-85006441D01*
X130561500Y-85002000D01*
X130561500Y-84302000D01*
X130556273Y-84228921D01*
X130531091Y-84143158D01*
X130517635Y-84097330D01*
X130517634Y-84097328D01*
X130515096Y-84088684D01*
X130464108Y-84009345D01*
X130440949Y-83973309D01*
X130440947Y-83973306D01*
X130436077Y-83965729D01*
X130383121Y-83919842D01*
X130332431Y-83875918D01*
X130332428Y-83875916D01*
X130325619Y-83870016D01*
X130192670Y-83809300D01*
X130183755Y-83808018D01*
X130183754Y-83808018D01*
X130052448Y-83789139D01*
X130052441Y-83789138D01*
X130048000Y-83788500D01*
X128748000Y-83788500D01*
X128674921Y-83793727D01*
X128621884Y-83809300D01*
X128543330Y-83832365D01*
X128543328Y-83832366D01*
X128534684Y-83834904D01*
X128527105Y-83839775D01*
X128419309Y-83909051D01*
X128419306Y-83909053D01*
X128411729Y-83913923D01*
X128405829Y-83920732D01*
X128380458Y-83950012D01*
X128320732Y-83988396D01*
X128285233Y-83993500D01*
X127505340Y-83993500D01*
X127437219Y-83973498D01*
X127390726Y-83919842D01*
X127380622Y-83849568D01*
X127413033Y-83781736D01*
X129340989Y-81706708D01*
X129343663Y-81703830D01*
X129477434Y-81559855D01*
X129476569Y-79004900D01*
X129475771Y-76647494D01*
X129475703Y-76447491D01*
X129476777Y-76431034D01*
X129490552Y-76326192D01*
X129499065Y-76294399D01*
X129536334Y-76204400D01*
X129552789Y-76175898D01*
X129612097Y-76098619D01*
X129635373Y-76075351D01*
X129712670Y-76016068D01*
X129741180Y-75999620D01*
X129831191Y-75962380D01*
X129862986Y-75953878D01*
X129967839Y-75940135D01*
X129984290Y-75939066D01*
X140695784Y-75946155D01*
G37*
%TD.AperFunction*%
%TA.AperFunction,Conductor*%
G36*
X135398568Y-81263968D02*
G01*
X135409340Y-81278358D01*
X135423423Y-81300271D01*
X135430233Y-81306172D01*
X135527069Y-81390082D01*
X135527072Y-81390084D01*
X135533881Y-81395984D01*
X135542079Y-81399728D01*
X135556503Y-81406315D01*
X135666830Y-81456700D01*
X135675745Y-81457982D01*
X135675746Y-81457982D01*
X135807052Y-81476861D01*
X135807059Y-81476862D01*
X135811500Y-81477500D01*
X136980906Y-81477500D01*
X137049027Y-81497502D01*
X137069997Y-81514401D01*
X137998597Y-82443002D01*
X138032621Y-82505312D01*
X138035500Y-82532095D01*
X138035500Y-84078406D01*
X138015498Y-84146527D01*
X137998595Y-84167501D01*
X135492488Y-86673608D01*
X135484400Y-86680968D01*
X135478006Y-86685026D01*
X135472581Y-86690803D01*
X135468181Y-86694443D01*
X135402943Y-86722453D01*
X135332919Y-86710746D01*
X135298771Y-86686454D01*
X134660915Y-86048599D01*
X134626890Y-85986286D01*
X134624010Y-85959503D01*
X134624010Y-82695996D01*
X134624524Y-82685082D01*
X134626177Y-82677689D01*
X134624072Y-82610715D01*
X134624010Y-82606758D01*
X134624010Y-82578022D01*
X134623471Y-82573751D01*
X134622538Y-82561913D01*
X134621398Y-82525642D01*
X134621149Y-82517717D01*
X134615497Y-82498261D01*
X134611488Y-82478902D01*
X134609944Y-82466679D01*
X134609944Y-82466678D01*
X134608950Y-82458812D01*
X134602690Y-82443000D01*
X134592678Y-82417711D01*
X134588833Y-82406482D01*
X134578709Y-82371635D01*
X134578708Y-82371634D01*
X134576497Y-82364022D01*
X134566184Y-82346583D01*
X134557488Y-82328831D01*
X134552952Y-82317375D01*
X134550032Y-82310000D01*
X134524043Y-82274229D01*
X134517526Y-82264308D01*
X134512988Y-82256635D01*
X134495024Y-82226259D01*
X134494655Y-82225841D01*
X134480572Y-82211758D01*
X134467738Y-82196733D01*
X134455956Y-82180517D01*
X134422174Y-82152570D01*
X134413395Y-82144581D01*
X134295204Y-82026390D01*
X134261178Y-81964078D01*
X134266243Y-81893263D01*
X134295204Y-81848200D01*
X134426013Y-81717391D01*
X134434101Y-81710031D01*
X134440495Y-81705973D01*
X134486370Y-81657121D01*
X134489124Y-81654280D01*
X134509438Y-81633966D01*
X134512083Y-81630555D01*
X134519789Y-81621533D01*
X134544633Y-81595077D01*
X134550057Y-81589301D01*
X134553876Y-81582355D01*
X134559818Y-81571547D01*
X134570672Y-81555023D01*
X134578223Y-81545288D01*
X134583083Y-81539023D01*
X134583756Y-81537469D01*
X134633619Y-81490909D01*
X134690182Y-81477500D01*
X134795500Y-81477500D01*
X134868579Y-81472273D01*
X134946665Y-81449345D01*
X135000170Y-81433635D01*
X135000172Y-81433634D01*
X135008816Y-81431096D01*
X135072635Y-81390082D01*
X135124191Y-81356949D01*
X135124194Y-81356947D01*
X135131771Y-81352077D01*
X135208120Y-81263967D01*
X135267845Y-81225584D01*
X135338841Y-81225584D01*
X135398568Y-81263968D01*
G37*
%TD.AperFunction*%
%TA.AperFunction,Conductor*%
G36*
X140478568Y-81263968D02*
G01*
X140489340Y-81278358D01*
X140503423Y-81300271D01*
X140510233Y-81306172D01*
X140607069Y-81390082D01*
X140607072Y-81390084D01*
X140613881Y-81395984D01*
X140622079Y-81399728D01*
X140636503Y-81406315D01*
X140746830Y-81456700D01*
X140755745Y-81457982D01*
X140755746Y-81457982D01*
X140887052Y-81476861D01*
X140887059Y-81476862D01*
X140891500Y-81477500D01*
X140895994Y-81477500D01*
X140900486Y-81477821D01*
X140900375Y-81479372D01*
X140962121Y-81497502D01*
X141008614Y-81551158D01*
X141020000Y-81603500D01*
X141020000Y-85516439D01*
X140999998Y-85584560D01*
X140946342Y-85631053D01*
X140876068Y-85641157D01*
X140811488Y-85611663D01*
X140804905Y-85605534D01*
X139798905Y-84599534D01*
X139764879Y-84537222D01*
X139762000Y-84510439D01*
X139762000Y-81602928D01*
X139782002Y-81534807D01*
X139835658Y-81488314D01*
X139879011Y-81477249D01*
X139941840Y-81472755D01*
X139948579Y-81472273D01*
X140026665Y-81449345D01*
X140080170Y-81433635D01*
X140080172Y-81433634D01*
X140088816Y-81431096D01*
X140152635Y-81390082D01*
X140204191Y-81356949D01*
X140204194Y-81356947D01*
X140211771Y-81352077D01*
X140288120Y-81263967D01*
X140347845Y-81225584D01*
X140418841Y-81225584D01*
X140478568Y-81263968D01*
G37*
%TD.AperFunction*%
%TD*%
M02*
