%TF.GenerationSoftware,KiCad,Pcbnew,(5.99.0-10394-g2e15de97e0)*%
%TF.CreationDate,2021-05-18T08:40:14+02:00*%
%TF.ProjectId,BRIDGEADC01A,42524944-4745-4414-9443-3031412e6b69,REV*%
%TF.SameCoordinates,Original*%
%TF.FileFunction,Copper,L1,Top*%
%TF.FilePolarity,Positive*%
%FSLAX46Y46*%
G04 Gerber Fmt 4.6, Leading zero omitted, Abs format (unit mm)*
G04 Created by KiCad (PCBNEW (5.99.0-10394-g2e15de97e0)) date 2021-05-18 08:40:14*
%MOMM*%
%LPD*%
G01*
G04 APERTURE LIST*
%TA.AperFunction,ComponentPad*%
%ADD10R,1.524000X1.524000*%
%TD*%
%TA.AperFunction,ComponentPad*%
%ADD11C,6.000000*%
%TD*%
%TA.AperFunction,ComponentPad*%
%ADD12C,1.501140*%
%TD*%
%TA.AperFunction,ViaPad*%
%ADD13C,0.800000*%
%TD*%
%TA.AperFunction,Conductor*%
%ADD14C,0.300000*%
%TD*%
%TA.AperFunction,Conductor*%
%ADD15C,0.500000*%
%TD*%
%TA.AperFunction,Conductor*%
%ADD16C,0.400000*%
%TD*%
G04 APERTURE END LIST*
D10*
%TO.P,J1,1*%
%TO.N,GND*%
X143876000Y-110682000D03*
%TO.P,J1,2*%
X141336000Y-110682000D03*
%TO.P,J1,3*%
%TO.N,VCC*%
X143876000Y-108142000D03*
%TO.P,J1,4*%
X141336000Y-108142000D03*
%TO.P,J1,5*%
%TO.N,GND*%
X143876000Y-105602000D03*
%TO.P,J1,6*%
X141336000Y-105602000D03*
%TD*%
%TO.P,J2,1*%
%TO.N,Net-(J2-Pad1)*%
X154798000Y-88838000D03*
%TO.P,J2,2*%
X157338000Y-88838000D03*
%TD*%
%TO.P,J3,1*%
%TO.N,Net-(J3-Pad1)*%
X154798000Y-86298000D03*
%TO.P,J3,2*%
X157338000Y-86298000D03*
%TD*%
%TO.P,J4,1*%
%TO.N,Net-(J4-Pad1)*%
X131493500Y-77662000D03*
%TO.P,J4,2*%
X131493500Y-80202000D03*
%TD*%
%TO.P,J5,1*%
%TO.N,Net-(J5-Pad1)*%
X134033500Y-77662000D03*
%TO.P,J5,2*%
X134033500Y-80202000D03*
%TD*%
%TO.P,J6,1*%
%TO.N,Net-(J6-Pad1)*%
X136573500Y-77662000D03*
%TO.P,J6,2*%
X136573500Y-80202000D03*
%TD*%
%TO.P,J7,1*%
%TO.N,Net-(J7-Pad1)*%
X139113500Y-80202000D03*
%TO.P,J7,2*%
X139113500Y-77662000D03*
%TD*%
%TO.P,J8,1*%
%TO.N,Net-(J8-Pad1)*%
X146748500Y-80200500D03*
%TO.P,J8,2*%
X146748500Y-77660500D03*
%TD*%
%TO.P,J9,1*%
%TO.N,Net-(J9-Pad1)*%
X141653500Y-80202000D03*
%TO.P,J9,2*%
X141653500Y-77662000D03*
%TD*%
%TO.P,J10,1*%
%TO.N,VCC*%
X141590000Y-98236000D03*
%TO.P,J10,2*%
%TO.N,Net-(J10-Pad2)*%
X139050000Y-98236000D03*
%TO.P,J10,3*%
%TO.N,GND*%
X136510000Y-98236000D03*
%TD*%
%TO.P,J11,1*%
%TO.N,Net-(J11-Pad1)*%
X124318000Y-86552000D03*
%TO.P,J11,2*%
X126858000Y-86552000D03*
%TD*%
%TO.P,J12,1*%
%TO.N,Net-(J12-Pad1)*%
X124318000Y-89092000D03*
%TO.P,J12,2*%
X126858000Y-89092000D03*
%TD*%
%TO.P,J13,1*%
%TO.N,Net-(J13-Pad1)*%
X154798000Y-96458000D03*
%TO.P,J13,2*%
X157338000Y-96458000D03*
%TD*%
%TO.P,J14,1*%
%TO.N,Net-(J14-Pad1)*%
X154798000Y-93918000D03*
%TO.P,J14,2*%
X157338000Y-93918000D03*
%TD*%
%TO.P,J15,1*%
%TO.N,Net-(J15-Pad1)*%
X124318000Y-96712000D03*
%TO.P,J15,2*%
X126858000Y-96712000D03*
%TD*%
%TO.P,J16,1*%
%TO.N,Net-(J16-Pad1)*%
X154798000Y-101538000D03*
%TO.P,J16,2*%
X157338000Y-101538000D03*
%TD*%
%TO.P,J17,1*%
%TO.N,Net-(J17-Pad1)*%
X154798000Y-98998000D03*
%TO.P,J17,2*%
X157338000Y-98998000D03*
%TD*%
%TO.P,J18,1*%
%TO.N,Net-(J18-Pad1)*%
X154798000Y-91378000D03*
%TO.P,J18,2*%
X157338000Y-91378000D03*
%TD*%
%TO.P,J19,1*%
%TO.N,GNDA*%
X136256000Y-105602000D03*
%TO.P,J19,2*%
X138796000Y-105602000D03*
%TO.P,J19,3*%
%TO.N,Net-(D2-Pad1)*%
X136256000Y-108142000D03*
%TO.P,J19,4*%
X138796000Y-108142000D03*
%TO.P,J19,5*%
%TO.N,GNDA*%
X136256000Y-110682000D03*
%TO.P,J19,6*%
X138796000Y-110682000D03*
%TD*%
%TO.P,J20,1*%
%TO.N,Net-(J20-Pad1)*%
X124318000Y-94172000D03*
%TO.P,J20,2*%
X126858000Y-94172000D03*
%TD*%
%TO.P,J21,1*%
%TO.N,Net-(J21-Pad1)*%
X124318000Y-91632000D03*
%TO.P,J21,2*%
X126858000Y-91632000D03*
%TD*%
D11*
%TO.P,M1,1*%
%TO.N,GND*%
X155560000Y-79440000D03*
%TD*%
%TO.P,M2,1*%
%TO.N,GND*%
X155560000Y-109920000D03*
%TD*%
%TO.P,M3,1*%
%TO.N,GND*%
X125080000Y-79440000D03*
%TD*%
%TO.P,M4,1*%
%TO.N,GND*%
X125080000Y-109920000D03*
%TD*%
D12*
%TO.P,Y1,1*%
%TO.N,Net-(J21-Pad1)*%
X131303000Y-92747060D03*
%TO.P,Y1,2*%
%TO.N,Net-(J20-Pad1)*%
X131303000Y-97628940D03*
%TD*%
D10*
%TO.P,J22,1*%
%TO.N,VAA*%
X144208500Y-77660500D03*
%TO.P,J22,2*%
X144208500Y-80200500D03*
%TD*%
%TO.P,J23,1*%
%TO.N,GNDA*%
X149288500Y-77660500D03*
%TO.P,J23,2*%
X149288500Y-80200500D03*
%TD*%
D13*
%TO.N,GND*%
X122047000Y-101282500D03*
%TO.N,VCC*%
X151623000Y-95061000D03*
X145542000Y-96139000D03*
%TO.N,VAA*%
X134351000Y-89472972D03*
X147701000Y-82804000D03*
X131886691Y-101808000D03*
X149542502Y-84582000D03*
%TO.N,GNDA*%
X140447000Y-82869000D03*
X132207000Y-99504500D03*
X130287000Y-88711000D03*
X137731500Y-95885000D03*
X138033998Y-89600000D03*
X128333500Y-98933000D03*
X127684000Y-101030000D03*
X130937000Y-94996000D03*
X132700000Y-110394980D03*
X138669000Y-86298000D03*
X132334000Y-89789000D03*
X139431000Y-93029000D03*
X130873500Y-104219500D03*
X135826500Y-82931000D03*
X150431500Y-82550000D03*
X145337000Y-83504000D03*
%TD*%
D14*
%TO.N,GND*%
X125080000Y-109920000D02*
X121540500Y-109920000D01*
X121094500Y-109474000D02*
X121094500Y-102235000D01*
X121094500Y-102235000D02*
X122047000Y-101282500D01*
X121540500Y-109920000D02*
X121094500Y-109474000D01*
%TO.N,VCC*%
X151623000Y-95061000D02*
X150545000Y-96139000D01*
X150545000Y-96139000D02*
X146107685Y-96139000D01*
X146107685Y-96139000D02*
X145542000Y-96139000D01*
D15*
%TO.N,VAA*%
X144208500Y-80200500D02*
X146812000Y-82804000D01*
X136117030Y-91239002D02*
X142885500Y-91239002D01*
D16*
X134351000Y-99343691D02*
X134351000Y-96602360D01*
D15*
X132503571Y-101191120D02*
X134351000Y-99343691D01*
D14*
X134351000Y-96031894D02*
X134351000Y-93005032D01*
D16*
X134351000Y-96602360D02*
X134351000Y-93005032D01*
D15*
X146812000Y-82804000D02*
X147135315Y-82804000D01*
X134351000Y-93005032D02*
X136117030Y-91239002D01*
X142885500Y-91239002D02*
X149142503Y-84981999D01*
D16*
X134351000Y-96602360D02*
X134351000Y-96031894D01*
D15*
X134351000Y-99343691D02*
X134351000Y-93005032D01*
X149142503Y-84981999D02*
X149542502Y-84582000D01*
X147135315Y-82804000D02*
X147701000Y-82804000D01*
X131886691Y-101808000D02*
X132503571Y-101191120D01*
X136117030Y-91239002D02*
X134351000Y-89472972D01*
%TO.N,GNDA*%
X128333500Y-98933000D02*
X128333500Y-97599500D01*
D14*
X137731500Y-94728500D02*
X137731500Y-95319315D01*
X138669000Y-86298000D02*
X138669000Y-86863685D01*
D15*
X132700000Y-108645300D02*
X132700000Y-110394980D01*
D14*
X138669000Y-86863685D02*
X138669000Y-86679000D01*
D15*
X132700000Y-107896000D02*
X132700000Y-108645300D01*
D14*
X136256000Y-110682000D02*
X135194000Y-110682000D01*
X144610001Y-84254001D02*
X148665499Y-84254001D01*
D15*
X129921000Y-98933000D02*
X130492500Y-99504500D01*
X130492500Y-99504500D02*
X132207000Y-99504500D01*
X134994000Y-105602000D02*
X132700000Y-107896000D01*
X128333500Y-98933000D02*
X129921000Y-98933000D01*
D14*
X140447000Y-82869000D02*
X135888500Y-82869000D01*
X135888500Y-82869000D02*
X135826500Y-82931000D01*
X138433997Y-89200001D02*
X138033998Y-89600000D01*
X143225000Y-82869000D02*
X141012685Y-82869000D01*
D15*
X128333500Y-97599500D02*
X130937000Y-94996000D01*
D14*
X144130000Y-83774000D02*
X143225000Y-82869000D01*
X137731500Y-95319315D02*
X137731500Y-95885000D01*
D15*
X130873500Y-104219500D02*
X127684000Y-101030000D01*
X136256000Y-105602000D02*
X134994000Y-105602000D01*
D14*
X144130000Y-83774000D02*
X143859998Y-83774000D01*
D15*
X135968980Y-110394980D02*
X136256000Y-110682000D01*
D14*
X148665499Y-84254001D02*
X149145500Y-83774000D01*
X143859998Y-83774000D02*
X138433997Y-89200001D01*
D15*
X132700000Y-110394980D02*
X135968980Y-110394980D01*
D14*
X141012685Y-82869000D02*
X140447000Y-82869000D01*
X149145500Y-83774000D02*
X149638000Y-83774000D01*
X144130000Y-83774000D02*
X144610001Y-84254001D01*
X139431000Y-93029000D02*
X137731500Y-94728500D01*
%TD*%
%TA.AperFunction,Conductor*%
%TO.N,GNDA*%
G36*
X137729897Y-76010056D02*
G01*
X140198895Y-76010232D01*
X150479783Y-76010963D01*
X150496223Y-76012042D01*
X150600993Y-76025843D01*
X150632762Y-76034358D01*
X150722697Y-76071616D01*
X150751178Y-76088061D01*
X150826479Y-76145846D01*
X150828406Y-76147325D01*
X150851661Y-76170582D01*
X150910921Y-76247815D01*
X150927366Y-76276300D01*
X150964009Y-76364767D01*
X150964617Y-76366236D01*
X150973129Y-76398006D01*
X150986922Y-76502776D01*
X150988000Y-76519222D01*
X150988000Y-87700271D01*
X150986919Y-87716737D01*
X150973092Y-87821637D01*
X150964559Y-87853444D01*
X150927220Y-87943469D01*
X150910737Y-87971978D01*
X150846260Y-88055871D01*
X150835369Y-88068268D01*
X142074718Y-96812566D01*
X142062344Y-96823398D01*
X142013873Y-96860531D01*
X141978548Y-96887593D01*
X141950087Y-96904001D01*
X141860238Y-96941169D01*
X141828502Y-96949663D01*
X141771564Y-96957150D01*
X141754261Y-96959425D01*
X141737834Y-96960500D01*
X140828000Y-96960500D01*
X140776564Y-96964179D01*
X140767575Y-96964500D01*
X139848835Y-96964500D01*
X139830903Y-96963217D01*
X139816459Y-96961140D01*
X139816444Y-96961139D01*
X139812000Y-96960500D01*
X138288000Y-96960500D01*
X138236564Y-96964179D01*
X138227575Y-96964500D01*
X137308835Y-96964500D01*
X137290903Y-96963217D01*
X137276459Y-96961140D01*
X137276444Y-96961139D01*
X137272000Y-96960500D01*
X135748000Y-96960500D01*
X135696564Y-96964179D01*
X135687575Y-96964500D01*
X135235500Y-96964500D01*
X135167379Y-96944498D01*
X135120886Y-96890842D01*
X135109500Y-96838500D01*
X135109500Y-93371403D01*
X135129502Y-93303282D01*
X135146405Y-93282308D01*
X136394306Y-92034407D01*
X136456618Y-92000381D01*
X136483401Y-91997502D01*
X142819513Y-91997502D01*
X142838463Y-91998935D01*
X142851620Y-92000937D01*
X142851624Y-92000937D01*
X142858854Y-92002037D01*
X142866146Y-92001444D01*
X142866149Y-92001444D01*
X142909510Y-91997917D01*
X142919724Y-91997502D01*
X142928386Y-91997502D01*
X142932020Y-91997078D01*
X142932024Y-91997078D01*
X142957983Y-91994051D01*
X142962362Y-91993618D01*
X142971147Y-91992903D01*
X143035105Y-91987702D01*
X143042068Y-91985446D01*
X143047956Y-91984270D01*
X143053873Y-91982872D01*
X143061143Y-91982024D01*
X143129767Y-91957115D01*
X143133895Y-91955698D01*
X143196368Y-91935460D01*
X143196373Y-91935458D01*
X143203330Y-91933204D01*
X143209584Y-91929409D01*
X143215062Y-91926901D01*
X143220481Y-91924187D01*
X143227364Y-91921689D01*
X143288423Y-91881657D01*
X143292112Y-91879330D01*
X143316330Y-91864634D01*
X143349708Y-91844380D01*
X143349712Y-91844377D01*
X143354506Y-91841468D01*
X143363810Y-91833251D01*
X143366394Y-91831030D01*
X143369124Y-91828747D01*
X143375247Y-91824733D01*
X143382969Y-91816582D01*
X143424377Y-91772870D01*
X143426755Y-91770428D01*
X149698839Y-85498344D01*
X149761736Y-85464192D01*
X149824789Y-85450790D01*
X149831442Y-85447828D01*
X149993222Y-85375799D01*
X149993224Y-85375798D01*
X149999252Y-85373114D01*
X150004594Y-85369233D01*
X150148409Y-85264746D01*
X150148411Y-85264744D01*
X150153753Y-85260863D01*
X150281539Y-85118942D01*
X150377026Y-84953554D01*
X150436040Y-84771927D01*
X150456002Y-84582000D01*
X150436040Y-84392073D01*
X150377026Y-84210446D01*
X150281539Y-84045058D01*
X150153753Y-83903137D01*
X150148411Y-83899256D01*
X150148409Y-83899254D01*
X150004594Y-83794767D01*
X150004593Y-83794766D01*
X149999252Y-83790886D01*
X149993224Y-83788202D01*
X149993222Y-83788201D01*
X149830820Y-83715895D01*
X149830819Y-83715895D01*
X149824789Y-83713210D01*
X149731389Y-83693357D01*
X149644446Y-83674876D01*
X149644441Y-83674876D01*
X149637989Y-83673504D01*
X149447015Y-83673504D01*
X149440563Y-83674876D01*
X149440558Y-83674876D01*
X149353615Y-83693357D01*
X149260215Y-83713210D01*
X149254185Y-83715895D01*
X149254184Y-83715895D01*
X149091782Y-83788201D01*
X149091780Y-83788202D01*
X149085752Y-83790886D01*
X149080411Y-83794766D01*
X149080410Y-83794767D01*
X148936595Y-83899254D01*
X148936593Y-83899256D01*
X148931251Y-83903137D01*
X148803465Y-84045058D01*
X148707978Y-84210446D01*
X148705936Y-84216731D01*
X148653121Y-84379279D01*
X148622383Y-84429438D01*
X142608224Y-90443597D01*
X142545912Y-90477623D01*
X142519129Y-90480502D01*
X136483401Y-90480502D01*
X136415280Y-90460500D01*
X136394306Y-90443597D01*
X135271119Y-89320410D01*
X135240381Y-89270251D01*
X135187566Y-89107703D01*
X135185524Y-89101418D01*
X135090037Y-88936030D01*
X134962251Y-88794109D01*
X134956909Y-88790228D01*
X134956907Y-88790226D01*
X134813092Y-88685739D01*
X134813091Y-88685738D01*
X134807750Y-88681858D01*
X134801722Y-88679174D01*
X134801720Y-88679173D01*
X134639318Y-88606867D01*
X134639317Y-88606867D01*
X134633287Y-88604182D01*
X134539887Y-88584329D01*
X134452944Y-88565848D01*
X134452939Y-88565848D01*
X134446487Y-88564476D01*
X134255513Y-88564476D01*
X134249061Y-88565848D01*
X134249056Y-88565848D01*
X134162113Y-88584329D01*
X134068713Y-88604182D01*
X134062683Y-88606867D01*
X134062682Y-88606867D01*
X133900280Y-88679173D01*
X133900278Y-88679174D01*
X133894250Y-88681858D01*
X133888909Y-88685738D01*
X133888908Y-88685739D01*
X133745093Y-88790226D01*
X133745091Y-88790228D01*
X133739749Y-88794109D01*
X133611963Y-88936030D01*
X133516476Y-89101418D01*
X133457462Y-89283045D01*
X133437500Y-89472972D01*
X133457462Y-89662899D01*
X133516476Y-89844526D01*
X133611963Y-90009914D01*
X133739749Y-90151835D01*
X133745091Y-90155716D01*
X133745093Y-90155718D01*
X133854584Y-90235267D01*
X133894250Y-90264086D01*
X133900278Y-90266770D01*
X133900280Y-90266771D01*
X134022296Y-90321096D01*
X134068713Y-90341762D01*
X134131766Y-90355164D01*
X134194663Y-90389316D01*
X134955254Y-91149907D01*
X134989280Y-91212219D01*
X134984215Y-91283034D01*
X134955254Y-91328097D01*
X133861322Y-92422029D01*
X133846911Y-92434414D01*
X133830294Y-92446643D01*
X133825551Y-92452226D01*
X133797382Y-92485383D01*
X133790452Y-92492899D01*
X133784335Y-92499016D01*
X133782062Y-92501889D01*
X133782054Y-92501898D01*
X133765854Y-92522375D01*
X133763063Y-92525779D01*
X133720545Y-92575826D01*
X133715803Y-92581408D01*
X133712475Y-92587926D01*
X133709123Y-92592951D01*
X133705946Y-92598096D01*
X133701406Y-92603834D01*
X133698307Y-92610465D01*
X133670511Y-92669937D01*
X133668580Y-92673887D01*
X133638714Y-92732377D01*
X133635385Y-92738897D01*
X133633646Y-92746004D01*
X133631544Y-92751655D01*
X133629631Y-92757405D01*
X133626533Y-92764034D01*
X133625044Y-92771194D01*
X133625040Y-92771205D01*
X133611661Y-92835525D01*
X133610691Y-92839812D01*
X133594690Y-92905204D01*
X133594689Y-92905210D01*
X133593355Y-92910662D01*
X133593007Y-92916266D01*
X133593007Y-92916268D01*
X133592586Y-92923056D01*
X133592329Y-92926453D01*
X133592013Y-92929993D01*
X133590522Y-92937161D01*
X133590720Y-92944478D01*
X133592454Y-93008548D01*
X133592500Y-93011957D01*
X133592500Y-98977320D01*
X133572498Y-99045441D01*
X133555595Y-99066415D01*
X131730354Y-100891656D01*
X131667457Y-100925808D01*
X131604404Y-100939210D01*
X131598374Y-100941895D01*
X131598373Y-100941895D01*
X131435971Y-101014201D01*
X131435969Y-101014202D01*
X131429941Y-101016886D01*
X131424600Y-101020766D01*
X131424599Y-101020767D01*
X131280784Y-101125254D01*
X131280782Y-101125256D01*
X131275440Y-101129137D01*
X131147654Y-101271058D01*
X131052167Y-101436446D01*
X130993153Y-101618073D01*
X130973191Y-101808000D01*
X130973881Y-101814565D01*
X130992334Y-101990130D01*
X130993153Y-101997927D01*
X131052167Y-102179554D01*
X131147654Y-102344942D01*
X131152072Y-102349849D01*
X131152073Y-102349850D01*
X131271018Y-102481952D01*
X131275440Y-102486863D01*
X131280782Y-102490744D01*
X131280784Y-102490746D01*
X131424599Y-102595233D01*
X131429941Y-102599114D01*
X131435969Y-102601798D01*
X131435971Y-102601799D01*
X131598373Y-102674105D01*
X131604404Y-102676790D01*
X131697804Y-102696643D01*
X131784747Y-102715124D01*
X131784752Y-102715124D01*
X131791204Y-102716496D01*
X131982178Y-102716496D01*
X131988630Y-102715124D01*
X131988635Y-102715124D01*
X132075578Y-102696643D01*
X132168978Y-102676790D01*
X132175009Y-102674105D01*
X132337411Y-102601799D01*
X132337413Y-102601798D01*
X132343441Y-102599114D01*
X132348783Y-102595233D01*
X132492598Y-102490746D01*
X132492600Y-102490744D01*
X132497942Y-102486863D01*
X132502364Y-102481952D01*
X132621309Y-102349850D01*
X132621310Y-102349849D01*
X132625728Y-102344942D01*
X132721215Y-102179554D01*
X132776072Y-102010721D01*
X132806810Y-101960562D01*
X134341405Y-100425967D01*
X134403717Y-100391941D01*
X134474532Y-100397006D01*
X134531368Y-100439553D01*
X134556179Y-100506073D01*
X134556500Y-100515062D01*
X134556500Y-101993214D01*
X135059028Y-101990671D01*
X135059031Y-101990671D01*
X135165939Y-101990130D01*
X139570180Y-101967838D01*
X139586685Y-101968839D01*
X139639732Y-101975573D01*
X139691866Y-101982191D01*
X139723768Y-101990595D01*
X139814138Y-102027626D01*
X139842771Y-102044028D01*
X139920425Y-102103251D01*
X139943817Y-102126525D01*
X139979842Y-102173269D01*
X140003433Y-102203880D01*
X140019975Y-102232419D01*
X140057468Y-102322610D01*
X140066033Y-102354471D01*
X140079915Y-102459575D01*
X140081000Y-102476074D01*
X140081000Y-104345393D01*
X140060998Y-104413514D01*
X140007342Y-104460007D01*
X139937068Y-104470111D01*
X139872488Y-104440618D01*
X139842160Y-104414338D01*
X139827152Y-104404693D01*
X139710725Y-104351523D01*
X139693612Y-104346498D01*
X139562446Y-104327639D01*
X139553505Y-104327000D01*
X139068115Y-104327000D01*
X139052876Y-104331475D01*
X139051671Y-104332865D01*
X139050000Y-104340548D01*
X139050000Y-105730000D01*
X139029998Y-105798121D01*
X138976342Y-105844614D01*
X138924000Y-105856000D01*
X134999115Y-105856000D01*
X134983876Y-105860475D01*
X134982671Y-105861865D01*
X134981000Y-105869548D01*
X134981000Y-106361743D01*
X134981161Y-106366250D01*
X134985740Y-106430269D01*
X134988126Y-106443491D01*
X135024819Y-106568458D01*
X135032233Y-106584692D01*
X135101426Y-106692360D01*
X135113112Y-106705846D01*
X135194466Y-106776339D01*
X135232850Y-106836065D01*
X135232850Y-106907061D01*
X135194467Y-106966788D01*
X135180075Y-106977562D01*
X135165309Y-106987051D01*
X135165306Y-106987053D01*
X135157729Y-106991923D01*
X135151828Y-106998733D01*
X135067918Y-107095569D01*
X135067916Y-107095572D01*
X135062016Y-107102381D01*
X135001300Y-107235330D01*
X135000018Y-107244245D01*
X135000018Y-107244246D01*
X134981139Y-107375552D01*
X134981138Y-107375559D01*
X134980500Y-107380000D01*
X134980500Y-108904000D01*
X134985727Y-108977079D01*
X135026904Y-109117316D01*
X135031775Y-109124895D01*
X135101051Y-109232691D01*
X135101053Y-109232694D01*
X135105923Y-109240271D01*
X135112733Y-109246172D01*
X135194422Y-109316957D01*
X135232805Y-109376684D01*
X135232805Y-109447680D01*
X135194421Y-109507406D01*
X135180029Y-109518179D01*
X135165640Y-109527426D01*
X135152153Y-109539112D01*
X135068338Y-109635840D01*
X135058693Y-109650848D01*
X135005523Y-109767275D01*
X135000498Y-109784388D01*
X134981639Y-109915554D01*
X134981000Y-109924495D01*
X134981000Y-110409885D01*
X134985475Y-110425124D01*
X134986865Y-110426329D01*
X134994548Y-110428000D01*
X138924000Y-110428000D01*
X138992121Y-110448002D01*
X139038614Y-110501658D01*
X139050000Y-110554000D01*
X139050000Y-111938885D01*
X139054475Y-111954124D01*
X139055865Y-111955329D01*
X139063548Y-111957000D01*
X139555743Y-111957000D01*
X139560250Y-111956839D01*
X139624269Y-111952260D01*
X139637491Y-111949874D01*
X139762458Y-111913181D01*
X139778692Y-111905767D01*
X139886880Y-111836240D01*
X139955001Y-111816238D01*
X140023121Y-111836241D01*
X140069614Y-111889897D01*
X140081000Y-111942238D01*
X140081000Y-112140742D01*
X140079922Y-112157188D01*
X140066128Y-112261963D01*
X140057615Y-112293735D01*
X140020361Y-112383674D01*
X140003914Y-112412160D01*
X139944651Y-112489393D01*
X139921393Y-112512651D01*
X139844160Y-112571914D01*
X139815674Y-112588361D01*
X139725735Y-112625615D01*
X139693963Y-112634128D01*
X139589188Y-112647922D01*
X139572742Y-112649000D01*
X130048258Y-112649000D01*
X130031812Y-112647922D01*
X129927037Y-112634128D01*
X129895265Y-112625615D01*
X129805326Y-112588361D01*
X129776840Y-112571914D01*
X129699607Y-112512651D01*
X129676349Y-112489393D01*
X129617086Y-112412160D01*
X129600639Y-112383674D01*
X129563385Y-112293735D01*
X129554872Y-112261963D01*
X129541078Y-112157188D01*
X129540000Y-112140742D01*
X129540000Y-110949548D01*
X134981000Y-110949548D01*
X134981000Y-111441743D01*
X134981161Y-111446250D01*
X134985740Y-111510269D01*
X134988126Y-111523491D01*
X135024819Y-111648458D01*
X135032233Y-111664692D01*
X135101426Y-111772360D01*
X135113112Y-111785847D01*
X135209840Y-111869662D01*
X135224848Y-111879307D01*
X135341275Y-111932477D01*
X135358388Y-111937502D01*
X135489554Y-111956361D01*
X135498495Y-111957000D01*
X135983885Y-111957000D01*
X135999124Y-111952525D01*
X136000329Y-111951135D01*
X136002000Y-111943452D01*
X136002000Y-110954115D01*
X136000659Y-110949548D01*
X136510000Y-110949548D01*
X136510000Y-111938885D01*
X136514475Y-111954124D01*
X136515865Y-111955329D01*
X136523548Y-111957000D01*
X137015743Y-111957000D01*
X137020250Y-111956839D01*
X137084269Y-111952260D01*
X137097491Y-111949874D01*
X137222458Y-111913181D01*
X137238692Y-111905767D01*
X137346360Y-111836574D01*
X137359847Y-111824888D01*
X137430677Y-111743145D01*
X137490403Y-111704761D01*
X137561400Y-111704761D01*
X137621126Y-111743144D01*
X137631900Y-111757537D01*
X137641426Y-111772360D01*
X137653112Y-111785847D01*
X137749840Y-111869662D01*
X137764848Y-111879307D01*
X137881275Y-111932477D01*
X137898388Y-111937502D01*
X138029554Y-111956361D01*
X138038495Y-111957000D01*
X138523885Y-111957000D01*
X138539124Y-111952525D01*
X138540329Y-111951135D01*
X138542000Y-111943452D01*
X138542000Y-110954115D01*
X138537525Y-110938876D01*
X138536135Y-110937671D01*
X138528452Y-110936000D01*
X136528115Y-110936000D01*
X136512876Y-110940475D01*
X136511671Y-110941865D01*
X136510000Y-110949548D01*
X136000659Y-110949548D01*
X135997525Y-110938876D01*
X135996135Y-110937671D01*
X135988452Y-110936000D01*
X134999115Y-110936000D01*
X134983876Y-110940475D01*
X134982671Y-110941865D01*
X134981000Y-110949548D01*
X129540000Y-110949548D01*
X129540000Y-104844495D01*
X134981000Y-104844495D01*
X134981000Y-105329885D01*
X134985475Y-105345124D01*
X134986865Y-105346329D01*
X134994548Y-105348000D01*
X135983885Y-105348000D01*
X135999124Y-105343525D01*
X136000329Y-105342135D01*
X136002000Y-105334452D01*
X136002000Y-104345115D01*
X136000659Y-104340548D01*
X136510000Y-104340548D01*
X136510000Y-105329885D01*
X136514475Y-105345124D01*
X136515865Y-105346329D01*
X136523548Y-105348000D01*
X138523885Y-105348000D01*
X138539124Y-105343525D01*
X138540329Y-105342135D01*
X138542000Y-105334452D01*
X138542000Y-104345115D01*
X138537525Y-104329876D01*
X138536135Y-104328671D01*
X138528452Y-104327000D01*
X138036257Y-104327000D01*
X138031750Y-104327161D01*
X137967731Y-104331740D01*
X137954509Y-104334126D01*
X137829542Y-104370819D01*
X137813308Y-104378233D01*
X137705640Y-104447426D01*
X137692153Y-104459112D01*
X137621323Y-104540855D01*
X137561597Y-104579239D01*
X137490600Y-104579239D01*
X137430874Y-104540856D01*
X137420100Y-104526463D01*
X137410574Y-104511640D01*
X137398888Y-104498153D01*
X137302160Y-104414338D01*
X137287152Y-104404693D01*
X137170725Y-104351523D01*
X137153612Y-104346498D01*
X137022446Y-104327639D01*
X137013505Y-104327000D01*
X136528115Y-104327000D01*
X136512876Y-104331475D01*
X136511671Y-104332865D01*
X136510000Y-104340548D01*
X136000659Y-104340548D01*
X135997525Y-104329876D01*
X135996135Y-104328671D01*
X135988452Y-104327000D01*
X135496257Y-104327000D01*
X135491750Y-104327161D01*
X135427731Y-104331740D01*
X135414509Y-104334126D01*
X135289542Y-104370819D01*
X135273308Y-104378233D01*
X135165640Y-104447426D01*
X135152153Y-104459112D01*
X135068338Y-104555840D01*
X135058693Y-104570848D01*
X135005523Y-104687275D01*
X135000498Y-104704388D01*
X134981639Y-104835554D01*
X134981000Y-104844495D01*
X129540000Y-104844495D01*
X129540000Y-103713526D01*
X129387053Y-103566055D01*
X129387051Y-103566053D01*
X127234604Y-101490677D01*
X126613338Y-100891656D01*
X125889029Y-100193282D01*
X125877700Y-100180790D01*
X125810595Y-100096034D01*
X125793417Y-100067099D01*
X125754472Y-99975448D01*
X125745565Y-99943000D01*
X125731128Y-99835853D01*
X125730000Y-99819028D01*
X125730000Y-98061682D01*
X125750002Y-97993561D01*
X125803658Y-97947068D01*
X125873932Y-97936964D01*
X125908342Y-97947068D01*
X125951330Y-97966700D01*
X125960245Y-97967982D01*
X125960246Y-97967982D01*
X126091552Y-97986861D01*
X126091559Y-97986862D01*
X126096000Y-97987500D01*
X127620000Y-97987500D01*
X127693079Y-97982273D01*
X127771165Y-97959345D01*
X127824670Y-97943635D01*
X127824672Y-97943634D01*
X127833316Y-97941096D01*
X127887951Y-97905984D01*
X127948691Y-97866949D01*
X127948694Y-97866947D01*
X127956271Y-97862077D01*
X127962172Y-97855267D01*
X128046082Y-97758431D01*
X128046084Y-97758428D01*
X128051984Y-97751619D01*
X128071762Y-97708312D01*
X130041424Y-97708312D01*
X130075418Y-97930463D01*
X130077236Y-97935773D01*
X130079928Y-97943635D01*
X130148215Y-98143084D01*
X130257512Y-98339453D01*
X130261067Y-98343796D01*
X130396304Y-98509023D01*
X130396308Y-98509027D01*
X130399857Y-98513363D01*
X130570748Y-98659319D01*
X130575593Y-98662150D01*
X130759938Y-98769873D01*
X130759941Y-98769874D01*
X130764785Y-98772705D01*
X130770055Y-98774634D01*
X130770056Y-98774634D01*
X130970571Y-98848012D01*
X130970574Y-98848013D01*
X130975835Y-98849938D01*
X130981351Y-98850901D01*
X130981356Y-98850902D01*
X131159880Y-98882059D01*
X131197225Y-98888577D01*
X131202831Y-98888548D01*
X131202835Y-98888548D01*
X131306045Y-98888007D01*
X131421959Y-98887400D01*
X131642933Y-98846445D01*
X131853163Y-98767006D01*
X132046002Y-98651594D01*
X132215355Y-98503857D01*
X132273601Y-98431155D01*
X132352365Y-98332843D01*
X132352368Y-98332838D01*
X132355871Y-98328466D01*
X132463106Y-98130963D01*
X132525059Y-97943635D01*
X132531912Y-97922913D01*
X132531912Y-97922912D01*
X132533672Y-97917591D01*
X132565338Y-97695096D01*
X132567070Y-97628940D01*
X132566154Y-97618670D01*
X132553639Y-97478448D01*
X132547092Y-97405092D01*
X132487790Y-97188321D01*
X132391038Y-96985476D01*
X132259895Y-96802971D01*
X132143109Y-96689797D01*
X132102533Y-96650476D01*
X132102530Y-96650474D01*
X132098505Y-96646573D01*
X132033497Y-96602890D01*
X131916623Y-96524353D01*
X131916617Y-96524350D01*
X131911970Y-96521227D01*
X131706187Y-96430894D01*
X131596923Y-96404663D01*
X131493116Y-96379741D01*
X131493115Y-96379741D01*
X131487659Y-96378431D01*
X131400433Y-96373401D01*
X131268902Y-96365817D01*
X131268899Y-96365817D01*
X131263295Y-96365494D01*
X131040185Y-96392493D01*
X130825383Y-96458575D01*
X130625677Y-96561650D01*
X130447381Y-96698462D01*
X130443610Y-96702607D01*
X130443606Y-96702610D01*
X130319956Y-96838500D01*
X130296130Y-96864684D01*
X130176705Y-97055064D01*
X130092881Y-97263584D01*
X130091742Y-97269085D01*
X130049306Y-97474000D01*
X130047307Y-97483651D01*
X130041424Y-97708312D01*
X128071762Y-97708312D01*
X128112700Y-97618670D01*
X128122993Y-97547079D01*
X128132861Y-97478448D01*
X128132862Y-97478441D01*
X128133500Y-97474000D01*
X128133500Y-95950000D01*
X128128273Y-95876921D01*
X128105345Y-95798835D01*
X128089635Y-95745330D01*
X128089634Y-95745328D01*
X128087096Y-95736684D01*
X128045771Y-95672381D01*
X128012949Y-95621309D01*
X128012947Y-95621306D01*
X128008077Y-95613729D01*
X127919967Y-95537380D01*
X127881584Y-95477655D01*
X127881584Y-95406659D01*
X127919968Y-95346932D01*
X127934359Y-95336159D01*
X127956271Y-95322077D01*
X127962172Y-95315267D01*
X128046082Y-95218431D01*
X128046084Y-95218428D01*
X128051984Y-95211619D01*
X128112700Y-95078670D01*
X128122993Y-95007079D01*
X128132861Y-94938448D01*
X128132862Y-94938441D01*
X128133500Y-94934000D01*
X128133500Y-93410000D01*
X128128273Y-93336921D01*
X128087096Y-93196684D01*
X128045771Y-93132381D01*
X128012949Y-93081309D01*
X128012947Y-93081306D01*
X128008077Y-93073729D01*
X127919967Y-92997380D01*
X127881584Y-92937655D01*
X127881584Y-92866659D01*
X127907436Y-92826432D01*
X130041424Y-92826432D01*
X130075418Y-93048583D01*
X130148215Y-93261204D01*
X130257512Y-93457573D01*
X130261067Y-93461916D01*
X130396304Y-93627143D01*
X130396308Y-93627147D01*
X130399857Y-93631483D01*
X130570748Y-93777439D01*
X130575593Y-93780270D01*
X130759938Y-93887993D01*
X130759941Y-93887994D01*
X130764785Y-93890825D01*
X130770055Y-93892754D01*
X130770056Y-93892754D01*
X130970571Y-93966132D01*
X130970574Y-93966133D01*
X130975835Y-93968058D01*
X130981351Y-93969021D01*
X130981356Y-93969022D01*
X131159880Y-94000179D01*
X131197225Y-94006697D01*
X131202831Y-94006668D01*
X131202835Y-94006668D01*
X131306045Y-94006127D01*
X131421959Y-94005520D01*
X131642933Y-93964565D01*
X131853163Y-93885126D01*
X132046002Y-93769714D01*
X132215355Y-93621977D01*
X132273601Y-93549275D01*
X132352365Y-93450963D01*
X132352368Y-93450958D01*
X132355871Y-93446586D01*
X132463106Y-93249083D01*
X132533672Y-93035711D01*
X132543007Y-92970122D01*
X132564827Y-92816807D01*
X132564827Y-92816806D01*
X132565338Y-92813216D01*
X132567070Y-92747060D01*
X132566342Y-92738897D01*
X132554103Y-92601771D01*
X132547092Y-92523212D01*
X132487790Y-92306441D01*
X132391038Y-92103596D01*
X132259895Y-91921091D01*
X132192869Y-91856138D01*
X132102533Y-91768596D01*
X132102530Y-91768594D01*
X132098505Y-91764693D01*
X132033497Y-91721010D01*
X131916623Y-91642473D01*
X131916617Y-91642470D01*
X131911970Y-91639347D01*
X131706187Y-91549014D01*
X131596923Y-91522782D01*
X131493116Y-91497861D01*
X131493115Y-91497861D01*
X131487659Y-91496551D01*
X131400433Y-91491521D01*
X131268902Y-91483937D01*
X131268899Y-91483937D01*
X131263295Y-91483614D01*
X131040185Y-91510613D01*
X130825383Y-91576695D01*
X130625677Y-91679770D01*
X130447381Y-91816582D01*
X130443610Y-91820727D01*
X130443606Y-91820730D01*
X130348136Y-91925650D01*
X130296130Y-91982804D01*
X130176705Y-92173184D01*
X130092881Y-92381704D01*
X130076369Y-92461436D01*
X130049134Y-92592951D01*
X130047307Y-92601771D01*
X130041424Y-92826432D01*
X127907436Y-92826432D01*
X127919968Y-92806932D01*
X127934359Y-92796159D01*
X127956271Y-92782077D01*
X127965692Y-92771205D01*
X128046082Y-92678431D01*
X128046084Y-92678428D01*
X128051984Y-92671619D01*
X128081350Y-92607316D01*
X128108958Y-92546864D01*
X128108958Y-92546863D01*
X128112700Y-92538670D01*
X128114118Y-92528807D01*
X128132861Y-92398448D01*
X128132862Y-92398441D01*
X128133500Y-92394000D01*
X128133500Y-90870000D01*
X128128273Y-90796921D01*
X128087096Y-90656684D01*
X128045771Y-90592381D01*
X128012949Y-90541309D01*
X128012947Y-90541306D01*
X128008077Y-90533729D01*
X127919967Y-90457380D01*
X127881584Y-90397655D01*
X127881584Y-90326659D01*
X127919968Y-90266932D01*
X127934359Y-90256159D01*
X127956271Y-90242077D01*
X127962172Y-90235267D01*
X128046082Y-90138431D01*
X128046084Y-90138428D01*
X128051984Y-90131619D01*
X128112700Y-89998670D01*
X128122993Y-89927079D01*
X128132861Y-89858448D01*
X128132862Y-89858441D01*
X128133500Y-89854000D01*
X128133500Y-88330000D01*
X128128273Y-88256921D01*
X128087096Y-88116684D01*
X128045771Y-88052381D01*
X128012949Y-88001309D01*
X128012947Y-88001306D01*
X128008077Y-87993729D01*
X127919967Y-87917380D01*
X127881584Y-87857655D01*
X127881584Y-87786659D01*
X127919968Y-87726932D01*
X127934359Y-87716159D01*
X127956271Y-87702077D01*
X127962172Y-87695267D01*
X128046082Y-87598431D01*
X128046084Y-87598428D01*
X128051984Y-87591619D01*
X128112700Y-87458670D01*
X128122993Y-87387079D01*
X128132861Y-87318448D01*
X128132862Y-87318441D01*
X128133500Y-87314000D01*
X128133500Y-85790000D01*
X128128273Y-85716921D01*
X128087096Y-85576684D01*
X128036750Y-85498344D01*
X128012949Y-85461309D01*
X128012947Y-85461306D01*
X128008077Y-85453729D01*
X128001267Y-85447828D01*
X127904431Y-85363918D01*
X127904428Y-85363916D01*
X127897619Y-85358016D01*
X127764670Y-85297300D01*
X127755755Y-85296018D01*
X127755754Y-85296018D01*
X127624448Y-85277139D01*
X127624441Y-85277138D01*
X127620000Y-85276500D01*
X126358239Y-85276500D01*
X126290118Y-85256498D01*
X126243625Y-85202842D01*
X126233521Y-85132568D01*
X126266897Y-85063709D01*
X129399717Y-81766595D01*
X129399722Y-81766589D01*
X129402469Y-81763698D01*
X129402470Y-81763696D01*
X129540000Y-81618954D01*
X129540000Y-76900000D01*
X130218000Y-76900000D01*
X130218000Y-78424000D01*
X130223227Y-78497079D01*
X130264404Y-78637316D01*
X130269275Y-78644895D01*
X130338551Y-78752691D01*
X130338553Y-78752694D01*
X130343423Y-78760271D01*
X130419462Y-78826159D01*
X130431533Y-78836619D01*
X130469916Y-78896345D01*
X130469916Y-78967341D01*
X130431532Y-79027068D01*
X130417142Y-79037840D01*
X130395229Y-79051923D01*
X130389328Y-79058733D01*
X130305418Y-79155569D01*
X130305416Y-79155572D01*
X130299516Y-79162381D01*
X130238800Y-79295330D01*
X130237518Y-79304245D01*
X130237518Y-79304246D01*
X130218639Y-79435552D01*
X130218638Y-79435559D01*
X130218000Y-79440000D01*
X130218000Y-80964000D01*
X130223227Y-81037079D01*
X130264404Y-81177316D01*
X130269275Y-81184895D01*
X130338551Y-81292691D01*
X130338553Y-81292694D01*
X130343423Y-81300271D01*
X130350233Y-81306172D01*
X130447069Y-81390082D01*
X130447072Y-81390084D01*
X130453881Y-81395984D01*
X130462079Y-81399728D01*
X130575352Y-81451458D01*
X130586830Y-81456700D01*
X130595745Y-81457982D01*
X130595746Y-81457982D01*
X130727052Y-81476861D01*
X130727059Y-81476862D01*
X130731500Y-81477500D01*
X132255500Y-81477500D01*
X132328579Y-81472273D01*
X132406665Y-81449345D01*
X132460170Y-81433635D01*
X132460172Y-81433634D01*
X132468816Y-81431096D01*
X132535622Y-81388162D01*
X132584191Y-81356949D01*
X132584194Y-81356947D01*
X132591771Y-81352077D01*
X132668120Y-81263967D01*
X132727845Y-81225584D01*
X132798841Y-81225584D01*
X132858568Y-81263968D01*
X132869340Y-81278358D01*
X132883423Y-81300271D01*
X132890233Y-81306172D01*
X132987069Y-81390082D01*
X132987072Y-81390084D01*
X132993881Y-81395984D01*
X133002079Y-81399728D01*
X133115352Y-81451458D01*
X133126830Y-81456700D01*
X133135745Y-81457982D01*
X133135746Y-81457982D01*
X133267052Y-81476861D01*
X133267059Y-81476862D01*
X133271500Y-81477500D01*
X134795500Y-81477500D01*
X134868579Y-81472273D01*
X134946665Y-81449345D01*
X135000170Y-81433635D01*
X135000172Y-81433634D01*
X135008816Y-81431096D01*
X135075622Y-81388162D01*
X135124191Y-81356949D01*
X135124194Y-81356947D01*
X135131771Y-81352077D01*
X135208120Y-81263967D01*
X135267845Y-81225584D01*
X135338841Y-81225584D01*
X135398568Y-81263968D01*
X135409340Y-81278358D01*
X135423423Y-81300271D01*
X135430233Y-81306172D01*
X135527069Y-81390082D01*
X135527072Y-81390084D01*
X135533881Y-81395984D01*
X135542079Y-81399728D01*
X135655352Y-81451458D01*
X135666830Y-81456700D01*
X135675745Y-81457982D01*
X135675746Y-81457982D01*
X135807052Y-81476861D01*
X135807059Y-81476862D01*
X135811500Y-81477500D01*
X137335500Y-81477500D01*
X137408579Y-81472273D01*
X137486665Y-81449345D01*
X137540170Y-81433635D01*
X137540172Y-81433634D01*
X137548816Y-81431096D01*
X137615622Y-81388162D01*
X137664191Y-81356949D01*
X137664194Y-81356947D01*
X137671771Y-81352077D01*
X137748120Y-81263967D01*
X137807845Y-81225584D01*
X137878841Y-81225584D01*
X137938568Y-81263968D01*
X137949340Y-81278358D01*
X137963423Y-81300271D01*
X137970233Y-81306172D01*
X138067069Y-81390082D01*
X138067072Y-81390084D01*
X138073881Y-81395984D01*
X138082079Y-81399728D01*
X138195352Y-81451458D01*
X138206830Y-81456700D01*
X138215745Y-81457982D01*
X138215746Y-81457982D01*
X138347052Y-81476861D01*
X138347059Y-81476862D01*
X138351500Y-81477500D01*
X139875500Y-81477500D01*
X139948579Y-81472273D01*
X140026665Y-81449345D01*
X140080170Y-81433635D01*
X140080172Y-81433634D01*
X140088816Y-81431096D01*
X140155622Y-81388162D01*
X140204191Y-81356949D01*
X140204194Y-81356947D01*
X140211771Y-81352077D01*
X140288120Y-81263967D01*
X140347845Y-81225584D01*
X140418841Y-81225584D01*
X140478568Y-81263968D01*
X140489340Y-81278358D01*
X140503423Y-81300271D01*
X140510233Y-81306172D01*
X140607069Y-81390082D01*
X140607072Y-81390084D01*
X140613881Y-81395984D01*
X140622079Y-81399728D01*
X140735352Y-81451458D01*
X140746830Y-81456700D01*
X140755745Y-81457982D01*
X140755746Y-81457982D01*
X140887052Y-81476861D01*
X140887059Y-81476862D01*
X140891500Y-81477500D01*
X142415500Y-81477500D01*
X142488579Y-81472273D01*
X142566665Y-81449345D01*
X142620170Y-81433635D01*
X142620172Y-81433634D01*
X142628816Y-81431096D01*
X142695622Y-81388162D01*
X142744191Y-81356949D01*
X142744194Y-81356947D01*
X142751771Y-81352077D01*
X142837285Y-81253389D01*
X142897011Y-81215006D01*
X142968008Y-81215006D01*
X143027734Y-81253390D01*
X143038505Y-81267779D01*
X143058423Y-81298771D01*
X143065233Y-81304672D01*
X143162069Y-81388582D01*
X143162072Y-81388584D01*
X143168881Y-81394484D01*
X143301830Y-81455200D01*
X143310745Y-81456482D01*
X143310746Y-81456482D01*
X143442052Y-81475361D01*
X143442059Y-81475362D01*
X143446500Y-81476000D01*
X144359129Y-81476000D01*
X144427250Y-81496002D01*
X144448224Y-81512905D01*
X146228997Y-83293678D01*
X146241382Y-83308089D01*
X146253611Y-83324706D01*
X146259194Y-83329449D01*
X146292351Y-83357618D01*
X146299867Y-83364548D01*
X146305984Y-83370665D01*
X146308857Y-83372938D01*
X146308866Y-83372946D01*
X146329343Y-83389146D01*
X146332747Y-83391937D01*
X146382794Y-83434455D01*
X146388376Y-83439197D01*
X146394894Y-83442525D01*
X146399919Y-83445877D01*
X146405064Y-83449054D01*
X146410802Y-83453594D01*
X146417433Y-83456693D01*
X146476905Y-83484489D01*
X146480855Y-83486420D01*
X146539345Y-83516286D01*
X146539347Y-83516287D01*
X146545865Y-83519615D01*
X146552972Y-83521354D01*
X146558623Y-83523456D01*
X146564373Y-83525369D01*
X146571002Y-83528467D01*
X146578162Y-83529956D01*
X146578173Y-83529960D01*
X146642493Y-83543339D01*
X146646780Y-83544309D01*
X146712172Y-83560310D01*
X146712178Y-83560311D01*
X146717630Y-83561645D01*
X146723234Y-83561993D01*
X146723236Y-83561993D01*
X146730024Y-83562414D01*
X146733421Y-83562671D01*
X146736961Y-83562987D01*
X146744129Y-83564478D01*
X146751446Y-83564280D01*
X146799539Y-83562978D01*
X146815517Y-83562546D01*
X146818925Y-83562500D01*
X147158420Y-83562500D01*
X147232479Y-83586562D01*
X147244250Y-83595114D01*
X147250277Y-83597797D01*
X147250278Y-83597798D01*
X147250281Y-83597799D01*
X147418713Y-83672790D01*
X147512113Y-83692643D01*
X147599056Y-83711124D01*
X147599061Y-83711124D01*
X147605513Y-83712496D01*
X147796487Y-83712496D01*
X147802939Y-83711124D01*
X147802944Y-83711124D01*
X147889887Y-83692643D01*
X147983287Y-83672790D01*
X147989318Y-83670105D01*
X148151720Y-83597799D01*
X148151722Y-83597798D01*
X148157750Y-83595114D01*
X148202404Y-83562671D01*
X148306907Y-83486746D01*
X148306909Y-83486744D01*
X148312251Y-83482863D01*
X148394121Y-83391937D01*
X148435618Y-83345850D01*
X148435619Y-83345849D01*
X148440037Y-83340942D01*
X148535524Y-83175554D01*
X148594538Y-82993927D01*
X148614500Y-82804000D01*
X148594538Y-82614073D01*
X148535524Y-82432446D01*
X148440037Y-82267058D01*
X148312251Y-82125137D01*
X148306909Y-82121256D01*
X148306907Y-82121254D01*
X148163092Y-82016767D01*
X148163091Y-82016766D01*
X148157750Y-82012886D01*
X148151722Y-82010202D01*
X148151720Y-82010201D01*
X147989318Y-81937895D01*
X147989317Y-81937895D01*
X147983287Y-81935210D01*
X147889887Y-81915357D01*
X147802944Y-81896876D01*
X147802939Y-81896876D01*
X147796487Y-81895504D01*
X147605513Y-81895504D01*
X147599061Y-81896876D01*
X147599056Y-81896876D01*
X147512113Y-81915357D01*
X147418713Y-81935210D01*
X147412683Y-81937895D01*
X147412682Y-81937895D01*
X147250278Y-82010202D01*
X147244250Y-82012886D01*
X147238911Y-82016765D01*
X147233190Y-82020068D01*
X147231661Y-82017419D01*
X147177369Y-82036888D01*
X147108192Y-82020917D01*
X147080881Y-82000200D01*
X146771776Y-81691095D01*
X146737750Y-81628783D01*
X146742815Y-81557968D01*
X146785362Y-81501132D01*
X146851882Y-81476321D01*
X146860871Y-81476000D01*
X147510500Y-81476000D01*
X147583579Y-81470773D01*
X147661665Y-81447845D01*
X147715170Y-81432135D01*
X147715172Y-81432134D01*
X147723816Y-81429596D01*
X147788288Y-81388162D01*
X147839191Y-81355449D01*
X147839194Y-81355447D01*
X147846771Y-81350577D01*
X147853000Y-81343388D01*
X147923457Y-81262078D01*
X147983184Y-81223695D01*
X148054180Y-81223695D01*
X148113906Y-81262079D01*
X148124679Y-81276471D01*
X148133926Y-81290860D01*
X148145612Y-81304347D01*
X148242340Y-81388162D01*
X148257348Y-81397807D01*
X148373775Y-81450977D01*
X148390888Y-81456002D01*
X148522054Y-81474861D01*
X148530995Y-81475500D01*
X149016385Y-81475500D01*
X149031624Y-81471025D01*
X149032829Y-81469635D01*
X149034500Y-81461952D01*
X149034500Y-80468048D01*
X149542500Y-80468048D01*
X149542500Y-81457385D01*
X149546975Y-81472624D01*
X149548365Y-81473829D01*
X149556048Y-81475500D01*
X150048243Y-81475500D01*
X150052750Y-81475339D01*
X150116769Y-81470760D01*
X150129991Y-81468374D01*
X150254958Y-81431681D01*
X150271192Y-81424267D01*
X150378860Y-81355074D01*
X150392347Y-81343388D01*
X150476162Y-81246660D01*
X150485807Y-81231652D01*
X150538977Y-81115225D01*
X150544002Y-81098112D01*
X150562861Y-80966946D01*
X150563500Y-80958005D01*
X150563500Y-80472615D01*
X150559025Y-80457376D01*
X150557635Y-80456171D01*
X150549952Y-80454500D01*
X149560615Y-80454500D01*
X149545376Y-80458975D01*
X149544171Y-80460365D01*
X149542500Y-80468048D01*
X149034500Y-80468048D01*
X149034500Y-77928048D01*
X149542500Y-77928048D01*
X149542500Y-79928385D01*
X149546975Y-79943624D01*
X149548365Y-79944829D01*
X149556048Y-79946500D01*
X150545385Y-79946500D01*
X150560624Y-79942025D01*
X150561829Y-79940635D01*
X150563500Y-79932952D01*
X150563500Y-79440757D01*
X150563339Y-79436250D01*
X150558760Y-79372231D01*
X150556374Y-79359009D01*
X150519681Y-79234042D01*
X150512267Y-79217808D01*
X150443074Y-79110140D01*
X150431388Y-79096653D01*
X150349645Y-79025823D01*
X150311261Y-78966097D01*
X150311261Y-78895100D01*
X150349644Y-78835374D01*
X150364037Y-78824600D01*
X150378860Y-78815074D01*
X150392347Y-78803388D01*
X150476162Y-78706660D01*
X150485807Y-78691652D01*
X150538977Y-78575225D01*
X150544002Y-78558112D01*
X150562861Y-78426946D01*
X150563500Y-78418005D01*
X150563500Y-77932615D01*
X150559025Y-77917376D01*
X150557635Y-77916171D01*
X150549952Y-77914500D01*
X149560615Y-77914500D01*
X149545376Y-77918975D01*
X149544171Y-77920365D01*
X149542500Y-77928048D01*
X149034500Y-77928048D01*
X149034500Y-76403615D01*
X149033159Y-76399048D01*
X149542500Y-76399048D01*
X149542500Y-77388385D01*
X149546975Y-77403624D01*
X149548365Y-77404829D01*
X149556048Y-77406500D01*
X150545385Y-77406500D01*
X150560624Y-77402025D01*
X150561829Y-77400635D01*
X150563500Y-77392952D01*
X150563500Y-76900757D01*
X150563339Y-76896250D01*
X150558760Y-76832231D01*
X150556374Y-76819009D01*
X150519681Y-76694042D01*
X150512267Y-76677808D01*
X150443074Y-76570140D01*
X150431388Y-76556653D01*
X150334660Y-76472838D01*
X150319652Y-76463193D01*
X150203225Y-76410023D01*
X150186112Y-76404998D01*
X150054946Y-76386139D01*
X150046005Y-76385500D01*
X149560615Y-76385500D01*
X149545376Y-76389975D01*
X149544171Y-76391365D01*
X149542500Y-76399048D01*
X149033159Y-76399048D01*
X149030025Y-76388376D01*
X149028635Y-76387171D01*
X149020952Y-76385500D01*
X148528757Y-76385500D01*
X148524250Y-76385661D01*
X148460231Y-76390240D01*
X148447009Y-76392626D01*
X148322042Y-76429319D01*
X148305808Y-76436733D01*
X148198140Y-76505926D01*
X148184654Y-76517612D01*
X148114161Y-76598966D01*
X148054435Y-76637350D01*
X147983439Y-76637350D01*
X147923712Y-76598967D01*
X147912938Y-76584575D01*
X147903449Y-76569809D01*
X147903447Y-76569806D01*
X147898577Y-76562229D01*
X147848945Y-76519222D01*
X147794931Y-76472418D01*
X147794928Y-76472416D01*
X147788119Y-76466516D01*
X147705675Y-76428865D01*
X147663364Y-76409542D01*
X147663363Y-76409542D01*
X147655170Y-76405800D01*
X147646255Y-76404518D01*
X147646254Y-76404518D01*
X147514948Y-76385639D01*
X147514941Y-76385638D01*
X147510500Y-76385000D01*
X145986500Y-76385000D01*
X145913421Y-76390227D01*
X145847640Y-76409542D01*
X145781830Y-76428865D01*
X145781828Y-76428866D01*
X145773184Y-76431404D01*
X145765605Y-76436275D01*
X145657809Y-76505551D01*
X145657806Y-76505553D01*
X145650229Y-76510423D01*
X145598771Y-76569809D01*
X145573881Y-76598533D01*
X145514155Y-76636916D01*
X145443159Y-76636916D01*
X145383432Y-76598532D01*
X145372659Y-76584141D01*
X145363448Y-76569809D01*
X145358577Y-76562229D01*
X145308945Y-76519222D01*
X145254931Y-76472418D01*
X145254928Y-76472416D01*
X145248119Y-76466516D01*
X145165675Y-76428865D01*
X145123364Y-76409542D01*
X145123363Y-76409542D01*
X145115170Y-76405800D01*
X145106255Y-76404518D01*
X145106254Y-76404518D01*
X144974948Y-76385639D01*
X144974941Y-76385638D01*
X144970500Y-76385000D01*
X143446500Y-76385000D01*
X143373421Y-76390227D01*
X143307640Y-76409542D01*
X143241830Y-76428865D01*
X143241828Y-76428866D01*
X143233184Y-76431404D01*
X143225605Y-76436275D01*
X143117809Y-76505551D01*
X143117806Y-76505553D01*
X143110229Y-76510423D01*
X143104328Y-76517233D01*
X143024715Y-76609111D01*
X142964989Y-76647494D01*
X142893992Y-76647494D01*
X142834266Y-76609110D01*
X142823493Y-76594719D01*
X142808448Y-76571309D01*
X142803577Y-76563729D01*
X142752214Y-76519222D01*
X142699931Y-76473918D01*
X142699928Y-76473916D01*
X142693119Y-76468016D01*
X142560170Y-76407300D01*
X142551255Y-76406018D01*
X142551254Y-76406018D01*
X142419948Y-76387139D01*
X142419941Y-76387138D01*
X142415500Y-76386500D01*
X140891500Y-76386500D01*
X140818421Y-76391727D01*
X140756110Y-76410023D01*
X140686830Y-76430365D01*
X140686828Y-76430366D01*
X140678184Y-76432904D01*
X140670605Y-76437775D01*
X140562809Y-76507051D01*
X140562806Y-76507053D01*
X140555229Y-76511923D01*
X140479805Y-76598967D01*
X140478881Y-76600033D01*
X140419155Y-76638416D01*
X140348159Y-76638416D01*
X140288432Y-76600032D01*
X140277659Y-76585641D01*
X140268448Y-76571309D01*
X140263577Y-76563729D01*
X140212214Y-76519222D01*
X140159931Y-76473918D01*
X140159928Y-76473916D01*
X140153119Y-76468016D01*
X140020170Y-76407300D01*
X140011255Y-76406018D01*
X140011254Y-76406018D01*
X139879948Y-76387139D01*
X139879941Y-76387138D01*
X139875500Y-76386500D01*
X138351500Y-76386500D01*
X138278421Y-76391727D01*
X138216110Y-76410023D01*
X138146830Y-76430365D01*
X138146828Y-76430366D01*
X138138184Y-76432904D01*
X138130605Y-76437775D01*
X138022809Y-76507051D01*
X138022806Y-76507053D01*
X138015229Y-76511923D01*
X137939805Y-76598967D01*
X137938881Y-76600033D01*
X137879155Y-76638416D01*
X137808159Y-76638416D01*
X137748432Y-76600032D01*
X137737659Y-76585641D01*
X137728448Y-76571309D01*
X137723577Y-76563729D01*
X137672214Y-76519222D01*
X137619931Y-76473918D01*
X137619928Y-76473916D01*
X137613119Y-76468016D01*
X137480170Y-76407300D01*
X137471255Y-76406018D01*
X137471254Y-76406018D01*
X137339948Y-76387139D01*
X137339941Y-76387138D01*
X137335500Y-76386500D01*
X135811500Y-76386500D01*
X135738421Y-76391727D01*
X135676110Y-76410023D01*
X135606830Y-76430365D01*
X135606828Y-76430366D01*
X135598184Y-76432904D01*
X135590605Y-76437775D01*
X135482809Y-76507051D01*
X135482806Y-76507053D01*
X135475229Y-76511923D01*
X135399805Y-76598967D01*
X135398881Y-76600033D01*
X135339155Y-76638416D01*
X135268159Y-76638416D01*
X135208432Y-76600032D01*
X135197659Y-76585641D01*
X135188448Y-76571309D01*
X135183577Y-76563729D01*
X135132214Y-76519222D01*
X135079931Y-76473918D01*
X135079928Y-76473916D01*
X135073119Y-76468016D01*
X134940170Y-76407300D01*
X134931255Y-76406018D01*
X134931254Y-76406018D01*
X134799948Y-76387139D01*
X134799941Y-76387138D01*
X134795500Y-76386500D01*
X133271500Y-76386500D01*
X133198421Y-76391727D01*
X133136110Y-76410023D01*
X133066830Y-76430365D01*
X133066828Y-76430366D01*
X133058184Y-76432904D01*
X133050605Y-76437775D01*
X132942809Y-76507051D01*
X132942806Y-76507053D01*
X132935229Y-76511923D01*
X132859805Y-76598967D01*
X132858881Y-76600033D01*
X132799155Y-76638416D01*
X132728159Y-76638416D01*
X132668432Y-76600032D01*
X132657659Y-76585641D01*
X132648448Y-76571309D01*
X132643577Y-76563729D01*
X132592214Y-76519222D01*
X132539931Y-76473918D01*
X132539928Y-76473916D01*
X132533119Y-76468016D01*
X132400170Y-76407300D01*
X132391255Y-76406018D01*
X132391254Y-76406018D01*
X132259948Y-76387139D01*
X132259941Y-76387138D01*
X132255500Y-76386500D01*
X130731500Y-76386500D01*
X130658421Y-76391727D01*
X130596110Y-76410023D01*
X130526830Y-76430365D01*
X130526828Y-76430366D01*
X130518184Y-76432904D01*
X130510605Y-76437775D01*
X130402809Y-76507051D01*
X130402806Y-76507053D01*
X130395229Y-76511923D01*
X130389328Y-76518733D01*
X130305418Y-76615569D01*
X130305416Y-76615572D01*
X130299516Y-76622381D01*
X130238800Y-76755330D01*
X130237518Y-76764245D01*
X130237518Y-76764246D01*
X130218639Y-76895552D01*
X130218638Y-76895559D01*
X130218000Y-76900000D01*
X129540000Y-76900000D01*
X129540000Y-76517768D01*
X129541078Y-76501320D01*
X129554874Y-76396539D01*
X129563388Y-76364767D01*
X129600645Y-76274824D01*
X129617093Y-76246337D01*
X129676359Y-76169105D01*
X129699620Y-76145846D01*
X129776863Y-76086581D01*
X129805349Y-76070136D01*
X129823033Y-76062812D01*
X129895294Y-76032885D01*
X129927066Y-76024374D01*
X130031848Y-76010587D01*
X130048294Y-76009510D01*
X137729897Y-76010056D01*
G37*
%TD.AperFunction*%
%TD*%
%TA.AperFunction,Conductor*%
%TO.N,GND*%
G36*
X159820121Y-75142002D02*
G01*
X159866614Y-75195658D01*
X159878000Y-75248000D01*
X159878000Y-114112000D01*
X159857998Y-114180121D01*
X159804342Y-114226614D01*
X159752000Y-114238000D01*
X120888000Y-114238000D01*
X120819879Y-114217998D01*
X120773386Y-114164342D01*
X120762000Y-114112000D01*
X120762000Y-85790000D01*
X123042500Y-85790000D01*
X123042500Y-87314000D01*
X123047727Y-87387079D01*
X123067068Y-87452948D01*
X123072936Y-87472932D01*
X123088904Y-87527316D01*
X123113426Y-87565472D01*
X123163051Y-87642691D01*
X123163053Y-87642694D01*
X123167923Y-87650271D01*
X123243962Y-87716159D01*
X123256033Y-87726619D01*
X123294416Y-87786345D01*
X123294416Y-87857341D01*
X123256032Y-87917068D01*
X123241642Y-87927840D01*
X123219729Y-87941923D01*
X123213828Y-87948733D01*
X123129918Y-88045569D01*
X123129916Y-88045572D01*
X123124016Y-88052381D01*
X123120272Y-88060579D01*
X123113230Y-88076000D01*
X123063300Y-88185330D01*
X123062018Y-88194245D01*
X123062018Y-88194246D01*
X123043139Y-88325552D01*
X123043138Y-88325559D01*
X123042500Y-88330000D01*
X123042500Y-89854000D01*
X123047727Y-89927079D01*
X123067068Y-89992948D01*
X123072936Y-90012932D01*
X123088904Y-90067316D01*
X123113426Y-90105472D01*
X123163051Y-90182691D01*
X123163053Y-90182694D01*
X123167923Y-90190271D01*
X123243962Y-90256159D01*
X123256033Y-90266619D01*
X123294416Y-90326345D01*
X123294416Y-90397341D01*
X123256032Y-90457068D01*
X123241642Y-90467840D01*
X123219729Y-90481923D01*
X123213828Y-90488733D01*
X123129918Y-90585569D01*
X123129916Y-90585572D01*
X123124016Y-90592381D01*
X123120272Y-90600579D01*
X123113230Y-90616000D01*
X123063300Y-90725330D01*
X123062018Y-90734245D01*
X123062018Y-90734246D01*
X123043139Y-90865552D01*
X123043138Y-90865559D01*
X123042500Y-90870000D01*
X123042500Y-92394000D01*
X123047727Y-92467079D01*
X123067068Y-92532948D01*
X123072936Y-92552932D01*
X123088904Y-92607316D01*
X123113426Y-92645472D01*
X123163051Y-92722691D01*
X123163053Y-92722694D01*
X123167923Y-92730271D01*
X123243962Y-92796159D01*
X123256033Y-92806619D01*
X123294416Y-92866345D01*
X123294416Y-92937341D01*
X123256032Y-92997068D01*
X123241642Y-93007840D01*
X123219729Y-93021923D01*
X123213828Y-93028733D01*
X123129918Y-93125569D01*
X123129916Y-93125572D01*
X123124016Y-93132381D01*
X123120272Y-93140579D01*
X123113230Y-93156000D01*
X123063300Y-93265330D01*
X123062018Y-93274245D01*
X123062018Y-93274246D01*
X123043139Y-93405552D01*
X123043138Y-93405559D01*
X123042500Y-93410000D01*
X123042500Y-94934000D01*
X123047727Y-95007079D01*
X123066997Y-95072706D01*
X123072936Y-95092932D01*
X123088904Y-95147316D01*
X123113426Y-95185472D01*
X123163051Y-95262691D01*
X123163053Y-95262694D01*
X123167923Y-95270271D01*
X123254397Y-95345201D01*
X123256033Y-95346619D01*
X123294416Y-95406345D01*
X123294416Y-95477341D01*
X123256032Y-95537068D01*
X123241642Y-95547840D01*
X123219729Y-95561923D01*
X123213828Y-95568733D01*
X123129918Y-95665569D01*
X123129916Y-95665572D01*
X123124016Y-95672381D01*
X123120272Y-95680579D01*
X123091425Y-95743746D01*
X123063300Y-95805330D01*
X123062018Y-95814245D01*
X123062018Y-95814246D01*
X123043139Y-95945552D01*
X123043138Y-95945559D01*
X123042500Y-95950000D01*
X123042500Y-97474000D01*
X123047727Y-97547079D01*
X123067068Y-97612948D01*
X123072936Y-97632932D01*
X123088904Y-97687316D01*
X123113426Y-97725472D01*
X123163051Y-97802691D01*
X123163053Y-97802694D01*
X123167923Y-97810271D01*
X123174733Y-97816172D01*
X123271569Y-97900082D01*
X123271572Y-97900084D01*
X123278381Y-97905984D01*
X123411330Y-97966700D01*
X123420245Y-97967982D01*
X123420246Y-97967982D01*
X123551552Y-97986861D01*
X123551559Y-97986862D01*
X123556000Y-97987500D01*
X125080000Y-97987500D01*
X125086762Y-97987016D01*
X125087019Y-97986998D01*
X125156392Y-98002094D01*
X125206591Y-98052299D01*
X125222000Y-98112678D01*
X125222000Y-99819028D01*
X125223138Y-99853010D01*
X125223206Y-99854023D01*
X125223207Y-99854045D01*
X125223953Y-99865163D01*
X125224266Y-99869835D01*
X125224370Y-99870867D01*
X125224372Y-99870891D01*
X125227515Y-99902080D01*
X125227677Y-99903688D01*
X125242114Y-100010835D01*
X125255686Y-100077472D01*
X125264593Y-100109920D01*
X125286932Y-100174119D01*
X125325877Y-100265770D01*
X125326829Y-100267649D01*
X125326830Y-100267652D01*
X125347722Y-100308904D01*
X125356597Y-100326429D01*
X125373775Y-100355364D01*
X125412315Y-100411370D01*
X125413629Y-100413029D01*
X125413630Y-100413031D01*
X125463512Y-100476033D01*
X125479420Y-100496126D01*
X125488281Y-100506579D01*
X125495943Y-100515618D01*
X125501400Y-100522056D01*
X125502096Y-100522823D01*
X125502114Y-100522844D01*
X125512021Y-100533768D01*
X125512039Y-100533788D01*
X125512729Y-100534548D01*
X125513451Y-100535292D01*
X125532668Y-100555105D01*
X125536426Y-100558980D01*
X126260735Y-101257354D01*
X126882001Y-101856375D01*
X127621527Y-102569421D01*
X128993457Y-103892228D01*
X129028612Y-103953910D01*
X129032000Y-103982933D01*
X129032000Y-112140742D01*
X129033088Y-112173969D01*
X129034166Y-112190415D01*
X129037424Y-112223496D01*
X129051218Y-112328271D01*
X129064181Y-112393439D01*
X129072694Y-112425211D01*
X129094054Y-112488138D01*
X129131308Y-112578077D01*
X129160702Y-112637681D01*
X129177149Y-112666167D01*
X129214063Y-112721411D01*
X129273326Y-112798644D01*
X129317139Y-112848603D01*
X129340397Y-112871861D01*
X129390356Y-112915674D01*
X129391993Y-112916930D01*
X129465932Y-112973666D01*
X129465941Y-112973673D01*
X129467589Y-112974937D01*
X129522833Y-113011851D01*
X129524619Y-113012882D01*
X129549531Y-113027266D01*
X129549539Y-113027270D01*
X129551319Y-113028298D01*
X129610923Y-113057692D01*
X129700862Y-113094946D01*
X129763789Y-113116306D01*
X129765764Y-113116835D01*
X129765770Y-113116837D01*
X129793570Y-113124286D01*
X129793583Y-113124289D01*
X129795561Y-113124819D01*
X129797569Y-113125218D01*
X129797580Y-113125221D01*
X129858701Y-113137379D01*
X129858713Y-113137381D01*
X129860729Y-113137782D01*
X129941719Y-113148445D01*
X129964447Y-113151437D01*
X129964456Y-113151438D01*
X129965504Y-113151576D01*
X129985923Y-113153587D01*
X129997547Y-113154732D01*
X129997561Y-113154733D01*
X129998585Y-113154834D01*
X129999615Y-113154902D01*
X129999621Y-113154902D01*
X130014008Y-113155845D01*
X130014011Y-113155845D01*
X130015031Y-113155912D01*
X130016025Y-113155945D01*
X130016034Y-113155945D01*
X130047273Y-113156968D01*
X130047288Y-113156968D01*
X130048258Y-113157000D01*
X139572742Y-113157000D01*
X139573712Y-113156968D01*
X139573727Y-113156968D01*
X139604966Y-113155945D01*
X139604975Y-113155945D01*
X139605969Y-113155912D01*
X139606989Y-113155845D01*
X139606992Y-113155845D01*
X139621379Y-113154902D01*
X139621385Y-113154902D01*
X139622415Y-113154834D01*
X139623439Y-113154733D01*
X139623453Y-113154732D01*
X139635077Y-113153587D01*
X139655496Y-113151576D01*
X139656544Y-113151438D01*
X139656553Y-113151437D01*
X139679281Y-113148445D01*
X139760271Y-113137782D01*
X139762287Y-113137381D01*
X139762299Y-113137379D01*
X139823420Y-113125221D01*
X139823431Y-113125218D01*
X139825439Y-113124819D01*
X139827417Y-113124289D01*
X139827430Y-113124286D01*
X139855230Y-113116837D01*
X139855236Y-113116835D01*
X139857211Y-113116306D01*
X139920138Y-113094946D01*
X140010077Y-113057692D01*
X140069681Y-113028298D01*
X140071461Y-113027270D01*
X140071469Y-113027266D01*
X140096381Y-113012882D01*
X140098167Y-113011851D01*
X140153411Y-112974937D01*
X140155059Y-112973673D01*
X140155068Y-112973666D01*
X140229007Y-112916930D01*
X140230644Y-112915674D01*
X140280603Y-112871861D01*
X140303861Y-112848603D01*
X140347674Y-112798644D01*
X140406937Y-112721411D01*
X140443851Y-112666167D01*
X140460298Y-112637681D01*
X140489692Y-112578077D01*
X140526946Y-112488138D01*
X140548306Y-112425211D01*
X140556819Y-112393439D01*
X140569782Y-112328271D01*
X140583576Y-112223496D01*
X140586834Y-112190415D01*
X140587912Y-112173969D01*
X140589000Y-112140742D01*
X140589000Y-112083000D01*
X140609002Y-112014879D01*
X140662658Y-111968386D01*
X140715000Y-111957000D01*
X141063885Y-111957000D01*
X141079124Y-111952525D01*
X141080329Y-111951135D01*
X141082000Y-111943452D01*
X141082000Y-110949548D01*
X141590000Y-110949548D01*
X141590000Y-111938885D01*
X141594475Y-111954124D01*
X141595865Y-111955329D01*
X141603548Y-111957000D01*
X142095743Y-111957000D01*
X142100250Y-111956839D01*
X142164269Y-111952260D01*
X142177491Y-111949874D01*
X142302458Y-111913181D01*
X142318692Y-111905767D01*
X142426360Y-111836574D01*
X142439847Y-111824888D01*
X142510677Y-111743145D01*
X142570403Y-111704761D01*
X142641400Y-111704761D01*
X142701126Y-111743144D01*
X142711900Y-111757537D01*
X142721426Y-111772360D01*
X142733112Y-111785847D01*
X142829840Y-111869662D01*
X142844848Y-111879307D01*
X142961275Y-111932477D01*
X142978388Y-111937502D01*
X143109554Y-111956361D01*
X143118495Y-111957000D01*
X143603885Y-111957000D01*
X143619124Y-111952525D01*
X143620329Y-111951135D01*
X143622000Y-111943452D01*
X143622000Y-110954115D01*
X143620659Y-110949548D01*
X144130000Y-110949548D01*
X144130000Y-111938885D01*
X144134475Y-111954124D01*
X144135865Y-111955329D01*
X144143548Y-111957000D01*
X144635743Y-111957000D01*
X144640250Y-111956839D01*
X144704269Y-111952260D01*
X144717491Y-111949874D01*
X144842458Y-111913181D01*
X144858692Y-111905767D01*
X144966360Y-111836574D01*
X144979847Y-111824888D01*
X145063662Y-111728160D01*
X145073307Y-111713152D01*
X145126477Y-111596725D01*
X145131502Y-111579612D01*
X145150361Y-111448446D01*
X145151000Y-111439505D01*
X145151000Y-110954115D01*
X145146525Y-110938876D01*
X145145135Y-110937671D01*
X145137452Y-110936000D01*
X144148115Y-110936000D01*
X144132876Y-110940475D01*
X144131671Y-110941865D01*
X144130000Y-110949548D01*
X143620659Y-110949548D01*
X143617525Y-110938876D01*
X143616135Y-110937671D01*
X143608452Y-110936000D01*
X141608115Y-110936000D01*
X141592876Y-110940475D01*
X141591671Y-110941865D01*
X141590000Y-110949548D01*
X141082000Y-110949548D01*
X141082000Y-110554000D01*
X141102002Y-110485879D01*
X141155658Y-110439386D01*
X141208000Y-110428000D01*
X145132885Y-110428000D01*
X145148124Y-110423525D01*
X145149329Y-110422135D01*
X145151000Y-110414452D01*
X145151000Y-109922257D01*
X145150839Y-109917750D01*
X145146260Y-109853731D01*
X145143874Y-109840509D01*
X145107181Y-109715542D01*
X145099767Y-109699308D01*
X145030574Y-109591640D01*
X145018888Y-109578154D01*
X144937534Y-109507661D01*
X144899150Y-109447935D01*
X144899150Y-109376939D01*
X144937533Y-109317212D01*
X144951925Y-109306438D01*
X144966691Y-109296949D01*
X144966694Y-109296947D01*
X144974271Y-109292077D01*
X145014048Y-109246172D01*
X145064082Y-109188431D01*
X145064084Y-109188428D01*
X145069984Y-109181619D01*
X145130700Y-109048670D01*
X145140993Y-108977079D01*
X145150861Y-108908448D01*
X145150862Y-108908441D01*
X145151500Y-108904000D01*
X145151500Y-107380000D01*
X145146273Y-107306921D01*
X145105096Y-107166684D01*
X145063771Y-107102381D01*
X145030949Y-107051309D01*
X145030947Y-107051306D01*
X145026077Y-107043729D01*
X145019267Y-107037828D01*
X144937578Y-106967043D01*
X144899195Y-106907316D01*
X144899195Y-106836320D01*
X144937579Y-106776594D01*
X144951971Y-106765821D01*
X144966360Y-106756574D01*
X144979847Y-106744888D01*
X145063662Y-106648160D01*
X145073307Y-106633152D01*
X145126477Y-106516725D01*
X145131502Y-106499612D01*
X145150361Y-106368446D01*
X145151000Y-106359505D01*
X145151000Y-105874115D01*
X145146525Y-105858876D01*
X145145135Y-105857671D01*
X145137452Y-105856000D01*
X141208000Y-105856000D01*
X141139879Y-105835998D01*
X141093386Y-105782342D01*
X141082000Y-105730000D01*
X141082000Y-104345115D01*
X141080659Y-104340548D01*
X141590000Y-104340548D01*
X141590000Y-105329885D01*
X141594475Y-105345124D01*
X141595865Y-105346329D01*
X141603548Y-105348000D01*
X143603885Y-105348000D01*
X143619124Y-105343525D01*
X143620329Y-105342135D01*
X143622000Y-105334452D01*
X143622000Y-104345115D01*
X143620659Y-104340548D01*
X144130000Y-104340548D01*
X144130000Y-105329885D01*
X144134475Y-105345124D01*
X144135865Y-105346329D01*
X144143548Y-105348000D01*
X145132885Y-105348000D01*
X145148124Y-105343525D01*
X145149329Y-105342135D01*
X145151000Y-105334452D01*
X145151000Y-104842257D01*
X145150839Y-104837750D01*
X145146260Y-104773731D01*
X145143874Y-104760509D01*
X145107181Y-104635542D01*
X145099767Y-104619308D01*
X145030574Y-104511640D01*
X145018888Y-104498153D01*
X144922160Y-104414338D01*
X144907152Y-104404693D01*
X144790725Y-104351523D01*
X144773612Y-104346498D01*
X144642446Y-104327639D01*
X144633505Y-104327000D01*
X144148115Y-104327000D01*
X144132876Y-104331475D01*
X144131671Y-104332865D01*
X144130000Y-104340548D01*
X143620659Y-104340548D01*
X143617525Y-104329876D01*
X143616135Y-104328671D01*
X143608452Y-104327000D01*
X143116257Y-104327000D01*
X143111750Y-104327161D01*
X143047731Y-104331740D01*
X143034509Y-104334126D01*
X142909542Y-104370819D01*
X142893308Y-104378233D01*
X142785640Y-104447426D01*
X142772153Y-104459112D01*
X142701323Y-104540855D01*
X142641597Y-104579239D01*
X142570600Y-104579239D01*
X142510874Y-104540856D01*
X142500100Y-104526463D01*
X142490574Y-104511640D01*
X142478888Y-104498153D01*
X142382160Y-104414338D01*
X142367152Y-104404693D01*
X142250725Y-104351523D01*
X142233612Y-104346498D01*
X142102446Y-104327639D01*
X142093505Y-104327000D01*
X141608115Y-104327000D01*
X141592876Y-104331475D01*
X141591671Y-104332865D01*
X141590000Y-104340548D01*
X141080659Y-104340548D01*
X141077525Y-104329876D01*
X141076135Y-104328671D01*
X141068452Y-104327000D01*
X140715000Y-104327000D01*
X140646879Y-104306998D01*
X140600386Y-104253342D01*
X140589000Y-104201000D01*
X140589000Y-102476074D01*
X140587905Y-102442739D01*
X140586820Y-102426240D01*
X140583541Y-102393057D01*
X140569659Y-102287953D01*
X140563124Y-102255202D01*
X140557020Y-102224613D01*
X140557017Y-102224598D01*
X140556616Y-102222591D01*
X140548051Y-102190730D01*
X140526551Y-102127609D01*
X140489058Y-102037418D01*
X140459482Y-101977669D01*
X140442940Y-101949130D01*
X140405806Y-101893783D01*
X140382215Y-101863172D01*
X140382212Y-101863168D01*
X140346187Y-101816424D01*
X140302118Y-101766408D01*
X140290250Y-101754600D01*
X140280196Y-101744596D01*
X140280187Y-101744587D01*
X140278726Y-101743134D01*
X140228486Y-101699317D01*
X140150832Y-101640094D01*
X140095277Y-101603228D01*
X140066644Y-101586826D01*
X140064801Y-101585925D01*
X140064789Y-101585919D01*
X140008615Y-101558468D01*
X140006757Y-101557560D01*
X139916387Y-101520529D01*
X139914454Y-101519881D01*
X139914442Y-101519877D01*
X139884451Y-101509831D01*
X139853176Y-101499354D01*
X139839663Y-101495794D01*
X139823279Y-101491478D01*
X139823274Y-101491477D01*
X139821274Y-101490950D01*
X139755840Y-101478235D01*
X139703706Y-101471617D01*
X139650659Y-101464883D01*
X139649665Y-101464790D01*
X139649648Y-101464788D01*
X139631092Y-101463050D01*
X139617438Y-101461771D01*
X139616431Y-101461710D01*
X139616419Y-101461709D01*
X139608585Y-101461234D01*
X139600933Y-101460770D01*
X139567609Y-101459845D01*
X139566566Y-101459850D01*
X139566542Y-101459850D01*
X135191138Y-101481996D01*
X135122917Y-101462339D01*
X135076153Y-101408920D01*
X135064500Y-101355998D01*
X135064500Y-100515062D01*
X135064176Y-100496933D01*
X135063855Y-100487944D01*
X135062885Y-100469831D01*
X135037984Y-100355364D01*
X135033108Y-100332950D01*
X135033107Y-100332946D01*
X135032149Y-100328543D01*
X135030575Y-100324324D01*
X135030573Y-100324316D01*
X135015274Y-100283300D01*
X135007338Y-100262023D01*
X134938043Y-100135120D01*
X134905095Y-100102172D01*
X134877105Y-100074181D01*
X134843080Y-100011868D01*
X134848146Y-99941053D01*
X134873273Y-99903411D01*
X134871706Y-99902080D01*
X134904618Y-99863340D01*
X134911548Y-99855824D01*
X134917665Y-99849707D01*
X134919938Y-99846834D01*
X134919946Y-99846825D01*
X134936146Y-99826348D01*
X134938937Y-99822944D01*
X134981455Y-99772897D01*
X134981456Y-99772895D01*
X134986197Y-99767315D01*
X134989525Y-99760797D01*
X134992877Y-99755772D01*
X134996054Y-99750627D01*
X135000594Y-99744889D01*
X135031489Y-99678786D01*
X135033420Y-99674836D01*
X135063286Y-99616346D01*
X135063287Y-99616344D01*
X135066615Y-99609826D01*
X135068354Y-99602719D01*
X135070456Y-99597068D01*
X135072369Y-99591318D01*
X135075467Y-99584689D01*
X135076956Y-99577529D01*
X135076960Y-99577518D01*
X135090339Y-99513198D01*
X135091309Y-99508911D01*
X135107310Y-99443519D01*
X135107311Y-99443513D01*
X135108645Y-99438061D01*
X135109414Y-99425667D01*
X135109671Y-99422270D01*
X135109987Y-99418730D01*
X135111478Y-99411562D01*
X135110564Y-99377801D01*
X135128715Y-99309165D01*
X135181093Y-99261237D01*
X135251068Y-99249235D01*
X135316423Y-99276969D01*
X135342515Y-99306270D01*
X135355427Y-99326361D01*
X135367112Y-99339847D01*
X135463840Y-99423662D01*
X135478848Y-99433307D01*
X135595275Y-99486477D01*
X135612388Y-99491502D01*
X135743554Y-99510361D01*
X135752495Y-99511000D01*
X136237885Y-99511000D01*
X136253124Y-99506525D01*
X136254329Y-99505135D01*
X136256000Y-99497452D01*
X136256000Y-98108000D01*
X136276002Y-98039879D01*
X136329658Y-97993386D01*
X136382000Y-97982000D01*
X136638000Y-97982000D01*
X136706121Y-98002002D01*
X136752614Y-98055658D01*
X136764000Y-98108000D01*
X136764000Y-99492885D01*
X136768475Y-99508124D01*
X136769865Y-99509329D01*
X136777548Y-99511000D01*
X137269743Y-99511000D01*
X137274250Y-99510839D01*
X137338269Y-99506260D01*
X137351491Y-99503874D01*
X137476458Y-99467181D01*
X137492692Y-99459767D01*
X137600360Y-99390574D01*
X137613846Y-99378888D01*
X137684339Y-99297534D01*
X137744065Y-99259150D01*
X137815061Y-99259150D01*
X137874788Y-99297533D01*
X137885562Y-99311925D01*
X137895051Y-99326691D01*
X137895053Y-99326694D01*
X137899923Y-99334271D01*
X137906733Y-99340172D01*
X138003569Y-99424082D01*
X138003572Y-99424084D01*
X138010381Y-99429984D01*
X138143330Y-99490700D01*
X138152245Y-99491982D01*
X138152246Y-99491982D01*
X138283552Y-99510861D01*
X138283559Y-99510862D01*
X138288000Y-99511500D01*
X139812000Y-99511500D01*
X139885079Y-99506273D01*
X139963165Y-99483345D01*
X140016670Y-99467635D01*
X140016672Y-99467634D01*
X140025316Y-99465096D01*
X140079951Y-99429984D01*
X140140691Y-99390949D01*
X140140694Y-99390947D01*
X140148271Y-99386077D01*
X140224620Y-99297967D01*
X140284345Y-99259584D01*
X140355341Y-99259584D01*
X140415068Y-99297968D01*
X140425840Y-99312358D01*
X140439923Y-99334271D01*
X140446733Y-99340172D01*
X140543569Y-99424082D01*
X140543572Y-99424084D01*
X140550381Y-99429984D01*
X140683330Y-99490700D01*
X140692245Y-99491982D01*
X140692246Y-99491982D01*
X140823552Y-99510861D01*
X140823559Y-99510862D01*
X140828000Y-99511500D01*
X142352000Y-99511500D01*
X142425079Y-99506273D01*
X142503165Y-99483345D01*
X142556670Y-99467635D01*
X142556672Y-99467634D01*
X142565316Y-99465096D01*
X142619951Y-99429984D01*
X142680691Y-99390949D01*
X142680694Y-99390947D01*
X142688271Y-99386077D01*
X142729518Y-99338476D01*
X142778082Y-99282431D01*
X142778084Y-99282428D01*
X142783984Y-99275619D01*
X142844700Y-99142670D01*
X142854993Y-99071079D01*
X142864861Y-99002448D01*
X142864862Y-99002441D01*
X142865500Y-98998000D01*
X142865500Y-97474000D01*
X142860273Y-97400921D01*
X142819096Y-97260684D01*
X142790060Y-97215503D01*
X142744949Y-97145309D01*
X142744947Y-97145306D01*
X142740077Y-97137729D01*
X142696831Y-97100256D01*
X142658448Y-97040530D01*
X142658448Y-96969533D01*
X142690332Y-96915853D01*
X143468638Y-96139000D01*
X144628500Y-96139000D01*
X144648462Y-96328927D01*
X144707476Y-96510554D01*
X144802963Y-96675942D01*
X144807381Y-96680849D01*
X144807382Y-96680850D01*
X144912414Y-96797500D01*
X144930749Y-96817863D01*
X144936091Y-96821744D01*
X144936093Y-96821746D01*
X145065621Y-96915853D01*
X145085250Y-96930114D01*
X145091278Y-96932798D01*
X145091280Y-96932799D01*
X145173786Y-96969533D01*
X145259713Y-97007790D01*
X145353113Y-97027643D01*
X145440056Y-97046124D01*
X145440061Y-97046124D01*
X145446513Y-97047496D01*
X145637487Y-97047496D01*
X145643939Y-97046124D01*
X145643944Y-97046124D01*
X145730887Y-97027643D01*
X145824287Y-97007790D01*
X145910214Y-96969533D01*
X145992720Y-96932799D01*
X145992722Y-96932798D01*
X145998750Y-96930114D01*
X146148157Y-96821564D01*
X146222218Y-96797500D01*
X150465420Y-96797500D01*
X150475484Y-96797974D01*
X150482559Y-96799556D01*
X150546011Y-96797562D01*
X150549969Y-96797500D01*
X150584579Y-96797500D01*
X150588510Y-96797003D01*
X150588516Y-96797003D01*
X150590805Y-96796714D01*
X150602630Y-96795783D01*
X150639114Y-96794636D01*
X150648794Y-96794332D01*
X150656410Y-96792119D01*
X150656412Y-96792119D01*
X150669386Y-96788350D01*
X150688745Y-96784341D01*
X150702141Y-96782649D01*
X150702144Y-96782648D01*
X150710006Y-96781655D01*
X150717372Y-96778738D01*
X150717374Y-96778738D01*
X150752933Y-96764659D01*
X150764164Y-96760814D01*
X150800895Y-96750143D01*
X150800897Y-96750142D01*
X150808508Y-96747931D01*
X150826964Y-96737016D01*
X150844713Y-96728320D01*
X150864644Y-96720429D01*
X150887936Y-96703506D01*
X150902002Y-96693287D01*
X150911923Y-96686770D01*
X150951663Y-96663268D01*
X150954435Y-96660825D01*
X150968021Y-96647239D01*
X150983048Y-96634404D01*
X150999197Y-96622671D01*
X151004251Y-96616562D01*
X151004253Y-96616560D01*
X151027062Y-96588989D01*
X151035051Y-96580209D01*
X151608858Y-96006401D01*
X151671171Y-95972376D01*
X151697954Y-95969496D01*
X151718487Y-95969496D01*
X151724939Y-95968124D01*
X151724944Y-95968124D01*
X151831133Y-95945552D01*
X151905287Y-95929790D01*
X152024033Y-95876921D01*
X152073720Y-95854799D01*
X152073722Y-95854798D01*
X152079750Y-95852114D01*
X152155421Y-95797136D01*
X152228907Y-95743746D01*
X152228909Y-95743744D01*
X152234251Y-95739863D01*
X152280574Y-95688416D01*
X152357618Y-95602850D01*
X152357619Y-95602849D01*
X152362037Y-95597942D01*
X152451005Y-95443846D01*
X152454220Y-95438277D01*
X152454221Y-95438276D01*
X152457524Y-95432554D01*
X152499602Y-95303052D01*
X152514498Y-95257206D01*
X152514498Y-95257205D01*
X152516538Y-95250927D01*
X152518321Y-95233968D01*
X152535810Y-95067565D01*
X152536500Y-95061000D01*
X152516538Y-94871073D01*
X152457524Y-94689446D01*
X152453370Y-94682250D01*
X152365338Y-94529776D01*
X152362037Y-94524058D01*
X152234251Y-94382137D01*
X152228909Y-94378256D01*
X152228907Y-94378254D01*
X152085092Y-94273767D01*
X152085091Y-94273766D01*
X152079750Y-94269886D01*
X152073722Y-94267202D01*
X152073720Y-94267201D01*
X151911318Y-94194895D01*
X151911317Y-94194895D01*
X151905287Y-94192210D01*
X151811887Y-94172357D01*
X151724944Y-94153876D01*
X151724939Y-94153876D01*
X151718487Y-94152504D01*
X151527513Y-94152504D01*
X151521061Y-94153876D01*
X151521056Y-94153876D01*
X151434113Y-94172357D01*
X151340713Y-94192210D01*
X151334683Y-94194895D01*
X151334682Y-94194895D01*
X151172280Y-94267201D01*
X151172278Y-94267202D01*
X151166250Y-94269886D01*
X151160909Y-94273766D01*
X151160908Y-94273767D01*
X151017093Y-94378254D01*
X151017091Y-94378256D01*
X151011749Y-94382137D01*
X150883963Y-94524058D01*
X150880662Y-94529776D01*
X150792631Y-94682250D01*
X150788476Y-94689446D01*
X150729462Y-94871073D01*
X150716505Y-94994359D01*
X150716250Y-94996781D01*
X150689237Y-95062438D01*
X150680035Y-95072706D01*
X150309146Y-95443595D01*
X150246834Y-95477621D01*
X150220051Y-95480500D01*
X146222218Y-95480500D01*
X146148157Y-95456436D01*
X146004092Y-95351767D01*
X146004091Y-95351766D01*
X145998750Y-95347886D01*
X145992722Y-95345202D01*
X145992720Y-95345201D01*
X145830318Y-95272895D01*
X145830317Y-95272895D01*
X145824287Y-95270210D01*
X145730887Y-95250357D01*
X145643944Y-95231876D01*
X145643939Y-95231876D01*
X145637487Y-95230504D01*
X145446513Y-95230504D01*
X145440061Y-95231876D01*
X145440056Y-95231876D01*
X145353113Y-95250357D01*
X145259713Y-95270210D01*
X145253683Y-95272895D01*
X145253682Y-95272895D01*
X145091280Y-95345201D01*
X145091278Y-95345202D01*
X145085250Y-95347886D01*
X145079909Y-95351766D01*
X145079908Y-95351767D01*
X144936093Y-95456254D01*
X144936091Y-95456256D01*
X144930749Y-95460137D01*
X144926328Y-95465047D01*
X144926327Y-95465048D01*
X144811818Y-95592224D01*
X144802963Y-95602058D01*
X144707476Y-95767446D01*
X144705434Y-95773731D01*
X144654282Y-95931162D01*
X144648462Y-95949073D01*
X144628500Y-96139000D01*
X143468638Y-96139000D01*
X146839196Y-92774733D01*
X151194244Y-88427814D01*
X151200323Y-88421335D01*
X151216262Y-88404348D01*
X151216280Y-88404328D01*
X151217012Y-88403548D01*
X151227903Y-88391151D01*
X151249043Y-88365435D01*
X151313520Y-88281542D01*
X151314655Y-88279846D01*
X151314665Y-88279832D01*
X151349368Y-88227973D01*
X151349373Y-88227966D01*
X151350522Y-88226248D01*
X151367005Y-88197739D01*
X151396460Y-88138092D01*
X151397247Y-88136195D01*
X151433009Y-88049973D01*
X151433014Y-88049959D01*
X151433799Y-88048067D01*
X151455209Y-87985073D01*
X151463742Y-87953266D01*
X151476736Y-87888023D01*
X151485682Y-87820154D01*
X151490425Y-87784173D01*
X151490428Y-87784149D01*
X151490563Y-87783123D01*
X151491263Y-87776032D01*
X151493727Y-87751038D01*
X151493828Y-87750016D01*
X151494504Y-87739729D01*
X151494839Y-87734617D01*
X151494839Y-87734614D01*
X151494909Y-87733550D01*
X151496000Y-87700271D01*
X151496000Y-85536000D01*
X153522500Y-85536000D01*
X153522500Y-87060000D01*
X153527727Y-87133079D01*
X153568904Y-87273316D01*
X153573775Y-87280895D01*
X153643051Y-87388691D01*
X153643053Y-87388694D01*
X153647923Y-87396271D01*
X153723962Y-87462159D01*
X153736033Y-87472619D01*
X153774416Y-87532345D01*
X153774416Y-87603341D01*
X153736032Y-87663068D01*
X153721642Y-87673840D01*
X153699729Y-87687923D01*
X153693828Y-87694733D01*
X153609918Y-87791569D01*
X153609916Y-87791572D01*
X153604016Y-87798381D01*
X153600272Y-87806579D01*
X153594073Y-87820154D01*
X153543300Y-87931330D01*
X153542018Y-87940245D01*
X153542018Y-87940246D01*
X153523139Y-88071552D01*
X153523138Y-88071559D01*
X153522500Y-88076000D01*
X153522500Y-89600000D01*
X153527727Y-89673079D01*
X153568904Y-89813316D01*
X153573775Y-89820895D01*
X153643051Y-89928691D01*
X153643053Y-89928694D01*
X153647923Y-89936271D01*
X153723962Y-90002159D01*
X153736033Y-90012619D01*
X153774416Y-90072345D01*
X153774416Y-90143341D01*
X153736032Y-90203068D01*
X153721642Y-90213840D01*
X153699729Y-90227923D01*
X153693828Y-90234733D01*
X153609918Y-90331569D01*
X153609916Y-90331572D01*
X153604016Y-90338381D01*
X153600272Y-90346579D01*
X153594073Y-90360154D01*
X153543300Y-90471330D01*
X153542018Y-90480245D01*
X153542018Y-90480246D01*
X153523139Y-90611552D01*
X153523138Y-90611559D01*
X153522500Y-90616000D01*
X153522500Y-92140000D01*
X153527727Y-92213079D01*
X153568904Y-92353316D01*
X153573775Y-92360895D01*
X153643051Y-92468691D01*
X153643053Y-92468694D01*
X153647923Y-92476271D01*
X153723962Y-92542159D01*
X153736033Y-92552619D01*
X153774416Y-92612345D01*
X153774416Y-92683341D01*
X153736032Y-92743068D01*
X153721642Y-92753840D01*
X153699729Y-92767923D01*
X153693828Y-92774733D01*
X153609918Y-92871569D01*
X153609916Y-92871572D01*
X153604016Y-92878381D01*
X153600272Y-92886579D01*
X153594073Y-92900154D01*
X153543300Y-93011330D01*
X153542018Y-93020245D01*
X153542018Y-93020246D01*
X153523139Y-93151552D01*
X153523138Y-93151559D01*
X153522500Y-93156000D01*
X153522500Y-94680000D01*
X153527727Y-94753079D01*
X153529631Y-94759562D01*
X153560530Y-94864795D01*
X153568904Y-94893316D01*
X153573775Y-94900895D01*
X153643051Y-95008691D01*
X153643053Y-95008694D01*
X153647923Y-95016271D01*
X153723962Y-95082159D01*
X153736033Y-95092619D01*
X153774416Y-95152345D01*
X153774416Y-95223341D01*
X153736032Y-95283068D01*
X153721642Y-95293840D01*
X153699729Y-95307923D01*
X153693828Y-95314733D01*
X153609918Y-95411569D01*
X153609916Y-95411572D01*
X153604016Y-95418381D01*
X153600272Y-95426579D01*
X153594073Y-95440154D01*
X153543300Y-95551330D01*
X153542018Y-95560245D01*
X153542018Y-95560246D01*
X153523139Y-95691552D01*
X153523138Y-95691559D01*
X153522500Y-95696000D01*
X153522500Y-97220000D01*
X153527727Y-97293079D01*
X153568904Y-97433316D01*
X153573775Y-97440895D01*
X153643051Y-97548691D01*
X153643053Y-97548694D01*
X153647923Y-97556271D01*
X153723962Y-97622159D01*
X153736033Y-97632619D01*
X153774416Y-97692345D01*
X153774416Y-97763341D01*
X153736032Y-97823068D01*
X153721642Y-97833840D01*
X153699729Y-97847923D01*
X153693828Y-97854733D01*
X153609918Y-97951569D01*
X153609916Y-97951572D01*
X153604016Y-97958381D01*
X153600272Y-97966579D01*
X153591010Y-97986861D01*
X153543300Y-98091330D01*
X153542018Y-98100245D01*
X153542018Y-98100246D01*
X153523139Y-98231552D01*
X153523138Y-98231559D01*
X153522500Y-98236000D01*
X153522500Y-99760000D01*
X153527727Y-99833079D01*
X153568904Y-99973316D01*
X153573775Y-99980895D01*
X153643051Y-100088691D01*
X153643053Y-100088694D01*
X153647923Y-100096271D01*
X153723962Y-100162159D01*
X153736033Y-100172619D01*
X153774416Y-100232345D01*
X153774416Y-100303341D01*
X153736032Y-100363068D01*
X153721642Y-100373840D01*
X153699729Y-100387923D01*
X153693828Y-100394733D01*
X153609918Y-100491569D01*
X153609916Y-100491572D01*
X153604016Y-100498381D01*
X153543300Y-100631330D01*
X153542018Y-100640245D01*
X153542018Y-100640246D01*
X153523139Y-100771552D01*
X153523138Y-100771559D01*
X153522500Y-100776000D01*
X153522500Y-102300000D01*
X153527727Y-102373079D01*
X153568904Y-102513316D01*
X153573775Y-102520895D01*
X153643051Y-102628691D01*
X153643053Y-102628694D01*
X153647923Y-102636271D01*
X153654733Y-102642172D01*
X153751569Y-102726082D01*
X153751572Y-102726084D01*
X153758381Y-102731984D01*
X153891330Y-102792700D01*
X153900245Y-102793982D01*
X153900246Y-102793982D01*
X154031552Y-102812861D01*
X154031559Y-102812862D01*
X154036000Y-102813500D01*
X155560000Y-102813500D01*
X155633079Y-102808273D01*
X155711165Y-102785345D01*
X155764670Y-102769635D01*
X155764672Y-102769634D01*
X155773316Y-102767096D01*
X155837135Y-102726082D01*
X155888691Y-102692949D01*
X155888694Y-102692947D01*
X155896271Y-102688077D01*
X155972620Y-102599967D01*
X156032345Y-102561584D01*
X156103341Y-102561584D01*
X156163068Y-102599968D01*
X156173840Y-102614358D01*
X156187923Y-102636271D01*
X156194733Y-102642172D01*
X156291569Y-102726082D01*
X156291572Y-102726084D01*
X156298381Y-102731984D01*
X156431330Y-102792700D01*
X156440245Y-102793982D01*
X156440246Y-102793982D01*
X156571552Y-102812861D01*
X156571559Y-102812862D01*
X156576000Y-102813500D01*
X158100000Y-102813500D01*
X158173079Y-102808273D01*
X158251165Y-102785345D01*
X158304670Y-102769635D01*
X158304672Y-102769634D01*
X158313316Y-102767096D01*
X158377135Y-102726082D01*
X158428691Y-102692949D01*
X158428694Y-102692947D01*
X158436271Y-102688077D01*
X158476048Y-102642172D01*
X158526082Y-102584431D01*
X158526084Y-102584428D01*
X158531984Y-102577619D01*
X158592700Y-102444670D01*
X158603962Y-102366340D01*
X158612861Y-102304448D01*
X158612862Y-102304441D01*
X158613500Y-102300000D01*
X158613500Y-100776000D01*
X158608273Y-100702921D01*
X158567096Y-100562684D01*
X158525771Y-100498381D01*
X158492949Y-100447309D01*
X158492947Y-100447306D01*
X158488077Y-100439729D01*
X158399967Y-100363380D01*
X158361584Y-100303655D01*
X158361584Y-100232659D01*
X158399968Y-100172932D01*
X158414359Y-100162159D01*
X158436271Y-100148077D01*
X158467607Y-100111914D01*
X158526082Y-100044431D01*
X158526084Y-100044428D01*
X158531984Y-100037619D01*
X158539307Y-100021584D01*
X158588958Y-99912864D01*
X158588958Y-99912863D01*
X158592700Y-99904670D01*
X158597557Y-99870891D01*
X158612861Y-99764448D01*
X158612862Y-99764441D01*
X158613500Y-99760000D01*
X158613500Y-98236000D01*
X158608273Y-98162921D01*
X158567096Y-98022684D01*
X158521393Y-97951569D01*
X158492949Y-97907309D01*
X158492947Y-97907306D01*
X158488077Y-97899729D01*
X158399967Y-97823380D01*
X158361584Y-97763655D01*
X158361584Y-97692659D01*
X158399968Y-97632932D01*
X158414359Y-97622159D01*
X158436271Y-97608077D01*
X158476048Y-97562172D01*
X158526082Y-97504431D01*
X158526084Y-97504428D01*
X158531984Y-97497619D01*
X158541743Y-97476250D01*
X158588958Y-97372864D01*
X158588958Y-97372863D01*
X158592700Y-97364670D01*
X158603962Y-97286340D01*
X158612861Y-97224448D01*
X158612862Y-97224441D01*
X158613500Y-97220000D01*
X158613500Y-95696000D01*
X158608273Y-95622921D01*
X158583156Y-95537381D01*
X158569635Y-95491330D01*
X158569634Y-95491328D01*
X158567096Y-95482684D01*
X158521393Y-95411569D01*
X158492949Y-95367309D01*
X158492947Y-95367306D01*
X158488077Y-95359729D01*
X158399967Y-95283380D01*
X158361584Y-95223655D01*
X158361584Y-95152659D01*
X158399968Y-95092932D01*
X158414359Y-95082159D01*
X158419788Y-95078670D01*
X158436271Y-95068077D01*
X158476048Y-95022172D01*
X158526082Y-94964431D01*
X158526084Y-94964428D01*
X158531984Y-94957619D01*
X158541743Y-94936250D01*
X158588958Y-94832864D01*
X158588958Y-94832863D01*
X158592700Y-94824670D01*
X158603962Y-94746340D01*
X158612861Y-94684448D01*
X158612862Y-94684441D01*
X158613500Y-94680000D01*
X158613500Y-93156000D01*
X158608273Y-93082921D01*
X158583156Y-92997381D01*
X158569635Y-92951330D01*
X158569634Y-92951328D01*
X158567096Y-92942684D01*
X158521393Y-92871569D01*
X158492949Y-92827309D01*
X158492947Y-92827306D01*
X158488077Y-92819729D01*
X158399967Y-92743380D01*
X158361584Y-92683655D01*
X158361584Y-92612659D01*
X158399968Y-92552932D01*
X158414359Y-92542159D01*
X158419788Y-92538670D01*
X158436271Y-92528077D01*
X158476048Y-92482172D01*
X158526082Y-92424431D01*
X158526084Y-92424428D01*
X158531984Y-92417619D01*
X158541743Y-92396250D01*
X158588958Y-92292864D01*
X158588958Y-92292863D01*
X158592700Y-92284670D01*
X158603962Y-92206340D01*
X158612861Y-92144448D01*
X158612862Y-92144441D01*
X158613500Y-92140000D01*
X158613500Y-90616000D01*
X158608273Y-90542921D01*
X158583156Y-90457381D01*
X158569635Y-90411330D01*
X158569634Y-90411328D01*
X158567096Y-90402684D01*
X158521393Y-90331569D01*
X158492949Y-90287309D01*
X158492947Y-90287306D01*
X158488077Y-90279729D01*
X158399967Y-90203380D01*
X158361584Y-90143655D01*
X158361584Y-90072659D01*
X158399968Y-90012932D01*
X158414359Y-90002159D01*
X158419788Y-89998670D01*
X158436271Y-89988077D01*
X158476048Y-89942172D01*
X158526082Y-89884431D01*
X158526084Y-89884428D01*
X158531984Y-89877619D01*
X158541743Y-89856250D01*
X158588958Y-89752864D01*
X158588958Y-89752863D01*
X158592700Y-89744670D01*
X158603962Y-89666340D01*
X158612861Y-89604448D01*
X158612862Y-89604441D01*
X158613500Y-89600000D01*
X158613500Y-88076000D01*
X158608273Y-88002921D01*
X158583156Y-87917381D01*
X158569635Y-87871330D01*
X158569634Y-87871328D01*
X158567096Y-87862684D01*
X158521393Y-87791569D01*
X158492949Y-87747309D01*
X158492947Y-87747306D01*
X158488077Y-87739729D01*
X158399967Y-87663380D01*
X158361584Y-87603655D01*
X158361584Y-87532659D01*
X158399968Y-87472932D01*
X158414359Y-87462159D01*
X158419788Y-87458670D01*
X158436271Y-87448077D01*
X158476048Y-87402172D01*
X158526082Y-87344431D01*
X158526084Y-87344428D01*
X158531984Y-87337619D01*
X158541743Y-87316250D01*
X158588958Y-87212864D01*
X158588958Y-87212863D01*
X158592700Y-87204670D01*
X158603962Y-87126340D01*
X158612861Y-87064448D01*
X158612862Y-87064441D01*
X158613500Y-87060000D01*
X158613500Y-85536000D01*
X158608273Y-85462921D01*
X158567096Y-85322684D01*
X158537415Y-85276500D01*
X158492949Y-85207309D01*
X158492947Y-85207306D01*
X158488077Y-85199729D01*
X158481267Y-85193828D01*
X158384431Y-85109918D01*
X158384428Y-85109916D01*
X158377619Y-85104016D01*
X158311401Y-85073775D01*
X158252864Y-85047042D01*
X158252863Y-85047042D01*
X158244670Y-85043300D01*
X158235755Y-85042018D01*
X158235754Y-85042018D01*
X158104448Y-85023139D01*
X158104441Y-85023138D01*
X158100000Y-85022500D01*
X156576000Y-85022500D01*
X156502921Y-85027727D01*
X156449884Y-85043300D01*
X156371330Y-85066365D01*
X156371328Y-85066366D01*
X156362684Y-85068904D01*
X156355105Y-85073775D01*
X156247309Y-85143051D01*
X156247306Y-85143053D01*
X156239729Y-85147923D01*
X156188271Y-85207309D01*
X156163381Y-85236033D01*
X156103655Y-85274416D01*
X156032659Y-85274416D01*
X155972932Y-85236032D01*
X155962159Y-85221641D01*
X155952948Y-85207309D01*
X155948077Y-85199729D01*
X155941267Y-85193828D01*
X155844431Y-85109918D01*
X155844428Y-85109916D01*
X155837619Y-85104016D01*
X155771401Y-85073775D01*
X155712864Y-85047042D01*
X155712863Y-85047042D01*
X155704670Y-85043300D01*
X155695755Y-85042018D01*
X155695754Y-85042018D01*
X155564448Y-85023139D01*
X155564441Y-85023138D01*
X155560000Y-85022500D01*
X154036000Y-85022500D01*
X153962921Y-85027727D01*
X153909884Y-85043300D01*
X153831330Y-85066365D01*
X153831328Y-85066366D01*
X153822684Y-85068904D01*
X153815105Y-85073775D01*
X153707309Y-85143051D01*
X153707306Y-85143053D01*
X153699729Y-85147923D01*
X153693828Y-85154733D01*
X153609918Y-85251569D01*
X153609916Y-85251572D01*
X153604016Y-85258381D01*
X153600272Y-85266579D01*
X153598401Y-85270677D01*
X153543300Y-85391330D01*
X153542018Y-85400245D01*
X153542018Y-85400246D01*
X153523139Y-85531552D01*
X153523138Y-85531559D01*
X153522500Y-85536000D01*
X151496000Y-85536000D01*
X151496000Y-76519222D01*
X151495953Y-76517768D01*
X151494945Y-76486998D01*
X151494945Y-76486989D01*
X151494912Y-76485995D01*
X151494817Y-76484545D01*
X151493901Y-76470568D01*
X151493900Y-76470555D01*
X151493834Y-76469549D01*
X151490576Y-76436470D01*
X151476783Y-76331700D01*
X151463822Y-76266537D01*
X151455310Y-76234767D01*
X151434002Y-76171964D01*
X151433394Y-76170495D01*
X151433342Y-76170369D01*
X151396699Y-76081902D01*
X151367312Y-76022310D01*
X151350867Y-75993825D01*
X151313952Y-75938574D01*
X151254692Y-75861341D01*
X151210887Y-75811387D01*
X151209448Y-75809948D01*
X151209435Y-75809934D01*
X151199259Y-75799758D01*
X151187632Y-75788130D01*
X151185911Y-75786620D01*
X151139249Y-75745693D01*
X151139247Y-75745691D01*
X151137704Y-75744338D01*
X151135777Y-75742859D01*
X151135745Y-75742834D01*
X151060444Y-75685049D01*
X151005195Y-75648130D01*
X150976714Y-75631685D01*
X150974888Y-75630784D01*
X150974876Y-75630778D01*
X150947673Y-75617362D01*
X150917126Y-75602296D01*
X150891926Y-75591856D01*
X150829106Y-75565831D01*
X150829097Y-75565828D01*
X150827191Y-75565038D01*
X150825235Y-75564374D01*
X150825230Y-75564372D01*
X150766238Y-75544342D01*
X150766225Y-75544338D01*
X150764278Y-75543677D01*
X150762285Y-75543143D01*
X150762279Y-75543141D01*
X150751929Y-75540367D01*
X150732509Y-75535162D01*
X150667337Y-75522194D01*
X150665301Y-75521926D01*
X150665290Y-75521924D01*
X150563602Y-75508529D01*
X150563582Y-75508527D01*
X150562567Y-75508393D01*
X150561541Y-75508292D01*
X150561516Y-75508289D01*
X150530532Y-75505235D01*
X150530507Y-75505233D01*
X150529493Y-75505133D01*
X150528463Y-75505065D01*
X150528446Y-75505064D01*
X150514096Y-75504122D01*
X150514069Y-75504121D01*
X150513053Y-75504054D01*
X150512019Y-75504020D01*
X150512018Y-75504020D01*
X150480865Y-75502997D01*
X150480845Y-75502997D01*
X150479819Y-75502963D01*
X140198931Y-75502232D01*
X137729933Y-75502056D01*
X137729932Y-75502056D01*
X130049335Y-75501510D01*
X130048330Y-75501510D01*
X130029109Y-75502138D01*
X130016130Y-75502562D01*
X130016113Y-75502563D01*
X130015098Y-75502596D01*
X130014084Y-75502662D01*
X130014072Y-75502663D01*
X129999669Y-75503606D01*
X129999645Y-75503608D01*
X129998652Y-75503673D01*
X129997645Y-75503772D01*
X129997622Y-75503774D01*
X129982115Y-75505301D01*
X129965578Y-75506928D01*
X129964572Y-75507060D01*
X129964549Y-75507063D01*
X129862839Y-75520446D01*
X129862833Y-75520447D01*
X129860796Y-75520715D01*
X129842305Y-75524392D01*
X129797644Y-75533272D01*
X129797634Y-75533274D01*
X129795619Y-75533675D01*
X129793627Y-75534209D01*
X129793621Y-75534210D01*
X129765820Y-75541657D01*
X129765807Y-75541661D01*
X129763847Y-75542186D01*
X129728368Y-75554227D01*
X129702860Y-75562884D01*
X129702854Y-75562886D01*
X129700916Y-75563544D01*
X129628659Y-75593469D01*
X129628645Y-75593474D01*
X129612881Y-75600003D01*
X129612873Y-75600006D01*
X129610967Y-75600796D01*
X129551365Y-75630186D01*
X129522879Y-75646631D01*
X129467631Y-75683543D01*
X129390388Y-75742808D01*
X129388851Y-75744156D01*
X129388841Y-75744164D01*
X129345129Y-75782495D01*
X129340425Y-75786620D01*
X129317164Y-75809879D01*
X129273345Y-75859842D01*
X129272100Y-75861464D01*
X129272088Y-75861479D01*
X129215337Y-75935434D01*
X129214079Y-75937074D01*
X129212941Y-75938777D01*
X129212931Y-75938791D01*
X129179340Y-75989061D01*
X129177159Y-75992325D01*
X129160711Y-76020812D01*
X129131317Y-76080415D01*
X129094060Y-76170358D01*
X129072700Y-76233277D01*
X129064186Y-76265049D01*
X129051221Y-76330225D01*
X129037425Y-76435006D01*
X129034166Y-76468097D01*
X129033088Y-76484545D01*
X129033054Y-76485598D01*
X129033052Y-76485629D01*
X129032377Y-76506249D01*
X129032000Y-76517768D01*
X129032000Y-81365782D01*
X129011998Y-81433903D01*
X128997342Y-81452573D01*
X125898629Y-84713791D01*
X125809765Y-84842137D01*
X125776389Y-84910996D01*
X125774967Y-84915640D01*
X125774965Y-84915646D01*
X125734742Y-85047042D01*
X125730692Y-85060273D01*
X125730692Y-85204865D01*
X125731334Y-85209328D01*
X125738387Y-85258381D01*
X125740796Y-85275139D01*
X125744207Y-85286757D01*
X125754009Y-85320141D01*
X125754009Y-85391138D01*
X125728337Y-85438150D01*
X125683381Y-85490032D01*
X125623655Y-85528416D01*
X125552659Y-85528416D01*
X125492933Y-85490032D01*
X125482159Y-85475641D01*
X125472948Y-85461309D01*
X125468077Y-85453729D01*
X125450098Y-85438150D01*
X125364431Y-85363918D01*
X125364428Y-85363916D01*
X125357619Y-85358016D01*
X125274685Y-85320141D01*
X125232864Y-85301042D01*
X125232863Y-85301042D01*
X125224670Y-85297300D01*
X125215755Y-85296018D01*
X125215754Y-85296018D01*
X125084448Y-85277139D01*
X125084441Y-85277138D01*
X125080000Y-85276500D01*
X123556000Y-85276500D01*
X123482921Y-85281727D01*
X123429884Y-85297300D01*
X123351330Y-85320365D01*
X123351328Y-85320366D01*
X123342684Y-85322904D01*
X123335105Y-85327775D01*
X123227309Y-85397051D01*
X123227306Y-85397053D01*
X123219729Y-85401923D01*
X123213828Y-85408733D01*
X123129918Y-85505569D01*
X123129916Y-85505572D01*
X123124016Y-85512381D01*
X123120272Y-85520579D01*
X123113230Y-85536000D01*
X123063300Y-85645330D01*
X123062018Y-85654245D01*
X123062018Y-85654246D01*
X123043139Y-85785552D01*
X123043138Y-85785559D01*
X123042500Y-85790000D01*
X120762000Y-85790000D01*
X120762000Y-75248000D01*
X120782002Y-75179879D01*
X120835658Y-75133386D01*
X120888000Y-75122000D01*
X159752000Y-75122000D01*
X159820121Y-75142002D01*
G37*
%TD.AperFunction*%
%TD*%
M02*
