  0
SECTION
  2
HEADER
  9
$ANGBASE
  50
0.0
  9
$ANGDIR
  70
1
  9
$MEASUREMENT
  70
0
  0
ENDSEC
  0
SECTION
  2
TABLES
  0
TABLE
  2
LTYPE
  70
4
  0
LTYPE
  5
40F
  2
CONTINUOUS
  70
0
  3
Solid line
  72
65
  73
0
  40
0.0
  0
LTYPE
  5
410
  2
DASHDOT
 70
0
  3
Dash Dot ____ _ ____ _
 72
65
 73
4
 40
2.0
 49
1.25
 49
-0.25
 49
0.25
 49
-0.25
  0
LTYPE
  5
411
  2
DASHED
 70
0
  3
Dashed __ __ __ __ __
 72
65
 73
2
 40
0.75
 49
0.5
 49
-0.25
  0
LTYPE
  5
43B
  2
DOTTED
 70
0
  3
Dotted .  .  .  .
 72
65
 73
2
 40
0.2
 49
0.0
 49
-0.2
  0
ENDTAB
  0
TABLE
  2
STYLE
  70
4
  0
STYLE
  2
KICAD
  70
0
  40
0
  41
1
  42
1
  50
0
  71
0
  3
isocp.shx
  0
STYLE
  2
KICADB
  70
0
  40
0
  41
1
  42
1
  50
0
  71
0
  3
isocp.shx
  0
STYLE
  2
KICADI
  70
0
  40
0
  41
1
  42
1
  50
15
  71
0
  3
isocp.shx
  0
STYLE
  2
KICADBI
  70
0
  40
0
  41
1
  42
1
  50
15
  71
0
  3
isocp.shx
  0
ENDTAB
  0
TABLE
  2
LAYER
  70
1
  0
LAYER
  2
BLACK
  70
0
  62
7
  6
CONTINUOUS
  0
ENDTAB
  0
ENDSEC
  0
SECTION
  2
ENTITIES
0
LINE
8
BLACK
6
CONTINUOUS
10
6.31479
20
-2.93467
11
6.31492
21
-2.93465
0
LINE
8
BLACK
6
CONTINUOUS
10
6.31492
20
-2.93465
11
6.31504
21
-2.93472
0
LINE
8
BLACK
6
CONTINUOUS
10
6.31504
20
-2.93472
11
6.31542
21
-2.93478
0
LINE
8
BLACK
6
CONTINUOUS
10
6.31542
20
-2.93478
11
6.31601
21
-2.93528
0
LINE
8
BLACK
6
CONTINUOUS
10
6.31601
20
-2.93528
11
6.31667
21
-2.93566
0
LINE
8
BLACK
6
CONTINUOUS
10
6.31667
20
-2.93566
11
6.31676
21
-2.93591
0
LINE
8
BLACK
6
CONTINUOUS
10
6.31676
20
-2.93591
11
6.31697
21
-2.93608
0
LINE
8
BLACK
6
CONTINUOUS
10
6.31697
20
-2.93608
11
6.3171
21
-2.93684
0
LINE
8
BLACK
6
CONTINUOUS
10
6.3171
20
-2.93684
11
6.31736
21
-2.93756
0
LINE
8
BLACK
6
CONTINUOUS
10
6.31736
20
-2.93756
11
6.31736
21
-4.51756
0
LINE
8
BLACK
6
CONTINUOUS
10
6.31736
20
-4.51756
11
6.31729
21
-4.51794
0
LINE
8
BLACK
6
CONTINUOUS
10
6.31729
20
-4.51794
11
6.31732
21
-4.51807
0
LINE
8
BLACK
6
CONTINUOUS
10
6.31732
20
-4.51807
11
6.31725
21
-4.51819
0
LINE
8
BLACK
6
CONTINUOUS
10
6.31725
20
-4.51819
11
6.31718
21
-4.51857
0
LINE
8
BLACK
6
CONTINUOUS
10
6.31718
20
-4.51857
11
6.31669
21
-4.51916
0
LINE
8
BLACK
6
CONTINUOUS
10
6.31669
20
-4.51916
11
6.31631
21
-4.51982
0
LINE
8
BLACK
6
CONTINUOUS
10
6.31631
20
-4.51982
11
6.31606
21
-4.51991
0
LINE
8
BLACK
6
CONTINUOUS
10
6.31606
20
-4.51991
11
6.31589
21
-4.52012
0
LINE
8
BLACK
6
CONTINUOUS
10
6.31589
20
-4.52012
11
6.31513
21
-4.52025
0
LINE
8
BLACK
6
CONTINUOUS
10
6.31513
20
-4.52025
11
6.31441
21
-4.52051
0
LINE
8
BLACK
6
CONTINUOUS
10
6.31441
20
-4.52051
11
4.73441
21
-4.52051
0
LINE
8
BLACK
6
CONTINUOUS
10
4.73441
20
-4.52051
11
4.73403
21
-4.52044
0
LINE
8
BLACK
6
CONTINUOUS
10
4.73403
20
-4.52044
11
4.7339
21
-4.52047
0
LINE
8
BLACK
6
CONTINUOUS
10
4.7339
20
-4.52047
11
4.73378
21
-4.5204
0
LINE
8
BLACK
6
CONTINUOUS
10
4.73378
20
-4.5204
11
4.7334
21
-4.52033
0
LINE
8
BLACK
6
CONTINUOUS
10
4.7334
20
-4.52033
11
4.73281
21
-4.51984
0
LINE
8
BLACK
6
CONTINUOUS
10
4.73281
20
-4.51984
11
4.73215
21
-4.51946
0
LINE
8
BLACK
6
CONTINUOUS
10
4.73215
20
-4.51946
11
4.73206
21
-4.51921
0
LINE
8
BLACK
6
CONTINUOUS
10
4.73206
20
-4.51921
11
4.73185
21
-4.51904
0
LINE
8
BLACK
6
CONTINUOUS
10
4.73185
20
-4.51904
11
4.73172
21
-4.51828
0
LINE
8
BLACK
6
CONTINUOUS
10
4.73172
20
-4.51828
11
4.73146
21
-4.51756
0
LINE
8
BLACK
6
CONTINUOUS
10
4.73146
20
-4.51756
11
4.73146
21
-2.93756
0
LINE
8
BLACK
6
CONTINUOUS
10
4.73146
20
-2.93756
11
4.73152
21
-2.93718
0
LINE
8
BLACK
6
CONTINUOUS
10
4.73152
20
-2.93718
11
4.7315
21
-2.93705
0
LINE
8
BLACK
6
CONTINUOUS
10
4.7315
20
-2.93705
11
4.73157
21
-2.93693
0
LINE
8
BLACK
6
CONTINUOUS
10
4.73157
20
-2.93693
11
4.73163
21
-2.93655
0
LINE
8
BLACK
6
CONTINUOUS
10
4.73163
20
-2.93655
11
4.73213
21
-2.93596
0
LINE
8
BLACK
6
CONTINUOUS
10
4.73213
20
-2.93596
11
4.73251
21
-2.9353
0
LINE
8
BLACK
6
CONTINUOUS
10
4.73251
20
-2.9353
11
4.73276
21
-2.93521
0
LINE
8
BLACK
6
CONTINUOUS
10
4.73276
20
-2.93521
11
4.73293
21
-2.935
0
LINE
8
BLACK
6
CONTINUOUS
10
4.73293
20
-2.935
11
4.73369
21
-2.93487
0
LINE
8
BLACK
6
CONTINUOUS
10
4.73369
20
-2.93487
11
4.73441
21
-2.93461
0
LINE
8
BLACK
6
CONTINUOUS
10
4.73441
20
-2.93461
11
6.31441
21
-2.93461
0
LINE
8
BLACK
6
CONTINUOUS
10
6.31441
20
-2.93461
11
6.31479
21
-2.93467
0
LINE
8
BLACK
6
CONTINUOUS
10
4.73736
20
-2.94051
11
4.73736
21
-4.51461
0
LINE
8
BLACK
6
CONTINUOUS
10
4.73736
20
-4.51461
11
6.31146
21
-4.51461
0
LINE
8
BLACK
6
CONTINUOUS
10
6.31146
20
-4.51461
11
6.31146
21
-2.94051
0
LINE
8
BLACK
6
CONTINUOUS
10
6.31146
20
-2.94051
11
4.73736
21
-2.94051
  0
ENDSEC
  0
EOF
