  0
SECTION
  2
HEADER
  9
$ANGBASE
  50
0.0
  9
$ANGDIR
  70
1
  9
$MEASUREMENT
  70
0
  0
ENDSEC
  0
SECTION
  2
TABLES
  0
TABLE
  2
LTYPE
  70
4
  0
LTYPE
  5
40F
  2
CONTINUOUS
  70
0
  3
Solid line
  72
65
  73
0
  40
0.0
  0
LTYPE
  5
410
  2
DASHDOT
 70
0
  3
Dash Dot ____ _ ____ _
 72
65
 73
4
 40
2.0
 49
1.25
 49
-0.25
 49
0.25
 49
-0.25
  0
LTYPE
  5
411
  2
DASHED
 70
0
  3
Dashed __ __ __ __ __
 72
65
 73
2
 40
0.75
 49
0.5
 49
-0.25
  0
LTYPE
  5
43B
  2
DOTTED
 70
0
  3
Dotted .  .  .  .
 72
65
 73
2
 40
0.2
 49
0.0
 49
-0.2
  0
ENDTAB
  0
TABLE
  2
STYLE
  70
4
  0
STYLE
  2
KICAD
  70
0
  40
0
  41
1
  42
1
  50
0
  71
0
  3
isocp.shx
  0
STYLE
  2
KICADB
  70
0
  40
0
  41
1
  42
1
  50
0
  71
0
  3
isocp.shx
  0
STYLE
  2
KICADI
  70
0
  40
0
  41
1
  42
1
  50
15
  71
0
  3
isocp.shx
  0
STYLE
  2
KICADBI
  70
0
  40
0
  41
1
  42
1
  50
15
  71
0
  3
isocp.shx
  0
ENDTAB
  0
TABLE
  2
LAYER
  70
1
  0
LAYER
  2
BLACK
  70
0
  62
7
  6
CONTINUOUS
  0
ENDTAB
  0
ENDSEC
  0
SECTION
  2
ENTITIES
0
LINE
8
BLACK
6
CONTINUOUS
10
4.94492
20
-4.21124
11
4.95828
21
-4.21441
0
LINE
8
BLACK
6
CONTINUOUS
10
4.95828
20
-4.21441
11
4.97119
21
-4.21911
0
LINE
8
BLACK
6
CONTINUOUS
10
4.97119
20
-4.21911
11
4.98346
21
-4.22527
0
LINE
8
BLACK
6
CONTINUOUS
10
4.98346
20
-4.22527
11
4.99494
21
-4.23282
0
LINE
8
BLACK
6
CONTINUOUS
10
4.99494
20
-4.23282
11
5.00546
21
-4.24165
0
LINE
8
BLACK
6
CONTINUOUS
10
5.00546
20
-4.24165
11
5.01489
21
-4.25164
0
LINE
8
BLACK
6
CONTINUOUS
10
5.01489
20
-4.25164
11
5.02309
21
-4.26266
0
LINE
8
BLACK
6
CONTINUOUS
10
5.02309
20
-4.26266
11
5.02996
21
-4.27455
0
LINE
8
BLACK
6
CONTINUOUS
10
5.02996
20
-4.27455
11
5.0354
21
-4.28716
0
LINE
8
BLACK
6
CONTINUOUS
10
5.0354
20
-4.28716
11
5.03934
21
-4.30032
0
LINE
8
BLACK
6
CONTINUOUS
10
5.03934
20
-4.30032
11
5.04172
21
-4.31385
0
LINE
8
BLACK
6
CONTINUOUS
10
5.04172
20
-4.31385
11
5.04252
21
-4.32756
0
LINE
8
BLACK
6
CONTINUOUS
10
5.04252
20
-4.32756
11
5.04172
21
-4.34127
0
LINE
8
BLACK
6
CONTINUOUS
10
5.04172
20
-4.34127
11
5.03934
21
-4.3548
0
LINE
8
BLACK
6
CONTINUOUS
10
5.03934
20
-4.3548
11
5.0354
21
-4.36796
0
LINE
8
BLACK
6
CONTINUOUS
10
5.0354
20
-4.36796
11
5.02996
21
-4.38057
0
LINE
8
BLACK
6
CONTINUOUS
10
5.02996
20
-4.38057
11
5.02309
21
-4.39246
0
LINE
8
BLACK
6
CONTINUOUS
10
5.02309
20
-4.39246
11
5.01489
21
-4.40348
0
LINE
8
BLACK
6
CONTINUOUS
10
5.01489
20
-4.40348
11
5.00546
21
-4.41347
0
LINE
8
BLACK
6
CONTINUOUS
10
5.00546
20
-4.41347
11
4.99494
21
-4.4223
0
LINE
8
BLACK
6
CONTINUOUS
10
4.99494
20
-4.4223
11
4.98346
21
-4.42985
0
LINE
8
BLACK
6
CONTINUOUS
10
4.98346
20
-4.42985
11
4.97119
21
-4.43601
0
LINE
8
BLACK
6
CONTINUOUS
10
4.97119
20
-4.43601
11
4.95828
21
-4.44071
0
LINE
8
BLACK
6
CONTINUOUS
10
4.95828
20
-4.44071
11
4.94492
21
-4.44387
0
LINE
8
BLACK
6
CONTINUOUS
10
4.94492
20
-4.44387
11
4.93128
21
-4.44547
0
LINE
8
BLACK
6
CONTINUOUS
10
4.93128
20
-4.44547
11
4.91754
21
-4.44547
0
LINE
8
BLACK
6
CONTINUOUS
10
4.91754
20
-4.44547
11
4.9039
21
-4.44387
0
LINE
8
BLACK
6
CONTINUOUS
10
4.9039
20
-4.44387
11
4.89054
21
-4.44071
0
LINE
8
BLACK
6
CONTINUOUS
10
4.89054
20
-4.44071
11
4.87763
21
-4.43601
0
LINE
8
BLACK
6
CONTINUOUS
10
4.87763
20
-4.43601
11
4.86535
21
-4.42985
0
LINE
8
BLACK
6
CONTINUOUS
10
4.86535
20
-4.42985
11
4.85388
21
-4.4223
0
LINE
8
BLACK
6
CONTINUOUS
10
4.85388
20
-4.4223
11
4.84336
21
-4.41347
0
LINE
8
BLACK
6
CONTINUOUS
10
4.84336
20
-4.41347
11
4.83393
21
-4.40348
0
LINE
8
BLACK
6
CONTINUOUS
10
4.83393
20
-4.40348
11
4.82573
21
-4.39246
0
LINE
8
BLACK
6
CONTINUOUS
10
4.82573
20
-4.39246
11
4.81886
21
-4.38057
0
LINE
8
BLACK
6
CONTINUOUS
10
4.81886
20
-4.38057
11
4.81342
21
-4.36796
0
LINE
8
BLACK
6
CONTINUOUS
10
4.81342
20
-4.36796
11
4.80948
21
-4.3548
0
LINE
8
BLACK
6
CONTINUOUS
10
4.80948
20
-4.3548
11
4.8071
21
-4.34127
0
LINE
8
BLACK
6
CONTINUOUS
10
4.8071
20
-4.34127
11
4.8063
21
-4.32756
0
LINE
8
BLACK
6
CONTINUOUS
10
4.8063
20
-4.32756
11
4.8071
21
-4.31385
0
LINE
8
BLACK
6
CONTINUOUS
10
4.8071
20
-4.31385
11
4.80948
21
-4.30032
0
LINE
8
BLACK
6
CONTINUOUS
10
4.80948
20
-4.30032
11
4.81342
21
-4.28716
0
LINE
8
BLACK
6
CONTINUOUS
10
4.81342
20
-4.28716
11
4.81886
21
-4.27455
0
LINE
8
BLACK
6
CONTINUOUS
10
4.81886
20
-4.27455
11
4.82573
21
-4.26266
0
LINE
8
BLACK
6
CONTINUOUS
10
4.82573
20
-4.26266
11
4.83393
21
-4.25164
0
LINE
8
BLACK
6
CONTINUOUS
10
4.83393
20
-4.25164
11
4.84336
21
-4.24165
0
LINE
8
BLACK
6
CONTINUOUS
10
4.84336
20
-4.24165
11
4.85388
21
-4.23282
0
LINE
8
BLACK
6
CONTINUOUS
10
4.85388
20
-4.23282
11
4.86535
21
-4.22527
0
LINE
8
BLACK
6
CONTINUOUS
10
4.86535
20
-4.22527
11
4.87763
21
-4.21911
0
LINE
8
BLACK
6
CONTINUOUS
10
4.87763
20
-4.21911
11
4.89054
21
-4.21441
0
LINE
8
BLACK
6
CONTINUOUS
10
4.89054
20
-4.21441
11
4.9039
21
-4.21124
0
LINE
8
BLACK
6
CONTINUOUS
10
4.9039
20
-4.21124
11
4.91754
21
-4.20965
0
LINE
8
BLACK
6
CONTINUOUS
10
4.91754
20
-4.20965
11
4.93128
21
-4.20965
0
LINE
8
BLACK
6
CONTINUOUS
10
4.93128
20
-4.20965
11
4.94492
21
-4.21124
0
LINE
8
BLACK
6
CONTINUOUS
10
6.14492
20
-4.21124
11
6.15828
21
-4.21441
0
LINE
8
BLACK
6
CONTINUOUS
10
6.15828
20
-4.21441
11
6.17119
21
-4.21911
0
LINE
8
BLACK
6
CONTINUOUS
10
6.17119
20
-4.21911
11
6.18346
21
-4.22527
0
LINE
8
BLACK
6
CONTINUOUS
10
6.18346
20
-4.22527
11
6.19494
21
-4.23282
0
LINE
8
BLACK
6
CONTINUOUS
10
6.19494
20
-4.23282
11
6.20546
21
-4.24165
0
LINE
8
BLACK
6
CONTINUOUS
10
6.20546
20
-4.24165
11
6.21489
21
-4.25164
0
LINE
8
BLACK
6
CONTINUOUS
10
6.21489
20
-4.25164
11
6.22309
21
-4.26266
0
LINE
8
BLACK
6
CONTINUOUS
10
6.22309
20
-4.26266
11
6.22996
21
-4.27455
0
LINE
8
BLACK
6
CONTINUOUS
10
6.22996
20
-4.27455
11
6.2354
21
-4.28716
0
LINE
8
BLACK
6
CONTINUOUS
10
6.2354
20
-4.28716
11
6.23934
21
-4.30032
0
LINE
8
BLACK
6
CONTINUOUS
10
6.23934
20
-4.30032
11
6.24172
21
-4.31385
0
LINE
8
BLACK
6
CONTINUOUS
10
6.24172
20
-4.31385
11
6.24252
21
-4.32756
0
LINE
8
BLACK
6
CONTINUOUS
10
6.24252
20
-4.32756
11
6.24172
21
-4.34127
0
LINE
8
BLACK
6
CONTINUOUS
10
6.24172
20
-4.34127
11
6.23934
21
-4.3548
0
LINE
8
BLACK
6
CONTINUOUS
10
6.23934
20
-4.3548
11
6.2354
21
-4.36796
0
LINE
8
BLACK
6
CONTINUOUS
10
6.2354
20
-4.36796
11
6.22996
21
-4.38057
0
LINE
8
BLACK
6
CONTINUOUS
10
6.22996
20
-4.38057
11
6.22309
21
-4.39246
0
LINE
8
BLACK
6
CONTINUOUS
10
6.22309
20
-4.39246
11
6.21489
21
-4.40348
0
LINE
8
BLACK
6
CONTINUOUS
10
6.21489
20
-4.40348
11
6.20546
21
-4.41347
0
LINE
8
BLACK
6
CONTINUOUS
10
6.20546
20
-4.41347
11
6.19494
21
-4.4223
0
LINE
8
BLACK
6
CONTINUOUS
10
6.19494
20
-4.4223
11
6.18346
21
-4.42985
0
LINE
8
BLACK
6
CONTINUOUS
10
6.18346
20
-4.42985
11
6.17119
21
-4.43601
0
LINE
8
BLACK
6
CONTINUOUS
10
6.17119
20
-4.43601
11
6.15828
21
-4.44071
0
LINE
8
BLACK
6
CONTINUOUS
10
6.15828
20
-4.44071
11
6.14492
21
-4.44387
0
LINE
8
BLACK
6
CONTINUOUS
10
6.14492
20
-4.44387
11
6.13128
21
-4.44547
0
LINE
8
BLACK
6
CONTINUOUS
10
6.13128
20
-4.44547
11
6.11754
21
-4.44547
0
LINE
8
BLACK
6
CONTINUOUS
10
6.11754
20
-4.44547
11
6.1039
21
-4.44387
0
LINE
8
BLACK
6
CONTINUOUS
10
6.1039
20
-4.44387
11
6.09054
21
-4.44071
0
LINE
8
BLACK
6
CONTINUOUS
10
6.09054
20
-4.44071
11
6.07763
21
-4.43601
0
LINE
8
BLACK
6
CONTINUOUS
10
6.07763
20
-4.43601
11
6.06535
21
-4.42985
0
LINE
8
BLACK
6
CONTINUOUS
10
6.06535
20
-4.42985
11
6.05388
21
-4.4223
0
LINE
8
BLACK
6
CONTINUOUS
10
6.05388
20
-4.4223
11
6.04336
21
-4.41347
0
LINE
8
BLACK
6
CONTINUOUS
10
6.04336
20
-4.41347
11
6.03393
21
-4.40348
0
LINE
8
BLACK
6
CONTINUOUS
10
6.03393
20
-4.40348
11
6.02573
21
-4.39246
0
LINE
8
BLACK
6
CONTINUOUS
10
6.02573
20
-4.39246
11
6.01886
21
-4.38057
0
LINE
8
BLACK
6
CONTINUOUS
10
6.01886
20
-4.38057
11
6.01342
21
-4.36796
0
LINE
8
BLACK
6
CONTINUOUS
10
6.01342
20
-4.36796
11
6.00948
21
-4.3548
0
LINE
8
BLACK
6
CONTINUOUS
10
6.00948
20
-4.3548
11
6.0071
21
-4.34127
0
LINE
8
BLACK
6
CONTINUOUS
10
6.0071
20
-4.34127
11
6.0063
21
-4.32756
0
LINE
8
BLACK
6
CONTINUOUS
10
6.0063
20
-4.32756
11
6.0071
21
-4.31385
0
LINE
8
BLACK
6
CONTINUOUS
10
6.0071
20
-4.31385
11
6.00948
21
-4.30032
0
LINE
8
BLACK
6
CONTINUOUS
10
6.00948
20
-4.30032
11
6.01342
21
-4.28716
0
LINE
8
BLACK
6
CONTINUOUS
10
6.01342
20
-4.28716
11
6.01886
21
-4.27455
0
LINE
8
BLACK
6
CONTINUOUS
10
6.01886
20
-4.27455
11
6.02573
21
-4.26266
0
LINE
8
BLACK
6
CONTINUOUS
10
6.02573
20
-4.26266
11
6.03393
21
-4.25164
0
LINE
8
BLACK
6
CONTINUOUS
10
6.03393
20
-4.25164
11
6.04336
21
-4.24165
0
LINE
8
BLACK
6
CONTINUOUS
10
6.04336
20
-4.24165
11
6.05388
21
-4.23282
0
LINE
8
BLACK
6
CONTINUOUS
10
6.05388
20
-4.23282
11
6.06535
21
-4.22527
0
LINE
8
BLACK
6
CONTINUOUS
10
6.06535
20
-4.22527
11
6.07763
21
-4.21911
0
LINE
8
BLACK
6
CONTINUOUS
10
6.07763
20
-4.21911
11
6.09054
21
-4.21441
0
LINE
8
BLACK
6
CONTINUOUS
10
6.09054
20
-4.21441
11
6.1039
21
-4.21124
0
LINE
8
BLACK
6
CONTINUOUS
10
6.1039
20
-4.21124
11
6.11754
21
-4.20965
0
LINE
8
BLACK
6
CONTINUOUS
10
6.11754
20
-4.20965
11
6.13128
21
-4.20965
0
LINE
8
BLACK
6
CONTINUOUS
10
6.13128
20
-4.20965
11
6.14492
21
-4.21124
0
LINE
8
BLACK
6
CONTINUOUS
10
5.22925
20
-4.25268
11
5.23361
21
-4.2549
0
LINE
8
BLACK
6
CONTINUOUS
10
5.23361
20
-4.2549
11
5.23707
21
-4.25836
0
LINE
8
BLACK
6
CONTINUOUS
10
5.23707
20
-4.25836
11
5.23929
21
-4.26272
0
LINE
8
BLACK
6
CONTINUOUS
10
5.23929
20
-4.26272
11
5.24006
21
-4.26756
0
LINE
8
BLACK
6
CONTINUOUS
10
5.24006
20
-4.26756
11
5.23929
21
-4.27239
0
LINE
8
BLACK
6
CONTINUOUS
10
5.23929
20
-4.27239
11
5.23707
21
-4.27676
0
LINE
8
BLACK
6
CONTINUOUS
10
5.23707
20
-4.27676
11
5.23361
21
-4.28022
0
LINE
8
BLACK
6
CONTINUOUS
10
5.23361
20
-4.28022
11
5.22925
21
-4.28244
0
LINE
8
BLACK
6
CONTINUOUS
10
5.22925
20
-4.28244
11
5.22441
21
-4.28321
0
LINE
8
BLACK
6
CONTINUOUS
10
5.22441
20
-4.28321
11
5.21957
21
-4.28244
0
LINE
8
BLACK
6
CONTINUOUS
10
5.21957
20
-4.28244
11
5.21521
21
-4.28022
0
LINE
8
BLACK
6
CONTINUOUS
10
5.21521
20
-4.28022
11
5.21175
21
-4.27676
0
LINE
8
BLACK
6
CONTINUOUS
10
5.21175
20
-4.27676
11
5.20953
21
-4.27239
0
LINE
8
BLACK
6
CONTINUOUS
10
5.20953
20
-4.27239
11
5.20876
21
-4.26756
0
LINE
8
BLACK
6
CONTINUOUS
10
5.20876
20
-4.26756
11
5.20953
21
-4.26272
0
LINE
8
BLACK
6
CONTINUOUS
10
5.20953
20
-4.26272
11
5.21175
21
-4.25836
0
LINE
8
BLACK
6
CONTINUOUS
10
5.21175
20
-4.25836
11
5.21521
21
-4.2549
0
LINE
8
BLACK
6
CONTINUOUS
10
5.21521
20
-4.2549
11
5.21957
21
-4.25268
0
LINE
8
BLACK
6
CONTINUOUS
10
5.21957
20
-4.25268
11
5.22441
21
-4.25191
0
LINE
8
BLACK
6
CONTINUOUS
10
5.22441
20
-4.25191
11
5.22925
21
-4.25268
0
LINE
8
BLACK
6
CONTINUOUS
10
5.22391
20
-4.26806
11
5.22441
21
-4.26826
0
LINE
8
BLACK
6
CONTINUOUS
10
5.22441
20
-4.26826
11
5.22491
21
-4.26806
0
LINE
8
BLACK
6
CONTINUOUS
10
5.22491
20
-4.26806
11
5.22511
21
-4.26756
0
LINE
8
BLACK
6
CONTINUOUS
10
5.22511
20
-4.26756
11
5.22491
21
-4.26706
0
LINE
8
BLACK
6
CONTINUOUS
10
5.22491
20
-4.26706
11
5.22441
21
-4.26686
0
LINE
8
BLACK
6
CONTINUOUS
10
5.22441
20
-4.26686
11
5.22391
21
-4.26706
0
LINE
8
BLACK
6
CONTINUOUS
10
5.22391
20
-4.26706
11
5.22371
21
-4.26756
0
LINE
8
BLACK
6
CONTINUOUS
10
5.22371
20
-4.26756
11
5.22391
21
-4.26806
0
LINE
8
BLACK
6
CONTINUOUS
10
5.80925
20
-4.25268
11
5.81361
21
-4.2549
0
LINE
8
BLACK
6
CONTINUOUS
10
5.81361
20
-4.2549
11
5.81707
21
-4.25836
0
LINE
8
BLACK
6
CONTINUOUS
10
5.81707
20
-4.25836
11
5.81929
21
-4.26272
0
LINE
8
BLACK
6
CONTINUOUS
10
5.81929
20
-4.26272
11
5.82006
21
-4.26756
0
LINE
8
BLACK
6
CONTINUOUS
10
5.82006
20
-4.26756
11
5.81929
21
-4.27239
0
LINE
8
BLACK
6
CONTINUOUS
10
5.81929
20
-4.27239
11
5.81707
21
-4.27676
0
LINE
8
BLACK
6
CONTINUOUS
10
5.81707
20
-4.27676
11
5.81361
21
-4.28022
0
LINE
8
BLACK
6
CONTINUOUS
10
5.81361
20
-4.28022
11
5.80925
21
-4.28244
0
LINE
8
BLACK
6
CONTINUOUS
10
5.80925
20
-4.28244
11
5.80441
21
-4.28321
0
LINE
8
BLACK
6
CONTINUOUS
10
5.80441
20
-4.28321
11
5.79957
21
-4.28244
0
LINE
8
BLACK
6
CONTINUOUS
10
5.79957
20
-4.28244
11
5.79521
21
-4.28022
0
LINE
8
BLACK
6
CONTINUOUS
10
5.79521
20
-4.28022
11
5.79175
21
-4.27676
0
LINE
8
BLACK
6
CONTINUOUS
10
5.79175
20
-4.27676
11
5.78953
21
-4.27239
0
LINE
8
BLACK
6
CONTINUOUS
10
5.78953
20
-4.27239
11
5.78876
21
-4.26756
0
LINE
8
BLACK
6
CONTINUOUS
10
5.78876
20
-4.26756
11
5.78953
21
-4.26272
0
LINE
8
BLACK
6
CONTINUOUS
10
5.78953
20
-4.26272
11
5.79175
21
-4.25836
0
LINE
8
BLACK
6
CONTINUOUS
10
5.79175
20
-4.25836
11
5.79521
21
-4.2549
0
LINE
8
BLACK
6
CONTINUOUS
10
5.79521
20
-4.2549
11
5.79957
21
-4.25268
0
LINE
8
BLACK
6
CONTINUOUS
10
5.79957
20
-4.25268
11
5.80441
21
-4.25191
0
LINE
8
BLACK
6
CONTINUOUS
10
5.80441
20
-4.25191
11
5.80925
21
-4.25268
0
LINE
8
BLACK
6
CONTINUOUS
10
5.80391
20
-4.26806
11
5.80441
21
-4.26826
0
LINE
8
BLACK
6
CONTINUOUS
10
5.80441
20
-4.26826
11
5.80491
21
-4.26806
0
LINE
8
BLACK
6
CONTINUOUS
10
5.80491
20
-4.26806
11
5.80511
21
-4.26756
0
LINE
8
BLACK
6
CONTINUOUS
10
5.80511
20
-4.26756
11
5.80491
21
-4.26706
0
LINE
8
BLACK
6
CONTINUOUS
10
5.80491
20
-4.26706
11
5.80441
21
-4.26686
0
LINE
8
BLACK
6
CONTINUOUS
10
5.80441
20
-4.26686
11
5.80391
21
-4.26706
0
LINE
8
BLACK
6
CONTINUOUS
10
5.80391
20
-4.26706
11
5.80371
21
-4.26756
0
LINE
8
BLACK
6
CONTINUOUS
10
5.80371
20
-4.26756
11
5.80391
21
-4.26806
0
LINE
8
BLACK
6
CONTINUOUS
10
4.94492
20
-3.01124
11
4.95828
21
-3.01441
0
LINE
8
BLACK
6
CONTINUOUS
10
4.95828
20
-3.01441
11
4.97119
21
-3.01911
0
LINE
8
BLACK
6
CONTINUOUS
10
4.97119
20
-3.01911
11
4.98346
21
-3.02527
0
LINE
8
BLACK
6
CONTINUOUS
10
4.98346
20
-3.02527
11
4.99494
21
-3.03282
0
LINE
8
BLACK
6
CONTINUOUS
10
4.99494
20
-3.03282
11
5.00546
21
-3.04165
0
LINE
8
BLACK
6
CONTINUOUS
10
5.00546
20
-3.04165
11
5.01489
21
-3.05164
0
LINE
8
BLACK
6
CONTINUOUS
10
5.01489
20
-3.05164
11
5.02309
21
-3.06266
0
LINE
8
BLACK
6
CONTINUOUS
10
5.02309
20
-3.06266
11
5.02996
21
-3.07455
0
LINE
8
BLACK
6
CONTINUOUS
10
5.02996
20
-3.07455
11
5.0354
21
-3.08716
0
LINE
8
BLACK
6
CONTINUOUS
10
5.0354
20
-3.08716
11
5.03934
21
-3.10032
0
LINE
8
BLACK
6
CONTINUOUS
10
5.03934
20
-3.10032
11
5.04172
21
-3.11385
0
LINE
8
BLACK
6
CONTINUOUS
10
5.04172
20
-3.11385
11
5.04252
21
-3.12756
0
LINE
8
BLACK
6
CONTINUOUS
10
5.04252
20
-3.12756
11
5.04172
21
-3.14127
0
LINE
8
BLACK
6
CONTINUOUS
10
5.04172
20
-3.14127
11
5.03934
21
-3.1548
0
LINE
8
BLACK
6
CONTINUOUS
10
5.03934
20
-3.1548
11
5.0354
21
-3.16796
0
LINE
8
BLACK
6
CONTINUOUS
10
5.0354
20
-3.16796
11
5.02996
21
-3.18057
0
LINE
8
BLACK
6
CONTINUOUS
10
5.02996
20
-3.18057
11
5.02309
21
-3.19246
0
LINE
8
BLACK
6
CONTINUOUS
10
5.02309
20
-3.19246
11
5.01489
21
-3.20348
0
LINE
8
BLACK
6
CONTINUOUS
10
5.01489
20
-3.20348
11
5.00546
21
-3.21347
0
LINE
8
BLACK
6
CONTINUOUS
10
5.00546
20
-3.21347
11
4.99494
21
-3.2223
0
LINE
8
BLACK
6
CONTINUOUS
10
4.99494
20
-3.2223
11
4.98346
21
-3.22985
0
LINE
8
BLACK
6
CONTINUOUS
10
4.98346
20
-3.22985
11
4.97119
21
-3.23601
0
LINE
8
BLACK
6
CONTINUOUS
10
4.97119
20
-3.23601
11
4.95828
21
-3.24071
0
LINE
8
BLACK
6
CONTINUOUS
10
4.95828
20
-3.24071
11
4.94492
21
-3.24387
0
LINE
8
BLACK
6
CONTINUOUS
10
4.94492
20
-3.24387
11
4.93128
21
-3.24547
0
LINE
8
BLACK
6
CONTINUOUS
10
4.93128
20
-3.24547
11
4.91754
21
-3.24547
0
LINE
8
BLACK
6
CONTINUOUS
10
4.91754
20
-3.24547
11
4.9039
21
-3.24387
0
LINE
8
BLACK
6
CONTINUOUS
10
4.9039
20
-3.24387
11
4.89054
21
-3.24071
0
LINE
8
BLACK
6
CONTINUOUS
10
4.89054
20
-3.24071
11
4.87763
21
-3.23601
0
LINE
8
BLACK
6
CONTINUOUS
10
4.87763
20
-3.23601
11
4.86535
21
-3.22985
0
LINE
8
BLACK
6
CONTINUOUS
10
4.86535
20
-3.22985
11
4.85388
21
-3.2223
0
LINE
8
BLACK
6
CONTINUOUS
10
4.85388
20
-3.2223
11
4.84336
21
-3.21347
0
LINE
8
BLACK
6
CONTINUOUS
10
4.84336
20
-3.21347
11
4.83393
21
-3.20348
0
LINE
8
BLACK
6
CONTINUOUS
10
4.83393
20
-3.20348
11
4.82573
21
-3.19246
0
LINE
8
BLACK
6
CONTINUOUS
10
4.82573
20
-3.19246
11
4.81886
21
-3.18057
0
LINE
8
BLACK
6
CONTINUOUS
10
4.81886
20
-3.18057
11
4.81342
21
-3.16796
0
LINE
8
BLACK
6
CONTINUOUS
10
4.81342
20
-3.16796
11
4.80948
21
-3.1548
0
LINE
8
BLACK
6
CONTINUOUS
10
4.80948
20
-3.1548
11
4.8071
21
-3.14127
0
LINE
8
BLACK
6
CONTINUOUS
10
4.8071
20
-3.14127
11
4.8063
21
-3.12756
0
LINE
8
BLACK
6
CONTINUOUS
10
4.8063
20
-3.12756
11
4.8071
21
-3.11385
0
LINE
8
BLACK
6
CONTINUOUS
10
4.8071
20
-3.11385
11
4.80948
21
-3.10032
0
LINE
8
BLACK
6
CONTINUOUS
10
4.80948
20
-3.10032
11
4.81342
21
-3.08716
0
LINE
8
BLACK
6
CONTINUOUS
10
4.81342
20
-3.08716
11
4.81886
21
-3.07455
0
LINE
8
BLACK
6
CONTINUOUS
10
4.81886
20
-3.07455
11
4.82573
21
-3.06266
0
LINE
8
BLACK
6
CONTINUOUS
10
4.82573
20
-3.06266
11
4.83393
21
-3.05164
0
LINE
8
BLACK
6
CONTINUOUS
10
4.83393
20
-3.05164
11
4.84336
21
-3.04165
0
LINE
8
BLACK
6
CONTINUOUS
10
4.84336
20
-3.04165
11
4.85388
21
-3.03282
0
LINE
8
BLACK
6
CONTINUOUS
10
4.85388
20
-3.03282
11
4.86535
21
-3.02527
0
LINE
8
BLACK
6
CONTINUOUS
10
4.86535
20
-3.02527
11
4.87763
21
-3.01911
0
LINE
8
BLACK
6
CONTINUOUS
10
4.87763
20
-3.01911
11
4.89054
21
-3.01441
0
LINE
8
BLACK
6
CONTINUOUS
10
4.89054
20
-3.01441
11
4.9039
21
-3.01124
0
LINE
8
BLACK
6
CONTINUOUS
10
4.9039
20
-3.01124
11
4.91754
21
-3.00965
0
LINE
8
BLACK
6
CONTINUOUS
10
4.91754
20
-3.00965
11
4.93128
21
-3.00965
0
LINE
8
BLACK
6
CONTINUOUS
10
4.93128
20
-3.00965
11
4.94492
21
-3.01124
0
LINE
8
BLACK
6
CONTINUOUS
10
6.14492
20
-3.01124
11
6.15828
21
-3.01441
0
LINE
8
BLACK
6
CONTINUOUS
10
6.15828
20
-3.01441
11
6.17119
21
-3.01911
0
LINE
8
BLACK
6
CONTINUOUS
10
6.17119
20
-3.01911
11
6.18346
21
-3.02527
0
LINE
8
BLACK
6
CONTINUOUS
10
6.18346
20
-3.02527
11
6.19494
21
-3.03282
0
LINE
8
BLACK
6
CONTINUOUS
10
6.19494
20
-3.03282
11
6.20546
21
-3.04165
0
LINE
8
BLACK
6
CONTINUOUS
10
6.20546
20
-3.04165
11
6.21489
21
-3.05164
0
LINE
8
BLACK
6
CONTINUOUS
10
6.21489
20
-3.05164
11
6.22309
21
-3.06266
0
LINE
8
BLACK
6
CONTINUOUS
10
6.22309
20
-3.06266
11
6.22996
21
-3.07455
0
LINE
8
BLACK
6
CONTINUOUS
10
6.22996
20
-3.07455
11
6.2354
21
-3.08716
0
LINE
8
BLACK
6
CONTINUOUS
10
6.2354
20
-3.08716
11
6.23934
21
-3.10032
0
LINE
8
BLACK
6
CONTINUOUS
10
6.23934
20
-3.10032
11
6.24172
21
-3.11385
0
LINE
8
BLACK
6
CONTINUOUS
10
6.24172
20
-3.11385
11
6.24252
21
-3.12756
0
LINE
8
BLACK
6
CONTINUOUS
10
6.24252
20
-3.12756
11
6.24172
21
-3.14127
0
LINE
8
BLACK
6
CONTINUOUS
10
6.24172
20
-3.14127
11
6.23934
21
-3.1548
0
LINE
8
BLACK
6
CONTINUOUS
10
6.23934
20
-3.1548
11
6.2354
21
-3.16796
0
LINE
8
BLACK
6
CONTINUOUS
10
6.2354
20
-3.16796
11
6.22996
21
-3.18057
0
LINE
8
BLACK
6
CONTINUOUS
10
6.22996
20
-3.18057
11
6.22309
21
-3.19246
0
LINE
8
BLACK
6
CONTINUOUS
10
6.22309
20
-3.19246
11
6.21489
21
-3.20348
0
LINE
8
BLACK
6
CONTINUOUS
10
6.21489
20
-3.20348
11
6.20546
21
-3.21347
0
LINE
8
BLACK
6
CONTINUOUS
10
6.20546
20
-3.21347
11
6.19494
21
-3.2223
0
LINE
8
BLACK
6
CONTINUOUS
10
6.19494
20
-3.2223
11
6.18346
21
-3.22985
0
LINE
8
BLACK
6
CONTINUOUS
10
6.18346
20
-3.22985
11
6.17119
21
-3.23601
0
LINE
8
BLACK
6
CONTINUOUS
10
6.17119
20
-3.23601
11
6.15828
21
-3.24071
0
LINE
8
BLACK
6
CONTINUOUS
10
6.15828
20
-3.24071
11
6.14492
21
-3.24387
0
LINE
8
BLACK
6
CONTINUOUS
10
6.14492
20
-3.24387
11
6.13128
21
-3.24547
0
LINE
8
BLACK
6
CONTINUOUS
10
6.13128
20
-3.24547
11
6.11754
21
-3.24547
0
LINE
8
BLACK
6
CONTINUOUS
10
6.11754
20
-3.24547
11
6.1039
21
-3.24387
0
LINE
8
BLACK
6
CONTINUOUS
10
6.1039
20
-3.24387
11
6.09054
21
-3.24071
0
LINE
8
BLACK
6
CONTINUOUS
10
6.09054
20
-3.24071
11
6.07763
21
-3.23601
0
LINE
8
BLACK
6
CONTINUOUS
10
6.07763
20
-3.23601
11
6.06535
21
-3.22985
0
LINE
8
BLACK
6
CONTINUOUS
10
6.06535
20
-3.22985
11
6.05388
21
-3.2223
0
LINE
8
BLACK
6
CONTINUOUS
10
6.05388
20
-3.2223
11
6.04336
21
-3.21347
0
LINE
8
BLACK
6
CONTINUOUS
10
6.04336
20
-3.21347
11
6.03393
21
-3.20348
0
LINE
8
BLACK
6
CONTINUOUS
10
6.03393
20
-3.20348
11
6.02573
21
-3.19246
0
LINE
8
BLACK
6
CONTINUOUS
10
6.02573
20
-3.19246
11
6.01886
21
-3.18057
0
LINE
8
BLACK
6
CONTINUOUS
10
6.01886
20
-3.18057
11
6.01342
21
-3.16796
0
LINE
8
BLACK
6
CONTINUOUS
10
6.01342
20
-3.16796
11
6.00948
21
-3.1548
0
LINE
8
BLACK
6
CONTINUOUS
10
6.00948
20
-3.1548
11
6.0071
21
-3.14127
0
LINE
8
BLACK
6
CONTINUOUS
10
6.0071
20
-3.14127
11
6.0063
21
-3.12756
0
LINE
8
BLACK
6
CONTINUOUS
10
6.0063
20
-3.12756
11
6.0071
21
-3.11385
0
LINE
8
BLACK
6
CONTINUOUS
10
6.0071
20
-3.11385
11
6.00948
21
-3.10032
0
LINE
8
BLACK
6
CONTINUOUS
10
6.00948
20
-3.10032
11
6.01342
21
-3.08716
0
LINE
8
BLACK
6
CONTINUOUS
10
6.01342
20
-3.08716
11
6.01886
21
-3.07455
0
LINE
8
BLACK
6
CONTINUOUS
10
6.01886
20
-3.07455
11
6.02573
21
-3.06266
0
LINE
8
BLACK
6
CONTINUOUS
10
6.02573
20
-3.06266
11
6.03393
21
-3.05164
0
LINE
8
BLACK
6
CONTINUOUS
10
6.03393
20
-3.05164
11
6.04336
21
-3.04165
0
LINE
8
BLACK
6
CONTINUOUS
10
6.04336
20
-3.04165
11
6.05388
21
-3.03282
0
LINE
8
BLACK
6
CONTINUOUS
10
6.05388
20
-3.03282
11
6.06535
21
-3.02527
0
LINE
8
BLACK
6
CONTINUOUS
10
6.06535
20
-3.02527
11
6.07763
21
-3.01911
0
LINE
8
BLACK
6
CONTINUOUS
10
6.07763
20
-3.01911
11
6.09054
21
-3.01441
0
LINE
8
BLACK
6
CONTINUOUS
10
6.09054
20
-3.01441
11
6.1039
21
-3.01124
0
LINE
8
BLACK
6
CONTINUOUS
10
6.1039
20
-3.01124
11
6.11754
21
-3.00965
0
LINE
8
BLACK
6
CONTINUOUS
10
6.11754
20
-3.00965
11
6.13128
21
-3.00965
0
LINE
8
BLACK
6
CONTINUOUS
10
6.13128
20
-3.00965
11
6.14492
21
-3.01124
  0
ENDSEC
  0
EOF
