  0
SECTION
  2
HEADER
  9
$ANGBASE
  50
0.0
  9
$ANGDIR
  70
1
  9
$MEASUREMENT
  70
0
  0
ENDSEC
  0
SECTION
  2
TABLES
  0
TABLE
  2
LTYPE
  70
4
  0
LTYPE
  5
40F
  2
CONTINUOUS
  70
0
  3
Solid line
  72
65
  73
0
  40
0.0
  0
LTYPE
  5
410
  2
DASHDOT
 70
0
  3
Dash Dot ____ _ ____ _
 72
65
 73
4
 40
2.0
 49
1.25
 49
-0.25
 49
0.25
 49
-0.25
  0
LTYPE
  5
411
  2
DASHED
 70
0
  3
Dashed __ __ __ __ __
 72
65
 73
2
 40
0.75
 49
0.5
 49
-0.25
  0
LTYPE
  5
43B
  2
DOTTED
 70
0
  3
Dotted .  .  .  .
 72
65
 73
2
 40
0.2
 49
0.0
 49
-0.2
  0
ENDTAB
  0
TABLE
  2
STYLE
  70
4
  0
STYLE
  2
KICAD
  70
0
  40
0
  41
1
  42
1
  50
0
  71
0
  3
isocp.shx
  0
STYLE
  2
KICADB
  70
0
  40
0
  41
1
  42
1
  50
0
  71
0
  3
isocp.shx
  0
STYLE
  2
KICADI
  70
0
  40
0
  41
1
  42
1
  50
15
  71
0
  3
isocp.shx
  0
STYLE
  2
KICADBI
  70
0
  40
0
  41
1
  42
1
  50
15
  71
0
  3
isocp.shx
  0
ENDTAB
  0
TABLE
  2
LAYER
  70
1
  0
LAYER
  2
BLACK
  70
0
  62
7
  6
CONTINUOUS
  0
ENDTAB
  0
ENDSEC
  0
SECTION
  2
ENTITIES
0
LINE
8
BLACK
6
CONTINUOUS
10
4.93847
20
-4.20275
11
4.95236
21
-4.20511
0
LINE
8
BLACK
6
CONTINUOUS
10
4.95236
20
-4.20511
11
4.96589
21
-4.20901
0
LINE
8
BLACK
6
CONTINUOUS
10
4.96589
20
-4.20901
11
4.97891
21
-4.2144
0
LINE
8
BLACK
6
CONTINUOUS
10
4.97891
20
-4.2144
11
4.99123
21
-4.22121
0
LINE
8
BLACK
6
CONTINUOUS
10
4.99123
20
-4.22121
11
5.00272
21
-4.22936
0
LINE
8
BLACK
6
CONTINUOUS
10
5.00272
20
-4.22936
11
5.01322
21
-4.23875
0
LINE
8
BLACK
6
CONTINUOUS
10
5.01322
20
-4.23875
11
5.02261
21
-4.24925
0
LINE
8
BLACK
6
CONTINUOUS
10
5.02261
20
-4.24925
11
5.03076
21
-4.26074
0
LINE
8
BLACK
6
CONTINUOUS
10
5.03076
20
-4.26074
11
5.03757
21
-4.27306
0
LINE
8
BLACK
6
CONTINUOUS
10
5.03757
20
-4.27306
11
5.04296
21
-4.28608
0
LINE
8
BLACK
6
CONTINUOUS
10
5.04296
20
-4.28608
11
5.04686
21
-4.29961
0
LINE
8
BLACK
6
CONTINUOUS
10
5.04686
20
-4.29961
11
5.04922
21
-4.3135
0
LINE
8
BLACK
6
CONTINUOUS
10
5.04922
20
-4.3135
11
5.05001
21
-4.32756
0
LINE
8
BLACK
6
CONTINUOUS
10
5.05001
20
-4.32756
11
5.04922
21
-4.34162
0
LINE
8
BLACK
6
CONTINUOUS
10
5.04922
20
-4.34162
11
5.04686
21
-4.35551
0
LINE
8
BLACK
6
CONTINUOUS
10
5.04686
20
-4.35551
11
5.04296
21
-4.36904
0
LINE
8
BLACK
6
CONTINUOUS
10
5.04296
20
-4.36904
11
5.03757
21
-4.38205
0
LINE
8
BLACK
6
CONTINUOUS
10
5.03757
20
-4.38205
11
5.03076
21
-4.39438
0
LINE
8
BLACK
6
CONTINUOUS
10
5.03076
20
-4.39438
11
5.02261
21
-4.40587
0
LINE
8
BLACK
6
CONTINUOUS
10
5.02261
20
-4.40587
11
5.01322
21
-4.41637
0
LINE
8
BLACK
6
CONTINUOUS
10
5.01322
20
-4.41637
11
5.00272
21
-4.42576
0
LINE
8
BLACK
6
CONTINUOUS
10
5.00272
20
-4.42576
11
4.99123
21
-4.43391
0
LINE
8
BLACK
6
CONTINUOUS
10
4.99123
20
-4.43391
11
4.97891
21
-4.44072
0
LINE
8
BLACK
6
CONTINUOUS
10
4.97891
20
-4.44072
11
4.96589
21
-4.44611
0
LINE
8
BLACK
6
CONTINUOUS
10
4.96589
20
-4.44611
11
4.95236
21
-4.45001
0
LINE
8
BLACK
6
CONTINUOUS
10
4.95236
20
-4.45001
11
4.93847
21
-4.45237
0
LINE
8
BLACK
6
CONTINUOUS
10
4.93847
20
-4.45237
11
4.92441
21
-4.45316
0
LINE
8
BLACK
6
CONTINUOUS
10
4.92441
20
-4.45316
11
4.91035
21
-4.45237
0
LINE
8
BLACK
6
CONTINUOUS
10
4.91035
20
-4.45237
11
4.89646
21
-4.45001
0
LINE
8
BLACK
6
CONTINUOUS
10
4.89646
20
-4.45001
11
4.88293
21
-4.44611
0
LINE
8
BLACK
6
CONTINUOUS
10
4.88293
20
-4.44611
11
4.86991
21
-4.44072
0
LINE
8
BLACK
6
CONTINUOUS
10
4.86991
20
-4.44072
11
4.85759
21
-4.43391
0
LINE
8
BLACK
6
CONTINUOUS
10
4.85759
20
-4.43391
11
4.8461
21
-4.42576
0
LINE
8
BLACK
6
CONTINUOUS
10
4.8461
20
-4.42576
11
4.8356
21
-4.41637
0
LINE
8
BLACK
6
CONTINUOUS
10
4.8356
20
-4.41637
11
4.82621
21
-4.40587
0
LINE
8
BLACK
6
CONTINUOUS
10
4.82621
20
-4.40587
11
4.81806
21
-4.39438
0
LINE
8
BLACK
6
CONTINUOUS
10
4.81806
20
-4.39438
11
4.81125
21
-4.38205
0
LINE
8
BLACK
6
CONTINUOUS
10
4.81125
20
-4.38205
11
4.80586
21
-4.36904
0
LINE
8
BLACK
6
CONTINUOUS
10
4.80586
20
-4.36904
11
4.80196
21
-4.35551
0
LINE
8
BLACK
6
CONTINUOUS
10
4.80196
20
-4.35551
11
4.7996
21
-4.34162
0
LINE
8
BLACK
6
CONTINUOUS
10
4.7996
20
-4.34162
11
4.79881
21
-4.32756
0
LINE
8
BLACK
6
CONTINUOUS
10
4.79881
20
-4.32756
11
4.7996
21
-4.3135
0
LINE
8
BLACK
6
CONTINUOUS
10
4.7996
20
-4.3135
11
4.80196
21
-4.29961
0
LINE
8
BLACK
6
CONTINUOUS
10
4.80196
20
-4.29961
11
4.80586
21
-4.28608
0
LINE
8
BLACK
6
CONTINUOUS
10
4.80586
20
-4.28608
11
4.81125
21
-4.27306
0
LINE
8
BLACK
6
CONTINUOUS
10
4.81125
20
-4.27306
11
4.81806
21
-4.26074
0
LINE
8
BLACK
6
CONTINUOUS
10
4.81806
20
-4.26074
11
4.82621
21
-4.24925
0
LINE
8
BLACK
6
CONTINUOUS
10
4.82621
20
-4.24925
11
4.8356
21
-4.23875
0
LINE
8
BLACK
6
CONTINUOUS
10
4.8356
20
-4.23875
11
4.8461
21
-4.22936
0
LINE
8
BLACK
6
CONTINUOUS
10
4.8461
20
-4.22936
11
4.85759
21
-4.22121
0
LINE
8
BLACK
6
CONTINUOUS
10
4.85759
20
-4.22121
11
4.86991
21
-4.2144
0
LINE
8
BLACK
6
CONTINUOUS
10
4.86991
20
-4.2144
11
4.88293
21
-4.20901
0
LINE
8
BLACK
6
CONTINUOUS
10
4.88293
20
-4.20901
11
4.89646
21
-4.20511
0
LINE
8
BLACK
6
CONTINUOUS
10
4.89646
20
-4.20511
11
4.91035
21
-4.20275
0
LINE
8
BLACK
6
CONTINUOUS
10
4.91035
20
-4.20275
11
4.92441
21
-4.20196
0
LINE
8
BLACK
6
CONTINUOUS
10
4.92441
20
-4.20196
11
4.93847
21
-4.20275
0
LINE
8
BLACK
6
CONTINUOUS
10
4.81437
20
-4.34042
11
4.81661
21
-4.35311
0
LINE
8
BLACK
6
CONTINUOUS
10
4.81661
20
-4.35311
11
4.8203
21
-4.36545
0
LINE
8
BLACK
6
CONTINUOUS
10
4.8203
20
-4.36545
11
4.82541
21
-4.37728
0
LINE
8
BLACK
6
CONTINUOUS
10
4.82541
20
-4.37728
11
4.83185
21
-4.38844
0
LINE
8
BLACK
6
CONTINUOUS
10
4.83185
20
-4.38844
11
4.83954
21
-4.39877
0
LINE
8
BLACK
6
CONTINUOUS
10
4.83954
20
-4.39877
11
4.84838
21
-4.40814
0
LINE
8
BLACK
6
CONTINUOUS
10
4.84838
20
-4.40814
11
4.85825
21
-4.41642
0
LINE
8
BLACK
6
CONTINUOUS
10
4.85825
20
-4.41642
11
4.86902
21
-4.4235
0
LINE
8
BLACK
6
CONTINUOUS
10
4.86902
20
-4.4235
11
4.88053
21
-4.42929
0
LINE
8
BLACK
6
CONTINUOUS
10
4.88053
20
-4.42929
11
4.89264
21
-4.43369
0
LINE
8
BLACK
6
CONTINUOUS
10
4.89264
20
-4.43369
11
4.90517
21
-4.43666
0
LINE
8
BLACK
6
CONTINUOUS
10
4.90517
20
-4.43666
11
4.91797
21
-4.43816
0
LINE
8
BLACK
6
CONTINUOUS
10
4.91797
20
-4.43816
11
4.93085
21
-4.43816
0
LINE
8
BLACK
6
CONTINUOUS
10
4.93085
20
-4.43816
11
4.94365
21
-4.43666
0
LINE
8
BLACK
6
CONTINUOUS
10
4.94365
20
-4.43666
11
4.95618
21
-4.43369
0
LINE
8
BLACK
6
CONTINUOUS
10
4.95618
20
-4.43369
11
4.96829
21
-4.42929
0
LINE
8
BLACK
6
CONTINUOUS
10
4.96829
20
-4.42929
11
4.9798
21
-4.4235
0
LINE
8
BLACK
6
CONTINUOUS
10
4.9798
20
-4.4235
11
4.99057
21
-4.41642
0
LINE
8
BLACK
6
CONTINUOUS
10
4.99057
20
-4.41642
11
5.00044
21
-4.40814
0
LINE
8
BLACK
6
CONTINUOUS
10
5.00044
20
-4.40814
11
5.00928
21
-4.39877
0
LINE
8
BLACK
6
CONTINUOUS
10
5.00928
20
-4.39877
11
5.01697
21
-4.38844
0
LINE
8
BLACK
6
CONTINUOUS
10
5.01697
20
-4.38844
11
5.02341
21
-4.37728
0
LINE
8
BLACK
6
CONTINUOUS
10
5.02341
20
-4.37728
11
5.02852
21
-4.36545
0
LINE
8
BLACK
6
CONTINUOUS
10
5.02852
20
-4.36545
11
5.03221
21
-4.35311
0
LINE
8
BLACK
6
CONTINUOUS
10
5.03221
20
-4.35311
11
5.03445
21
-4.34042
0
LINE
8
BLACK
6
CONTINUOUS
10
5.03445
20
-4.34042
11
5.0352
21
-4.32756
0
LINE
8
BLACK
6
CONTINUOUS
10
5.0352
20
-4.32756
11
5.03445
21
-4.3147
0
LINE
8
BLACK
6
CONTINUOUS
10
5.03445
20
-4.3147
11
5.03221
21
-4.30201
0
LINE
8
BLACK
6
CONTINUOUS
10
5.03221
20
-4.30201
11
5.02852
21
-4.28967
0
LINE
8
BLACK
6
CONTINUOUS
10
5.02852
20
-4.28967
11
5.02341
21
-4.27784
0
LINE
8
BLACK
6
CONTINUOUS
10
5.02341
20
-4.27784
11
5.01697
21
-4.26668
0
LINE
8
BLACK
6
CONTINUOUS
10
5.01697
20
-4.26668
11
5.00928
21
-4.25635
0
LINE
8
BLACK
6
CONTINUOUS
10
5.00928
20
-4.25635
11
5.00044
21
-4.24698
0
LINE
8
BLACK
6
CONTINUOUS
10
5.00044
20
-4.24698
11
4.99057
21
-4.23869
0
LINE
8
BLACK
6
CONTINUOUS
10
4.99057
20
-4.23869
11
4.9798
21
-4.23161
0
LINE
8
BLACK
6
CONTINUOUS
10
4.9798
20
-4.23161
11
4.96829
21
-4.22583
0
LINE
8
BLACK
6
CONTINUOUS
10
4.96829
20
-4.22583
11
4.95618
21
-4.22143
0
LINE
8
BLACK
6
CONTINUOUS
10
4.95618
20
-4.22143
11
4.94365
21
-4.21845
0
LINE
8
BLACK
6
CONTINUOUS
10
4.94365
20
-4.21845
11
4.93085
21
-4.21696
0
LINE
8
BLACK
6
CONTINUOUS
10
4.93085
20
-4.21696
11
4.91797
21
-4.21696
0
LINE
8
BLACK
6
CONTINUOUS
10
4.91797
20
-4.21696
11
4.90517
21
-4.21845
0
LINE
8
BLACK
6
CONTINUOUS
10
4.90517
20
-4.21845
11
4.89264
21
-4.22143
0
LINE
8
BLACK
6
CONTINUOUS
10
4.89264
20
-4.22143
11
4.88053
21
-4.22583
0
LINE
8
BLACK
6
CONTINUOUS
10
4.88053
20
-4.22583
11
4.86902
21
-4.23161
0
LINE
8
BLACK
6
CONTINUOUS
10
4.86902
20
-4.23161
11
4.85825
21
-4.23869
0
LINE
8
BLACK
6
CONTINUOUS
10
4.85825
20
-4.23869
11
4.84838
21
-4.24698
0
LINE
8
BLACK
6
CONTINUOUS
10
4.84838
20
-4.24698
11
4.83954
21
-4.25635
0
LINE
8
BLACK
6
CONTINUOUS
10
4.83954
20
-4.25635
11
4.83185
21
-4.26668
0
LINE
8
BLACK
6
CONTINUOUS
10
4.83185
20
-4.26668
11
4.82541
21
-4.27784
0
LINE
8
BLACK
6
CONTINUOUS
10
4.82541
20
-4.27784
11
4.8203
21
-4.28967
0
LINE
8
BLACK
6
CONTINUOUS
10
4.8203
20
-4.28967
11
4.81661
21
-4.30201
0
LINE
8
BLACK
6
CONTINUOUS
10
4.81661
20
-4.30201
11
4.81437
21
-4.3147
0
LINE
8
BLACK
6
CONTINUOUS
10
4.81437
20
-4.3147
11
4.81362
21
-4.32756
0
LINE
8
BLACK
6
CONTINUOUS
10
4.81362
20
-4.32756
11
4.81437
21
-4.34042
0
LINE
8
BLACK
6
CONTINUOUS
10
6.13847
20
-4.20275
11
6.15236
21
-4.20511
0
LINE
8
BLACK
6
CONTINUOUS
10
6.15236
20
-4.20511
11
6.16589
21
-4.20901
0
LINE
8
BLACK
6
CONTINUOUS
10
6.16589
20
-4.20901
11
6.17891
21
-4.2144
0
LINE
8
BLACK
6
CONTINUOUS
10
6.17891
20
-4.2144
11
6.19123
21
-4.22121
0
LINE
8
BLACK
6
CONTINUOUS
10
6.19123
20
-4.22121
11
6.20272
21
-4.22936
0
LINE
8
BLACK
6
CONTINUOUS
10
6.20272
20
-4.22936
11
6.21322
21
-4.23875
0
LINE
8
BLACK
6
CONTINUOUS
10
6.21322
20
-4.23875
11
6.22261
21
-4.24925
0
LINE
8
BLACK
6
CONTINUOUS
10
6.22261
20
-4.24925
11
6.23076
21
-4.26074
0
LINE
8
BLACK
6
CONTINUOUS
10
6.23076
20
-4.26074
11
6.23757
21
-4.27306
0
LINE
8
BLACK
6
CONTINUOUS
10
6.23757
20
-4.27306
11
6.24296
21
-4.28608
0
LINE
8
BLACK
6
CONTINUOUS
10
6.24296
20
-4.28608
11
6.24686
21
-4.29961
0
LINE
8
BLACK
6
CONTINUOUS
10
6.24686
20
-4.29961
11
6.24922
21
-4.3135
0
LINE
8
BLACK
6
CONTINUOUS
10
6.24922
20
-4.3135
11
6.25001
21
-4.32756
0
LINE
8
BLACK
6
CONTINUOUS
10
6.25001
20
-4.32756
11
6.24922
21
-4.34162
0
LINE
8
BLACK
6
CONTINUOUS
10
6.24922
20
-4.34162
11
6.24686
21
-4.35551
0
LINE
8
BLACK
6
CONTINUOUS
10
6.24686
20
-4.35551
11
6.24296
21
-4.36904
0
LINE
8
BLACK
6
CONTINUOUS
10
6.24296
20
-4.36904
11
6.23757
21
-4.38205
0
LINE
8
BLACK
6
CONTINUOUS
10
6.23757
20
-4.38205
11
6.23076
21
-4.39438
0
LINE
8
BLACK
6
CONTINUOUS
10
6.23076
20
-4.39438
11
6.22261
21
-4.40587
0
LINE
8
BLACK
6
CONTINUOUS
10
6.22261
20
-4.40587
11
6.21322
21
-4.41637
0
LINE
8
BLACK
6
CONTINUOUS
10
6.21322
20
-4.41637
11
6.20272
21
-4.42576
0
LINE
8
BLACK
6
CONTINUOUS
10
6.20272
20
-4.42576
11
6.19123
21
-4.43391
0
LINE
8
BLACK
6
CONTINUOUS
10
6.19123
20
-4.43391
11
6.17891
21
-4.44072
0
LINE
8
BLACK
6
CONTINUOUS
10
6.17891
20
-4.44072
11
6.16589
21
-4.44611
0
LINE
8
BLACK
6
CONTINUOUS
10
6.16589
20
-4.44611
11
6.15236
21
-4.45001
0
LINE
8
BLACK
6
CONTINUOUS
10
6.15236
20
-4.45001
11
6.13847
21
-4.45237
0
LINE
8
BLACK
6
CONTINUOUS
10
6.13847
20
-4.45237
11
6.12441
21
-4.45316
0
LINE
8
BLACK
6
CONTINUOUS
10
6.12441
20
-4.45316
11
6.11035
21
-4.45237
0
LINE
8
BLACK
6
CONTINUOUS
10
6.11035
20
-4.45237
11
6.09646
21
-4.45001
0
LINE
8
BLACK
6
CONTINUOUS
10
6.09646
20
-4.45001
11
6.08293
21
-4.44611
0
LINE
8
BLACK
6
CONTINUOUS
10
6.08293
20
-4.44611
11
6.06991
21
-4.44072
0
LINE
8
BLACK
6
CONTINUOUS
10
6.06991
20
-4.44072
11
6.05759
21
-4.43391
0
LINE
8
BLACK
6
CONTINUOUS
10
6.05759
20
-4.43391
11
6.0461
21
-4.42576
0
LINE
8
BLACK
6
CONTINUOUS
10
6.0461
20
-4.42576
11
6.0356
21
-4.41637
0
LINE
8
BLACK
6
CONTINUOUS
10
6.0356
20
-4.41637
11
6.02621
21
-4.40587
0
LINE
8
BLACK
6
CONTINUOUS
10
6.02621
20
-4.40587
11
6.01806
21
-4.39438
0
LINE
8
BLACK
6
CONTINUOUS
10
6.01806
20
-4.39438
11
6.01125
21
-4.38205
0
LINE
8
BLACK
6
CONTINUOUS
10
6.01125
20
-4.38205
11
6.00586
21
-4.36904
0
LINE
8
BLACK
6
CONTINUOUS
10
6.00586
20
-4.36904
11
6.00196
21
-4.35551
0
LINE
8
BLACK
6
CONTINUOUS
10
6.00196
20
-4.35551
11
5.9996
21
-4.34162
0
LINE
8
BLACK
6
CONTINUOUS
10
5.9996
20
-4.34162
11
5.99881
21
-4.32756
0
LINE
8
BLACK
6
CONTINUOUS
10
5.99881
20
-4.32756
11
5.9996
21
-4.3135
0
LINE
8
BLACK
6
CONTINUOUS
10
5.9996
20
-4.3135
11
6.00196
21
-4.29961
0
LINE
8
BLACK
6
CONTINUOUS
10
6.00196
20
-4.29961
11
6.00586
21
-4.28608
0
LINE
8
BLACK
6
CONTINUOUS
10
6.00586
20
-4.28608
11
6.01125
21
-4.27306
0
LINE
8
BLACK
6
CONTINUOUS
10
6.01125
20
-4.27306
11
6.01806
21
-4.26074
0
LINE
8
BLACK
6
CONTINUOUS
10
6.01806
20
-4.26074
11
6.02621
21
-4.24925
0
LINE
8
BLACK
6
CONTINUOUS
10
6.02621
20
-4.24925
11
6.0356
21
-4.23875
0
LINE
8
BLACK
6
CONTINUOUS
10
6.0356
20
-4.23875
11
6.0461
21
-4.22936
0
LINE
8
BLACK
6
CONTINUOUS
10
6.0461
20
-4.22936
11
6.05759
21
-4.22121
0
LINE
8
BLACK
6
CONTINUOUS
10
6.05759
20
-4.22121
11
6.06991
21
-4.2144
0
LINE
8
BLACK
6
CONTINUOUS
10
6.06991
20
-4.2144
11
6.08293
21
-4.20901
0
LINE
8
BLACK
6
CONTINUOUS
10
6.08293
20
-4.20901
11
6.09646
21
-4.20511
0
LINE
8
BLACK
6
CONTINUOUS
10
6.09646
20
-4.20511
11
6.11035
21
-4.20275
0
LINE
8
BLACK
6
CONTINUOUS
10
6.11035
20
-4.20275
11
6.12441
21
-4.20196
0
LINE
8
BLACK
6
CONTINUOUS
10
6.12441
20
-4.20196
11
6.13847
21
-4.20275
0
LINE
8
BLACK
6
CONTINUOUS
10
6.01437
20
-4.34042
11
6.01661
21
-4.35311
0
LINE
8
BLACK
6
CONTINUOUS
10
6.01661
20
-4.35311
11
6.0203
21
-4.36545
0
LINE
8
BLACK
6
CONTINUOUS
10
6.0203
20
-4.36545
11
6.02541
21
-4.37728
0
LINE
8
BLACK
6
CONTINUOUS
10
6.02541
20
-4.37728
11
6.03185
21
-4.38844
0
LINE
8
BLACK
6
CONTINUOUS
10
6.03185
20
-4.38844
11
6.03954
21
-4.39877
0
LINE
8
BLACK
6
CONTINUOUS
10
6.03954
20
-4.39877
11
6.04838
21
-4.40814
0
LINE
8
BLACK
6
CONTINUOUS
10
6.04838
20
-4.40814
11
6.05825
21
-4.41642
0
LINE
8
BLACK
6
CONTINUOUS
10
6.05825
20
-4.41642
11
6.06902
21
-4.4235
0
LINE
8
BLACK
6
CONTINUOUS
10
6.06902
20
-4.4235
11
6.08053
21
-4.42929
0
LINE
8
BLACK
6
CONTINUOUS
10
6.08053
20
-4.42929
11
6.09264
21
-4.43369
0
LINE
8
BLACK
6
CONTINUOUS
10
6.09264
20
-4.43369
11
6.10517
21
-4.43666
0
LINE
8
BLACK
6
CONTINUOUS
10
6.10517
20
-4.43666
11
6.11797
21
-4.43816
0
LINE
8
BLACK
6
CONTINUOUS
10
6.11797
20
-4.43816
11
6.13085
21
-4.43816
0
LINE
8
BLACK
6
CONTINUOUS
10
6.13085
20
-4.43816
11
6.14365
21
-4.43666
0
LINE
8
BLACK
6
CONTINUOUS
10
6.14365
20
-4.43666
11
6.15618
21
-4.43369
0
LINE
8
BLACK
6
CONTINUOUS
10
6.15618
20
-4.43369
11
6.16829
21
-4.42929
0
LINE
8
BLACK
6
CONTINUOUS
10
6.16829
20
-4.42929
11
6.1798
21
-4.4235
0
LINE
8
BLACK
6
CONTINUOUS
10
6.1798
20
-4.4235
11
6.19057
21
-4.41642
0
LINE
8
BLACK
6
CONTINUOUS
10
6.19057
20
-4.41642
11
6.20044
21
-4.40814
0
LINE
8
BLACK
6
CONTINUOUS
10
6.20044
20
-4.40814
11
6.20928
21
-4.39877
0
LINE
8
BLACK
6
CONTINUOUS
10
6.20928
20
-4.39877
11
6.21697
21
-4.38844
0
LINE
8
BLACK
6
CONTINUOUS
10
6.21697
20
-4.38844
11
6.22341
21
-4.37728
0
LINE
8
BLACK
6
CONTINUOUS
10
6.22341
20
-4.37728
11
6.22852
21
-4.36545
0
LINE
8
BLACK
6
CONTINUOUS
10
6.22852
20
-4.36545
11
6.23221
21
-4.35311
0
LINE
8
BLACK
6
CONTINUOUS
10
6.23221
20
-4.35311
11
6.23445
21
-4.34042
0
LINE
8
BLACK
6
CONTINUOUS
10
6.23445
20
-4.34042
11
6.2352
21
-4.32756
0
LINE
8
BLACK
6
CONTINUOUS
10
6.2352
20
-4.32756
11
6.23445
21
-4.3147
0
LINE
8
BLACK
6
CONTINUOUS
10
6.23445
20
-4.3147
11
6.23221
21
-4.30201
0
LINE
8
BLACK
6
CONTINUOUS
10
6.23221
20
-4.30201
11
6.22852
21
-4.28967
0
LINE
8
BLACK
6
CONTINUOUS
10
6.22852
20
-4.28967
11
6.22341
21
-4.27784
0
LINE
8
BLACK
6
CONTINUOUS
10
6.22341
20
-4.27784
11
6.21697
21
-4.26668
0
LINE
8
BLACK
6
CONTINUOUS
10
6.21697
20
-4.26668
11
6.20928
21
-4.25635
0
LINE
8
BLACK
6
CONTINUOUS
10
6.20928
20
-4.25635
11
6.20044
21
-4.24698
0
LINE
8
BLACK
6
CONTINUOUS
10
6.20044
20
-4.24698
11
6.19057
21
-4.23869
0
LINE
8
BLACK
6
CONTINUOUS
10
6.19057
20
-4.23869
11
6.1798
21
-4.23161
0
LINE
8
BLACK
6
CONTINUOUS
10
6.1798
20
-4.23161
11
6.16829
21
-4.22583
0
LINE
8
BLACK
6
CONTINUOUS
10
6.16829
20
-4.22583
11
6.15618
21
-4.22143
0
LINE
8
BLACK
6
CONTINUOUS
10
6.15618
20
-4.22143
11
6.14365
21
-4.21845
0
LINE
8
BLACK
6
CONTINUOUS
10
6.14365
20
-4.21845
11
6.13085
21
-4.21696
0
LINE
8
BLACK
6
CONTINUOUS
10
6.13085
20
-4.21696
11
6.11797
21
-4.21696
0
LINE
8
BLACK
6
CONTINUOUS
10
6.11797
20
-4.21696
11
6.10517
21
-4.21845
0
LINE
8
BLACK
6
CONTINUOUS
10
6.10517
20
-4.21845
11
6.09264
21
-4.22143
0
LINE
8
BLACK
6
CONTINUOUS
10
6.09264
20
-4.22143
11
6.08053
21
-4.22583
0
LINE
8
BLACK
6
CONTINUOUS
10
6.08053
20
-4.22583
11
6.06902
21
-4.23161
0
LINE
8
BLACK
6
CONTINUOUS
10
6.06902
20
-4.23161
11
6.05825
21
-4.23869
0
LINE
8
BLACK
6
CONTINUOUS
10
6.05825
20
-4.23869
11
6.04838
21
-4.24698
0
LINE
8
BLACK
6
CONTINUOUS
10
6.04838
20
-4.24698
11
6.03954
21
-4.25635
0
LINE
8
BLACK
6
CONTINUOUS
10
6.03954
20
-4.25635
11
6.03185
21
-4.26668
0
LINE
8
BLACK
6
CONTINUOUS
10
6.03185
20
-4.26668
11
6.02541
21
-4.27784
0
LINE
8
BLACK
6
CONTINUOUS
10
6.02541
20
-4.27784
11
6.0203
21
-4.28967
0
LINE
8
BLACK
6
CONTINUOUS
10
6.0203
20
-4.28967
11
6.01661
21
-4.30201
0
LINE
8
BLACK
6
CONTINUOUS
10
6.01661
20
-4.30201
11
6.01437
21
-4.3147
0
LINE
8
BLACK
6
CONTINUOUS
10
6.01437
20
-4.3147
11
6.01362
21
-4.32756
0
LINE
8
BLACK
6
CONTINUOUS
10
6.01362
20
-4.32756
11
6.01437
21
-4.34042
0
LINE
8
BLACK
6
CONTINUOUS
10
4.93847
20
-3.00275
11
4.95236
21
-3.00511
0
LINE
8
BLACK
6
CONTINUOUS
10
4.95236
20
-3.00511
11
4.96589
21
-3.00901
0
LINE
8
BLACK
6
CONTINUOUS
10
4.96589
20
-3.00901
11
4.97891
21
-3.0144
0
LINE
8
BLACK
6
CONTINUOUS
10
4.97891
20
-3.0144
11
4.99123
21
-3.02121
0
LINE
8
BLACK
6
CONTINUOUS
10
4.99123
20
-3.02121
11
5.00272
21
-3.02936
0
LINE
8
BLACK
6
CONTINUOUS
10
5.00272
20
-3.02936
11
5.01322
21
-3.03875
0
LINE
8
BLACK
6
CONTINUOUS
10
5.01322
20
-3.03875
11
5.02261
21
-3.04925
0
LINE
8
BLACK
6
CONTINUOUS
10
5.02261
20
-3.04925
11
5.03076
21
-3.06074
0
LINE
8
BLACK
6
CONTINUOUS
10
5.03076
20
-3.06074
11
5.03757
21
-3.07306
0
LINE
8
BLACK
6
CONTINUOUS
10
5.03757
20
-3.07306
11
5.04296
21
-3.08608
0
LINE
8
BLACK
6
CONTINUOUS
10
5.04296
20
-3.08608
11
5.04686
21
-3.09961
0
LINE
8
BLACK
6
CONTINUOUS
10
5.04686
20
-3.09961
11
5.04922
21
-3.1135
0
LINE
8
BLACK
6
CONTINUOUS
10
5.04922
20
-3.1135
11
5.05001
21
-3.12756
0
LINE
8
BLACK
6
CONTINUOUS
10
5.05001
20
-3.12756
11
5.04922
21
-3.14162
0
LINE
8
BLACK
6
CONTINUOUS
10
5.04922
20
-3.14162
11
5.04686
21
-3.15551
0
LINE
8
BLACK
6
CONTINUOUS
10
5.04686
20
-3.15551
11
5.04296
21
-3.16904
0
LINE
8
BLACK
6
CONTINUOUS
10
5.04296
20
-3.16904
11
5.03757
21
-3.18205
0
LINE
8
BLACK
6
CONTINUOUS
10
5.03757
20
-3.18205
11
5.03076
21
-3.19438
0
LINE
8
BLACK
6
CONTINUOUS
10
5.03076
20
-3.19438
11
5.02261
21
-3.20587
0
LINE
8
BLACK
6
CONTINUOUS
10
5.02261
20
-3.20587
11
5.01322
21
-3.21637
0
LINE
8
BLACK
6
CONTINUOUS
10
5.01322
20
-3.21637
11
5.00272
21
-3.22576
0
LINE
8
BLACK
6
CONTINUOUS
10
5.00272
20
-3.22576
11
4.99123
21
-3.23391
0
LINE
8
BLACK
6
CONTINUOUS
10
4.99123
20
-3.23391
11
4.97891
21
-3.24072
0
LINE
8
BLACK
6
CONTINUOUS
10
4.97891
20
-3.24072
11
4.96589
21
-3.24611
0
LINE
8
BLACK
6
CONTINUOUS
10
4.96589
20
-3.24611
11
4.95236
21
-3.25001
0
LINE
8
BLACK
6
CONTINUOUS
10
4.95236
20
-3.25001
11
4.93847
21
-3.25237
0
LINE
8
BLACK
6
CONTINUOUS
10
4.93847
20
-3.25237
11
4.92441
21
-3.25316
0
LINE
8
BLACK
6
CONTINUOUS
10
4.92441
20
-3.25316
11
4.91035
21
-3.25237
0
LINE
8
BLACK
6
CONTINUOUS
10
4.91035
20
-3.25237
11
4.89646
21
-3.25001
0
LINE
8
BLACK
6
CONTINUOUS
10
4.89646
20
-3.25001
11
4.88293
21
-3.24611
0
LINE
8
BLACK
6
CONTINUOUS
10
4.88293
20
-3.24611
11
4.86991
21
-3.24072
0
LINE
8
BLACK
6
CONTINUOUS
10
4.86991
20
-3.24072
11
4.85759
21
-3.23391
0
LINE
8
BLACK
6
CONTINUOUS
10
4.85759
20
-3.23391
11
4.8461
21
-3.22576
0
LINE
8
BLACK
6
CONTINUOUS
10
4.8461
20
-3.22576
11
4.8356
21
-3.21637
0
LINE
8
BLACK
6
CONTINUOUS
10
4.8356
20
-3.21637
11
4.82621
21
-3.20587
0
LINE
8
BLACK
6
CONTINUOUS
10
4.82621
20
-3.20587
11
4.81806
21
-3.19438
0
LINE
8
BLACK
6
CONTINUOUS
10
4.81806
20
-3.19438
11
4.81125
21
-3.18205
0
LINE
8
BLACK
6
CONTINUOUS
10
4.81125
20
-3.18205
11
4.80586
21
-3.16904
0
LINE
8
BLACK
6
CONTINUOUS
10
4.80586
20
-3.16904
11
4.80196
21
-3.15551
0
LINE
8
BLACK
6
CONTINUOUS
10
4.80196
20
-3.15551
11
4.7996
21
-3.14162
0
LINE
8
BLACK
6
CONTINUOUS
10
4.7996
20
-3.14162
11
4.79881
21
-3.12756
0
LINE
8
BLACK
6
CONTINUOUS
10
4.79881
20
-3.12756
11
4.7996
21
-3.1135
0
LINE
8
BLACK
6
CONTINUOUS
10
4.7996
20
-3.1135
11
4.80196
21
-3.09961
0
LINE
8
BLACK
6
CONTINUOUS
10
4.80196
20
-3.09961
11
4.80586
21
-3.08608
0
LINE
8
BLACK
6
CONTINUOUS
10
4.80586
20
-3.08608
11
4.81125
21
-3.07306
0
LINE
8
BLACK
6
CONTINUOUS
10
4.81125
20
-3.07306
11
4.81806
21
-3.06074
0
LINE
8
BLACK
6
CONTINUOUS
10
4.81806
20
-3.06074
11
4.82621
21
-3.04925
0
LINE
8
BLACK
6
CONTINUOUS
10
4.82621
20
-3.04925
11
4.8356
21
-3.03875
0
LINE
8
BLACK
6
CONTINUOUS
10
4.8356
20
-3.03875
11
4.8461
21
-3.02936
0
LINE
8
BLACK
6
CONTINUOUS
10
4.8461
20
-3.02936
11
4.85759
21
-3.02121
0
LINE
8
BLACK
6
CONTINUOUS
10
4.85759
20
-3.02121
11
4.86991
21
-3.0144
0
LINE
8
BLACK
6
CONTINUOUS
10
4.86991
20
-3.0144
11
4.88293
21
-3.00901
0
LINE
8
BLACK
6
CONTINUOUS
10
4.88293
20
-3.00901
11
4.89646
21
-3.00511
0
LINE
8
BLACK
6
CONTINUOUS
10
4.89646
20
-3.00511
11
4.91035
21
-3.00275
0
LINE
8
BLACK
6
CONTINUOUS
10
4.91035
20
-3.00275
11
4.92441
21
-3.00196
0
LINE
8
BLACK
6
CONTINUOUS
10
4.92441
20
-3.00196
11
4.93847
21
-3.00275
0
LINE
8
BLACK
6
CONTINUOUS
10
4.81437
20
-3.14042
11
4.81661
21
-3.15311
0
LINE
8
BLACK
6
CONTINUOUS
10
4.81661
20
-3.15311
11
4.8203
21
-3.16545
0
LINE
8
BLACK
6
CONTINUOUS
10
4.8203
20
-3.16545
11
4.82541
21
-3.17728
0
LINE
8
BLACK
6
CONTINUOUS
10
4.82541
20
-3.17728
11
4.83185
21
-3.18844
0
LINE
8
BLACK
6
CONTINUOUS
10
4.83185
20
-3.18844
11
4.83954
21
-3.19877
0
LINE
8
BLACK
6
CONTINUOUS
10
4.83954
20
-3.19877
11
4.84838
21
-3.20814
0
LINE
8
BLACK
6
CONTINUOUS
10
4.84838
20
-3.20814
11
4.85825
21
-3.21642
0
LINE
8
BLACK
6
CONTINUOUS
10
4.85825
20
-3.21642
11
4.86902
21
-3.2235
0
LINE
8
BLACK
6
CONTINUOUS
10
4.86902
20
-3.2235
11
4.88053
21
-3.22929
0
LINE
8
BLACK
6
CONTINUOUS
10
4.88053
20
-3.22929
11
4.89264
21
-3.23369
0
LINE
8
BLACK
6
CONTINUOUS
10
4.89264
20
-3.23369
11
4.90517
21
-3.23666
0
LINE
8
BLACK
6
CONTINUOUS
10
4.90517
20
-3.23666
11
4.91797
21
-3.23816
0
LINE
8
BLACK
6
CONTINUOUS
10
4.91797
20
-3.23816
11
4.93085
21
-3.23816
0
LINE
8
BLACK
6
CONTINUOUS
10
4.93085
20
-3.23816
11
4.94365
21
-3.23666
0
LINE
8
BLACK
6
CONTINUOUS
10
4.94365
20
-3.23666
11
4.95618
21
-3.23369
0
LINE
8
BLACK
6
CONTINUOUS
10
4.95618
20
-3.23369
11
4.96829
21
-3.22929
0
LINE
8
BLACK
6
CONTINUOUS
10
4.96829
20
-3.22929
11
4.9798
21
-3.2235
0
LINE
8
BLACK
6
CONTINUOUS
10
4.9798
20
-3.2235
11
4.99057
21
-3.21642
0
LINE
8
BLACK
6
CONTINUOUS
10
4.99057
20
-3.21642
11
5.00044
21
-3.20814
0
LINE
8
BLACK
6
CONTINUOUS
10
5.00044
20
-3.20814
11
5.00928
21
-3.19877
0
LINE
8
BLACK
6
CONTINUOUS
10
5.00928
20
-3.19877
11
5.01697
21
-3.18844
0
LINE
8
BLACK
6
CONTINUOUS
10
5.01697
20
-3.18844
11
5.02341
21
-3.17728
0
LINE
8
BLACK
6
CONTINUOUS
10
5.02341
20
-3.17728
11
5.02852
21
-3.16545
0
LINE
8
BLACK
6
CONTINUOUS
10
5.02852
20
-3.16545
11
5.03221
21
-3.15311
0
LINE
8
BLACK
6
CONTINUOUS
10
5.03221
20
-3.15311
11
5.03445
21
-3.14042
0
LINE
8
BLACK
6
CONTINUOUS
10
5.03445
20
-3.14042
11
5.0352
21
-3.12756
0
LINE
8
BLACK
6
CONTINUOUS
10
5.0352
20
-3.12756
11
5.03445
21
-3.1147
0
LINE
8
BLACK
6
CONTINUOUS
10
5.03445
20
-3.1147
11
5.03221
21
-3.10201
0
LINE
8
BLACK
6
CONTINUOUS
10
5.03221
20
-3.10201
11
5.02852
21
-3.08967
0
LINE
8
BLACK
6
CONTINUOUS
10
5.02852
20
-3.08967
11
5.02341
21
-3.07784
0
LINE
8
BLACK
6
CONTINUOUS
10
5.02341
20
-3.07784
11
5.01697
21
-3.06668
0
LINE
8
BLACK
6
CONTINUOUS
10
5.01697
20
-3.06668
11
5.00928
21
-3.05635
0
LINE
8
BLACK
6
CONTINUOUS
10
5.00928
20
-3.05635
11
5.00044
21
-3.04698
0
LINE
8
BLACK
6
CONTINUOUS
10
5.00044
20
-3.04698
11
4.99057
21
-3.03869
0
LINE
8
BLACK
6
CONTINUOUS
10
4.99057
20
-3.03869
11
4.9798
21
-3.03161
0
LINE
8
BLACK
6
CONTINUOUS
10
4.9798
20
-3.03161
11
4.96829
21
-3.02583
0
LINE
8
BLACK
6
CONTINUOUS
10
4.96829
20
-3.02583
11
4.95618
21
-3.02143
0
LINE
8
BLACK
6
CONTINUOUS
10
4.95618
20
-3.02143
11
4.94365
21
-3.01845
0
LINE
8
BLACK
6
CONTINUOUS
10
4.94365
20
-3.01845
11
4.93085
21
-3.01696
0
LINE
8
BLACK
6
CONTINUOUS
10
4.93085
20
-3.01696
11
4.91797
21
-3.01696
0
LINE
8
BLACK
6
CONTINUOUS
10
4.91797
20
-3.01696
11
4.90517
21
-3.01845
0
LINE
8
BLACK
6
CONTINUOUS
10
4.90517
20
-3.01845
11
4.89264
21
-3.02143
0
LINE
8
BLACK
6
CONTINUOUS
10
4.89264
20
-3.02143
11
4.88053
21
-3.02583
0
LINE
8
BLACK
6
CONTINUOUS
10
4.88053
20
-3.02583
11
4.86902
21
-3.03161
0
LINE
8
BLACK
6
CONTINUOUS
10
4.86902
20
-3.03161
11
4.85825
21
-3.03869
0
LINE
8
BLACK
6
CONTINUOUS
10
4.85825
20
-3.03869
11
4.84838
21
-3.04698
0
LINE
8
BLACK
6
CONTINUOUS
10
4.84838
20
-3.04698
11
4.83954
21
-3.05635
0
LINE
8
BLACK
6
CONTINUOUS
10
4.83954
20
-3.05635
11
4.83185
21
-3.06668
0
LINE
8
BLACK
6
CONTINUOUS
10
4.83185
20
-3.06668
11
4.82541
21
-3.07784
0
LINE
8
BLACK
6
CONTINUOUS
10
4.82541
20
-3.07784
11
4.8203
21
-3.08967
0
LINE
8
BLACK
6
CONTINUOUS
10
4.8203
20
-3.08967
11
4.81661
21
-3.10201
0
LINE
8
BLACK
6
CONTINUOUS
10
4.81661
20
-3.10201
11
4.81437
21
-3.1147
0
LINE
8
BLACK
6
CONTINUOUS
10
4.81437
20
-3.1147
11
4.81362
21
-3.12756
0
LINE
8
BLACK
6
CONTINUOUS
10
4.81362
20
-3.12756
11
4.81437
21
-3.14042
0
LINE
8
BLACK
6
CONTINUOUS
10
6.13847
20
-3.00275
11
6.15236
21
-3.00511
0
LINE
8
BLACK
6
CONTINUOUS
10
6.15236
20
-3.00511
11
6.16589
21
-3.00901
0
LINE
8
BLACK
6
CONTINUOUS
10
6.16589
20
-3.00901
11
6.17891
21
-3.0144
0
LINE
8
BLACK
6
CONTINUOUS
10
6.17891
20
-3.0144
11
6.19123
21
-3.02121
0
LINE
8
BLACK
6
CONTINUOUS
10
6.19123
20
-3.02121
11
6.20272
21
-3.02936
0
LINE
8
BLACK
6
CONTINUOUS
10
6.20272
20
-3.02936
11
6.21322
21
-3.03875
0
LINE
8
BLACK
6
CONTINUOUS
10
6.21322
20
-3.03875
11
6.22261
21
-3.04925
0
LINE
8
BLACK
6
CONTINUOUS
10
6.22261
20
-3.04925
11
6.23076
21
-3.06074
0
LINE
8
BLACK
6
CONTINUOUS
10
6.23076
20
-3.06074
11
6.23757
21
-3.07306
0
LINE
8
BLACK
6
CONTINUOUS
10
6.23757
20
-3.07306
11
6.24296
21
-3.08608
0
LINE
8
BLACK
6
CONTINUOUS
10
6.24296
20
-3.08608
11
6.24686
21
-3.09961
0
LINE
8
BLACK
6
CONTINUOUS
10
6.24686
20
-3.09961
11
6.24922
21
-3.1135
0
LINE
8
BLACK
6
CONTINUOUS
10
6.24922
20
-3.1135
11
6.25001
21
-3.12756
0
LINE
8
BLACK
6
CONTINUOUS
10
6.25001
20
-3.12756
11
6.24922
21
-3.14162
0
LINE
8
BLACK
6
CONTINUOUS
10
6.24922
20
-3.14162
11
6.24686
21
-3.15551
0
LINE
8
BLACK
6
CONTINUOUS
10
6.24686
20
-3.15551
11
6.24296
21
-3.16904
0
LINE
8
BLACK
6
CONTINUOUS
10
6.24296
20
-3.16904
11
6.23757
21
-3.18205
0
LINE
8
BLACK
6
CONTINUOUS
10
6.23757
20
-3.18205
11
6.23076
21
-3.19438
0
LINE
8
BLACK
6
CONTINUOUS
10
6.23076
20
-3.19438
11
6.22261
21
-3.20587
0
LINE
8
BLACK
6
CONTINUOUS
10
6.22261
20
-3.20587
11
6.21322
21
-3.21637
0
LINE
8
BLACK
6
CONTINUOUS
10
6.21322
20
-3.21637
11
6.20272
21
-3.22576
0
LINE
8
BLACK
6
CONTINUOUS
10
6.20272
20
-3.22576
11
6.19123
21
-3.23391
0
LINE
8
BLACK
6
CONTINUOUS
10
6.19123
20
-3.23391
11
6.17891
21
-3.24072
0
LINE
8
BLACK
6
CONTINUOUS
10
6.17891
20
-3.24072
11
6.16589
21
-3.24611
0
LINE
8
BLACK
6
CONTINUOUS
10
6.16589
20
-3.24611
11
6.15236
21
-3.25001
0
LINE
8
BLACK
6
CONTINUOUS
10
6.15236
20
-3.25001
11
6.13847
21
-3.25237
0
LINE
8
BLACK
6
CONTINUOUS
10
6.13847
20
-3.25237
11
6.12441
21
-3.25316
0
LINE
8
BLACK
6
CONTINUOUS
10
6.12441
20
-3.25316
11
6.11035
21
-3.25237
0
LINE
8
BLACK
6
CONTINUOUS
10
6.11035
20
-3.25237
11
6.09646
21
-3.25001
0
LINE
8
BLACK
6
CONTINUOUS
10
6.09646
20
-3.25001
11
6.08293
21
-3.24611
0
LINE
8
BLACK
6
CONTINUOUS
10
6.08293
20
-3.24611
11
6.06991
21
-3.24072
0
LINE
8
BLACK
6
CONTINUOUS
10
6.06991
20
-3.24072
11
6.05759
21
-3.23391
0
LINE
8
BLACK
6
CONTINUOUS
10
6.05759
20
-3.23391
11
6.0461
21
-3.22576
0
LINE
8
BLACK
6
CONTINUOUS
10
6.0461
20
-3.22576
11
6.0356
21
-3.21637
0
LINE
8
BLACK
6
CONTINUOUS
10
6.0356
20
-3.21637
11
6.02621
21
-3.20587
0
LINE
8
BLACK
6
CONTINUOUS
10
6.02621
20
-3.20587
11
6.01806
21
-3.19438
0
LINE
8
BLACK
6
CONTINUOUS
10
6.01806
20
-3.19438
11
6.01125
21
-3.18205
0
LINE
8
BLACK
6
CONTINUOUS
10
6.01125
20
-3.18205
11
6.00586
21
-3.16904
0
LINE
8
BLACK
6
CONTINUOUS
10
6.00586
20
-3.16904
11
6.00196
21
-3.15551
0
LINE
8
BLACK
6
CONTINUOUS
10
6.00196
20
-3.15551
11
5.9996
21
-3.14162
0
LINE
8
BLACK
6
CONTINUOUS
10
5.9996
20
-3.14162
11
5.99881
21
-3.12756
0
LINE
8
BLACK
6
CONTINUOUS
10
5.99881
20
-3.12756
11
5.9996
21
-3.1135
0
LINE
8
BLACK
6
CONTINUOUS
10
5.9996
20
-3.1135
11
6.00196
21
-3.09961
0
LINE
8
BLACK
6
CONTINUOUS
10
6.00196
20
-3.09961
11
6.00586
21
-3.08608
0
LINE
8
BLACK
6
CONTINUOUS
10
6.00586
20
-3.08608
11
6.01125
21
-3.07306
0
LINE
8
BLACK
6
CONTINUOUS
10
6.01125
20
-3.07306
11
6.01806
21
-3.06074
0
LINE
8
BLACK
6
CONTINUOUS
10
6.01806
20
-3.06074
11
6.02621
21
-3.04925
0
LINE
8
BLACK
6
CONTINUOUS
10
6.02621
20
-3.04925
11
6.0356
21
-3.03875
0
LINE
8
BLACK
6
CONTINUOUS
10
6.0356
20
-3.03875
11
6.0461
21
-3.02936
0
LINE
8
BLACK
6
CONTINUOUS
10
6.0461
20
-3.02936
11
6.05759
21
-3.02121
0
LINE
8
BLACK
6
CONTINUOUS
10
6.05759
20
-3.02121
11
6.06991
21
-3.0144
0
LINE
8
BLACK
6
CONTINUOUS
10
6.06991
20
-3.0144
11
6.08293
21
-3.00901
0
LINE
8
BLACK
6
CONTINUOUS
10
6.08293
20
-3.00901
11
6.09646
21
-3.00511
0
LINE
8
BLACK
6
CONTINUOUS
10
6.09646
20
-3.00511
11
6.11035
21
-3.00275
0
LINE
8
BLACK
6
CONTINUOUS
10
6.11035
20
-3.00275
11
6.12441
21
-3.00196
0
LINE
8
BLACK
6
CONTINUOUS
10
6.12441
20
-3.00196
11
6.13847
21
-3.00275
0
LINE
8
BLACK
6
CONTINUOUS
10
6.01437
20
-3.14042
11
6.01661
21
-3.15311
0
LINE
8
BLACK
6
CONTINUOUS
10
6.01661
20
-3.15311
11
6.0203
21
-3.16545
0
LINE
8
BLACK
6
CONTINUOUS
10
6.0203
20
-3.16545
11
6.02541
21
-3.17728
0
LINE
8
BLACK
6
CONTINUOUS
10
6.02541
20
-3.17728
11
6.03185
21
-3.18844
0
LINE
8
BLACK
6
CONTINUOUS
10
6.03185
20
-3.18844
11
6.03954
21
-3.19877
0
LINE
8
BLACK
6
CONTINUOUS
10
6.03954
20
-3.19877
11
6.04838
21
-3.20814
0
LINE
8
BLACK
6
CONTINUOUS
10
6.04838
20
-3.20814
11
6.05825
21
-3.21642
0
LINE
8
BLACK
6
CONTINUOUS
10
6.05825
20
-3.21642
11
6.06902
21
-3.2235
0
LINE
8
BLACK
6
CONTINUOUS
10
6.06902
20
-3.2235
11
6.08053
21
-3.22929
0
LINE
8
BLACK
6
CONTINUOUS
10
6.08053
20
-3.22929
11
6.09264
21
-3.23369
0
LINE
8
BLACK
6
CONTINUOUS
10
6.09264
20
-3.23369
11
6.10517
21
-3.23666
0
LINE
8
BLACK
6
CONTINUOUS
10
6.10517
20
-3.23666
11
6.11797
21
-3.23816
0
LINE
8
BLACK
6
CONTINUOUS
10
6.11797
20
-3.23816
11
6.13085
21
-3.23816
0
LINE
8
BLACK
6
CONTINUOUS
10
6.13085
20
-3.23816
11
6.14365
21
-3.23666
0
LINE
8
BLACK
6
CONTINUOUS
10
6.14365
20
-3.23666
11
6.15618
21
-3.23369
0
LINE
8
BLACK
6
CONTINUOUS
10
6.15618
20
-3.23369
11
6.16829
21
-3.22929
0
LINE
8
BLACK
6
CONTINUOUS
10
6.16829
20
-3.22929
11
6.1798
21
-3.2235
0
LINE
8
BLACK
6
CONTINUOUS
10
6.1798
20
-3.2235
11
6.19057
21
-3.21642
0
LINE
8
BLACK
6
CONTINUOUS
10
6.19057
20
-3.21642
11
6.20044
21
-3.20814
0
LINE
8
BLACK
6
CONTINUOUS
10
6.20044
20
-3.20814
11
6.20928
21
-3.19877
0
LINE
8
BLACK
6
CONTINUOUS
10
6.20928
20
-3.19877
11
6.21697
21
-3.18844
0
LINE
8
BLACK
6
CONTINUOUS
10
6.21697
20
-3.18844
11
6.22341
21
-3.17728
0
LINE
8
BLACK
6
CONTINUOUS
10
6.22341
20
-3.17728
11
6.22852
21
-3.16545
0
LINE
8
BLACK
6
CONTINUOUS
10
6.22852
20
-3.16545
11
6.23221
21
-3.15311
0
LINE
8
BLACK
6
CONTINUOUS
10
6.23221
20
-3.15311
11
6.23445
21
-3.14042
0
LINE
8
BLACK
6
CONTINUOUS
10
6.23445
20
-3.14042
11
6.2352
21
-3.12756
0
LINE
8
BLACK
6
CONTINUOUS
10
6.2352
20
-3.12756
11
6.23445
21
-3.1147
0
LINE
8
BLACK
6
CONTINUOUS
10
6.23445
20
-3.1147
11
6.23221
21
-3.10201
0
LINE
8
BLACK
6
CONTINUOUS
10
6.23221
20
-3.10201
11
6.22852
21
-3.08967
0
LINE
8
BLACK
6
CONTINUOUS
10
6.22852
20
-3.08967
11
6.22341
21
-3.07784
0
LINE
8
BLACK
6
CONTINUOUS
10
6.22341
20
-3.07784
11
6.21697
21
-3.06668
0
LINE
8
BLACK
6
CONTINUOUS
10
6.21697
20
-3.06668
11
6.20928
21
-3.05635
0
LINE
8
BLACK
6
CONTINUOUS
10
6.20928
20
-3.05635
11
6.20044
21
-3.04698
0
LINE
8
BLACK
6
CONTINUOUS
10
6.20044
20
-3.04698
11
6.19057
21
-3.03869
0
LINE
8
BLACK
6
CONTINUOUS
10
6.19057
20
-3.03869
11
6.1798
21
-3.03161
0
LINE
8
BLACK
6
CONTINUOUS
10
6.1798
20
-3.03161
11
6.16829
21
-3.02583
0
LINE
8
BLACK
6
CONTINUOUS
10
6.16829
20
-3.02583
11
6.15618
21
-3.02143
0
LINE
8
BLACK
6
CONTINUOUS
10
6.15618
20
-3.02143
11
6.14365
21
-3.01845
0
LINE
8
BLACK
6
CONTINUOUS
10
6.14365
20
-3.01845
11
6.13085
21
-3.01696
0
LINE
8
BLACK
6
CONTINUOUS
10
6.13085
20
-3.01696
11
6.11797
21
-3.01696
0
LINE
8
BLACK
6
CONTINUOUS
10
6.11797
20
-3.01696
11
6.10517
21
-3.01845
0
LINE
8
BLACK
6
CONTINUOUS
10
6.10517
20
-3.01845
11
6.09264
21
-3.02143
0
LINE
8
BLACK
6
CONTINUOUS
10
6.09264
20
-3.02143
11
6.08053
21
-3.02583
0
LINE
8
BLACK
6
CONTINUOUS
10
6.08053
20
-3.02583
11
6.06902
21
-3.03161
0
LINE
8
BLACK
6
CONTINUOUS
10
6.06902
20
-3.03161
11
6.05825
21
-3.03869
0
LINE
8
BLACK
6
CONTINUOUS
10
6.05825
20
-3.03869
11
6.04838
21
-3.04698
0
LINE
8
BLACK
6
CONTINUOUS
10
6.04838
20
-3.04698
11
6.03954
21
-3.05635
0
LINE
8
BLACK
6
CONTINUOUS
10
6.03954
20
-3.05635
11
6.03185
21
-3.06668
0
LINE
8
BLACK
6
CONTINUOUS
10
6.03185
20
-3.06668
11
6.02541
21
-3.07784
0
LINE
8
BLACK
6
CONTINUOUS
10
6.02541
20
-3.07784
11
6.0203
21
-3.08967
0
LINE
8
BLACK
6
CONTINUOUS
10
6.0203
20
-3.08967
11
6.01661
21
-3.10201
0
LINE
8
BLACK
6
CONTINUOUS
10
6.01661
20
-3.10201
11
6.01437
21
-3.1147
0
LINE
8
BLACK
6
CONTINUOUS
10
6.01437
20
-3.1147
11
6.01362
21
-3.12756
0
LINE
8
BLACK
6
CONTINUOUS
10
6.01362
20
-3.12756
11
6.01437
21
-3.14042
  0
ENDSEC
  0
EOF
