  0
SECTION
  2
HEADER
  9
$ANGBASE
  50
0.0
  9
$ANGDIR
  70
1
  9
$MEASUREMENT
  70
0
  0
ENDSEC
  0
SECTION
  2
TABLES
  0
TABLE
  2
LTYPE
  70
4
  0
LTYPE
  5
40F
  2
CONTINUOUS
  70
0
  3
Solid line
  72
65
  73
0
  40
0.0
  0
LTYPE
  5
410
  2
DASHDOT
 70
0
  3
Dash Dot ____ _ ____ _
 72
65
 73
4
 40
2.0
 49
1.25
 49
-0.25
 49
0.25
 49
-0.25
  0
LTYPE
  5
411
  2
DASHED
 70
0
  3
Dashed __ __ __ __ __
 72
65
 73
2
 40
0.75
 49
0.5
 49
-0.25
  0
LTYPE
  5
43B
  2
DOTTED
 70
0
  3
Dotted .  .  .  .
 72
65
 73
2
 40
0.2
 49
0.0
 49
-0.2
  0
ENDTAB
  0
TABLE
  2
STYLE
  70
4
  0
STYLE
  2
KICAD
  70
0
  40
0
  41
1
  42
1
  50
0
  71
0
  3
isocp.shx
  0
STYLE
  2
KICADB
  70
0
  40
0
  41
1
  42
1
  50
0
  71
0
  3
isocp.shx
  0
STYLE
  2
KICADI
  70
0
  40
0
  41
1
  42
1
  50
15
  71
0
  3
isocp.shx
  0
STYLE
  2
KICADBI
  70
0
  40
0
  41
1
  42
1
  50
15
  71
0
  3
isocp.shx
  0
ENDTAB
  0
TABLE
  2
LAYER
  70
1
  0
LAYER
  2
BLACK
  70
0
  62
7
  6
CONTINUOUS
  0
ENDTAB
  0
ENDSEC
  0
SECTION
  2
ENTITIES
0
LINE
8
BLACK
6
CONTINUOUS
10
5.53819
20
-4.48569
11
5.53974
21
-4.48699
0
LINE
8
BLACK
6
CONTINUOUS
10
5.53974
20
-4.48699
11
5.54009
21
-4.48898
0
LINE
8
BLACK
6
CONTINUOUS
10
5.54009
20
-4.48898
11
5.53908
21
-4.49073
0
LINE
8
BLACK
6
CONTINUOUS
10
5.53908
20
-4.49073
11
5.53719
21
-4.49142
0
LINE
8
BLACK
6
CONTINUOUS
10
5.53719
20
-4.49142
11
5.49781
21
-4.49142
0
LINE
8
BLACK
6
CONTINUOUS
10
5.49781
20
-4.49142
11
5.49681
21
-4.49124
0
LINE
8
BLACK
6
CONTINUOUS
10
5.49681
20
-4.49124
11
5.49526
21
-4.48994
0
LINE
8
BLACK
6
CONTINUOUS
10
5.49526
20
-4.48994
11
5.49491
21
-4.48795
0
LINE
8
BLACK
6
CONTINUOUS
10
5.49491
20
-4.48795
11
5.49592
21
-4.4862
0
LINE
8
BLACK
6
CONTINUOUS
10
5.49592
20
-4.4862
11
5.49781
21
-4.48551
0
LINE
8
BLACK
6
CONTINUOUS
10
5.49781
20
-4.48551
11
5.53719
21
-4.48551
0
LINE
8
BLACK
6
CONTINUOUS
10
5.53719
20
-4.48551
11
5.53819
21
-4.48569
0
LINE
8
BLACK
6
CONTINUOUS
10
5.61722
20
-4.42571
11
5.61739
21
-4.4257
0
LINE
8
BLACK
6
CONTINUOUS
10
5.61739
20
-4.4257
11
5.61808
21
-4.42621
0
LINE
8
BLACK
6
CONTINUOUS
10
5.61808
20
-4.42621
11
5.61883
21
-4.42664
0
LINE
8
BLACK
6
CONTINUOUS
10
5.61883
20
-4.42664
11
5.61888
21
-4.4268
0
LINE
8
BLACK
6
CONTINUOUS
10
5.61888
20
-4.4268
11
5.61902
21
-4.4269
0
LINE
8
BLACK
6
CONTINUOUS
10
5.61902
20
-4.4269
11
5.62261
21
-4.43228
0
LINE
8
BLACK
6
CONTINUOUS
10
5.62261
20
-4.43228
11
5.62581
21
-4.43548
0
LINE
8
BLACK
6
CONTINUOUS
10
5.62581
20
-4.43548
11
5.62913
21
-4.43714
0
LINE
8
BLACK
6
CONTINUOUS
10
5.62913
20
-4.43714
11
5.62996
21
-4.43775
0
LINE
8
BLACK
6
CONTINUOUS
10
5.62996
20
-4.43775
11
5.63076
21
-4.43961
0
LINE
8
BLACK
6
CONTINUOUS
10
5.63076
20
-4.43961
11
5.63018
21
-4.44154
0
LINE
8
BLACK
6
CONTINUOUS
10
5.63018
20
-4.44154
11
5.6285
21
-4.44266
0
LINE
8
BLACK
6
CONTINUOUS
10
5.6285
20
-4.44266
11
5.62649
21
-4.44243
0
LINE
8
BLACK
6
CONTINUOUS
10
5.62649
20
-4.44243
11
5.62274
21
-4.44055
0
LINE
8
BLACK
6
CONTINUOUS
10
5.62274
20
-4.44055
11
5.62203
21
-4.44003
0
LINE
8
BLACK
6
CONTINUOUS
10
5.62203
20
-4.44003
11
5.62198
21
-4.44
0
LINE
8
BLACK
6
CONTINUOUS
10
5.62198
20
-4.44
11
5.61952
21
-4.43754
0
LINE
8
BLACK
6
CONTINUOUS
10
5.61952
20
-4.43754
11
5.61952
21
-4.46495
0
LINE
8
BLACK
6
CONTINUOUS
10
5.61952
20
-4.46495
11
5.62781
21
-4.46495
0
LINE
8
BLACK
6
CONTINUOUS
10
5.62781
20
-4.46495
11
5.62882
21
-4.46513
0
LINE
8
BLACK
6
CONTINUOUS
10
5.62882
20
-4.46513
11
5.63037
21
-4.46643
0
LINE
8
BLACK
6
CONTINUOUS
10
5.63037
20
-4.46643
11
5.63072
21
-4.46842
0
LINE
8
BLACK
6
CONTINUOUS
10
5.63072
20
-4.46842
11
5.62971
21
-4.47017
0
LINE
8
BLACK
6
CONTINUOUS
10
5.62971
20
-4.47017
11
5.62781
21
-4.47086
0
LINE
8
BLACK
6
CONTINUOUS
10
5.62781
20
-4.47086
11
5.60532
21
-4.47086
0
LINE
8
BLACK
6
CONTINUOUS
10
5.60532
20
-4.47086
11
5.60431
21
-4.47068
0
LINE
8
BLACK
6
CONTINUOUS
10
5.60431
20
-4.47068
11
5.60276
21
-4.46938
0
LINE
8
BLACK
6
CONTINUOUS
10
5.60276
20
-4.46938
11
5.60241
21
-4.46739
0
LINE
8
BLACK
6
CONTINUOUS
10
5.60241
20
-4.46739
11
5.60342
21
-4.46564
0
LINE
8
BLACK
6
CONTINUOUS
10
5.60342
20
-4.46564
11
5.60532
21
-4.46495
0
LINE
8
BLACK
6
CONTINUOUS
10
5.60532
20
-4.46495
11
5.61361
21
-4.46495
0
LINE
8
BLACK
6
CONTINUOUS
10
5.61361
20
-4.46495
11
5.61361
21
-4.42854
0
LINE
8
BLACK
6
CONTINUOUS
10
5.61361
20
-4.42854
11
5.61379
21
-4.42753
0
LINE
8
BLACK
6
CONTINUOUS
10
5.61379
20
-4.42753
11
5.6139
21
-4.4274
0
LINE
8
BLACK
6
CONTINUOUS
10
5.6139
20
-4.4274
11
5.61392
21
-4.42723
0
LINE
8
BLACK
6
CONTINUOUS
10
5.61392
20
-4.42723
11
5.61454
21
-4.42664
0
LINE
8
BLACK
6
CONTINUOUS
10
5.61454
20
-4.42664
11
5.61509
21
-4.42598
0
LINE
8
BLACK
6
CONTINUOUS
10
5.61509
20
-4.42598
11
5.61526
21
-4.42595
0
LINE
8
BLACK
6
CONTINUOUS
10
5.61526
20
-4.42595
11
5.61538
21
-4.42583
0
LINE
8
BLACK
6
CONTINUOUS
10
5.61538
20
-4.42583
11
5.61623
21
-4.42578
0
LINE
8
BLACK
6
CONTINUOUS
10
5.61623
20
-4.42578
11
5.61708
21
-4.42563
0
LINE
8
BLACK
6
CONTINUOUS
10
5.61708
20
-4.42563
11
5.61722
21
-4.42571
0
LINE
8
BLACK
6
CONTINUOUS
10
5.66007
20
-4.42664
11
5.66076
21
-4.42854
0
LINE
8
BLACK
6
CONTINUOUS
10
5.66076
20
-4.42854
11
5.66076
21
-4.46791
0
LINE
8
BLACK
6
CONTINUOUS
10
5.66076
20
-4.46791
11
5.66069
21
-4.46829
0
LINE
8
BLACK
6
CONTINUOUS
10
5.66069
20
-4.46829
11
5.66072
21
-4.46842
0
LINE
8
BLACK
6
CONTINUOUS
10
5.66072
20
-4.46842
11
5.66065
21
-4.46853
0
LINE
8
BLACK
6
CONTINUOUS
10
5.66065
20
-4.46853
11
5.66058
21
-4.46892
0
LINE
8
BLACK
6
CONTINUOUS
10
5.66058
20
-4.46892
11
5.66009
21
-4.4695
0
LINE
8
BLACK
6
CONTINUOUS
10
5.66009
20
-4.4695
11
5.65971
21
-4.47017
0
LINE
8
BLACK
6
CONTINUOUS
10
5.65971
20
-4.47017
11
5.65946
21
-4.47026
0
LINE
8
BLACK
6
CONTINUOUS
10
5.65946
20
-4.47026
11
5.65929
21
-4.47046
0
LINE
8
BLACK
6
CONTINUOUS
10
5.65929
20
-4.47046
11
5.65853
21
-4.4706
0
LINE
8
BLACK
6
CONTINUOUS
10
5.65853
20
-4.4706
11
5.65781
21
-4.47086
0
LINE
8
BLACK
6
CONTINUOUS
10
5.65781
20
-4.47086
11
5.63906
21
-4.47086
0
LINE
8
BLACK
6
CONTINUOUS
10
5.63906
20
-4.47086
11
5.63805
21
-4.47068
0
LINE
8
BLACK
6
CONTINUOUS
10
5.63805
20
-4.47068
11
5.6365
21
-4.46938
0
LINE
8
BLACK
6
CONTINUOUS
10
5.6365
20
-4.46938
11
5.63615
21
-4.46739
0
LINE
8
BLACK
6
CONTINUOUS
10
5.63615
20
-4.46739
11
5.63716
21
-4.46564
0
LINE
8
BLACK
6
CONTINUOUS
10
5.63716
20
-4.46564
11
5.63906
21
-4.46495
0
LINE
8
BLACK
6
CONTINUOUS
10
5.63906
20
-4.46495
11
5.65486
21
-4.46495
0
LINE
8
BLACK
6
CONTINUOUS
10
5.65486
20
-4.46495
11
5.65486
21
-4.42854
0
LINE
8
BLACK
6
CONTINUOUS
10
5.65486
20
-4.42854
11
5.65503
21
-4.42753
0
LINE
8
BLACK
6
CONTINUOUS
10
5.65503
20
-4.42753
11
5.65633
21
-4.42598
0
LINE
8
BLACK
6
CONTINUOUS
10
5.65633
20
-4.42598
11
5.65832
21
-4.42563
0
LINE
8
BLACK
6
CONTINUOUS
10
5.65832
20
-4.42563
11
5.66007
21
-4.42664
0
LINE
8
BLACK
6
CONTINUOUS
10
5.23927
20
-4.43723
11
5.24024
21
-4.439
0
LINE
8
BLACK
6
CONTINUOUS
10
5.24024
20
-4.439
11
5.23983
21
-4.44098
0
LINE
8
BLACK
6
CONTINUOUS
10
5.23983
20
-4.44098
11
5.23825
21
-4.44224
0
LINE
8
BLACK
6
CONTINUOUS
10
5.23825
20
-4.44224
11
5.22902
21
-4.44531
0
LINE
8
BLACK
6
CONTINUOUS
10
5.22902
20
-4.44531
11
5.22902
21
-4.4598
0
LINE
8
BLACK
6
CONTINUOUS
10
5.22902
20
-4.4598
11
5.23825
21
-4.46288
0
LINE
8
BLACK
6
CONTINUOUS
10
5.23825
20
-4.46288
11
5.23915
21
-4.46337
0
LINE
8
BLACK
6
CONTINUOUS
10
5.23915
20
-4.46337
11
5.24021
21
-4.46509
0
LINE
8
BLACK
6
CONTINUOUS
10
5.24021
20
-4.46509
11
5.23991
21
-4.46709
0
LINE
8
BLACK
6
CONTINUOUS
10
5.23991
20
-4.46709
11
5.2384
21
-4.46843
0
LINE
8
BLACK
6
CONTINUOUS
10
5.2384
20
-4.46843
11
5.23638
21
-4.46848
0
LINE
8
BLACK
6
CONTINUOUS
10
5.23638
20
-4.46848
11
5.19701
21
-4.45536
0
LINE
8
BLACK
6
CONTINUOUS
10
5.19701
20
-4.45536
11
5.19611
21
-4.45487
0
LINE
8
BLACK
6
CONTINUOUS
10
5.19611
20
-4.45487
11
5.19607
21
-4.4548
0
LINE
8
BLACK
6
CONTINUOUS
10
5.19607
20
-4.4548
11
5.19599
21
-4.45477
0
LINE
8
BLACK
6
CONTINUOUS
10
5.19599
20
-4.45477
11
5.19554
21
-4.45395
0
LINE
8
BLACK
6
CONTINUOUS
10
5.19554
20
-4.45395
11
5.19505
21
-4.45315
0
LINE
8
BLACK
6
CONTINUOUS
10
5.19505
20
-4.45315
11
5.19507
21
-4.45307
0
LINE
8
BLACK
6
CONTINUOUS
10
5.19507
20
-4.45307
11
5.19502
21
-4.45299
0
LINE
8
BLACK
6
CONTINUOUS
10
5.19502
20
-4.45299
11
5.19521
21
-4.45208
0
LINE
8
BLACK
6
CONTINUOUS
10
5.19521
20
-4.45208
11
5.19535
21
-4.45115
0
LINE
8
BLACK
6
CONTINUOUS
10
5.19535
20
-4.45115
11
5.19541
21
-4.4511
0
LINE
8
BLACK
6
CONTINUOUS
10
5.19541
20
-4.4511
11
5.19543
21
-4.45101
0
LINE
8
BLACK
6
CONTINUOUS
10
5.19543
20
-4.45101
11
5.19616
21
-4.45043
0
LINE
8
BLACK
6
CONTINUOUS
10
5.19616
20
-4.45043
11
5.19686
21
-4.44981
0
LINE
8
BLACK
6
CONTINUOUS
10
5.19686
20
-4.44981
11
5.19695
21
-4.44981
0
LINE
8
BLACK
6
CONTINUOUS
10
5.19695
20
-4.44981
11
5.19701
21
-4.44976
0
LINE
8
BLACK
6
CONTINUOUS
10
5.19701
20
-4.44976
11
5.23638
21
-4.43663
0
LINE
8
BLACK
6
CONTINUOUS
10
5.23638
20
-4.43663
11
5.2374
21
-4.43648
0
LINE
8
BLACK
6
CONTINUOUS
10
5.2374
20
-4.43648
11
5.23927
21
-4.43723
0
LINE
8
BLACK
6
CONTINUOUS
10
5.20728
20
-4.45256
11
5.22311
21
-4.45784
0
LINE
8
BLACK
6
CONTINUOUS
10
5.22311
20
-4.45784
11
5.22311
21
-4.44728
0
LINE
8
BLACK
6
CONTINUOUS
10
5.22311
20
-4.44728
11
5.20728
21
-4.45256
0
LINE
8
BLACK
6
CONTINUOUS
10
5.53819
20
-4.41876
11
5.53974
21
-4.42006
0
LINE
8
BLACK
6
CONTINUOUS
10
5.53974
20
-4.42006
11
5.54009
21
-4.42205
0
LINE
8
BLACK
6
CONTINUOUS
10
5.54009
20
-4.42205
11
5.53908
21
-4.4238
0
LINE
8
BLACK
6
CONTINUOUS
10
5.53908
20
-4.4238
11
5.53719
21
-4.42449
0
LINE
8
BLACK
6
CONTINUOUS
10
5.53719
20
-4.42449
11
5.49781
21
-4.42449
0
LINE
8
BLACK
6
CONTINUOUS
10
5.49781
20
-4.42449
11
5.49681
21
-4.42431
0
LINE
8
BLACK
6
CONTINUOUS
10
5.49681
20
-4.42431
11
5.49526
21
-4.42301
0
LINE
8
BLACK
6
CONTINUOUS
10
5.49526
20
-4.42301
11
5.49491
21
-4.42102
0
LINE
8
BLACK
6
CONTINUOUS
10
5.49491
20
-4.42102
11
5.49592
21
-4.41927
0
LINE
8
BLACK
6
CONTINUOUS
10
5.49592
20
-4.41927
11
5.49781
21
-4.41858
0
LINE
8
BLACK
6
CONTINUOUS
10
5.49781
20
-4.41858
11
5.53719
21
-4.41858
0
LINE
8
BLACK
6
CONTINUOUS
10
5.53719
20
-4.41858
11
5.53819
21
-4.41876
0
LINE
8
BLACK
6
CONTINUOUS
10
5.93845
20
-4.3664
11
5.93941
21
-4.36818
0
LINE
8
BLACK
6
CONTINUOUS
10
5.93941
20
-4.36818
11
5.939
21
-4.37015
0
LINE
8
BLACK
6
CONTINUOUS
10
5.939
20
-4.37015
11
5.93742
21
-4.37141
0
LINE
8
BLACK
6
CONTINUOUS
10
5.93742
20
-4.37141
11
5.92819
21
-4.37449
0
LINE
8
BLACK
6
CONTINUOUS
10
5.92819
20
-4.37449
11
5.92819
21
-4.38898
0
LINE
8
BLACK
6
CONTINUOUS
10
5.92819
20
-4.38898
11
5.93742
21
-4.39205
0
LINE
8
BLACK
6
CONTINUOUS
10
5.93742
20
-4.39205
11
5.93832
21
-4.39254
0
LINE
8
BLACK
6
CONTINUOUS
10
5.93832
20
-4.39254
11
5.93938
21
-4.39426
0
LINE
8
BLACK
6
CONTINUOUS
10
5.93938
20
-4.39426
11
5.93909
21
-4.39626
0
LINE
8
BLACK
6
CONTINUOUS
10
5.93909
20
-4.39626
11
5.93757
21
-4.3976
0
LINE
8
BLACK
6
CONTINUOUS
10
5.93757
20
-4.3976
11
5.93556
21
-4.39766
0
LINE
8
BLACK
6
CONTINUOUS
10
5.93556
20
-4.39766
11
5.89619
21
-4.38453
0
LINE
8
BLACK
6
CONTINUOUS
10
5.89619
20
-4.38453
11
5.89528
21
-4.38405
0
LINE
8
BLACK
6
CONTINUOUS
10
5.89528
20
-4.38405
11
5.89524
21
-4.38397
0
LINE
8
BLACK
6
CONTINUOUS
10
5.89524
20
-4.38397
11
5.89516
21
-4.38394
0
LINE
8
BLACK
6
CONTINUOUS
10
5.89516
20
-4.38394
11
5.89471
21
-4.38312
0
LINE
8
BLACK
6
CONTINUOUS
10
5.89471
20
-4.38312
11
5.89423
21
-4.38232
0
LINE
8
BLACK
6
CONTINUOUS
10
5.89423
20
-4.38232
11
5.89424
21
-4.38224
0
LINE
8
BLACK
6
CONTINUOUS
10
5.89424
20
-4.38224
11
5.8942
21
-4.38217
0
LINE
8
BLACK
6
CONTINUOUS
10
5.8942
20
-4.38217
11
5.89439
21
-4.38125
0
LINE
8
BLACK
6
CONTINUOUS
10
5.89439
20
-4.38125
11
5.89452
21
-4.38033
0
LINE
8
BLACK
6
CONTINUOUS
10
5.89452
20
-4.38033
11
5.89459
21
-4.38027
0
LINE
8
BLACK
6
CONTINUOUS
10
5.89459
20
-4.38027
11
5.8946
21
-4.38019
0
LINE
8
BLACK
6
CONTINUOUS
10
5.8946
20
-4.38019
11
5.89533
21
-4.37961
0
LINE
8
BLACK
6
CONTINUOUS
10
5.89533
20
-4.37961
11
5.89603
21
-4.37899
0
LINE
8
BLACK
6
CONTINUOUS
10
5.89603
20
-4.37899
11
5.89612
21
-4.37898
0
LINE
8
BLACK
6
CONTINUOUS
10
5.89612
20
-4.37898
11
5.89619
21
-4.37893
0
LINE
8
BLACK
6
CONTINUOUS
10
5.89619
20
-4.37893
11
5.93556
21
-4.36581
0
LINE
8
BLACK
6
CONTINUOUS
10
5.93556
20
-4.36581
11
5.93657
21
-4.36566
0
LINE
8
BLACK
6
CONTINUOUS
10
5.93657
20
-4.36566
11
5.93845
21
-4.3664
0
LINE
8
BLACK
6
CONTINUOUS
10
5.90646
20
-4.38173
11
5.92229
21
-4.38701
0
LINE
8
BLACK
6
CONTINUOUS
10
5.92229
20
-4.38701
11
5.92229
21
-4.37646
0
LINE
8
BLACK
6
CONTINUOUS
10
5.92229
20
-4.37646
11
5.90646
21
-4.38173
0
LINE
8
BLACK
6
CONTINUOUS
10
5.17032
20
-4.17618
11
5.17187
21
-4.17748
0
LINE
8
BLACK
6
CONTINUOUS
10
5.17187
20
-4.17748
11
5.17222
21
-4.17947
0
LINE
8
BLACK
6
CONTINUOUS
10
5.17222
20
-4.17947
11
5.17121
21
-4.18122
0
LINE
8
BLACK
6
CONTINUOUS
10
5.17121
20
-4.18122
11
5.16931
21
-4.18191
0
LINE
8
BLACK
6
CONTINUOUS
10
5.16931
20
-4.18191
11
5.15846
21
-4.18191
0
LINE
8
BLACK
6
CONTINUOUS
10
5.15846
20
-4.18191
11
5.15846
21
-4.19377
0
LINE
8
BLACK
6
CONTINUOUS
10
5.15846
20
-4.19377
11
5.16931
21
-4.19377
0
LINE
8
BLACK
6
CONTINUOUS
10
5.16931
20
-4.19377
11
5.17032
21
-4.19395
0
LINE
8
BLACK
6
CONTINUOUS
10
5.17032
20
-4.19395
11
5.17187
21
-4.19525
0
LINE
8
BLACK
6
CONTINUOUS
10
5.17187
20
-4.19525
11
5.17222
21
-4.19724
0
LINE
8
BLACK
6
CONTINUOUS
10
5.17222
20
-4.19724
11
5.17121
21
-4.19899
0
LINE
8
BLACK
6
CONTINUOUS
10
5.17121
20
-4.19899
11
5.16931
21
-4.19968
0
LINE
8
BLACK
6
CONTINUOUS
10
5.16931
20
-4.19968
11
5.15846
21
-4.19968
0
LINE
8
BLACK
6
CONTINUOUS
10
5.15846
20
-4.19968
11
5.15846
21
-4.35321
0
LINE
8
BLACK
6
CONTINUOUS
10
5.15846
20
-4.35321
11
5.16931
21
-4.35321
0
LINE
8
BLACK
6
CONTINUOUS
10
5.16931
20
-4.35321
11
5.17032
21
-4.35338
0
LINE
8
BLACK
6
CONTINUOUS
10
5.17032
20
-4.35338
11
5.17187
21
-4.35468
0
LINE
8
BLACK
6
CONTINUOUS
10
5.17187
20
-4.35468
11
5.17222
21
-4.35667
0
LINE
8
BLACK
6
CONTINUOUS
10
5.17222
20
-4.35667
11
5.17121
21
-4.35842
0
LINE
8
BLACK
6
CONTINUOUS
10
5.17121
20
-4.35842
11
5.16931
21
-4.35911
0
LINE
8
BLACK
6
CONTINUOUS
10
5.16931
20
-4.35911
11
5.15551
21
-4.35911
0
LINE
8
BLACK
6
CONTINUOUS
10
5.15551
20
-4.35911
11
5.15513
21
-4.35904
0
LINE
8
BLACK
6
CONTINUOUS
10
5.15513
20
-4.35904
11
5.155
21
-4.35907
0
LINE
8
BLACK
6
CONTINUOUS
10
5.155
20
-4.35907
11
5.15488
21
-4.359
0
LINE
8
BLACK
6
CONTINUOUS
10
5.15488
20
-4.359
11
5.1545
21
-4.35893
0
LINE
8
BLACK
6
CONTINUOUS
10
5.1545
20
-4.35893
11
5.15391
21
-4.35844
0
LINE
8
BLACK
6
CONTINUOUS
10
5.15391
20
-4.35844
11
5.15325
21
-4.35806
0
LINE
8
BLACK
6
CONTINUOUS
10
5.15325
20
-4.35806
11
5.15316
21
-4.35781
0
LINE
8
BLACK
6
CONTINUOUS
10
5.15316
20
-4.35781
11
5.15295
21
-4.35764
0
LINE
8
BLACK
6
CONTINUOUS
10
5.15295
20
-4.35764
11
5.15282
21
-4.35688
0
LINE
8
BLACK
6
CONTINUOUS
10
5.15282
20
-4.35688
11
5.15256
21
-4.35616
0
LINE
8
BLACK
6
CONTINUOUS
10
5.15256
20
-4.35616
11
5.15256
21
-4.17896
0
LINE
8
BLACK
6
CONTINUOUS
10
5.15256
20
-4.17896
11
5.15262
21
-4.17858
0
LINE
8
BLACK
6
CONTINUOUS
10
5.15262
20
-4.17858
11
5.1526
21
-4.17845
0
LINE
8
BLACK
6
CONTINUOUS
10
5.1526
20
-4.17845
11
5.15267
21
-4.17833
0
LINE
8
BLACK
6
CONTINUOUS
10
5.15267
20
-4.17833
11
5.15273
21
-4.17795
0
LINE
8
BLACK
6
CONTINUOUS
10
5.15273
20
-4.17795
11
5.15323
21
-4.17736
0
LINE
8
BLACK
6
CONTINUOUS
10
5.15323
20
-4.17736
11
5.15361
21
-4.1767
0
LINE
8
BLACK
6
CONTINUOUS
10
5.15361
20
-4.1767
11
5.15386
21
-4.17661
0
LINE
8
BLACK
6
CONTINUOUS
10
5.15386
20
-4.17661
11
5.15403
21
-4.1764
0
LINE
8
BLACK
6
CONTINUOUS
10
5.15403
20
-4.1764
11
5.15479
21
-4.17627
0
LINE
8
BLACK
6
CONTINUOUS
10
5.15479
20
-4.17627
11
5.15551
21
-4.17601
0
LINE
8
BLACK
6
CONTINUOUS
10
5.15551
20
-4.17601
11
5.16931
21
-4.17601
0
LINE
8
BLACK
6
CONTINUOUS
10
5.16931
20
-4.17601
11
5.17032
21
-4.17618
0
LINE
8
BLACK
6
CONTINUOUS
10
5.29369
20
-4.17607
11
5.29382
21
-4.17605
0
LINE
8
BLACK
6
CONTINUOUS
10
5.29382
20
-4.17605
11
5.29394
21
-4.17612
0
LINE
8
BLACK
6
CONTINUOUS
10
5.29394
20
-4.17612
11
5.29432
21
-4.17618
0
LINE
8
BLACK
6
CONTINUOUS
10
5.29432
20
-4.17618
11
5.29491
21
-4.17668
0
LINE
8
BLACK
6
CONTINUOUS
10
5.29491
20
-4.17668
11
5.29557
21
-4.17706
0
LINE
8
BLACK
6
CONTINUOUS
10
5.29557
20
-4.17706
11
5.29566
21
-4.17731
0
LINE
8
BLACK
6
CONTINUOUS
10
5.29566
20
-4.17731
11
5.29587
21
-4.17748
0
LINE
8
BLACK
6
CONTINUOUS
10
5.29587
20
-4.17748
11
5.296
21
-4.17824
0
LINE
8
BLACK
6
CONTINUOUS
10
5.296
20
-4.17824
11
5.29626
21
-4.17896
0
LINE
8
BLACK
6
CONTINUOUS
10
5.29626
20
-4.17896
11
5.29626
21
-4.35616
0
LINE
8
BLACK
6
CONTINUOUS
10
5.29626
20
-4.35616
11
5.29619
21
-4.35654
0
LINE
8
BLACK
6
CONTINUOUS
10
5.29619
20
-4.35654
11
5.29622
21
-4.35667
0
LINE
8
BLACK
6
CONTINUOUS
10
5.29622
20
-4.35667
11
5.29615
21
-4.35679
0
LINE
8
BLACK
6
CONTINUOUS
10
5.29615
20
-4.35679
11
5.29608
21
-4.35717
0
LINE
8
BLACK
6
CONTINUOUS
10
5.29608
20
-4.35717
11
5.29559
21
-4.35776
0
LINE
8
BLACK
6
CONTINUOUS
10
5.29559
20
-4.35776
11
5.29521
21
-4.35842
0
LINE
8
BLACK
6
CONTINUOUS
10
5.29521
20
-4.35842
11
5.29496
21
-4.35851
0
LINE
8
BLACK
6
CONTINUOUS
10
5.29496
20
-4.35851
11
5.29479
21
-4.35872
0
LINE
8
BLACK
6
CONTINUOUS
10
5.29479
20
-4.35872
11
5.29403
21
-4.35885
0
LINE
8
BLACK
6
CONTINUOUS
10
5.29403
20
-4.35885
11
5.29331
21
-4.35911
0
LINE
8
BLACK
6
CONTINUOUS
10
5.29331
20
-4.35911
11
5.27951
21
-4.35911
0
LINE
8
BLACK
6
CONTINUOUS
10
5.27951
20
-4.35911
11
5.2785
21
-4.35893
0
LINE
8
BLACK
6
CONTINUOUS
10
5.2785
20
-4.35893
11
5.27695
21
-4.35764
0
LINE
8
BLACK
6
CONTINUOUS
10
5.27695
20
-4.35764
11
5.2766
21
-4.35565
0
LINE
8
BLACK
6
CONTINUOUS
10
5.2766
20
-4.35565
11
5.27761
21
-4.3539
0
LINE
8
BLACK
6
CONTINUOUS
10
5.27761
20
-4.3539
11
5.27951
21
-4.35321
0
LINE
8
BLACK
6
CONTINUOUS
10
5.27951
20
-4.35321
11
5.29036
21
-4.35321
0
LINE
8
BLACK
6
CONTINUOUS
10
5.29036
20
-4.35321
11
5.29036
21
-4.19968
0
LINE
8
BLACK
6
CONTINUOUS
10
5.29036
20
-4.19968
11
5.27951
21
-4.19968
0
LINE
8
BLACK
6
CONTINUOUS
10
5.27951
20
-4.19968
11
5.2785
21
-4.1995
0
LINE
8
BLACK
6
CONTINUOUS
10
5.2785
20
-4.1995
11
5.27695
21
-4.1982
0
LINE
8
BLACK
6
CONTINUOUS
10
5.27695
20
-4.1982
11
5.2766
21
-4.19621
0
LINE
8
BLACK
6
CONTINUOUS
10
5.2766
20
-4.19621
11
5.27761
21
-4.19446
0
LINE
8
BLACK
6
CONTINUOUS
10
5.27761
20
-4.19446
11
5.27951
21
-4.19377
0
LINE
8
BLACK
6
CONTINUOUS
10
5.27951
20
-4.19377
11
5.29036
21
-4.19377
0
LINE
8
BLACK
6
CONTINUOUS
10
5.29036
20
-4.19377
11
5.29036
21
-4.18191
0
LINE
8
BLACK
6
CONTINUOUS
10
5.29036
20
-4.18191
11
5.27951
21
-4.18191
0
LINE
8
BLACK
6
CONTINUOUS
10
5.27951
20
-4.18191
11
5.2785
21
-4.18173
0
LINE
8
BLACK
6
CONTINUOUS
10
5.2785
20
-4.18173
11
5.27695
21
-4.18044
0
LINE
8
BLACK
6
CONTINUOUS
10
5.27695
20
-4.18044
11
5.2766
21
-4.17845
0
LINE
8
BLACK
6
CONTINUOUS
10
5.2766
20
-4.17845
11
5.27761
21
-4.1767
0
LINE
8
BLACK
6
CONTINUOUS
10
5.27761
20
-4.1767
11
5.27951
21
-4.17601
0
LINE
8
BLACK
6
CONTINUOUS
10
5.27951
20
-4.17601
11
5.29331
21
-4.17601
0
LINE
8
BLACK
6
CONTINUOUS
10
5.29331
20
-4.17601
11
5.29369
21
-4.17607
0
LINE
8
BLACK
6
CONTINUOUS
10
5.75032
20
-4.17618
11
5.75187
21
-4.17748
0
LINE
8
BLACK
6
CONTINUOUS
10
5.75187
20
-4.17748
11
5.75222
21
-4.17947
0
LINE
8
BLACK
6
CONTINUOUS
10
5.75222
20
-4.17947
11
5.75121
21
-4.18122
0
LINE
8
BLACK
6
CONTINUOUS
10
5.75121
20
-4.18122
11
5.74931
21
-4.18191
0
LINE
8
BLACK
6
CONTINUOUS
10
5.74931
20
-4.18191
11
5.73846
21
-4.18191
0
LINE
8
BLACK
6
CONTINUOUS
10
5.73846
20
-4.18191
11
5.73846
21
-4.19377
0
LINE
8
BLACK
6
CONTINUOUS
10
5.73846
20
-4.19377
11
5.74931
21
-4.19377
0
LINE
8
BLACK
6
CONTINUOUS
10
5.74931
20
-4.19377
11
5.75032
21
-4.19395
0
LINE
8
BLACK
6
CONTINUOUS
10
5.75032
20
-4.19395
11
5.75187
21
-4.19525
0
LINE
8
BLACK
6
CONTINUOUS
10
5.75187
20
-4.19525
11
5.75222
21
-4.19724
0
LINE
8
BLACK
6
CONTINUOUS
10
5.75222
20
-4.19724
11
5.75121
21
-4.19899
0
LINE
8
BLACK
6
CONTINUOUS
10
5.75121
20
-4.19899
11
5.74931
21
-4.19968
0
LINE
8
BLACK
6
CONTINUOUS
10
5.74931
20
-4.19968
11
5.73846
21
-4.19968
0
LINE
8
BLACK
6
CONTINUOUS
10
5.73846
20
-4.19968
11
5.73846
21
-4.35321
0
LINE
8
BLACK
6
CONTINUOUS
10
5.73846
20
-4.35321
11
5.74931
21
-4.35321
0
LINE
8
BLACK
6
CONTINUOUS
10
5.74931
20
-4.35321
11
5.75032
21
-4.35338
0
LINE
8
BLACK
6
CONTINUOUS
10
5.75032
20
-4.35338
11
5.75187
21
-4.35468
0
LINE
8
BLACK
6
CONTINUOUS
10
5.75187
20
-4.35468
11
5.75222
21
-4.35667
0
LINE
8
BLACK
6
CONTINUOUS
10
5.75222
20
-4.35667
11
5.75121
21
-4.35842
0
LINE
8
BLACK
6
CONTINUOUS
10
5.75121
20
-4.35842
11
5.74931
21
-4.35911
0
LINE
8
BLACK
6
CONTINUOUS
10
5.74931
20
-4.35911
11
5.73551
21
-4.35911
0
LINE
8
BLACK
6
CONTINUOUS
10
5.73551
20
-4.35911
11
5.73513
21
-4.35904
0
LINE
8
BLACK
6
CONTINUOUS
10
5.73513
20
-4.35904
11
5.735
21
-4.35907
0
LINE
8
BLACK
6
CONTINUOUS
10
5.735
20
-4.35907
11
5.73488
21
-4.359
0
LINE
8
BLACK
6
CONTINUOUS
10
5.73488
20
-4.359
11
5.7345
21
-4.35893
0
LINE
8
BLACK
6
CONTINUOUS
10
5.7345
20
-4.35893
11
5.73391
21
-4.35844
0
LINE
8
BLACK
6
CONTINUOUS
10
5.73391
20
-4.35844
11
5.73325
21
-4.35806
0
LINE
8
BLACK
6
CONTINUOUS
10
5.73325
20
-4.35806
11
5.73316
21
-4.35781
0
LINE
8
BLACK
6
CONTINUOUS
10
5.73316
20
-4.35781
11
5.73295
21
-4.35764
0
LINE
8
BLACK
6
CONTINUOUS
10
5.73295
20
-4.35764
11
5.73282
21
-4.35688
0
LINE
8
BLACK
6
CONTINUOUS
10
5.73282
20
-4.35688
11
5.73256
21
-4.35616
0
LINE
8
BLACK
6
CONTINUOUS
10
5.73256
20
-4.35616
11
5.73256
21
-4.17896
0
LINE
8
BLACK
6
CONTINUOUS
10
5.73256
20
-4.17896
11
5.73262
21
-4.17858
0
LINE
8
BLACK
6
CONTINUOUS
10
5.73262
20
-4.17858
11
5.7326
21
-4.17845
0
LINE
8
BLACK
6
CONTINUOUS
10
5.7326
20
-4.17845
11
5.73267
21
-4.17833
0
LINE
8
BLACK
6
CONTINUOUS
10
5.73267
20
-4.17833
11
5.73273
21
-4.17795
0
LINE
8
BLACK
6
CONTINUOUS
10
5.73273
20
-4.17795
11
5.73323
21
-4.17736
0
LINE
8
BLACK
6
CONTINUOUS
10
5.73323
20
-4.17736
11
5.73361
21
-4.1767
0
LINE
8
BLACK
6
CONTINUOUS
10
5.73361
20
-4.1767
11
5.73386
21
-4.17661
0
LINE
8
BLACK
6
CONTINUOUS
10
5.73386
20
-4.17661
11
5.73403
21
-4.1764
0
LINE
8
BLACK
6
CONTINUOUS
10
5.73403
20
-4.1764
11
5.73479
21
-4.17627
0
LINE
8
BLACK
6
CONTINUOUS
10
5.73479
20
-4.17627
11
5.73551
21
-4.17601
0
LINE
8
BLACK
6
CONTINUOUS
10
5.73551
20
-4.17601
11
5.74931
21
-4.17601
0
LINE
8
BLACK
6
CONTINUOUS
10
5.74931
20
-4.17601
11
5.75032
21
-4.17618
0
LINE
8
BLACK
6
CONTINUOUS
10
5.87369
20
-4.17607
11
5.87382
21
-4.17605
0
LINE
8
BLACK
6
CONTINUOUS
10
5.87382
20
-4.17605
11
5.87394
21
-4.17612
0
LINE
8
BLACK
6
CONTINUOUS
10
5.87394
20
-4.17612
11
5.87432
21
-4.17618
0
LINE
8
BLACK
6
CONTINUOUS
10
5.87432
20
-4.17618
11
5.87491
21
-4.17668
0
LINE
8
BLACK
6
CONTINUOUS
10
5.87491
20
-4.17668
11
5.87557
21
-4.17706
0
LINE
8
BLACK
6
CONTINUOUS
10
5.87557
20
-4.17706
11
5.87566
21
-4.17731
0
LINE
8
BLACK
6
CONTINUOUS
10
5.87566
20
-4.17731
11
5.87587
21
-4.17748
0
LINE
8
BLACK
6
CONTINUOUS
10
5.87587
20
-4.17748
11
5.876
21
-4.17824
0
LINE
8
BLACK
6
CONTINUOUS
10
5.876
20
-4.17824
11
5.87626
21
-4.17896
0
LINE
8
BLACK
6
CONTINUOUS
10
5.87626
20
-4.17896
11
5.87626
21
-4.35616
0
LINE
8
BLACK
6
CONTINUOUS
10
5.87626
20
-4.35616
11
5.87619
21
-4.35654
0
LINE
8
BLACK
6
CONTINUOUS
10
5.87619
20
-4.35654
11
5.87622
21
-4.35667
0
LINE
8
BLACK
6
CONTINUOUS
10
5.87622
20
-4.35667
11
5.87615
21
-4.35679
0
LINE
8
BLACK
6
CONTINUOUS
10
5.87615
20
-4.35679
11
5.87608
21
-4.35717
0
LINE
8
BLACK
6
CONTINUOUS
10
5.87608
20
-4.35717
11
5.87559
21
-4.35776
0
LINE
8
BLACK
6
CONTINUOUS
10
5.87559
20
-4.35776
11
5.87521
21
-4.35842
0
LINE
8
BLACK
6
CONTINUOUS
10
5.87521
20
-4.35842
11
5.87496
21
-4.35851
0
LINE
8
BLACK
6
CONTINUOUS
10
5.87496
20
-4.35851
11
5.87479
21
-4.35872
0
LINE
8
BLACK
6
CONTINUOUS
10
5.87479
20
-4.35872
11
5.87403
21
-4.35885
0
LINE
8
BLACK
6
CONTINUOUS
10
5.87403
20
-4.35885
11
5.87331
21
-4.35911
0
LINE
8
BLACK
6
CONTINUOUS
10
5.87331
20
-4.35911
11
5.85951
21
-4.35911
0
LINE
8
BLACK
6
CONTINUOUS
10
5.85951
20
-4.35911
11
5.8585
21
-4.35893
0
LINE
8
BLACK
6
CONTINUOUS
10
5.8585
20
-4.35893
11
5.85695
21
-4.35764
0
LINE
8
BLACK
6
CONTINUOUS
10
5.85695
20
-4.35764
11
5.8566
21
-4.35565
0
LINE
8
BLACK
6
CONTINUOUS
10
5.8566
20
-4.35565
11
5.85761
21
-4.3539
0
LINE
8
BLACK
6
CONTINUOUS
10
5.85761
20
-4.3539
11
5.85951
21
-4.35321
0
LINE
8
BLACK
6
CONTINUOUS
10
5.85951
20
-4.35321
11
5.87036
21
-4.35321
0
LINE
8
BLACK
6
CONTINUOUS
10
5.87036
20
-4.35321
11
5.87036
21
-4.19968
0
LINE
8
BLACK
6
CONTINUOUS
10
5.87036
20
-4.19968
11
5.85951
21
-4.19968
0
LINE
8
BLACK
6
CONTINUOUS
10
5.85951
20
-4.19968
11
5.8585
21
-4.1995
0
LINE
8
BLACK
6
CONTINUOUS
10
5.8585
20
-4.1995
11
5.85695
21
-4.1982
0
LINE
8
BLACK
6
CONTINUOUS
10
5.85695
20
-4.1982
11
5.8566
21
-4.19621
0
LINE
8
BLACK
6
CONTINUOUS
10
5.8566
20
-4.19621
11
5.85761
21
-4.19446
0
LINE
8
BLACK
6
CONTINUOUS
10
5.85761
20
-4.19446
11
5.85951
21
-4.19377
0
LINE
8
BLACK
6
CONTINUOUS
10
5.85951
20
-4.19377
11
5.87036
21
-4.19377
0
LINE
8
BLACK
6
CONTINUOUS
10
5.87036
20
-4.19377
11
5.87036
21
-4.18191
0
LINE
8
BLACK
6
CONTINUOUS
10
5.87036
20
-4.18191
11
5.85951
21
-4.18191
0
LINE
8
BLACK
6
CONTINUOUS
10
5.85951
20
-4.18191
11
5.8585
21
-4.18173
0
LINE
8
BLACK
6
CONTINUOUS
10
5.8585
20
-4.18173
11
5.85695
21
-4.18044
0
LINE
8
BLACK
6
CONTINUOUS
10
5.85695
20
-4.18044
11
5.8566
21
-4.17845
0
LINE
8
BLACK
6
CONTINUOUS
10
5.8566
20
-4.17845
11
5.85761
21
-4.1767
0
LINE
8
BLACK
6
CONTINUOUS
10
5.85761
20
-4.1767
11
5.85951
21
-4.17601
0
LINE
8
BLACK
6
CONTINUOUS
10
5.85951
20
-4.17601
11
5.87331
21
-4.17601
0
LINE
8
BLACK
6
CONTINUOUS
10
5.87331
20
-4.17601
11
5.87369
21
-4.17607
0
LINE
8
BLACK
6
CONTINUOUS
10
5.91095
20
-4.27362
11
5.91207
21
-4.27531
0
LINE
8
BLACK
6
CONTINUOUS
10
5.91207
20
-4.27531
11
5.91184
21
-4.27732
0
LINE
8
BLACK
6
CONTINUOUS
10
5.91184
20
-4.27732
11
5.90996
21
-4.28107
0
LINE
8
BLACK
6
CONTINUOUS
10
5.90996
20
-4.28107
11
5.90943
21
-4.28177
0
LINE
8
BLACK
6
CONTINUOUS
10
5.90943
20
-4.28177
11
5.90941
21
-4.28183
0
LINE
8
BLACK
6
CONTINUOUS
10
5.90941
20
-4.28183
11
5.90695
21
-4.28429
0
LINE
8
BLACK
6
CONTINUOUS
10
5.90695
20
-4.28429
11
5.93436
21
-4.28429
0
LINE
8
BLACK
6
CONTINUOUS
10
5.93436
20
-4.28429
11
5.93436
21
-4.276
0
LINE
8
BLACK
6
CONTINUOUS
10
5.93436
20
-4.276
11
5.93454
21
-4.27499
0
LINE
8
BLACK
6
CONTINUOUS
10
5.93454
20
-4.27499
11
5.93584
21
-4.27344
0
LINE
8
BLACK
6
CONTINUOUS
10
5.93584
20
-4.27344
11
5.93783
21
-4.27309
0
LINE
8
BLACK
6
CONTINUOUS
10
5.93783
20
-4.27309
11
5.93958
21
-4.2741
0
LINE
8
BLACK
6
CONTINUOUS
10
5.93958
20
-4.2741
11
5.94027
21
-4.276
0
LINE
8
BLACK
6
CONTINUOUS
10
5.94027
20
-4.276
11
5.94027
21
-4.29849
0
LINE
8
BLACK
6
CONTINUOUS
10
5.94027
20
-4.29849
11
5.94009
21
-4.2995
0
LINE
8
BLACK
6
CONTINUOUS
10
5.94009
20
-4.2995
11
5.93879
21
-4.30105
0
LINE
8
BLACK
6
CONTINUOUS
10
5.93879
20
-4.30105
11
5.9368
21
-4.3014
0
LINE
8
BLACK
6
CONTINUOUS
10
5.9368
20
-4.3014
11
5.93505
21
-4.30039
0
LINE
8
BLACK
6
CONTINUOUS
10
5.93505
20
-4.30039
11
5.93436
21
-4.29849
0
LINE
8
BLACK
6
CONTINUOUS
10
5.93436
20
-4.29849
11
5.93436
21
-4.2902
0
LINE
8
BLACK
6
CONTINUOUS
10
5.93436
20
-4.2902
11
5.89795
21
-4.2902
0
LINE
8
BLACK
6
CONTINUOUS
10
5.89795
20
-4.2902
11
5.89694
21
-4.29002
0
LINE
8
BLACK
6
CONTINUOUS
10
5.89694
20
-4.29002
11
5.89681
21
-4.28991
0
LINE
8
BLACK
6
CONTINUOUS
10
5.89681
20
-4.28991
11
5.89664
21
-4.28989
0
LINE
8
BLACK
6
CONTINUOUS
10
5.89664
20
-4.28989
11
5.89604
21
-4.28927
0
LINE
8
BLACK
6
CONTINUOUS
10
5.89604
20
-4.28927
11
5.89539
21
-4.28872
0
LINE
8
BLACK
6
CONTINUOUS
10
5.89539
20
-4.28872
11
5.89536
21
-4.28855
0
LINE
8
BLACK
6
CONTINUOUS
10
5.89536
20
-4.28855
11
5.89524
21
-4.28843
0
LINE
8
BLACK
6
CONTINUOUS
10
5.89524
20
-4.28843
11
5.89519
21
-4.28758
0
LINE
8
BLACK
6
CONTINUOUS
10
5.89519
20
-4.28758
11
5.89504
21
-4.28673
0
LINE
8
BLACK
6
CONTINUOUS
10
5.89504
20
-4.28673
11
5.89512
21
-4.28658
0
LINE
8
BLACK
6
CONTINUOUS
10
5.89512
20
-4.28658
11
5.89511
21
-4.28641
0
LINE
8
BLACK
6
CONTINUOUS
10
5.89511
20
-4.28641
11
5.89562
21
-4.28572
0
LINE
8
BLACK
6
CONTINUOUS
10
5.89562
20
-4.28572
11
5.89605
21
-4.28498
0
LINE
8
BLACK
6
CONTINUOUS
10
5.89605
20
-4.28498
11
5.89621
21
-4.28492
0
LINE
8
BLACK
6
CONTINUOUS
10
5.89621
20
-4.28492
11
5.89631
21
-4.28479
0
LINE
8
BLACK
6
CONTINUOUS
10
5.89631
20
-4.28479
11
5.90169
21
-4.2812
0
LINE
8
BLACK
6
CONTINUOUS
10
5.90169
20
-4.2812
11
5.90489
21
-4.278
0
LINE
8
BLACK
6
CONTINUOUS
10
5.90489
20
-4.278
11
5.90655
21
-4.27468
0
LINE
8
BLACK
6
CONTINUOUS
10
5.90655
20
-4.27468
11
5.90716
21
-4.27385
0
LINE
8
BLACK
6
CONTINUOUS
10
5.90716
20
-4.27385
11
5.90902
21
-4.27305
0
LINE
8
BLACK
6
CONTINUOUS
10
5.90902
20
-4.27305
11
5.91095
21
-4.27362
0
LINE
8
BLACK
6
CONTINUOUS
10
5.25104
20
-4.24872
11
5.25117
21
-4.24871
0
LINE
8
BLACK
6
CONTINUOUS
10
5.25117
20
-4.24871
11
5.2519
21
-4.24922
0
LINE
8
BLACK
6
CONTINUOUS
10
5.2519
20
-4.24922
11
5.25267
21
-4.24966
0
LINE
8
BLACK
6
CONTINUOUS
10
5.25267
20
-4.24966
11
5.25271
21
-4.24979
0
LINE
8
BLACK
6
CONTINUOUS
10
5.25271
20
-4.24979
11
5.25283
21
-4.24987
0
LINE
8
BLACK
6
CONTINUOUS
10
5.25283
20
-4.24987
11
5.25306
21
-4.25073
0
LINE
8
BLACK
6
CONTINUOUS
10
5.25306
20
-4.25073
11
5.25336
21
-4.25156
0
LINE
8
BLACK
6
CONTINUOUS
10
5.25336
20
-4.25156
11
5.25336
21
-4.27593
0
LINE
8
BLACK
6
CONTINUOUS
10
5.25336
20
-4.27593
11
5.25318
21
-4.27694
0
LINE
8
BLACK
6
CONTINUOUS
10
5.25318
20
-4.27694
11
5.25188
21
-4.27849
0
LINE
8
BLACK
6
CONTINUOUS
10
5.25188
20
-4.27849
11
5.24989
21
-4.27884
0
LINE
8
BLACK
6
CONTINUOUS
10
5.24989
20
-4.27884
11
5.24814
21
-4.27783
0
LINE
8
BLACK
6
CONTINUOUS
10
5.24814
20
-4.27783
11
5.24745
21
-4.27593
0
LINE
8
BLACK
6
CONTINUOUS
10
5.24745
20
-4.27593
11
5.24745
21
-4.25869
0
LINE
8
BLACK
6
CONTINUOUS
10
5.24745
20
-4.25869
11
5.23
21
-4.27615
0
LINE
8
BLACK
6
CONTINUOUS
10
5.23
20
-4.27615
11
5.22916
21
-4.27673
0
LINE
8
BLACK
6
CONTINUOUS
10
5.22916
20
-4.27673
11
5.22898
21
-4.27675
0
LINE
8
BLACK
6
CONTINUOUS
10
5.22898
20
-4.27675
11
5.22884
21
-4.27686
0
LINE
8
BLACK
6
CONTINUOUS
10
5.22884
20
-4.27686
11
5.22322
21
-4.27873
0
LINE
8
BLACK
6
CONTINUOUS
10
5.22322
20
-4.27873
11
5.22235
21
-4.27886
0
LINE
8
BLACK
6
CONTINUOUS
10
5.22235
20
-4.27886
11
5.22228
21
-4.27889
0
LINE
8
BLACK
6
CONTINUOUS
10
5.22228
20
-4.27889
11
5.21854
21
-4.27889
0
LINE
8
BLACK
6
CONTINUOUS
10
5.21854
20
-4.27889
11
5.21753
21
-4.27871
0
LINE
8
BLACK
6
CONTINUOUS
10
5.21753
20
-4.27871
11
5.21739
21
-4.27859
0
LINE
8
BLACK
6
CONTINUOUS
10
5.21739
20
-4.27859
11
5.21721
21
-4.27857
0
LINE
8
BLACK
6
CONTINUOUS
10
5.21721
20
-4.27857
11
5.21347
21
-4.2767
0
LINE
8
BLACK
6
CONTINUOUS
10
5.21347
20
-4.2767
11
5.21276
21
-4.27617
0
LINE
8
BLACK
6
CONTINUOUS
10
5.21276
20
-4.27617
11
5.2127
21
-4.27615
0
LINE
8
BLACK
6
CONTINUOUS
10
5.2127
20
-4.27615
11
5.21082
21
-4.27427
0
LINE
8
BLACK
6
CONTINUOUS
10
5.21082
20
-4.27427
11
5.21032
21
-4.27355
0
LINE
8
BLACK
6
CONTINUOUS
10
5.21032
20
-4.27355
11
5.21027
21
-4.2735
0
LINE
8
BLACK
6
CONTINUOUS
10
5.21027
20
-4.2735
11
5.2084
21
-4.26976
0
LINE
8
BLACK
6
CONTINUOUS
10
5.2084
20
-4.26976
11
5.2081
21
-4.26877
0
LINE
8
BLACK
6
CONTINUOUS
10
5.2081
20
-4.26877
11
5.20814
21
-4.2686
0
LINE
8
BLACK
6
CONTINUOUS
10
5.20814
20
-4.2686
11
5.20808
21
-4.26843
0
LINE
8
BLACK
6
CONTINUOUS
10
5.20808
20
-4.26843
11
5.20808
21
-4.25906
0
LINE
8
BLACK
6
CONTINUOUS
10
5.20808
20
-4.25906
11
5.20826
21
-4.25805
0
LINE
8
BLACK
6
CONTINUOUS
10
5.20826
20
-4.25805
11
5.20837
21
-4.25792
0
LINE
8
BLACK
6
CONTINUOUS
10
5.20837
20
-4.25792
11
5.2084
21
-4.25774
0
LINE
8
BLACK
6
CONTINUOUS
10
5.2084
20
-4.25774
11
5.21027
21
-4.25399
0
LINE
8
BLACK
6
CONTINUOUS
10
5.21027
20
-4.25399
11
5.2108
21
-4.25328
0
LINE
8
BLACK
6
CONTINUOUS
10
5.2108
20
-4.25328
11
5.21082
21
-4.25322
0
LINE
8
BLACK
6
CONTINUOUS
10
5.21082
20
-4.25322
11
5.2127
21
-4.25135
0
LINE
8
BLACK
6
CONTINUOUS
10
5.2127
20
-4.25135
11
5.21354
21
-4.25076
0
LINE
8
BLACK
6
CONTINUOUS
10
5.21354
20
-4.25076
11
5.21555
21
-4.25058
0
LINE
8
BLACK
6
CONTINUOUS
10
5.21555
20
-4.25058
11
5.2172
21
-4.25174
0
LINE
8
BLACK
6
CONTINUOUS
10
5.2172
20
-4.25174
11
5.21773
21
-4.25369
0
LINE
8
BLACK
6
CONTINUOUS
10
5.21773
20
-4.25369
11
5.21687
21
-4.25552
0
LINE
8
BLACK
6
CONTINUOUS
10
5.21687
20
-4.25552
11
5.21534
21
-4.25706
0
LINE
8
BLACK
6
CONTINUOUS
10
5.21534
20
-4.25706
11
5.21399
21
-4.25976
0
LINE
8
BLACK
6
CONTINUOUS
10
5.21399
20
-4.25976
11
5.21399
21
-4.26774
0
LINE
8
BLACK
6
CONTINUOUS
10
5.21399
20
-4.26774
11
5.21534
21
-4.27043
0
LINE
8
BLACK
6
CONTINUOUS
10
5.21534
20
-4.27043
11
5.21653
21
-4.27163
0
LINE
8
BLACK
6
CONTINUOUS
10
5.21653
20
-4.27163
11
5.21923
21
-4.27298
0
LINE
8
BLACK
6
CONTINUOUS
10
5.21923
20
-4.27298
11
5.22181
21
-4.27298
0
LINE
8
BLACK
6
CONTINUOUS
10
5.22181
20
-4.27298
11
5.22631
21
-4.27148
0
LINE
8
BLACK
6
CONTINUOUS
10
5.22631
20
-4.27148
11
5.24832
21
-4.24947
0
LINE
8
BLACK
6
CONTINUOUS
10
5.24832
20
-4.24947
11
5.24885
21
-4.2491
0
LINE
8
BLACK
6
CONTINUOUS
10
5.24885
20
-4.2491
11
5.24893
21
-4.249
0
LINE
8
BLACK
6
CONTINUOUS
10
5.24893
20
-4.249
11
5.24901
21
-4.24899
0
LINE
8
BLACK
6
CONTINUOUS
10
5.24901
20
-4.24899
11
5.24916
21
-4.24889
0
LINE
8
BLACK
6
CONTINUOUS
10
5.24916
20
-4.24889
11
5.25004
21
-4.24881
0
LINE
8
BLACK
6
CONTINUOUS
10
5.25004
20
-4.24881
11
5.25092
21
-4.24865
0
LINE
8
BLACK
6
CONTINUOUS
10
5.25092
20
-4.24865
11
5.25104
21
-4.24872
0
LINE
8
BLACK
6
CONTINUOUS
10
5.9377
20
-4.23562
11
5.93783
21
-4.23559
0
LINE
8
BLACK
6
CONTINUOUS
10
5.93783
20
-4.23559
11
5.93794
21
-4.23566
0
LINE
8
BLACK
6
CONTINUOUS
10
5.93794
20
-4.23566
11
5.93833
21
-4.23573
0
LINE
8
BLACK
6
CONTINUOUS
10
5.93833
20
-4.23573
11
5.93891
21
-4.23622
0
LINE
8
BLACK
6
CONTINUOUS
10
5.93891
20
-4.23622
11
5.93958
21
-4.2366
0
LINE
8
BLACK
6
CONTINUOUS
10
5.93958
20
-4.2366
11
5.93967
21
-4.23685
0
LINE
8
BLACK
6
CONTINUOUS
10
5.93967
20
-4.23685
11
5.93987
21
-4.23702
0
LINE
8
BLACK
6
CONTINUOUS
10
5.93987
20
-4.23702
11
5.94001
21
-4.23778
0
LINE
8
BLACK
6
CONTINUOUS
10
5.94001
20
-4.23778
11
5.94027
21
-4.2385
0
LINE
8
BLACK
6
CONTINUOUS
10
5.94027
20
-4.2385
11
5.94027
21
-4.24787
0
LINE
8
BLACK
6
CONTINUOUS
10
5.94027
20
-4.24787
11
5.94012
21
-4.24874
0
LINE
8
BLACK
6
CONTINUOUS
10
5.94012
20
-4.24874
11
5.94012
21
-4.24881
0
LINE
8
BLACK
6
CONTINUOUS
10
5.94012
20
-4.24881
11
5.93824
21
-4.25443
0
LINE
8
BLACK
6
CONTINUOUS
10
5.93824
20
-4.25443
11
5.93775
21
-4.25533
0
LINE
8
BLACK
6
CONTINUOUS
10
5.93775
20
-4.25533
11
5.9376
21
-4.25543
0
LINE
8
BLACK
6
CONTINUOUS
10
5.9376
20
-4.25543
11
5.93753
21
-4.25559
0
LINE
8
BLACK
6
CONTINUOUS
10
5.93753
20
-4.25559
11
5.93378
21
-4.25934
0
LINE
8
BLACK
6
CONTINUOUS
10
5.93378
20
-4.25934
11
5.93306
21
-4.25984
0
LINE
8
BLACK
6
CONTINUOUS
10
5.93306
20
-4.25984
11
5.93301
21
-4.25989
0
LINE
8
BLACK
6
CONTINUOUS
10
5.93301
20
-4.25989
11
5.92926
21
-4.26176
0
LINE
8
BLACK
6
CONTINUOUS
10
5.92926
20
-4.26176
11
5.92877
21
-4.26191
0
LINE
8
BLACK
6
CONTINUOUS
10
5.92877
20
-4.26191
11
5.92866
21
-4.26199
0
LINE
8
BLACK
6
CONTINUOUS
10
5.92866
20
-4.26199
11
5.92116
21
-4.26386
0
LINE
8
BLACK
6
CONTINUOUS
10
5.92116
20
-4.26386
11
5.92057
21
-4.2639
0
LINE
8
BLACK
6
CONTINUOUS
10
5.92057
20
-4.2639
11
5.92044
21
-4.26395
0
LINE
8
BLACK
6
CONTINUOUS
10
5.92044
20
-4.26395
11
5.91482
21
-4.26395
0
LINE
8
BLACK
6
CONTINUOUS
10
5.91482
20
-4.26395
11
5.91424
21
-4.26385
0
LINE
8
BLACK
6
CONTINUOUS
10
5.91424
20
-4.26385
11
5.9141
21
-4.26386
0
LINE
8
BLACK
6
CONTINUOUS
10
5.9141
20
-4.26386
11
5.9066
21
-4.26199
0
LINE
8
BLACK
6
CONTINUOUS
10
5.9066
20
-4.26199
11
5.90614
21
-4.26178
0
LINE
8
BLACK
6
CONTINUOUS
10
5.90614
20
-4.26178
11
5.906
21
-4.26176
0
LINE
8
BLACK
6
CONTINUOUS
10
5.906
20
-4.26176
11
5.90225
21
-4.25989
0
LINE
8
BLACK
6
CONTINUOUS
10
5.90225
20
-4.25989
11
5.90154
21
-4.25936
0
LINE
8
BLACK
6
CONTINUOUS
10
5.90154
20
-4.25936
11
5.90148
21
-4.25934
0
LINE
8
BLACK
6
CONTINUOUS
10
5.90148
20
-4.25934
11
5.89773
21
-4.25559
0
LINE
8
BLACK
6
CONTINUOUS
10
5.89773
20
-4.25559
11
5.89714
21
-4.25475
0
LINE
8
BLACK
6
CONTINUOUS
10
5.89714
20
-4.25475
11
5.89713
21
-4.25457
0
LINE
8
BLACK
6
CONTINUOUS
10
5.89713
20
-4.25457
11
5.89702
21
-4.25443
0
LINE
8
BLACK
6
CONTINUOUS
10
5.89702
20
-4.25443
11
5.89514
21
-4.24881
0
LINE
8
BLACK
6
CONTINUOUS
10
5.89514
20
-4.24881
11
5.89501
21
-4.24793
0
LINE
8
BLACK
6
CONTINUOUS
10
5.89501
20
-4.24793
11
5.89499
21
-4.24787
0
LINE
8
BLACK
6
CONTINUOUS
10
5.89499
20
-4.24787
11
5.89499
21
-4.2385
0
LINE
8
BLACK
6
CONTINUOUS
10
5.89499
20
-4.2385
11
5.89506
21
-4.23812
0
LINE
8
BLACK
6
CONTINUOUS
10
5.89506
20
-4.23812
11
5.89504
21
-4.23799
0
LINE
8
BLACK
6
CONTINUOUS
10
5.89504
20
-4.23799
11
5.8951
21
-4.23787
0
LINE
8
BLACK
6
CONTINUOUS
10
5.8951
20
-4.23787
11
5.89517
21
-4.23749
0
LINE
8
BLACK
6
CONTINUOUS
10
5.89517
20
-4.23749
11
5.89566
21
-4.2369
0
LINE
8
BLACK
6
CONTINUOUS
10
5.89566
20
-4.2369
11
5.89605
21
-4.23624
0
LINE
8
BLACK
6
CONTINUOUS
10
5.89605
20
-4.23624
11
5.8963
21
-4.23615
0
LINE
8
BLACK
6
CONTINUOUS
10
5.8963
20
-4.23615
11
5.89647
21
-4.23594
0
LINE
8
BLACK
6
CONTINUOUS
10
5.89647
20
-4.23594
11
5.89722
21
-4.23581
0
LINE
8
BLACK
6
CONTINUOUS
10
5.89722
20
-4.23581
11
5.89795
21
-4.23555
0
LINE
8
BLACK
6
CONTINUOUS
10
5.89795
20
-4.23555
11
5.93732
21
-4.23555
0
LINE
8
BLACK
6
CONTINUOUS
10
5.93732
20
-4.23555
11
5.9377
21
-4.23562
0
LINE
8
BLACK
6
CONTINUOUS
10
5.9009
20
-4.24739
11
5.9024
21
-4.2519
0
LINE
8
BLACK
6
CONTINUOUS
10
5.9024
20
-4.2519
11
5.90532
21
-4.25482
0
LINE
8
BLACK
6
CONTINUOUS
10
5.90532
20
-4.25482
11
5.90835
21
-4.25634
0
LINE
8
BLACK
6
CONTINUOUS
10
5.90835
20
-4.25634
11
5.91518
21
-4.25804
0
LINE
8
BLACK
6
CONTINUOUS
10
5.91518
20
-4.25804
11
5.92008
21
-4.25804
0
LINE
8
BLACK
6
CONTINUOUS
10
5.92008
20
-4.25804
11
5.92691
21
-4.25634
0
LINE
8
BLACK
6
CONTINUOUS
10
5.92691
20
-4.25634
11
5.92994
21
-4.25482
0
LINE
8
BLACK
6
CONTINUOUS
10
5.92994
20
-4.25482
11
5.93286
21
-4.2519
0
LINE
8
BLACK
6
CONTINUOUS
10
5.93286
20
-4.2519
11
5.93436
21
-4.24739
0
LINE
8
BLACK
6
CONTINUOUS
10
5.93436
20
-4.24739
11
5.93436
21
-4.24145
0
LINE
8
BLACK
6
CONTINUOUS
10
5.93436
20
-4.24145
11
5.9009
21
-4.24145
0
LINE
8
BLACK
6
CONTINUOUS
10
5.9009
20
-4.24145
11
5.9009
21
-4.24739
0
LINE
8
BLACK
6
CONTINUOUS
10
5.25079
20
-4.21306
11
5.25092
21
-4.21303
0
LINE
8
BLACK
6
CONTINUOUS
10
5.25092
20
-4.21303
11
5.25103
21
-4.2131
0
LINE
8
BLACK
6
CONTINUOUS
10
5.25103
20
-4.2131
11
5.25142
21
-4.21317
0
LINE
8
BLACK
6
CONTINUOUS
10
5.25142
20
-4.21317
11
5.252
21
-4.21366
0
LINE
8
BLACK
6
CONTINUOUS
10
5.252
20
-4.21366
11
5.25267
21
-4.21404
0
LINE
8
BLACK
6
CONTINUOUS
10
5.25267
20
-4.21404
11
5.25276
21
-4.21429
0
LINE
8
BLACK
6
CONTINUOUS
10
5.25276
20
-4.21429
11
5.25296
21
-4.21446
0
LINE
8
BLACK
6
CONTINUOUS
10
5.25296
20
-4.21446
11
5.2531
21
-4.21522
0
LINE
8
BLACK
6
CONTINUOUS
10
5.2531
20
-4.21522
11
5.25336
21
-4.21594
0
LINE
8
BLACK
6
CONTINUOUS
10
5.25336
20
-4.21594
11
5.25336
21
-4.22531
0
LINE
8
BLACK
6
CONTINUOUS
10
5.25336
20
-4.22531
11
5.25321
21
-4.22618
0
LINE
8
BLACK
6
CONTINUOUS
10
5.25321
20
-4.22618
11
5.25321
21
-4.22625
0
LINE
8
BLACK
6
CONTINUOUS
10
5.25321
20
-4.22625
11
5.25133
21
-4.23187
0
LINE
8
BLACK
6
CONTINUOUS
10
5.25133
20
-4.23187
11
5.25084
21
-4.23277
0
LINE
8
BLACK
6
CONTINUOUS
10
5.25084
20
-4.23277
11
5.25069
21
-4.23287
0
LINE
8
BLACK
6
CONTINUOUS
10
5.25069
20
-4.23287
11
5.25062
21
-4.23303
0
LINE
8
BLACK
6
CONTINUOUS
10
5.25062
20
-4.23303
11
5.24687
21
-4.23678
0
LINE
8
BLACK
6
CONTINUOUS
10
5.24687
20
-4.23678
11
5.24615
21
-4.23728
0
LINE
8
BLACK
6
CONTINUOUS
10
5.24615
20
-4.23728
11
5.2461
21
-4.23733
0
LINE
8
BLACK
6
CONTINUOUS
10
5.2461
20
-4.23733
11
5.24235
21
-4.2392
0
LINE
8
BLACK
6
CONTINUOUS
10
5.24235
20
-4.2392
11
5.24186
21
-4.23935
0
LINE
8
BLACK
6
CONTINUOUS
10
5.24186
20
-4.23935
11
5.24175
21
-4.23943
0
LINE
8
BLACK
6
CONTINUOUS
10
5.24175
20
-4.23943
11
5.23425
21
-4.2413
0
LINE
8
BLACK
6
CONTINUOUS
10
5.23425
20
-4.2413
11
5.23366
21
-4.24134
0
LINE
8
BLACK
6
CONTINUOUS
10
5.23366
20
-4.24134
11
5.23353
21
-4.24139
0
LINE
8
BLACK
6
CONTINUOUS
10
5.23353
20
-4.24139
11
5.22791
21
-4.24139
0
LINE
8
BLACK
6
CONTINUOUS
10
5.22791
20
-4.24139
11
5.22733
21
-4.24129
0
LINE
8
BLACK
6
CONTINUOUS
10
5.22733
20
-4.24129
11
5.22719
21
-4.2413
0
LINE
8
BLACK
6
CONTINUOUS
10
5.22719
20
-4.2413
11
5.21969
21
-4.23943
0
LINE
8
BLACK
6
CONTINUOUS
10
5.21969
20
-4.23943
11
5.21923
21
-4.23922
0
LINE
8
BLACK
6
CONTINUOUS
10
5.21923
20
-4.23922
11
5.21909
21
-4.2392
0
LINE
8
BLACK
6
CONTINUOUS
10
5.21909
20
-4.2392
11
5.21534
21
-4.23733
0
LINE
8
BLACK
6
CONTINUOUS
10
5.21534
20
-4.23733
11
5.21463
21
-4.2368
0
LINE
8
BLACK
6
CONTINUOUS
10
5.21463
20
-4.2368
11
5.21457
21
-4.23678
0
LINE
8
BLACK
6
CONTINUOUS
10
5.21457
20
-4.23678
11
5.21082
21
-4.23303
0
LINE
8
BLACK
6
CONTINUOUS
10
5.21082
20
-4.23303
11
5.21023
21
-4.23219
0
LINE
8
BLACK
6
CONTINUOUS
10
5.21023
20
-4.23219
11
5.21022
21
-4.23201
0
LINE
8
BLACK
6
CONTINUOUS
10
5.21022
20
-4.23201
11
5.21011
21
-4.23187
0
LINE
8
BLACK
6
CONTINUOUS
10
5.21011
20
-4.23187
11
5.20823
21
-4.22625
0
LINE
8
BLACK
6
CONTINUOUS
10
5.20823
20
-4.22625
11
5.20811
21
-4.22538
0
LINE
8
BLACK
6
CONTINUOUS
10
5.20811
20
-4.22538
11
5.20808
21
-4.22531
0
LINE
8
BLACK
6
CONTINUOUS
10
5.20808
20
-4.22531
11
5.20808
21
-4.21594
0
LINE
8
BLACK
6
CONTINUOUS
10
5.20808
20
-4.21594
11
5.20815
21
-4.21556
0
LINE
8
BLACK
6
CONTINUOUS
10
5.20815
20
-4.21556
11
5.20813
21
-4.21543
0
LINE
8
BLACK
6
CONTINUOUS
10
5.20813
20
-4.21543
11
5.20819
21
-4.21531
0
LINE
8
BLACK
6
CONTINUOUS
10
5.20819
20
-4.21531
11
5.20826
21
-4.21493
0
LINE
8
BLACK
6
CONTINUOUS
10
5.20826
20
-4.21493
11
5.20875
21
-4.21434
0
LINE
8
BLACK
6
CONTINUOUS
10
5.20875
20
-4.21434
11
5.20914
21
-4.21368
0
LINE
8
BLACK
6
CONTINUOUS
10
5.20914
20
-4.21368
11
5.20939
21
-4.21359
0
LINE
8
BLACK
6
CONTINUOUS
10
5.20939
20
-4.21359
11
5.20956
21
-4.21338
0
LINE
8
BLACK
6
CONTINUOUS
10
5.20956
20
-4.21338
11
5.21032
21
-4.21325
0
LINE
8
BLACK
6
CONTINUOUS
10
5.21032
20
-4.21325
11
5.21104
21
-4.21299
0
LINE
8
BLACK
6
CONTINUOUS
10
5.21104
20
-4.21299
11
5.25041
21
-4.21299
0
LINE
8
BLACK
6
CONTINUOUS
10
5.25041
20
-4.21299
11
5.25079
21
-4.21306
0
LINE
8
BLACK
6
CONTINUOUS
10
5.21399
20
-4.22484
11
5.21549
21
-4.22934
0
LINE
8
BLACK
6
CONTINUOUS
10
5.21549
20
-4.22934
11
5.21841
21
-4.23226
0
LINE
8
BLACK
6
CONTINUOUS
10
5.21841
20
-4.23226
11
5.22144
21
-4.23378
0
LINE
8
BLACK
6
CONTINUOUS
10
5.22144
20
-4.23378
11
5.22827
21
-4.23549
0
LINE
8
BLACK
6
CONTINUOUS
10
5.22827
20
-4.23549
11
5.23317
21
-4.23549
0
LINE
8
BLACK
6
CONTINUOUS
10
5.23317
20
-4.23549
11
5.24
21
-4.23378
0
LINE
8
BLACK
6
CONTINUOUS
10
5.24
20
-4.23378
11
5.24303
21
-4.23226
0
LINE
8
BLACK
6
CONTINUOUS
10
5.24303
20
-4.23226
11
5.24595
21
-4.22934
0
LINE
8
BLACK
6
CONTINUOUS
10
5.24595
20
-4.22934
11
5.24745
21
-4.22484
0
LINE
8
BLACK
6
CONTINUOUS
10
5.24745
20
-4.22484
11
5.24745
21
-4.21889
0
LINE
8
BLACK
6
CONTINUOUS
10
5.24745
20
-4.21889
11
5.21399
21
-4.21889
0
LINE
8
BLACK
6
CONTINUOUS
10
5.21399
20
-4.21889
11
5.21399
21
-4.22484
0
LINE
8
BLACK
6
CONTINUOUS
10
5.93947
20
-4.1403
11
5.94101
21
-4.1416
0
LINE
8
BLACK
6
CONTINUOUS
10
5.94101
20
-4.1416
11
5.94137
21
-4.14359
0
LINE
8
BLACK
6
CONTINUOUS
10
5.94137
20
-4.14359
11
5.94036
21
-4.14534
0
LINE
8
BLACK
6
CONTINUOUS
10
5.94036
20
-4.14534
11
5.93846
21
-4.14603
0
LINE
8
BLACK
6
CONTINUOUS
10
5.93846
20
-4.14603
11
5.92281
21
-4.14603
0
LINE
8
BLACK
6
CONTINUOUS
10
5.92281
20
-4.14603
11
5.92046
21
-4.14838
0
LINE
8
BLACK
6
CONTINUOUS
10
5.92046
20
-4.14838
11
5.94023
21
-4.16321
0
LINE
8
BLACK
6
CONTINUOUS
10
5.94023
20
-4.16321
11
5.94093
21
-4.16396
0
LINE
8
BLACK
6
CONTINUOUS
10
5.94093
20
-4.16396
11
5.94139
21
-4.16592
0
LINE
8
BLACK
6
CONTINUOUS
10
5.94139
20
-4.16592
11
5.94048
21
-4.16773
0
LINE
8
BLACK
6
CONTINUOUS
10
5.94048
20
-4.16773
11
5.93862
21
-4.16852
0
LINE
8
BLACK
6
CONTINUOUS
10
5.93862
20
-4.16852
11
5.93669
21
-4.16793
0
LINE
8
BLACK
6
CONTINUOUS
10
5.93669
20
-4.16793
11
5.91624
21
-4.1526
0
LINE
8
BLACK
6
CONTINUOUS
10
5.91624
20
-4.1526
11
5.90118
21
-4.16766
0
LINE
8
BLACK
6
CONTINUOUS
10
5.90118
20
-4.16766
11
5.90034
21
-4.16825
0
LINE
8
BLACK
6
CONTINUOUS
10
5.90034
20
-4.16825
11
5.89832
21
-4.16842
0
LINE
8
BLACK
6
CONTINUOUS
10
5.89832
20
-4.16842
11
5.89667
21
-4.16727
0
LINE
8
BLACK
6
CONTINUOUS
10
5.89667
20
-4.16727
11
5.89615
21
-4.16531
0
LINE
8
BLACK
6
CONTINUOUS
10
5.89615
20
-4.16531
11
5.897
21
-4.16348
0
LINE
8
BLACK
6
CONTINUOUS
10
5.897
20
-4.16348
11
5.91446
21
-4.14603
0
LINE
8
BLACK
6
CONTINUOUS
10
5.91446
20
-4.14603
11
5.89909
21
-4.14603
0
LINE
8
BLACK
6
CONTINUOUS
10
5.89909
20
-4.14603
11
5.89808
21
-4.14585
0
LINE
8
BLACK
6
CONTINUOUS
10
5.89808
20
-4.14585
11
5.89653
21
-4.14455
0
LINE
8
BLACK
6
CONTINUOUS
10
5.89653
20
-4.14455
11
5.89618
21
-4.14256
0
LINE
8
BLACK
6
CONTINUOUS
10
5.89618
20
-4.14256
11
5.89719
21
-4.14081
0
LINE
8
BLACK
6
CONTINUOUS
10
5.89719
20
-4.14081
11
5.89909
21
-4.14012
0
LINE
8
BLACK
6
CONTINUOUS
10
5.89909
20
-4.14012
11
5.93846
21
-4.14012
0
LINE
8
BLACK
6
CONTINUOUS
10
5.93846
20
-4.14012
11
5.93947
21
-4.1403
0
LINE
8
BLACK
6
CONTINUOUS
10
5.13333
20
-4.12947
11
5.13487
21
-4.13077
0
LINE
8
BLACK
6
CONTINUOUS
10
5.13487
20
-4.13077
11
5.13522
21
-4.13276
0
LINE
8
BLACK
6
CONTINUOUS
10
5.13522
20
-4.13276
11
5.13421
21
-4.13451
0
LINE
8
BLACK
6
CONTINUOUS
10
5.13421
20
-4.13451
11
5.13232
21
-4.1352
0
LINE
8
BLACK
6
CONTINUOUS
10
5.13232
20
-4.1352
11
5.11667
21
-4.1352
0
LINE
8
BLACK
6
CONTINUOUS
10
5.11667
20
-4.1352
11
5.11431
21
-4.13755
0
LINE
8
BLACK
6
CONTINUOUS
10
5.11431
20
-4.13755
11
5.13409
21
-4.15238
0
LINE
8
BLACK
6
CONTINUOUS
10
5.13409
20
-4.15238
11
5.13479
21
-4.15313
0
LINE
8
BLACK
6
CONTINUOUS
10
5.13479
20
-4.15313
11
5.13525
21
-4.1551
0
LINE
8
BLACK
6
CONTINUOUS
10
5.13525
20
-4.1551
11
5.13433
21
-4.1569
0
LINE
8
BLACK
6
CONTINUOUS
10
5.13433
20
-4.1569
11
5.13248
21
-4.15769
0
LINE
8
BLACK
6
CONTINUOUS
10
5.13248
20
-4.15769
11
5.13054
21
-4.15711
0
LINE
8
BLACK
6
CONTINUOUS
10
5.13054
20
-4.15711
11
5.1101
21
-4.14177
0
LINE
8
BLACK
6
CONTINUOUS
10
5.1101
20
-4.14177
11
5.09503
21
-4.15683
0
LINE
8
BLACK
6
CONTINUOUS
10
5.09503
20
-4.15683
11
5.09419
21
-4.15742
0
LINE
8
BLACK
6
CONTINUOUS
10
5.09419
20
-4.15742
11
5.09218
21
-4.1576
0
LINE
8
BLACK
6
CONTINUOUS
10
5.09218
20
-4.1576
11
5.09053
21
-4.15644
0
LINE
8
BLACK
6
CONTINUOUS
10
5.09053
20
-4.15644
11
5.09
21
-4.15449
0
LINE
8
BLACK
6
CONTINUOUS
10
5.09
20
-4.15449
11
5.09086
21
-4.15266
0
LINE
8
BLACK
6
CONTINUOUS
10
5.09086
20
-4.15266
11
5.10831
21
-4.1352
0
LINE
8
BLACK
6
CONTINUOUS
10
5.10831
20
-4.1352
11
5.09295
21
-4.1352
0
LINE
8
BLACK
6
CONTINUOUS
10
5.09295
20
-4.1352
11
5.09194
21
-4.13502
0
LINE
8
BLACK
6
CONTINUOUS
10
5.09194
20
-4.13502
11
5.09039
21
-4.13372
0
LINE
8
BLACK
6
CONTINUOUS
10
5.09039
20
-4.13372
11
5.09004
21
-4.13174
0
LINE
8
BLACK
6
CONTINUOUS
10
5.09004
20
-4.13174
11
5.09105
21
-4.12999
0
LINE
8
BLACK
6
CONTINUOUS
10
5.09105
20
-4.12999
11
5.09295
21
-4.1293
0
LINE
8
BLACK
6
CONTINUOUS
10
5.09295
20
-4.1293
11
5.13232
21
-4.1293
0
LINE
8
BLACK
6
CONTINUOUS
10
5.13232
20
-4.1293
11
5.13333
21
-4.12947
0
LINE
8
BLACK
6
CONTINUOUS
10
5.32795
20
-4.04253
11
5.32808
21
-4.04252
0
LINE
8
BLACK
6
CONTINUOUS
10
5.32808
20
-4.04252
11
5.32881
21
-4.04303
0
LINE
8
BLACK
6
CONTINUOUS
10
5.32881
20
-4.04303
11
5.32958
21
-4.04347
0
LINE
8
BLACK
6
CONTINUOUS
10
5.32958
20
-4.04347
11
5.32962
21
-4.0436
0
LINE
8
BLACK
6
CONTINUOUS
10
5.32962
20
-4.0436
11
5.32973
21
-4.04368
0
LINE
8
BLACK
6
CONTINUOUS
10
5.32973
20
-4.04368
11
5.32996
21
-4.04454
0
LINE
8
BLACK
6
CONTINUOUS
10
5.32996
20
-4.04454
11
5.33027
21
-4.04537
0
LINE
8
BLACK
6
CONTINUOUS
10
5.33027
20
-4.04537
11
5.33027
21
-4.06974
0
LINE
8
BLACK
6
CONTINUOUS
10
5.33027
20
-4.06974
11
5.33009
21
-4.07075
0
LINE
8
BLACK
6
CONTINUOUS
10
5.33009
20
-4.07075
11
5.32879
21
-4.0723
0
LINE
8
BLACK
6
CONTINUOUS
10
5.32879
20
-4.0723
11
5.3268
21
-4.07265
0
LINE
8
BLACK
6
CONTINUOUS
10
5.3268
20
-4.07265
11
5.32505
21
-4.07164
0
LINE
8
BLACK
6
CONTINUOUS
10
5.32505
20
-4.07164
11
5.32436
21
-4.06974
0
LINE
8
BLACK
6
CONTINUOUS
10
5.32436
20
-4.06974
11
5.32436
21
-4.0525
0
LINE
8
BLACK
6
CONTINUOUS
10
5.32436
20
-4.0525
11
5.30691
21
-4.06996
0
LINE
8
BLACK
6
CONTINUOUS
10
5.30691
20
-4.06996
11
5.30607
21
-4.07054
0
LINE
8
BLACK
6
CONTINUOUS
10
5.30607
20
-4.07054
11
5.30589
21
-4.07056
0
LINE
8
BLACK
6
CONTINUOUS
10
5.30589
20
-4.07056
11
5.30575
21
-4.07067
0
LINE
8
BLACK
6
CONTINUOUS
10
5.30575
20
-4.07067
11
5.30013
21
-4.07254
0
LINE
8
BLACK
6
CONTINUOUS
10
5.30013
20
-4.07254
11
5.29925
21
-4.07267
0
LINE
8
BLACK
6
CONTINUOUS
10
5.29925
20
-4.07267
11
5.29919
21
-4.0727
0
LINE
8
BLACK
6
CONTINUOUS
10
5.29919
20
-4.0727
11
5.29544
21
-4.0727
0
LINE
8
BLACK
6
CONTINUOUS
10
5.29544
20
-4.0727
11
5.29443
21
-4.07252
0
LINE
8
BLACK
6
CONTINUOUS
10
5.29443
20
-4.07252
11
5.2943
21
-4.0724
0
LINE
8
BLACK
6
CONTINUOUS
10
5.2943
20
-4.0724
11
5.29412
21
-4.07238
0
LINE
8
BLACK
6
CONTINUOUS
10
5.29412
20
-4.07238
11
5.29037
21
-4.07051
0
LINE
8
BLACK
6
CONTINUOUS
10
5.29037
20
-4.07051
11
5.28967
21
-4.06998
0
LINE
8
BLACK
6
CONTINUOUS
10
5.28967
20
-4.06998
11
5.28961
21
-4.06996
0
LINE
8
BLACK
6
CONTINUOUS
10
5.28961
20
-4.06996
11
5.28773
21
-4.06808
0
LINE
8
BLACK
6
CONTINUOUS
10
5.28773
20
-4.06808
11
5.28723
21
-4.06736
0
LINE
8
BLACK
6
CONTINUOUS
10
5.28723
20
-4.06736
11
5.28718
21
-4.06731
0
LINE
8
BLACK
6
CONTINUOUS
10
5.28718
20
-4.06731
11
5.2853
21
-4.06356
0
LINE
8
BLACK
6
CONTINUOUS
10
5.2853
20
-4.06356
11
5.28501
21
-4.06258
0
LINE
8
BLACK
6
CONTINUOUS
10
5.28501
20
-4.06258
11
5.28505
21
-4.06241
0
LINE
8
BLACK
6
CONTINUOUS
10
5.28505
20
-4.06241
11
5.28499
21
-4.06224
0
LINE
8
BLACK
6
CONTINUOUS
10
5.28499
20
-4.06224
11
5.28499
21
-4.05287
0
LINE
8
BLACK
6
CONTINUOUS
10
5.28499
20
-4.05287
11
5.28517
21
-4.05186
0
LINE
8
BLACK
6
CONTINUOUS
10
5.28517
20
-4.05186
11
5.28528
21
-4.05173
0
LINE
8
BLACK
6
CONTINUOUS
10
5.28528
20
-4.05173
11
5.2853
21
-4.05155
0
LINE
8
BLACK
6
CONTINUOUS
10
5.2853
20
-4.05155
11
5.28718
21
-4.0478
0
LINE
8
BLACK
6
CONTINUOUS
10
5.28718
20
-4.0478
11
5.28771
21
-4.04709
0
LINE
8
BLACK
6
CONTINUOUS
10
5.28771
20
-4.04709
11
5.28773
21
-4.04703
0
LINE
8
BLACK
6
CONTINUOUS
10
5.28773
20
-4.04703
11
5.28961
21
-4.04516
0
LINE
8
BLACK
6
CONTINUOUS
10
5.28961
20
-4.04516
11
5.29045
21
-4.04457
0
LINE
8
BLACK
6
CONTINUOUS
10
5.29045
20
-4.04457
11
5.29246
21
-4.04439
0
LINE
8
BLACK
6
CONTINUOUS
10
5.29246
20
-4.04439
11
5.29411
21
-4.04555
0
LINE
8
BLACK
6
CONTINUOUS
10
5.29411
20
-4.04555
11
5.29464
21
-4.0475
0
LINE
8
BLACK
6
CONTINUOUS
10
5.29464
20
-4.0475
11
5.29378
21
-4.04933
0
LINE
8
BLACK
6
CONTINUOUS
10
5.29378
20
-4.04933
11
5.29225
21
-4.05087
0
LINE
8
BLACK
6
CONTINUOUS
10
5.29225
20
-4.05087
11
5.2909
21
-4.05357
0
LINE
8
BLACK
6
CONTINUOUS
10
5.2909
20
-4.05357
11
5.2909
21
-4.06155
0
LINE
8
BLACK
6
CONTINUOUS
10
5.2909
20
-4.06155
11
5.29225
21
-4.06424
0
LINE
8
BLACK
6
CONTINUOUS
10
5.29225
20
-4.06424
11
5.29344
21
-4.06544
0
LINE
8
BLACK
6
CONTINUOUS
10
5.29344
20
-4.06544
11
5.29614
21
-4.06679
0
LINE
8
BLACK
6
CONTINUOUS
10
5.29614
20
-4.06679
11
5.29872
21
-4.06679
0
LINE
8
BLACK
6
CONTINUOUS
10
5.29872
20
-4.06679
11
5.30322
21
-4.06529
0
LINE
8
BLACK
6
CONTINUOUS
10
5.30322
20
-4.06529
11
5.32523
21
-4.04328
0
LINE
8
BLACK
6
CONTINUOUS
10
5.32523
20
-4.04328
11
5.32576
21
-4.04291
0
LINE
8
BLACK
6
CONTINUOUS
10
5.32576
20
-4.04291
11
5.32584
21
-4.04281
0
LINE
8
BLACK
6
CONTINUOUS
10
5.32584
20
-4.04281
11
5.32592
21
-4.0428
0
LINE
8
BLACK
6
CONTINUOUS
10
5.32592
20
-4.0428
11
5.32607
21
-4.0427
0
LINE
8
BLACK
6
CONTINUOUS
10
5.32607
20
-4.0427
11
5.32695
21
-4.04262
0
LINE
8
BLACK
6
CONTINUOUS
10
5.32695
20
-4.04262
11
5.32783
21
-4.04246
0
LINE
8
BLACK
6
CONTINUOUS
10
5.32783
20
-4.04246
11
5.32795
21
-4.04253
0
LINE
8
BLACK
6
CONTINUOUS
10
5.20321
20
-4.02598
11
5.2039
21
-4.02787
0
LINE
8
BLACK
6
CONTINUOUS
10
5.2039
20
-4.02787
11
5.2039
21
-4.06724
0
LINE
8
BLACK
6
CONTINUOUS
10
5.2039
20
-4.06724
11
5.20372
21
-4.06825
0
LINE
8
BLACK
6
CONTINUOUS
10
5.20372
20
-4.06825
11
5.20242
21
-4.0698
0
LINE
8
BLACK
6
CONTINUOUS
10
5.20242
20
-4.0698
11
5.20043
21
-4.07015
0
LINE
8
BLACK
6
CONTINUOUS
10
5.20043
20
-4.07015
11
5.19868
21
-4.06914
0
LINE
8
BLACK
6
CONTINUOUS
10
5.19868
20
-4.06914
11
5.19799
21
-4.06724
0
LINE
8
BLACK
6
CONTINUOUS
10
5.19799
20
-4.06724
11
5.19799
21
-4.02787
0
LINE
8
BLACK
6
CONTINUOUS
10
5.19799
20
-4.02787
11
5.19817
21
-4.02686
0
LINE
8
BLACK
6
CONTINUOUS
10
5.19817
20
-4.02686
11
5.19947
21
-4.02532
0
LINE
8
BLACK
6
CONTINUOUS
10
5.19947
20
-4.02532
11
5.20146
21
-4.02497
0
LINE
8
BLACK
6
CONTINUOUS
10
5.20146
20
-4.02497
11
5.20321
21
-4.02598
0
LINE
8
BLACK
6
CONTINUOUS
10
5.27014
20
-4.02598
11
5.27083
21
-4.02787
0
LINE
8
BLACK
6
CONTINUOUS
10
5.27083
20
-4.02787
11
5.27083
21
-4.06724
0
LINE
8
BLACK
6
CONTINUOUS
10
5.27083
20
-4.06724
11
5.27065
21
-4.06825
0
LINE
8
BLACK
6
CONTINUOUS
10
5.27065
20
-4.06825
11
5.26935
21
-4.0698
0
LINE
8
BLACK
6
CONTINUOUS
10
5.26935
20
-4.0698
11
5.26736
21
-4.07015
0
LINE
8
BLACK
6
CONTINUOUS
10
5.26736
20
-4.07015
11
5.26561
21
-4.06914
0
LINE
8
BLACK
6
CONTINUOUS
10
5.26561
20
-4.06914
11
5.26492
21
-4.06724
0
LINE
8
BLACK
6
CONTINUOUS
10
5.26492
20
-4.06724
11
5.26492
21
-4.02787
0
LINE
8
BLACK
6
CONTINUOUS
10
5.26492
20
-4.02787
11
5.2651
21
-4.02686
0
LINE
8
BLACK
6
CONTINUOUS
10
5.2651
20
-4.02686
11
5.2664
21
-4.02532
0
LINE
8
BLACK
6
CONTINUOUS
10
5.2664
20
-4.02532
11
5.26839
21
-4.02497
0
LINE
8
BLACK
6
CONTINUOUS
10
5.26839
20
-4.02497
11
5.27014
21
-4.02598
0
LINE
8
BLACK
6
CONTINUOUS
10
5.72629
20
-4.06384
11
5.72783
21
-4.06514
0
LINE
8
BLACK
6
CONTINUOUS
10
5.72783
20
-4.06514
11
5.72818
21
-4.06713
0
LINE
8
BLACK
6
CONTINUOUS
10
5.72818
20
-4.06713
11
5.72717
21
-4.06888
0
LINE
8
BLACK
6
CONTINUOUS
10
5.72717
20
-4.06888
11
5.72528
21
-4.06957
0
LINE
8
BLACK
6
CONTINUOUS
10
5.72528
20
-4.06957
11
5.56386
21
-4.06957
0
LINE
8
BLACK
6
CONTINUOUS
10
5.56386
20
-4.06957
11
5.56285
21
-4.06939
0
LINE
8
BLACK
6
CONTINUOUS
10
5.56285
20
-4.06939
11
5.5613
21
-4.06809
0
LINE
8
BLACK
6
CONTINUOUS
10
5.5613
20
-4.06809
11
5.56095
21
-4.0661
0
LINE
8
BLACK
6
CONTINUOUS
10
5.56095
20
-4.0661
11
5.56196
21
-4.06435
0
LINE
8
BLACK
6
CONTINUOUS
10
5.56196
20
-4.06435
11
5.56386
21
-4.06366
0
LINE
8
BLACK
6
CONTINUOUS
10
5.56386
20
-4.06366
11
5.72528
21
-4.06366
0
LINE
8
BLACK
6
CONTINUOUS
10
5.72528
20
-4.06366
11
5.72629
21
-4.06384
0
LINE
8
BLACK
6
CONTINUOUS
10
5.17597
20
-4.03384
11
5.17752
21
-4.03514
0
LINE
8
BLACK
6
CONTINUOUS
10
5.17752
20
-4.03514
11
5.17787
21
-4.03713
0
LINE
8
BLACK
6
CONTINUOUS
10
5.17787
20
-4.03713
11
5.17686
21
-4.03888
0
LINE
8
BLACK
6
CONTINUOUS
10
5.17686
20
-4.03888
11
5.17496
21
-4.03957
0
LINE
8
BLACK
6
CONTINUOUS
10
5.17496
20
-4.03957
11
5.01354
21
-4.03957
0
LINE
8
BLACK
6
CONTINUOUS
10
5.01354
20
-4.03957
11
5.01253
21
-4.03939
0
LINE
8
BLACK
6
CONTINUOUS
10
5.01253
20
-4.03939
11
5.01099
21
-4.03809
0
LINE
8
BLACK
6
CONTINUOUS
10
5.01099
20
-4.03809
11
5.01064
21
-4.0361
0
LINE
8
BLACK
6
CONTINUOUS
10
5.01064
20
-4.0361
11
5.01165
21
-4.03435
0
LINE
8
BLACK
6
CONTINUOUS
10
5.01165
20
-4.03435
11
5.01354
21
-4.03366
0
LINE
8
BLACK
6
CONTINUOUS
10
5.01354
20
-4.03366
11
5.17496
21
-4.03366
0
LINE
8
BLACK
6
CONTINUOUS
10
5.17496
20
-4.03366
11
5.17597
21
-4.03384
0
LINE
8
BLACK
6
CONTINUOUS
10
5.3277
20
-4.01436
11
5.32783
21
-4.01434
0
LINE
8
BLACK
6
CONTINUOUS
10
5.32783
20
-4.01434
11
5.32794
21
-4.01441
0
LINE
8
BLACK
6
CONTINUOUS
10
5.32794
20
-4.01441
11
5.32833
21
-4.01448
0
LINE
8
BLACK
6
CONTINUOUS
10
5.32833
20
-4.01448
11
5.32891
21
-4.01497
0
LINE
8
BLACK
6
CONTINUOUS
10
5.32891
20
-4.01497
11
5.32958
21
-4.01535
0
LINE
8
BLACK
6
CONTINUOUS
10
5.32958
20
-4.01535
11
5.32967
21
-4.0156
0
LINE
8
BLACK
6
CONTINUOUS
10
5.32967
20
-4.0156
11
5.32987
21
-4.01577
0
LINE
8
BLACK
6
CONTINUOUS
10
5.32987
20
-4.01577
11
5.33001
21
-4.01653
0
LINE
8
BLACK
6
CONTINUOUS
10
5.33001
20
-4.01653
11
5.33027
21
-4.01725
0
LINE
8
BLACK
6
CONTINUOUS
10
5.33027
20
-4.01725
11
5.33027
21
-4.036
0
LINE
8
BLACK
6
CONTINUOUS
10
5.33027
20
-4.036
11
5.33009
21
-4.03701
0
LINE
8
BLACK
6
CONTINUOUS
10
5.33009
20
-4.03701
11
5.32879
21
-4.03855
0
LINE
8
BLACK
6
CONTINUOUS
10
5.32879
20
-4.03855
11
5.3268
21
-4.03891
0
LINE
8
BLACK
6
CONTINUOUS
10
5.3268
20
-4.03891
11
5.32505
21
-4.0379
0
LINE
8
BLACK
6
CONTINUOUS
10
5.32505
20
-4.0379
11
5.32436
21
-4.036
0
LINE
8
BLACK
6
CONTINUOUS
10
5.32436
20
-4.036
11
5.32436
21
-4.0202
0
LINE
8
BLACK
6
CONTINUOUS
10
5.32436
20
-4.0202
11
5.28795
21
-4.0202
0
LINE
8
BLACK
6
CONTINUOUS
10
5.28795
20
-4.0202
11
5.28694
21
-4.02002
0
LINE
8
BLACK
6
CONTINUOUS
10
5.28694
20
-4.02002
11
5.28539
21
-4.01873
0
LINE
8
BLACK
6
CONTINUOUS
10
5.28539
20
-4.01873
11
5.28504
21
-4.01674
0
LINE
8
BLACK
6
CONTINUOUS
10
5.28504
20
-4.01674
11
5.28605
21
-4.01499
0
LINE
8
BLACK
6
CONTINUOUS
10
5.28605
20
-4.01499
11
5.28795
21
-4.0143
0
LINE
8
BLACK
6
CONTINUOUS
10
5.28795
20
-4.0143
11
5.32732
21
-4.0143
0
LINE
8
BLACK
6
CONTINUOUS
10
5.32732
20
-4.0143
11
5.3277
21
-4.01436
0
LINE
8
BLACK
6
CONTINUOUS
10
5.79038
20
-3.98327
11
5.79055
21
-3.98326
0
LINE
8
BLACK
6
CONTINUOUS
10
5.79055
20
-3.98326
11
5.79124
21
-3.98377
0
LINE
8
BLACK
6
CONTINUOUS
10
5.79124
20
-3.98377
11
5.79199
21
-3.9842
0
LINE
8
BLACK
6
CONTINUOUS
10
5.79199
20
-3.9842
11
5.79204
21
-3.98436
0
LINE
8
BLACK
6
CONTINUOUS
10
5.79204
20
-3.98436
11
5.79218
21
-3.98446
0
LINE
8
BLACK
6
CONTINUOUS
10
5.79218
20
-3.98446
11
5.79577
21
-3.98984
0
LINE
8
BLACK
6
CONTINUOUS
10
5.79577
20
-3.98984
11
5.79897
21
-3.99304
0
LINE
8
BLACK
6
CONTINUOUS
10
5.79897
20
-3.99304
11
5.80229
21
-3.9947
0
LINE
8
BLACK
6
CONTINUOUS
10
5.80229
20
-3.9947
11
5.80312
21
-3.99531
0
LINE
8
BLACK
6
CONTINUOUS
10
5.80312
20
-3.99531
11
5.80392
21
-3.99717
0
LINE
8
BLACK
6
CONTINUOUS
10
5.80392
20
-3.99717
11
5.80334
21
-3.9991
0
LINE
8
BLACK
6
CONTINUOUS
10
5.80334
20
-3.9991
11
5.80166
21
-4.00022
0
LINE
8
BLACK
6
CONTINUOUS
10
5.80166
20
-4.00022
11
5.79965
21
-3.99998
0
LINE
8
BLACK
6
CONTINUOUS
10
5.79965
20
-3.99998
11
5.7959
21
-3.99811
0
LINE
8
BLACK
6
CONTINUOUS
10
5.7959
20
-3.99811
11
5.79519
21
-3.99758
0
LINE
8
BLACK
6
CONTINUOUS
10
5.79519
20
-3.99758
11
5.79514
21
-3.99756
0
LINE
8
BLACK
6
CONTINUOUS
10
5.79514
20
-3.99756
11
5.79268
21
-3.9951
0
LINE
8
BLACK
6
CONTINUOUS
10
5.79268
20
-3.9951
11
5.79268
21
-4.02251
0
LINE
8
BLACK
6
CONTINUOUS
10
5.79268
20
-4.02251
11
5.80097
21
-4.02251
0
LINE
8
BLACK
6
CONTINUOUS
10
5.80097
20
-4.02251
11
5.80198
21
-4.02269
0
LINE
8
BLACK
6
CONTINUOUS
10
5.80198
20
-4.02269
11
5.80353
21
-4.02399
0
LINE
8
BLACK
6
CONTINUOUS
10
5.80353
20
-4.02399
11
5.80388
21
-4.02598
0
LINE
8
BLACK
6
CONTINUOUS
10
5.80388
20
-4.02598
11
5.80287
21
-4.02773
0
LINE
8
BLACK
6
CONTINUOUS
10
5.80287
20
-4.02773
11
5.80097
21
-4.02842
0
LINE
8
BLACK
6
CONTINUOUS
10
5.80097
20
-4.02842
11
5.77848
21
-4.02842
0
LINE
8
BLACK
6
CONTINUOUS
10
5.77848
20
-4.02842
11
5.77747
21
-4.02824
0
LINE
8
BLACK
6
CONTINUOUS
10
5.77747
20
-4.02824
11
5.77592
21
-4.02694
0
LINE
8
BLACK
6
CONTINUOUS
10
5.77592
20
-4.02694
11
5.77557
21
-4.02495
0
LINE
8
BLACK
6
CONTINUOUS
10
5.77557
20
-4.02495
11
5.77658
21
-4.0232
0
LINE
8
BLACK
6
CONTINUOUS
10
5.77658
20
-4.0232
11
5.77848
21
-4.02251
0
LINE
8
BLACK
6
CONTINUOUS
10
5.77848
20
-4.02251
11
5.78677
21
-4.02251
0
LINE
8
BLACK
6
CONTINUOUS
10
5.78677
20
-4.02251
11
5.78677
21
-3.9861
0
LINE
8
BLACK
6
CONTINUOUS
10
5.78677
20
-3.9861
11
5.78695
21
-3.98509
0
LINE
8
BLACK
6
CONTINUOUS
10
5.78695
20
-3.98509
11
5.78706
21
-3.98496
0
LINE
8
BLACK
6
CONTINUOUS
10
5.78706
20
-3.98496
11
5.78708
21
-3.98479
0
LINE
8
BLACK
6
CONTINUOUS
10
5.78708
20
-3.98479
11
5.7877
21
-3.98419
0
LINE
8
BLACK
6
CONTINUOUS
10
5.7877
20
-3.98419
11
5.78825
21
-3.98354
0
LINE
8
BLACK
6
CONTINUOUS
10
5.78825
20
-3.98354
11
5.78842
21
-3.98351
0
LINE
8
BLACK
6
CONTINUOUS
10
5.78842
20
-3.98351
11
5.78854
21
-3.98339
0
LINE
8
BLACK
6
CONTINUOUS
10
5.78854
20
-3.98339
11
5.78939
21
-3.98334
0
LINE
8
BLACK
6
CONTINUOUS
10
5.78939
20
-3.98334
11
5.79024
21
-3.98319
0
LINE
8
BLACK
6
CONTINUOUS
10
5.79024
20
-3.98319
11
5.79038
21
-3.98327
0
LINE
8
BLACK
6
CONTINUOUS
10
5.82809
20
-3.9833
11
5.82815
21
-3.98329
0
LINE
8
BLACK
6
CONTINUOUS
10
5.82815
20
-3.98329
11
5.83378
21
-3.98517
0
LINE
8
BLACK
6
CONTINUOUS
10
5.83378
20
-3.98517
11
5.83468
21
-3.98566
0
LINE
8
BLACK
6
CONTINUOUS
10
5.83468
20
-3.98566
11
5.83477
21
-3.98581
0
LINE
8
BLACK
6
CONTINUOUS
10
5.83477
20
-3.98581
11
5.83493
21
-3.98588
0
LINE
8
BLACK
6
CONTINUOUS
10
5.83493
20
-3.98588
11
5.83868
21
-3.98963
0
LINE
8
BLACK
6
CONTINUOUS
10
5.83868
20
-3.98963
11
5.83919
21
-3.99035
0
LINE
8
BLACK
6
CONTINUOUS
10
5.83919
20
-3.99035
11
5.83923
21
-3.9904
0
LINE
8
BLACK
6
CONTINUOUS
10
5.83923
20
-3.9904
11
5.84111
21
-3.99415
0
LINE
8
BLACK
6
CONTINUOUS
10
5.84111
20
-3.99415
11
5.84125
21
-3.99464
0
LINE
8
BLACK
6
CONTINUOUS
10
5.84125
20
-3.99464
11
5.84133
21
-3.99475
0
LINE
8
BLACK
6
CONTINUOUS
10
5.84133
20
-3.99475
11
5.84321
21
-4.00225
0
LINE
8
BLACK
6
CONTINUOUS
10
5.84321
20
-4.00225
11
5.84325
21
-4.00284
0
LINE
8
BLACK
6
CONTINUOUS
10
5.84325
20
-4.00284
11
5.8433
21
-4.00297
0
LINE
8
BLACK
6
CONTINUOUS
10
5.8433
20
-4.00297
11
5.8433
21
-4.00859
0
LINE
8
BLACK
6
CONTINUOUS
10
5.8433
20
-4.00859
11
5.84319
21
-4.00917
0
LINE
8
BLACK
6
CONTINUOUS
10
5.84319
20
-4.00917
11
5.84321
21
-4.00931
0
LINE
8
BLACK
6
CONTINUOUS
10
5.84321
20
-4.00931
11
5.84133
21
-4.01681
0
LINE
8
BLACK
6
CONTINUOUS
10
5.84133
20
-4.01681
11
5.84113
21
-4.01727
0
LINE
8
BLACK
6
CONTINUOUS
10
5.84113
20
-4.01727
11
5.84111
21
-4.01741
0
LINE
8
BLACK
6
CONTINUOUS
10
5.84111
20
-4.01741
11
5.83923
21
-4.02116
0
LINE
8
BLACK
6
CONTINUOUS
10
5.83923
20
-4.02116
11
5.83871
21
-4.02187
0
LINE
8
BLACK
6
CONTINUOUS
10
5.83871
20
-4.02187
11
5.83868
21
-4.02193
0
LINE
8
BLACK
6
CONTINUOUS
10
5.83868
20
-4.02193
11
5.83493
21
-4.02568
0
LINE
8
BLACK
6
CONTINUOUS
10
5.83493
20
-4.02568
11
5.83409
21
-4.02627
0
LINE
8
BLACK
6
CONTINUOUS
10
5.83409
20
-4.02627
11
5.83392
21
-4.02628
0
LINE
8
BLACK
6
CONTINUOUS
10
5.83392
20
-4.02628
11
5.83378
21
-4.02639
0
LINE
8
BLACK
6
CONTINUOUS
10
5.83378
20
-4.02639
11
5.82815
21
-4.02827
0
LINE
8
BLACK
6
CONTINUOUS
10
5.82815
20
-4.02827
11
5.82728
21
-4.0284
0
LINE
8
BLACK
6
CONTINUOUS
10
5.82728
20
-4.0284
11
5.82722
21
-4.02842
0
LINE
8
BLACK
6
CONTINUOUS
10
5.82722
20
-4.02842
11
5.82347
21
-4.02842
0
LINE
8
BLACK
6
CONTINUOUS
10
5.82347
20
-4.02842
11
5.8226
21
-4.02826
0
LINE
8
BLACK
6
CONTINUOUS
10
5.8226
20
-4.02826
11
5.82254
21
-4.02827
0
LINE
8
BLACK
6
CONTINUOUS
10
5.82254
20
-4.02827
11
5.81691
21
-4.02639
0
LINE
8
BLACK
6
CONTINUOUS
10
5.81691
20
-4.02639
11
5.81601
21
-4.0259
0
LINE
8
BLACK
6
CONTINUOUS
10
5.81601
20
-4.0259
11
5.81592
21
-4.02575
0
LINE
8
BLACK
6
CONTINUOUS
10
5.81592
20
-4.02575
11
5.81576
21
-4.02568
0
LINE
8
BLACK
6
CONTINUOUS
10
5.81576
20
-4.02568
11
5.81388
21
-4.0238
0
LINE
8
BLACK
6
CONTINUOUS
10
5.81388
20
-4.0238
11
5.81329
21
-4.02296
0
LINE
8
BLACK
6
CONTINUOUS
10
5.81329
20
-4.02296
11
5.81312
21
-4.02095
0
LINE
8
BLACK
6
CONTINUOUS
10
5.81312
20
-4.02095
11
5.81428
21
-4.0193
0
LINE
8
BLACK
6
CONTINUOUS
10
5.81428
20
-4.0193
11
5.81623
21
-4.01877
0
LINE
8
BLACK
6
CONTINUOUS
10
5.81623
20
-4.01877
11
5.81806
21
-4.01963
0
LINE
8
BLACK
6
CONTINUOUS
10
5.81806
20
-4.01963
11
5.81944
21
-4.02101
0
LINE
8
BLACK
6
CONTINUOUS
10
5.81944
20
-4.02101
11
5.82395
21
-4.02251
0
LINE
8
BLACK
6
CONTINUOUS
10
5.82395
20
-4.02251
11
5.82674
21
-4.02251
0
LINE
8
BLACK
6
CONTINUOUS
10
5.82674
20
-4.02251
11
5.83125
21
-4.02101
0
LINE
8
BLACK
6
CONTINUOUS
10
5.83125
20
-4.02101
11
5.83417
21
-4.01809
0
LINE
8
BLACK
6
CONTINUOUS
10
5.83417
20
-4.01809
11
5.83568
21
-4.01506
0
LINE
8
BLACK
6
CONTINUOUS
10
5.83568
20
-4.01506
11
5.83739
21
-4.00823
0
LINE
8
BLACK
6
CONTINUOUS
10
5.83739
20
-4.00823
11
5.83739
21
-4.00333
0
LINE
8
BLACK
6
CONTINUOUS
10
5.83739
20
-4.00333
11
5.83568
21
-3.9965
0
LINE
8
BLACK
6
CONTINUOUS
10
5.83568
20
-3.9965
11
5.83417
21
-3.99347
0
LINE
8
BLACK
6
CONTINUOUS
10
5.83417
20
-3.99347
11
5.83125
21
-3.99055
0
LINE
8
BLACK
6
CONTINUOUS
10
5.83125
20
-3.99055
11
5.82674
21
-3.98905
0
LINE
8
BLACK
6
CONTINUOUS
10
5.82674
20
-3.98905
11
5.82395
21
-3.98905
0
LINE
8
BLACK
6
CONTINUOUS
10
5.82395
20
-3.98905
11
5.81944
21
-3.99055
0
LINE
8
BLACK
6
CONTINUOUS
10
5.81944
20
-3.99055
11
5.81806
21
-3.99193
0
LINE
8
BLACK
6
CONTINUOUS
10
5.81806
20
-3.99193
11
5.81722
21
-3.99252
0
LINE
8
BLACK
6
CONTINUOUS
10
5.81722
20
-3.99252
11
5.81521
21
-3.9927
0
LINE
8
BLACK
6
CONTINUOUS
10
5.81521
20
-3.9927
11
5.81355
21
-3.99154
0
LINE
8
BLACK
6
CONTINUOUS
10
5.81355
20
-3.99154
11
5.81303
21
-3.98959
0
LINE
8
BLACK
6
CONTINUOUS
10
5.81303
20
-3.98959
11
5.81388
21
-3.98776
0
LINE
8
BLACK
6
CONTINUOUS
10
5.81388
20
-3.98776
11
5.81576
21
-3.98588
0
LINE
8
BLACK
6
CONTINUOUS
10
5.81576
20
-3.98588
11
5.8166
21
-3.98529
0
LINE
8
BLACK
6
CONTINUOUS
10
5.8166
20
-3.98529
11
5.81677
21
-3.98528
0
LINE
8
BLACK
6
CONTINUOUS
10
5.81677
20
-3.98528
11
5.81691
21
-3.98517
0
LINE
8
BLACK
6
CONTINUOUS
10
5.81691
20
-3.98517
11
5.82254
21
-3.98329
0
LINE
8
BLACK
6
CONTINUOUS
10
5.82254
20
-3.98329
11
5.82341
21
-3.98316
0
LINE
8
BLACK
6
CONTINUOUS
10
5.82341
20
-3.98316
11
5.82347
21
-3.98314
0
LINE
8
BLACK
6
CONTINUOUS
10
5.82347
20
-3.98314
11
5.82722
21
-3.98314
0
LINE
8
BLACK
6
CONTINUOUS
10
5.82722
20
-3.98314
11
5.82809
21
-3.9833
0
LINE
8
BLACK
6
CONTINUOUS
10
5.72629
20
-3.94573
11
5.72783
21
-3.94703
0
LINE
8
BLACK
6
CONTINUOUS
10
5.72783
20
-3.94703
11
5.72818
21
-3.94902
0
LINE
8
BLACK
6
CONTINUOUS
10
5.72818
20
-3.94902
11
5.72717
21
-3.95077
0
LINE
8
BLACK
6
CONTINUOUS
10
5.72717
20
-3.95077
11
5.72528
21
-3.95146
0
LINE
8
BLACK
6
CONTINUOUS
10
5.72528
20
-3.95146
11
5.56386
21
-3.95146
0
LINE
8
BLACK
6
CONTINUOUS
10
5.56386
20
-3.95146
11
5.56285
21
-3.95128
0
LINE
8
BLACK
6
CONTINUOUS
10
5.56285
20
-3.95128
11
5.5613
21
-3.94998
0
LINE
8
BLACK
6
CONTINUOUS
10
5.5613
20
-3.94998
11
5.56095
21
-3.94799
0
LINE
8
BLACK
6
CONTINUOUS
10
5.56095
20
-3.94799
11
5.56196
21
-3.94624
0
LINE
8
BLACK
6
CONTINUOUS
10
5.56196
20
-3.94624
11
5.56386
21
-3.94555
0
LINE
8
BLACK
6
CONTINUOUS
10
5.56386
20
-3.94555
11
5.72528
21
-3.94555
0
LINE
8
BLACK
6
CONTINUOUS
10
5.72528
20
-3.94555
11
5.72629
21
-3.94573
0
LINE
8
BLACK
6
CONTINUOUS
10
5.17597
20
-3.91573
11
5.17752
21
-3.91703
0
LINE
8
BLACK
6
CONTINUOUS
10
5.17752
20
-3.91703
11
5.17787
21
-3.91902
0
LINE
8
BLACK
6
CONTINUOUS
10
5.17787
20
-3.91902
11
5.17686
21
-3.92077
0
LINE
8
BLACK
6
CONTINUOUS
10
5.17686
20
-3.92077
11
5.17496
21
-3.92146
0
LINE
8
BLACK
6
CONTINUOUS
10
5.17496
20
-3.92146
11
5.01354
21
-3.92146
0
LINE
8
BLACK
6
CONTINUOUS
10
5.01354
20
-3.92146
11
5.01253
21
-3.92128
0
LINE
8
BLACK
6
CONTINUOUS
10
5.01253
20
-3.92128
11
5.01099
21
-3.91998
0
LINE
8
BLACK
6
CONTINUOUS
10
5.01099
20
-3.91998
11
5.01064
21
-3.91799
0
LINE
8
BLACK
6
CONTINUOUS
10
5.01064
20
-3.91799
11
5.01165
21
-3.91624
0
LINE
8
BLACK
6
CONTINUOUS
10
5.01165
20
-3.91624
11
5.01354
21
-3.91555
0
LINE
8
BLACK
6
CONTINUOUS
10
5.01354
20
-3.91555
11
5.17496
21
-3.91555
0
LINE
8
BLACK
6
CONTINUOUS
10
5.17496
20
-3.91555
11
5.17597
21
-3.91573
0
LINE
8
BLACK
6
CONTINUOUS
10
5.07925
20
-3.85817
11
5.07932
21
-3.85815
0
LINE
8
BLACK
6
CONTINUOUS
10
5.07932
20
-3.85815
11
5.07943
21
-3.8582
0
LINE
8
BLACK
6
CONTINUOUS
10
5.07943
20
-3.8582
11
5.08011
21
-3.85832
0
LINE
8
BLACK
6
CONTINUOUS
10
5.08011
20
-3.85832
11
5.08059
21
-3.85872
0
LINE
8
BLACK
6
CONTINUOUS
10
5.08059
20
-3.85872
11
5.08116
21
-3.85898
0
LINE
8
BLACK
6
CONTINUOUS
10
5.08116
20
-3.85898
11
5.08134
21
-3.85935
0
LINE
8
BLACK
6
CONTINUOUS
10
5.08134
20
-3.85935
11
5.08166
21
-3.85962
0
LINE
8
BLACK
6
CONTINUOUS
10
5.08166
20
-3.85962
11
5.08176
21
-3.86024
0
LINE
8
BLACK
6
CONTINUOUS
10
5.08176
20
-3.86024
11
5.08204
21
-3.8608
0
LINE
8
BLACK
6
CONTINUOUS
10
5.08204
20
-3.8608
11
5.08391
21
-3.87955
0
LINE
8
BLACK
6
CONTINUOUS
10
5.08391
20
-3.87955
11
5.08383
21
-3.88057
0
LINE
8
BLACK
6
CONTINUOUS
10
5.08383
20
-3.88057
11
5.08382
21
-3.88059
0
LINE
8
BLACK
6
CONTINUOUS
10
5.08382
20
-3.88059
11
5.08383
21
-3.88061
0
LINE
8
BLACK
6
CONTINUOUS
10
5.08383
20
-3.88061
11
5.08326
21
-3.88142
0
LINE
8
BLACK
6
CONTINUOUS
10
5.08326
20
-3.88142
11
5.0827
21
-3.88224
0
LINE
8
BLACK
6
CONTINUOUS
10
5.0827
20
-3.88224
11
5.08268
21
-3.88225
0
LINE
8
BLACK
6
CONTINUOUS
10
5.08268
20
-3.88225
11
5.08267
21
-3.88226
0
LINE
8
BLACK
6
CONTINUOUS
10
5.08267
20
-3.88226
11
5.08171
21
-3.88252
0
LINE
8
BLACK
6
CONTINUOUS
10
5.08171
20
-3.88252
11
5.08075
21
-3.88279
0
LINE
8
BLACK
6
CONTINUOUS
10
5.08075
20
-3.88279
11
5.08073
21
-3.88278
0
LINE
8
BLACK
6
CONTINUOUS
10
5.08073
20
-3.88278
11
5.08072
21
-3.88278
0
LINE
8
BLACK
6
CONTINUOUS
10
5.08072
20
-3.88278
11
5.07982
21
-3.88237
0
LINE
8
BLACK
6
CONTINUOUS
10
5.07982
20
-3.88237
11
5.07891
21
-3.88196
0
LINE
8
BLACK
6
CONTINUOUS
10
5.07891
20
-3.88196
11
5.0789
21
-3.88194
0
LINE
8
BLACK
6
CONTINUOUS
10
5.0789
20
-3.88194
11
5.07889
21
-3.88193
0
LINE
8
BLACK
6
CONTINUOUS
10
5.07889
20
-3.88193
11
5.07735
21
-3.88039
0
LINE
8
BLACK
6
CONTINUOUS
10
5.07735
20
-3.88039
11
5.07465
21
-3.87905
0
LINE
8
BLACK
6
CONTINUOUS
10
5.07465
20
-3.87905
11
5.06667
21
-3.87905
0
LINE
8
BLACK
6
CONTINUOUS
10
5.06667
20
-3.87905
11
5.06397
21
-3.88039
0
LINE
8
BLACK
6
CONTINUOUS
10
5.06397
20
-3.88039
11
5.06278
21
-3.88159
0
LINE
8
BLACK
6
CONTINUOUS
10
5.06278
20
-3.88159
11
5.06143
21
-3.88429
0
LINE
8
BLACK
6
CONTINUOUS
10
5.06143
20
-3.88429
11
5.06143
21
-3.89227
0
LINE
8
BLACK
6
CONTINUOUS
10
5.06143
20
-3.89227
11
5.06278
21
-3.89497
0
LINE
8
BLACK
6
CONTINUOUS
10
5.06278
20
-3.89497
11
5.06397
21
-3.89616
0
LINE
8
BLACK
6
CONTINUOUS
10
5.06397
20
-3.89616
11
5.06667
21
-3.89751
0
LINE
8
BLACK
6
CONTINUOUS
10
5.06667
20
-3.89751
11
5.07465
21
-3.89751
0
LINE
8
BLACK
6
CONTINUOUS
10
5.07465
20
-3.89751
11
5.07735
21
-3.89616
0
LINE
8
BLACK
6
CONTINUOUS
10
5.07735
20
-3.89616
11
5.07888
21
-3.89463
0
LINE
8
BLACK
6
CONTINUOUS
10
5.07888
20
-3.89463
11
5.07973
21
-3.89404
0
LINE
8
BLACK
6
CONTINUOUS
10
5.07973
20
-3.89404
11
5.08174
21
-3.89386
0
LINE
8
BLACK
6
CONTINUOUS
10
5.08174
20
-3.89386
11
5.08339
21
-3.89502
0
LINE
8
BLACK
6
CONTINUOUS
10
5.08339
20
-3.89502
11
5.08391
21
-3.89697
0
LINE
8
BLACK
6
CONTINUOUS
10
5.08391
20
-3.89697
11
5.08306
21
-3.8988
0
LINE
8
BLACK
6
CONTINUOUS
10
5.08306
20
-3.8988
11
5.08119
21
-3.90068
0
LINE
8
BLACK
6
CONTINUOUS
10
5.08119
20
-3.90068
11
5.08046
21
-3.90118
0
LINE
8
BLACK
6
CONTINUOUS
10
5.08046
20
-3.90118
11
5.08042
21
-3.90123
0
LINE
8
BLACK
6
CONTINUOUS
10
5.08042
20
-3.90123
11
5.07667
21
-3.90311
0
LINE
8
BLACK
6
CONTINUOUS
10
5.07667
20
-3.90311
11
5.07569
21
-3.9034
0
LINE
8
BLACK
6
CONTINUOUS
10
5.07569
20
-3.9034
11
5.07551
21
-3.90336
0
LINE
8
BLACK
6
CONTINUOUS
10
5.07551
20
-3.90336
11
5.07535
21
-3.90342
0
LINE
8
BLACK
6
CONTINUOUS
10
5.07535
20
-3.90342
11
5.06597
21
-3.90342
0
LINE
8
BLACK
6
CONTINUOUS
10
5.06597
20
-3.90342
11
5.06496
21
-3.90324
0
LINE
8
BLACK
6
CONTINUOUS
10
5.06496
20
-3.90324
11
5.06483
21
-3.90313
0
LINE
8
BLACK
6
CONTINUOUS
10
5.06483
20
-3.90313
11
5.06465
21
-3.90311
0
LINE
8
BLACK
6
CONTINUOUS
10
5.06465
20
-3.90311
11
5.0609
21
-3.90123
0
LINE
8
BLACK
6
CONTINUOUS
10
5.0609
20
-3.90123
11
5.0602
21
-3.90071
0
LINE
8
BLACK
6
CONTINUOUS
10
5.0602
20
-3.90071
11
5.06014
21
-3.90068
0
LINE
8
BLACK
6
CONTINUOUS
10
5.06014
20
-3.90068
11
5.05826
21
-3.8988
0
LINE
8
BLACK
6
CONTINUOUS
10
5.05826
20
-3.8988
11
5.05776
21
-3.89808
0
LINE
8
BLACK
6
CONTINUOUS
10
5.05776
20
-3.89808
11
5.05771
21
-3.89804
0
LINE
8
BLACK
6
CONTINUOUS
10
5.05771
20
-3.89804
11
5.05583
21
-3.89429
0
LINE
8
BLACK
6
CONTINUOUS
10
5.05583
20
-3.89429
11
5.05554
21
-3.8933
0
LINE
8
BLACK
6
CONTINUOUS
10
5.05554
20
-3.8933
11
5.05558
21
-3.89313
0
LINE
8
BLACK
6
CONTINUOUS
10
5.05558
20
-3.89313
11
5.05552
21
-3.89297
0
LINE
8
BLACK
6
CONTINUOUS
10
5.05552
20
-3.89297
11
5.05552
21
-3.88359
0
LINE
8
BLACK
6
CONTINUOUS
10
5.05552
20
-3.88359
11
5.0557
21
-3.88258
0
LINE
8
BLACK
6
CONTINUOUS
10
5.0557
20
-3.88258
11
5.05581
21
-3.88245
0
LINE
8
BLACK
6
CONTINUOUS
10
5.05581
20
-3.88245
11
5.05583
21
-3.88227
0
LINE
8
BLACK
6
CONTINUOUS
10
5.05583
20
-3.88227
11
5.05771
21
-3.87852
0
LINE
8
BLACK
6
CONTINUOUS
10
5.05771
20
-3.87852
11
5.05824
21
-3.87781
0
LINE
8
BLACK
6
CONTINUOUS
10
5.05824
20
-3.87781
11
5.05826
21
-3.87775
0
LINE
8
BLACK
6
CONTINUOUS
10
5.05826
20
-3.87775
11
5.06014
21
-3.87588
0
LINE
8
BLACK
6
CONTINUOUS
10
5.06014
20
-3.87588
11
5.06086
21
-3.87537
0
LINE
8
BLACK
6
CONTINUOUS
10
5.06086
20
-3.87537
11
5.0609
21
-3.87533
0
LINE
8
BLACK
6
CONTINUOUS
10
5.0609
20
-3.87533
11
5.06465
21
-3.87345
0
LINE
8
BLACK
6
CONTINUOUS
10
5.06465
20
-3.87345
11
5.06564
21
-3.87316
0
LINE
8
BLACK
6
CONTINUOUS
10
5.06564
20
-3.87316
11
5.06581
21
-3.8732
0
LINE
8
BLACK
6
CONTINUOUS
10
5.06581
20
-3.8732
11
5.06597
21
-3.87314
0
LINE
8
BLACK
6
CONTINUOUS
10
5.06597
20
-3.87314
11
5.07535
21
-3.87314
0
LINE
8
BLACK
6
CONTINUOUS
10
5.07535
20
-3.87314
11
5.07636
21
-3.87332
0
LINE
8
BLACK
6
CONTINUOUS
10
5.07636
20
-3.87332
11
5.07649
21
-3.87343
0
LINE
8
BLACK
6
CONTINUOUS
10
5.07649
20
-3.87343
11
5.07667
21
-3.87345
0
LINE
8
BLACK
6
CONTINUOUS
10
5.07667
20
-3.87345
11
5.0774
21
-3.87382
0
LINE
8
BLACK
6
CONTINUOUS
10
5.0774
20
-3.87382
11
5.07643
21
-3.86405
0
LINE
8
BLACK
6
CONTINUOUS
10
5.07643
20
-3.86405
11
5.06035
21
-3.86405
0
LINE
8
BLACK
6
CONTINUOUS
10
5.06035
20
-3.86405
11
5.05934
21
-3.86387
0
LINE
8
BLACK
6
CONTINUOUS
10
5.05934
20
-3.86387
11
5.05779
21
-3.86257
0
LINE
8
BLACK
6
CONTINUOUS
10
5.05779
20
-3.86257
11
5.05744
21
-3.86058
0
LINE
8
BLACK
6
CONTINUOUS
10
5.05744
20
-3.86058
11
5.05845
21
-3.85883
0
LINE
8
BLACK
6
CONTINUOUS
10
5.05845
20
-3.85883
11
5.06035
21
-3.85814
0
LINE
8
BLACK
6
CONTINUOUS
10
5.06035
20
-3.85814
11
5.0791
21
-3.85814
0
LINE
8
BLACK
6
CONTINUOUS
10
5.0791
20
-3.85814
11
5.07925
21
-3.85817
0
LINE
8
BLACK
6
CONTINUOUS
10
5.10809
20
-3.8583
11
5.10815
21
-3.85829
0
LINE
8
BLACK
6
CONTINUOUS
10
5.10815
20
-3.85829
11
5.11378
21
-3.86017
0
LINE
8
BLACK
6
CONTINUOUS
10
5.11378
20
-3.86017
11
5.11468
21
-3.86066
0
LINE
8
BLACK
6
CONTINUOUS
10
5.11468
20
-3.86066
11
5.11477
21
-3.86081
0
LINE
8
BLACK
6
CONTINUOUS
10
5.11477
20
-3.86081
11
5.11493
21
-3.86088
0
LINE
8
BLACK
6
CONTINUOUS
10
5.11493
20
-3.86088
11
5.11868
21
-3.86463
0
LINE
8
BLACK
6
CONTINUOUS
10
5.11868
20
-3.86463
11
5.11919
21
-3.86535
0
LINE
8
BLACK
6
CONTINUOUS
10
5.11919
20
-3.86535
11
5.11923
21
-3.8654
0
LINE
8
BLACK
6
CONTINUOUS
10
5.11923
20
-3.8654
11
5.12111
21
-3.86915
0
LINE
8
BLACK
6
CONTINUOUS
10
5.12111
20
-3.86915
11
5.12125
21
-3.86964
0
LINE
8
BLACK
6
CONTINUOUS
10
5.12125
20
-3.86964
11
5.12133
21
-3.86975
0
LINE
8
BLACK
6
CONTINUOUS
10
5.12133
20
-3.86975
11
5.12321
21
-3.87725
0
LINE
8
BLACK
6
CONTINUOUS
10
5.12321
20
-3.87725
11
5.12325
21
-3.87784
0
LINE
8
BLACK
6
CONTINUOUS
10
5.12325
20
-3.87784
11
5.1233
21
-3.87797
0
LINE
8
BLACK
6
CONTINUOUS
10
5.1233
20
-3.87797
11
5.1233
21
-3.88359
0
LINE
8
BLACK
6
CONTINUOUS
10
5.1233
20
-3.88359
11
5.12319
21
-3.88417
0
LINE
8
BLACK
6
CONTINUOUS
10
5.12319
20
-3.88417
11
5.12321
21
-3.88431
0
LINE
8
BLACK
6
CONTINUOUS
10
5.12321
20
-3.88431
11
5.12133
21
-3.89181
0
LINE
8
BLACK
6
CONTINUOUS
10
5.12133
20
-3.89181
11
5.12113
21
-3.89227
0
LINE
8
BLACK
6
CONTINUOUS
10
5.12113
20
-3.89227
11
5.12111
21
-3.89241
0
LINE
8
BLACK
6
CONTINUOUS
10
5.12111
20
-3.89241
11
5.11923
21
-3.89616
0
LINE
8
BLACK
6
CONTINUOUS
10
5.11923
20
-3.89616
11
5.11871
21
-3.89687
0
LINE
8
BLACK
6
CONTINUOUS
10
5.11871
20
-3.89687
11
5.11868
21
-3.89693
0
LINE
8
BLACK
6
CONTINUOUS
10
5.11868
20
-3.89693
11
5.11493
21
-3.90068
0
LINE
8
BLACK
6
CONTINUOUS
10
5.11493
20
-3.90068
11
5.11409
21
-3.90127
0
LINE
8
BLACK
6
CONTINUOUS
10
5.11409
20
-3.90127
11
5.11392
21
-3.90128
0
LINE
8
BLACK
6
CONTINUOUS
10
5.11392
20
-3.90128
11
5.11378
21
-3.90139
0
LINE
8
BLACK
6
CONTINUOUS
10
5.11378
20
-3.90139
11
5.10815
21
-3.90327
0
LINE
8
BLACK
6
CONTINUOUS
10
5.10815
20
-3.90327
11
5.10728
21
-3.9034
0
LINE
8
BLACK
6
CONTINUOUS
10
5.10728
20
-3.9034
11
5.10722
21
-3.90342
0
LINE
8
BLACK
6
CONTINUOUS
10
5.10722
20
-3.90342
11
5.10347
21
-3.90342
0
LINE
8
BLACK
6
CONTINUOUS
10
5.10347
20
-3.90342
11
5.1026
21
-3.90326
0
LINE
8
BLACK
6
CONTINUOUS
10
5.1026
20
-3.90326
11
5.10254
21
-3.90327
0
LINE
8
BLACK
6
CONTINUOUS
10
5.10254
20
-3.90327
11
5.09691
21
-3.90139
0
LINE
8
BLACK
6
CONTINUOUS
10
5.09691
20
-3.90139
11
5.09601
21
-3.9009
0
LINE
8
BLACK
6
CONTINUOUS
10
5.09601
20
-3.9009
11
5.09592
21
-3.90075
0
LINE
8
BLACK
6
CONTINUOUS
10
5.09592
20
-3.90075
11
5.09576
21
-3.90068
0
LINE
8
BLACK
6
CONTINUOUS
10
5.09576
20
-3.90068
11
5.09388
21
-3.8988
0
LINE
8
BLACK
6
CONTINUOUS
10
5.09388
20
-3.8988
11
5.09329
21
-3.89796
0
LINE
8
BLACK
6
CONTINUOUS
10
5.09329
20
-3.89796
11
5.09312
21
-3.89595
0
LINE
8
BLACK
6
CONTINUOUS
10
5.09312
20
-3.89595
11
5.09428
21
-3.8943
0
LINE
8
BLACK
6
CONTINUOUS
10
5.09428
20
-3.8943
11
5.09623
21
-3.89377
0
LINE
8
BLACK
6
CONTINUOUS
10
5.09623
20
-3.89377
11
5.09806
21
-3.89463
0
LINE
8
BLACK
6
CONTINUOUS
10
5.09806
20
-3.89463
11
5.09944
21
-3.89601
0
LINE
8
BLACK
6
CONTINUOUS
10
5.09944
20
-3.89601
11
5.10395
21
-3.89751
0
LINE
8
BLACK
6
CONTINUOUS
10
5.10395
20
-3.89751
11
5.10674
21
-3.89751
0
LINE
8
BLACK
6
CONTINUOUS
10
5.10674
20
-3.89751
11
5.11125
21
-3.89601
0
LINE
8
BLACK
6
CONTINUOUS
10
5.11125
20
-3.89601
11
5.11417
21
-3.89309
0
LINE
8
BLACK
6
CONTINUOUS
10
5.11417
20
-3.89309
11
5.11568
21
-3.89006
0
LINE
8
BLACK
6
CONTINUOUS
10
5.11568
20
-3.89006
11
5.11739
21
-3.88323
0
LINE
8
BLACK
6
CONTINUOUS
10
5.11739
20
-3.88323
11
5.11739
21
-3.87833
0
LINE
8
BLACK
6
CONTINUOUS
10
5.11739
20
-3.87833
11
5.11568
21
-3.8715
0
LINE
8
BLACK
6
CONTINUOUS
10
5.11568
20
-3.8715
11
5.11417
21
-3.86847
0
LINE
8
BLACK
6
CONTINUOUS
10
5.11417
20
-3.86847
11
5.11125
21
-3.86555
0
LINE
8
BLACK
6
CONTINUOUS
10
5.11125
20
-3.86555
11
5.10674
21
-3.86405
0
LINE
8
BLACK
6
CONTINUOUS
10
5.10674
20
-3.86405
11
5.10395
21
-3.86405
0
LINE
8
BLACK
6
CONTINUOUS
10
5.10395
20
-3.86405
11
5.09944
21
-3.86555
0
LINE
8
BLACK
6
CONTINUOUS
10
5.09944
20
-3.86555
11
5.09806
21
-3.86693
0
LINE
8
BLACK
6
CONTINUOUS
10
5.09806
20
-3.86693
11
5.09722
21
-3.86752
0
LINE
8
BLACK
6
CONTINUOUS
10
5.09722
20
-3.86752
11
5.09521
21
-3.8677
0
LINE
8
BLACK
6
CONTINUOUS
10
5.09521
20
-3.8677
11
5.09355
21
-3.86654
0
LINE
8
BLACK
6
CONTINUOUS
10
5.09355
20
-3.86654
11
5.09303
21
-3.86459
0
LINE
8
BLACK
6
CONTINUOUS
10
5.09303
20
-3.86459
11
5.09388
21
-3.86276
0
LINE
8
BLACK
6
CONTINUOUS
10
5.09388
20
-3.86276
11
5.09576
21
-3.86088
0
LINE
8
BLACK
6
CONTINUOUS
10
5.09576
20
-3.86088
11
5.0966
21
-3.86029
0
LINE
8
BLACK
6
CONTINUOUS
10
5.0966
20
-3.86029
11
5.09677
21
-3.86028
0
LINE
8
BLACK
6
CONTINUOUS
10
5.09677
20
-3.86028
11
5.09691
21
-3.86017
0
LINE
8
BLACK
6
CONTINUOUS
10
5.09691
20
-3.86017
11
5.10254
21
-3.85829
0
LINE
8
BLACK
6
CONTINUOUS
10
5.10254
20
-3.85829
11
5.10341
21
-3.85816
0
LINE
8
BLACK
6
CONTINUOUS
10
5.10341
20
-3.85816
11
5.10347
21
-3.85814
0
LINE
8
BLACK
6
CONTINUOUS
10
5.10347
20
-3.85814
11
5.10722
21
-3.85814
0
LINE
8
BLACK
6
CONTINUOUS
10
5.10722
20
-3.85814
11
5.10809
21
-3.8583
0
LINE
8
BLACK
6
CONTINUOUS
10
5.64321
20
-3.77598
11
5.6439
21
-3.77787
0
LINE
8
BLACK
6
CONTINUOUS
10
5.6439
20
-3.77787
11
5.6439
21
-3.81724
0
LINE
8
BLACK
6
CONTINUOUS
10
5.6439
20
-3.81724
11
5.64372
21
-3.81825
0
LINE
8
BLACK
6
CONTINUOUS
10
5.64372
20
-3.81825
11
5.64242
21
-3.8198
0
LINE
8
BLACK
6
CONTINUOUS
10
5.64242
20
-3.8198
11
5.64043
21
-3.82015
0
LINE
8
BLACK
6
CONTINUOUS
10
5.64043
20
-3.82015
11
5.63868
21
-3.81914
0
LINE
8
BLACK
6
CONTINUOUS
10
5.63868
20
-3.81914
11
5.63799
21
-3.81724
0
LINE
8
BLACK
6
CONTINUOUS
10
5.63799
20
-3.81724
11
5.63799
21
-3.77787
0
LINE
8
BLACK
6
CONTINUOUS
10
5.63799
20
-3.77787
11
5.63817
21
-3.77686
0
LINE
8
BLACK
6
CONTINUOUS
10
5.63817
20
-3.77686
11
5.63947
21
-3.77532
0
LINE
8
BLACK
6
CONTINUOUS
10
5.63947
20
-3.77532
11
5.64146
21
-3.77497
0
LINE
8
BLACK
6
CONTINUOUS
10
5.64146
20
-3.77497
11
5.64321
21
-3.77598
0
LINE
8
BLACK
6
CONTINUOUS
10
5.71014
20
-3.77598
11
5.71083
21
-3.77787
0
LINE
8
BLACK
6
CONTINUOUS
10
5.71083
20
-3.77787
11
5.71083
21
-3.81724
0
LINE
8
BLACK
6
CONTINUOUS
10
5.71083
20
-3.81724
11
5.71065
21
-3.81825
0
LINE
8
BLACK
6
CONTINUOUS
10
5.71065
20
-3.81825
11
5.70935
21
-3.8198
0
LINE
8
BLACK
6
CONTINUOUS
10
5.70935
20
-3.8198
11
5.70736
21
-3.82015
0
LINE
8
BLACK
6
CONTINUOUS
10
5.70736
20
-3.82015
11
5.70561
21
-3.81914
0
LINE
8
BLACK
6
CONTINUOUS
10
5.70561
20
-3.81914
11
5.70492
21
-3.81724
0
LINE
8
BLACK
6
CONTINUOUS
10
5.70492
20
-3.81724
11
5.70492
21
-3.77787
0
LINE
8
BLACK
6
CONTINUOUS
10
5.70492
20
-3.77787
11
5.7051
21
-3.77686
0
LINE
8
BLACK
6
CONTINUOUS
10
5.7051
20
-3.77686
11
5.7064
21
-3.77532
0
LINE
8
BLACK
6
CONTINUOUS
10
5.7064
20
-3.77532
11
5.70839
21
-3.77497
0
LINE
8
BLACK
6
CONTINUOUS
10
5.70839
20
-3.77497
11
5.71014
21
-3.77598
0
LINE
8
BLACK
6
CONTINUOUS
10
5.37086
20
-3.74934
11
5.37099
21
-3.74932
0
LINE
8
BLACK
6
CONTINUOUS
10
5.37099
20
-3.74932
11
5.3711
21
-3.74938
0
LINE
8
BLACK
6
CONTINUOUS
10
5.3711
20
-3.74938
11
5.37148
21
-3.74945
0
LINE
8
BLACK
6
CONTINUOUS
10
5.37148
20
-3.74945
11
5.37207
21
-3.74994
0
LINE
8
BLACK
6
CONTINUOUS
10
5.37207
20
-3.74994
11
5.37261
21
-3.75026
0
LINE
8
BLACK
6
CONTINUOUS
10
5.37261
20
-3.75026
11
5.55157
21
-3.75026
0
LINE
8
BLACK
6
CONTINUOUS
10
5.55157
20
-3.75026
11
5.55207
21
-3.74967
0
LINE
8
BLACK
6
CONTINUOUS
10
5.55207
20
-3.74967
11
5.55406
21
-3.74932
0
LINE
8
BLACK
6
CONTINUOUS
10
5.55406
20
-3.74932
11
5.55581
21
-3.75033
0
LINE
8
BLACK
6
CONTINUOUS
10
5.55581
20
-3.75033
11
5.5565
21
-3.75223
0
LINE
8
BLACK
6
CONTINUOUS
10
5.5565
20
-3.75223
11
5.5565
21
-3.75321
0
LINE
8
BLACK
6
CONTINUOUS
10
5.5565
20
-3.75321
11
5.55643
21
-3.75359
0
LINE
8
BLACK
6
CONTINUOUS
10
5.55643
20
-3.75359
11
5.55645
21
-3.75372
0
LINE
8
BLACK
6
CONTINUOUS
10
5.55645
20
-3.75372
11
5.55639
21
-3.75384
0
LINE
8
BLACK
6
CONTINUOUS
10
5.55639
20
-3.75384
11
5.55632
21
-3.75422
0
LINE
8
BLACK
6
CONTINUOUS
10
5.55632
20
-3.75422
11
5.55582
21
-3.75481
0
LINE
8
BLACK
6
CONTINUOUS
10
5.55582
20
-3.75481
11
5.55544
21
-3.75547
0
LINE
8
BLACK
6
CONTINUOUS
10
5.55544
20
-3.75547
11
5.55519
21
-3.75556
0
LINE
8
BLACK
6
CONTINUOUS
10
5.55519
20
-3.75556
11
5.55502
21
-3.75577
0
LINE
8
BLACK
6
CONTINUOUS
10
5.55502
20
-3.75577
11
5.55426
21
-3.7559
0
LINE
8
BLACK
6
CONTINUOUS
10
5.55426
20
-3.7559
11
5.55354
21
-3.75616
0
LINE
8
BLACK
6
CONTINUOUS
10
5.55354
20
-3.75616
11
5.37047
21
-3.75616
0
LINE
8
BLACK
6
CONTINUOUS
10
5.37047
20
-3.75616
11
5.37009
21
-3.7561
0
LINE
8
BLACK
6
CONTINUOUS
10
5.37009
20
-3.7561
11
5.36996
21
-3.75612
0
LINE
8
BLACK
6
CONTINUOUS
10
5.36996
20
-3.75612
11
5.36985
21
-3.75605
0
LINE
8
BLACK
6
CONTINUOUS
10
5.36985
20
-3.75605
11
5.36946
21
-3.75598
0
LINE
8
BLACK
6
CONTINUOUS
10
5.36946
20
-3.75598
11
5.36887
21
-3.75549
0
LINE
8
BLACK
6
CONTINUOUS
10
5.36887
20
-3.75549
11
5.36833
21
-3.75518
0
LINE
8
BLACK
6
CONTINUOUS
10
5.36833
20
-3.75518
11
5.32815
21
-3.75518
0
LINE
8
BLACK
6
CONTINUOUS
10
5.32815
20
-3.75518
11
5.32714
21
-3.755
0
LINE
8
BLACK
6
CONTINUOUS
10
5.32714
20
-3.755
11
5.32559
21
-3.7537
0
LINE
8
BLACK
6
CONTINUOUS
10
5.32559
20
-3.7537
11
5.32524
21
-3.75171
0
LINE
8
BLACK
6
CONTINUOUS
10
5.32524
20
-3.75171
11
5.32625
21
-3.74996
0
LINE
8
BLACK
6
CONTINUOUS
10
5.32625
20
-3.74996
11
5.32815
21
-3.74927
0
LINE
8
BLACK
6
CONTINUOUS
10
5.32815
20
-3.74927
11
5.37047
21
-3.74927
0
LINE
8
BLACK
6
CONTINUOUS
10
5.37047
20
-3.74927
11
5.37086
21
-3.74934
0
LINE
8
BLACK
6
CONTINUOUS
10
5.94624
20
-3.69203
11
5.94812
21
-3.69391
0
LINE
8
BLACK
6
CONTINUOUS
10
5.94812
20
-3.69391
11
5.94863
21
-3.69463
0
LINE
8
BLACK
6
CONTINUOUS
10
5.94863
20
-3.69463
11
5.94867
21
-3.69467
0
LINE
8
BLACK
6
CONTINUOUS
10
5.94867
20
-3.69467
11
5.95055
21
-3.69842
0
LINE
8
BLACK
6
CONTINUOUS
10
5.95055
20
-3.69842
11
5.95084
21
-3.69941
0
LINE
8
BLACK
6
CONTINUOUS
10
5.95084
20
-3.69941
11
5.9508
21
-3.69958
0
LINE
8
BLACK
6
CONTINUOUS
10
5.9508
20
-3.69958
11
5.95086
21
-3.69975
0
LINE
8
BLACK
6
CONTINUOUS
10
5.95086
20
-3.69975
11
5.95086
21
-3.71099
0
LINE
8
BLACK
6
CONTINUOUS
10
5.95086
20
-3.71099
11
5.95068
21
-3.712
0
LINE
8
BLACK
6
CONTINUOUS
10
5.95068
20
-3.712
11
5.95057
21
-3.71214
0
LINE
8
BLACK
6
CONTINUOUS
10
5.95057
20
-3.71214
11
5.95055
21
-3.71231
0
LINE
8
BLACK
6
CONTINUOUS
10
5.95055
20
-3.71231
11
5.94867
21
-3.71606
0
LINE
8
BLACK
6
CONTINUOUS
10
5.94867
20
-3.71606
11
5.94815
21
-3.71677
0
LINE
8
BLACK
6
CONTINUOUS
10
5.94815
20
-3.71677
11
5.94812
21
-3.71683
0
LINE
8
BLACK
6
CONTINUOUS
10
5.94812
20
-3.71683
11
5.94624
21
-3.71871
0
LINE
8
BLACK
6
CONTINUOUS
10
5.94624
20
-3.71871
11
5.94552
21
-3.71921
0
LINE
8
BLACK
6
CONTINUOUS
10
5.94552
20
-3.71921
11
5.94548
21
-3.71926
0
LINE
8
BLACK
6
CONTINUOUS
10
5.94548
20
-3.71926
11
5.94173
21
-3.72113
0
LINE
8
BLACK
6
CONTINUOUS
10
5.94173
20
-3.72113
11
5.94074
21
-3.72143
0
LINE
8
BLACK
6
CONTINUOUS
10
5.94074
20
-3.72143
11
5.94057
21
-3.72139
0
LINE
8
BLACK
6
CONTINUOUS
10
5.94057
20
-3.72139
11
5.94041
21
-3.72145
0
LINE
8
BLACK
6
CONTINUOUS
10
5.94041
20
-3.72145
11
5.93103
21
-3.72145
0
LINE
8
BLACK
6
CONTINUOUS
10
5.93103
20
-3.72145
11
5.93002
21
-3.72127
0
LINE
8
BLACK
6
CONTINUOUS
10
5.93002
20
-3.72127
11
5.92989
21
-3.72115
0
LINE
8
BLACK
6
CONTINUOUS
10
5.92989
20
-3.72115
11
5.92971
21
-3.72113
0
LINE
8
BLACK
6
CONTINUOUS
10
5.92971
20
-3.72113
11
5.92596
21
-3.71926
0
LINE
8
BLACK
6
CONTINUOUS
10
5.92596
20
-3.71926
11
5.92525
21
-3.71873
0
LINE
8
BLACK
6
CONTINUOUS
10
5.92525
20
-3.71873
11
5.9252
21
-3.71871
0
LINE
8
BLACK
6
CONTINUOUS
10
5.9252
20
-3.71871
11
5.92332
21
-3.71683
0
LINE
8
BLACK
6
CONTINUOUS
10
5.92332
20
-3.71683
11
5.92281
21
-3.71611
0
LINE
8
BLACK
6
CONTINUOUS
10
5.92281
20
-3.71611
11
5.92277
21
-3.71606
0
LINE
8
BLACK
6
CONTINUOUS
10
5.92277
20
-3.71606
11
5.92089
21
-3.71231
0
LINE
8
BLACK
6
CONTINUOUS
10
5.92089
20
-3.71231
11
5.92073
21
-3.71175
0
LINE
8
BLACK
6
CONTINUOUS
10
5.92073
20
-3.71175
11
5.91048
21
-3.72071
0
LINE
8
BLACK
6
CONTINUOUS
10
5.91048
20
-3.72071
11
5.9101
21
-3.72094
0
LINE
8
BLACK
6
CONTINUOUS
10
5.9101
20
-3.72094
11
5.91001
21
-3.72105
0
LINE
8
BLACK
6
CONTINUOUS
10
5.91001
20
-3.72105
11
5.90989
21
-3.72107
0
LINE
8
BLACK
6
CONTINUOUS
10
5.90989
20
-3.72107
11
5.9096
21
-3.72125
0
LINE
8
BLACK
6
CONTINUOUS
10
5.9096
20
-3.72125
11
5.90881
21
-3.72126
0
LINE
8
BLACK
6
CONTINUOUS
10
5.90881
20
-3.72126
11
5.90802
21
-3.7214
0
LINE
8
BLACK
6
CONTINUOUS
10
5.90802
20
-3.7214
11
5.90782
21
-3.72128
0
LINE
8
BLACK
6
CONTINUOUS
10
5.90782
20
-3.72128
11
5.90758
21
-3.72129
0
LINE
8
BLACK
6
CONTINUOUS
10
5.90758
20
-3.72129
11
5.90696
21
-3.72079
0
LINE
8
BLACK
6
CONTINUOUS
10
5.90696
20
-3.72079
11
5.90627
21
-3.72039
0
LINE
8
BLACK
6
CONTINUOUS
10
5.90627
20
-3.72039
11
5.90619
21
-3.72017
0
LINE
8
BLACK
6
CONTINUOUS
10
5.90619
20
-3.72017
11
5.90601
21
-3.72002
0
LINE
8
BLACK
6
CONTINUOUS
10
5.90601
20
-3.72002
11
5.90586
21
-3.71924
0
LINE
8
BLACK
6
CONTINUOUS
10
5.90586
20
-3.71924
11
5.90558
21
-3.71849
0
LINE
8
BLACK
6
CONTINUOUS
10
5.90558
20
-3.71849
11
5.90558
21
-3.69412
0
LINE
8
BLACK
6
CONTINUOUS
10
5.90558
20
-3.69412
11
5.90576
21
-3.69311
0
LINE
8
BLACK
6
CONTINUOUS
10
5.90576
20
-3.69311
11
5.90706
21
-3.69156
0
LINE
8
BLACK
6
CONTINUOUS
10
5.90706
20
-3.69156
11
5.90905
21
-3.69121
0
LINE
8
BLACK
6
CONTINUOUS
10
5.90905
20
-3.69121
11
5.9108
21
-3.69222
0
LINE
8
BLACK
6
CONTINUOUS
10
5.9108
20
-3.69222
11
5.91149
21
-3.69412
0
LINE
8
BLACK
6
CONTINUOUS
10
5.91149
20
-3.69412
11
5.91149
21
-3.71199
0
LINE
8
BLACK
6
CONTINUOUS
10
5.91149
20
-3.71199
11
5.92159
21
-3.70315
0
LINE
8
BLACK
6
CONTINUOUS
10
5.92159
20
-3.70315
11
5.92197
21
-3.70292
0
LINE
8
BLACK
6
CONTINUOUS
10
5.92197
20
-3.70292
11
5.92206
21
-3.70281
0
LINE
8
BLACK
6
CONTINUOUS
10
5.92206
20
-3.70281
11
5.92218
21
-3.70279
0
LINE
8
BLACK
6
CONTINUOUS
10
5.92218
20
-3.70279
11
5.92247
21
-3.70262
0
LINE
8
BLACK
6
CONTINUOUS
10
5.92247
20
-3.70262
11
5.92326
21
-3.7026
0
LINE
8
BLACK
6
CONTINUOUS
10
5.92326
20
-3.7026
11
5.92405
21
-3.70246
0
LINE
8
BLACK
6
CONTINUOUS
10
5.92405
20
-3.70246
11
5.92425
21
-3.70258
0
LINE
8
BLACK
6
CONTINUOUS
10
5.92425
20
-3.70258
11
5.92449
21
-3.70257
0
LINE
8
BLACK
6
CONTINUOUS
10
5.92449
20
-3.70257
11
5.92511
21
-3.70307
0
LINE
8
BLACK
6
CONTINUOUS
10
5.92511
20
-3.70307
11
5.9258
21
-3.70347
0
LINE
8
BLACK
6
CONTINUOUS
10
5.9258
20
-3.70347
11
5.92588
21
-3.70369
0
LINE
8
BLACK
6
CONTINUOUS
10
5.92588
20
-3.70369
11
5.92606
21
-3.70384
0
LINE
8
BLACK
6
CONTINUOUS
10
5.92606
20
-3.70384
11
5.92621
21
-3.70462
0
LINE
8
BLACK
6
CONTINUOUS
10
5.92621
20
-3.70462
11
5.92649
21
-3.70537
0
LINE
8
BLACK
6
CONTINUOUS
10
5.92649
20
-3.70537
11
5.92649
21
-3.7103
0
LINE
8
BLACK
6
CONTINUOUS
10
5.92649
20
-3.7103
11
5.92784
21
-3.71299
0
LINE
8
BLACK
6
CONTINUOUS
10
5.92784
20
-3.71299
11
5.92903
21
-3.71419
0
LINE
8
BLACK
6
CONTINUOUS
10
5.92903
20
-3.71419
11
5.93173
21
-3.71554
0
LINE
8
BLACK
6
CONTINUOUS
10
5.93173
20
-3.71554
11
5.93971
21
-3.71554
0
LINE
8
BLACK
6
CONTINUOUS
10
5.93971
20
-3.71554
11
5.94241
21
-3.71419
0
LINE
8
BLACK
6
CONTINUOUS
10
5.94241
20
-3.71419
11
5.9436
21
-3.71299
0
LINE
8
BLACK
6
CONTINUOUS
10
5.9436
20
-3.71299
11
5.94495
21
-3.7103
0
LINE
8
BLACK
6
CONTINUOUS
10
5.94495
20
-3.7103
11
5.94495
21
-3.70044
0
LINE
8
BLACK
6
CONTINUOUS
10
5.94495
20
-3.70044
11
5.9436
21
-3.69774
0
LINE
8
BLACK
6
CONTINUOUS
10
5.9436
20
-3.69774
11
5.94207
21
-3.69621
0
LINE
8
BLACK
6
CONTINUOUS
10
5.94207
20
-3.69621
11
5.94148
21
-3.69537
0
LINE
8
BLACK
6
CONTINUOUS
10
5.94148
20
-3.69537
11
5.9413
21
-3.69336
0
LINE
8
BLACK
6
CONTINUOUS
10
5.9413
20
-3.69336
11
5.94246
21
-3.6917
0
LINE
8
BLACK
6
CONTINUOUS
10
5.94246
20
-3.6917
11
5.94441
21
-3.69118
0
LINE
8
BLACK
6
CONTINUOUS
10
5.94441
20
-3.69118
11
5.94624
21
-3.69203
0
LINE
8
BLACK
6
CONTINUOUS
10
5.69795
20
-3.68628
11
5.69808
21
-3.68627
0
LINE
8
BLACK
6
CONTINUOUS
10
5.69808
20
-3.68627
11
5.69881
21
-3.68678
0
LINE
8
BLACK
6
CONTINUOUS
10
5.69881
20
-3.68678
11
5.69958
21
-3.68722
0
LINE
8
BLACK
6
CONTINUOUS
10
5.69958
20
-3.68722
11
5.69962
21
-3.68735
0
LINE
8
BLACK
6
CONTINUOUS
10
5.69962
20
-3.68735
11
5.69973
21
-3.68743
0
LINE
8
BLACK
6
CONTINUOUS
10
5.69973
20
-3.68743
11
5.69996
21
-3.68829
0
LINE
8
BLACK
6
CONTINUOUS
10
5.69996
20
-3.68829
11
5.70027
21
-3.68912
0
LINE
8
BLACK
6
CONTINUOUS
10
5.70027
20
-3.68912
11
5.70027
21
-3.71349
0
LINE
8
BLACK
6
CONTINUOUS
10
5.70027
20
-3.71349
11
5.70009
21
-3.7145
0
LINE
8
BLACK
6
CONTINUOUS
10
5.70009
20
-3.7145
11
5.69879
21
-3.71605
0
LINE
8
BLACK
6
CONTINUOUS
10
5.69879
20
-3.71605
11
5.6968
21
-3.7164
0
LINE
8
BLACK
6
CONTINUOUS
10
5.6968
20
-3.7164
11
5.69505
21
-3.71539
0
LINE
8
BLACK
6
CONTINUOUS
10
5.69505
20
-3.71539
11
5.69436
21
-3.71349
0
LINE
8
BLACK
6
CONTINUOUS
10
5.69436
20
-3.71349
11
5.69436
21
-3.69625
0
LINE
8
BLACK
6
CONTINUOUS
10
5.69436
20
-3.69625
11
5.67691
21
-3.71371
0
LINE
8
BLACK
6
CONTINUOUS
10
5.67691
20
-3.71371
11
5.67607
21
-3.71429
0
LINE
8
BLACK
6
CONTINUOUS
10
5.67607
20
-3.71429
11
5.67589
21
-3.71431
0
LINE
8
BLACK
6
CONTINUOUS
10
5.67589
20
-3.71431
11
5.67575
21
-3.71442
0
LINE
8
BLACK
6
CONTINUOUS
10
5.67575
20
-3.71442
11
5.67013
21
-3.71629
0
LINE
8
BLACK
6
CONTINUOUS
10
5.67013
20
-3.71629
11
5.66925
21
-3.71642
0
LINE
8
BLACK
6
CONTINUOUS
10
5.66925
20
-3.71642
11
5.66919
21
-3.71645
0
LINE
8
BLACK
6
CONTINUOUS
10
5.66919
20
-3.71645
11
5.66544
21
-3.71645
0
LINE
8
BLACK
6
CONTINUOUS
10
5.66544
20
-3.71645
11
5.66443
21
-3.71627
0
LINE
8
BLACK
6
CONTINUOUS
10
5.66443
20
-3.71627
11
5.6643
21
-3.71615
0
LINE
8
BLACK
6
CONTINUOUS
10
5.6643
20
-3.71615
11
5.66412
21
-3.71613
0
LINE
8
BLACK
6
CONTINUOUS
10
5.66412
20
-3.71613
11
5.66037
21
-3.71426
0
LINE
8
BLACK
6
CONTINUOUS
10
5.66037
20
-3.71426
11
5.65967
21
-3.71373
0
LINE
8
BLACK
6
CONTINUOUS
10
5.65967
20
-3.71373
11
5.65961
21
-3.71371
0
LINE
8
BLACK
6
CONTINUOUS
10
5.65961
20
-3.71371
11
5.65773
21
-3.71183
0
LINE
8
BLACK
6
CONTINUOUS
10
5.65773
20
-3.71183
11
5.65723
21
-3.71111
0
LINE
8
BLACK
6
CONTINUOUS
10
5.65723
20
-3.71111
11
5.65718
21
-3.71106
0
LINE
8
BLACK
6
CONTINUOUS
10
5.65718
20
-3.71106
11
5.6553
21
-3.70731
0
LINE
8
BLACK
6
CONTINUOUS
10
5.6553
20
-3.70731
11
5.65501
21
-3.70633
0
LINE
8
BLACK
6
CONTINUOUS
10
5.65501
20
-3.70633
11
5.65505
21
-3.70616
0
LINE
8
BLACK
6
CONTINUOUS
10
5.65505
20
-3.70616
11
5.65499
21
-3.70599
0
LINE
8
BLACK
6
CONTINUOUS
10
5.65499
20
-3.70599
11
5.65499
21
-3.69662
0
LINE
8
BLACK
6
CONTINUOUS
10
5.65499
20
-3.69662
11
5.65517
21
-3.69561
0
LINE
8
BLACK
6
CONTINUOUS
10
5.65517
20
-3.69561
11
5.65528
21
-3.69547
0
LINE
8
BLACK
6
CONTINUOUS
10
5.65528
20
-3.69547
11
5.6553
21
-3.6953
0
LINE
8
BLACK
6
CONTINUOUS
10
5.6553
20
-3.6953
11
5.65718
21
-3.69155
0
LINE
8
BLACK
6
CONTINUOUS
10
5.65718
20
-3.69155
11
5.65771
21
-3.69084
0
LINE
8
BLACK
6
CONTINUOUS
10
5.65771
20
-3.69084
11
5.65773
21
-3.69078
0
LINE
8
BLACK
6
CONTINUOUS
10
5.65773
20
-3.69078
11
5.65961
21
-3.68891
0
LINE
8
BLACK
6
CONTINUOUS
10
5.65961
20
-3.68891
11
5.66045
21
-3.68832
0
LINE
8
BLACK
6
CONTINUOUS
10
5.66045
20
-3.68832
11
5.66246
21
-3.68814
0
LINE
8
BLACK
6
CONTINUOUS
10
5.66246
20
-3.68814
11
5.66411
21
-3.6893
0
LINE
8
BLACK
6
CONTINUOUS
10
5.66411
20
-3.6893
11
5.66464
21
-3.69125
0
LINE
8
BLACK
6
CONTINUOUS
10
5.66464
20
-3.69125
11
5.66378
21
-3.69308
0
LINE
8
BLACK
6
CONTINUOUS
10
5.66378
20
-3.69308
11
5.66225
21
-3.69462
0
LINE
8
BLACK
6
CONTINUOUS
10
5.66225
20
-3.69462
11
5.6609
21
-3.69732
0
LINE
8
BLACK
6
CONTINUOUS
10
5.6609
20
-3.69732
11
5.6609
21
-3.7053
0
LINE
8
BLACK
6
CONTINUOUS
10
5.6609
20
-3.7053
11
5.66225
21
-3.70799
0
LINE
8
BLACK
6
CONTINUOUS
10
5.66225
20
-3.70799
11
5.66344
21
-3.70919
0
LINE
8
BLACK
6
CONTINUOUS
10
5.66344
20
-3.70919
11
5.66614
21
-3.71054
0
LINE
8
BLACK
6
CONTINUOUS
10
5.66614
20
-3.71054
11
5.66872
21
-3.71054
0
LINE
8
BLACK
6
CONTINUOUS
10
5.66872
20
-3.71054
11
5.67322
21
-3.70904
0
LINE
8
BLACK
6
CONTINUOUS
10
5.67322
20
-3.70904
11
5.69523
21
-3.68703
0
LINE
8
BLACK
6
CONTINUOUS
10
5.69523
20
-3.68703
11
5.69576
21
-3.68666
0
LINE
8
BLACK
6
CONTINUOUS
10
5.69576
20
-3.68666
11
5.69584
21
-3.68656
0
LINE
8
BLACK
6
CONTINUOUS
10
5.69584
20
-3.68656
11
5.69592
21
-3.68655
0
LINE
8
BLACK
6
CONTINUOUS
10
5.69592
20
-3.68655
11
5.69607
21
-3.68644
0
LINE
8
BLACK
6
CONTINUOUS
10
5.69607
20
-3.68644
11
5.69695
21
-3.68637
0
LINE
8
BLACK
6
CONTINUOUS
10
5.69695
20
-3.68637
11
5.69783
21
-3.68621
0
LINE
8
BLACK
6
CONTINUOUS
10
5.69783
20
-3.68621
11
5.69795
21
-3.68628
0
LINE
8
BLACK
6
CONTINUOUS
10
5.96222
20
-3.66204
11
5.96291
21
-3.66394
0
LINE
8
BLACK
6
CONTINUOUS
10
5.96291
20
-3.66394
11
5.96291
21
-3.71118
0
LINE
8
BLACK
6
CONTINUOUS
10
5.96291
20
-3.71118
11
5.96274
21
-3.71219
0
LINE
8
BLACK
6
CONTINUOUS
10
5.96274
20
-3.71219
11
5.96144
21
-3.71374
0
LINE
8
BLACK
6
CONTINUOUS
10
5.96144
20
-3.71374
11
5.95945
21
-3.71409
0
LINE
8
BLACK
6
CONTINUOUS
10
5.95945
20
-3.71409
11
5.9577
21
-3.71308
0
LINE
8
BLACK
6
CONTINUOUS
10
5.9577
20
-3.71308
11
5.95701
21
-3.71118
0
LINE
8
BLACK
6
CONTINUOUS
10
5.95701
20
-3.71118
11
5.95701
21
-3.66394
0
LINE
8
BLACK
6
CONTINUOUS
10
5.95701
20
-3.66394
11
5.95719
21
-3.66293
0
LINE
8
BLACK
6
CONTINUOUS
10
5.95719
20
-3.66293
11
5.95848
21
-3.66138
0
LINE
8
BLACK
6
CONTINUOUS
10
5.95848
20
-3.66138
11
5.96047
21
-3.66103
0
LINE
8
BLACK
6
CONTINUOUS
10
5.96047
20
-3.66103
11
5.96222
21
-3.66204
0
LINE
8
BLACK
6
CONTINUOUS
10
6.03112
20
-3.66204
11
6.03181
21
-3.66394
0
LINE
8
BLACK
6
CONTINUOUS
10
6.03181
20
-3.66394
11
6.03181
21
-3.71118
0
LINE
8
BLACK
6
CONTINUOUS
10
6.03181
20
-3.71118
11
6.03163
21
-3.71219
0
LINE
8
BLACK
6
CONTINUOUS
10
6.03163
20
-3.71219
11
6.03033
21
-3.71374
0
LINE
8
BLACK
6
CONTINUOUS
10
6.03033
20
-3.71374
11
6.02835
21
-3.71409
0
LINE
8
BLACK
6
CONTINUOUS
10
6.02835
20
-3.71409
11
6.0266
21
-3.71308
0
LINE
8
BLACK
6
CONTINUOUS
10
6.0266
20
-3.71308
11
6.02591
21
-3.71118
0
LINE
8
BLACK
6
CONTINUOUS
10
6.02591
20
-3.71118
11
6.02591
21
-3.66394
0
LINE
8
BLACK
6
CONTINUOUS
10
6.02591
20
-3.66394
11
6.02608
21
-3.66293
0
LINE
8
BLACK
6
CONTINUOUS
10
6.02608
20
-3.66293
11
6.02738
21
-3.66138
0
LINE
8
BLACK
6
CONTINUOUS
10
6.02738
20
-3.66138
11
6.02937
21
-3.66103
0
LINE
8
BLACK
6
CONTINUOUS
10
6.02937
20
-3.66103
11
6.03112
21
-3.66204
0
LINE
8
BLACK
6
CONTINUOUS
10
4.81295
20
-3.67128
11
4.81308
21
-3.67127
0
LINE
8
BLACK
6
CONTINUOUS
10
4.81308
20
-3.67127
11
4.81381
21
-3.67178
0
LINE
8
BLACK
6
CONTINUOUS
10
4.81381
20
-3.67178
11
4.81458
21
-3.67222
0
LINE
8
BLACK
6
CONTINUOUS
10
4.81458
20
-3.67222
11
4.81462
21
-3.67235
0
LINE
8
BLACK
6
CONTINUOUS
10
4.81462
20
-3.67235
11
4.81473
21
-3.67243
0
LINE
8
BLACK
6
CONTINUOUS
10
4.81473
20
-3.67243
11
4.81496
21
-3.67329
0
LINE
8
BLACK
6
CONTINUOUS
10
4.81496
20
-3.67329
11
4.81527
21
-3.67412
0
LINE
8
BLACK
6
CONTINUOUS
10
4.81527
20
-3.67412
11
4.81527
21
-3.69849
0
LINE
8
BLACK
6
CONTINUOUS
10
4.81527
20
-3.69849
11
4.81509
21
-3.6995
0
LINE
8
BLACK
6
CONTINUOUS
10
4.81509
20
-3.6995
11
4.81379
21
-3.70105
0
LINE
8
BLACK
6
CONTINUOUS
10
4.81379
20
-3.70105
11
4.8118
21
-3.7014
0
LINE
8
BLACK
6
CONTINUOUS
10
4.8118
20
-3.7014
11
4.81005
21
-3.70039
0
LINE
8
BLACK
6
CONTINUOUS
10
4.81005
20
-3.70039
11
4.80936
21
-3.69849
0
LINE
8
BLACK
6
CONTINUOUS
10
4.80936
20
-3.69849
11
4.80936
21
-3.68125
0
LINE
8
BLACK
6
CONTINUOUS
10
4.80936
20
-3.68125
11
4.79191
21
-3.69871
0
LINE
8
BLACK
6
CONTINUOUS
10
4.79191
20
-3.69871
11
4.79107
21
-3.69929
0
LINE
8
BLACK
6
CONTINUOUS
10
4.79107
20
-3.69929
11
4.79089
21
-3.69931
0
LINE
8
BLACK
6
CONTINUOUS
10
4.79089
20
-3.69931
11
4.79075
21
-3.69942
0
LINE
8
BLACK
6
CONTINUOUS
10
4.79075
20
-3.69942
11
4.78513
21
-3.70129
0
LINE
8
BLACK
6
CONTINUOUS
10
4.78513
20
-3.70129
11
4.78425
21
-3.70142
0
LINE
8
BLACK
6
CONTINUOUS
10
4.78425
20
-3.70142
11
4.78419
21
-3.70145
0
LINE
8
BLACK
6
CONTINUOUS
10
4.78419
20
-3.70145
11
4.78044
21
-3.70145
0
LINE
8
BLACK
6
CONTINUOUS
10
4.78044
20
-3.70145
11
4.77943
21
-3.70127
0
LINE
8
BLACK
6
CONTINUOUS
10
4.77943
20
-3.70127
11
4.7793
21
-3.70115
0
LINE
8
BLACK
6
CONTINUOUS
10
4.7793
20
-3.70115
11
4.77912
21
-3.70113
0
LINE
8
BLACK
6
CONTINUOUS
10
4.77912
20
-3.70113
11
4.77537
21
-3.69926
0
LINE
8
BLACK
6
CONTINUOUS
10
4.77537
20
-3.69926
11
4.77467
21
-3.69873
0
LINE
8
BLACK
6
CONTINUOUS
10
4.77467
20
-3.69873
11
4.77461
21
-3.69871
0
LINE
8
BLACK
6
CONTINUOUS
10
4.77461
20
-3.69871
11
4.77273
21
-3.69683
0
LINE
8
BLACK
6
CONTINUOUS
10
4.77273
20
-3.69683
11
4.77223
21
-3.69611
0
LINE
8
BLACK
6
CONTINUOUS
10
4.77223
20
-3.69611
11
4.77218
21
-3.69606
0
LINE
8
BLACK
6
CONTINUOUS
10
4.77218
20
-3.69606
11
4.7703
21
-3.69231
0
LINE
8
BLACK
6
CONTINUOUS
10
4.7703
20
-3.69231
11
4.77001
21
-3.69133
0
LINE
8
BLACK
6
CONTINUOUS
10
4.77001
20
-3.69133
11
4.77005
21
-3.69116
0
LINE
8
BLACK
6
CONTINUOUS
10
4.77005
20
-3.69116
11
4.76999
21
-3.69099
0
LINE
8
BLACK
6
CONTINUOUS
10
4.76999
20
-3.69099
11
4.76999
21
-3.68162
0
LINE
8
BLACK
6
CONTINUOUS
10
4.76999
20
-3.68162
11
4.77017
21
-3.68061
0
LINE
8
BLACK
6
CONTINUOUS
10
4.77017
20
-3.68061
11
4.77028
21
-3.68047
0
LINE
8
BLACK
6
CONTINUOUS
10
4.77028
20
-3.68047
11
4.7703
21
-3.6803
0
LINE
8
BLACK
6
CONTINUOUS
10
4.7703
20
-3.6803
11
4.77218
21
-3.67655
0
LINE
8
BLACK
6
CONTINUOUS
10
4.77218
20
-3.67655
11
4.77271
21
-3.67584
0
LINE
8
BLACK
6
CONTINUOUS
10
4.77271
20
-3.67584
11
4.77273
21
-3.67578
0
LINE
8
BLACK
6
CONTINUOUS
10
4.77273
20
-3.67578
11
4.77461
21
-3.67391
0
LINE
8
BLACK
6
CONTINUOUS
10
4.77461
20
-3.67391
11
4.77545
21
-3.67332
0
LINE
8
BLACK
6
CONTINUOUS
10
4.77545
20
-3.67332
11
4.77746
21
-3.67314
0
LINE
8
BLACK
6
CONTINUOUS
10
4.77746
20
-3.67314
11
4.77911
21
-3.6743
0
LINE
8
BLACK
6
CONTINUOUS
10
4.77911
20
-3.6743
11
4.77964
21
-3.67625
0
LINE
8
BLACK
6
CONTINUOUS
10
4.77964
20
-3.67625
11
4.77878
21
-3.67808
0
LINE
8
BLACK
6
CONTINUOUS
10
4.77878
20
-3.67808
11
4.77725
21
-3.67962
0
LINE
8
BLACK
6
CONTINUOUS
10
4.77725
20
-3.67962
11
4.7759
21
-3.68232
0
LINE
8
BLACK
6
CONTINUOUS
10
4.7759
20
-3.68232
11
4.7759
21
-3.6903
0
LINE
8
BLACK
6
CONTINUOUS
10
4.7759
20
-3.6903
11
4.77725
21
-3.69299
0
LINE
8
BLACK
6
CONTINUOUS
10
4.77725
20
-3.69299
11
4.77844
21
-3.69419
0
LINE
8
BLACK
6
CONTINUOUS
10
4.77844
20
-3.69419
11
4.78114
21
-3.69554
0
LINE
8
BLACK
6
CONTINUOUS
10
4.78114
20
-3.69554
11
4.78372
21
-3.69554
0
LINE
8
BLACK
6
CONTINUOUS
10
4.78372
20
-3.69554
11
4.78822
21
-3.69404
0
LINE
8
BLACK
6
CONTINUOUS
10
4.78822
20
-3.69404
11
4.81023
21
-3.67203
0
LINE
8
BLACK
6
CONTINUOUS
10
4.81023
20
-3.67203
11
4.81076
21
-3.67166
0
LINE
8
BLACK
6
CONTINUOUS
10
4.81076
20
-3.67166
11
4.81084
21
-3.67156
0
LINE
8
BLACK
6
CONTINUOUS
10
4.81084
20
-3.67156
11
4.81092
21
-3.67155
0
LINE
8
BLACK
6
CONTINUOUS
10
4.81092
20
-3.67155
11
4.81107
21
-3.67144
0
LINE
8
BLACK
6
CONTINUOUS
10
4.81107
20
-3.67144
11
4.81195
21
-3.67137
0
LINE
8
BLACK
6
CONTINUOUS
10
4.81195
20
-3.67137
11
4.81283
21
-3.67121
0
LINE
8
BLACK
6
CONTINUOUS
10
4.81283
20
-3.67121
11
4.81295
21
-3.67128
0
LINE
8
BLACK
6
CONTINUOUS
10
5.94892
20
-3.65573
11
5.95046
21
-3.65702
0
LINE
8
BLACK
6
CONTINUOUS
10
5.95046
20
-3.65702
11
5.95081
21
-3.65901
0
LINE
8
BLACK
6
CONTINUOUS
10
5.95081
20
-3.65901
11
5.9498
21
-3.66076
0
LINE
8
BLACK
6
CONTINUOUS
10
5.9498
20
-3.66076
11
5.94791
21
-3.66145
0
LINE
8
BLACK
6
CONTINUOUS
10
5.94791
20
-3.66145
11
5.93211
21
-3.66145
0
LINE
8
BLACK
6
CONTINUOUS
10
5.93211
20
-3.66145
11
5.93211
21
-3.66634
0
LINE
8
BLACK
6
CONTINUOUS
10
5.93211
20
-3.66634
11
5.9496
21
-3.67858
0
LINE
8
BLACK
6
CONTINUOUS
10
5.9496
20
-3.67858
11
5.95032
21
-3.6793
0
LINE
8
BLACK
6
CONTINUOUS
10
5.95032
20
-3.6793
11
5.95085
21
-3.68125
0
LINE
8
BLACK
6
CONTINUOUS
10
5.95085
20
-3.68125
11
5.94999
21
-3.68308
0
LINE
8
BLACK
6
CONTINUOUS
10
5.94999
20
-3.68308
11
5.94816
21
-3.68394
0
LINE
8
BLACK
6
CONTINUOUS
10
5.94816
20
-3.68394
11
5.94621
21
-3.68342
0
LINE
8
BLACK
6
CONTINUOUS
10
5.94621
20
-3.68342
11
5.9321
21
-3.67354
0
LINE
8
BLACK
6
CONTINUOUS
10
5.9321
20
-3.67354
11
5.93193
21
-3.67451
0
LINE
8
BLACK
6
CONTINUOUS
10
5.93193
20
-3.67451
11
5.93182
21
-3.67464
0
LINE
8
BLACK
6
CONTINUOUS
10
5.93182
20
-3.67464
11
5.9318
21
-3.67482
0
LINE
8
BLACK
6
CONTINUOUS
10
5.9318
20
-3.67482
11
5.92992
21
-3.67857
0
LINE
8
BLACK
6
CONTINUOUS
10
5.92992
20
-3.67857
11
5.9294
21
-3.67928
0
LINE
8
BLACK
6
CONTINUOUS
10
5.9294
20
-3.67928
11
5.92937
21
-3.67934
0
LINE
8
BLACK
6
CONTINUOUS
10
5.92937
20
-3.67934
11
5.9275
21
-3.68121
0
LINE
8
BLACK
6
CONTINUOUS
10
5.9275
20
-3.68121
11
5.92677
21
-3.68172
0
LINE
8
BLACK
6
CONTINUOUS
10
5.92677
20
-3.68172
11
5.92673
21
-3.68176
0
LINE
8
BLACK
6
CONTINUOUS
10
5.92673
20
-3.68176
11
5.92298
21
-3.68364
0
LINE
8
BLACK
6
CONTINUOUS
10
5.92298
20
-3.68364
11
5.922
21
-3.68393
0
LINE
8
BLACK
6
CONTINUOUS
10
5.922
20
-3.68393
11
5.92183
21
-3.68389
0
LINE
8
BLACK
6
CONTINUOUS
10
5.92183
20
-3.68389
11
5.92166
21
-3.68395
0
LINE
8
BLACK
6
CONTINUOUS
10
5.92166
20
-3.68395
11
5.91604
21
-3.68395
0
LINE
8
BLACK
6
CONTINUOUS
10
5.91604
20
-3.68395
11
5.91503
21
-3.68377
0
LINE
8
BLACK
6
CONTINUOUS
10
5.91503
20
-3.68377
11
5.91489
21
-3.68366
0
LINE
8
BLACK
6
CONTINUOUS
10
5.91489
20
-3.68366
11
5.91471
21
-3.68364
0
LINE
8
BLACK
6
CONTINUOUS
10
5.91471
20
-3.68364
11
5.91097
21
-3.68176
0
LINE
8
BLACK
6
CONTINUOUS
10
5.91097
20
-3.68176
11
5.91026
21
-3.68124
0
LINE
8
BLACK
6
CONTINUOUS
10
5.91026
20
-3.68124
11
5.9102
21
-3.68121
0
LINE
8
BLACK
6
CONTINUOUS
10
5.9102
20
-3.68121
11
5.90832
21
-3.67934
0
LINE
8
BLACK
6
CONTINUOUS
10
5.90832
20
-3.67934
11
5.90782
21
-3.67861
0
LINE
8
BLACK
6
CONTINUOUS
10
5.90782
20
-3.67861
11
5.90777
21
-3.67857
0
LINE
8
BLACK
6
CONTINUOUS
10
5.90777
20
-3.67857
11
5.9059
21
-3.67482
0
LINE
8
BLACK
6
CONTINUOUS
10
5.9059
20
-3.67482
11
5.9056
21
-3.67384
0
LINE
8
BLACK
6
CONTINUOUS
10
5.9056
20
-3.67384
11
5.90564
21
-3.67366
0
LINE
8
BLACK
6
CONTINUOUS
10
5.90564
20
-3.67366
11
5.90558
21
-3.6735
0
LINE
8
BLACK
6
CONTINUOUS
10
5.90558
20
-3.6735
11
5.90558
21
-3.6585
0
LINE
8
BLACK
6
CONTINUOUS
10
5.90558
20
-3.6585
11
5.90565
21
-3.65812
0
LINE
8
BLACK
6
CONTINUOUS
10
5.90565
20
-3.65812
11
5.90563
21
-3.65799
0
LINE
8
BLACK
6
CONTINUOUS
10
5.90563
20
-3.65799
11
5.90569
21
-3.65787
0
LINE
8
BLACK
6
CONTINUOUS
10
5.90569
20
-3.65787
11
5.90576
21
-3.65749
0
LINE
8
BLACK
6
CONTINUOUS
10
5.90576
20
-3.65749
11
5.90625
21
-3.6569
0
LINE
8
BLACK
6
CONTINUOUS
10
5.90625
20
-3.6569
11
5.90664
21
-3.65624
0
LINE
8
BLACK
6
CONTINUOUS
10
5.90664
20
-3.65624
11
5.90689
21
-3.65615
0
LINE
8
BLACK
6
CONTINUOUS
10
5.90689
20
-3.65615
11
5.90706
21
-3.65594
0
LINE
8
BLACK
6
CONTINUOUS
10
5.90706
20
-3.65594
11
5.90782
21
-3.65581
0
LINE
8
BLACK
6
CONTINUOUS
10
5.90782
20
-3.65581
11
5.90854
21
-3.65555
0
LINE
8
BLACK
6
CONTINUOUS
10
5.90854
20
-3.65555
11
5.94791
21
-3.65555
0
LINE
8
BLACK
6
CONTINUOUS
10
5.94791
20
-3.65555
11
5.94892
21
-3.65573
0
LINE
8
BLACK
6
CONTINUOUS
10
5.91149
20
-3.6728
11
5.91284
21
-3.6755
0
LINE
8
BLACK
6
CONTINUOUS
10
5.91284
20
-3.6755
11
5.91403
21
-3.6767
0
LINE
8
BLACK
6
CONTINUOUS
10
5.91403
20
-3.6767
11
5.91673
21
-3.67804
0
LINE
8
BLACK
6
CONTINUOUS
10
5.91673
20
-3.67804
11
5.92096
21
-3.67804
0
LINE
8
BLACK
6
CONTINUOUS
10
5.92096
20
-3.67804
11
5.92366
21
-3.6767
0
LINE
8
BLACK
6
CONTINUOUS
10
5.92366
20
-3.6767
11
5.92486
21
-3.6755
0
LINE
8
BLACK
6
CONTINUOUS
10
5.92486
20
-3.6755
11
5.92621
21
-3.6728
0
LINE
8
BLACK
6
CONTINUOUS
10
5.92621
20
-3.6728
11
5.92621
21
-3.66145
0
LINE
8
BLACK
6
CONTINUOUS
10
5.92621
20
-3.66145
11
5.91149
21
-3.66145
0
LINE
8
BLACK
6
CONTINUOUS
10
5.91149
20
-3.66145
11
5.91149
21
-3.6728
0
LINE
8
BLACK
6
CONTINUOUS
10
5.68102
20
-3.64878
11
5.68116
21
-3.64876
0
LINE
8
BLACK
6
CONTINUOUS
10
5.68116
20
-3.64876
11
5.68866
21
-3.65064
0
LINE
8
BLACK
6
CONTINUOUS
10
5.68866
20
-3.65064
11
5.68912
21
-3.65084
0
LINE
8
BLACK
6
CONTINUOUS
10
5.68912
20
-3.65084
11
5.68926
21
-3.65086
0
LINE
8
BLACK
6
CONTINUOUS
10
5.68926
20
-3.65086
11
5.69301
21
-3.65273
0
LINE
8
BLACK
6
CONTINUOUS
10
5.69301
20
-3.65273
11
5.69372
21
-3.65326
0
LINE
8
BLACK
6
CONTINUOUS
10
5.69372
20
-3.65326
11
5.69378
21
-3.65329
0
LINE
8
BLACK
6
CONTINUOUS
10
5.69378
20
-3.65329
11
5.69753
21
-3.65704
0
LINE
8
BLACK
6
CONTINUOUS
10
5.69753
20
-3.65704
11
5.69812
21
-3.65788
0
LINE
8
BLACK
6
CONTINUOUS
10
5.69812
20
-3.65788
11
5.69813
21
-3.65805
0
LINE
8
BLACK
6
CONTINUOUS
10
5.69813
20
-3.65805
11
5.69824
21
-3.65819
0
LINE
8
BLACK
6
CONTINUOUS
10
5.69824
20
-3.65819
11
5.70012
21
-3.66382
0
LINE
8
BLACK
6
CONTINUOUS
10
5.70012
20
-3.66382
11
5.70025
21
-3.66469
0
LINE
8
BLACK
6
CONTINUOUS
10
5.70025
20
-3.66469
11
5.70027
21
-3.66475
0
LINE
8
BLACK
6
CONTINUOUS
10
5.70027
20
-3.66475
11
5.70027
21
-3.6685
0
LINE
8
BLACK
6
CONTINUOUS
10
5.70027
20
-3.6685
11
5.70012
21
-3.66937
0
LINE
8
BLACK
6
CONTINUOUS
10
5.70012
20
-3.66937
11
5.70012
21
-3.66943
0
LINE
8
BLACK
6
CONTINUOUS
10
5.70012
20
-3.66943
11
5.69824
21
-3.67506
0
LINE
8
BLACK
6
CONTINUOUS
10
5.69824
20
-3.67506
11
5.69775
21
-3.67596
0
LINE
8
BLACK
6
CONTINUOUS
10
5.69775
20
-3.67596
11
5.6976
21
-3.67605
0
LINE
8
BLACK
6
CONTINUOUS
10
5.6976
20
-3.67605
11
5.69753
21
-3.67621
0
LINE
8
BLACK
6
CONTINUOUS
10
5.69753
20
-3.67621
11
5.69565
21
-3.67809
0
LINE
8
BLACK
6
CONTINUOUS
10
5.69565
20
-3.67809
11
5.69481
21
-3.67867
0
LINE
8
BLACK
6
CONTINUOUS
10
5.69481
20
-3.67867
11
5.6928
21
-3.67885
0
LINE
8
BLACK
6
CONTINUOUS
10
5.6928
20
-3.67885
11
5.69115
21
-3.67769
0
LINE
8
BLACK
6
CONTINUOUS
10
5.69115
20
-3.67769
11
5.69062
21
-3.67574
0
LINE
8
BLACK
6
CONTINUOUS
10
5.69062
20
-3.67574
11
5.69148
21
-3.67391
0
LINE
8
BLACK
6
CONTINUOUS
10
5.69148
20
-3.67391
11
5.69286
21
-3.67253
0
LINE
8
BLACK
6
CONTINUOUS
10
5.69286
20
-3.67253
11
5.69436
21
-3.66802
0
LINE
8
BLACK
6
CONTINUOUS
10
5.69436
20
-3.66802
11
5.69436
21
-3.66523
0
LINE
8
BLACK
6
CONTINUOUS
10
5.69436
20
-3.66523
11
5.69286
21
-3.66072
0
LINE
8
BLACK
6
CONTINUOUS
10
5.69286
20
-3.66072
11
5.68994
21
-3.6578
0
LINE
8
BLACK
6
CONTINUOUS
10
5.68994
20
-3.6578
11
5.68691
21
-3.65629
0
LINE
8
BLACK
6
CONTINUOUS
10
5.68691
20
-3.65629
11
5.68008
21
-3.65458
0
LINE
8
BLACK
6
CONTINUOUS
10
5.68008
20
-3.65458
11
5.67518
21
-3.65458
0
LINE
8
BLACK
6
CONTINUOUS
10
5.67518
20
-3.65458
11
5.66835
21
-3.65629
0
LINE
8
BLACK
6
CONTINUOUS
10
5.66835
20
-3.65629
11
5.66532
21
-3.6578
0
LINE
8
BLACK
6
CONTINUOUS
10
5.66532
20
-3.6578
11
5.6624
21
-3.66072
0
LINE
8
BLACK
6
CONTINUOUS
10
5.6624
20
-3.66072
11
5.6609
21
-3.66523
0
LINE
8
BLACK
6
CONTINUOUS
10
5.6609
20
-3.66523
11
5.6609
21
-3.66802
0
LINE
8
BLACK
6
CONTINUOUS
10
5.6609
20
-3.66802
11
5.6624
21
-3.67253
0
LINE
8
BLACK
6
CONTINUOUS
10
5.6624
20
-3.67253
11
5.66378
21
-3.67391
0
LINE
8
BLACK
6
CONTINUOUS
10
5.66378
20
-3.67391
11
5.66437
21
-3.67475
0
LINE
8
BLACK
6
CONTINUOUS
10
5.66437
20
-3.67475
11
5.66455
21
-3.67676
0
LINE
8
BLACK
6
CONTINUOUS
10
5.66455
20
-3.67676
11
5.66339
21
-3.67842
0
LINE
8
BLACK
6
CONTINUOUS
10
5.66339
20
-3.67842
11
5.66144
21
-3.67894
0
LINE
8
BLACK
6
CONTINUOUS
10
5.66144
20
-3.67894
11
5.65961
21
-3.67809
0
LINE
8
BLACK
6
CONTINUOUS
10
5.65961
20
-3.67809
11
5.65773
21
-3.67621
0
LINE
8
BLACK
6
CONTINUOUS
10
5.65773
20
-3.67621
11
5.65714
21
-3.67537
0
LINE
8
BLACK
6
CONTINUOUS
10
5.65714
20
-3.67537
11
5.65713
21
-3.67519
0
LINE
8
BLACK
6
CONTINUOUS
10
5.65713
20
-3.67519
11
5.65702
21
-3.67506
0
LINE
8
BLACK
6
CONTINUOUS
10
5.65702
20
-3.67506
11
5.65514
21
-3.66943
0
LINE
8
BLACK
6
CONTINUOUS
10
5.65514
20
-3.66943
11
5.65501
21
-3.66856
0
LINE
8
BLACK
6
CONTINUOUS
10
5.65501
20
-3.66856
11
5.65499
21
-3.6685
0
LINE
8
BLACK
6
CONTINUOUS
10
5.65499
20
-3.6685
11
5.65499
21
-3.66475
0
LINE
8
BLACK
6
CONTINUOUS
10
5.65499
20
-3.66475
11
5.65515
21
-3.66388
0
LINE
8
BLACK
6
CONTINUOUS
10
5.65515
20
-3.66388
11
5.65514
21
-3.66382
0
LINE
8
BLACK
6
CONTINUOUS
10
5.65514
20
-3.66382
11
5.65702
21
-3.65819
0
LINE
8
BLACK
6
CONTINUOUS
10
5.65702
20
-3.65819
11
5.65751
21
-3.65729
0
LINE
8
BLACK
6
CONTINUOUS
10
5.65751
20
-3.65729
11
5.65766
21
-3.6572
0
LINE
8
BLACK
6
CONTINUOUS
10
5.65766
20
-3.6572
11
5.65773
21
-3.65704
0
LINE
8
BLACK
6
CONTINUOUS
10
5.65773
20
-3.65704
11
5.66148
21
-3.65329
0
LINE
8
BLACK
6
CONTINUOUS
10
5.66148
20
-3.65329
11
5.66221
21
-3.65278
0
LINE
8
BLACK
6
CONTINUOUS
10
5.66221
20
-3.65278
11
5.66225
21
-3.65273
0
LINE
8
BLACK
6
CONTINUOUS
10
5.66225
20
-3.65273
11
5.666
21
-3.65086
0
LINE
8
BLACK
6
CONTINUOUS
10
5.666
20
-3.65086
11
5.66649
21
-3.65071
0
LINE
8
BLACK
6
CONTINUOUS
10
5.66649
20
-3.65071
11
5.6666
21
-3.65064
0
LINE
8
BLACK
6
CONTINUOUS
10
5.6666
20
-3.65064
11
5.6741
21
-3.64876
0
LINE
8
BLACK
6
CONTINUOUS
10
5.6741
20
-3.64876
11
5.67469
21
-3.64872
0
LINE
8
BLACK
6
CONTINUOUS
10
5.67469
20
-3.64872
11
5.67482
21
-3.64867
0
LINE
8
BLACK
6
CONTINUOUS
10
5.67482
20
-3.64867
11
5.68044
21
-3.64867
0
LINE
8
BLACK
6
CONTINUOUS
10
5.68044
20
-3.64867
11
5.68102
21
-3.64878
0
LINE
8
BLACK
6
CONTINUOUS
10
4.81333
20
-3.63573
11
4.81487
21
-3.63702
0
LINE
8
BLACK
6
CONTINUOUS
10
4.81487
20
-3.63702
11
4.81522
21
-3.63901
0
LINE
8
BLACK
6
CONTINUOUS
10
4.81522
20
-3.63901
11
4.81421
21
-3.64076
0
LINE
8
BLACK
6
CONTINUOUS
10
4.81421
20
-3.64076
11
4.81232
21
-3.64145
0
LINE
8
BLACK
6
CONTINUOUS
10
4.81232
20
-3.64145
11
4.79652
21
-3.64145
0
LINE
8
BLACK
6
CONTINUOUS
10
4.79652
20
-3.64145
11
4.79652
21
-3.64634
0
LINE
8
BLACK
6
CONTINUOUS
10
4.79652
20
-3.64634
11
4.81401
21
-3.65858
0
LINE
8
BLACK
6
CONTINUOUS
10
4.81401
20
-3.65858
11
4.81473
21
-3.6593
0
LINE
8
BLACK
6
CONTINUOUS
10
4.81473
20
-3.6593
11
4.81526
21
-3.66125
0
LINE
8
BLACK
6
CONTINUOUS
10
4.81526
20
-3.66125
11
4.8144
21
-3.66308
0
LINE
8
BLACK
6
CONTINUOUS
10
4.8144
20
-3.66308
11
4.81257
21
-3.66394
0
LINE
8
BLACK
6
CONTINUOUS
10
4.81257
20
-3.66394
11
4.81062
21
-3.66342
0
LINE
8
BLACK
6
CONTINUOUS
10
4.81062
20
-3.66342
11
4.79651
21
-3.65354
0
LINE
8
BLACK
6
CONTINUOUS
10
4.79651
20
-3.65354
11
4.79634
21
-3.65451
0
LINE
8
BLACK
6
CONTINUOUS
10
4.79634
20
-3.65451
11
4.79623
21
-3.65464
0
LINE
8
BLACK
6
CONTINUOUS
10
4.79623
20
-3.65464
11
4.79621
21
-3.65482
0
LINE
8
BLACK
6
CONTINUOUS
10
4.79621
20
-3.65482
11
4.79433
21
-3.65857
0
LINE
8
BLACK
6
CONTINUOUS
10
4.79433
20
-3.65857
11
4.79381
21
-3.65928
0
LINE
8
BLACK
6
CONTINUOUS
10
4.79381
20
-3.65928
11
4.79378
21
-3.65934
0
LINE
8
BLACK
6
CONTINUOUS
10
4.79378
20
-3.65934
11
4.79191
21
-3.66121
0
LINE
8
BLACK
6
CONTINUOUS
10
4.79191
20
-3.66121
11
4.79118
21
-3.66172
0
LINE
8
BLACK
6
CONTINUOUS
10
4.79118
20
-3.66172
11
4.79114
21
-3.66176
0
LINE
8
BLACK
6
CONTINUOUS
10
4.79114
20
-3.66176
11
4.78739
21
-3.66364
0
LINE
8
BLACK
6
CONTINUOUS
10
4.78739
20
-3.66364
11
4.78641
21
-3.66393
0
LINE
8
BLACK
6
CONTINUOUS
10
4.78641
20
-3.66393
11
4.78623
21
-3.66389
0
LINE
8
BLACK
6
CONTINUOUS
10
4.78623
20
-3.66389
11
4.78607
21
-3.66395
0
LINE
8
BLACK
6
CONTINUOUS
10
4.78607
20
-3.66395
11
4.78044
21
-3.66395
0
LINE
8
BLACK
6
CONTINUOUS
10
4.78044
20
-3.66395
11
4.77943
21
-3.66377
0
LINE
8
BLACK
6
CONTINUOUS
10
4.77943
20
-3.66377
11
4.7793
21
-3.66366
0
LINE
8
BLACK
6
CONTINUOUS
10
4.7793
20
-3.66366
11
4.77912
21
-3.66364
0
LINE
8
BLACK
6
CONTINUOUS
10
4.77912
20
-3.66364
11
4.77537
21
-3.66176
0
LINE
8
BLACK
6
CONTINUOUS
10
4.77537
20
-3.66176
11
4.77467
21
-3.66124
0
LINE
8
BLACK
6
CONTINUOUS
10
4.77467
20
-3.66124
11
4.77461
21
-3.66121
0
LINE
8
BLACK
6
CONTINUOUS
10
4.77461
20
-3.66121
11
4.77273
21
-3.65934
0
LINE
8
BLACK
6
CONTINUOUS
10
4.77273
20
-3.65934
11
4.77223
21
-3.65861
0
LINE
8
BLACK
6
CONTINUOUS
10
4.77223
20
-3.65861
11
4.77218
21
-3.65857
0
LINE
8
BLACK
6
CONTINUOUS
10
4.77218
20
-3.65857
11
4.7703
21
-3.65482
0
LINE
8
BLACK
6
CONTINUOUS
10
4.7703
20
-3.65482
11
4.77001
21
-3.65384
0
LINE
8
BLACK
6
CONTINUOUS
10
4.77001
20
-3.65384
11
4.77005
21
-3.65366
0
LINE
8
BLACK
6
CONTINUOUS
10
4.77005
20
-3.65366
11
4.76999
21
-3.6535
0
LINE
8
BLACK
6
CONTINUOUS
10
4.76999
20
-3.6535
11
4.76999
21
-3.6385
0
LINE
8
BLACK
6
CONTINUOUS
10
4.76999
20
-3.6385
11
4.77006
21
-3.63812
0
LINE
8
BLACK
6
CONTINUOUS
10
4.77006
20
-3.63812
11
4.77004
21
-3.63799
0
LINE
8
BLACK
6
CONTINUOUS
10
4.77004
20
-3.63799
11
4.7701
21
-3.63787
0
LINE
8
BLACK
6
CONTINUOUS
10
4.7701
20
-3.63787
11
4.77017
21
-3.63749
0
LINE
8
BLACK
6
CONTINUOUS
10
4.77017
20
-3.63749
11
4.77066
21
-3.6369
0
LINE
8
BLACK
6
CONTINUOUS
10
4.77066
20
-3.6369
11
4.77105
21
-3.63624
0
LINE
8
BLACK
6
CONTINUOUS
10
4.77105
20
-3.63624
11
4.7713
21
-3.63615
0
LINE
8
BLACK
6
CONTINUOUS
10
4.7713
20
-3.63615
11
4.77147
21
-3.63594
0
LINE
8
BLACK
6
CONTINUOUS
10
4.77147
20
-3.63594
11
4.77222
21
-3.63581
0
LINE
8
BLACK
6
CONTINUOUS
10
4.77222
20
-3.63581
11
4.77295
21
-3.63555
0
LINE
8
BLACK
6
CONTINUOUS
10
4.77295
20
-3.63555
11
4.81232
21
-3.63555
0
LINE
8
BLACK
6
CONTINUOUS
10
4.81232
20
-3.63555
11
4.81333
21
-3.63573
0
LINE
8
BLACK
6
CONTINUOUS
10
4.7759
20
-3.6528
11
4.77725
21
-3.6555
0
LINE
8
BLACK
6
CONTINUOUS
10
4.77725
20
-3.6555
11
4.77844
21
-3.6567
0
LINE
8
BLACK
6
CONTINUOUS
10
4.77844
20
-3.6567
11
4.78114
21
-3.65804
0
LINE
8
BLACK
6
CONTINUOUS
10
4.78114
20
-3.65804
11
4.78537
21
-3.65804
0
LINE
8
BLACK
6
CONTINUOUS
10
4.78537
20
-3.65804
11
4.78807
21
-3.6567
0
LINE
8
BLACK
6
CONTINUOUS
10
4.78807
20
-3.6567
11
4.78927
21
-3.6555
0
LINE
8
BLACK
6
CONTINUOUS
10
4.78927
20
-3.6555
11
4.79062
21
-3.6528
0
LINE
8
BLACK
6
CONTINUOUS
10
4.79062
20
-3.6528
11
4.79062
21
-3.64145
0
LINE
8
BLACK
6
CONTINUOUS
10
4.79062
20
-3.64145
11
4.7759
21
-3.64145
0
LINE
8
BLACK
6
CONTINUOUS
10
4.7759
20
-3.64145
11
4.7759
21
-3.6528
0
LINE
8
BLACK
6
CONTINUOUS
10
5.83945
20
-3.59107
11
5.83962
21
-3.59106
0
LINE
8
BLACK
6
CONTINUOUS
10
5.83962
20
-3.59106
11
5.84031
21
-3.59156
0
LINE
8
BLACK
6
CONTINUOUS
10
5.84031
20
-3.59156
11
5.84105
21
-3.59199
0
LINE
8
BLACK
6
CONTINUOUS
10
5.84105
20
-3.59199
11
5.84111
21
-3.59215
0
LINE
8
BLACK
6
CONTINUOUS
10
5.84111
20
-3.59215
11
5.84124
21
-3.59225
0
LINE
8
BLACK
6
CONTINUOUS
10
5.84124
20
-3.59225
11
5.84483
21
-3.59763
0
LINE
8
BLACK
6
CONTINUOUS
10
5.84483
20
-3.59763
11
5.84804
21
-3.60084
0
LINE
8
BLACK
6
CONTINUOUS
10
5.84804
20
-3.60084
11
5.85136
21
-3.6025
0
LINE
8
BLACK
6
CONTINUOUS
10
5.85136
20
-3.6025
11
5.85218
21
-3.60311
0
LINE
8
BLACK
6
CONTINUOUS
10
5.85218
20
-3.60311
11
5.85298
21
-3.60496
0
LINE
8
BLACK
6
CONTINUOUS
10
5.85298
20
-3.60496
11
5.85241
21
-3.6069
0
LINE
8
BLACK
6
CONTINUOUS
10
5.85241
20
-3.6069
11
5.85072
21
-3.60801
0
LINE
8
BLACK
6
CONTINUOUS
10
5.85072
20
-3.60801
11
5.84872
21
-3.60778
0
LINE
8
BLACK
6
CONTINUOUS
10
5.84872
20
-3.60778
11
5.84497
21
-3.60591
0
LINE
8
BLACK
6
CONTINUOUS
10
5.84497
20
-3.60591
11
5.84426
21
-3.60538
0
LINE
8
BLACK
6
CONTINUOUS
10
5.84426
20
-3.60538
11
5.8442
21
-3.60535
0
LINE
8
BLACK
6
CONTINUOUS
10
5.8442
20
-3.60535
11
5.84174
21
-3.60289
0
LINE
8
BLACK
6
CONTINUOUS
10
5.84174
20
-3.60289
11
5.84174
21
-3.63031
0
LINE
8
BLACK
6
CONTINUOUS
10
5.84174
20
-3.63031
11
5.85004
21
-3.63031
0
LINE
8
BLACK
6
CONTINUOUS
10
5.85004
20
-3.63031
11
5.85105
21
-3.63049
0
LINE
8
BLACK
6
CONTINUOUS
10
5.85105
20
-3.63049
11
5.85259
21
-3.63178
0
LINE
8
BLACK
6
CONTINUOUS
10
5.85259
20
-3.63178
11
5.85294
21
-3.63377
0
LINE
8
BLACK
6
CONTINUOUS
10
5.85294
20
-3.63377
11
5.85193
21
-3.63552
0
LINE
8
BLACK
6
CONTINUOUS
10
5.85193
20
-3.63552
11
5.85004
21
-3.63621
0
LINE
8
BLACK
6
CONTINUOUS
10
5.85004
20
-3.63621
11
5.82754
21
-3.63621
0
LINE
8
BLACK
6
CONTINUOUS
10
5.82754
20
-3.63621
11
5.82653
21
-3.63604
0
LINE
8
BLACK
6
CONTINUOUS
10
5.82653
20
-3.63604
11
5.82498
21
-3.63474
0
LINE
8
BLACK
6
CONTINUOUS
10
5.82498
20
-3.63474
11
5.82463
21
-3.63275
0
LINE
8
BLACK
6
CONTINUOUS
10
5.82463
20
-3.63275
11
5.82564
21
-3.631
0
LINE
8
BLACK
6
CONTINUOUS
10
5.82564
20
-3.631
11
5.82754
21
-3.63031
0
LINE
8
BLACK
6
CONTINUOUS
10
5.82754
20
-3.63031
11
5.83583
21
-3.63031
0
LINE
8
BLACK
6
CONTINUOUS
10
5.83583
20
-3.63031
11
5.83583
21
-3.59389
0
LINE
8
BLACK
6
CONTINUOUS
10
5.83583
20
-3.59389
11
5.83601
21
-3.59288
0
LINE
8
BLACK
6
CONTINUOUS
10
5.83601
20
-3.59288
11
5.83612
21
-3.59275
0
LINE
8
BLACK
6
CONTINUOUS
10
5.83612
20
-3.59275
11
5.83614
21
-3.59258
0
LINE
8
BLACK
6
CONTINUOUS
10
5.83614
20
-3.59258
11
5.83676
21
-3.59199
0
LINE
8
BLACK
6
CONTINUOUS
10
5.83676
20
-3.59199
11
5.83731
21
-3.59133
0
LINE
8
BLACK
6
CONTINUOUS
10
5.83731
20
-3.59133
11
5.83748
21
-3.5913
0
LINE
8
BLACK
6
CONTINUOUS
10
5.83748
20
-3.5913
11
5.8376
21
-3.59119
0
LINE
8
BLACK
6
CONTINUOUS
10
5.8376
20
-3.59119
11
5.83846
21
-3.59113
0
LINE
8
BLACK
6
CONTINUOUS
10
5.83846
20
-3.59113
11
5.8393
21
-3.59098
0
LINE
8
BLACK
6
CONTINUOUS
10
5.8393
20
-3.59098
11
5.83945
21
-3.59107
0
LINE
8
BLACK
6
CONTINUOUS
10
5.89167
20
-3.59199
11
5.89236
21
-3.59389
0
LINE
8
BLACK
6
CONTINUOUS
10
5.89236
20
-3.59389
11
5.89236
21
-3.62576
0
LINE
8
BLACK
6
CONTINUOUS
10
5.89236
20
-3.62576
11
5.89218
21
-3.62677
0
LINE
8
BLACK
6
CONTINUOUS
10
5.89218
20
-3.62677
11
5.89207
21
-3.62691
0
LINE
8
BLACK
6
CONTINUOUS
10
5.89207
20
-3.62691
11
5.89205
21
-3.62708
0
LINE
8
BLACK
6
CONTINUOUS
10
5.89205
20
-3.62708
11
5.89017
21
-3.63083
0
LINE
8
BLACK
6
CONTINUOUS
10
5.89017
20
-3.63083
11
5.88965
21
-3.63154
0
LINE
8
BLACK
6
CONTINUOUS
10
5.88965
20
-3.63154
11
5.88962
21
-3.6316
0
LINE
8
BLACK
6
CONTINUOUS
10
5.88962
20
-3.6316
11
5.88774
21
-3.63347
0
LINE
8
BLACK
6
CONTINUOUS
10
5.88774
20
-3.63347
11
5.88702
21
-3.63398
0
LINE
8
BLACK
6
CONTINUOUS
10
5.88702
20
-3.63398
11
5.88698
21
-3.63403
0
LINE
8
BLACK
6
CONTINUOUS
10
5.88698
20
-3.63403
11
5.88323
21
-3.6359
0
LINE
8
BLACK
6
CONTINUOUS
10
5.88323
20
-3.6359
11
5.88224
21
-3.63619
0
LINE
8
BLACK
6
CONTINUOUS
10
5.88224
20
-3.63619
11
5.88207
21
-3.63615
0
LINE
8
BLACK
6
CONTINUOUS
10
5.88207
20
-3.63615
11
5.88191
21
-3.63621
0
LINE
8
BLACK
6
CONTINUOUS
10
5.88191
20
-3.63621
11
5.87441
21
-3.63621
0
LINE
8
BLACK
6
CONTINUOUS
10
5.87441
20
-3.63621
11
5.8734
21
-3.63604
0
LINE
8
BLACK
6
CONTINUOUS
10
5.8734
20
-3.63604
11
5.87326
21
-3.63592
0
LINE
8
BLACK
6
CONTINUOUS
10
5.87326
20
-3.63592
11
5.87309
21
-3.6359
0
LINE
8
BLACK
6
CONTINUOUS
10
5.87309
20
-3.6359
11
5.86934
21
-3.63403
0
LINE
8
BLACK
6
CONTINUOUS
10
5.86934
20
-3.63403
11
5.86863
21
-3.6335
0
LINE
8
BLACK
6
CONTINUOUS
10
5.86863
20
-3.6335
11
5.86857
21
-3.63347
0
LINE
8
BLACK
6
CONTINUOUS
10
5.86857
20
-3.63347
11
5.8667
21
-3.6316
0
LINE
8
BLACK
6
CONTINUOUS
10
5.8667
20
-3.6316
11
5.86619
21
-3.63088
0
LINE
8
BLACK
6
CONTINUOUS
10
5.86619
20
-3.63088
11
5.86614
21
-3.63083
0
LINE
8
BLACK
6
CONTINUOUS
10
5.86614
20
-3.63083
11
5.86427
21
-3.62708
0
LINE
8
BLACK
6
CONTINUOUS
10
5.86427
20
-3.62708
11
5.86398
21
-3.6261
0
LINE
8
BLACK
6
CONTINUOUS
10
5.86398
20
-3.6261
11
5.86402
21
-3.62593
0
LINE
8
BLACK
6
CONTINUOUS
10
5.86402
20
-3.62593
11
5.86396
21
-3.62576
0
LINE
8
BLACK
6
CONTINUOUS
10
5.86396
20
-3.62576
11
5.86396
21
-3.59389
0
LINE
8
BLACK
6
CONTINUOUS
10
5.86396
20
-3.59389
11
5.86413
21
-3.59288
0
LINE
8
BLACK
6
CONTINUOUS
10
5.86413
20
-3.59288
11
5.86543
21
-3.59133
0
LINE
8
BLACK
6
CONTINUOUS
10
5.86543
20
-3.59133
11
5.86742
21
-3.59098
0
LINE
8
BLACK
6
CONTINUOUS
10
5.86742
20
-3.59098
11
5.86917
21
-3.59199
0
LINE
8
BLACK
6
CONTINUOUS
10
5.86917
20
-3.59199
11
5.86986
21
-3.59389
0
LINE
8
BLACK
6
CONTINUOUS
10
5.86986
20
-3.59389
11
5.86986
21
-3.62506
0
LINE
8
BLACK
6
CONTINUOUS
10
5.86986
20
-3.62506
11
5.87121
21
-3.62776
0
LINE
8
BLACK
6
CONTINUOUS
10
5.87121
20
-3.62776
11
5.87241
21
-3.62896
0
LINE
8
BLACK
6
CONTINUOUS
10
5.87241
20
-3.62896
11
5.8751
21
-3.63031
0
LINE
8
BLACK
6
CONTINUOUS
10
5.8751
20
-3.63031
11
5.88121
21
-3.63031
0
LINE
8
BLACK
6
CONTINUOUS
10
5.88121
20
-3.63031
11
5.88391
21
-3.62896
0
LINE
8
BLACK
6
CONTINUOUS
10
5.88391
20
-3.62896
11
5.8851
21
-3.62776
0
LINE
8
BLACK
6
CONTINUOUS
10
5.8851
20
-3.62776
11
5.88645
21
-3.62506
0
LINE
8
BLACK
6
CONTINUOUS
10
5.88645
20
-3.62506
11
5.88645
21
-3.59389
0
LINE
8
BLACK
6
CONTINUOUS
10
5.88645
20
-3.59389
11
5.88663
21
-3.59288
0
LINE
8
BLACK
6
CONTINUOUS
10
5.88663
20
-3.59288
11
5.88793
21
-3.59133
0
LINE
8
BLACK
6
CONTINUOUS
10
5.88793
20
-3.59133
11
5.88992
21
-3.59098
0
LINE
8
BLACK
6
CONTINUOUS
10
5.88992
20
-3.59098
11
5.89167
21
-3.59199
0
LINE
8
BLACK
6
CONTINUOUS
10
4.76222
20
-3.53204
11
4.76291
21
-3.53394
0
LINE
8
BLACK
6
CONTINUOUS
10
4.76291
20
-3.53394
11
4.76291
21
-3.58118
0
LINE
8
BLACK
6
CONTINUOUS
10
4.76291
20
-3.58118
11
4.76274
21
-3.58219
0
LINE
8
BLACK
6
CONTINUOUS
10
4.76274
20
-3.58219
11
4.76144
21
-3.58374
0
LINE
8
BLACK
6
CONTINUOUS
10
4.76144
20
-3.58374
11
4.75945
21
-3.58409
0
LINE
8
BLACK
6
CONTINUOUS
10
4.75945
20
-3.58409
11
4.7577
21
-3.58308
0
LINE
8
BLACK
6
CONTINUOUS
10
4.7577
20
-3.58308
11
4.75701
21
-3.58118
0
LINE
8
BLACK
6
CONTINUOUS
10
4.75701
20
-3.58118
11
4.75701
21
-3.53394
0
LINE
8
BLACK
6
CONTINUOUS
10
4.75701
20
-3.53394
11
4.75719
21
-3.53293
0
LINE
8
BLACK
6
CONTINUOUS
10
4.75719
20
-3.53293
11
4.75848
21
-3.53138
0
LINE
8
BLACK
6
CONTINUOUS
10
4.75848
20
-3.53138
11
4.76047
21
-3.53103
0
LINE
8
BLACK
6
CONTINUOUS
10
4.76047
20
-3.53103
11
4.76222
21
-3.53204
0
LINE
8
BLACK
6
CONTINUOUS
10
4.83112
20
-3.53204
11
4.83181
21
-3.53394
0
LINE
8
BLACK
6
CONTINUOUS
10
4.83181
20
-3.53394
11
4.83181
21
-3.58118
0
LINE
8
BLACK
6
CONTINUOUS
10
4.83181
20
-3.58118
11
4.83163
21
-3.58219
0
LINE
8
BLACK
6
CONTINUOUS
10
4.83163
20
-3.58219
11
4.83033
21
-3.58374
0
LINE
8
BLACK
6
CONTINUOUS
10
4.83033
20
-3.58374
11
4.82835
21
-3.58409
0
LINE
8
BLACK
6
CONTINUOUS
10
4.82835
20
-3.58409
11
4.8266
21
-3.58308
0
LINE
8
BLACK
6
CONTINUOUS
10
4.8266
20
-3.58308
11
4.82591
21
-3.58118
0
LINE
8
BLACK
6
CONTINUOUS
10
4.82591
20
-3.58118
11
4.82591
21
-3.53394
0
LINE
8
BLACK
6
CONTINUOUS
10
4.82591
20
-3.53394
11
4.82608
21
-3.53293
0
LINE
8
BLACK
6
CONTINUOUS
10
4.82608
20
-3.53293
11
4.82738
21
-3.53138
0
LINE
8
BLACK
6
CONTINUOUS
10
4.82738
20
-3.53138
11
4.82937
21
-3.53103
0
LINE
8
BLACK
6
CONTINUOUS
10
4.82937
20
-3.53103
11
4.83112
21
-3.53204
0
LINE
8
BLACK
6
CONTINUOUS
10
5.7781
20
-3.57034
11
5.77823
21
-3.57032
0
LINE
8
BLACK
6
CONTINUOUS
10
5.77823
20
-3.57032
11
5.77834
21
-3.57039
0
LINE
8
BLACK
6
CONTINUOUS
10
5.77834
20
-3.57039
11
5.77873
21
-3.57045
0
LINE
8
BLACK
6
CONTINUOUS
10
5.77873
20
-3.57045
11
5.77931
21
-3.57095
0
LINE
8
BLACK
6
CONTINUOUS
10
5.77931
20
-3.57095
11
5.77998
21
-3.57133
0
LINE
8
BLACK
6
CONTINUOUS
10
5.77998
20
-3.57133
11
5.78007
21
-3.57158
0
LINE
8
BLACK
6
CONTINUOUS
10
5.78007
20
-3.57158
11
5.78027
21
-3.57175
0
LINE
8
BLACK
6
CONTINUOUS
10
5.78027
20
-3.57175
11
5.78041
21
-3.57251
0
LINE
8
BLACK
6
CONTINUOUS
10
5.78041
20
-3.57251
11
5.78067
21
-3.57323
0
LINE
8
BLACK
6
CONTINUOUS
10
5.78067
20
-3.57323
11
5.78067
21
-3.57598
0
LINE
8
BLACK
6
CONTINUOUS
10
5.78067
20
-3.57598
11
5.93815
21
-3.57598
0
LINE
8
BLACK
6
CONTINUOUS
10
5.93815
20
-3.57598
11
5.93815
21
-3.57323
0
LINE
8
BLACK
6
CONTINUOUS
10
5.93815
20
-3.57323
11
5.93833
21
-3.57222
0
LINE
8
BLACK
6
CONTINUOUS
10
5.93833
20
-3.57222
11
5.93963
21
-3.57067
0
LINE
8
BLACK
6
CONTINUOUS
10
5.93963
20
-3.57067
11
5.94162
21
-3.57032
0
LINE
8
BLACK
6
CONTINUOUS
10
5.94162
20
-3.57032
11
5.94336
21
-3.57133
0
LINE
8
BLACK
6
CONTINUOUS
10
5.94336
20
-3.57133
11
5.94406
21
-3.57323
0
LINE
8
BLACK
6
CONTINUOUS
10
5.94406
20
-3.57323
11
5.94406
21
-3.57894
0
LINE
8
BLACK
6
CONTINUOUS
10
5.94406
20
-3.57894
11
5.94399
21
-3.57932
0
LINE
8
BLACK
6
CONTINUOUS
10
5.94399
20
-3.57932
11
5.94401
21
-3.57945
0
LINE
8
BLACK
6
CONTINUOUS
10
5.94401
20
-3.57945
11
5.94394
21
-3.57956
0
LINE
8
BLACK
6
CONTINUOUS
10
5.94394
20
-3.57956
11
5.94388
21
-3.57995
0
LINE
8
BLACK
6
CONTINUOUS
10
5.94388
20
-3.57995
11
5.94338
21
-3.58053
0
LINE
8
BLACK
6
CONTINUOUS
10
5.94338
20
-3.58053
11
5.943
21
-3.5812
0
LINE
8
BLACK
6
CONTINUOUS
10
5.943
20
-3.5812
11
5.94275
21
-3.58129
0
LINE
8
BLACK
6
CONTINUOUS
10
5.94275
20
-3.58129
11
5.94258
21
-3.58149
0
LINE
8
BLACK
6
CONTINUOUS
10
5.94258
20
-3.58149
11
5.94182
21
-3.58163
0
LINE
8
BLACK
6
CONTINUOUS
10
5.94182
20
-3.58163
11
5.9411
21
-3.58189
0
LINE
8
BLACK
6
CONTINUOUS
10
5.9411
20
-3.58189
11
5.77772
21
-3.58189
0
LINE
8
BLACK
6
CONTINUOUS
10
5.77772
20
-3.58189
11
5.77733
21
-3.58182
0
LINE
8
BLACK
6
CONTINUOUS
10
5.77733
20
-3.58182
11
5.7772
21
-3.58184
0
LINE
8
BLACK
6
CONTINUOUS
10
5.7772
20
-3.58184
11
5.77709
21
-3.58178
0
LINE
8
BLACK
6
CONTINUOUS
10
5.77709
20
-3.58178
11
5.77671
21
-3.58171
0
LINE
8
BLACK
6
CONTINUOUS
10
5.77671
20
-3.58171
11
5.77612
21
-3.58122
0
LINE
8
BLACK
6
CONTINUOUS
10
5.77612
20
-3.58122
11
5.77545
21
-3.58083
0
LINE
8
BLACK
6
CONTINUOUS
10
5.77545
20
-3.58083
11
5.77536
21
-3.58058
0
LINE
8
BLACK
6
CONTINUOUS
10
5.77536
20
-3.58058
11
5.77516
21
-3.58041
0
LINE
8
BLACK
6
CONTINUOUS
10
5.77516
20
-3.58041
11
5.77503
21
-3.57966
0
LINE
8
BLACK
6
CONTINUOUS
10
5.77503
20
-3.57966
11
5.77476
21
-3.57894
0
LINE
8
BLACK
6
CONTINUOUS
10
5.77476
20
-3.57894
11
5.77476
21
-3.57618
0
LINE
8
BLACK
6
CONTINUOUS
10
5.77476
20
-3.57618
11
5.7226
21
-3.57618
0
LINE
8
BLACK
6
CONTINUOUS
10
5.7226
20
-3.57618
11
5.72159
21
-3.576
0
LINE
8
BLACK
6
CONTINUOUS
10
5.72159
20
-3.576
11
5.72004
21
-3.5747
0
LINE
8
BLACK
6
CONTINUOUS
10
5.72004
20
-3.5747
11
5.71969
21
-3.57272
0
LINE
8
BLACK
6
CONTINUOUS
10
5.71969
20
-3.57272
11
5.7207
21
-3.57097
0
LINE
8
BLACK
6
CONTINUOUS
10
5.7207
20
-3.57097
11
5.7226
21
-3.57028
0
LINE
8
BLACK
6
CONTINUOUS
10
5.7226
20
-3.57028
11
5.77772
21
-3.57028
0
LINE
8
BLACK
6
CONTINUOUS
10
5.77772
20
-3.57028
11
5.7781
21
-3.57034
0
LINE
8
BLACK
6
CONTINUOUS
10
5.2251
20
-3.48825
11
5.22665
21
-3.48955
0
LINE
8
BLACK
6
CONTINUOUS
10
5.22665
20
-3.48955
11
5.227
21
-3.49154
0
LINE
8
BLACK
6
CONTINUOUS
10
5.227
20
-3.49154
11
5.22599
21
-3.49329
0
LINE
8
BLACK
6
CONTINUOUS
10
5.22599
20
-3.49329
11
5.22409
21
-3.49398
0
LINE
8
BLACK
6
CONTINUOUS
10
5.22409
20
-3.49398
11
5.18472
21
-3.49398
0
LINE
8
BLACK
6
CONTINUOUS
10
5.18472
20
-3.49398
11
5.18371
21
-3.4938
0
LINE
8
BLACK
6
CONTINUOUS
10
5.18371
20
-3.4938
11
5.18217
21
-3.4925
0
LINE
8
BLACK
6
CONTINUOUS
10
5.18217
20
-3.4925
11
5.18182
21
-3.49051
0
LINE
8
BLACK
6
CONTINUOUS
10
5.18182
20
-3.49051
11
5.18283
21
-3.48876
0
LINE
8
BLACK
6
CONTINUOUS
10
5.18283
20
-3.48876
11
5.18472
21
-3.48807
0
LINE
8
BLACK
6
CONTINUOUS
10
5.18472
20
-3.48807
11
5.22409
21
-3.48807
0
LINE
8
BLACK
6
CONTINUOUS
10
5.22409
20
-3.48807
11
5.2251
21
-3.48825
0
LINE
8
BLACK
6
CONTINUOUS
10
5.55393
20
-3.4334
11
5.55406
21
-3.43337
0
LINE
8
BLACK
6
CONTINUOUS
10
5.55406
20
-3.43337
11
5.55417
21
-3.43344
0
LINE
8
BLACK
6
CONTINUOUS
10
5.55417
20
-3.43344
11
5.55455
21
-3.43351
0
LINE
8
BLACK
6
CONTINUOUS
10
5.55455
20
-3.43351
11
5.55514
21
-3.434
0
LINE
8
BLACK
6
CONTINUOUS
10
5.55514
20
-3.434
11
5.55581
21
-3.43438
0
LINE
8
BLACK
6
CONTINUOUS
10
5.55581
20
-3.43438
11
5.5559
21
-3.43463
0
LINE
8
BLACK
6
CONTINUOUS
10
5.5559
20
-3.43463
11
5.5561
21
-3.4348
0
LINE
8
BLACK
6
CONTINUOUS
10
5.5561
20
-3.4348
11
5.55623
21
-3.43556
0
LINE
8
BLACK
6
CONTINUOUS
10
5.55623
20
-3.43556
11
5.5565
21
-3.43628
0
LINE
8
BLACK
6
CONTINUOUS
10
5.5565
20
-3.43628
11
5.5565
21
-3.43727
0
LINE
8
BLACK
6
CONTINUOUS
10
5.5565
20
-3.43727
11
5.55632
21
-3.43828
0
LINE
8
BLACK
6
CONTINUOUS
10
5.55632
20
-3.43828
11
5.55502
21
-3.43982
0
LINE
8
BLACK
6
CONTINUOUS
10
5.55502
20
-3.43982
11
5.55303
21
-3.44017
0
LINE
8
BLACK
6
CONTINUOUS
10
5.55303
20
-3.44017
11
5.5514
21
-3.43923
0
LINE
8
BLACK
6
CONTINUOUS
10
5.5514
20
-3.43923
11
5.37244
21
-3.43923
0
LINE
8
BLACK
6
CONTINUOUS
10
5.37244
20
-3.43923
11
5.37195
21
-3.43982
0
LINE
8
BLACK
6
CONTINUOUS
10
5.37195
20
-3.43982
11
5.36996
21
-3.44017
0
LINE
8
BLACK
6
CONTINUOUS
10
5.36996
20
-3.44017
11
5.36821
21
-3.43916
0
LINE
8
BLACK
6
CONTINUOUS
10
5.36821
20
-3.43916
11
5.36752
21
-3.43727
0
LINE
8
BLACK
6
CONTINUOUS
10
5.36752
20
-3.43727
11
5.36752
21
-3.43628
0
LINE
8
BLACK
6
CONTINUOUS
10
5.36752
20
-3.43628
11
5.36759
21
-3.4359
0
LINE
8
BLACK
6
CONTINUOUS
10
5.36759
20
-3.4359
11
5.36756
21
-3.43577
0
LINE
8
BLACK
6
CONTINUOUS
10
5.36756
20
-3.43577
11
5.36763
21
-3.43565
0
LINE
8
BLACK
6
CONTINUOUS
10
5.36763
20
-3.43565
11
5.3677
21
-3.43527
0
LINE
8
BLACK
6
CONTINUOUS
10
5.3677
20
-3.43527
11
5.36819
21
-3.43468
0
LINE
8
BLACK
6
CONTINUOUS
10
5.36819
20
-3.43468
11
5.36857
21
-3.43402
0
LINE
8
BLACK
6
CONTINUOUS
10
5.36857
20
-3.43402
11
5.36882
21
-3.43393
0
LINE
8
BLACK
6
CONTINUOUS
10
5.36882
20
-3.43393
11
5.369
21
-3.43372
0
LINE
8
BLACK
6
CONTINUOUS
10
5.369
20
-3.43372
11
5.36975
21
-3.43359
0
LINE
8
BLACK
6
CONTINUOUS
10
5.36975
20
-3.43359
11
5.37047
21
-3.43333
0
LINE
8
BLACK
6
CONTINUOUS
10
5.37047
20
-3.43333
11
5.55354
21
-3.43333
0
LINE
8
BLACK
6
CONTINUOUS
10
5.55354
20
-3.43333
11
5.55393
21
-3.4334
0
LINE
8
BLACK
6
CONTINUOUS
10
5.2251
20
-3.42132
11
5.22665
21
-3.42262
0
LINE
8
BLACK
6
CONTINUOUS
10
5.22665
20
-3.42262
11
5.227
21
-3.42461
0
LINE
8
BLACK
6
CONTINUOUS
10
5.227
20
-3.42461
11
5.22599
21
-3.42636
0
LINE
8
BLACK
6
CONTINUOUS
10
5.22599
20
-3.42636
11
5.22409
21
-3.42705
0
LINE
8
BLACK
6
CONTINUOUS
10
5.22409
20
-3.42705
11
5.18472
21
-3.42705
0
LINE
8
BLACK
6
CONTINUOUS
10
5.18472
20
-3.42705
11
5.18371
21
-3.42687
0
LINE
8
BLACK
6
CONTINUOUS
10
5.18371
20
-3.42687
11
5.18217
21
-3.42557
0
LINE
8
BLACK
6
CONTINUOUS
10
5.18217
20
-3.42557
11
5.18182
21
-3.42358
0
LINE
8
BLACK
6
CONTINUOUS
10
5.18182
20
-3.42358
11
5.18283
21
-3.42183
0
LINE
8
BLACK
6
CONTINUOUS
10
5.18283
20
-3.42183
11
5.18472
21
-3.42114
0
LINE
8
BLACK
6
CONTINUOUS
10
5.18472
20
-3.42114
11
5.22409
21
-3.42114
0
LINE
8
BLACK
6
CONTINUOUS
10
5.22409
20
-3.42114
11
5.2251
21
-3.42132
0
LINE
8
BLACK
6
CONTINUOUS
10
5.45042
20
-3.36832
11
5.45056
21
-3.36843
0
LINE
8
BLACK
6
CONTINUOUS
10
5.45056
20
-3.36843
11
5.45073
21
-3.36845
0
LINE
8
BLACK
6
CONTINUOUS
10
5.45073
20
-3.36845
11
5.45448
21
-3.37033
0
LINE
8
BLACK
6
CONTINUOUS
10
5.45448
20
-3.37033
11
5.45519
21
-3.37085
0
LINE
8
BLACK
6
CONTINUOUS
10
5.45519
20
-3.37085
11
5.45525
21
-3.37088
0
LINE
8
BLACK
6
CONTINUOUS
10
5.45525
20
-3.37088
11
5.45712
21
-3.37276
0
LINE
8
BLACK
6
CONTINUOUS
10
5.45712
20
-3.37276
11
5.45771
21
-3.3736
0
LINE
8
BLACK
6
CONTINUOUS
10
5.45771
20
-3.3736
11
5.45789
21
-3.37561
0
LINE
8
BLACK
6
CONTINUOUS
10
5.45789
20
-3.37561
11
5.45673
21
-3.37726
0
LINE
8
BLACK
6
CONTINUOUS
10
5.45673
20
-3.37726
11
5.45478
21
-3.37779
0
LINE
8
BLACK
6
CONTINUOUS
10
5.45478
20
-3.37779
11
5.45295
21
-3.37693
0
LINE
8
BLACK
6
CONTINUOUS
10
5.45295
20
-3.37693
11
5.45141
21
-3.3754
0
LINE
8
BLACK
6
CONTINUOUS
10
5.45141
20
-3.3754
11
5.44871
21
-3.37405
0
LINE
8
BLACK
6
CONTINUOUS
10
5.44871
20
-3.37405
11
5.44073
21
-3.37405
0
LINE
8
BLACK
6
CONTINUOUS
10
5.44073
20
-3.37405
11
5.43804
21
-3.3754
0
LINE
8
BLACK
6
CONTINUOUS
10
5.43804
20
-3.3754
11
5.43684
21
-3.37659
0
LINE
8
BLACK
6
CONTINUOUS
10
5.43684
20
-3.37659
11
5.43549
21
-3.37929
0
LINE
8
BLACK
6
CONTINUOUS
10
5.43549
20
-3.37929
11
5.43549
21
-3.38186
0
LINE
8
BLACK
6
CONTINUOUS
10
5.43549
20
-3.38186
11
5.43699
21
-3.38637
0
LINE
8
BLACK
6
CONTINUOUS
10
5.43699
20
-3.38637
11
5.459
21
-3.40838
0
LINE
8
BLACK
6
CONTINUOUS
10
5.459
20
-3.40838
11
5.45937
21
-3.40891
0
LINE
8
BLACK
6
CONTINUOUS
10
5.45937
20
-3.40891
11
5.45947
21
-3.40899
0
LINE
8
BLACK
6
CONTINUOUS
10
5.45947
20
-3.40899
11
5.45948
21
-3.40907
0
LINE
8
BLACK
6
CONTINUOUS
10
5.45948
20
-3.40907
11
5.45959
21
-3.40922
0
LINE
8
BLACK
6
CONTINUOUS
10
5.45959
20
-3.40922
11
5.45966
21
-3.4101
0
LINE
8
BLACK
6
CONTINUOUS
10
5.45966
20
-3.4101
11
5.45982
21
-3.41098
0
LINE
8
BLACK
6
CONTINUOUS
10
5.45982
20
-3.41098
11
5.45975
21
-3.41109
0
LINE
8
BLACK
6
CONTINUOUS
10
5.45975
20
-3.41109
11
5.45976
21
-3.41123
0
LINE
8
BLACK
6
CONTINUOUS
10
5.45976
20
-3.41123
11
5.45925
21
-3.41196
0
LINE
8
BLACK
6
CONTINUOUS
10
5.45925
20
-3.41196
11
5.45881
21
-3.41273
0
LINE
8
BLACK
6
CONTINUOUS
10
5.45881
20
-3.41273
11
5.45868
21
-3.41277
0
LINE
8
BLACK
6
CONTINUOUS
10
5.45868
20
-3.41277
11
5.4586
21
-3.41288
0
LINE
8
BLACK
6
CONTINUOUS
10
5.4586
20
-3.41288
11
5.45775
21
-3.41311
0
LINE
8
BLACK
6
CONTINUOUS
10
5.45775
20
-3.41311
11
5.45691
21
-3.41342
0
LINE
8
BLACK
6
CONTINUOUS
10
5.45691
20
-3.41342
11
5.43254
21
-3.41342
0
LINE
8
BLACK
6
CONTINUOUS
10
5.43254
20
-3.41342
11
5.43153
21
-3.41324
0
LINE
8
BLACK
6
CONTINUOUS
10
5.43153
20
-3.41324
11
5.42998
21
-3.41194
0
LINE
8
BLACK
6
CONTINUOUS
10
5.42998
20
-3.41194
11
5.42963
21
-3.40995
0
LINE
8
BLACK
6
CONTINUOUS
10
5.42963
20
-3.40995
11
5.43064
21
-3.4082
0
LINE
8
BLACK
6
CONTINUOUS
10
5.43064
20
-3.4082
11
5.43254
21
-3.40751
0
LINE
8
BLACK
6
CONTINUOUS
10
5.43254
20
-3.40751
11
5.44978
21
-3.40751
0
LINE
8
BLACK
6
CONTINUOUS
10
5.44978
20
-3.40751
11
5.43233
21
-3.39006
0
LINE
8
BLACK
6
CONTINUOUS
10
5.43233
20
-3.39006
11
5.43174
21
-3.38922
0
LINE
8
BLACK
6
CONTINUOUS
10
5.43174
20
-3.38922
11
5.43172
21
-3.38904
0
LINE
8
BLACK
6
CONTINUOUS
10
5.43172
20
-3.38904
11
5.43161
21
-3.3889
0
LINE
8
BLACK
6
CONTINUOUS
10
5.43161
20
-3.3889
11
5.42974
21
-3.38328
0
LINE
8
BLACK
6
CONTINUOUS
10
5.42974
20
-3.38328
11
5.42961
21
-3.3824
0
LINE
8
BLACK
6
CONTINUOUS
10
5.42961
20
-3.3824
11
5.42959
21
-3.38234
0
LINE
8
BLACK
6
CONTINUOUS
10
5.42959
20
-3.38234
11
5.42959
21
-3.37859
0
LINE
8
BLACK
6
CONTINUOUS
10
5.42959
20
-3.37859
11
5.42976
21
-3.37758
0
LINE
8
BLACK
6
CONTINUOUS
10
5.42976
20
-3.37758
11
5.42988
21
-3.37745
0
LINE
8
BLACK
6
CONTINUOUS
10
5.42988
20
-3.37745
11
5.4299
21
-3.37727
0
LINE
8
BLACK
6
CONTINUOUS
10
5.4299
20
-3.37727
11
5.43177
21
-3.37352
0
LINE
8
BLACK
6
CONTINUOUS
10
5.43177
20
-3.37352
11
5.4323
21
-3.37282
0
LINE
8
BLACK
6
CONTINUOUS
10
5.4323
20
-3.37282
11
5.43233
21
-3.37276
0
LINE
8
BLACK
6
CONTINUOUS
10
5.43233
20
-3.37276
11
5.4342
21
-3.37088
0
LINE
8
BLACK
6
CONTINUOUS
10
5.4342
20
-3.37088
11
5.43492
21
-3.37038
0
LINE
8
BLACK
6
CONTINUOUS
10
5.43492
20
-3.37038
11
5.43497
21
-3.37033
0
LINE
8
BLACK
6
CONTINUOUS
10
5.43497
20
-3.37033
11
5.43872
21
-3.36845
0
LINE
8
BLACK
6
CONTINUOUS
10
5.43872
20
-3.36845
11
5.4397
21
-3.36816
0
LINE
8
BLACK
6
CONTINUOUS
10
5.4397
20
-3.36816
11
5.43987
21
-3.3682
0
LINE
8
BLACK
6
CONTINUOUS
10
5.43987
20
-3.3682
11
5.44004
21
-3.36814
0
LINE
8
BLACK
6
CONTINUOUS
10
5.44004
20
-3.36814
11
5.44941
21
-3.36814
0
LINE
8
BLACK
6
CONTINUOUS
10
5.44941
20
-3.36814
11
5.45042
21
-3.36832
0
LINE
8
BLACK
6
CONTINUOUS
10
5.49667
20
-3.3692
11
5.49736
21
-3.3711
0
LINE
8
BLACK
6
CONTINUOUS
10
5.49736
20
-3.3711
11
5.49736
21
-3.40297
0
LINE
8
BLACK
6
CONTINUOUS
10
5.49736
20
-3.40297
11
5.49718
21
-3.40398
0
LINE
8
BLACK
6
CONTINUOUS
10
5.49718
20
-3.40398
11
5.49707
21
-3.40411
0
LINE
8
BLACK
6
CONTINUOUS
10
5.49707
20
-3.40411
11
5.49705
21
-3.40429
0
LINE
8
BLACK
6
CONTINUOUS
10
5.49705
20
-3.40429
11
5.49517
21
-3.40804
0
LINE
8
BLACK
6
CONTINUOUS
10
5.49517
20
-3.40804
11
5.49465
21
-3.40875
0
LINE
8
BLACK
6
CONTINUOUS
10
5.49465
20
-3.40875
11
5.49462
21
-3.4088
0
LINE
8
BLACK
6
CONTINUOUS
10
5.49462
20
-3.4088
11
5.49274
21
-3.41068
0
LINE
8
BLACK
6
CONTINUOUS
10
5.49274
20
-3.41068
11
5.49202
21
-3.41118
0
LINE
8
BLACK
6
CONTINUOUS
10
5.49202
20
-3.41118
11
5.49198
21
-3.41123
0
LINE
8
BLACK
6
CONTINUOUS
10
5.49198
20
-3.41123
11
5.48823
21
-3.41311
0
LINE
8
BLACK
6
CONTINUOUS
10
5.48823
20
-3.41311
11
5.48724
21
-3.4134
0
LINE
8
BLACK
6
CONTINUOUS
10
5.48724
20
-3.4134
11
5.48707
21
-3.41336
0
LINE
8
BLACK
6
CONTINUOUS
10
5.48707
20
-3.41336
11
5.48691
21
-3.41342
0
LINE
8
BLACK
6
CONTINUOUS
10
5.48691
20
-3.41342
11
5.47941
21
-3.41342
0
LINE
8
BLACK
6
CONTINUOUS
10
5.47941
20
-3.41342
11
5.4784
21
-3.41324
0
LINE
8
BLACK
6
CONTINUOUS
10
5.4784
20
-3.41324
11
5.47826
21
-3.41313
0
LINE
8
BLACK
6
CONTINUOUS
10
5.47826
20
-3.41313
11
5.47809
21
-3.41311
0
LINE
8
BLACK
6
CONTINUOUS
10
5.47809
20
-3.41311
11
5.47434
21
-3.41123
0
LINE
8
BLACK
6
CONTINUOUS
10
5.47434
20
-3.41123
11
5.47363
21
-3.41071
0
LINE
8
BLACK
6
CONTINUOUS
10
5.47363
20
-3.41071
11
5.47357
21
-3.41068
0
LINE
8
BLACK
6
CONTINUOUS
10
5.47357
20
-3.41068
11
5.4717
21
-3.4088
0
LINE
8
BLACK
6
CONTINUOUS
10
5.4717
20
-3.4088
11
5.47119
21
-3.40808
0
LINE
8
BLACK
6
CONTINUOUS
10
5.47119
20
-3.40808
11
5.47114
21
-3.40804
0
LINE
8
BLACK
6
CONTINUOUS
10
5.47114
20
-3.40804
11
5.46927
21
-3.40429
0
LINE
8
BLACK
6
CONTINUOUS
10
5.46927
20
-3.40429
11
5.46898
21
-3.4033
0
LINE
8
BLACK
6
CONTINUOUS
10
5.46898
20
-3.4033
11
5.46902
21
-3.40313
0
LINE
8
BLACK
6
CONTINUOUS
10
5.46902
20
-3.40313
11
5.46896
21
-3.40297
0
LINE
8
BLACK
6
CONTINUOUS
10
5.46896
20
-3.40297
11
5.46896
21
-3.3711
0
LINE
8
BLACK
6
CONTINUOUS
10
5.46896
20
-3.3711
11
5.46913
21
-3.37009
0
LINE
8
BLACK
6
CONTINUOUS
10
5.46913
20
-3.37009
11
5.47043
21
-3.36854
0
LINE
8
BLACK
6
CONTINUOUS
10
5.47043
20
-3.36854
11
5.47242
21
-3.36819
0
LINE
8
BLACK
6
CONTINUOUS
10
5.47242
20
-3.36819
11
5.47417
21
-3.3692
0
LINE
8
BLACK
6
CONTINUOUS
10
5.47417
20
-3.3692
11
5.47486
21
-3.3711
0
LINE
8
BLACK
6
CONTINUOUS
10
5.47486
20
-3.3711
11
5.47486
21
-3.40227
0
LINE
8
BLACK
6
CONTINUOUS
10
5.47486
20
-3.40227
11
5.47621
21
-3.40497
0
LINE
8
BLACK
6
CONTINUOUS
10
5.47621
20
-3.40497
11
5.47741
21
-3.40616
0
LINE
8
BLACK
6
CONTINUOUS
10
5.47741
20
-3.40616
11
5.4801
21
-3.40751
0
LINE
8
BLACK
6
CONTINUOUS
10
5.4801
20
-3.40751
11
5.48621
21
-3.40751
0
LINE
8
BLACK
6
CONTINUOUS
10
5.48621
20
-3.40751
11
5.48891
21
-3.40616
0
LINE
8
BLACK
6
CONTINUOUS
10
5.48891
20
-3.40616
11
5.4901
21
-3.40497
0
LINE
8
BLACK
6
CONTINUOUS
10
5.4901
20
-3.40497
11
5.49145
21
-3.40227
0
LINE
8
BLACK
6
CONTINUOUS
10
5.49145
20
-3.40227
11
5.49145
21
-3.3711
0
LINE
8
BLACK
6
CONTINUOUS
10
5.49145
20
-3.3711
11
5.49163
21
-3.37009
0
LINE
8
BLACK
6
CONTINUOUS
10
5.49163
20
-3.37009
11
5.49293
21
-3.36854
0
LINE
8
BLACK
6
CONTINUOUS
10
5.49293
20
-3.36854
11
5.49492
21
-3.36819
0
LINE
8
BLACK
6
CONTINUOUS
10
5.49492
20
-3.36819
11
5.49667
21
-3.3692
0
LINE
8
BLACK
6
CONTINUOUS
10
5.18073
20
-3.35832
11
5.18087
21
-3.35843
0
LINE
8
BLACK
6
CONTINUOUS
10
5.18087
20
-3.35843
11
5.18104
21
-3.35845
0
LINE
8
BLACK
6
CONTINUOUS
10
5.18104
20
-3.35845
11
5.18479
21
-3.36033
0
LINE
8
BLACK
6
CONTINUOUS
10
5.18479
20
-3.36033
11
5.1855
21
-3.36085
0
LINE
8
BLACK
6
CONTINUOUS
10
5.1855
20
-3.36085
11
5.18556
21
-3.36088
0
LINE
8
BLACK
6
CONTINUOUS
10
5.18556
20
-3.36088
11
5.18744
21
-3.36276
0
LINE
8
BLACK
6
CONTINUOUS
10
5.18744
20
-3.36276
11
5.18769
21
-3.36313
0
LINE
8
BLACK
6
CONTINUOUS
10
5.18769
20
-3.36313
11
5.18781
21
-3.36321
0
LINE
8
BLACK
6
CONTINUOUS
10
5.18781
20
-3.36321
11
5.19156
21
-3.36883
0
LINE
8
BLACK
6
CONTINUOUS
10
5.19156
20
-3.36883
11
5.19195
21
-3.36974
0
LINE
8
BLACK
6
CONTINUOUS
10
5.19195
20
-3.36974
11
5.19196
21
-3.36975
0
LINE
8
BLACK
6
CONTINUOUS
10
5.19196
20
-3.36975
11
5.19384
21
-3.37725
0
LINE
8
BLACK
6
CONTINUOUS
10
5.19384
20
-3.37725
11
5.19388
21
-3.37784
0
LINE
8
BLACK
6
CONTINUOUS
10
5.19388
20
-3.37784
11
5.19393
21
-3.37797
0
LINE
8
BLACK
6
CONTINUOUS
10
5.19393
20
-3.37797
11
5.19393
21
-3.39297
0
LINE
8
BLACK
6
CONTINUOUS
10
5.19393
20
-3.39297
11
5.19375
21
-3.39398
0
LINE
8
BLACK
6
CONTINUOUS
10
5.19375
20
-3.39398
11
5.19363
21
-3.39411
0
LINE
8
BLACK
6
CONTINUOUS
10
5.19363
20
-3.39411
11
5.19361
21
-3.39429
0
LINE
8
BLACK
6
CONTINUOUS
10
5.19361
20
-3.39429
11
5.19174
21
-3.39804
0
LINE
8
BLACK
6
CONTINUOUS
10
5.19174
20
-3.39804
11
5.19121
21
-3.39875
0
LINE
8
BLACK
6
CONTINUOUS
10
5.19121
20
-3.39875
11
5.19119
21
-3.3988
0
LINE
8
BLACK
6
CONTINUOUS
10
5.19119
20
-3.3988
11
5.18931
21
-3.40068
0
LINE
8
BLACK
6
CONTINUOUS
10
5.18931
20
-3.40068
11
5.18859
21
-3.40118
0
LINE
8
BLACK
6
CONTINUOUS
10
5.18859
20
-3.40118
11
5.18854
21
-3.40123
0
LINE
8
BLACK
6
CONTINUOUS
10
5.18854
20
-3.40123
11
5.18479
21
-3.40311
0
LINE
8
BLACK
6
CONTINUOUS
10
5.18479
20
-3.40311
11
5.18381
21
-3.4034
0
LINE
8
BLACK
6
CONTINUOUS
10
5.18381
20
-3.4034
11
5.18364
21
-3.40336
0
LINE
8
BLACK
6
CONTINUOUS
10
5.18364
20
-3.40336
11
5.18347
21
-3.40342
0
LINE
8
BLACK
6
CONTINUOUS
10
5.18347
20
-3.40342
11
5.17597
21
-3.40342
0
LINE
8
BLACK
6
CONTINUOUS
10
5.17597
20
-3.40342
11
5.17496
21
-3.40324
0
LINE
8
BLACK
6
CONTINUOUS
10
5.17496
20
-3.40324
11
5.17483
21
-3.40313
0
LINE
8
BLACK
6
CONTINUOUS
10
5.17483
20
-3.40313
11
5.17465
21
-3.40311
0
LINE
8
BLACK
6
CONTINUOUS
10
5.17465
20
-3.40311
11
5.1709
21
-3.40123
0
LINE
8
BLACK
6
CONTINUOUS
10
5.1709
20
-3.40123
11
5.1702
21
-3.40071
0
LINE
8
BLACK
6
CONTINUOUS
10
5.1702
20
-3.40071
11
5.17014
21
-3.40068
0
LINE
8
BLACK
6
CONTINUOUS
10
5.17014
20
-3.40068
11
5.16826
21
-3.3988
0
LINE
8
BLACK
6
CONTINUOUS
10
5.16826
20
-3.3988
11
5.16776
21
-3.39808
0
LINE
8
BLACK
6
CONTINUOUS
10
5.16776
20
-3.39808
11
5.16771
21
-3.39804
0
LINE
8
BLACK
6
CONTINUOUS
10
5.16771
20
-3.39804
11
5.16583
21
-3.39429
0
LINE
8
BLACK
6
CONTINUOUS
10
5.16583
20
-3.39429
11
5.16554
21
-3.3933
0
LINE
8
BLACK
6
CONTINUOUS
10
5.16554
20
-3.3933
11
5.16558
21
-3.39313
0
LINE
8
BLACK
6
CONTINUOUS
10
5.16558
20
-3.39313
11
5.16552
21
-3.39297
0
LINE
8
BLACK
6
CONTINUOUS
10
5.16552
20
-3.39297
11
5.16552
21
-3.38359
0
LINE
8
BLACK
6
CONTINUOUS
10
5.16552
20
-3.38359
11
5.1657
21
-3.38258
0
LINE
8
BLACK
6
CONTINUOUS
10
5.1657
20
-3.38258
11
5.16581
21
-3.38245
0
LINE
8
BLACK
6
CONTINUOUS
10
5.16581
20
-3.38245
11
5.16583
21
-3.38227
0
LINE
8
BLACK
6
CONTINUOUS
10
5.16583
20
-3.38227
11
5.16771
21
-3.37852
0
LINE
8
BLACK
6
CONTINUOUS
10
5.16771
20
-3.37852
11
5.16824
21
-3.37781
0
LINE
8
BLACK
6
CONTINUOUS
10
5.16824
20
-3.37781
11
5.16826
21
-3.37775
0
LINE
8
BLACK
6
CONTINUOUS
10
5.16826
20
-3.37775
11
5.17014
21
-3.37588
0
LINE
8
BLACK
6
CONTINUOUS
10
5.17014
20
-3.37588
11
5.17086
21
-3.37537
0
LINE
8
BLACK
6
CONTINUOUS
10
5.17086
20
-3.37537
11
5.1709
21
-3.37533
0
LINE
8
BLACK
6
CONTINUOUS
10
5.1709
20
-3.37533
11
5.17465
21
-3.37345
0
LINE
8
BLACK
6
CONTINUOUS
10
5.17465
20
-3.37345
11
5.17564
21
-3.37316
0
LINE
8
BLACK
6
CONTINUOUS
10
5.17564
20
-3.37316
11
5.17581
21
-3.3732
0
LINE
8
BLACK
6
CONTINUOUS
10
5.17581
20
-3.3732
11
5.17597
21
-3.37314
0
LINE
8
BLACK
6
CONTINUOUS
10
5.17597
20
-3.37314
11
5.18347
21
-3.37314
0
LINE
8
BLACK
6
CONTINUOUS
10
5.18347
20
-3.37314
11
5.18448
21
-3.37332
0
LINE
8
BLACK
6
CONTINUOUS
10
5.18448
20
-3.37332
11
5.18462
21
-3.37343
0
LINE
8
BLACK
6
CONTINUOUS
10
5.18462
20
-3.37343
11
5.18479
21
-3.37345
0
LINE
8
BLACK
6
CONTINUOUS
10
5.18479
20
-3.37345
11
5.18709
21
-3.3746
0
LINE
8
BLACK
6
CONTINUOUS
10
5.18709
20
-3.3746
11
5.18636
21
-3.37168
0
LINE
8
BLACK
6
CONTINUOUS
10
5.18636
20
-3.37168
11
5.18305
21
-3.36673
0
LINE
8
BLACK
6
CONTINUOUS
10
5.18305
20
-3.36673
11
5.18172
21
-3.3654
0
LINE
8
BLACK
6
CONTINUOUS
10
5.18172
20
-3.3654
11
5.17903
21
-3.36405
0
LINE
8
BLACK
6
CONTINUOUS
10
5.17903
20
-3.36405
11
5.17223
21
-3.36405
0
LINE
8
BLACK
6
CONTINUOUS
10
5.17223
20
-3.36405
11
5.17122
21
-3.36387
0
LINE
8
BLACK
6
CONTINUOUS
10
5.17122
20
-3.36387
11
5.16967
21
-3.36257
0
LINE
8
BLACK
6
CONTINUOUS
10
5.16967
20
-3.36257
11
5.16932
21
-3.36058
0
LINE
8
BLACK
6
CONTINUOUS
10
5.16932
20
-3.36058
11
5.17033
21
-3.35883
0
LINE
8
BLACK
6
CONTINUOUS
10
5.17033
20
-3.35883
11
5.17223
21
-3.35814
0
LINE
8
BLACK
6
CONTINUOUS
10
5.17223
20
-3.35814
11
5.17972
21
-3.35814
0
LINE
8
BLACK
6
CONTINUOUS
10
5.17972
20
-3.35814
11
5.18073
21
-3.35832
0
LINE
8
BLACK
6
CONTINUOUS
10
5.17397
20
-3.38039
11
5.17278
21
-3.38159
0
LINE
8
BLACK
6
CONTINUOUS
10
5.17278
20
-3.38159
11
5.17143
21
-3.38429
0
LINE
8
BLACK
6
CONTINUOUS
10
5.17143
20
-3.38429
11
5.17143
21
-3.39227
0
LINE
8
BLACK
6
CONTINUOUS
10
5.17143
20
-3.39227
11
5.17278
21
-3.39497
0
LINE
8
BLACK
6
CONTINUOUS
10
5.17278
20
-3.39497
11
5.17397
21
-3.39616
0
LINE
8
BLACK
6
CONTINUOUS
10
5.17397
20
-3.39616
11
5.17667
21
-3.39751
0
LINE
8
BLACK
6
CONTINUOUS
10
5.17667
20
-3.39751
11
5.18278
21
-3.39751
0
LINE
8
BLACK
6
CONTINUOUS
10
5.18278
20
-3.39751
11
5.18547
21
-3.39616
0
LINE
8
BLACK
6
CONTINUOUS
10
5.18547
20
-3.39616
11
5.18667
21
-3.39497
0
LINE
8
BLACK
6
CONTINUOUS
10
5.18667
20
-3.39497
11
5.18802
21
-3.39227
0
LINE
8
BLACK
6
CONTINUOUS
10
5.18802
20
-3.39227
11
5.18802
21
-3.38429
0
LINE
8
BLACK
6
CONTINUOUS
10
5.18802
20
-3.38429
11
5.18667
21
-3.38159
0
LINE
8
BLACK
6
CONTINUOUS
10
5.18667
20
-3.38159
11
5.18547
21
-3.38039
0
LINE
8
BLACK
6
CONTINUOUS
10
5.18547
20
-3.38039
11
5.18278
21
-3.37905
0
LINE
8
BLACK
6
CONTINUOUS
10
5.18278
20
-3.37905
11
5.17667
21
-3.37905
0
LINE
8
BLACK
6
CONTINUOUS
10
5.17667
20
-3.37905
11
5.17397
21
-3.38039
0
LINE
8
BLACK
6
CONTINUOUS
10
5.21809
20
-3.3583
11
5.21815
21
-3.35829
0
LINE
8
BLACK
6
CONTINUOUS
10
5.21815
20
-3.35829
11
5.22378
21
-3.36017
0
LINE
8
BLACK
6
CONTINUOUS
10
5.22378
20
-3.36017
11
5.22468
21
-3.36066
0
LINE
8
BLACK
6
CONTINUOUS
10
5.22468
20
-3.36066
11
5.22477
21
-3.36081
0
LINE
8
BLACK
6
CONTINUOUS
10
5.22477
20
-3.36081
11
5.22493
21
-3.36088
0
LINE
8
BLACK
6
CONTINUOUS
10
5.22493
20
-3.36088
11
5.22868
21
-3.36463
0
LINE
8
BLACK
6
CONTINUOUS
10
5.22868
20
-3.36463
11
5.22919
21
-3.36535
0
LINE
8
BLACK
6
CONTINUOUS
10
5.22919
20
-3.36535
11
5.22923
21
-3.3654
0
LINE
8
BLACK
6
CONTINUOUS
10
5.22923
20
-3.3654
11
5.23111
21
-3.36915
0
LINE
8
BLACK
6
CONTINUOUS
10
5.23111
20
-3.36915
11
5.23125
21
-3.36964
0
LINE
8
BLACK
6
CONTINUOUS
10
5.23125
20
-3.36964
11
5.23133
21
-3.36975
0
LINE
8
BLACK
6
CONTINUOUS
10
5.23133
20
-3.36975
11
5.23321
21
-3.37725
0
LINE
8
BLACK
6
CONTINUOUS
10
5.23321
20
-3.37725
11
5.23325
21
-3.37784
0
LINE
8
BLACK
6
CONTINUOUS
10
5.23325
20
-3.37784
11
5.2333
21
-3.37797
0
LINE
8
BLACK
6
CONTINUOUS
10
5.2333
20
-3.37797
11
5.2333
21
-3.38359
0
LINE
8
BLACK
6
CONTINUOUS
10
5.2333
20
-3.38359
11
5.23319
21
-3.38417
0
LINE
8
BLACK
6
CONTINUOUS
10
5.23319
20
-3.38417
11
5.23321
21
-3.38431
0
LINE
8
BLACK
6
CONTINUOUS
10
5.23321
20
-3.38431
11
5.23133
21
-3.39181
0
LINE
8
BLACK
6
CONTINUOUS
10
5.23133
20
-3.39181
11
5.23113
21
-3.39227
0
LINE
8
BLACK
6
CONTINUOUS
10
5.23113
20
-3.39227
11
5.23111
21
-3.39241
0
LINE
8
BLACK
6
CONTINUOUS
10
5.23111
20
-3.39241
11
5.22923
21
-3.39616
0
LINE
8
BLACK
6
CONTINUOUS
10
5.22923
20
-3.39616
11
5.22871
21
-3.39687
0
LINE
8
BLACK
6
CONTINUOUS
10
5.22871
20
-3.39687
11
5.22868
21
-3.39693
0
LINE
8
BLACK
6
CONTINUOUS
10
5.22868
20
-3.39693
11
5.22493
21
-3.40068
0
LINE
8
BLACK
6
CONTINUOUS
10
5.22493
20
-3.40068
11
5.22409
21
-3.40127
0
LINE
8
BLACK
6
CONTINUOUS
10
5.22409
20
-3.40127
11
5.22392
21
-3.40128
0
LINE
8
BLACK
6
CONTINUOUS
10
5.22392
20
-3.40128
11
5.22378
21
-3.40139
0
LINE
8
BLACK
6
CONTINUOUS
10
5.22378
20
-3.40139
11
5.21815
21
-3.40327
0
LINE
8
BLACK
6
CONTINUOUS
10
5.21815
20
-3.40327
11
5.21728
21
-3.4034
0
LINE
8
BLACK
6
CONTINUOUS
10
5.21728
20
-3.4034
11
5.21722
21
-3.40342
0
LINE
8
BLACK
6
CONTINUOUS
10
5.21722
20
-3.40342
11
5.21347
21
-3.40342
0
LINE
8
BLACK
6
CONTINUOUS
10
5.21347
20
-3.40342
11
5.2126
21
-3.40326
0
LINE
8
BLACK
6
CONTINUOUS
10
5.2126
20
-3.40326
11
5.21254
21
-3.40327
0
LINE
8
BLACK
6
CONTINUOUS
10
5.21254
20
-3.40327
11
5.20691
21
-3.40139
0
LINE
8
BLACK
6
CONTINUOUS
10
5.20691
20
-3.40139
11
5.20601
21
-3.4009
0
LINE
8
BLACK
6
CONTINUOUS
10
5.20601
20
-3.4009
11
5.20592
21
-3.40075
0
LINE
8
BLACK
6
CONTINUOUS
10
5.20592
20
-3.40075
11
5.20576
21
-3.40068
0
LINE
8
BLACK
6
CONTINUOUS
10
5.20576
20
-3.40068
11
5.20388
21
-3.3988
0
LINE
8
BLACK
6
CONTINUOUS
10
5.20388
20
-3.3988
11
5.20329
21
-3.39796
0
LINE
8
BLACK
6
CONTINUOUS
10
5.20329
20
-3.39796
11
5.20312
21
-3.39595
0
LINE
8
BLACK
6
CONTINUOUS
10
5.20312
20
-3.39595
11
5.20428
21
-3.3943
0
LINE
8
BLACK
6
CONTINUOUS
10
5.20428
20
-3.3943
11
5.20623
21
-3.39377
0
LINE
8
BLACK
6
CONTINUOUS
10
5.20623
20
-3.39377
11
5.20806
21
-3.39463
0
LINE
8
BLACK
6
CONTINUOUS
10
5.20806
20
-3.39463
11
5.20944
21
-3.39601
0
LINE
8
BLACK
6
CONTINUOUS
10
5.20944
20
-3.39601
11
5.21395
21
-3.39751
0
LINE
8
BLACK
6
CONTINUOUS
10
5.21395
20
-3.39751
11
5.21674
21
-3.39751
0
LINE
8
BLACK
6
CONTINUOUS
10
5.21674
20
-3.39751
11
5.22125
21
-3.39601
0
LINE
8
BLACK
6
CONTINUOUS
10
5.22125
20
-3.39601
11
5.22417
21
-3.39309
0
LINE
8
BLACK
6
CONTINUOUS
10
5.22417
20
-3.39309
11
5.22568
21
-3.39006
0
LINE
8
BLACK
6
CONTINUOUS
10
5.22568
20
-3.39006
11
5.22739
21
-3.38323
0
LINE
8
BLACK
6
CONTINUOUS
10
5.22739
20
-3.38323
11
5.22739
21
-3.37833
0
LINE
8
BLACK
6
CONTINUOUS
10
5.22739
20
-3.37833
11
5.22568
21
-3.3715
0
LINE
8
BLACK
6
CONTINUOUS
10
5.22568
20
-3.3715
11
5.22417
21
-3.36847
0
LINE
8
BLACK
6
CONTINUOUS
10
5.22417
20
-3.36847
11
5.22125
21
-3.36555
0
LINE
8
BLACK
6
CONTINUOUS
10
5.22125
20
-3.36555
11
5.21674
21
-3.36405
0
LINE
8
BLACK
6
CONTINUOUS
10
5.21674
20
-3.36405
11
5.21395
21
-3.36405
0
LINE
8
BLACK
6
CONTINUOUS
10
5.21395
20
-3.36405
11
5.20944
21
-3.36555
0
LINE
8
BLACK
6
CONTINUOUS
10
5.20944
20
-3.36555
11
5.20806
21
-3.36693
0
LINE
8
BLACK
6
CONTINUOUS
10
5.20806
20
-3.36693
11
5.20722
21
-3.36752
0
LINE
8
BLACK
6
CONTINUOUS
10
5.20722
20
-3.36752
11
5.20521
21
-3.3677
0
LINE
8
BLACK
6
CONTINUOUS
10
5.20521
20
-3.3677
11
5.20355
21
-3.36654
0
LINE
8
BLACK
6
CONTINUOUS
10
5.20355
20
-3.36654
11
5.20303
21
-3.36459
0
LINE
8
BLACK
6
CONTINUOUS
10
5.20303
20
-3.36459
11
5.20388
21
-3.36276
0
LINE
8
BLACK
6
CONTINUOUS
10
5.20388
20
-3.36276
11
5.20576
21
-3.36088
0
LINE
8
BLACK
6
CONTINUOUS
10
5.20576
20
-3.36088
11
5.2066
21
-3.36029
0
LINE
8
BLACK
6
CONTINUOUS
10
5.2066
20
-3.36029
11
5.20677
21
-3.36028
0
LINE
8
BLACK
6
CONTINUOUS
10
5.20677
20
-3.36028
11
5.20691
21
-3.36017
0
LINE
8
BLACK
6
CONTINUOUS
10
5.20691
20
-3.36017
11
5.21254
21
-3.35829
0
LINE
8
BLACK
6
CONTINUOUS
10
5.21254
20
-3.35829
11
5.21341
21
-3.35816
0
LINE
8
BLACK
6
CONTINUOUS
10
5.21341
20
-3.35816
11
5.21347
21
-3.35814
0
LINE
8
BLACK
6
CONTINUOUS
10
5.21347
20
-3.35814
11
5.21722
21
-3.35814
0
LINE
8
BLACK
6
CONTINUOUS
10
5.21722
20
-3.35814
11
5.21809
21
-3.3583
0
LINE
8
BLACK
6
CONTINUOUS
10
5.06222
20
-3.34464
11
5.06291
21
-3.34654
0
LINE
8
BLACK
6
CONTINUOUS
10
5.06291
20
-3.34654
11
5.06291
21
-3.39378
0
LINE
8
BLACK
6
CONTINUOUS
10
5.06291
20
-3.39378
11
5.06274
21
-3.39479
0
LINE
8
BLACK
6
CONTINUOUS
10
5.06274
20
-3.39479
11
5.06144
21
-3.39634
0
LINE
8
BLACK
6
CONTINUOUS
10
5.06144
20
-3.39634
11
5.05945
21
-3.39669
0
LINE
8
BLACK
6
CONTINUOUS
10
5.05945
20
-3.39669
11
5.0577
21
-3.39568
0
LINE
8
BLACK
6
CONTINUOUS
10
5.0577
20
-3.39568
11
5.05701
21
-3.39378
0
LINE
8
BLACK
6
CONTINUOUS
10
5.05701
20
-3.39378
11
5.05701
21
-3.34654
0
LINE
8
BLACK
6
CONTINUOUS
10
5.05701
20
-3.34654
11
5.05719
21
-3.34553
0
LINE
8
BLACK
6
CONTINUOUS
10
5.05719
20
-3.34553
11
5.05848
21
-3.34398
0
LINE
8
BLACK
6
CONTINUOUS
10
5.05848
20
-3.34398
11
5.06047
21
-3.34363
0
LINE
8
BLACK
6
CONTINUOUS
10
5.06047
20
-3.34363
11
5.06222
21
-3.34464
0
LINE
8
BLACK
6
CONTINUOUS
10
5.13112
20
-3.34464
11
5.13181
21
-3.34654
0
LINE
8
BLACK
6
CONTINUOUS
10
5.13181
20
-3.34654
11
5.13181
21
-3.39378
0
LINE
8
BLACK
6
CONTINUOUS
10
5.13181
20
-3.39378
11
5.13163
21
-3.39479
0
LINE
8
BLACK
6
CONTINUOUS
10
5.13163
20
-3.39479
11
5.13033
21
-3.39634
0
LINE
8
BLACK
6
CONTINUOUS
10
5.13033
20
-3.39634
11
5.12835
21
-3.39669
0
LINE
8
BLACK
6
CONTINUOUS
10
5.12835
20
-3.39669
11
5.1266
21
-3.39568
0
LINE
8
BLACK
6
CONTINUOUS
10
5.1266
20
-3.39568
11
5.12591
21
-3.39378
0
LINE
8
BLACK
6
CONTINUOUS
10
5.12591
20
-3.39378
11
5.12591
21
-3.34654
0
LINE
8
BLACK
6
CONTINUOUS
10
5.12591
20
-3.34654
11
5.12608
21
-3.34553
0
LINE
8
BLACK
6
CONTINUOUS
10
5.12608
20
-3.34553
11
5.12738
21
-3.34398
0
LINE
8
BLACK
6
CONTINUOUS
10
5.12738
20
-3.34398
11
5.12937
21
-3.34363
0
LINE
8
BLACK
6
CONTINUOUS
10
5.12937
20
-3.34363
11
5.13112
21
-3.34464
0
LINE
8
BLACK
6
CONTINUOUS
10
5.94149
20
-3.3733
11
5.94162
21
-3.37327
0
LINE
8
BLACK
6
CONTINUOUS
10
5.94162
20
-3.37327
11
5.94173
21
-3.37334
0
LINE
8
BLACK
6
CONTINUOUS
10
5.94173
20
-3.37334
11
5.94211
21
-3.37341
0
LINE
8
BLACK
6
CONTINUOUS
10
5.94211
20
-3.37341
11
5.9427
21
-3.3739
0
LINE
8
BLACK
6
CONTINUOUS
10
5.9427
20
-3.3739
11
5.94336
21
-3.37428
0
LINE
8
BLACK
6
CONTINUOUS
10
5.94336
20
-3.37428
11
5.94346
21
-3.37453
0
LINE
8
BLACK
6
CONTINUOUS
10
5.94346
20
-3.37453
11
5.94366
21
-3.3747
0
LINE
8
BLACK
6
CONTINUOUS
10
5.94366
20
-3.3747
11
5.94379
21
-3.37546
0
LINE
8
BLACK
6
CONTINUOUS
10
5.94379
20
-3.37546
11
5.94406
21
-3.37618
0
LINE
8
BLACK
6
CONTINUOUS
10
5.94406
20
-3.37618
11
5.94406
21
-3.38189
0
LINE
8
BLACK
6
CONTINUOUS
10
5.94406
20
-3.38189
11
5.94388
21
-3.3829
0
LINE
8
BLACK
6
CONTINUOUS
10
5.94388
20
-3.3829
11
5.94258
21
-3.38445
0
LINE
8
BLACK
6
CONTINUOUS
10
5.94258
20
-3.38445
11
5.94059
21
-3.3848
0
LINE
8
BLACK
6
CONTINUOUS
10
5.94059
20
-3.3848
11
5.93884
21
-3.38379
0
LINE
8
BLACK
6
CONTINUOUS
10
5.93884
20
-3.38379
11
5.93815
21
-3.38189
0
LINE
8
BLACK
6
CONTINUOUS
10
5.93815
20
-3.38189
11
5.93815
21
-3.37913
0
LINE
8
BLACK
6
CONTINUOUS
10
5.93815
20
-3.37913
11
5.78067
21
-3.37913
0
LINE
8
BLACK
6
CONTINUOUS
10
5.78067
20
-3.37913
11
5.78067
21
-3.38189
0
LINE
8
BLACK
6
CONTINUOUS
10
5.78067
20
-3.38189
11
5.78049
21
-3.3829
0
LINE
8
BLACK
6
CONTINUOUS
10
5.78049
20
-3.3829
11
5.77919
21
-3.38445
0
LINE
8
BLACK
6
CONTINUOUS
10
5.77919
20
-3.38445
11
5.7772
21
-3.3848
0
LINE
8
BLACK
6
CONTINUOUS
10
5.7772
20
-3.3848
11
5.77545
21
-3.38379
0
LINE
8
BLACK
6
CONTINUOUS
10
5.77545
20
-3.38379
11
5.77476
21
-3.38189
0
LINE
8
BLACK
6
CONTINUOUS
10
5.77476
20
-3.38189
11
5.77476
21
-3.37618
0
LINE
8
BLACK
6
CONTINUOUS
10
5.77476
20
-3.37618
11
5.77483
21
-3.3758
0
LINE
8
BLACK
6
CONTINUOUS
10
5.77483
20
-3.3758
11
5.77481
21
-3.37567
0
LINE
8
BLACK
6
CONTINUOUS
10
5.77481
20
-3.37567
11
5.77487
21
-3.37555
0
LINE
8
BLACK
6
CONTINUOUS
10
5.77487
20
-3.37555
11
5.77494
21
-3.37517
0
LINE
8
BLACK
6
CONTINUOUS
10
5.77494
20
-3.37517
11
5.77543
21
-3.37458
0
LINE
8
BLACK
6
CONTINUOUS
10
5.77543
20
-3.37458
11
5.77582
21
-3.37392
0
LINE
8
BLACK
6
CONTINUOUS
10
5.77582
20
-3.37392
11
5.77607
21
-3.37383
0
LINE
8
BLACK
6
CONTINUOUS
10
5.77607
20
-3.37383
11
5.77624
21
-3.37362
0
LINE
8
BLACK
6
CONTINUOUS
10
5.77624
20
-3.37362
11
5.777
21
-3.37349
0
LINE
8
BLACK
6
CONTINUOUS
10
5.777
20
-3.37349
11
5.77772
21
-3.37323
0
LINE
8
BLACK
6
CONTINUOUS
10
5.77772
20
-3.37323
11
5.9411
21
-3.37323
0
LINE
8
BLACK
6
CONTINUOUS
10
5.9411
20
-3.37323
11
5.94149
21
-3.3733
0
LINE
8
BLACK
6
CONTINUOUS
10
5.87097
20
-3.34384
11
5.87252
21
-3.34514
0
LINE
8
BLACK
6
CONTINUOUS
10
5.87252
20
-3.34514
11
5.87287
21
-3.34713
0
LINE
8
BLACK
6
CONTINUOUS
10
5.87287
20
-3.34713
11
5.87186
21
-3.34888
0
LINE
8
BLACK
6
CONTINUOUS
10
5.87186
20
-3.34888
11
5.86996
21
-3.34957
0
LINE
8
BLACK
6
CONTINUOUS
10
5.86996
20
-3.34957
11
5.70854
21
-3.34957
0
LINE
8
BLACK
6
CONTINUOUS
10
5.70854
20
-3.34957
11
5.70753
21
-3.34939
0
LINE
8
BLACK
6
CONTINUOUS
10
5.70753
20
-3.34939
11
5.70599
21
-3.34809
0
LINE
8
BLACK
6
CONTINUOUS
10
5.70599
20
-3.34809
11
5.70564
21
-3.3461
0
LINE
8
BLACK
6
CONTINUOUS
10
5.70564
20
-3.3461
11
5.70665
21
-3.34435
0
LINE
8
BLACK
6
CONTINUOUS
10
5.70665
20
-3.34435
11
5.70854
21
-3.34366
0
LINE
8
BLACK
6
CONTINUOUS
10
5.70854
20
-3.34366
11
5.86996
21
-3.34366
0
LINE
8
BLACK
6
CONTINUOUS
10
5.86996
20
-3.34366
11
5.87097
21
-3.34384
0
LINE
8
BLACK
6
CONTINUOUS
10
6.03065
20
-3.29203
11
6.03253
21
-3.29391
0
LINE
8
BLACK
6
CONTINUOUS
10
6.03253
20
-3.29391
11
6.03304
21
-3.29463
0
LINE
8
BLACK
6
CONTINUOUS
10
6.03304
20
-3.29463
11
6.03308
21
-3.29467
0
LINE
8
BLACK
6
CONTINUOUS
10
6.03308
20
-3.29467
11
6.03496
21
-3.29842
0
LINE
8
BLACK
6
CONTINUOUS
10
6.03496
20
-3.29842
11
6.03525
21
-3.29941
0
LINE
8
BLACK
6
CONTINUOUS
10
6.03525
20
-3.29941
11
6.03521
21
-3.29958
0
LINE
8
BLACK
6
CONTINUOUS
10
6.03521
20
-3.29958
11
6.03527
21
-3.29975
0
LINE
8
BLACK
6
CONTINUOUS
10
6.03527
20
-3.29975
11
6.03527
21
-3.31099
0
LINE
8
BLACK
6
CONTINUOUS
10
6.03527
20
-3.31099
11
6.03509
21
-3.312
0
LINE
8
BLACK
6
CONTINUOUS
10
6.03509
20
-3.312
11
6.03498
21
-3.31214
0
LINE
8
BLACK
6
CONTINUOUS
10
6.03498
20
-3.31214
11
6.03496
21
-3.31231
0
LINE
8
BLACK
6
CONTINUOUS
10
6.03496
20
-3.31231
11
6.03308
21
-3.31606
0
LINE
8
BLACK
6
CONTINUOUS
10
6.03308
20
-3.31606
11
6.03256
21
-3.31677
0
LINE
8
BLACK
6
CONTINUOUS
10
6.03256
20
-3.31677
11
6.03253
21
-3.31683
0
LINE
8
BLACK
6
CONTINUOUS
10
6.03253
20
-3.31683
11
6.03065
21
-3.31871
0
LINE
8
BLACK
6
CONTINUOUS
10
6.03065
20
-3.31871
11
6.02993
21
-3.31921
0
LINE
8
BLACK
6
CONTINUOUS
10
6.02993
20
-3.31921
11
6.02989
21
-3.31926
0
LINE
8
BLACK
6
CONTINUOUS
10
6.02989
20
-3.31926
11
6.02614
21
-3.32113
0
LINE
8
BLACK
6
CONTINUOUS
10
6.02614
20
-3.32113
11
6.02515
21
-3.32143
0
LINE
8
BLACK
6
CONTINUOUS
10
6.02515
20
-3.32143
11
6.02498
21
-3.32139
0
LINE
8
BLACK
6
CONTINUOUS
10
6.02498
20
-3.32139
11
6.02482
21
-3.32145
0
LINE
8
BLACK
6
CONTINUOUS
10
6.02482
20
-3.32145
11
6.01544
21
-3.32145
0
LINE
8
BLACK
6
CONTINUOUS
10
6.01544
20
-3.32145
11
6.01443
21
-3.32127
0
LINE
8
BLACK
6
CONTINUOUS
10
6.01443
20
-3.32127
11
6.0143
21
-3.32115
0
LINE
8
BLACK
6
CONTINUOUS
10
6.0143
20
-3.32115
11
6.01412
21
-3.32113
0
LINE
8
BLACK
6
CONTINUOUS
10
6.01412
20
-3.32113
11
6.01037
21
-3.31926
0
LINE
8
BLACK
6
CONTINUOUS
10
6.01037
20
-3.31926
11
6.00966
21
-3.31873
0
LINE
8
BLACK
6
CONTINUOUS
10
6.00966
20
-3.31873
11
6.00961
21
-3.31871
0
LINE
8
BLACK
6
CONTINUOUS
10
6.00961
20
-3.31871
11
6.00773
21
-3.31683
0
LINE
8
BLACK
6
CONTINUOUS
10
6.00773
20
-3.31683
11
6.00722
21
-3.31611
0
LINE
8
BLACK
6
CONTINUOUS
10
6.00722
20
-3.31611
11
6.00718
21
-3.31606
0
LINE
8
BLACK
6
CONTINUOUS
10
6.00718
20
-3.31606
11
6.0053
21
-3.31231
0
LINE
8
BLACK
6
CONTINUOUS
10
6.0053
20
-3.31231
11
6.00514
21
-3.31175
0
LINE
8
BLACK
6
CONTINUOUS
10
6.00514
20
-3.31175
11
5.99489
21
-3.32071
0
LINE
8
BLACK
6
CONTINUOUS
10
5.99489
20
-3.32071
11
5.99451
21
-3.32094
0
LINE
8
BLACK
6
CONTINUOUS
10
5.99451
20
-3.32094
11
5.99442
21
-3.32105
0
LINE
8
BLACK
6
CONTINUOUS
10
5.99442
20
-3.32105
11
5.9943
21
-3.32107
0
LINE
8
BLACK
6
CONTINUOUS
10
5.9943
20
-3.32107
11
5.99401
21
-3.32125
0
LINE
8
BLACK
6
CONTINUOUS
10
5.99401
20
-3.32125
11
5.99322
21
-3.32126
0
LINE
8
BLACK
6
CONTINUOUS
10
5.99322
20
-3.32126
11
5.99243
21
-3.3214
0
LINE
8
BLACK
6
CONTINUOUS
10
5.99243
20
-3.3214
11
5.99223
21
-3.32128
0
LINE
8
BLACK
6
CONTINUOUS
10
5.99223
20
-3.32128
11
5.99199
21
-3.32129
0
LINE
8
BLACK
6
CONTINUOUS
10
5.99199
20
-3.32129
11
5.99137
21
-3.32079
0
LINE
8
BLACK
6
CONTINUOUS
10
5.99137
20
-3.32079
11
5.99068
21
-3.32039
0
LINE
8
BLACK
6
CONTINUOUS
10
5.99068
20
-3.32039
11
5.9906
21
-3.32017
0
LINE
8
BLACK
6
CONTINUOUS
10
5.9906
20
-3.32017
11
5.99042
21
-3.32002
0
LINE
8
BLACK
6
CONTINUOUS
10
5.99042
20
-3.32002
11
5.99027
21
-3.31924
0
LINE
8
BLACK
6
CONTINUOUS
10
5.99027
20
-3.31924
11
5.98999
21
-3.31849
0
LINE
8
BLACK
6
CONTINUOUS
10
5.98999
20
-3.31849
11
5.98999
21
-3.29412
0
LINE
8
BLACK
6
CONTINUOUS
10
5.98999
20
-3.29412
11
5.99017
21
-3.29311
0
LINE
8
BLACK
6
CONTINUOUS
10
5.99017
20
-3.29311
11
5.99147
21
-3.29156
0
LINE
8
BLACK
6
CONTINUOUS
10
5.99147
20
-3.29156
11
5.99346
21
-3.29121
0
LINE
8
BLACK
6
CONTINUOUS
10
5.99346
20
-3.29121
11
5.99521
21
-3.29222
0
LINE
8
BLACK
6
CONTINUOUS
10
5.99521
20
-3.29222
11
5.9959
21
-3.29412
0
LINE
8
BLACK
6
CONTINUOUS
10
5.9959
20
-3.29412
11
5.9959
21
-3.31199
0
LINE
8
BLACK
6
CONTINUOUS
10
5.9959
20
-3.31199
11
6.006
21
-3.30315
0
LINE
8
BLACK
6
CONTINUOUS
10
6.006
20
-3.30315
11
6.00638
21
-3.30292
0
LINE
8
BLACK
6
CONTINUOUS
10
6.00638
20
-3.30292
11
6.00647
21
-3.30281
0
LINE
8
BLACK
6
CONTINUOUS
10
6.00647
20
-3.30281
11
6.00659
21
-3.30279
0
LINE
8
BLACK
6
CONTINUOUS
10
6.00659
20
-3.30279
11
6.00688
21
-3.30262
0
LINE
8
BLACK
6
CONTINUOUS
10
6.00688
20
-3.30262
11
6.00767
21
-3.3026
0
LINE
8
BLACK
6
CONTINUOUS
10
6.00767
20
-3.3026
11
6.00846
21
-3.30246
0
LINE
8
BLACK
6
CONTINUOUS
10
6.00846
20
-3.30246
11
6.00866
21
-3.30258
0
LINE
8
BLACK
6
CONTINUOUS
10
6.00866
20
-3.30258
11
6.0089
21
-3.30257
0
LINE
8
BLACK
6
CONTINUOUS
10
6.0089
20
-3.30257
11
6.00952
21
-3.30307
0
LINE
8
BLACK
6
CONTINUOUS
10
6.00952
20
-3.30307
11
6.01021
21
-3.30347
0
LINE
8
BLACK
6
CONTINUOUS
10
6.01021
20
-3.30347
11
6.01029
21
-3.30369
0
LINE
8
BLACK
6
CONTINUOUS
10
6.01029
20
-3.30369
11
6.01047
21
-3.30384
0
LINE
8
BLACK
6
CONTINUOUS
10
6.01047
20
-3.30384
11
6.01062
21
-3.30462
0
LINE
8
BLACK
6
CONTINUOUS
10
6.01062
20
-3.30462
11
6.0109
21
-3.30537
0
LINE
8
BLACK
6
CONTINUOUS
10
6.0109
20
-3.30537
11
6.0109
21
-3.3103
0
LINE
8
BLACK
6
CONTINUOUS
10
6.0109
20
-3.3103
11
6.01225
21
-3.31299
0
LINE
8
BLACK
6
CONTINUOUS
10
6.01225
20
-3.31299
11
6.01344
21
-3.31419
0
LINE
8
BLACK
6
CONTINUOUS
10
6.01344
20
-3.31419
11
6.01614
21
-3.31554
0
LINE
8
BLACK
6
CONTINUOUS
10
6.01614
20
-3.31554
11
6.02412
21
-3.31554
0
LINE
8
BLACK
6
CONTINUOUS
10
6.02412
20
-3.31554
11
6.02682
21
-3.31419
0
LINE
8
BLACK
6
CONTINUOUS
10
6.02682
20
-3.31419
11
6.02801
21
-3.31299
0
LINE
8
BLACK
6
CONTINUOUS
10
6.02801
20
-3.31299
11
6.02936
21
-3.3103
0
LINE
8
BLACK
6
CONTINUOUS
10
6.02936
20
-3.3103
11
6.02936
21
-3.30044
0
LINE
8
BLACK
6
CONTINUOUS
10
6.02936
20
-3.30044
11
6.02801
21
-3.29774
0
LINE
8
BLACK
6
CONTINUOUS
10
6.02801
20
-3.29774
11
6.02648
21
-3.29621
0
LINE
8
BLACK
6
CONTINUOUS
10
6.02648
20
-3.29621
11
6.02589
21
-3.29537
0
LINE
8
BLACK
6
CONTINUOUS
10
6.02589
20
-3.29537
11
6.02571
21
-3.29336
0
LINE
8
BLACK
6
CONTINUOUS
10
6.02571
20
-3.29336
11
6.02687
21
-3.2917
0
LINE
8
BLACK
6
CONTINUOUS
10
6.02687
20
-3.2917
11
6.02882
21
-3.29118
0
LINE
8
BLACK
6
CONTINUOUS
10
6.02882
20
-3.29118
11
6.03065
21
-3.29203
0
LINE
8
BLACK
6
CONTINUOUS
10
5.81618
20
-3.26574
11
5.81624
21
-3.26573
0
LINE
8
BLACK
6
CONTINUOUS
10
5.81624
20
-3.26573
11
5.82187
21
-3.26761
0
LINE
8
BLACK
6
CONTINUOUS
10
5.82187
20
-3.26761
11
5.82277
21
-3.2681
0
LINE
8
BLACK
6
CONTINUOUS
10
5.82277
20
-3.2681
11
5.82286
21
-3.26825
0
LINE
8
BLACK
6
CONTINUOUS
10
5.82286
20
-3.26825
11
5.82302
21
-3.26832
0
LINE
8
BLACK
6
CONTINUOUS
10
5.82302
20
-3.26832
11
5.82677
21
-3.27207
0
LINE
8
BLACK
6
CONTINUOUS
10
5.82677
20
-3.27207
11
5.82728
21
-3.2728
0
LINE
8
BLACK
6
CONTINUOUS
10
5.82728
20
-3.2728
11
5.82733
21
-3.27284
0
LINE
8
BLACK
6
CONTINUOUS
10
5.82733
20
-3.27284
11
5.8292
21
-3.27659
0
LINE
8
BLACK
6
CONTINUOUS
10
5.8292
20
-3.27659
11
5.82935
21
-3.27708
0
LINE
8
BLACK
6
CONTINUOUS
10
5.82935
20
-3.27708
11
5.82942
21
-3.27719
0
LINE
8
BLACK
6
CONTINUOUS
10
5.82942
20
-3.27719
11
5.8313
21
-3.28469
0
LINE
8
BLACK
6
CONTINUOUS
10
5.8313
20
-3.28469
11
5.83134
21
-3.28528
0
LINE
8
BLACK
6
CONTINUOUS
10
5.83134
20
-3.28528
11
5.83139
21
-3.28541
0
LINE
8
BLACK
6
CONTINUOUS
10
5.83139
20
-3.28541
11
5.83139
21
-3.29103
0
LINE
8
BLACK
6
CONTINUOUS
10
5.83139
20
-3.29103
11
5.83128
21
-3.29161
0
LINE
8
BLACK
6
CONTINUOUS
10
5.83128
20
-3.29161
11
5.8313
21
-3.29175
0
LINE
8
BLACK
6
CONTINUOUS
10
5.8313
20
-3.29175
11
5.82942
21
-3.29925
0
LINE
8
BLACK
6
CONTINUOUS
10
5.82942
20
-3.29925
11
5.82922
21
-3.29971
0
LINE
8
BLACK
6
CONTINUOUS
10
5.82922
20
-3.29971
11
5.8292
21
-3.29985
0
LINE
8
BLACK
6
CONTINUOUS
10
5.8292
20
-3.29985
11
5.82733
21
-3.3036
0
LINE
8
BLACK
6
CONTINUOUS
10
5.82733
20
-3.3036
11
5.8268
21
-3.30431
0
LINE
8
BLACK
6
CONTINUOUS
10
5.8268
20
-3.30431
11
5.82677
21
-3.30437
0
LINE
8
BLACK
6
CONTINUOUS
10
5.82677
20
-3.30437
11
5.82302
21
-3.30812
0
LINE
8
BLACK
6
CONTINUOUS
10
5.82302
20
-3.30812
11
5.82218
21
-3.30871
0
LINE
8
BLACK
6
CONTINUOUS
10
5.82218
20
-3.30871
11
5.82201
21
-3.30872
0
LINE
8
BLACK
6
CONTINUOUS
10
5.82201
20
-3.30872
11
5.82187
21
-3.30883
0
LINE
8
BLACK
6
CONTINUOUS
10
5.82187
20
-3.30883
11
5.81624
21
-3.31071
0
LINE
8
BLACK
6
CONTINUOUS
10
5.81624
20
-3.31071
11
5.81537
21
-3.31084
0
LINE
8
BLACK
6
CONTINUOUS
10
5.81537
20
-3.31084
11
5.81531
21
-3.31086
0
LINE
8
BLACK
6
CONTINUOUS
10
5.81531
20
-3.31086
11
5.81156
21
-3.31086
0
LINE
8
BLACK
6
CONTINUOUS
10
5.81156
20
-3.31086
11
5.81069
21
-3.31071
0
LINE
8
BLACK
6
CONTINUOUS
10
5.81069
20
-3.31071
11
5.81063
21
-3.31071
0
LINE
8
BLACK
6
CONTINUOUS
10
5.81063
20
-3.31071
11
5.805
21
-3.30883
0
LINE
8
BLACK
6
CONTINUOUS
10
5.805
20
-3.30883
11
5.8041
21
-3.30834
0
LINE
8
BLACK
6
CONTINUOUS
10
5.8041
20
-3.30834
11
5.80401
21
-3.30819
0
LINE
8
BLACK
6
CONTINUOUS
10
5.80401
20
-3.30819
11
5.80385
21
-3.30812
0
LINE
8
BLACK
6
CONTINUOUS
10
5.80385
20
-3.30812
11
5.80197
21
-3.30624
0
LINE
8
BLACK
6
CONTINUOUS
10
5.80197
20
-3.30624
11
5.80139
21
-3.3054
0
LINE
8
BLACK
6
CONTINUOUS
10
5.80139
20
-3.3054
11
5.80121
21
-3.30339
0
LINE
8
BLACK
6
CONTINUOUS
10
5.80121
20
-3.30339
11
5.80237
21
-3.30174
0
LINE
8
BLACK
6
CONTINUOUS
10
5.80237
20
-3.30174
11
5.80432
21
-3.30122
0
LINE
8
BLACK
6
CONTINUOUS
10
5.80432
20
-3.30122
11
5.80615
21
-3.30207
0
LINE
8
BLACK
6
CONTINUOUS
10
5.80615
20
-3.30207
11
5.80753
21
-3.30345
0
LINE
8
BLACK
6
CONTINUOUS
10
5.80753
20
-3.30345
11
5.81204
21
-3.30495
0
LINE
8
BLACK
6
CONTINUOUS
10
5.81204
20
-3.30495
11
5.81483
21
-3.30495
0
LINE
8
BLACK
6
CONTINUOUS
10
5.81483
20
-3.30495
11
5.81934
21
-3.30345
0
LINE
8
BLACK
6
CONTINUOUS
10
5.81934
20
-3.30345
11
5.82226
21
-3.30053
0
LINE
8
BLACK
6
CONTINUOUS
10
5.82226
20
-3.30053
11
5.82377
21
-3.2975
0
LINE
8
BLACK
6
CONTINUOUS
10
5.82377
20
-3.2975
11
5.82548
21
-3.29067
0
LINE
8
BLACK
6
CONTINUOUS
10
5.82548
20
-3.29067
11
5.82548
21
-3.28577
0
LINE
8
BLACK
6
CONTINUOUS
10
5.82548
20
-3.28577
11
5.82377
21
-3.27894
0
LINE
8
BLACK
6
CONTINUOUS
10
5.82377
20
-3.27894
11
5.82226
21
-3.27591
0
LINE
8
BLACK
6
CONTINUOUS
10
5.82226
20
-3.27591
11
5.81934
21
-3.27299
0
LINE
8
BLACK
6
CONTINUOUS
10
5.81934
20
-3.27299
11
5.81483
21
-3.27149
0
LINE
8
BLACK
6
CONTINUOUS
10
5.81483
20
-3.27149
11
5.81204
21
-3.27149
0
LINE
8
BLACK
6
CONTINUOUS
10
5.81204
20
-3.27149
11
5.80753
21
-3.27299
0
LINE
8
BLACK
6
CONTINUOUS
10
5.80753
20
-3.27299
11
5.80615
21
-3.27437
0
LINE
8
BLACK
6
CONTINUOUS
10
5.80615
20
-3.27437
11
5.80531
21
-3.27496
0
LINE
8
BLACK
6
CONTINUOUS
10
5.80531
20
-3.27496
11
5.8033
21
-3.27514
0
LINE
8
BLACK
6
CONTINUOUS
10
5.8033
20
-3.27514
11
5.80164
21
-3.27398
0
LINE
8
BLACK
6
CONTINUOUS
10
5.80164
20
-3.27398
11
5.80112
21
-3.27203
0
LINE
8
BLACK
6
CONTINUOUS
10
5.80112
20
-3.27203
11
5.80197
21
-3.2702
0
LINE
8
BLACK
6
CONTINUOUS
10
5.80197
20
-3.2702
11
5.80385
21
-3.26832
0
LINE
8
BLACK
6
CONTINUOUS
10
5.80385
20
-3.26832
11
5.80469
21
-3.26773
0
LINE
8
BLACK
6
CONTINUOUS
10
5.80469
20
-3.26773
11
5.80486
21
-3.26772
0
LINE
8
BLACK
6
CONTINUOUS
10
5.80486
20
-3.26772
11
5.805
21
-3.26761
0
LINE
8
BLACK
6
CONTINUOUS
10
5.805
20
-3.26761
11
5.81063
21
-3.26573
0
LINE
8
BLACK
6
CONTINUOUS
10
5.81063
20
-3.26573
11
5.8115
21
-3.26561
0
LINE
8
BLACK
6
CONTINUOUS
10
5.8115
20
-3.26561
11
5.81156
21
-3.26558
0
LINE
8
BLACK
6
CONTINUOUS
10
5.81156
20
-3.26558
11
5.81531
21
-3.26558
0
LINE
8
BLACK
6
CONTINUOUS
10
5.81531
20
-3.26558
11
5.81618
21
-3.26574
0
LINE
8
BLACK
6
CONTINUOUS
10
5.78124
20
-3.26415
11
5.78249
21
-3.26573
0
LINE
8
BLACK
6
CONTINUOUS
10
5.78249
20
-3.26573
11
5.79186
21
-3.29385
0
LINE
8
BLACK
6
CONTINUOUS
10
5.79186
20
-3.29385
11
5.79202
21
-3.29486
0
LINE
8
BLACK
6
CONTINUOUS
10
5.79202
20
-3.29486
11
5.79193
21
-3.29507
0
LINE
8
BLACK
6
CONTINUOUS
10
5.79193
20
-3.29507
11
5.79197
21
-3.2953
0
LINE
8
BLACK
6
CONTINUOUS
10
5.79197
20
-3.2953
11
5.79157
21
-3.29599
0
LINE
8
BLACK
6
CONTINUOUS
10
5.79157
20
-3.29599
11
5.79127
21
-3.29674
0
LINE
8
BLACK
6
CONTINUOUS
10
5.79127
20
-3.29674
11
5.79107
21
-3.29685
0
LINE
8
BLACK
6
CONTINUOUS
10
5.79107
20
-3.29685
11
5.79096
21
-3.29704
0
LINE
8
BLACK
6
CONTINUOUS
10
5.79096
20
-3.29704
11
5.7902
21
-3.29732
0
LINE
8
BLACK
6
CONTINUOUS
10
5.7902
20
-3.29732
11
5.7895
21
-3.2977
0
LINE
8
BLACK
6
CONTINUOUS
10
5.7895
20
-3.2977
11
5.78928
21
-3.29766
0
LINE
8
BLACK
6
CONTINUOUS
10
5.78928
20
-3.29766
11
5.78906
21
-3.29774
0
LINE
8
BLACK
6
CONTINUOUS
10
5.78906
20
-3.29774
11
5.77327
21
-3.29774
0
LINE
8
BLACK
6
CONTINUOUS
10
5.77327
20
-3.29774
11
5.77327
21
-3.30791
0
LINE
8
BLACK
6
CONTINUOUS
10
5.77327
20
-3.30791
11
5.77309
21
-3.30892
0
LINE
8
BLACK
6
CONTINUOUS
10
5.77309
20
-3.30892
11
5.77179
21
-3.31046
0
LINE
8
BLACK
6
CONTINUOUS
10
5.77179
20
-3.31046
11
5.7698
21
-3.31081
0
LINE
8
BLACK
6
CONTINUOUS
10
5.7698
20
-3.31081
11
5.76805
21
-3.3098
0
LINE
8
BLACK
6
CONTINUOUS
10
5.76805
20
-3.3098
11
5.76736
21
-3.30791
0
LINE
8
BLACK
6
CONTINUOUS
10
5.76736
20
-3.30791
11
5.76736
21
-3.29774
0
LINE
8
BLACK
6
CONTINUOUS
10
5.76736
20
-3.29774
11
5.76469
21
-3.29774
0
LINE
8
BLACK
6
CONTINUOUS
10
5.76469
20
-3.29774
11
5.76368
21
-3.29756
0
LINE
8
BLACK
6
CONTINUOUS
10
5.76368
20
-3.29756
11
5.76213
21
-3.29626
0
LINE
8
BLACK
6
CONTINUOUS
10
5.76213
20
-3.29626
11
5.76178
21
-3.29427
0
LINE
8
BLACK
6
CONTINUOUS
10
5.76178
20
-3.29427
11
5.76279
21
-3.29252
0
LINE
8
BLACK
6
CONTINUOUS
10
5.76279
20
-3.29252
11
5.76469
21
-3.29183
0
LINE
8
BLACK
6
CONTINUOUS
10
5.76469
20
-3.29183
11
5.76736
21
-3.29183
0
LINE
8
BLACK
6
CONTINUOUS
10
5.76736
20
-3.29183
11
5.76736
21
-3.28166
0
LINE
8
BLACK
6
CONTINUOUS
10
5.76736
20
-3.28166
11
5.76754
21
-3.28065
0
LINE
8
BLACK
6
CONTINUOUS
10
5.76754
20
-3.28065
11
5.76884
21
-3.2791
0
LINE
8
BLACK
6
CONTINUOUS
10
5.76884
20
-3.2791
11
5.77083
21
-3.27875
0
LINE
8
BLACK
6
CONTINUOUS
10
5.77083
20
-3.27875
11
5.77258
21
-3.27976
0
LINE
8
BLACK
6
CONTINUOUS
10
5.77258
20
-3.27976
11
5.77327
21
-3.28166
0
LINE
8
BLACK
6
CONTINUOUS
10
5.77327
20
-3.28166
11
5.77327
21
-3.29183
0
LINE
8
BLACK
6
CONTINUOUS
10
5.77327
20
-3.29183
11
5.78497
21
-3.29183
0
LINE
8
BLACK
6
CONTINUOUS
10
5.78497
20
-3.29183
11
5.77689
21
-3.2676
0
LINE
8
BLACK
6
CONTINUOUS
10
5.77689
20
-3.2676
11
5.77674
21
-3.26658
0
LINE
8
BLACK
6
CONTINUOUS
10
5.77674
20
-3.26658
11
5.77748
21
-3.2647
0
LINE
8
BLACK
6
CONTINUOUS
10
5.77748
20
-3.2647
11
5.77926
21
-3.26374
0
LINE
8
BLACK
6
CONTINUOUS
10
5.77926
20
-3.26374
11
5.78124
21
-3.26415
0
LINE
8
BLACK
6
CONTINUOUS
10
5.90321
20
-3.26598
11
5.9039
21
-3.26787
0
LINE
8
BLACK
6
CONTINUOUS
10
5.9039
20
-3.26787
11
5.9039
21
-3.30724
0
LINE
8
BLACK
6
CONTINUOUS
10
5.9039
20
-3.30724
11
5.90372
21
-3.30825
0
LINE
8
BLACK
6
CONTINUOUS
10
5.90372
20
-3.30825
11
5.90242
21
-3.3098
0
LINE
8
BLACK
6
CONTINUOUS
10
5.90242
20
-3.3098
11
5.90043
21
-3.31015
0
LINE
8
BLACK
6
CONTINUOUS
10
5.90043
20
-3.31015
11
5.89868
21
-3.30914
0
LINE
8
BLACK
6
CONTINUOUS
10
5.89868
20
-3.30914
11
5.89799
21
-3.30724
0
LINE
8
BLACK
6
CONTINUOUS
10
5.89799
20
-3.30724
11
5.89799
21
-3.26787
0
LINE
8
BLACK
6
CONTINUOUS
10
5.89799
20
-3.26787
11
5.89817
21
-3.26686
0
LINE
8
BLACK
6
CONTINUOUS
10
5.89817
20
-3.26686
11
5.89947
21
-3.26532
0
LINE
8
BLACK
6
CONTINUOUS
10
5.89947
20
-3.26532
11
5.90146
21
-3.26497
0
LINE
8
BLACK
6
CONTINUOUS
10
5.90146
20
-3.26497
11
5.90321
21
-3.26598
0
LINE
8
BLACK
6
CONTINUOUS
10
5.97014
20
-3.26598
11
5.97083
21
-3.26787
0
LINE
8
BLACK
6
CONTINUOUS
10
5.97083
20
-3.26787
11
5.97083
21
-3.30724
0
LINE
8
BLACK
6
CONTINUOUS
10
5.97083
20
-3.30724
11
5.97065
21
-3.30825
0
LINE
8
BLACK
6
CONTINUOUS
10
5.97065
20
-3.30825
11
5.96935
21
-3.3098
0
LINE
8
BLACK
6
CONTINUOUS
10
5.96935
20
-3.3098
11
5.96736
21
-3.31015
0
LINE
8
BLACK
6
CONTINUOUS
10
5.96736
20
-3.31015
11
5.96561
21
-3.30914
0
LINE
8
BLACK
6
CONTINUOUS
10
5.96561
20
-3.30914
11
5.96492
21
-3.30724
0
LINE
8
BLACK
6
CONTINUOUS
10
5.96492
20
-3.30724
11
5.96492
21
-3.26787
0
LINE
8
BLACK
6
CONTINUOUS
10
5.96492
20
-3.26787
11
5.9651
21
-3.26686
0
LINE
8
BLACK
6
CONTINUOUS
10
5.9651
20
-3.26686
11
5.9664
21
-3.26532
0
LINE
8
BLACK
6
CONTINUOUS
10
5.9664
20
-3.26532
11
5.96839
21
-3.26497
0
LINE
8
BLACK
6
CONTINUOUS
10
5.96839
20
-3.26497
11
5.97014
21
-3.26598
0
LINE
8
BLACK
6
CONTINUOUS
10
5.59819
20
-3.29569
11
5.59974
21
-3.29699
0
LINE
8
BLACK
6
CONTINUOUS
10
5.59974
20
-3.29699
11
5.60009
21
-3.29898
0
LINE
8
BLACK
6
CONTINUOUS
10
5.60009
20
-3.29898
11
5.59908
21
-3.30073
0
LINE
8
BLACK
6
CONTINUOUS
10
5.59908
20
-3.30073
11
5.59719
21
-3.30142
0
LINE
8
BLACK
6
CONTINUOUS
10
5.59719
20
-3.30142
11
5.55781
21
-3.30142
0
LINE
8
BLACK
6
CONTINUOUS
10
5.55781
20
-3.30142
11
5.55681
21
-3.30124
0
LINE
8
BLACK
6
CONTINUOUS
10
5.55681
20
-3.30124
11
5.55526
21
-3.29994
0
LINE
8
BLACK
6
CONTINUOUS
10
5.55526
20
-3.29994
11
5.55491
21
-3.29795
0
LINE
8
BLACK
6
CONTINUOUS
10
5.55491
20
-3.29795
11
5.55592
21
-3.2962
0
LINE
8
BLACK
6
CONTINUOUS
10
5.55592
20
-3.2962
11
5.55781
21
-3.29551
0
LINE
8
BLACK
6
CONTINUOUS
10
5.55781
20
-3.29551
11
5.59719
21
-3.29551
0
LINE
8
BLACK
6
CONTINUOUS
10
5.59719
20
-3.29551
11
5.59819
21
-3.29569
0
LINE
8
BLACK
6
CONTINUOUS
10
5.09095
20
-3.26862
11
5.09207
21
-3.27031
0
LINE
8
BLACK
6
CONTINUOUS
10
5.09207
20
-3.27031
11
5.09184
21
-3.27232
0
LINE
8
BLACK
6
CONTINUOUS
10
5.09184
20
-3.27232
11
5.08996
21
-3.27607
0
LINE
8
BLACK
6
CONTINUOUS
10
5.08996
20
-3.27607
11
5.08943
21
-3.27677
0
LINE
8
BLACK
6
CONTINUOUS
10
5.08943
20
-3.27677
11
5.08941
21
-3.27683
0
LINE
8
BLACK
6
CONTINUOUS
10
5.08941
20
-3.27683
11
5.08695
21
-3.27929
0
LINE
8
BLACK
6
CONTINUOUS
10
5.08695
20
-3.27929
11
5.11436
21
-3.27929
0
LINE
8
BLACK
6
CONTINUOUS
10
5.11436
20
-3.27929
11
5.11436
21
-3.271
0
LINE
8
BLACK
6
CONTINUOUS
10
5.11436
20
-3.271
11
5.11454
21
-3.26999
0
LINE
8
BLACK
6
CONTINUOUS
10
5.11454
20
-3.26999
11
5.11584
21
-3.26844
0
LINE
8
BLACK
6
CONTINUOUS
10
5.11584
20
-3.26844
11
5.11783
21
-3.26809
0
LINE
8
BLACK
6
CONTINUOUS
10
5.11783
20
-3.26809
11
5.11958
21
-3.2691
0
LINE
8
BLACK
6
CONTINUOUS
10
5.11958
20
-3.2691
11
5.12027
21
-3.271
0
LINE
8
BLACK
6
CONTINUOUS
10
5.12027
20
-3.271
11
5.12027
21
-3.29349
0
LINE
8
BLACK
6
CONTINUOUS
10
5.12027
20
-3.29349
11
5.12009
21
-3.2945
0
LINE
8
BLACK
6
CONTINUOUS
10
5.12009
20
-3.2945
11
5.11879
21
-3.29605
0
LINE
8
BLACK
6
CONTINUOUS
10
5.11879
20
-3.29605
11
5.1168
21
-3.2964
0
LINE
8
BLACK
6
CONTINUOUS
10
5.1168
20
-3.2964
11
5.11505
21
-3.29539
0
LINE
8
BLACK
6
CONTINUOUS
10
5.11505
20
-3.29539
11
5.11436
21
-3.29349
0
LINE
8
BLACK
6
CONTINUOUS
10
5.11436
20
-3.29349
11
5.11436
21
-3.2852
0
LINE
8
BLACK
6
CONTINUOUS
10
5.11436
20
-3.2852
11
5.07795
21
-3.2852
0
LINE
8
BLACK
6
CONTINUOUS
10
5.07795
20
-3.2852
11
5.07694
21
-3.28502
0
LINE
8
BLACK
6
CONTINUOUS
10
5.07694
20
-3.28502
11
5.07681
21
-3.28491
0
LINE
8
BLACK
6
CONTINUOUS
10
5.07681
20
-3.28491
11
5.07664
21
-3.28489
0
LINE
8
BLACK
6
CONTINUOUS
10
5.07664
20
-3.28489
11
5.07604
21
-3.28427
0
LINE
8
BLACK
6
CONTINUOUS
10
5.07604
20
-3.28427
11
5.07539
21
-3.28372
0
LINE
8
BLACK
6
CONTINUOUS
10
5.07539
20
-3.28372
11
5.07536
21
-3.28355
0
LINE
8
BLACK
6
CONTINUOUS
10
5.07536
20
-3.28355
11
5.07524
21
-3.28343
0
LINE
8
BLACK
6
CONTINUOUS
10
5.07524
20
-3.28343
11
5.07519
21
-3.28258
0
LINE
8
BLACK
6
CONTINUOUS
10
5.07519
20
-3.28258
11
5.07504
21
-3.28173
0
LINE
8
BLACK
6
CONTINUOUS
10
5.07504
20
-3.28173
11
5.07512
21
-3.28158
0
LINE
8
BLACK
6
CONTINUOUS
10
5.07512
20
-3.28158
11
5.07511
21
-3.28141
0
LINE
8
BLACK
6
CONTINUOUS
10
5.07511
20
-3.28141
11
5.07562
21
-3.28072
0
LINE
8
BLACK
6
CONTINUOUS
10
5.07562
20
-3.28072
11
5.07605
21
-3.27998
0
LINE
8
BLACK
6
CONTINUOUS
10
5.07605
20
-3.27998
11
5.07621
21
-3.27992
0
LINE
8
BLACK
6
CONTINUOUS
10
5.07621
20
-3.27992
11
5.07631
21
-3.27979
0
LINE
8
BLACK
6
CONTINUOUS
10
5.07631
20
-3.27979
11
5.08169
21
-3.2762
0
LINE
8
BLACK
6
CONTINUOUS
10
5.08169
20
-3.2762
11
5.08489
21
-3.273
0
LINE
8
BLACK
6
CONTINUOUS
10
5.08489
20
-3.273
11
5.08655
21
-3.26967
0
LINE
8
BLACK
6
CONTINUOUS
10
5.08655
20
-3.26967
11
5.08716
21
-3.26885
0
LINE
8
BLACK
6
CONTINUOUS
10
5.08716
20
-3.26885
11
5.08902
21
-3.26805
0
LINE
8
BLACK
6
CONTINUOUS
10
5.08902
20
-3.26805
11
5.09095
21
-3.26862
0
LINE
8
BLACK
6
CONTINUOUS
10
5.59868
20
-3.24324
11
5.59874
21
-3.24323
0
LINE
8
BLACK
6
CONTINUOUS
10
5.59874
20
-3.24323
11
5.60437
21
-3.24511
0
LINE
8
BLACK
6
CONTINUOUS
10
5.60437
20
-3.24511
11
5.60527
21
-3.2456
0
LINE
8
BLACK
6
CONTINUOUS
10
5.60527
20
-3.2456
11
5.60536
21
-3.24575
0
LINE
8
BLACK
6
CONTINUOUS
10
5.60536
20
-3.24575
11
5.60552
21
-3.24582
0
LINE
8
BLACK
6
CONTINUOUS
10
5.60552
20
-3.24582
11
5.60927
21
-3.24957
0
LINE
8
BLACK
6
CONTINUOUS
10
5.60927
20
-3.24957
11
5.60978
21
-3.2503
0
LINE
8
BLACK
6
CONTINUOUS
10
5.60978
20
-3.2503
11
5.60983
21
-3.25034
0
LINE
8
BLACK
6
CONTINUOUS
10
5.60983
20
-3.25034
11
5.6117
21
-3.25409
0
LINE
8
BLACK
6
CONTINUOUS
10
5.6117
20
-3.25409
11
5.61185
21
-3.25458
0
LINE
8
BLACK
6
CONTINUOUS
10
5.61185
20
-3.25458
11
5.61192
21
-3.25469
0
LINE
8
BLACK
6
CONTINUOUS
10
5.61192
20
-3.25469
11
5.6138
21
-3.26219
0
LINE
8
BLACK
6
CONTINUOUS
10
5.6138
20
-3.26219
11
5.61384
21
-3.26278
0
LINE
8
BLACK
6
CONTINUOUS
10
5.61384
20
-3.26278
11
5.61389
21
-3.26291
0
LINE
8
BLACK
6
CONTINUOUS
10
5.61389
20
-3.26291
11
5.61389
21
-3.26853
0
LINE
8
BLACK
6
CONTINUOUS
10
5.61389
20
-3.26853
11
5.61378
21
-3.26911
0
LINE
8
BLACK
6
CONTINUOUS
10
5.61378
20
-3.26911
11
5.6138
21
-3.26925
0
LINE
8
BLACK
6
CONTINUOUS
10
5.6138
20
-3.26925
11
5.61192
21
-3.27675
0
LINE
8
BLACK
6
CONTINUOUS
10
5.61192
20
-3.27675
11
5.61172
21
-3.27721
0
LINE
8
BLACK
6
CONTINUOUS
10
5.61172
20
-3.27721
11
5.6117
21
-3.27735
0
LINE
8
BLACK
6
CONTINUOUS
10
5.6117
20
-3.27735
11
5.60983
21
-3.2811
0
LINE
8
BLACK
6
CONTINUOUS
10
5.60983
20
-3.2811
11
5.6093
21
-3.28181
0
LINE
8
BLACK
6
CONTINUOUS
10
5.6093
20
-3.28181
11
5.60927
21
-3.28187
0
LINE
8
BLACK
6
CONTINUOUS
10
5.60927
20
-3.28187
11
5.60552
21
-3.28562
0
LINE
8
BLACK
6
CONTINUOUS
10
5.60552
20
-3.28562
11
5.60468
21
-3.28621
0
LINE
8
BLACK
6
CONTINUOUS
10
5.60468
20
-3.28621
11
5.60451
21
-3.28622
0
LINE
8
BLACK
6
CONTINUOUS
10
5.60451
20
-3.28622
11
5.60437
21
-3.28633
0
LINE
8
BLACK
6
CONTINUOUS
10
5.60437
20
-3.28633
11
5.59874
21
-3.28821
0
LINE
8
BLACK
6
CONTINUOUS
10
5.59874
20
-3.28821
11
5.59787
21
-3.28834
0
LINE
8
BLACK
6
CONTINUOUS
10
5.59787
20
-3.28834
11
5.59781
21
-3.28836
0
LINE
8
BLACK
6
CONTINUOUS
10
5.59781
20
-3.28836
11
5.59406
21
-3.28836
0
LINE
8
BLACK
6
CONTINUOUS
10
5.59406
20
-3.28836
11
5.59319
21
-3.28821
0
LINE
8
BLACK
6
CONTINUOUS
10
5.59319
20
-3.28821
11
5.59313
21
-3.28821
0
LINE
8
BLACK
6
CONTINUOUS
10
5.59313
20
-3.28821
11
5.5875
21
-3.28633
0
LINE
8
BLACK
6
CONTINUOUS
10
5.5875
20
-3.28633
11
5.5866
21
-3.28584
0
LINE
8
BLACK
6
CONTINUOUS
10
5.5866
20
-3.28584
11
5.58651
21
-3.28569
0
LINE
8
BLACK
6
CONTINUOUS
10
5.58651
20
-3.28569
11
5.58635
21
-3.28562
0
LINE
8
BLACK
6
CONTINUOUS
10
5.58635
20
-3.28562
11
5.58447
21
-3.28374
0
LINE
8
BLACK
6
CONTINUOUS
10
5.58447
20
-3.28374
11
5.58389
21
-3.2829
0
LINE
8
BLACK
6
CONTINUOUS
10
5.58389
20
-3.2829
11
5.58371
21
-3.28089
0
LINE
8
BLACK
6
CONTINUOUS
10
5.58371
20
-3.28089
11
5.58487
21
-3.27924
0
LINE
8
BLACK
6
CONTINUOUS
10
5.58487
20
-3.27924
11
5.58682
21
-3.27872
0
LINE
8
BLACK
6
CONTINUOUS
10
5.58682
20
-3.27872
11
5.58865
21
-3.27957
0
LINE
8
BLACK
6
CONTINUOUS
10
5.58865
20
-3.27957
11
5.59003
21
-3.28095
0
LINE
8
BLACK
6
CONTINUOUS
10
5.59003
20
-3.28095
11
5.59454
21
-3.28245
0
LINE
8
BLACK
6
CONTINUOUS
10
5.59454
20
-3.28245
11
5.59733
21
-3.28245
0
LINE
8
BLACK
6
CONTINUOUS
10
5.59733
20
-3.28245
11
5.60184
21
-3.28095
0
LINE
8
BLACK
6
CONTINUOUS
10
5.60184
20
-3.28095
11
5.60476
21
-3.27803
0
LINE
8
BLACK
6
CONTINUOUS
10
5.60476
20
-3.27803
11
5.60627
21
-3.275
0
LINE
8
BLACK
6
CONTINUOUS
10
5.60627
20
-3.275
11
5.60798
21
-3.26817
0
LINE
8
BLACK
6
CONTINUOUS
10
5.60798
20
-3.26817
11
5.60798
21
-3.26327
0
LINE
8
BLACK
6
CONTINUOUS
10
5.60798
20
-3.26327
11
5.60627
21
-3.25644
0
LINE
8
BLACK
6
CONTINUOUS
10
5.60627
20
-3.25644
11
5.60476
21
-3.25341
0
LINE
8
BLACK
6
CONTINUOUS
10
5.60476
20
-3.25341
11
5.60184
21
-3.25049
0
LINE
8
BLACK
6
CONTINUOUS
10
5.60184
20
-3.25049
11
5.59733
21
-3.24899
0
LINE
8
BLACK
6
CONTINUOUS
10
5.59733
20
-3.24899
11
5.59454
21
-3.24899
0
LINE
8
BLACK
6
CONTINUOUS
10
5.59454
20
-3.24899
11
5.59003
21
-3.25049
0
LINE
8
BLACK
6
CONTINUOUS
10
5.59003
20
-3.25049
11
5.58865
21
-3.25187
0
LINE
8
BLACK
6
CONTINUOUS
10
5.58865
20
-3.25187
11
5.58781
21
-3.25246
0
LINE
8
BLACK
6
CONTINUOUS
10
5.58781
20
-3.25246
11
5.5858
21
-3.25264
0
LINE
8
BLACK
6
CONTINUOUS
10
5.5858
20
-3.25264
11
5.58414
21
-3.25148
0
LINE
8
BLACK
6
CONTINUOUS
10
5.58414
20
-3.25148
11
5.58362
21
-3.24953
0
LINE
8
BLACK
6
CONTINUOUS
10
5.58362
20
-3.24953
11
5.58447
21
-3.2477
0
LINE
8
BLACK
6
CONTINUOUS
10
5.58447
20
-3.2477
11
5.58635
21
-3.24582
0
LINE
8
BLACK
6
CONTINUOUS
10
5.58635
20
-3.24582
11
5.58719
21
-3.24523
0
LINE
8
BLACK
6
CONTINUOUS
10
5.58719
20
-3.24523
11
5.58736
21
-3.24522
0
LINE
8
BLACK
6
CONTINUOUS
10
5.58736
20
-3.24522
11
5.5875
21
-3.24511
0
LINE
8
BLACK
6
CONTINUOUS
10
5.5875
20
-3.24511
11
5.59313
21
-3.24323
0
LINE
8
BLACK
6
CONTINUOUS
10
5.59313
20
-3.24323
11
5.594
21
-3.24311
0
LINE
8
BLACK
6
CONTINUOUS
10
5.594
20
-3.24311
11
5.59406
21
-3.24308
0
LINE
8
BLACK
6
CONTINUOUS
10
5.59406
20
-3.24308
11
5.59781
21
-3.24308
0
LINE
8
BLACK
6
CONTINUOUS
10
5.59781
20
-3.24308
11
5.59868
21
-3.24324
0
LINE
8
BLACK
6
CONTINUOUS
10
5.57445
20
-3.24326
11
5.576
21
-3.24456
0
LINE
8
BLACK
6
CONTINUOUS
10
5.576
20
-3.24456
11
5.57635
21
-3.24655
0
LINE
8
BLACK
6
CONTINUOUS
10
5.57635
20
-3.24655
11
5.57534
21
-3.2483
0
LINE
8
BLACK
6
CONTINUOUS
10
5.57534
20
-3.2483
11
5.57344
21
-3.24899
0
LINE
8
BLACK
6
CONTINUOUS
10
5.57344
20
-3.24899
11
5.55167
21
-3.24899
0
LINE
8
BLACK
6
CONTINUOUS
10
5.55167
20
-3.24899
11
5.56678
21
-3.28424
0
LINE
8
BLACK
6
CONTINUOUS
10
5.56678
20
-3.28424
11
5.56701
21
-3.28524
0
LINE
8
BLACK
6
CONTINUOUS
10
5.56701
20
-3.28524
11
5.56643
21
-3.28718
0
LINE
8
BLACK
6
CONTINUOUS
10
5.56643
20
-3.28718
11
5.56474
21
-3.28828
0
LINE
8
BLACK
6
CONTINUOUS
10
5.56474
20
-3.28828
11
5.56273
21
-3.28804
0
LINE
8
BLACK
6
CONTINUOUS
10
5.56273
20
-3.28804
11
5.56135
21
-3.28657
0
LINE
8
BLACK
6
CONTINUOUS
10
5.56135
20
-3.28657
11
5.54448
21
-3.2472
0
LINE
8
BLACK
6
CONTINUOUS
10
5.54448
20
-3.2472
11
5.54424
21
-3.2462
0
LINE
8
BLACK
6
CONTINUOUS
10
5.54424
20
-3.2462
11
5.54434
21
-3.24587
0
LINE
8
BLACK
6
CONTINUOUS
10
5.54434
20
-3.24587
11
5.54428
21
-3.24552
0
LINE
8
BLACK
6
CONTINUOUS
10
5.54428
20
-3.24552
11
5.54463
21
-3.24493
0
LINE
8
BLACK
6
CONTINUOUS
10
5.54463
20
-3.24493
11
5.54483
21
-3.24427
0
LINE
8
BLACK
6
CONTINUOUS
10
5.54483
20
-3.24427
11
5.54512
21
-3.24408
0
LINE
8
BLACK
6
CONTINUOUS
10
5.54512
20
-3.24408
11
5.54529
21
-3.24377
0
LINE
8
BLACK
6
CONTINUOUS
10
5.54529
20
-3.24377
11
5.54594
21
-3.24354
0
LINE
8
BLACK
6
CONTINUOUS
10
5.54594
20
-3.24354
11
5.54652
21
-3.24316
0
LINE
8
BLACK
6
CONTINUOUS
10
5.54652
20
-3.24316
11
5.54686
21
-3.2432
0
LINE
8
BLACK
6
CONTINUOUS
10
5.54686
20
-3.2432
11
5.54719
21
-3.24308
0
LINE
8
BLACK
6
CONTINUOUS
10
5.54719
20
-3.24308
11
5.57344
21
-3.24308
0
LINE
8
BLACK
6
CONTINUOUS
10
5.57344
20
-3.24308
11
5.57445
21
-3.24326
0
LINE
8
BLACK
6
CONTINUOUS
10
6.01602
20
-3.25378
11
6.01616
21
-3.25376
0
LINE
8
BLACK
6
CONTINUOUS
10
6.01616
20
-3.25376
11
6.02366
21
-3.25564
0
LINE
8
BLACK
6
CONTINUOUS
10
6.02366
20
-3.25564
11
6.02412
21
-3.25584
0
LINE
8
BLACK
6
CONTINUOUS
10
6.02412
20
-3.25584
11
6.02426
21
-3.25586
0
LINE
8
BLACK
6
CONTINUOUS
10
6.02426
20
-3.25586
11
6.02801
21
-3.25773
0
LINE
8
BLACK
6
CONTINUOUS
10
6.02801
20
-3.25773
11
6.02872
21
-3.25826
0
LINE
8
BLACK
6
CONTINUOUS
10
6.02872
20
-3.25826
11
6.02878
21
-3.25829
0
LINE
8
BLACK
6
CONTINUOUS
10
6.02878
20
-3.25829
11
6.03253
21
-3.26204
0
LINE
8
BLACK
6
CONTINUOUS
10
6.03253
20
-3.26204
11
6.03312
21
-3.26288
0
LINE
8
BLACK
6
CONTINUOUS
10
6.03312
20
-3.26288
11
6.03313
21
-3.26305
0
LINE
8
BLACK
6
CONTINUOUS
10
6.03313
20
-3.26305
11
6.03324
21
-3.26319
0
LINE
8
BLACK
6
CONTINUOUS
10
6.03324
20
-3.26319
11
6.03512
21
-3.26882
0
LINE
8
BLACK
6
CONTINUOUS
10
6.03512
20
-3.26882
11
6.03525
21
-3.26969
0
LINE
8
BLACK
6
CONTINUOUS
10
6.03525
20
-3.26969
11
6.03527
21
-3.26975
0
LINE
8
BLACK
6
CONTINUOUS
10
6.03527
20
-3.26975
11
6.03527
21
-3.2735
0
LINE
8
BLACK
6
CONTINUOUS
10
6.03527
20
-3.2735
11
6.03512
21
-3.27437
0
LINE
8
BLACK
6
CONTINUOUS
10
6.03512
20
-3.27437
11
6.03512
21
-3.27443
0
LINE
8
BLACK
6
CONTINUOUS
10
6.03512
20
-3.27443
11
6.03324
21
-3.28006
0
LINE
8
BLACK
6
CONTINUOUS
10
6.03324
20
-3.28006
11
6.03275
21
-3.28096
0
LINE
8
BLACK
6
CONTINUOUS
10
6.03275
20
-3.28096
11
6.0326
21
-3.28105
0
LINE
8
BLACK
6
CONTINUOUS
10
6.0326
20
-3.28105
11
6.03253
21
-3.28121
0
LINE
8
BLACK
6
CONTINUOUS
10
6.03253
20
-3.28121
11
6.03065
21
-3.28309
0
LINE
8
BLACK
6
CONTINUOUS
10
6.03065
20
-3.28309
11
6.02981
21
-3.28367
0
LINE
8
BLACK
6
CONTINUOUS
10
6.02981
20
-3.28367
11
6.0278
21
-3.28385
0
LINE
8
BLACK
6
CONTINUOUS
10
6.0278
20
-3.28385
11
6.02615
21
-3.28269
0
LINE
8
BLACK
6
CONTINUOUS
10
6.02615
20
-3.28269
11
6.02562
21
-3.28074
0
LINE
8
BLACK
6
CONTINUOUS
10
6.02562
20
-3.28074
11
6.02648
21
-3.27891
0
LINE
8
BLACK
6
CONTINUOUS
10
6.02648
20
-3.27891
11
6.02786
21
-3.27753
0
LINE
8
BLACK
6
CONTINUOUS
10
6.02786
20
-3.27753
11
6.02936
21
-3.27302
0
LINE
8
BLACK
6
CONTINUOUS
10
6.02936
20
-3.27302
11
6.02936
21
-3.27023
0
LINE
8
BLACK
6
CONTINUOUS
10
6.02936
20
-3.27023
11
6.02786
21
-3.26572
0
LINE
8
BLACK
6
CONTINUOUS
10
6.02786
20
-3.26572
11
6.02494
21
-3.2628
0
LINE
8
BLACK
6
CONTINUOUS
10
6.02494
20
-3.2628
11
6.02191
21
-3.26129
0
LINE
8
BLACK
6
CONTINUOUS
10
6.02191
20
-3.26129
11
6.01508
21
-3.25958
0
LINE
8
BLACK
6
CONTINUOUS
10
6.01508
20
-3.25958
11
6.01018
21
-3.25958
0
LINE
8
BLACK
6
CONTINUOUS
10
6.01018
20
-3.25958
11
6.00335
21
-3.26129
0
LINE
8
BLACK
6
CONTINUOUS
10
6.00335
20
-3.26129
11
6.00032
21
-3.2628
0
LINE
8
BLACK
6
CONTINUOUS
10
6.00032
20
-3.2628
11
5.9974
21
-3.26572
0
LINE
8
BLACK
6
CONTINUOUS
10
5.9974
20
-3.26572
11
5.9959
21
-3.27023
0
LINE
8
BLACK
6
CONTINUOUS
10
5.9959
20
-3.27023
11
5.9959
21
-3.27302
0
LINE
8
BLACK
6
CONTINUOUS
10
5.9959
20
-3.27302
11
5.9974
21
-3.27753
0
LINE
8
BLACK
6
CONTINUOUS
10
5.9974
20
-3.27753
11
5.99878
21
-3.27891
0
LINE
8
BLACK
6
CONTINUOUS
10
5.99878
20
-3.27891
11
5.99937
21
-3.27975
0
LINE
8
BLACK
6
CONTINUOUS
10
5.99937
20
-3.27975
11
5.99955
21
-3.28176
0
LINE
8
BLACK
6
CONTINUOUS
10
5.99955
20
-3.28176
11
5.99839
21
-3.28342
0
LINE
8
BLACK
6
CONTINUOUS
10
5.99839
20
-3.28342
11
5.99644
21
-3.28394
0
LINE
8
BLACK
6
CONTINUOUS
10
5.99644
20
-3.28394
11
5.99461
21
-3.28309
0
LINE
8
BLACK
6
CONTINUOUS
10
5.99461
20
-3.28309
11
5.99273
21
-3.28121
0
LINE
8
BLACK
6
CONTINUOUS
10
5.99273
20
-3.28121
11
5.99214
21
-3.28037
0
LINE
8
BLACK
6
CONTINUOUS
10
5.99214
20
-3.28037
11
5.99213
21
-3.28019
0
LINE
8
BLACK
6
CONTINUOUS
10
5.99213
20
-3.28019
11
5.99202
21
-3.28006
0
LINE
8
BLACK
6
CONTINUOUS
10
5.99202
20
-3.28006
11
5.99014
21
-3.27443
0
LINE
8
BLACK
6
CONTINUOUS
10
5.99014
20
-3.27443
11
5.99001
21
-3.27356
0
LINE
8
BLACK
6
CONTINUOUS
10
5.99001
20
-3.27356
11
5.98999
21
-3.2735
0
LINE
8
BLACK
6
CONTINUOUS
10
5.98999
20
-3.2735
11
5.98999
21
-3.26975
0
LINE
8
BLACK
6
CONTINUOUS
10
5.98999
20
-3.26975
11
5.99015
21
-3.26888
0
LINE
8
BLACK
6
CONTINUOUS
10
5.99015
20
-3.26888
11
5.99014
21
-3.26882
0
LINE
8
BLACK
6
CONTINUOUS
10
5.99014
20
-3.26882
11
5.99202
21
-3.26319
0
LINE
8
BLACK
6
CONTINUOUS
10
5.99202
20
-3.26319
11
5.99251
21
-3.26229
0
LINE
8
BLACK
6
CONTINUOUS
10
5.99251
20
-3.26229
11
5.99266
21
-3.2622
0
LINE
8
BLACK
6
CONTINUOUS
10
5.99266
20
-3.2622
11
5.99273
21
-3.26204
0
LINE
8
BLACK
6
CONTINUOUS
10
5.99273
20
-3.26204
11
5.99648
21
-3.25829
0
LINE
8
BLACK
6
CONTINUOUS
10
5.99648
20
-3.25829
11
5.99721
21
-3.25778
0
LINE
8
BLACK
6
CONTINUOUS
10
5.99721
20
-3.25778
11
5.99725
21
-3.25773
0
LINE
8
BLACK
6
CONTINUOUS
10
5.99725
20
-3.25773
11
6.001
21
-3.25586
0
LINE
8
BLACK
6
CONTINUOUS
10
6.001
20
-3.25586
11
6.00149
21
-3.25571
0
LINE
8
BLACK
6
CONTINUOUS
10
6.00149
20
-3.25571
11
6.0016
21
-3.25564
0
LINE
8
BLACK
6
CONTINUOUS
10
6.0016
20
-3.25564
11
6.0091
21
-3.25376
0
LINE
8
BLACK
6
CONTINUOUS
10
6.0091
20
-3.25376
11
6.00969
21
-3.25372
0
LINE
8
BLACK
6
CONTINUOUS
10
6.00969
20
-3.25372
11
6.00982
21
-3.25367
0
LINE
8
BLACK
6
CONTINUOUS
10
6.00982
20
-3.25367
11
6.01544
21
-3.25367
0
LINE
8
BLACK
6
CONTINUOUS
10
6.01544
20
-3.25367
11
6.01602
21
-3.25378
0
LINE
8
BLACK
6
CONTINUOUS
10
5.11833
20
-3.23073
11
5.11987
21
-3.23202
0
LINE
8
BLACK
6
CONTINUOUS
10
5.11987
20
-3.23202
11
5.12022
21
-3.23401
0
LINE
8
BLACK
6
CONTINUOUS
10
5.12022
20
-3.23401
11
5.11921
21
-3.23576
0
LINE
8
BLACK
6
CONTINUOUS
10
5.11921
20
-3.23576
11
5.11732
21
-3.23645
0
LINE
8
BLACK
6
CONTINUOUS
10
5.11732
20
-3.23645
11
5.10152
21
-3.23645
0
LINE
8
BLACK
6
CONTINUOUS
10
5.10152
20
-3.23645
11
5.10152
21
-3.24134
0
LINE
8
BLACK
6
CONTINUOUS
10
5.10152
20
-3.24134
11
5.11901
21
-3.25358
0
LINE
8
BLACK
6
CONTINUOUS
10
5.11901
20
-3.25358
11
5.11973
21
-3.2543
0
LINE
8
BLACK
6
CONTINUOUS
10
5.11973
20
-3.2543
11
5.12026
21
-3.25625
0
LINE
8
BLACK
6
CONTINUOUS
10
5.12026
20
-3.25625
11
5.1194
21
-3.25808
0
LINE
8
BLACK
6
CONTINUOUS
10
5.1194
20
-3.25808
11
5.11757
21
-3.25894
0
LINE
8
BLACK
6
CONTINUOUS
10
5.11757
20
-3.25894
11
5.11562
21
-3.25842
0
LINE
8
BLACK
6
CONTINUOUS
10
5.11562
20
-3.25842
11
5.10151
21
-3.24854
0
LINE
8
BLACK
6
CONTINUOUS
10
5.10151
20
-3.24854
11
5.10134
21
-3.24951
0
LINE
8
BLACK
6
CONTINUOUS
10
5.10134
20
-3.24951
11
5.10123
21
-3.24964
0
LINE
8
BLACK
6
CONTINUOUS
10
5.10123
20
-3.24964
11
5.10121
21
-3.24982
0
LINE
8
BLACK
6
CONTINUOUS
10
5.10121
20
-3.24982
11
5.09933
21
-3.25357
0
LINE
8
BLACK
6
CONTINUOUS
10
5.09933
20
-3.25357
11
5.09881
21
-3.25428
0
LINE
8
BLACK
6
CONTINUOUS
10
5.09881
20
-3.25428
11
5.09878
21
-3.25434
0
LINE
8
BLACK
6
CONTINUOUS
10
5.09878
20
-3.25434
11
5.09691
21
-3.25621
0
LINE
8
BLACK
6
CONTINUOUS
10
5.09691
20
-3.25621
11
5.09618
21
-3.25672
0
LINE
8
BLACK
6
CONTINUOUS
10
5.09618
20
-3.25672
11
5.09614
21
-3.25676
0
LINE
8
BLACK
6
CONTINUOUS
10
5.09614
20
-3.25676
11
5.09239
21
-3.25864
0
LINE
8
BLACK
6
CONTINUOUS
10
5.09239
20
-3.25864
11
5.09141
21
-3.25893
0
LINE
8
BLACK
6
CONTINUOUS
10
5.09141
20
-3.25893
11
5.09123
21
-3.25889
0
LINE
8
BLACK
6
CONTINUOUS
10
5.09123
20
-3.25889
11
5.09107
21
-3.25895
0
LINE
8
BLACK
6
CONTINUOUS
10
5.09107
20
-3.25895
11
5.08544
21
-3.25895
0
LINE
8
BLACK
6
CONTINUOUS
10
5.08544
20
-3.25895
11
5.08443
21
-3.25877
0
LINE
8
BLACK
6
CONTINUOUS
10
5.08443
20
-3.25877
11
5.0843
21
-3.25866
0
LINE
8
BLACK
6
CONTINUOUS
10
5.0843
20
-3.25866
11
5.08412
21
-3.25864
0
LINE
8
BLACK
6
CONTINUOUS
10
5.08412
20
-3.25864
11
5.08037
21
-3.25676
0
LINE
8
BLACK
6
CONTINUOUS
10
5.08037
20
-3.25676
11
5.07967
21
-3.25624
0
LINE
8
BLACK
6
CONTINUOUS
10
5.07967
20
-3.25624
11
5.07961
21
-3.25621
0
LINE
8
BLACK
6
CONTINUOUS
10
5.07961
20
-3.25621
11
5.07773
21
-3.25434
0
LINE
8
BLACK
6
CONTINUOUS
10
5.07773
20
-3.25434
11
5.07723
21
-3.25361
0
LINE
8
BLACK
6
CONTINUOUS
10
5.07723
20
-3.25361
11
5.07718
21
-3.25357
0
LINE
8
BLACK
6
CONTINUOUS
10
5.07718
20
-3.25357
11
5.0753
21
-3.24982
0
LINE
8
BLACK
6
CONTINUOUS
10
5.0753
20
-3.24982
11
5.07501
21
-3.24884
0
LINE
8
BLACK
6
CONTINUOUS
10
5.07501
20
-3.24884
11
5.07505
21
-3.24866
0
LINE
8
BLACK
6
CONTINUOUS
10
5.07505
20
-3.24866
11
5.07499
21
-3.2485
0
LINE
8
BLACK
6
CONTINUOUS
10
5.07499
20
-3.2485
11
5.07499
21
-3.2335
0
LINE
8
BLACK
6
CONTINUOUS
10
5.07499
20
-3.2335
11
5.07506
21
-3.23312
0
LINE
8
BLACK
6
CONTINUOUS
10
5.07506
20
-3.23312
11
5.07504
21
-3.23299
0
LINE
8
BLACK
6
CONTINUOUS
10
5.07504
20
-3.23299
11
5.0751
21
-3.23287
0
LINE
8
BLACK
6
CONTINUOUS
10
5.0751
20
-3.23287
11
5.07517
21
-3.23249
0
LINE
8
BLACK
6
CONTINUOUS
10
5.07517
20
-3.23249
11
5.07566
21
-3.2319
0
LINE
8
BLACK
6
CONTINUOUS
10
5.07566
20
-3.2319
11
5.07605
21
-3.23124
0
LINE
8
BLACK
6
CONTINUOUS
10
5.07605
20
-3.23124
11
5.0763
21
-3.23115
0
LINE
8
BLACK
6
CONTINUOUS
10
5.0763
20
-3.23115
11
5.07647
21
-3.23094
0
LINE
8
BLACK
6
CONTINUOUS
10
5.07647
20
-3.23094
11
5.07722
21
-3.23081
0
LINE
8
BLACK
6
CONTINUOUS
10
5.07722
20
-3.23081
11
5.07795
21
-3.23055
0
LINE
8
BLACK
6
CONTINUOUS
10
5.07795
20
-3.23055
11
5.11732
21
-3.23055
0
LINE
8
BLACK
6
CONTINUOUS
10
5.11732
20
-3.23055
11
5.11833
21
-3.23073
0
LINE
8
BLACK
6
CONTINUOUS
10
5.0809
20
-3.2478
11
5.08225
21
-3.2505
0
LINE
8
BLACK
6
CONTINUOUS
10
5.08225
20
-3.2505
11
5.08344
21
-3.2517
0
LINE
8
BLACK
6
CONTINUOUS
10
5.08344
20
-3.2517
11
5.08614
21
-3.25304
0
LINE
8
BLACK
6
CONTINUOUS
10
5.08614
20
-3.25304
11
5.09037
21
-3.25304
0
LINE
8
BLACK
6
CONTINUOUS
10
5.09037
20
-3.25304
11
5.09307
21
-3.2517
0
LINE
8
BLACK
6
CONTINUOUS
10
5.09307
20
-3.2517
11
5.09427
21
-3.2505
0
LINE
8
BLACK
6
CONTINUOUS
10
5.09427
20
-3.2505
11
5.09562
21
-3.2478
0
LINE
8
BLACK
6
CONTINUOUS
10
5.09562
20
-3.2478
11
5.09562
21
-3.23645
0
LINE
8
BLACK
6
CONTINUOUS
10
5.09562
20
-3.23645
11
5.0809
21
-3.23645
0
LINE
8
BLACK
6
CONTINUOUS
10
5.0809
20
-3.23645
11
5.0809
21
-3.2478
0
LINE
8
BLACK
6
CONTINUOUS
10
5.59819
20
-3.22876
11
5.59974
21
-3.23006
0
LINE
8
BLACK
6
CONTINUOUS
10
5.59974
20
-3.23006
11
5.60009
21
-3.23205
0
LINE
8
BLACK
6
CONTINUOUS
10
5.60009
20
-3.23205
11
5.59908
21
-3.2338
0
LINE
8
BLACK
6
CONTINUOUS
10
5.59908
20
-3.2338
11
5.59719
21
-3.23449
0
LINE
8
BLACK
6
CONTINUOUS
10
5.59719
20
-3.23449
11
5.55781
21
-3.23449
0
LINE
8
BLACK
6
CONTINUOUS
10
5.55781
20
-3.23449
11
5.55681
21
-3.23431
0
LINE
8
BLACK
6
CONTINUOUS
10
5.55681
20
-3.23431
11
5.55526
21
-3.23301
0
LINE
8
BLACK
6
CONTINUOUS
10
5.55526
20
-3.23301
11
5.55491
21
-3.23102
0
LINE
8
BLACK
6
CONTINUOUS
10
5.55491
20
-3.23102
11
5.55592
21
-3.22927
0
LINE
8
BLACK
6
CONTINUOUS
10
5.55592
20
-3.22927
11
5.55781
21
-3.22858
0
LINE
8
BLACK
6
CONTINUOUS
10
5.55781
20
-3.22858
11
5.59719
21
-3.22858
0
LINE
8
BLACK
6
CONTINUOUS
10
5.59719
20
-3.22858
11
5.59819
21
-3.22876
0
LINE
8
BLACK
6
CONTINUOUS
10
5.87097
20
-3.22573
11
5.87252
21
-3.22703
0
LINE
8
BLACK
6
CONTINUOUS
10
5.87252
20
-3.22703
11
5.87287
21
-3.22902
0
LINE
8
BLACK
6
CONTINUOUS
10
5.87287
20
-3.22902
11
5.87186
21
-3.23077
0
LINE
8
BLACK
6
CONTINUOUS
10
5.87186
20
-3.23077
11
5.86996
21
-3.23146
0
LINE
8
BLACK
6
CONTINUOUS
10
5.86996
20
-3.23146
11
5.70854
21
-3.23146
0
LINE
8
BLACK
6
CONTINUOUS
10
5.70854
20
-3.23146
11
5.70753
21
-3.23128
0
LINE
8
BLACK
6
CONTINUOUS
10
5.70753
20
-3.23128
11
5.70599
21
-3.22998
0
LINE
8
BLACK
6
CONTINUOUS
10
5.70599
20
-3.22998
11
5.70564
21
-3.22799
0
LINE
8
BLACK
6
CONTINUOUS
10
5.70564
20
-3.22799
11
5.70665
21
-3.22624
0
LINE
8
BLACK
6
CONTINUOUS
10
5.70665
20
-3.22624
11
5.70854
21
-3.22555
0
LINE
8
BLACK
6
CONTINUOUS
10
5.70854
20
-3.22555
11
5.86996
21
-3.22555
0
LINE
8
BLACK
6
CONTINUOUS
10
5.86996
20
-3.22555
11
5.87097
21
-3.22573
0
CIRCLE
8
BLACK
10
5.66441
20
-4.35756
40
0.00688976
0
CIRCLE
8
BLACK
10
5.56441
20
-4.35756
40
0.00688976
0
CIRCLE
8
BLACK
10
5.66441
20
-4.25756
40
0.00688976
0
CIRCLE
8
BLACK
10
5.56441
20
-4.25756
40
0.00688976
0
CIRCLE
8
BLACK
10
5.66441
20
-4.15756
40
0.00688976
0
CIRCLE
8
BLACK
10
5.56441
20
-4.15756
40
0.00688976
0
CIRCLE
8
BLACK
10
6.09441
20
-3.49756
40
0.00688976
0
CIRCLE
8
BLACK
10
6.19441
20
-3.49756
40
0.00688976
0
CIRCLE
8
BLACK
10
6.09441
20
-3.39756
40
0.00688976
0
CIRCLE
8
BLACK
10
6.19441
20
-3.39756
40
0.00688976
0
CIRCLE
8
BLACK
10
5.17691
20
-3.05756
40
0.00688976
0
CIRCLE
8
BLACK
10
5.17691
20
-3.15756
40
0.00688976
0
CIRCLE
8
BLACK
10
5.27691
20
-3.05756
40
0.00688976
0
CIRCLE
8
BLACK
10
5.27691
20
-3.15756
40
0.00688976
0
CIRCLE
8
BLACK
10
5.37691
20
-3.05756
40
0.00688976
0
CIRCLE
8
BLACK
10
5.37691
20
-3.15756
40
0.00688976
0
CIRCLE
8
BLACK
10
5.47691
20
-3.15756
40
0.00688976
0
CIRCLE
8
BLACK
10
5.47691
20
-3.05756
40
0.00688976
0
CIRCLE
8
BLACK
10
5.7775
20
-3.1575
40
0.00688976
0
CIRCLE
8
BLACK
10
5.7775
20
-3.0575
40
0.00688976
0
CIRCLE
8
BLACK
10
5.57691
20
-3.15756
40
0.00688976
0
CIRCLE
8
BLACK
10
5.57691
20
-3.05756
40
0.00688976
0
CIRCLE
8
BLACK
10
5.57441
20
-3.86756
40
0.00688976
0
CIRCLE
8
BLACK
10
5.47441
20
-3.86756
40
0.00688976
0
CIRCLE
8
BLACK
10
5.37441
20
-3.86756
40
0.00688976
0
CIRCLE
8
BLACK
10
4.89441
20
-3.40756
40
0.00688976
0
CIRCLE
8
BLACK
10
4.99441
20
-3.40756
40
0.00688976
0
CIRCLE
8
BLACK
10
4.89441
20
-3.50756
40
0.00688976
0
CIRCLE
8
BLACK
10
4.99441
20
-3.50756
40
0.00688976
0
CIRCLE
8
BLACK
10
6.09441
20
-3.79756
40
0.00688976
0
CIRCLE
8
BLACK
10
6.19441
20
-3.79756
40
0.00688976
0
CIRCLE
8
BLACK
10
6.09441
20
-3.69756
40
0.00688976
0
CIRCLE
8
BLACK
10
6.19441
20
-3.69756
40
0.00688976
0
CIRCLE
8
BLACK
10
4.89441
20
-3.80756
40
0.00688976
0
CIRCLE
8
BLACK
10
4.99441
20
-3.80756
40
0.00688976
0
CIRCLE
8
BLACK
10
6.09441
20
-3.99756
40
0.00688976
0
CIRCLE
8
BLACK
10
6.19441
20
-3.99756
40
0.00688976
0
CIRCLE
8
BLACK
10
6.09441
20
-3.89756
40
0.00688976
0
CIRCLE
8
BLACK
10
6.19441
20
-3.89756
40
0.00688976
0
CIRCLE
8
BLACK
10
6.09441
20
-3.59756
40
0.00688976
0
CIRCLE
8
BLACK
10
6.19441
20
-3.59756
40
0.00688976
0
CIRCLE
8
BLACK
10
5.36441
20
-4.15756
40
0.00688976
0
CIRCLE
8
BLACK
10
5.46441
20
-4.15756
40
0.00688976
0
CIRCLE
8
BLACK
10
5.36441
20
-4.25756
40
0.00688976
0
CIRCLE
8
BLACK
10
5.46441
20
-4.25756
40
0.00688976
0
CIRCLE
8
BLACK
10
5.36441
20
-4.35756
40
0.00688976
0
CIRCLE
8
BLACK
10
5.46441
20
-4.35756
40
0.00688976
0
CIRCLE
8
BLACK
10
4.89441
20
-3.70756
40
0.00688976
0
CIRCLE
8
BLACK
10
4.99441
20
-3.70756
40
0.00688976
0
CIRCLE
8
BLACK
10
4.89441
20
-3.60756
40
0.00688976
0
CIRCLE
8
BLACK
10
4.99441
20
-3.60756
40
0.00688976
0
CIRCLE
8
BLACK
10
6.12441
20
-3.12756
40
0.00688976
0
CIRCLE
8
BLACK
10
6.12441
20
-4.32756
40
0.00688976
0
CIRCLE
8
BLACK
10
4.92441
20
-3.12756
40
0.00688976
0
CIRCLE
8
BLACK
10
4.92441
20
-4.32756
40
0.00688976
0
CIRCLE
8
BLACK
10
5.16941
20
-3.65146
40
0.00688976
0
CIRCLE
8
BLACK
10
5.16941
20
-3.84366
40
0.00688976
0
CIRCLE
8
BLACK
10
5.6775
20
-3.0575
40
0.00688976
0
CIRCLE
8
BLACK
10
5.6775
20
-3.1575
40
0.00688976
0
CIRCLE
8
BLACK
10
5.8775
20
-3.0575
40
0.00688976
0
CIRCLE
8
BLACK
10
5.8775
20
-3.1575
40
0.00688976
  0
ENDSEC
  0
EOF
