  0
SECTION
  2
HEADER
  9
$ANGBASE
  50
0.0
  9
$ANGDIR
  70
1
  9
$MEASUREMENT
  70
0
  0
ENDSEC
  0
SECTION
  2
TABLES
  0
TABLE
  2
LTYPE
  70
4
  0
LTYPE
  5
40F
  2
CONTINUOUS
  70
0
  3
Solid line
  72
65
  73
0
  40
0.0
  0
LTYPE
  5
410
  2
DASHDOT
 70
0
  3
Dash Dot ____ _ ____ _
 72
65
 73
4
 40
2.0
 49
1.25
 49
-0.25
 49
0.25
 49
-0.25
  0
LTYPE
  5
411
  2
DASHED
 70
0
  3
Dashed __ __ __ __ __
 72
65
 73
2
 40
0.75
 49
0.5
 49
-0.25
  0
LTYPE
  5
43B
  2
DOTTED
 70
0
  3
Dotted .  .  .  .
 72
65
 73
2
 40
0.2
 49
0.0
 49
-0.2
  0
ENDTAB
  0
TABLE
  2
STYLE
  70
4
  0
STYLE
  2
KICAD
  70
0
  40
0
  41
1
  42
1
  50
0
  71
0
  3
isocp.shx
  0
STYLE
  2
KICADB
  70
0
  40
0
  41
1
  42
1
  50
0
  71
0
  3
isocp.shx
  0
STYLE
  2
KICADI
  70
0
  40
0
  41
1
  42
1
  50
15
  71
0
  3
isocp.shx
  0
STYLE
  2
KICADBI
  70
0
  40
0
  41
1
  42
1
  50
15
  71
0
  3
isocp.shx
  0
ENDTAB
  0
TABLE
  2
LAYER
  70
1
  0
LAYER
  2
BLACK
  70
0
  62
7
  6
CONTINUOUS
  0
ENDTAB
  0
ENDSEC
  0
SECTION
  2
ENTITIES
0
LINE
8
BLACK
6
CONTINUOUS
10
5.58837
20
-4.41465
11
5.58906
21
-4.41493
0
LINE
8
BLACK
6
CONTINUOUS
10
5.58906
20
-4.41493
11
5.58935
21
-4.41563
0
LINE
8
BLACK
6
CONTINUOUS
10
5.58935
20
-4.41563
11
5.58935
21
-4.49437
0
LINE
8
BLACK
6
CONTINUOUS
10
5.58935
20
-4.49437
11
5.58906
21
-4.49507
0
LINE
8
BLACK
6
CONTINUOUS
10
5.58906
20
-4.49507
11
5.58837
21
-4.49535
0
LINE
8
BLACK
6
CONTINUOUS
10
5.58837
20
-4.49535
11
5.44663
21
-4.49535
0
LINE
8
BLACK
6
CONTINUOUS
10
5.44663
20
-4.49535
11
5.44594
21
-4.49507
0
LINE
8
BLACK
6
CONTINUOUS
10
5.44594
20
-4.49507
11
5.44565
21
-4.49437
0
LINE
8
BLACK
6
CONTINUOUS
10
5.44565
20
-4.49437
11
5.44565
21
-4.41563
0
LINE
8
BLACK
6
CONTINUOUS
10
5.44565
20
-4.41563
11
5.44594
21
-4.41493
0
LINE
8
BLACK
6
CONTINUOUS
10
5.44594
20
-4.41493
11
5.44663
21
-4.41465
0
LINE
8
BLACK
6
CONTINUOUS
10
5.44663
20
-4.41465
11
5.58837
21
-4.41465
0
LINE
8
BLACK
6
CONTINUOUS
10
5.44762
20
-4.41661
11
5.44762
21
-4.49339
0
LINE
8
BLACK
6
CONTINUOUS
10
5.44762
20
-4.49339
11
5.58738
21
-4.49339
0
LINE
8
BLACK
6
CONTINUOUS
10
5.58738
20
-4.49339
11
5.58738
21
-4.41661
0
LINE
8
BLACK
6
CONTINUOUS
10
5.58738
20
-4.41661
11
5.44762
21
-4.41661
0
LINE
8
BLACK
6
CONTINUOUS
10
5.30315
20
-4.12878
11
5.30385
21
-4.12907
0
LINE
8
BLACK
6
CONTINUOUS
10
5.30385
20
-4.12907
11
5.30413
21
-4.12976
0
LINE
8
BLACK
6
CONTINUOUS
10
5.30413
20
-4.12976
11
5.30413
21
-4.40535
0
LINE
8
BLACK
6
CONTINUOUS
10
5.30413
20
-4.40535
11
5.30385
21
-4.40605
0
LINE
8
BLACK
6
CONTINUOUS
10
5.30385
20
-4.40605
11
5.30315
21
-4.40634
0
LINE
8
BLACK
6
CONTINUOUS
10
5.30315
20
-4.40634
11
5.14567
21
-4.40634
0
LINE
8
BLACK
6
CONTINUOUS
10
5.14567
20
-4.40634
11
5.14497
21
-4.40605
0
LINE
8
BLACK
6
CONTINUOUS
10
5.14497
20
-4.40605
11
5.14469
21
-4.40535
0
LINE
8
BLACK
6
CONTINUOUS
10
5.14469
20
-4.40535
11
5.14469
21
-4.12976
0
LINE
8
BLACK
6
CONTINUOUS
10
5.14469
20
-4.12976
11
5.14497
21
-4.12907
0
LINE
8
BLACK
6
CONTINUOUS
10
5.14497
20
-4.12907
11
5.14567
21
-4.12878
0
LINE
8
BLACK
6
CONTINUOUS
10
5.14567
20
-4.12878
11
5.30315
21
-4.12878
0
LINE
8
BLACK
6
CONTINUOUS
10
5.14665
20
-4.13075
11
5.14665
21
-4.40437
0
LINE
8
BLACK
6
CONTINUOUS
10
5.14665
20
-4.40437
11
5.30217
21
-4.40437
0
LINE
8
BLACK
6
CONTINUOUS
10
5.30217
20
-4.40437
11
5.30217
21
-4.13075
0
LINE
8
BLACK
6
CONTINUOUS
10
5.30217
20
-4.13075
11
5.14665
21
-4.13075
0
LINE
8
BLACK
6
CONTINUOUS
10
5.88315
20
-4.12878
11
5.88385
21
-4.12907
0
LINE
8
BLACK
6
CONTINUOUS
10
5.88385
20
-4.12907
11
5.88413
21
-4.12976
0
LINE
8
BLACK
6
CONTINUOUS
10
5.88413
20
-4.12976
11
5.88413
21
-4.40535
0
LINE
8
BLACK
6
CONTINUOUS
10
5.88413
20
-4.40535
11
5.88385
21
-4.40605
0
LINE
8
BLACK
6
CONTINUOUS
10
5.88385
20
-4.40605
11
5.88315
21
-4.40634
0
LINE
8
BLACK
6
CONTINUOUS
10
5.88315
20
-4.40634
11
5.72567
21
-4.40634
0
LINE
8
BLACK
6
CONTINUOUS
10
5.72567
20
-4.40634
11
5.72497
21
-4.40605
0
LINE
8
BLACK
6
CONTINUOUS
10
5.72497
20
-4.40605
11
5.72469
21
-4.40535
0
LINE
8
BLACK
6
CONTINUOUS
10
5.72469
20
-4.40535
11
5.72469
21
-4.12976
0
LINE
8
BLACK
6
CONTINUOUS
10
5.72469
20
-4.12976
11
5.72497
21
-4.12907
0
LINE
8
BLACK
6
CONTINUOUS
10
5.72497
20
-4.12907
11
5.72567
21
-4.12878
0
LINE
8
BLACK
6
CONTINUOUS
10
5.72567
20
-4.12878
11
5.88315
21
-4.12878
0
LINE
8
BLACK
6
CONTINUOUS
10
5.72665
20
-4.13075
11
5.72665
21
-4.40437
0
LINE
8
BLACK
6
CONTINUOUS
10
5.72665
20
-4.40437
11
5.88217
21
-4.40437
0
LINE
8
BLACK
6
CONTINUOUS
10
5.88217
20
-4.40437
11
5.88217
21
-4.13075
0
LINE
8
BLACK
6
CONTINUOUS
10
5.88217
20
-4.13075
11
5.72665
21
-4.13075
0
LINE
8
BLACK
6
CONTINUOUS
10
5.27378
20
-3.97571
11
5.27448
21
-3.976
0
LINE
8
BLACK
6
CONTINUOUS
10
5.27448
20
-3.976
11
5.27476
21
-3.97669
0
LINE
8
BLACK
6
CONTINUOUS
10
5.27476
20
-3.97669
11
5.27476
21
-4.11843
0
LINE
8
BLACK
6
CONTINUOUS
10
5.27476
20
-4.11843
11
5.27448
21
-4.11912
0
LINE
8
BLACK
6
CONTINUOUS
10
5.27448
20
-4.11912
11
5.27378
21
-4.11941
0
LINE
8
BLACK
6
CONTINUOUS
10
5.27378
20
-4.11941
11
5.19504
21
-4.11941
0
LINE
8
BLACK
6
CONTINUOUS
10
5.19504
20
-4.11941
11
5.19434
21
-4.11912
0
LINE
8
BLACK
6
CONTINUOUS
10
5.19434
20
-4.11912
11
5.19406
21
-4.11843
0
LINE
8
BLACK
6
CONTINUOUS
10
5.19406
20
-4.11843
11
5.19406
21
-3.97669
0
LINE
8
BLACK
6
CONTINUOUS
10
5.19406
20
-3.97669
11
5.19434
21
-3.976
0
LINE
8
BLACK
6
CONTINUOUS
10
5.19434
20
-3.976
11
5.19504
21
-3.97571
0
LINE
8
BLACK
6
CONTINUOUS
10
5.19504
20
-3.97571
11
5.27378
21
-3.97571
0
LINE
8
BLACK
6
CONTINUOUS
10
5.19602
20
-3.97768
11
5.19602
21
-4.11744
0
LINE
8
BLACK
6
CONTINUOUS
10
5.19602
20
-4.11744
11
5.2728
21
-4.11744
0
LINE
8
BLACK
6
CONTINUOUS
10
5.2728
20
-4.11744
11
5.2728
21
-3.97768
0
LINE
8
BLACK
6
CONTINUOUS
10
5.2728
20
-3.97768
11
5.19602
21
-3.97768
0
LINE
8
BLACK
6
CONTINUOUS
10
5.76071
20
-3.93571
11
5.7614
21
-3.936
0
LINE
8
BLACK
6
CONTINUOUS
10
5.7614
20
-3.936
11
5.76169
21
-3.93669
0
LINE
8
BLACK
6
CONTINUOUS
10
5.76169
20
-3.93669
11
5.76169
21
-4.07843
0
LINE
8
BLACK
6
CONTINUOUS
10
5.76169
20
-4.07843
11
5.7614
21
-4.07912
0
LINE
8
BLACK
6
CONTINUOUS
10
5.7614
20
-4.07912
11
5.76071
21
-4.07941
0
LINE
8
BLACK
6
CONTINUOUS
10
5.76071
20
-4.07941
11
5.54811
21
-4.07941
0
LINE
8
BLACK
6
CONTINUOUS
10
5.54811
20
-4.07941
11
5.54741
21
-4.07912
0
LINE
8
BLACK
6
CONTINUOUS
10
5.54741
20
-4.07912
11
5.54713
21
-4.07843
0
LINE
8
BLACK
6
CONTINUOUS
10
5.54713
20
-4.07843
11
5.54713
21
-3.93669
0
LINE
8
BLACK
6
CONTINUOUS
10
5.54713
20
-3.93669
11
5.54741
21
-3.936
0
LINE
8
BLACK
6
CONTINUOUS
10
5.54741
20
-3.936
11
5.54811
21
-3.93571
0
LINE
8
BLACK
6
CONTINUOUS
10
5.54811
20
-3.93571
11
5.76071
21
-3.93571
0
LINE
8
BLACK
6
CONTINUOUS
10
5.54909
20
-3.93768
11
5.54909
21
-4.07744
0
LINE
8
BLACK
6
CONTINUOUS
10
5.54909
20
-4.07744
11
5.75972
21
-4.07744
0
LINE
8
BLACK
6
CONTINUOUS
10
5.75972
20
-4.07744
11
5.75972
21
-3.93768
0
LINE
8
BLACK
6
CONTINUOUS
10
5.75972
20
-3.93768
11
5.54909
21
-3.93768
0
LINE
8
BLACK
6
CONTINUOUS
10
5.19071
20
-3.90571
11
5.1914
21
-3.906
0
LINE
8
BLACK
6
CONTINUOUS
10
5.1914
20
-3.906
11
5.19169
21
-3.90669
0
LINE
8
BLACK
6
CONTINUOUS
10
5.19169
20
-3.90669
11
5.19169
21
-4.04843
0
LINE
8
BLACK
6
CONTINUOUS
10
5.19169
20
-4.04843
11
5.1914
21
-4.04912
0
LINE
8
BLACK
6
CONTINUOUS
10
5.1914
20
-4.04912
11
5.19071
21
-4.04941
0
LINE
8
BLACK
6
CONTINUOUS
10
5.19071
20
-4.04941
11
4.97811
21
-4.04941
0
LINE
8
BLACK
6
CONTINUOUS
10
4.97811
20
-4.04941
11
4.97741
21
-4.04912
0
LINE
8
BLACK
6
CONTINUOUS
10
4.97741
20
-4.04912
11
4.97713
21
-4.04843
0
LINE
8
BLACK
6
CONTINUOUS
10
4.97713
20
-4.04843
11
4.97713
21
-3.90669
0
LINE
8
BLACK
6
CONTINUOUS
10
4.97713
20
-3.90669
11
4.97741
21
-3.906
0
LINE
8
BLACK
6
CONTINUOUS
10
4.97741
20
-3.906
11
4.97811
21
-3.90571
0
LINE
8
BLACK
6
CONTINUOUS
10
4.97811
20
-3.90571
11
5.19071
21
-3.90571
0
LINE
8
BLACK
6
CONTINUOUS
10
4.97909
20
-3.90768
11
4.97909
21
-4.04744
0
LINE
8
BLACK
6
CONTINUOUS
10
4.97909
20
-4.04744
11
5.18972
21
-4.04744
0
LINE
8
BLACK
6
CONTINUOUS
10
5.18972
20
-4.04744
11
5.18972
21
-3.90768
0
LINE
8
BLACK
6
CONTINUOUS
10
5.18972
20
-3.90768
11
4.97909
21
-3.90768
0
LINE
8
BLACK
6
CONTINUOUS
10
5.71378
20
-3.72571
11
5.71448
21
-3.726
0
LINE
8
BLACK
6
CONTINUOUS
10
5.71448
20
-3.726
11
5.71476
21
-3.72669
0
LINE
8
BLACK
6
CONTINUOUS
10
5.71476
20
-3.72669
11
5.71476
21
-3.86843
0
LINE
8
BLACK
6
CONTINUOUS
10
5.71476
20
-3.86843
11
5.71448
21
-3.86912
0
LINE
8
BLACK
6
CONTINUOUS
10
5.71448
20
-3.86912
11
5.71378
21
-3.86941
0
LINE
8
BLACK
6
CONTINUOUS
10
5.71378
20
-3.86941
11
5.63504
21
-3.86941
0
LINE
8
BLACK
6
CONTINUOUS
10
5.63504
20
-3.86941
11
5.63434
21
-3.86912
0
LINE
8
BLACK
6
CONTINUOUS
10
5.63434
20
-3.86912
11
5.63406
21
-3.86843
0
LINE
8
BLACK
6
CONTINUOUS
10
5.63406
20
-3.86843
11
5.63406
21
-3.72669
0
LINE
8
BLACK
6
CONTINUOUS
10
5.63406
20
-3.72669
11
5.63434
21
-3.726
0
LINE
8
BLACK
6
CONTINUOUS
10
5.63434
20
-3.726
11
5.63504
21
-3.72571
0
LINE
8
BLACK
6
CONTINUOUS
10
5.63504
20
-3.72571
11
5.71378
21
-3.72571
0
LINE
8
BLACK
6
CONTINUOUS
10
5.63602
20
-3.72768
11
5.63602
21
-3.86744
0
LINE
8
BLACK
6
CONTINUOUS
10
5.63602
20
-3.86744
11
5.7128
21
-3.86744
0
LINE
8
BLACK
6
CONTINUOUS
10
5.7128
20
-3.86744
11
5.7128
21
-3.72768
0
LINE
8
BLACK
6
CONTINUOUS
10
5.7128
20
-3.72768
11
5.63602
21
-3.72768
0
LINE
8
BLACK
6
CONTINUOUS
10
5.60571
20
-3.42841
11
5.6064
21
-3.4287
0
LINE
8
BLACK
6
CONTINUOUS
10
5.6064
20
-3.4287
11
5.60669
21
-3.42939
0
LINE
8
BLACK
6
CONTINUOUS
10
5.60669
20
-3.42939
11
5.60669
21
-3.7601
0
LINE
8
BLACK
6
CONTINUOUS
10
5.60669
20
-3.7601
11
5.6064
21
-3.7608
0
LINE
8
BLACK
6
CONTINUOUS
10
5.6064
20
-3.7608
11
5.60571
21
-3.76108
0
LINE
8
BLACK
6
CONTINUOUS
10
5.60571
20
-3.76108
11
5.31831
21
-3.76108
0
LINE
8
BLACK
6
CONTINUOUS
10
5.31831
20
-3.76108
11
5.31761
21
-3.7608
0
LINE
8
BLACK
6
CONTINUOUS
10
5.31761
20
-3.7608
11
5.31732
21
-3.7601
0
LINE
8
BLACK
6
CONTINUOUS
10
5.31732
20
-3.7601
11
5.31732
21
-3.42939
0
LINE
8
BLACK
6
CONTINUOUS
10
5.31732
20
-3.42939
11
5.31761
21
-3.4287
0
LINE
8
BLACK
6
CONTINUOUS
10
5.31761
20
-3.4287
11
5.31831
21
-3.42841
0
LINE
8
BLACK
6
CONTINUOUS
10
5.31831
20
-3.42841
11
5.60571
21
-3.42841
0
LINE
8
BLACK
6
CONTINUOUS
10
5.31929
20
-3.43038
11
5.31929
21
-3.75912
0
LINE
8
BLACK
6
CONTINUOUS
10
5.31929
20
-3.75912
11
5.60472
21
-3.75912
0
LINE
8
BLACK
6
CONTINUOUS
10
5.60472
20
-3.75912
11
5.60472
21
-3.43038
0
LINE
8
BLACK
6
CONTINUOUS
10
5.60472
20
-3.43038
11
5.31929
21
-3.43038
0
LINE
8
BLACK
6
CONTINUOUS
10
6.03378
20
-3.62358
11
6.03448
21
-3.62387
0
LINE
8
BLACK
6
CONTINUOUS
10
6.03448
20
-3.62387
11
6.03476
21
-3.62457
0
LINE
8
BLACK
6
CONTINUOUS
10
6.03476
20
-3.62457
11
6.03476
21
-3.75055
0
LINE
8
BLACK
6
CONTINUOUS
10
6.03476
20
-3.75055
11
6.03448
21
-3.75125
0
LINE
8
BLACK
6
CONTINUOUS
10
6.03448
20
-3.75125
11
6.03378
21
-3.75154
0
LINE
8
BLACK
6
CONTINUOUS
10
6.03378
20
-3.75154
11
5.95504
21
-3.75154
0
LINE
8
BLACK
6
CONTINUOUS
10
5.95504
20
-3.75154
11
5.95434
21
-3.75125
0
LINE
8
BLACK
6
CONTINUOUS
10
5.95434
20
-3.75125
11
5.95406
21
-3.75055
0
LINE
8
BLACK
6
CONTINUOUS
10
5.95406
20
-3.75055
11
5.95406
21
-3.62457
0
LINE
8
BLACK
6
CONTINUOUS
10
5.95406
20
-3.62457
11
5.95434
21
-3.62387
0
LINE
8
BLACK
6
CONTINUOUS
10
5.95434
20
-3.62387
11
5.95504
21
-3.62358
0
LINE
8
BLACK
6
CONTINUOUS
10
5.95504
20
-3.62358
11
6.03378
21
-3.62358
0
LINE
8
BLACK
6
CONTINUOUS
10
5.95602
20
-3.62555
11
5.95602
21
-3.74957
0
LINE
8
BLACK
6
CONTINUOUS
10
5.95602
20
-3.74957
11
6.0328
21
-3.74957
0
LINE
8
BLACK
6
CONTINUOUS
10
6.0328
20
-3.74957
11
6.0328
21
-3.62555
0
LINE
8
BLACK
6
CONTINUOUS
10
6.0328
20
-3.62555
11
5.95602
21
-3.62555
0
LINE
8
BLACK
6
CONTINUOUS
10
4.83378
20
-3.49358
11
4.83448
21
-3.49387
0
LINE
8
BLACK
6
CONTINUOUS
10
4.83448
20
-3.49387
11
4.83476
21
-3.49457
0
LINE
8
BLACK
6
CONTINUOUS
10
4.83476
20
-3.49457
11
4.83476
21
-3.62055
0
LINE
8
BLACK
6
CONTINUOUS
10
4.83476
20
-3.62055
11
4.83448
21
-3.62125
0
LINE
8
BLACK
6
CONTINUOUS
10
4.83448
20
-3.62125
11
4.83378
21
-3.62154
0
LINE
8
BLACK
6
CONTINUOUS
10
4.83378
20
-3.62154
11
4.75504
21
-3.62154
0
LINE
8
BLACK
6
CONTINUOUS
10
4.75504
20
-3.62154
11
4.75434
21
-3.62125
0
LINE
8
BLACK
6
CONTINUOUS
10
4.75434
20
-3.62125
11
4.75406
21
-3.62055
0
LINE
8
BLACK
6
CONTINUOUS
10
4.75406
20
-3.62055
11
4.75406
21
-3.49457
0
LINE
8
BLACK
6
CONTINUOUS
10
4.75406
20
-3.49457
11
4.75434
21
-3.49387
0
LINE
8
BLACK
6
CONTINUOUS
10
4.75434
20
-3.49387
11
4.75504
21
-3.49358
0
LINE
8
BLACK
6
CONTINUOUS
10
4.75504
20
-3.49358
11
4.83378
21
-3.49358
0
LINE
8
BLACK
6
CONTINUOUS
10
4.75602
20
-3.49555
11
4.75602
21
-3.61957
0
LINE
8
BLACK
6
CONTINUOUS
10
4.75602
20
-3.61957
11
4.8328
21
-3.61957
0
LINE
8
BLACK
6
CONTINUOUS
10
4.8328
20
-3.61957
11
4.8328
21
-3.49555
0
LINE
8
BLACK
6
CONTINUOUS
10
4.8328
20
-3.49555
11
4.75602
21
-3.49555
0
LINE
8
BLACK
6
CONTINUOUS
10
6.00705
20
-3.36831
11
6.00774
21
-3.3686
0
LINE
8
BLACK
6
CONTINUOUS
10
6.00774
20
-3.3686
11
6.00803
21
-3.36929
0
LINE
8
BLACK
6
CONTINUOUS
10
6.00803
20
-3.36929
11
6.00803
21
-3.58583
0
LINE
8
BLACK
6
CONTINUOUS
10
6.00803
20
-3.58583
11
6.00774
21
-3.58652
0
LINE
8
BLACK
6
CONTINUOUS
10
6.00774
20
-3.58652
11
6.00705
21
-3.58681
0
LINE
8
BLACK
6
CONTINUOUS
10
6.00705
20
-3.58681
11
5.71177
21
-3.58681
0
LINE
8
BLACK
6
CONTINUOUS
10
5.71177
20
-3.58681
11
5.71108
21
-3.58652
0
LINE
8
BLACK
6
CONTINUOUS
10
5.71108
20
-3.58652
11
5.71079
21
-3.58583
0
LINE
8
BLACK
6
CONTINUOUS
10
5.71079
20
-3.58583
11
5.71079
21
-3.36929
0
LINE
8
BLACK
6
CONTINUOUS
10
5.71079
20
-3.36929
11
5.71108
21
-3.3686
0
LINE
8
BLACK
6
CONTINUOUS
10
5.71108
20
-3.3686
11
5.71177
21
-3.36831
0
LINE
8
BLACK
6
CONTINUOUS
10
5.71177
20
-3.36831
11
6.00705
21
-3.36831
0
LINE
8
BLACK
6
CONTINUOUS
10
5.71276
20
-3.37028
11
5.71276
21
-3.58484
0
LINE
8
BLACK
6
CONTINUOUS
10
5.71276
20
-3.58484
11
6.00606
21
-3.58484
0
LINE
8
BLACK
6
CONTINUOUS
10
6.00606
20
-3.58484
11
6.00606
21
-3.37028
0
LINE
8
BLACK
6
CONTINUOUS
10
6.00606
20
-3.37028
11
5.71276
21
-3.37028
0
LINE
8
BLACK
6
CONTINUOUS
10
5.13378
20
-3.30618
11
5.13448
21
-3.30647
0
LINE
8
BLACK
6
CONTINUOUS
10
5.13448
20
-3.30647
11
5.13476
21
-3.30717
0
LINE
8
BLACK
6
CONTINUOUS
10
5.13476
20
-3.30717
11
5.13476
21
-3.4172
0
LINE
8
BLACK
6
CONTINUOUS
10
5.13476
20
-3.4172
11
5.27528
21
-3.4172
0
LINE
8
BLACK
6
CONTINUOUS
10
5.27528
20
-3.4172
11
5.27597
21
-3.41749
0
LINE
8
BLACK
6
CONTINUOUS
10
5.27597
20
-3.41749
11
5.27626
21
-3.41819
0
LINE
8
BLACK
6
CONTINUOUS
10
5.27626
20
-3.41819
11
5.27626
21
-3.49693
0
LINE
8
BLACK
6
CONTINUOUS
10
5.27626
20
-3.49693
11
5.27597
21
-3.49763
0
LINE
8
BLACK
6
CONTINUOUS
10
5.27597
20
-3.49763
11
5.27528
21
-3.49791
0
LINE
8
BLACK
6
CONTINUOUS
10
5.27528
20
-3.49791
11
5.13354
21
-3.49791
0
LINE
8
BLACK
6
CONTINUOUS
10
5.13354
20
-3.49791
11
5.13285
21
-3.49763
0
LINE
8
BLACK
6
CONTINUOUS
10
5.13285
20
-3.49763
11
5.13256
21
-3.49693
0
LINE
8
BLACK
6
CONTINUOUS
10
5.13256
20
-3.49693
11
5.13256
21
-3.43413
0
LINE
8
BLACK
6
CONTINUOUS
10
5.13256
20
-3.43413
11
5.05504
21
-3.43413
0
LINE
8
BLACK
6
CONTINUOUS
10
5.05504
20
-3.43413
11
5.05434
21
-3.43385
0
LINE
8
BLACK
6
CONTINUOUS
10
5.05434
20
-3.43385
11
5.05406
21
-3.43315
0
LINE
8
BLACK
6
CONTINUOUS
10
5.05406
20
-3.43315
11
5.05406
21
-3.30717
0
LINE
8
BLACK
6
CONTINUOUS
10
5.05406
20
-3.30717
11
5.05434
21
-3.30647
0
LINE
8
BLACK
6
CONTINUOUS
10
5.05434
20
-3.30647
11
5.05504
21
-3.30618
0
LINE
8
BLACK
6
CONTINUOUS
10
5.05504
20
-3.30618
11
5.13378
21
-3.30618
0
LINE
8
BLACK
6
CONTINUOUS
10
5.13476
20
-3.41917
11
5.13476
21
-3.43315
0
LINE
8
BLACK
6
CONTINUOUS
10
5.13476
20
-3.43315
11
5.13453
21
-3.43372
0
LINE
8
BLACK
6
CONTINUOUS
10
5.13453
20
-3.43372
11
5.13453
21
-3.49594
0
LINE
8
BLACK
6
CONTINUOUS
10
5.13453
20
-3.49594
11
5.27429
21
-3.49594
0
LINE
8
BLACK
6
CONTINUOUS
10
5.27429
20
-3.49594
11
5.27429
21
-3.41917
0
LINE
8
BLACK
6
CONTINUOUS
10
5.27429
20
-3.41917
11
5.13476
21
-3.41917
0
LINE
8
BLACK
6
CONTINUOUS
10
5.05602
20
-3.30815
11
5.05602
21
-3.43217
0
LINE
8
BLACK
6
CONTINUOUS
10
5.05602
20
-3.43217
11
5.13256
21
-3.43217
0
LINE
8
BLACK
6
CONTINUOUS
10
5.13256
20
-3.43217
11
5.13256
21
-3.41819
0
LINE
8
BLACK
6
CONTINUOUS
10
5.13256
20
-3.41819
11
5.1328
21
-3.41762
0
LINE
8
BLACK
6
CONTINUOUS
10
5.1328
20
-3.41762
11
5.1328
21
-3.30815
0
LINE
8
BLACK
6
CONTINUOUS
10
5.1328
20
-3.30815
11
5.05602
21
-3.30815
0
LINE
8
BLACK
6
CONTINUOUS
10
5.88571
20
-3.21571
11
5.8864
21
-3.216
0
LINE
8
BLACK
6
CONTINUOUS
10
5.8864
20
-3.216
11
5.88669
21
-3.21669
0
LINE
8
BLACK
6
CONTINUOUS
10
5.88669
20
-3.21669
11
5.88669
21
-3.35843
0
LINE
8
BLACK
6
CONTINUOUS
10
5.88669
20
-3.35843
11
5.8864
21
-3.35912
0
LINE
8
BLACK
6
CONTINUOUS
10
5.8864
20
-3.35912
11
5.88571
21
-3.35941
0
LINE
8
BLACK
6
CONTINUOUS
10
5.88571
20
-3.35941
11
5.67311
21
-3.35941
0
LINE
8
BLACK
6
CONTINUOUS
10
5.67311
20
-3.35941
11
5.67241
21
-3.35912
0
LINE
8
BLACK
6
CONTINUOUS
10
5.67241
20
-3.35912
11
5.67213
21
-3.35843
0
LINE
8
BLACK
6
CONTINUOUS
10
5.67213
20
-3.35843
11
5.67213
21
-3.21669
0
LINE
8
BLACK
6
CONTINUOUS
10
5.67213
20
-3.21669
11
5.67241
21
-3.216
0
LINE
8
BLACK
6
CONTINUOUS
10
5.67241
20
-3.216
11
5.67311
21
-3.21571
0
LINE
8
BLACK
6
CONTINUOUS
10
5.67311
20
-3.21571
11
5.88571
21
-3.21571
0
LINE
8
BLACK
6
CONTINUOUS
10
5.67409
20
-3.21768
11
5.67409
21
-3.35744
0
LINE
8
BLACK
6
CONTINUOUS
10
5.67409
20
-3.35744
11
5.88472
21
-3.35744
0
LINE
8
BLACK
6
CONTINUOUS
10
5.88472
20
-3.35744
11
5.88472
21
-3.21768
0
LINE
8
BLACK
6
CONTINUOUS
10
5.88472
20
-3.21768
11
5.67409
21
-3.21768
0
LINE
8
BLACK
6
CONTINUOUS
10
5.97378
20
-3.21571
11
5.97448
21
-3.216
0
LINE
8
BLACK
6
CONTINUOUS
10
5.97448
20
-3.216
11
5.97476
21
-3.21669
0
LINE
8
BLACK
6
CONTINUOUS
10
5.97476
20
-3.21669
11
5.97476
21
-3.35843
0
LINE
8
BLACK
6
CONTINUOUS
10
5.97476
20
-3.35843
11
5.97448
21
-3.35912
0
LINE
8
BLACK
6
CONTINUOUS
10
5.97448
20
-3.35912
11
5.97378
21
-3.35941
0
LINE
8
BLACK
6
CONTINUOUS
10
5.97378
20
-3.35941
11
5.89504
21
-3.35941
0
LINE
8
BLACK
6
CONTINUOUS
10
5.89504
20
-3.35941
11
5.89434
21
-3.35912
0
LINE
8
BLACK
6
CONTINUOUS
10
5.89434
20
-3.35912
11
5.89406
21
-3.35843
0
LINE
8
BLACK
6
CONTINUOUS
10
5.89406
20
-3.35843
11
5.89406
21
-3.21669
0
LINE
8
BLACK
6
CONTINUOUS
10
5.89406
20
-3.21669
11
5.89434
21
-3.216
0
LINE
8
BLACK
6
CONTINUOUS
10
5.89434
20
-3.216
11
5.89504
21
-3.21571
0
LINE
8
BLACK
6
CONTINUOUS
10
5.89504
20
-3.21571
11
5.97378
21
-3.21571
0
LINE
8
BLACK
6
CONTINUOUS
10
5.89602
20
-3.21768
11
5.89602
21
-3.35744
0
LINE
8
BLACK
6
CONTINUOUS
10
5.89602
20
-3.35744
11
5.9728
21
-3.35744
0
LINE
8
BLACK
6
CONTINUOUS
10
5.9728
20
-3.35744
11
5.9728
21
-3.21768
0
LINE
8
BLACK
6
CONTINUOUS
10
5.9728
20
-3.21768
11
5.89602
21
-3.21768
0
LINE
8
BLACK
6
CONTINUOUS
10
5.64837
20
-3.22465
11
5.64906
21
-3.22493
0
LINE
8
BLACK
6
CONTINUOUS
10
5.64906
20
-3.22493
11
5.64935
21
-3.22563
0
LINE
8
BLACK
6
CONTINUOUS
10
5.64935
20
-3.22563
11
5.64935
21
-3.30437
0
LINE
8
BLACK
6
CONTINUOUS
10
5.64935
20
-3.30437
11
5.64906
21
-3.30507
0
LINE
8
BLACK
6
CONTINUOUS
10
5.64906
20
-3.30507
11
5.64837
21
-3.30535
0
LINE
8
BLACK
6
CONTINUOUS
10
5.64837
20
-3.30535
11
5.50663
21
-3.30535
0
LINE
8
BLACK
6
CONTINUOUS
10
5.50663
20
-3.30535
11
5.50594
21
-3.30507
0
LINE
8
BLACK
6
CONTINUOUS
10
5.50594
20
-3.30507
11
5.50565
21
-3.30437
0
LINE
8
BLACK
6
CONTINUOUS
10
5.50565
20
-3.30437
11
5.50565
21
-3.22563
0
LINE
8
BLACK
6
CONTINUOUS
10
5.50565
20
-3.22563
11
5.50594
21
-3.22493
0
LINE
8
BLACK
6
CONTINUOUS
10
5.50594
20
-3.22493
11
5.50663
21
-3.22465
0
LINE
8
BLACK
6
CONTINUOUS
10
5.50663
20
-3.22465
11
5.64837
21
-3.22465
0
LINE
8
BLACK
6
CONTINUOUS
10
5.50762
20
-3.22661
11
5.50762
21
-3.30339
0
LINE
8
BLACK
6
CONTINUOUS
10
5.50762
20
-3.30339
11
5.64738
21
-3.30339
0
LINE
8
BLACK
6
CONTINUOUS
10
5.64738
20
-3.30339
11
5.64738
21
-3.22661
0
LINE
8
BLACK
6
CONTINUOUS
10
5.64738
20
-3.22661
11
5.50762
21
-3.22661
  0
ENDSEC
  0
EOF
