  0
SECTION
  2
HEADER
  9
$ANGBASE
  50
0.0
  9
$ANGDIR
  70
1
  9
$MEASUREMENT
  70
0
  0
ENDSEC
  0
SECTION
  2
TABLES
  0
TABLE
  2
LTYPE
  70
4
  0
LTYPE
  5
40F
  2
CONTINUOUS
  70
0
  3
Solid line
  72
65
  73
0
  40
0.0
  0
LTYPE
  5
410
  2
DASHDOT
 70
0
  3
Dash Dot ____ _ ____ _
 72
65
 73
4
 40
2.0
 49
1.25
 49
-0.25
 49
0.25
 49
-0.25
  0
LTYPE
  5
411
  2
DASHED
 70
0
  3
Dashed __ __ __ __ __
 72
65
 73
2
 40
0.75
 49
0.5
 49
-0.25
  0
LTYPE
  5
43B
  2
DOTTED
 70
0
  3
Dotted .  .  .  .
 72
65
 73
2
 40
0.2
 49
0.0
 49
-0.2
  0
ENDTAB
  0
TABLE
  2
STYLE
  70
4
  0
STYLE
  2
KICAD
  70
0
  40
0
  41
1
  42
1
  50
0
  71
0
  3
isocp.shx
  0
STYLE
  2
KICADB
  70
0
  40
0
  41
1
  42
1
  50
0
  71
0
  3
isocp.shx
  0
STYLE
  2
KICADI
  70
0
  40
0
  41
1
  42
1
  50
15
  71
0
  3
isocp.shx
  0
STYLE
  2
KICADBI
  70
0
  40
0
  41
1
  42
1
  50
15
  71
0
  3
isocp.shx
  0
ENDTAB
  0
TABLE
  2
LAYER
  70
1
  0
LAYER
  2
BLACK
  70
0
  62
7
  6
CONTINUOUS
  0
ENDTAB
  0
ENDSEC
  0
SECTION
  2
ENTITIES
0
LINE
8
BLACK
6
CONTINUOUS
10
4.93852
20
-4.20237
11
4.95244
21
-4.20473
0
LINE
8
BLACK
6
CONTINUOUS
10
4.95244
20
-4.20473
11
4.96602
21
-4.20864
0
LINE
8
BLACK
6
CONTINUOUS
10
4.96602
20
-4.20864
11
4.97907
21
-4.21405
0
LINE
8
BLACK
6
CONTINUOUS
10
4.97907
20
-4.21405
11
4.99144
21
-4.22089
0
LINE
8
BLACK
6
CONTINUOUS
10
4.99144
20
-4.22089
11
5.00296
21
-4.22906
0
LINE
8
BLACK
6
CONTINUOUS
10
5.00296
20
-4.22906
11
5.01349
21
-4.23847
0
LINE
8
BLACK
6
CONTINUOUS
10
5.01349
20
-4.23847
11
5.02291
21
-4.24901
0
LINE
8
BLACK
6
CONTINUOUS
10
5.02291
20
-4.24901
11
5.03108
21
-4.26053
0
LINE
8
BLACK
6
CONTINUOUS
10
5.03108
20
-4.26053
11
5.03792
21
-4.2729
0
LINE
8
BLACK
6
CONTINUOUS
10
5.03792
20
-4.2729
11
5.04332
21
-4.28595
0
LINE
8
BLACK
6
CONTINUOUS
10
5.04332
20
-4.28595
11
5.04723
21
-4.29952
0
LINE
8
BLACK
6
CONTINUOUS
10
5.04723
20
-4.29952
11
5.0496
21
-4.31345
0
LINE
8
BLACK
6
CONTINUOUS
10
5.0496
20
-4.31345
11
5.05039
21
-4.32756
0
LINE
8
BLACK
6
CONTINUOUS
10
5.05039
20
-4.32756
11
5.0496
21
-4.34166
0
LINE
8
BLACK
6
CONTINUOUS
10
5.0496
20
-4.34166
11
5.04723
21
-4.35559
0
LINE
8
BLACK
6
CONTINUOUS
10
5.04723
20
-4.35559
11
5.04332
21
-4.36917
0
LINE
8
BLACK
6
CONTINUOUS
10
5.04332
20
-4.36917
11
5.03792
21
-4.38222
0
LINE
8
BLACK
6
CONTINUOUS
10
5.03792
20
-4.38222
11
5.03108
21
-4.39459
0
LINE
8
BLACK
6
CONTINUOUS
10
5.03108
20
-4.39459
11
5.02291
21
-4.40611
0
LINE
8
BLACK
6
CONTINUOUS
10
5.02291
20
-4.40611
11
5.01349
21
-4.41664
0
LINE
8
BLACK
6
CONTINUOUS
10
5.01349
20
-4.41664
11
5.00296
21
-4.42606
0
LINE
8
BLACK
6
CONTINUOUS
10
5.00296
20
-4.42606
11
4.99144
21
-4.43423
0
LINE
8
BLACK
6
CONTINUOUS
10
4.99144
20
-4.43423
11
4.97907
21
-4.44107
0
LINE
8
BLACK
6
CONTINUOUS
10
4.97907
20
-4.44107
11
4.96602
21
-4.44647
0
LINE
8
BLACK
6
CONTINUOUS
10
4.96602
20
-4.44647
11
4.95244
21
-4.45038
0
LINE
8
BLACK
6
CONTINUOUS
10
4.95244
20
-4.45038
11
4.93852
21
-4.45275
0
LINE
8
BLACK
6
CONTINUOUS
10
4.93852
20
-4.45275
11
4.92441
21
-4.45354
0
LINE
8
BLACK
6
CONTINUOUS
10
4.92441
20
-4.45354
11
4.9103
21
-4.45275
0
LINE
8
BLACK
6
CONTINUOUS
10
4.9103
20
-4.45275
11
4.89638
21
-4.45038
0
LINE
8
BLACK
6
CONTINUOUS
10
4.89638
20
-4.45038
11
4.8828
21
-4.44647
0
LINE
8
BLACK
6
CONTINUOUS
10
4.8828
20
-4.44647
11
4.86975
21
-4.44107
0
LINE
8
BLACK
6
CONTINUOUS
10
4.86975
20
-4.44107
11
4.85738
21
-4.43423
0
LINE
8
BLACK
6
CONTINUOUS
10
4.85738
20
-4.43423
11
4.84586
21
-4.42606
0
LINE
8
BLACK
6
CONTINUOUS
10
4.84586
20
-4.42606
11
4.83533
21
-4.41664
0
LINE
8
BLACK
6
CONTINUOUS
10
4.83533
20
-4.41664
11
4.82591
21
-4.40611
0
LINE
8
BLACK
6
CONTINUOUS
10
4.82591
20
-4.40611
11
4.81774
21
-4.39459
0
LINE
8
BLACK
6
CONTINUOUS
10
4.81774
20
-4.39459
11
4.8109
21
-4.38222
0
LINE
8
BLACK
6
CONTINUOUS
10
4.8109
20
-4.38222
11
4.80549
21
-4.36917
0
LINE
8
BLACK
6
CONTINUOUS
10
4.80549
20
-4.36917
11
4.80158
21
-4.35559
0
LINE
8
BLACK
6
CONTINUOUS
10
4.80158
20
-4.35559
11
4.79922
21
-4.34166
0
LINE
8
BLACK
6
CONTINUOUS
10
4.79922
20
-4.34166
11
4.79843
21
-4.32756
0
LINE
8
BLACK
6
CONTINUOUS
10
4.79843
20
-4.32756
11
4.79922
21
-4.31345
0
LINE
8
BLACK
6
CONTINUOUS
10
4.79922
20
-4.31345
11
4.80158
21
-4.29952
0
LINE
8
BLACK
6
CONTINUOUS
10
4.80158
20
-4.29952
11
4.80549
21
-4.28595
0
LINE
8
BLACK
6
CONTINUOUS
10
4.80549
20
-4.28595
11
4.8109
21
-4.2729
0
LINE
8
BLACK
6
CONTINUOUS
10
4.8109
20
-4.2729
11
4.81774
21
-4.26053
0
LINE
8
BLACK
6
CONTINUOUS
10
4.81774
20
-4.26053
11
4.82591
21
-4.24901
0
LINE
8
BLACK
6
CONTINUOUS
10
4.82591
20
-4.24901
11
4.83533
21
-4.23847
0
LINE
8
BLACK
6
CONTINUOUS
10
4.83533
20
-4.23847
11
4.84586
21
-4.22906
0
LINE
8
BLACK
6
CONTINUOUS
10
4.84586
20
-4.22906
11
4.85738
21
-4.22089
0
LINE
8
BLACK
6
CONTINUOUS
10
4.85738
20
-4.22089
11
4.86975
21
-4.21405
0
LINE
8
BLACK
6
CONTINUOUS
10
4.86975
20
-4.21405
11
4.8828
21
-4.20864
0
LINE
8
BLACK
6
CONTINUOUS
10
4.8828
20
-4.20864
11
4.89638
21
-4.20473
0
LINE
8
BLACK
6
CONTINUOUS
10
4.89638
20
-4.20473
11
4.9103
21
-4.20237
0
LINE
8
BLACK
6
CONTINUOUS
10
4.9103
20
-4.20237
11
4.92441
21
-4.20157
0
LINE
8
BLACK
6
CONTINUOUS
10
4.92441
20
-4.20157
11
4.93852
21
-4.20237
0
LINE
8
BLACK
6
CONTINUOUS
10
6.13852
20
-4.20237
11
6.15244
21
-4.20473
0
LINE
8
BLACK
6
CONTINUOUS
10
6.15244
20
-4.20473
11
6.16602
21
-4.20864
0
LINE
8
BLACK
6
CONTINUOUS
10
6.16602
20
-4.20864
11
6.17907
21
-4.21405
0
LINE
8
BLACK
6
CONTINUOUS
10
6.17907
20
-4.21405
11
6.19144
21
-4.22089
0
LINE
8
BLACK
6
CONTINUOUS
10
6.19144
20
-4.22089
11
6.20296
21
-4.22906
0
LINE
8
BLACK
6
CONTINUOUS
10
6.20296
20
-4.22906
11
6.21349
21
-4.23847
0
LINE
8
BLACK
6
CONTINUOUS
10
6.21349
20
-4.23847
11
6.22291
21
-4.24901
0
LINE
8
BLACK
6
CONTINUOUS
10
6.22291
20
-4.24901
11
6.23108
21
-4.26053
0
LINE
8
BLACK
6
CONTINUOUS
10
6.23108
20
-4.26053
11
6.23792
21
-4.2729
0
LINE
8
BLACK
6
CONTINUOUS
10
6.23792
20
-4.2729
11
6.24332
21
-4.28595
0
LINE
8
BLACK
6
CONTINUOUS
10
6.24332
20
-4.28595
11
6.24723
21
-4.29952
0
LINE
8
BLACK
6
CONTINUOUS
10
6.24723
20
-4.29952
11
6.2496
21
-4.31345
0
LINE
8
BLACK
6
CONTINUOUS
10
6.2496
20
-4.31345
11
6.25039
21
-4.32756
0
LINE
8
BLACK
6
CONTINUOUS
10
6.25039
20
-4.32756
11
6.2496
21
-4.34166
0
LINE
8
BLACK
6
CONTINUOUS
10
6.2496
20
-4.34166
11
6.24723
21
-4.35559
0
LINE
8
BLACK
6
CONTINUOUS
10
6.24723
20
-4.35559
11
6.24332
21
-4.36917
0
LINE
8
BLACK
6
CONTINUOUS
10
6.24332
20
-4.36917
11
6.23792
21
-4.38222
0
LINE
8
BLACK
6
CONTINUOUS
10
6.23792
20
-4.38222
11
6.23108
21
-4.39459
0
LINE
8
BLACK
6
CONTINUOUS
10
6.23108
20
-4.39459
11
6.22291
21
-4.40611
0
LINE
8
BLACK
6
CONTINUOUS
10
6.22291
20
-4.40611
11
6.21349
21
-4.41664
0
LINE
8
BLACK
6
CONTINUOUS
10
6.21349
20
-4.41664
11
6.20296
21
-4.42606
0
LINE
8
BLACK
6
CONTINUOUS
10
6.20296
20
-4.42606
11
6.19144
21
-4.43423
0
LINE
8
BLACK
6
CONTINUOUS
10
6.19144
20
-4.43423
11
6.17907
21
-4.44107
0
LINE
8
BLACK
6
CONTINUOUS
10
6.17907
20
-4.44107
11
6.16602
21
-4.44647
0
LINE
8
BLACK
6
CONTINUOUS
10
6.16602
20
-4.44647
11
6.15244
21
-4.45038
0
LINE
8
BLACK
6
CONTINUOUS
10
6.15244
20
-4.45038
11
6.13852
21
-4.45275
0
LINE
8
BLACK
6
CONTINUOUS
10
6.13852
20
-4.45275
11
6.12441
21
-4.45354
0
LINE
8
BLACK
6
CONTINUOUS
10
6.12441
20
-4.45354
11
6.1103
21
-4.45275
0
LINE
8
BLACK
6
CONTINUOUS
10
6.1103
20
-4.45275
11
6.09638
21
-4.45038
0
LINE
8
BLACK
6
CONTINUOUS
10
6.09638
20
-4.45038
11
6.0828
21
-4.44647
0
LINE
8
BLACK
6
CONTINUOUS
10
6.0828
20
-4.44647
11
6.06975
21
-4.44107
0
LINE
8
BLACK
6
CONTINUOUS
10
6.06975
20
-4.44107
11
6.05738
21
-4.43423
0
LINE
8
BLACK
6
CONTINUOUS
10
6.05738
20
-4.43423
11
6.04586
21
-4.42606
0
LINE
8
BLACK
6
CONTINUOUS
10
6.04586
20
-4.42606
11
6.03533
21
-4.41664
0
LINE
8
BLACK
6
CONTINUOUS
10
6.03533
20
-4.41664
11
6.02591
21
-4.40611
0
LINE
8
BLACK
6
CONTINUOUS
10
6.02591
20
-4.40611
11
6.01774
21
-4.39459
0
LINE
8
BLACK
6
CONTINUOUS
10
6.01774
20
-4.39459
11
6.0109
21
-4.38222
0
LINE
8
BLACK
6
CONTINUOUS
10
6.0109
20
-4.38222
11
6.00549
21
-4.36917
0
LINE
8
BLACK
6
CONTINUOUS
10
6.00549
20
-4.36917
11
6.00158
21
-4.35559
0
LINE
8
BLACK
6
CONTINUOUS
10
6.00158
20
-4.35559
11
5.99922
21
-4.34166
0
LINE
8
BLACK
6
CONTINUOUS
10
5.99922
20
-4.34166
11
5.99843
21
-4.32756
0
LINE
8
BLACK
6
CONTINUOUS
10
5.99843
20
-4.32756
11
5.99922
21
-4.31345
0
LINE
8
BLACK
6
CONTINUOUS
10
5.99922
20
-4.31345
11
6.00158
21
-4.29952
0
LINE
8
BLACK
6
CONTINUOUS
10
6.00158
20
-4.29952
11
6.00549
21
-4.28595
0
LINE
8
BLACK
6
CONTINUOUS
10
6.00549
20
-4.28595
11
6.0109
21
-4.2729
0
LINE
8
BLACK
6
CONTINUOUS
10
6.0109
20
-4.2729
11
6.01774
21
-4.26053
0
LINE
8
BLACK
6
CONTINUOUS
10
6.01774
20
-4.26053
11
6.02591
21
-4.24901
0
LINE
8
BLACK
6
CONTINUOUS
10
6.02591
20
-4.24901
11
6.03533
21
-4.23847
0
LINE
8
BLACK
6
CONTINUOUS
10
6.03533
20
-4.23847
11
6.04586
21
-4.22906
0
LINE
8
BLACK
6
CONTINUOUS
10
6.04586
20
-4.22906
11
6.05738
21
-4.22089
0
LINE
8
BLACK
6
CONTINUOUS
10
6.05738
20
-4.22089
11
6.06975
21
-4.21405
0
LINE
8
BLACK
6
CONTINUOUS
10
6.06975
20
-4.21405
11
6.0828
21
-4.20864
0
LINE
8
BLACK
6
CONTINUOUS
10
6.0828
20
-4.20864
11
6.09638
21
-4.20473
0
LINE
8
BLACK
6
CONTINUOUS
10
6.09638
20
-4.20473
11
6.1103
21
-4.20237
0
LINE
8
BLACK
6
CONTINUOUS
10
6.1103
20
-4.20237
11
6.12441
21
-4.20157
0
LINE
8
BLACK
6
CONTINUOUS
10
6.12441
20
-4.20157
11
6.13852
21
-4.20237
0
LINE
8
BLACK
6
CONTINUOUS
10
5.39742
20
-4.32028
11
5.39998
21
-4.32199
0
LINE
8
BLACK
6
CONTINUOUS
10
5.39998
20
-4.32199
11
5.40168
21
-4.32455
0
LINE
8
BLACK
6
CONTINUOUS
10
5.40168
20
-4.32455
11
5.40228
21
-4.32756
0
LINE
8
BLACK
6
CONTINUOUS
10
5.40228
20
-4.32756
11
5.40228
21
-4.38756
0
LINE
8
BLACK
6
CONTINUOUS
10
5.40228
20
-4.38756
11
5.40168
21
-4.39057
0
LINE
8
BLACK
6
CONTINUOUS
10
5.40168
20
-4.39057
11
5.39998
21
-4.39313
0
LINE
8
BLACK
6
CONTINUOUS
10
5.39998
20
-4.39313
11
5.39742
21
-4.39483
0
LINE
8
BLACK
6
CONTINUOUS
10
5.39742
20
-4.39483
11
5.39441
21
-4.39543
0
LINE
8
BLACK
6
CONTINUOUS
10
5.39441
20
-4.39543
11
5.33441
21
-4.39543
0
LINE
8
BLACK
6
CONTINUOUS
10
5.33441
20
-4.39543
11
5.3314
21
-4.39483
0
LINE
8
BLACK
6
CONTINUOUS
10
5.3314
20
-4.39483
11
5.32884
21
-4.39313
0
LINE
8
BLACK
6
CONTINUOUS
10
5.32884
20
-4.39313
11
5.32713
21
-4.39057
0
LINE
8
BLACK
6
CONTINUOUS
10
5.32713
20
-4.39057
11
5.32654
21
-4.38756
0
LINE
8
BLACK
6
CONTINUOUS
10
5.32654
20
-4.38756
11
5.32654
21
-4.32756
0
LINE
8
BLACK
6
CONTINUOUS
10
5.32654
20
-4.32756
11
5.32713
21
-4.32455
0
LINE
8
BLACK
6
CONTINUOUS
10
5.32713
20
-4.32455
11
5.32884
21
-4.32199
0
LINE
8
BLACK
6
CONTINUOUS
10
5.32884
20
-4.32199
11
5.3314
21
-4.32028
0
LINE
8
BLACK
6
CONTINUOUS
10
5.3314
20
-4.32028
11
5.33441
21
-4.31969
0
LINE
8
BLACK
6
CONTINUOUS
10
5.33441
20
-4.31969
11
5.39441
21
-4.31969
0
LINE
8
BLACK
6
CONTINUOUS
10
5.39441
20
-4.31969
11
5.39742
21
-4.32028
0
LINE
8
BLACK
6
CONTINUOUS
10
5.49742
20
-4.32028
11
5.49998
21
-4.32199
0
LINE
8
BLACK
6
CONTINUOUS
10
5.49998
20
-4.32199
11
5.50168
21
-4.32455
0
LINE
8
BLACK
6
CONTINUOUS
10
5.50168
20
-4.32455
11
5.50228
21
-4.32756
0
LINE
8
BLACK
6
CONTINUOUS
10
5.50228
20
-4.32756
11
5.50228
21
-4.38756
0
LINE
8
BLACK
6
CONTINUOUS
10
5.50228
20
-4.38756
11
5.50168
21
-4.39057
0
LINE
8
BLACK
6
CONTINUOUS
10
5.50168
20
-4.39057
11
5.49998
21
-4.39313
0
LINE
8
BLACK
6
CONTINUOUS
10
5.49998
20
-4.39313
11
5.49742
21
-4.39483
0
LINE
8
BLACK
6
CONTINUOUS
10
5.49742
20
-4.39483
11
5.49441
21
-4.39543
0
LINE
8
BLACK
6
CONTINUOUS
10
5.49441
20
-4.39543
11
5.43441
21
-4.39543
0
LINE
8
BLACK
6
CONTINUOUS
10
5.43441
20
-4.39543
11
5.4314
21
-4.39483
0
LINE
8
BLACK
6
CONTINUOUS
10
5.4314
20
-4.39483
11
5.42884
21
-4.39313
0
LINE
8
BLACK
6
CONTINUOUS
10
5.42884
20
-4.39313
11
5.42713
21
-4.39057
0
LINE
8
BLACK
6
CONTINUOUS
10
5.42713
20
-4.39057
11
5.42654
21
-4.38756
0
LINE
8
BLACK
6
CONTINUOUS
10
5.42654
20
-4.38756
11
5.42654
21
-4.32756
0
LINE
8
BLACK
6
CONTINUOUS
10
5.42654
20
-4.32756
11
5.42713
21
-4.32455
0
LINE
8
BLACK
6
CONTINUOUS
10
5.42713
20
-4.32455
11
5.42884
21
-4.32199
0
LINE
8
BLACK
6
CONTINUOUS
10
5.42884
20
-4.32199
11
5.4314
21
-4.32028
0
LINE
8
BLACK
6
CONTINUOUS
10
5.4314
20
-4.32028
11
5.43441
21
-4.31969
0
LINE
8
BLACK
6
CONTINUOUS
10
5.43441
20
-4.31969
11
5.49441
21
-4.31969
0
LINE
8
BLACK
6
CONTINUOUS
10
5.49441
20
-4.31969
11
5.49742
21
-4.32028
0
LINE
8
BLACK
6
CONTINUOUS
10
5.59742
20
-4.32028
11
5.59998
21
-4.32199
0
LINE
8
BLACK
6
CONTINUOUS
10
5.59998
20
-4.32199
11
5.60168
21
-4.32455
0
LINE
8
BLACK
6
CONTINUOUS
10
5.60168
20
-4.32455
11
5.60228
21
-4.32756
0
LINE
8
BLACK
6
CONTINUOUS
10
5.60228
20
-4.32756
11
5.60228
21
-4.38756
0
LINE
8
BLACK
6
CONTINUOUS
10
5.60228
20
-4.38756
11
5.60168
21
-4.39057
0
LINE
8
BLACK
6
CONTINUOUS
10
5.60168
20
-4.39057
11
5.59998
21
-4.39313
0
LINE
8
BLACK
6
CONTINUOUS
10
5.59998
20
-4.39313
11
5.59742
21
-4.39483
0
LINE
8
BLACK
6
CONTINUOUS
10
5.59742
20
-4.39483
11
5.59441
21
-4.39543
0
LINE
8
BLACK
6
CONTINUOUS
10
5.59441
20
-4.39543
11
5.53441
21
-4.39543
0
LINE
8
BLACK
6
CONTINUOUS
10
5.53441
20
-4.39543
11
5.5314
21
-4.39483
0
LINE
8
BLACK
6
CONTINUOUS
10
5.5314
20
-4.39483
11
5.52884
21
-4.39313
0
LINE
8
BLACK
6
CONTINUOUS
10
5.52884
20
-4.39313
11
5.52713
21
-4.39057
0
LINE
8
BLACK
6
CONTINUOUS
10
5.52713
20
-4.39057
11
5.52654
21
-4.38756
0
LINE
8
BLACK
6
CONTINUOUS
10
5.52654
20
-4.38756
11
5.52654
21
-4.32756
0
LINE
8
BLACK
6
CONTINUOUS
10
5.52654
20
-4.32756
11
5.52713
21
-4.32455
0
LINE
8
BLACK
6
CONTINUOUS
10
5.52713
20
-4.32455
11
5.52884
21
-4.32199
0
LINE
8
BLACK
6
CONTINUOUS
10
5.52884
20
-4.32199
11
5.5314
21
-4.32028
0
LINE
8
BLACK
6
CONTINUOUS
10
5.5314
20
-4.32028
11
5.53441
21
-4.31969
0
LINE
8
BLACK
6
CONTINUOUS
10
5.53441
20
-4.31969
11
5.59441
21
-4.31969
0
LINE
8
BLACK
6
CONTINUOUS
10
5.59441
20
-4.31969
11
5.59742
21
-4.32028
0
LINE
8
BLACK
6
CONTINUOUS
10
5.69742
20
-4.32028
11
5.69998
21
-4.32199
0
LINE
8
BLACK
6
CONTINUOUS
10
5.69998
20
-4.32199
11
5.70168
21
-4.32455
0
LINE
8
BLACK
6
CONTINUOUS
10
5.70168
20
-4.32455
11
5.70228
21
-4.32756
0
LINE
8
BLACK
6
CONTINUOUS
10
5.70228
20
-4.32756
11
5.70228
21
-4.38756
0
LINE
8
BLACK
6
CONTINUOUS
10
5.70228
20
-4.38756
11
5.70168
21
-4.39057
0
LINE
8
BLACK
6
CONTINUOUS
10
5.70168
20
-4.39057
11
5.69998
21
-4.39313
0
LINE
8
BLACK
6
CONTINUOUS
10
5.69998
20
-4.39313
11
5.69742
21
-4.39483
0
LINE
8
BLACK
6
CONTINUOUS
10
5.69742
20
-4.39483
11
5.69441
21
-4.39543
0
LINE
8
BLACK
6
CONTINUOUS
10
5.69441
20
-4.39543
11
5.63441
21
-4.39543
0
LINE
8
BLACK
6
CONTINUOUS
10
5.63441
20
-4.39543
11
5.6314
21
-4.39483
0
LINE
8
BLACK
6
CONTINUOUS
10
5.6314
20
-4.39483
11
5.62884
21
-4.39313
0
LINE
8
BLACK
6
CONTINUOUS
10
5.62884
20
-4.39313
11
5.62713
21
-4.39057
0
LINE
8
BLACK
6
CONTINUOUS
10
5.62713
20
-4.39057
11
5.62654
21
-4.38756
0
LINE
8
BLACK
6
CONTINUOUS
10
5.62654
20
-4.38756
11
5.62654
21
-4.32756
0
LINE
8
BLACK
6
CONTINUOUS
10
5.62654
20
-4.32756
11
5.62713
21
-4.32455
0
LINE
8
BLACK
6
CONTINUOUS
10
5.62713
20
-4.32455
11
5.62884
21
-4.32199
0
LINE
8
BLACK
6
CONTINUOUS
10
5.62884
20
-4.32199
11
5.6314
21
-4.32028
0
LINE
8
BLACK
6
CONTINUOUS
10
5.6314
20
-4.32028
11
5.63441
21
-4.31969
0
LINE
8
BLACK
6
CONTINUOUS
10
5.63441
20
-4.31969
11
5.69441
21
-4.31969
0
LINE
8
BLACK
6
CONTINUOUS
10
5.69441
20
-4.31969
11
5.69742
21
-4.32028
0
LINE
8
BLACK
6
CONTINUOUS
10
5.39742
20
-4.22028
11
5.39998
21
-4.22199
0
LINE
8
BLACK
6
CONTINUOUS
10
5.39998
20
-4.22199
11
5.40168
21
-4.22455
0
LINE
8
BLACK
6
CONTINUOUS
10
5.40168
20
-4.22455
11
5.40228
21
-4.22756
0
LINE
8
BLACK
6
CONTINUOUS
10
5.40228
20
-4.22756
11
5.40228
21
-4.28756
0
LINE
8
BLACK
6
CONTINUOUS
10
5.40228
20
-4.28756
11
5.40168
21
-4.29057
0
LINE
8
BLACK
6
CONTINUOUS
10
5.40168
20
-4.29057
11
5.39998
21
-4.29313
0
LINE
8
BLACK
6
CONTINUOUS
10
5.39998
20
-4.29313
11
5.39742
21
-4.29483
0
LINE
8
BLACK
6
CONTINUOUS
10
5.39742
20
-4.29483
11
5.39441
21
-4.29543
0
LINE
8
BLACK
6
CONTINUOUS
10
5.39441
20
-4.29543
11
5.33441
21
-4.29543
0
LINE
8
BLACK
6
CONTINUOUS
10
5.33441
20
-4.29543
11
5.3314
21
-4.29483
0
LINE
8
BLACK
6
CONTINUOUS
10
5.3314
20
-4.29483
11
5.32884
21
-4.29313
0
LINE
8
BLACK
6
CONTINUOUS
10
5.32884
20
-4.29313
11
5.32713
21
-4.29057
0
LINE
8
BLACK
6
CONTINUOUS
10
5.32713
20
-4.29057
11
5.32654
21
-4.28756
0
LINE
8
BLACK
6
CONTINUOUS
10
5.32654
20
-4.28756
11
5.32654
21
-4.22756
0
LINE
8
BLACK
6
CONTINUOUS
10
5.32654
20
-4.22756
11
5.32713
21
-4.22455
0
LINE
8
BLACK
6
CONTINUOUS
10
5.32713
20
-4.22455
11
5.32884
21
-4.22199
0
LINE
8
BLACK
6
CONTINUOUS
10
5.32884
20
-4.22199
11
5.3314
21
-4.22028
0
LINE
8
BLACK
6
CONTINUOUS
10
5.3314
20
-4.22028
11
5.33441
21
-4.21969
0
LINE
8
BLACK
6
CONTINUOUS
10
5.33441
20
-4.21969
11
5.39441
21
-4.21969
0
LINE
8
BLACK
6
CONTINUOUS
10
5.39441
20
-4.21969
11
5.39742
21
-4.22028
0
LINE
8
BLACK
6
CONTINUOUS
10
5.49742
20
-4.22028
11
5.49998
21
-4.22199
0
LINE
8
BLACK
6
CONTINUOUS
10
5.49998
20
-4.22199
11
5.50168
21
-4.22455
0
LINE
8
BLACK
6
CONTINUOUS
10
5.50168
20
-4.22455
11
5.50228
21
-4.22756
0
LINE
8
BLACK
6
CONTINUOUS
10
5.50228
20
-4.22756
11
5.50228
21
-4.28756
0
LINE
8
BLACK
6
CONTINUOUS
10
5.50228
20
-4.28756
11
5.50168
21
-4.29057
0
LINE
8
BLACK
6
CONTINUOUS
10
5.50168
20
-4.29057
11
5.49998
21
-4.29313
0
LINE
8
BLACK
6
CONTINUOUS
10
5.49998
20
-4.29313
11
5.49742
21
-4.29483
0
LINE
8
BLACK
6
CONTINUOUS
10
5.49742
20
-4.29483
11
5.49441
21
-4.29543
0
LINE
8
BLACK
6
CONTINUOUS
10
5.49441
20
-4.29543
11
5.43441
21
-4.29543
0
LINE
8
BLACK
6
CONTINUOUS
10
5.43441
20
-4.29543
11
5.4314
21
-4.29483
0
LINE
8
BLACK
6
CONTINUOUS
10
5.4314
20
-4.29483
11
5.42884
21
-4.29313
0
LINE
8
BLACK
6
CONTINUOUS
10
5.42884
20
-4.29313
11
5.42713
21
-4.29057
0
LINE
8
BLACK
6
CONTINUOUS
10
5.42713
20
-4.29057
11
5.42654
21
-4.28756
0
LINE
8
BLACK
6
CONTINUOUS
10
5.42654
20
-4.28756
11
5.42654
21
-4.22756
0
LINE
8
BLACK
6
CONTINUOUS
10
5.42654
20
-4.22756
11
5.42713
21
-4.22455
0
LINE
8
BLACK
6
CONTINUOUS
10
5.42713
20
-4.22455
11
5.42884
21
-4.22199
0
LINE
8
BLACK
6
CONTINUOUS
10
5.42884
20
-4.22199
11
5.4314
21
-4.22028
0
LINE
8
BLACK
6
CONTINUOUS
10
5.4314
20
-4.22028
11
5.43441
21
-4.21969
0
LINE
8
BLACK
6
CONTINUOUS
10
5.43441
20
-4.21969
11
5.49441
21
-4.21969
0
LINE
8
BLACK
6
CONTINUOUS
10
5.49441
20
-4.21969
11
5.49742
21
-4.22028
0
LINE
8
BLACK
6
CONTINUOUS
10
5.59742
20
-4.22028
11
5.59998
21
-4.22199
0
LINE
8
BLACK
6
CONTINUOUS
10
5.59998
20
-4.22199
11
5.60168
21
-4.22455
0
LINE
8
BLACK
6
CONTINUOUS
10
5.60168
20
-4.22455
11
5.60228
21
-4.22756
0
LINE
8
BLACK
6
CONTINUOUS
10
5.60228
20
-4.22756
11
5.60228
21
-4.28756
0
LINE
8
BLACK
6
CONTINUOUS
10
5.60228
20
-4.28756
11
5.60168
21
-4.29057
0
LINE
8
BLACK
6
CONTINUOUS
10
5.60168
20
-4.29057
11
5.59998
21
-4.29313
0
LINE
8
BLACK
6
CONTINUOUS
10
5.59998
20
-4.29313
11
5.59742
21
-4.29483
0
LINE
8
BLACK
6
CONTINUOUS
10
5.59742
20
-4.29483
11
5.59441
21
-4.29543
0
LINE
8
BLACK
6
CONTINUOUS
10
5.59441
20
-4.29543
11
5.53441
21
-4.29543
0
LINE
8
BLACK
6
CONTINUOUS
10
5.53441
20
-4.29543
11
5.5314
21
-4.29483
0
LINE
8
BLACK
6
CONTINUOUS
10
5.5314
20
-4.29483
11
5.52884
21
-4.29313
0
LINE
8
BLACK
6
CONTINUOUS
10
5.52884
20
-4.29313
11
5.52713
21
-4.29057
0
LINE
8
BLACK
6
CONTINUOUS
10
5.52713
20
-4.29057
11
5.52654
21
-4.28756
0
LINE
8
BLACK
6
CONTINUOUS
10
5.52654
20
-4.28756
11
5.52654
21
-4.22756
0
LINE
8
BLACK
6
CONTINUOUS
10
5.52654
20
-4.22756
11
5.52713
21
-4.22455
0
LINE
8
BLACK
6
CONTINUOUS
10
5.52713
20
-4.22455
11
5.52884
21
-4.22199
0
LINE
8
BLACK
6
CONTINUOUS
10
5.52884
20
-4.22199
11
5.5314
21
-4.22028
0
LINE
8
BLACK
6
CONTINUOUS
10
5.5314
20
-4.22028
11
5.53441
21
-4.21969
0
LINE
8
BLACK
6
CONTINUOUS
10
5.53441
20
-4.21969
11
5.59441
21
-4.21969
0
LINE
8
BLACK
6
CONTINUOUS
10
5.59441
20
-4.21969
11
5.59742
21
-4.22028
0
LINE
8
BLACK
6
CONTINUOUS
10
5.69742
20
-4.22028
11
5.69998
21
-4.22199
0
LINE
8
BLACK
6
CONTINUOUS
10
5.69998
20
-4.22199
11
5.70168
21
-4.22455
0
LINE
8
BLACK
6
CONTINUOUS
10
5.70168
20
-4.22455
11
5.70228
21
-4.22756
0
LINE
8
BLACK
6
CONTINUOUS
10
5.70228
20
-4.22756
11
5.70228
21
-4.28756
0
LINE
8
BLACK
6
CONTINUOUS
10
5.70228
20
-4.28756
11
5.70168
21
-4.29057
0
LINE
8
BLACK
6
CONTINUOUS
10
5.70168
20
-4.29057
11
5.69998
21
-4.29313
0
LINE
8
BLACK
6
CONTINUOUS
10
5.69998
20
-4.29313
11
5.69742
21
-4.29483
0
LINE
8
BLACK
6
CONTINUOUS
10
5.69742
20
-4.29483
11
5.69441
21
-4.29543
0
LINE
8
BLACK
6
CONTINUOUS
10
5.69441
20
-4.29543
11
5.63441
21
-4.29543
0
LINE
8
BLACK
6
CONTINUOUS
10
5.63441
20
-4.29543
11
5.6314
21
-4.29483
0
LINE
8
BLACK
6
CONTINUOUS
10
5.6314
20
-4.29483
11
5.62884
21
-4.29313
0
LINE
8
BLACK
6
CONTINUOUS
10
5.62884
20
-4.29313
11
5.62713
21
-4.29057
0
LINE
8
BLACK
6
CONTINUOUS
10
5.62713
20
-4.29057
11
5.62654
21
-4.28756
0
LINE
8
BLACK
6
CONTINUOUS
10
5.62654
20
-4.28756
11
5.62654
21
-4.22756
0
LINE
8
BLACK
6
CONTINUOUS
10
5.62654
20
-4.22756
11
5.62713
21
-4.22455
0
LINE
8
BLACK
6
CONTINUOUS
10
5.62713
20
-4.22455
11
5.62884
21
-4.22199
0
LINE
8
BLACK
6
CONTINUOUS
10
5.62884
20
-4.22199
11
5.6314
21
-4.22028
0
LINE
8
BLACK
6
CONTINUOUS
10
5.6314
20
-4.22028
11
5.63441
21
-4.21969
0
LINE
8
BLACK
6
CONTINUOUS
10
5.63441
20
-4.21969
11
5.69441
21
-4.21969
0
LINE
8
BLACK
6
CONTINUOUS
10
5.69441
20
-4.21969
11
5.69742
21
-4.22028
0
LINE
8
BLACK
6
CONTINUOUS
10
5.39742
20
-4.12028
11
5.39998
21
-4.12199
0
LINE
8
BLACK
6
CONTINUOUS
10
5.39998
20
-4.12199
11
5.40168
21
-4.12455
0
LINE
8
BLACK
6
CONTINUOUS
10
5.40168
20
-4.12455
11
5.40228
21
-4.12756
0
LINE
8
BLACK
6
CONTINUOUS
10
5.40228
20
-4.12756
11
5.40228
21
-4.18756
0
LINE
8
BLACK
6
CONTINUOUS
10
5.40228
20
-4.18756
11
5.40168
21
-4.19057
0
LINE
8
BLACK
6
CONTINUOUS
10
5.40168
20
-4.19057
11
5.39998
21
-4.19313
0
LINE
8
BLACK
6
CONTINUOUS
10
5.39998
20
-4.19313
11
5.39742
21
-4.19483
0
LINE
8
BLACK
6
CONTINUOUS
10
5.39742
20
-4.19483
11
5.39441
21
-4.19543
0
LINE
8
BLACK
6
CONTINUOUS
10
5.39441
20
-4.19543
11
5.33441
21
-4.19543
0
LINE
8
BLACK
6
CONTINUOUS
10
5.33441
20
-4.19543
11
5.3314
21
-4.19483
0
LINE
8
BLACK
6
CONTINUOUS
10
5.3314
20
-4.19483
11
5.32884
21
-4.19313
0
LINE
8
BLACK
6
CONTINUOUS
10
5.32884
20
-4.19313
11
5.32713
21
-4.19057
0
LINE
8
BLACK
6
CONTINUOUS
10
5.32713
20
-4.19057
11
5.32654
21
-4.18756
0
LINE
8
BLACK
6
CONTINUOUS
10
5.32654
20
-4.18756
11
5.32654
21
-4.12756
0
LINE
8
BLACK
6
CONTINUOUS
10
5.32654
20
-4.12756
11
5.32713
21
-4.12455
0
LINE
8
BLACK
6
CONTINUOUS
10
5.32713
20
-4.12455
11
5.32884
21
-4.12199
0
LINE
8
BLACK
6
CONTINUOUS
10
5.32884
20
-4.12199
11
5.3314
21
-4.12028
0
LINE
8
BLACK
6
CONTINUOUS
10
5.3314
20
-4.12028
11
5.33441
21
-4.11969
0
LINE
8
BLACK
6
CONTINUOUS
10
5.33441
20
-4.11969
11
5.39441
21
-4.11969
0
LINE
8
BLACK
6
CONTINUOUS
10
5.39441
20
-4.11969
11
5.39742
21
-4.12028
0
LINE
8
BLACK
6
CONTINUOUS
10
5.49742
20
-4.12028
11
5.49998
21
-4.12199
0
LINE
8
BLACK
6
CONTINUOUS
10
5.49998
20
-4.12199
11
5.50168
21
-4.12455
0
LINE
8
BLACK
6
CONTINUOUS
10
5.50168
20
-4.12455
11
5.50228
21
-4.12756
0
LINE
8
BLACK
6
CONTINUOUS
10
5.50228
20
-4.12756
11
5.50228
21
-4.18756
0
LINE
8
BLACK
6
CONTINUOUS
10
5.50228
20
-4.18756
11
5.50168
21
-4.19057
0
LINE
8
BLACK
6
CONTINUOUS
10
5.50168
20
-4.19057
11
5.49998
21
-4.19313
0
LINE
8
BLACK
6
CONTINUOUS
10
5.49998
20
-4.19313
11
5.49742
21
-4.19483
0
LINE
8
BLACK
6
CONTINUOUS
10
5.49742
20
-4.19483
11
5.49441
21
-4.19543
0
LINE
8
BLACK
6
CONTINUOUS
10
5.49441
20
-4.19543
11
5.43441
21
-4.19543
0
LINE
8
BLACK
6
CONTINUOUS
10
5.43441
20
-4.19543
11
5.4314
21
-4.19483
0
LINE
8
BLACK
6
CONTINUOUS
10
5.4314
20
-4.19483
11
5.42884
21
-4.19313
0
LINE
8
BLACK
6
CONTINUOUS
10
5.42884
20
-4.19313
11
5.42713
21
-4.19057
0
LINE
8
BLACK
6
CONTINUOUS
10
5.42713
20
-4.19057
11
5.42654
21
-4.18756
0
LINE
8
BLACK
6
CONTINUOUS
10
5.42654
20
-4.18756
11
5.42654
21
-4.12756
0
LINE
8
BLACK
6
CONTINUOUS
10
5.42654
20
-4.12756
11
5.42713
21
-4.12455
0
LINE
8
BLACK
6
CONTINUOUS
10
5.42713
20
-4.12455
11
5.42884
21
-4.12199
0
LINE
8
BLACK
6
CONTINUOUS
10
5.42884
20
-4.12199
11
5.4314
21
-4.12028
0
LINE
8
BLACK
6
CONTINUOUS
10
5.4314
20
-4.12028
11
5.43441
21
-4.11969
0
LINE
8
BLACK
6
CONTINUOUS
10
5.43441
20
-4.11969
11
5.49441
21
-4.11969
0
LINE
8
BLACK
6
CONTINUOUS
10
5.49441
20
-4.11969
11
5.49742
21
-4.12028
0
LINE
8
BLACK
6
CONTINUOUS
10
5.59742
20
-4.12028
11
5.59998
21
-4.12199
0
LINE
8
BLACK
6
CONTINUOUS
10
5.59998
20
-4.12199
11
5.60168
21
-4.12455
0
LINE
8
BLACK
6
CONTINUOUS
10
5.60168
20
-4.12455
11
5.60228
21
-4.12756
0
LINE
8
BLACK
6
CONTINUOUS
10
5.60228
20
-4.12756
11
5.60228
21
-4.18756
0
LINE
8
BLACK
6
CONTINUOUS
10
5.60228
20
-4.18756
11
5.60168
21
-4.19057
0
LINE
8
BLACK
6
CONTINUOUS
10
5.60168
20
-4.19057
11
5.59998
21
-4.19313
0
LINE
8
BLACK
6
CONTINUOUS
10
5.59998
20
-4.19313
11
5.59742
21
-4.19483
0
LINE
8
BLACK
6
CONTINUOUS
10
5.59742
20
-4.19483
11
5.59441
21
-4.19543
0
LINE
8
BLACK
6
CONTINUOUS
10
5.59441
20
-4.19543
11
5.53441
21
-4.19543
0
LINE
8
BLACK
6
CONTINUOUS
10
5.53441
20
-4.19543
11
5.5314
21
-4.19483
0
LINE
8
BLACK
6
CONTINUOUS
10
5.5314
20
-4.19483
11
5.52884
21
-4.19313
0
LINE
8
BLACK
6
CONTINUOUS
10
5.52884
20
-4.19313
11
5.52713
21
-4.19057
0
LINE
8
BLACK
6
CONTINUOUS
10
5.52713
20
-4.19057
11
5.52654
21
-4.18756
0
LINE
8
BLACK
6
CONTINUOUS
10
5.52654
20
-4.18756
11
5.52654
21
-4.12756
0
LINE
8
BLACK
6
CONTINUOUS
10
5.52654
20
-4.12756
11
5.52713
21
-4.12455
0
LINE
8
BLACK
6
CONTINUOUS
10
5.52713
20
-4.12455
11
5.52884
21
-4.12199
0
LINE
8
BLACK
6
CONTINUOUS
10
5.52884
20
-4.12199
11
5.5314
21
-4.12028
0
LINE
8
BLACK
6
CONTINUOUS
10
5.5314
20
-4.12028
11
5.53441
21
-4.11969
0
LINE
8
BLACK
6
CONTINUOUS
10
5.53441
20
-4.11969
11
5.59441
21
-4.11969
0
LINE
8
BLACK
6
CONTINUOUS
10
5.59441
20
-4.11969
11
5.59742
21
-4.12028
0
LINE
8
BLACK
6
CONTINUOUS
10
5.69742
20
-4.12028
11
5.69998
21
-4.12199
0
LINE
8
BLACK
6
CONTINUOUS
10
5.69998
20
-4.12199
11
5.70168
21
-4.12455
0
LINE
8
BLACK
6
CONTINUOUS
10
5.70168
20
-4.12455
11
5.70228
21
-4.12756
0
LINE
8
BLACK
6
CONTINUOUS
10
5.70228
20
-4.12756
11
5.70228
21
-4.18756
0
LINE
8
BLACK
6
CONTINUOUS
10
5.70228
20
-4.18756
11
5.70168
21
-4.19057
0
LINE
8
BLACK
6
CONTINUOUS
10
5.70168
20
-4.19057
11
5.69998
21
-4.19313
0
LINE
8
BLACK
6
CONTINUOUS
10
5.69998
20
-4.19313
11
5.69742
21
-4.19483
0
LINE
8
BLACK
6
CONTINUOUS
10
5.69742
20
-4.19483
11
5.69441
21
-4.19543
0
LINE
8
BLACK
6
CONTINUOUS
10
5.69441
20
-4.19543
11
5.63441
21
-4.19543
0
LINE
8
BLACK
6
CONTINUOUS
10
5.63441
20
-4.19543
11
5.6314
21
-4.19483
0
LINE
8
BLACK
6
CONTINUOUS
10
5.6314
20
-4.19483
11
5.62884
21
-4.19313
0
LINE
8
BLACK
6
CONTINUOUS
10
5.62884
20
-4.19313
11
5.62713
21
-4.19057
0
LINE
8
BLACK
6
CONTINUOUS
10
5.62713
20
-4.19057
11
5.62654
21
-4.18756
0
LINE
8
BLACK
6
CONTINUOUS
10
5.62654
20
-4.18756
11
5.62654
21
-4.12756
0
LINE
8
BLACK
6
CONTINUOUS
10
5.62654
20
-4.12756
11
5.62713
21
-4.12455
0
LINE
8
BLACK
6
CONTINUOUS
10
5.62713
20
-4.12455
11
5.62884
21
-4.12199
0
LINE
8
BLACK
6
CONTINUOUS
10
5.62884
20
-4.12199
11
5.6314
21
-4.12028
0
LINE
8
BLACK
6
CONTINUOUS
10
5.6314
20
-4.12028
11
5.63441
21
-4.11969
0
LINE
8
BLACK
6
CONTINUOUS
10
5.63441
20
-4.11969
11
5.69441
21
-4.11969
0
LINE
8
BLACK
6
CONTINUOUS
10
5.69441
20
-4.11969
11
5.69742
21
-4.12028
0
LINE
8
BLACK
6
CONTINUOUS
10
6.12742
20
-3.96028
11
6.12998
21
-3.96199
0
LINE
8
BLACK
6
CONTINUOUS
10
6.12998
20
-3.96199
11
6.13168
21
-3.96455
0
LINE
8
BLACK
6
CONTINUOUS
10
6.13168
20
-3.96455
11
6.13228
21
-3.96756
0
LINE
8
BLACK
6
CONTINUOUS
10
6.13228
20
-3.96756
11
6.13228
21
-4.02756
0
LINE
8
BLACK
6
CONTINUOUS
10
6.13228
20
-4.02756
11
6.13168
21
-4.03057
0
LINE
8
BLACK
6
CONTINUOUS
10
6.13168
20
-4.03057
11
6.12998
21
-4.03313
0
LINE
8
BLACK
6
CONTINUOUS
10
6.12998
20
-4.03313
11
6.12742
21
-4.03483
0
LINE
8
BLACK
6
CONTINUOUS
10
6.12742
20
-4.03483
11
6.12441
21
-4.03543
0
LINE
8
BLACK
6
CONTINUOUS
10
6.12441
20
-4.03543
11
6.06441
21
-4.03543
0
LINE
8
BLACK
6
CONTINUOUS
10
6.06441
20
-4.03543
11
6.0614
21
-4.03483
0
LINE
8
BLACK
6
CONTINUOUS
10
6.0614
20
-4.03483
11
6.05884
21
-4.03313
0
LINE
8
BLACK
6
CONTINUOUS
10
6.05884
20
-4.03313
11
6.05713
21
-4.03057
0
LINE
8
BLACK
6
CONTINUOUS
10
6.05713
20
-4.03057
11
6.05654
21
-4.02756
0
LINE
8
BLACK
6
CONTINUOUS
10
6.05654
20
-4.02756
11
6.05654
21
-3.96756
0
LINE
8
BLACK
6
CONTINUOUS
10
6.05654
20
-3.96756
11
6.05713
21
-3.96455
0
LINE
8
BLACK
6
CONTINUOUS
10
6.05713
20
-3.96455
11
6.05884
21
-3.96199
0
LINE
8
BLACK
6
CONTINUOUS
10
6.05884
20
-3.96199
11
6.0614
21
-3.96028
0
LINE
8
BLACK
6
CONTINUOUS
10
6.0614
20
-3.96028
11
6.06441
21
-3.95969
0
LINE
8
BLACK
6
CONTINUOUS
10
6.06441
20
-3.95969
11
6.12441
21
-3.95969
0
LINE
8
BLACK
6
CONTINUOUS
10
6.12441
20
-3.95969
11
6.12742
21
-3.96028
0
LINE
8
BLACK
6
CONTINUOUS
10
6.22742
20
-3.96028
11
6.22998
21
-3.96199
0
LINE
8
BLACK
6
CONTINUOUS
10
6.22998
20
-3.96199
11
6.23168
21
-3.96455
0
LINE
8
BLACK
6
CONTINUOUS
10
6.23168
20
-3.96455
11
6.23228
21
-3.96756
0
LINE
8
BLACK
6
CONTINUOUS
10
6.23228
20
-3.96756
11
6.23228
21
-4.02756
0
LINE
8
BLACK
6
CONTINUOUS
10
6.23228
20
-4.02756
11
6.23168
21
-4.03057
0
LINE
8
BLACK
6
CONTINUOUS
10
6.23168
20
-4.03057
11
6.22998
21
-4.03313
0
LINE
8
BLACK
6
CONTINUOUS
10
6.22998
20
-4.03313
11
6.22742
21
-4.03483
0
LINE
8
BLACK
6
CONTINUOUS
10
6.22742
20
-4.03483
11
6.22441
21
-4.03543
0
LINE
8
BLACK
6
CONTINUOUS
10
6.22441
20
-4.03543
11
6.16441
21
-4.03543
0
LINE
8
BLACK
6
CONTINUOUS
10
6.16441
20
-4.03543
11
6.1614
21
-4.03483
0
LINE
8
BLACK
6
CONTINUOUS
10
6.1614
20
-4.03483
11
6.15884
21
-4.03313
0
LINE
8
BLACK
6
CONTINUOUS
10
6.15884
20
-4.03313
11
6.15713
21
-4.03057
0
LINE
8
BLACK
6
CONTINUOUS
10
6.15713
20
-4.03057
11
6.15654
21
-4.02756
0
LINE
8
BLACK
6
CONTINUOUS
10
6.15654
20
-4.02756
11
6.15654
21
-3.96756
0
LINE
8
BLACK
6
CONTINUOUS
10
6.15654
20
-3.96756
11
6.15713
21
-3.96455
0
LINE
8
BLACK
6
CONTINUOUS
10
6.15713
20
-3.96455
11
6.15884
21
-3.96199
0
LINE
8
BLACK
6
CONTINUOUS
10
6.15884
20
-3.96199
11
6.1614
21
-3.96028
0
LINE
8
BLACK
6
CONTINUOUS
10
6.1614
20
-3.96028
11
6.16441
21
-3.95969
0
LINE
8
BLACK
6
CONTINUOUS
10
6.16441
20
-3.95969
11
6.22441
21
-3.95969
0
LINE
8
BLACK
6
CONTINUOUS
10
6.22441
20
-3.95969
11
6.22742
21
-3.96028
0
LINE
8
BLACK
6
CONTINUOUS
10
6.12742
20
-3.86028
11
6.12998
21
-3.86199
0
LINE
8
BLACK
6
CONTINUOUS
10
6.12998
20
-3.86199
11
6.13168
21
-3.86455
0
LINE
8
BLACK
6
CONTINUOUS
10
6.13168
20
-3.86455
11
6.13228
21
-3.86756
0
LINE
8
BLACK
6
CONTINUOUS
10
6.13228
20
-3.86756
11
6.13228
21
-3.92756
0
LINE
8
BLACK
6
CONTINUOUS
10
6.13228
20
-3.92756
11
6.13168
21
-3.93057
0
LINE
8
BLACK
6
CONTINUOUS
10
6.13168
20
-3.93057
11
6.12998
21
-3.93313
0
LINE
8
BLACK
6
CONTINUOUS
10
6.12998
20
-3.93313
11
6.12742
21
-3.93483
0
LINE
8
BLACK
6
CONTINUOUS
10
6.12742
20
-3.93483
11
6.12441
21
-3.93543
0
LINE
8
BLACK
6
CONTINUOUS
10
6.12441
20
-3.93543
11
6.06441
21
-3.93543
0
LINE
8
BLACK
6
CONTINUOUS
10
6.06441
20
-3.93543
11
6.0614
21
-3.93483
0
LINE
8
BLACK
6
CONTINUOUS
10
6.0614
20
-3.93483
11
6.05884
21
-3.93313
0
LINE
8
BLACK
6
CONTINUOUS
10
6.05884
20
-3.93313
11
6.05713
21
-3.93057
0
LINE
8
BLACK
6
CONTINUOUS
10
6.05713
20
-3.93057
11
6.05654
21
-3.92756
0
LINE
8
BLACK
6
CONTINUOUS
10
6.05654
20
-3.92756
11
6.05654
21
-3.86756
0
LINE
8
BLACK
6
CONTINUOUS
10
6.05654
20
-3.86756
11
6.05713
21
-3.86455
0
LINE
8
BLACK
6
CONTINUOUS
10
6.05713
20
-3.86455
11
6.05884
21
-3.86199
0
LINE
8
BLACK
6
CONTINUOUS
10
6.05884
20
-3.86199
11
6.0614
21
-3.86028
0
LINE
8
BLACK
6
CONTINUOUS
10
6.0614
20
-3.86028
11
6.06441
21
-3.85969
0
LINE
8
BLACK
6
CONTINUOUS
10
6.06441
20
-3.85969
11
6.12441
21
-3.85969
0
LINE
8
BLACK
6
CONTINUOUS
10
6.12441
20
-3.85969
11
6.12742
21
-3.86028
0
LINE
8
BLACK
6
CONTINUOUS
10
6.22742
20
-3.86028
11
6.22998
21
-3.86199
0
LINE
8
BLACK
6
CONTINUOUS
10
6.22998
20
-3.86199
11
6.23168
21
-3.86455
0
LINE
8
BLACK
6
CONTINUOUS
10
6.23168
20
-3.86455
11
6.23228
21
-3.86756
0
LINE
8
BLACK
6
CONTINUOUS
10
6.23228
20
-3.86756
11
6.23228
21
-3.92756
0
LINE
8
BLACK
6
CONTINUOUS
10
6.23228
20
-3.92756
11
6.23168
21
-3.93057
0
LINE
8
BLACK
6
CONTINUOUS
10
6.23168
20
-3.93057
11
6.22998
21
-3.93313
0
LINE
8
BLACK
6
CONTINUOUS
10
6.22998
20
-3.93313
11
6.22742
21
-3.93483
0
LINE
8
BLACK
6
CONTINUOUS
10
6.22742
20
-3.93483
11
6.22441
21
-3.93543
0
LINE
8
BLACK
6
CONTINUOUS
10
6.22441
20
-3.93543
11
6.16441
21
-3.93543
0
LINE
8
BLACK
6
CONTINUOUS
10
6.16441
20
-3.93543
11
6.1614
21
-3.93483
0
LINE
8
BLACK
6
CONTINUOUS
10
6.1614
20
-3.93483
11
6.15884
21
-3.93313
0
LINE
8
BLACK
6
CONTINUOUS
10
6.15884
20
-3.93313
11
6.15713
21
-3.93057
0
LINE
8
BLACK
6
CONTINUOUS
10
6.15713
20
-3.93057
11
6.15654
21
-3.92756
0
LINE
8
BLACK
6
CONTINUOUS
10
6.15654
20
-3.92756
11
6.15654
21
-3.86756
0
LINE
8
BLACK
6
CONTINUOUS
10
6.15654
20
-3.86756
11
6.15713
21
-3.86455
0
LINE
8
BLACK
6
CONTINUOUS
10
6.15713
20
-3.86455
11
6.15884
21
-3.86199
0
LINE
8
BLACK
6
CONTINUOUS
10
6.15884
20
-3.86199
11
6.1614
21
-3.86028
0
LINE
8
BLACK
6
CONTINUOUS
10
6.1614
20
-3.86028
11
6.16441
21
-3.85969
0
LINE
8
BLACK
6
CONTINUOUS
10
6.16441
20
-3.85969
11
6.22441
21
-3.85969
0
LINE
8
BLACK
6
CONTINUOUS
10
6.22441
20
-3.85969
11
6.22742
21
-3.86028
0
LINE
8
BLACK
6
CONTINUOUS
10
5.40742
20
-3.83028
11
5.40998
21
-3.83199
0
LINE
8
BLACK
6
CONTINUOUS
10
5.40998
20
-3.83199
11
5.41168
21
-3.83455
0
LINE
8
BLACK
6
CONTINUOUS
10
5.41168
20
-3.83455
11
5.41228
21
-3.83756
0
LINE
8
BLACK
6
CONTINUOUS
10
5.41228
20
-3.83756
11
5.41228
21
-3.89756
0
LINE
8
BLACK
6
CONTINUOUS
10
5.41228
20
-3.89756
11
5.41168
21
-3.90057
0
LINE
8
BLACK
6
CONTINUOUS
10
5.41168
20
-3.90057
11
5.40998
21
-3.90313
0
LINE
8
BLACK
6
CONTINUOUS
10
5.40998
20
-3.90313
11
5.40742
21
-3.90483
0
LINE
8
BLACK
6
CONTINUOUS
10
5.40742
20
-3.90483
11
5.40441
21
-3.90543
0
LINE
8
BLACK
6
CONTINUOUS
10
5.40441
20
-3.90543
11
5.34441
21
-3.90543
0
LINE
8
BLACK
6
CONTINUOUS
10
5.34441
20
-3.90543
11
5.3414
21
-3.90483
0
LINE
8
BLACK
6
CONTINUOUS
10
5.3414
20
-3.90483
11
5.33884
21
-3.90313
0
LINE
8
BLACK
6
CONTINUOUS
10
5.33884
20
-3.90313
11
5.33713
21
-3.90057
0
LINE
8
BLACK
6
CONTINUOUS
10
5.33713
20
-3.90057
11
5.33654
21
-3.89756
0
LINE
8
BLACK
6
CONTINUOUS
10
5.33654
20
-3.89756
11
5.33654
21
-3.83756
0
LINE
8
BLACK
6
CONTINUOUS
10
5.33654
20
-3.83756
11
5.33713
21
-3.83455
0
LINE
8
BLACK
6
CONTINUOUS
10
5.33713
20
-3.83455
11
5.33884
21
-3.83199
0
LINE
8
BLACK
6
CONTINUOUS
10
5.33884
20
-3.83199
11
5.3414
21
-3.83028
0
LINE
8
BLACK
6
CONTINUOUS
10
5.3414
20
-3.83028
11
5.34441
21
-3.82969
0
LINE
8
BLACK
6
CONTINUOUS
10
5.34441
20
-3.82969
11
5.40441
21
-3.82969
0
LINE
8
BLACK
6
CONTINUOUS
10
5.40441
20
-3.82969
11
5.40742
21
-3.83028
0
LINE
8
BLACK
6
CONTINUOUS
10
5.50742
20
-3.83028
11
5.50998
21
-3.83199
0
LINE
8
BLACK
6
CONTINUOUS
10
5.50998
20
-3.83199
11
5.51168
21
-3.83455
0
LINE
8
BLACK
6
CONTINUOUS
10
5.51168
20
-3.83455
11
5.51228
21
-3.83756
0
LINE
8
BLACK
6
CONTINUOUS
10
5.51228
20
-3.83756
11
5.51228
21
-3.89756
0
LINE
8
BLACK
6
CONTINUOUS
10
5.51228
20
-3.89756
11
5.51168
21
-3.90057
0
LINE
8
BLACK
6
CONTINUOUS
10
5.51168
20
-3.90057
11
5.50998
21
-3.90313
0
LINE
8
BLACK
6
CONTINUOUS
10
5.50998
20
-3.90313
11
5.50742
21
-3.90483
0
LINE
8
BLACK
6
CONTINUOUS
10
5.50742
20
-3.90483
11
5.50441
21
-3.90543
0
LINE
8
BLACK
6
CONTINUOUS
10
5.50441
20
-3.90543
11
5.44441
21
-3.90543
0
LINE
8
BLACK
6
CONTINUOUS
10
5.44441
20
-3.90543
11
5.4414
21
-3.90483
0
LINE
8
BLACK
6
CONTINUOUS
10
5.4414
20
-3.90483
11
5.43884
21
-3.90313
0
LINE
8
BLACK
6
CONTINUOUS
10
5.43884
20
-3.90313
11
5.43713
21
-3.90057
0
LINE
8
BLACK
6
CONTINUOUS
10
5.43713
20
-3.90057
11
5.43654
21
-3.89756
0
LINE
8
BLACK
6
CONTINUOUS
10
5.43654
20
-3.89756
11
5.43654
21
-3.83756
0
LINE
8
BLACK
6
CONTINUOUS
10
5.43654
20
-3.83756
11
5.43713
21
-3.83455
0
LINE
8
BLACK
6
CONTINUOUS
10
5.43713
20
-3.83455
11
5.43884
21
-3.83199
0
LINE
8
BLACK
6
CONTINUOUS
10
5.43884
20
-3.83199
11
5.4414
21
-3.83028
0
LINE
8
BLACK
6
CONTINUOUS
10
5.4414
20
-3.83028
11
5.44441
21
-3.82969
0
LINE
8
BLACK
6
CONTINUOUS
10
5.44441
20
-3.82969
11
5.50441
21
-3.82969
0
LINE
8
BLACK
6
CONTINUOUS
10
5.50441
20
-3.82969
11
5.50742
21
-3.83028
0
LINE
8
BLACK
6
CONTINUOUS
10
5.60742
20
-3.83028
11
5.60998
21
-3.83199
0
LINE
8
BLACK
6
CONTINUOUS
10
5.60998
20
-3.83199
11
5.61168
21
-3.83455
0
LINE
8
BLACK
6
CONTINUOUS
10
5.61168
20
-3.83455
11
5.61228
21
-3.83756
0
LINE
8
BLACK
6
CONTINUOUS
10
5.61228
20
-3.83756
11
5.61228
21
-3.89756
0
LINE
8
BLACK
6
CONTINUOUS
10
5.61228
20
-3.89756
11
5.61168
21
-3.90057
0
LINE
8
BLACK
6
CONTINUOUS
10
5.61168
20
-3.90057
11
5.60998
21
-3.90313
0
LINE
8
BLACK
6
CONTINUOUS
10
5.60998
20
-3.90313
11
5.60742
21
-3.90483
0
LINE
8
BLACK
6
CONTINUOUS
10
5.60742
20
-3.90483
11
5.60441
21
-3.90543
0
LINE
8
BLACK
6
CONTINUOUS
10
5.60441
20
-3.90543
11
5.54441
21
-3.90543
0
LINE
8
BLACK
6
CONTINUOUS
10
5.54441
20
-3.90543
11
5.5414
21
-3.90483
0
LINE
8
BLACK
6
CONTINUOUS
10
5.5414
20
-3.90483
11
5.53884
21
-3.90313
0
LINE
8
BLACK
6
CONTINUOUS
10
5.53884
20
-3.90313
11
5.53713
21
-3.90057
0
LINE
8
BLACK
6
CONTINUOUS
10
5.53713
20
-3.90057
11
5.53654
21
-3.89756
0
LINE
8
BLACK
6
CONTINUOUS
10
5.53654
20
-3.89756
11
5.53654
21
-3.83756
0
LINE
8
BLACK
6
CONTINUOUS
10
5.53654
20
-3.83756
11
5.53713
21
-3.83455
0
LINE
8
BLACK
6
CONTINUOUS
10
5.53713
20
-3.83455
11
5.53884
21
-3.83199
0
LINE
8
BLACK
6
CONTINUOUS
10
5.53884
20
-3.83199
11
5.5414
21
-3.83028
0
LINE
8
BLACK
6
CONTINUOUS
10
5.5414
20
-3.83028
11
5.54441
21
-3.82969
0
LINE
8
BLACK
6
CONTINUOUS
10
5.54441
20
-3.82969
11
5.60441
21
-3.82969
0
LINE
8
BLACK
6
CONTINUOUS
10
5.60441
20
-3.82969
11
5.60742
21
-3.83028
0
LINE
8
BLACK
6
CONTINUOUS
10
5.17671
20
-3.80695
11
5.18373
21
-3.80908
0
LINE
8
BLACK
6
CONTINUOUS
10
5.18373
20
-3.80908
11
5.1902
21
-3.81254
0
LINE
8
BLACK
6
CONTINUOUS
10
5.1902
20
-3.81254
11
5.19587
21
-3.8172
0
LINE
8
BLACK
6
CONTINUOUS
10
5.19587
20
-3.8172
11
5.20053
21
-3.82287
0
LINE
8
BLACK
6
CONTINUOUS
10
5.20053
20
-3.82287
11
5.20398
21
-3.82934
0
LINE
8
BLACK
6
CONTINUOUS
10
5.20398
20
-3.82934
11
5.20611
21
-3.83636
0
LINE
8
BLACK
6
CONTINUOUS
10
5.20611
20
-3.83636
11
5.20683
21
-3.84366
0
LINE
8
BLACK
6
CONTINUOUS
10
5.20683
20
-3.84366
11
5.20611
21
-3.85096
0
LINE
8
BLACK
6
CONTINUOUS
10
5.20611
20
-3.85096
11
5.20398
21
-3.85798
0
LINE
8
BLACK
6
CONTINUOUS
10
5.20398
20
-3.85798
11
5.20053
21
-3.86445
0
LINE
8
BLACK
6
CONTINUOUS
10
5.20053
20
-3.86445
11
5.19587
21
-3.87012
0
LINE
8
BLACK
6
CONTINUOUS
10
5.19587
20
-3.87012
11
5.1902
21
-3.87478
0
LINE
8
BLACK
6
CONTINUOUS
10
5.1902
20
-3.87478
11
5.18373
21
-3.87823
0
LINE
8
BLACK
6
CONTINUOUS
10
5.18373
20
-3.87823
11
5.17671
21
-3.88036
0
LINE
8
BLACK
6
CONTINUOUS
10
5.17671
20
-3.88036
11
5.16941
21
-3.88108
0
LINE
8
BLACK
6
CONTINUOUS
10
5.16941
20
-3.88108
11
5.16211
21
-3.88036
0
LINE
8
BLACK
6
CONTINUOUS
10
5.16211
20
-3.88036
11
5.15509
21
-3.87823
0
LINE
8
BLACK
6
CONTINUOUS
10
5.15509
20
-3.87823
11
5.14862
21
-3.87478
0
LINE
8
BLACK
6
CONTINUOUS
10
5.14862
20
-3.87478
11
5.14295
21
-3.87012
0
LINE
8
BLACK
6
CONTINUOUS
10
5.14295
20
-3.87012
11
5.13829
21
-3.86445
0
LINE
8
BLACK
6
CONTINUOUS
10
5.13829
20
-3.86445
11
5.13483
21
-3.85798
0
LINE
8
BLACK
6
CONTINUOUS
10
5.13483
20
-3.85798
11
5.1327
21
-3.85096
0
LINE
8
BLACK
6
CONTINUOUS
10
5.1327
20
-3.85096
11
5.13199
21
-3.84366
0
LINE
8
BLACK
6
CONTINUOUS
10
5.13199
20
-3.84366
11
5.1327
21
-3.83636
0
LINE
8
BLACK
6
CONTINUOUS
10
5.1327
20
-3.83636
11
5.13483
21
-3.82934
0
LINE
8
BLACK
6
CONTINUOUS
10
5.13483
20
-3.82934
11
5.13829
21
-3.82287
0
LINE
8
BLACK
6
CONTINUOUS
10
5.13829
20
-3.82287
11
5.14295
21
-3.8172
0
LINE
8
BLACK
6
CONTINUOUS
10
5.14295
20
-3.8172
11
5.14862
21
-3.81254
0
LINE
8
BLACK
6
CONTINUOUS
10
5.14862
20
-3.81254
11
5.15509
21
-3.80908
0
LINE
8
BLACK
6
CONTINUOUS
10
5.15509
20
-3.80908
11
5.16211
21
-3.80695
0
LINE
8
BLACK
6
CONTINUOUS
10
5.16211
20
-3.80695
11
5.16941
21
-3.80624
0
LINE
8
BLACK
6
CONTINUOUS
10
5.16941
20
-3.80624
11
5.17671
21
-3.80695
0
LINE
8
BLACK
6
CONTINUOUS
10
4.92742
20
-3.77028
11
4.92998
21
-3.77199
0
LINE
8
BLACK
6
CONTINUOUS
10
4.92998
20
-3.77199
11
4.93168
21
-3.77455
0
LINE
8
BLACK
6
CONTINUOUS
10
4.93168
20
-3.77455
11
4.93228
21
-3.77756
0
LINE
8
BLACK
6
CONTINUOUS
10
4.93228
20
-3.77756
11
4.93228
21
-3.83756
0
LINE
8
BLACK
6
CONTINUOUS
10
4.93228
20
-3.83756
11
4.93168
21
-3.84057
0
LINE
8
BLACK
6
CONTINUOUS
10
4.93168
20
-3.84057
11
4.92998
21
-3.84313
0
LINE
8
BLACK
6
CONTINUOUS
10
4.92998
20
-3.84313
11
4.92742
21
-3.84483
0
LINE
8
BLACK
6
CONTINUOUS
10
4.92742
20
-3.84483
11
4.92441
21
-3.84543
0
LINE
8
BLACK
6
CONTINUOUS
10
4.92441
20
-3.84543
11
4.86441
21
-3.84543
0
LINE
8
BLACK
6
CONTINUOUS
10
4.86441
20
-3.84543
11
4.8614
21
-3.84483
0
LINE
8
BLACK
6
CONTINUOUS
10
4.8614
20
-3.84483
11
4.85884
21
-3.84313
0
LINE
8
BLACK
6
CONTINUOUS
10
4.85884
20
-3.84313
11
4.85713
21
-3.84057
0
LINE
8
BLACK
6
CONTINUOUS
10
4.85713
20
-3.84057
11
4.85654
21
-3.83756
0
LINE
8
BLACK
6
CONTINUOUS
10
4.85654
20
-3.83756
11
4.85654
21
-3.77756
0
LINE
8
BLACK
6
CONTINUOUS
10
4.85654
20
-3.77756
11
4.85713
21
-3.77455
0
LINE
8
BLACK
6
CONTINUOUS
10
4.85713
20
-3.77455
11
4.85884
21
-3.77199
0
LINE
8
BLACK
6
CONTINUOUS
10
4.85884
20
-3.77199
11
4.8614
21
-3.77028
0
LINE
8
BLACK
6
CONTINUOUS
10
4.8614
20
-3.77028
11
4.86441
21
-3.76969
0
LINE
8
BLACK
6
CONTINUOUS
10
4.86441
20
-3.76969
11
4.92441
21
-3.76969
0
LINE
8
BLACK
6
CONTINUOUS
10
4.92441
20
-3.76969
11
4.92742
21
-3.77028
0
LINE
8
BLACK
6
CONTINUOUS
10
5.02742
20
-3.77028
11
5.02998
21
-3.77199
0
LINE
8
BLACK
6
CONTINUOUS
10
5.02998
20
-3.77199
11
5.03168
21
-3.77455
0
LINE
8
BLACK
6
CONTINUOUS
10
5.03168
20
-3.77455
11
5.03228
21
-3.77756
0
LINE
8
BLACK
6
CONTINUOUS
10
5.03228
20
-3.77756
11
5.03228
21
-3.83756
0
LINE
8
BLACK
6
CONTINUOUS
10
5.03228
20
-3.83756
11
5.03168
21
-3.84057
0
LINE
8
BLACK
6
CONTINUOUS
10
5.03168
20
-3.84057
11
5.02998
21
-3.84313
0
LINE
8
BLACK
6
CONTINUOUS
10
5.02998
20
-3.84313
11
5.02742
21
-3.84483
0
LINE
8
BLACK
6
CONTINUOUS
10
5.02742
20
-3.84483
11
5.02441
21
-3.84543
0
LINE
8
BLACK
6
CONTINUOUS
10
5.02441
20
-3.84543
11
4.96441
21
-3.84543
0
LINE
8
BLACK
6
CONTINUOUS
10
4.96441
20
-3.84543
11
4.9614
21
-3.84483
0
LINE
8
BLACK
6
CONTINUOUS
10
4.9614
20
-3.84483
11
4.95884
21
-3.84313
0
LINE
8
BLACK
6
CONTINUOUS
10
4.95884
20
-3.84313
11
4.95713
21
-3.84057
0
LINE
8
BLACK
6
CONTINUOUS
10
4.95713
20
-3.84057
11
4.95654
21
-3.83756
0
LINE
8
BLACK
6
CONTINUOUS
10
4.95654
20
-3.83756
11
4.95654
21
-3.77756
0
LINE
8
BLACK
6
CONTINUOUS
10
4.95654
20
-3.77756
11
4.95713
21
-3.77455
0
LINE
8
BLACK
6
CONTINUOUS
10
4.95713
20
-3.77455
11
4.95884
21
-3.77199
0
LINE
8
BLACK
6
CONTINUOUS
10
4.95884
20
-3.77199
11
4.9614
21
-3.77028
0
LINE
8
BLACK
6
CONTINUOUS
10
4.9614
20
-3.77028
11
4.96441
21
-3.76969
0
LINE
8
BLACK
6
CONTINUOUS
10
4.96441
20
-3.76969
11
5.02441
21
-3.76969
0
LINE
8
BLACK
6
CONTINUOUS
10
5.02441
20
-3.76969
11
5.02742
21
-3.77028
0
LINE
8
BLACK
6
CONTINUOUS
10
6.12742
20
-3.76028
11
6.12998
21
-3.76199
0
LINE
8
BLACK
6
CONTINUOUS
10
6.12998
20
-3.76199
11
6.13168
21
-3.76455
0
LINE
8
BLACK
6
CONTINUOUS
10
6.13168
20
-3.76455
11
6.13228
21
-3.76756
0
LINE
8
BLACK
6
CONTINUOUS
10
6.13228
20
-3.76756
11
6.13228
21
-3.82756
0
LINE
8
BLACK
6
CONTINUOUS
10
6.13228
20
-3.82756
11
6.13168
21
-3.83057
0
LINE
8
BLACK
6
CONTINUOUS
10
6.13168
20
-3.83057
11
6.12998
21
-3.83313
0
LINE
8
BLACK
6
CONTINUOUS
10
6.12998
20
-3.83313
11
6.12742
21
-3.83483
0
LINE
8
BLACK
6
CONTINUOUS
10
6.12742
20
-3.83483
11
6.12441
21
-3.83543
0
LINE
8
BLACK
6
CONTINUOUS
10
6.12441
20
-3.83543
11
6.06441
21
-3.83543
0
LINE
8
BLACK
6
CONTINUOUS
10
6.06441
20
-3.83543
11
6.0614
21
-3.83483
0
LINE
8
BLACK
6
CONTINUOUS
10
6.0614
20
-3.83483
11
6.05884
21
-3.83313
0
LINE
8
BLACK
6
CONTINUOUS
10
6.05884
20
-3.83313
11
6.05713
21
-3.83057
0
LINE
8
BLACK
6
CONTINUOUS
10
6.05713
20
-3.83057
11
6.05654
21
-3.82756
0
LINE
8
BLACK
6
CONTINUOUS
10
6.05654
20
-3.82756
11
6.05654
21
-3.76756
0
LINE
8
BLACK
6
CONTINUOUS
10
6.05654
20
-3.76756
11
6.05713
21
-3.76455
0
LINE
8
BLACK
6
CONTINUOUS
10
6.05713
20
-3.76455
11
6.05884
21
-3.76199
0
LINE
8
BLACK
6
CONTINUOUS
10
6.05884
20
-3.76199
11
6.0614
21
-3.76028
0
LINE
8
BLACK
6
CONTINUOUS
10
6.0614
20
-3.76028
11
6.06441
21
-3.75969
0
LINE
8
BLACK
6
CONTINUOUS
10
6.06441
20
-3.75969
11
6.12441
21
-3.75969
0
LINE
8
BLACK
6
CONTINUOUS
10
6.12441
20
-3.75969
11
6.12742
21
-3.76028
0
LINE
8
BLACK
6
CONTINUOUS
10
6.22742
20
-3.76028
11
6.22998
21
-3.76199
0
LINE
8
BLACK
6
CONTINUOUS
10
6.22998
20
-3.76199
11
6.23168
21
-3.76455
0
LINE
8
BLACK
6
CONTINUOUS
10
6.23168
20
-3.76455
11
6.23228
21
-3.76756
0
LINE
8
BLACK
6
CONTINUOUS
10
6.23228
20
-3.76756
11
6.23228
21
-3.82756
0
LINE
8
BLACK
6
CONTINUOUS
10
6.23228
20
-3.82756
11
6.23168
21
-3.83057
0
LINE
8
BLACK
6
CONTINUOUS
10
6.23168
20
-3.83057
11
6.22998
21
-3.83313
0
LINE
8
BLACK
6
CONTINUOUS
10
6.22998
20
-3.83313
11
6.22742
21
-3.83483
0
LINE
8
BLACK
6
CONTINUOUS
10
6.22742
20
-3.83483
11
6.22441
21
-3.83543
0
LINE
8
BLACK
6
CONTINUOUS
10
6.22441
20
-3.83543
11
6.16441
21
-3.83543
0
LINE
8
BLACK
6
CONTINUOUS
10
6.16441
20
-3.83543
11
6.1614
21
-3.83483
0
LINE
8
BLACK
6
CONTINUOUS
10
6.1614
20
-3.83483
11
6.15884
21
-3.83313
0
LINE
8
BLACK
6
CONTINUOUS
10
6.15884
20
-3.83313
11
6.15713
21
-3.83057
0
LINE
8
BLACK
6
CONTINUOUS
10
6.15713
20
-3.83057
11
6.15654
21
-3.82756
0
LINE
8
BLACK
6
CONTINUOUS
10
6.15654
20
-3.82756
11
6.15654
21
-3.76756
0
LINE
8
BLACK
6
CONTINUOUS
10
6.15654
20
-3.76756
11
6.15713
21
-3.76455
0
LINE
8
BLACK
6
CONTINUOUS
10
6.15713
20
-3.76455
11
6.15884
21
-3.76199
0
LINE
8
BLACK
6
CONTINUOUS
10
6.15884
20
-3.76199
11
6.1614
21
-3.76028
0
LINE
8
BLACK
6
CONTINUOUS
10
6.1614
20
-3.76028
11
6.16441
21
-3.75969
0
LINE
8
BLACK
6
CONTINUOUS
10
6.16441
20
-3.75969
11
6.22441
21
-3.75969
0
LINE
8
BLACK
6
CONTINUOUS
10
6.22441
20
-3.75969
11
6.22742
21
-3.76028
0
LINE
8
BLACK
6
CONTINUOUS
10
4.92742
20
-3.67028
11
4.92998
21
-3.67199
0
LINE
8
BLACK
6
CONTINUOUS
10
4.92998
20
-3.67199
11
4.93168
21
-3.67455
0
LINE
8
BLACK
6
CONTINUOUS
10
4.93168
20
-3.67455
11
4.93228
21
-3.67756
0
LINE
8
BLACK
6
CONTINUOUS
10
4.93228
20
-3.67756
11
4.93228
21
-3.73756
0
LINE
8
BLACK
6
CONTINUOUS
10
4.93228
20
-3.73756
11
4.93168
21
-3.74057
0
LINE
8
BLACK
6
CONTINUOUS
10
4.93168
20
-3.74057
11
4.92998
21
-3.74313
0
LINE
8
BLACK
6
CONTINUOUS
10
4.92998
20
-3.74313
11
4.92742
21
-3.74483
0
LINE
8
BLACK
6
CONTINUOUS
10
4.92742
20
-3.74483
11
4.92441
21
-3.74543
0
LINE
8
BLACK
6
CONTINUOUS
10
4.92441
20
-3.74543
11
4.86441
21
-3.74543
0
LINE
8
BLACK
6
CONTINUOUS
10
4.86441
20
-3.74543
11
4.8614
21
-3.74483
0
LINE
8
BLACK
6
CONTINUOUS
10
4.8614
20
-3.74483
11
4.85884
21
-3.74313
0
LINE
8
BLACK
6
CONTINUOUS
10
4.85884
20
-3.74313
11
4.85713
21
-3.74057
0
LINE
8
BLACK
6
CONTINUOUS
10
4.85713
20
-3.74057
11
4.85654
21
-3.73756
0
LINE
8
BLACK
6
CONTINUOUS
10
4.85654
20
-3.73756
11
4.85654
21
-3.67756
0
LINE
8
BLACK
6
CONTINUOUS
10
4.85654
20
-3.67756
11
4.85713
21
-3.67455
0
LINE
8
BLACK
6
CONTINUOUS
10
4.85713
20
-3.67455
11
4.85884
21
-3.67199
0
LINE
8
BLACK
6
CONTINUOUS
10
4.85884
20
-3.67199
11
4.8614
21
-3.67028
0
LINE
8
BLACK
6
CONTINUOUS
10
4.8614
20
-3.67028
11
4.86441
21
-3.66969
0
LINE
8
BLACK
6
CONTINUOUS
10
4.86441
20
-3.66969
11
4.92441
21
-3.66969
0
LINE
8
BLACK
6
CONTINUOUS
10
4.92441
20
-3.66969
11
4.92742
21
-3.67028
0
LINE
8
BLACK
6
CONTINUOUS
10
5.02742
20
-3.67028
11
5.02998
21
-3.67199
0
LINE
8
BLACK
6
CONTINUOUS
10
5.02998
20
-3.67199
11
5.03168
21
-3.67455
0
LINE
8
BLACK
6
CONTINUOUS
10
5.03168
20
-3.67455
11
5.03228
21
-3.67756
0
LINE
8
BLACK
6
CONTINUOUS
10
5.03228
20
-3.67756
11
5.03228
21
-3.73756
0
LINE
8
BLACK
6
CONTINUOUS
10
5.03228
20
-3.73756
11
5.03168
21
-3.74057
0
LINE
8
BLACK
6
CONTINUOUS
10
5.03168
20
-3.74057
11
5.02998
21
-3.74313
0
LINE
8
BLACK
6
CONTINUOUS
10
5.02998
20
-3.74313
11
5.02742
21
-3.74483
0
LINE
8
BLACK
6
CONTINUOUS
10
5.02742
20
-3.74483
11
5.02441
21
-3.74543
0
LINE
8
BLACK
6
CONTINUOUS
10
5.02441
20
-3.74543
11
4.96441
21
-3.74543
0
LINE
8
BLACK
6
CONTINUOUS
10
4.96441
20
-3.74543
11
4.9614
21
-3.74483
0
LINE
8
BLACK
6
CONTINUOUS
10
4.9614
20
-3.74483
11
4.95884
21
-3.74313
0
LINE
8
BLACK
6
CONTINUOUS
10
4.95884
20
-3.74313
11
4.95713
21
-3.74057
0
LINE
8
BLACK
6
CONTINUOUS
10
4.95713
20
-3.74057
11
4.95654
21
-3.73756
0
LINE
8
BLACK
6
CONTINUOUS
10
4.95654
20
-3.73756
11
4.95654
21
-3.67756
0
LINE
8
BLACK
6
CONTINUOUS
10
4.95654
20
-3.67756
11
4.95713
21
-3.67455
0
LINE
8
BLACK
6
CONTINUOUS
10
4.95713
20
-3.67455
11
4.95884
21
-3.67199
0
LINE
8
BLACK
6
CONTINUOUS
10
4.95884
20
-3.67199
11
4.9614
21
-3.67028
0
LINE
8
BLACK
6
CONTINUOUS
10
4.9614
20
-3.67028
11
4.96441
21
-3.66969
0
LINE
8
BLACK
6
CONTINUOUS
10
4.96441
20
-3.66969
11
5.02441
21
-3.66969
0
LINE
8
BLACK
6
CONTINUOUS
10
5.02441
20
-3.66969
11
5.02742
21
-3.67028
0
LINE
8
BLACK
6
CONTINUOUS
10
6.12742
20
-3.66028
11
6.12998
21
-3.66199
0
LINE
8
BLACK
6
CONTINUOUS
10
6.12998
20
-3.66199
11
6.13168
21
-3.66455
0
LINE
8
BLACK
6
CONTINUOUS
10
6.13168
20
-3.66455
11
6.13228
21
-3.66756
0
LINE
8
BLACK
6
CONTINUOUS
10
6.13228
20
-3.66756
11
6.13228
21
-3.72756
0
LINE
8
BLACK
6
CONTINUOUS
10
6.13228
20
-3.72756
11
6.13168
21
-3.73057
0
LINE
8
BLACK
6
CONTINUOUS
10
6.13168
20
-3.73057
11
6.12998
21
-3.73313
0
LINE
8
BLACK
6
CONTINUOUS
10
6.12998
20
-3.73313
11
6.12742
21
-3.73483
0
LINE
8
BLACK
6
CONTINUOUS
10
6.12742
20
-3.73483
11
6.12441
21
-3.73543
0
LINE
8
BLACK
6
CONTINUOUS
10
6.12441
20
-3.73543
11
6.06441
21
-3.73543
0
LINE
8
BLACK
6
CONTINUOUS
10
6.06441
20
-3.73543
11
6.0614
21
-3.73483
0
LINE
8
BLACK
6
CONTINUOUS
10
6.0614
20
-3.73483
11
6.05884
21
-3.73313
0
LINE
8
BLACK
6
CONTINUOUS
10
6.05884
20
-3.73313
11
6.05713
21
-3.73057
0
LINE
8
BLACK
6
CONTINUOUS
10
6.05713
20
-3.73057
11
6.05654
21
-3.72756
0
LINE
8
BLACK
6
CONTINUOUS
10
6.05654
20
-3.72756
11
6.05654
21
-3.66756
0
LINE
8
BLACK
6
CONTINUOUS
10
6.05654
20
-3.66756
11
6.05713
21
-3.66455
0
LINE
8
BLACK
6
CONTINUOUS
10
6.05713
20
-3.66455
11
6.05884
21
-3.66199
0
LINE
8
BLACK
6
CONTINUOUS
10
6.05884
20
-3.66199
11
6.0614
21
-3.66028
0
LINE
8
BLACK
6
CONTINUOUS
10
6.0614
20
-3.66028
11
6.06441
21
-3.65969
0
LINE
8
BLACK
6
CONTINUOUS
10
6.06441
20
-3.65969
11
6.12441
21
-3.65969
0
LINE
8
BLACK
6
CONTINUOUS
10
6.12441
20
-3.65969
11
6.12742
21
-3.66028
0
LINE
8
BLACK
6
CONTINUOUS
10
6.22742
20
-3.66028
11
6.22998
21
-3.66199
0
LINE
8
BLACK
6
CONTINUOUS
10
6.22998
20
-3.66199
11
6.23168
21
-3.66455
0
LINE
8
BLACK
6
CONTINUOUS
10
6.23168
20
-3.66455
11
6.23228
21
-3.66756
0
LINE
8
BLACK
6
CONTINUOUS
10
6.23228
20
-3.66756
11
6.23228
21
-3.72756
0
LINE
8
BLACK
6
CONTINUOUS
10
6.23228
20
-3.72756
11
6.23168
21
-3.73057
0
LINE
8
BLACK
6
CONTINUOUS
10
6.23168
20
-3.73057
11
6.22998
21
-3.73313
0
LINE
8
BLACK
6
CONTINUOUS
10
6.22998
20
-3.73313
11
6.22742
21
-3.73483
0
LINE
8
BLACK
6
CONTINUOUS
10
6.22742
20
-3.73483
11
6.22441
21
-3.73543
0
LINE
8
BLACK
6
CONTINUOUS
10
6.22441
20
-3.73543
11
6.16441
21
-3.73543
0
LINE
8
BLACK
6
CONTINUOUS
10
6.16441
20
-3.73543
11
6.1614
21
-3.73483
0
LINE
8
BLACK
6
CONTINUOUS
10
6.1614
20
-3.73483
11
6.15884
21
-3.73313
0
LINE
8
BLACK
6
CONTINUOUS
10
6.15884
20
-3.73313
11
6.15713
21
-3.73057
0
LINE
8
BLACK
6
CONTINUOUS
10
6.15713
20
-3.73057
11
6.15654
21
-3.72756
0
LINE
8
BLACK
6
CONTINUOUS
10
6.15654
20
-3.72756
11
6.15654
21
-3.66756
0
LINE
8
BLACK
6
CONTINUOUS
10
6.15654
20
-3.66756
11
6.15713
21
-3.66455
0
LINE
8
BLACK
6
CONTINUOUS
10
6.15713
20
-3.66455
11
6.15884
21
-3.66199
0
LINE
8
BLACK
6
CONTINUOUS
10
6.15884
20
-3.66199
11
6.1614
21
-3.66028
0
LINE
8
BLACK
6
CONTINUOUS
10
6.1614
20
-3.66028
11
6.16441
21
-3.65969
0
LINE
8
BLACK
6
CONTINUOUS
10
6.16441
20
-3.65969
11
6.22441
21
-3.65969
0
LINE
8
BLACK
6
CONTINUOUS
10
6.22441
20
-3.65969
11
6.22742
21
-3.66028
0
LINE
8
BLACK
6
CONTINUOUS
10
5.17671
20
-3.61475
11
5.18373
21
-3.61688
0
LINE
8
BLACK
6
CONTINUOUS
10
5.18373
20
-3.61688
11
5.1902
21
-3.62034
0
LINE
8
BLACK
6
CONTINUOUS
10
5.1902
20
-3.62034
11
5.19587
21
-3.625
0
LINE
8
BLACK
6
CONTINUOUS
10
5.19587
20
-3.625
11
5.20053
21
-3.63067
0
LINE
8
BLACK
6
CONTINUOUS
10
5.20053
20
-3.63067
11
5.20398
21
-3.63714
0
LINE
8
BLACK
6
CONTINUOUS
10
5.20398
20
-3.63714
11
5.20611
21
-3.64416
0
LINE
8
BLACK
6
CONTINUOUS
10
5.20611
20
-3.64416
11
5.20683
21
-3.65146
0
LINE
8
BLACK
6
CONTINUOUS
10
5.20683
20
-3.65146
11
5.20611
21
-3.65876
0
LINE
8
BLACK
6
CONTINUOUS
10
5.20611
20
-3.65876
11
5.20398
21
-3.66578
0
LINE
8
BLACK
6
CONTINUOUS
10
5.20398
20
-3.66578
11
5.20053
21
-3.67225
0
LINE
8
BLACK
6
CONTINUOUS
10
5.20053
20
-3.67225
11
5.19587
21
-3.67792
0
LINE
8
BLACK
6
CONTINUOUS
10
5.19587
20
-3.67792
11
5.1902
21
-3.68258
0
LINE
8
BLACK
6
CONTINUOUS
10
5.1902
20
-3.68258
11
5.18373
21
-3.68603
0
LINE
8
BLACK
6
CONTINUOUS
10
5.18373
20
-3.68603
11
5.17671
21
-3.68816
0
LINE
8
BLACK
6
CONTINUOUS
10
5.17671
20
-3.68816
11
5.16941
21
-3.68888
0
LINE
8
BLACK
6
CONTINUOUS
10
5.16941
20
-3.68888
11
5.16211
21
-3.68816
0
LINE
8
BLACK
6
CONTINUOUS
10
5.16211
20
-3.68816
11
5.15509
21
-3.68603
0
LINE
8
BLACK
6
CONTINUOUS
10
5.15509
20
-3.68603
11
5.14862
21
-3.68258
0
LINE
8
BLACK
6
CONTINUOUS
10
5.14862
20
-3.68258
11
5.14295
21
-3.67792
0
LINE
8
BLACK
6
CONTINUOUS
10
5.14295
20
-3.67792
11
5.13829
21
-3.67225
0
LINE
8
BLACK
6
CONTINUOUS
10
5.13829
20
-3.67225
11
5.13483
21
-3.66578
0
LINE
8
BLACK
6
CONTINUOUS
10
5.13483
20
-3.66578
11
5.1327
21
-3.65876
0
LINE
8
BLACK
6
CONTINUOUS
10
5.1327
20
-3.65876
11
5.13199
21
-3.65146
0
LINE
8
BLACK
6
CONTINUOUS
10
5.13199
20
-3.65146
11
5.1327
21
-3.64416
0
LINE
8
BLACK
6
CONTINUOUS
10
5.1327
20
-3.64416
11
5.13483
21
-3.63714
0
LINE
8
BLACK
6
CONTINUOUS
10
5.13483
20
-3.63714
11
5.13829
21
-3.63067
0
LINE
8
BLACK
6
CONTINUOUS
10
5.13829
20
-3.63067
11
5.14295
21
-3.625
0
LINE
8
BLACK
6
CONTINUOUS
10
5.14295
20
-3.625
11
5.14862
21
-3.62034
0
LINE
8
BLACK
6
CONTINUOUS
10
5.14862
20
-3.62034
11
5.15509
21
-3.61688
0
LINE
8
BLACK
6
CONTINUOUS
10
5.15509
20
-3.61688
11
5.16211
21
-3.61475
0
LINE
8
BLACK
6
CONTINUOUS
10
5.16211
20
-3.61475
11
5.16941
21
-3.61404
0
LINE
8
BLACK
6
CONTINUOUS
10
5.16941
20
-3.61404
11
5.17671
21
-3.61475
0
LINE
8
BLACK
6
CONTINUOUS
10
4.92742
20
-3.57028
11
4.92998
21
-3.57199
0
LINE
8
BLACK
6
CONTINUOUS
10
4.92998
20
-3.57199
11
4.93168
21
-3.57455
0
LINE
8
BLACK
6
CONTINUOUS
10
4.93168
20
-3.57455
11
4.93228
21
-3.57756
0
LINE
8
BLACK
6
CONTINUOUS
10
4.93228
20
-3.57756
11
4.93228
21
-3.63756
0
LINE
8
BLACK
6
CONTINUOUS
10
4.93228
20
-3.63756
11
4.93168
21
-3.64057
0
LINE
8
BLACK
6
CONTINUOUS
10
4.93168
20
-3.64057
11
4.92998
21
-3.64313
0
LINE
8
BLACK
6
CONTINUOUS
10
4.92998
20
-3.64313
11
4.92742
21
-3.64483
0
LINE
8
BLACK
6
CONTINUOUS
10
4.92742
20
-3.64483
11
4.92441
21
-3.64543
0
LINE
8
BLACK
6
CONTINUOUS
10
4.92441
20
-3.64543
11
4.86441
21
-3.64543
0
LINE
8
BLACK
6
CONTINUOUS
10
4.86441
20
-3.64543
11
4.8614
21
-3.64483
0
LINE
8
BLACK
6
CONTINUOUS
10
4.8614
20
-3.64483
11
4.85884
21
-3.64313
0
LINE
8
BLACK
6
CONTINUOUS
10
4.85884
20
-3.64313
11
4.85713
21
-3.64057
0
LINE
8
BLACK
6
CONTINUOUS
10
4.85713
20
-3.64057
11
4.85654
21
-3.63756
0
LINE
8
BLACK
6
CONTINUOUS
10
4.85654
20
-3.63756
11
4.85654
21
-3.57756
0
LINE
8
BLACK
6
CONTINUOUS
10
4.85654
20
-3.57756
11
4.85713
21
-3.57455
0
LINE
8
BLACK
6
CONTINUOUS
10
4.85713
20
-3.57455
11
4.85884
21
-3.57199
0
LINE
8
BLACK
6
CONTINUOUS
10
4.85884
20
-3.57199
11
4.8614
21
-3.57028
0
LINE
8
BLACK
6
CONTINUOUS
10
4.8614
20
-3.57028
11
4.86441
21
-3.56969
0
LINE
8
BLACK
6
CONTINUOUS
10
4.86441
20
-3.56969
11
4.92441
21
-3.56969
0
LINE
8
BLACK
6
CONTINUOUS
10
4.92441
20
-3.56969
11
4.92742
21
-3.57028
0
LINE
8
BLACK
6
CONTINUOUS
10
5.02742
20
-3.57028
11
5.02998
21
-3.57199
0
LINE
8
BLACK
6
CONTINUOUS
10
5.02998
20
-3.57199
11
5.03168
21
-3.57455
0
LINE
8
BLACK
6
CONTINUOUS
10
5.03168
20
-3.57455
11
5.03228
21
-3.57756
0
LINE
8
BLACK
6
CONTINUOUS
10
5.03228
20
-3.57756
11
5.03228
21
-3.63756
0
LINE
8
BLACK
6
CONTINUOUS
10
5.03228
20
-3.63756
11
5.03168
21
-3.64057
0
LINE
8
BLACK
6
CONTINUOUS
10
5.03168
20
-3.64057
11
5.02998
21
-3.64313
0
LINE
8
BLACK
6
CONTINUOUS
10
5.02998
20
-3.64313
11
5.02742
21
-3.64483
0
LINE
8
BLACK
6
CONTINUOUS
10
5.02742
20
-3.64483
11
5.02441
21
-3.64543
0
LINE
8
BLACK
6
CONTINUOUS
10
5.02441
20
-3.64543
11
4.96441
21
-3.64543
0
LINE
8
BLACK
6
CONTINUOUS
10
4.96441
20
-3.64543
11
4.9614
21
-3.64483
0
LINE
8
BLACK
6
CONTINUOUS
10
4.9614
20
-3.64483
11
4.95884
21
-3.64313
0
LINE
8
BLACK
6
CONTINUOUS
10
4.95884
20
-3.64313
11
4.95713
21
-3.64057
0
LINE
8
BLACK
6
CONTINUOUS
10
4.95713
20
-3.64057
11
4.95654
21
-3.63756
0
LINE
8
BLACK
6
CONTINUOUS
10
4.95654
20
-3.63756
11
4.95654
21
-3.57756
0
LINE
8
BLACK
6
CONTINUOUS
10
4.95654
20
-3.57756
11
4.95713
21
-3.57455
0
LINE
8
BLACK
6
CONTINUOUS
10
4.95713
20
-3.57455
11
4.95884
21
-3.57199
0
LINE
8
BLACK
6
CONTINUOUS
10
4.95884
20
-3.57199
11
4.9614
21
-3.57028
0
LINE
8
BLACK
6
CONTINUOUS
10
4.9614
20
-3.57028
11
4.96441
21
-3.56969
0
LINE
8
BLACK
6
CONTINUOUS
10
4.96441
20
-3.56969
11
5.02441
21
-3.56969
0
LINE
8
BLACK
6
CONTINUOUS
10
5.02441
20
-3.56969
11
5.02742
21
-3.57028
0
LINE
8
BLACK
6
CONTINUOUS
10
6.12742
20
-3.56028
11
6.12998
21
-3.56199
0
LINE
8
BLACK
6
CONTINUOUS
10
6.12998
20
-3.56199
11
6.13168
21
-3.56455
0
LINE
8
BLACK
6
CONTINUOUS
10
6.13168
20
-3.56455
11
6.13228
21
-3.56756
0
LINE
8
BLACK
6
CONTINUOUS
10
6.13228
20
-3.56756
11
6.13228
21
-3.62756
0
LINE
8
BLACK
6
CONTINUOUS
10
6.13228
20
-3.62756
11
6.13168
21
-3.63057
0
LINE
8
BLACK
6
CONTINUOUS
10
6.13168
20
-3.63057
11
6.12998
21
-3.63313
0
LINE
8
BLACK
6
CONTINUOUS
10
6.12998
20
-3.63313
11
6.12742
21
-3.63483
0
LINE
8
BLACK
6
CONTINUOUS
10
6.12742
20
-3.63483
11
6.12441
21
-3.63543
0
LINE
8
BLACK
6
CONTINUOUS
10
6.12441
20
-3.63543
11
6.06441
21
-3.63543
0
LINE
8
BLACK
6
CONTINUOUS
10
6.06441
20
-3.63543
11
6.0614
21
-3.63483
0
LINE
8
BLACK
6
CONTINUOUS
10
6.0614
20
-3.63483
11
6.05884
21
-3.63313
0
LINE
8
BLACK
6
CONTINUOUS
10
6.05884
20
-3.63313
11
6.05713
21
-3.63057
0
LINE
8
BLACK
6
CONTINUOUS
10
6.05713
20
-3.63057
11
6.05654
21
-3.62756
0
LINE
8
BLACK
6
CONTINUOUS
10
6.05654
20
-3.62756
11
6.05654
21
-3.56756
0
LINE
8
BLACK
6
CONTINUOUS
10
6.05654
20
-3.56756
11
6.05713
21
-3.56455
0
LINE
8
BLACK
6
CONTINUOUS
10
6.05713
20
-3.56455
11
6.05884
21
-3.56199
0
LINE
8
BLACK
6
CONTINUOUS
10
6.05884
20
-3.56199
11
6.0614
21
-3.56028
0
LINE
8
BLACK
6
CONTINUOUS
10
6.0614
20
-3.56028
11
6.06441
21
-3.55969
0
LINE
8
BLACK
6
CONTINUOUS
10
6.06441
20
-3.55969
11
6.12441
21
-3.55969
0
LINE
8
BLACK
6
CONTINUOUS
10
6.12441
20
-3.55969
11
6.12742
21
-3.56028
0
LINE
8
BLACK
6
CONTINUOUS
10
6.22742
20
-3.56028
11
6.22998
21
-3.56199
0
LINE
8
BLACK
6
CONTINUOUS
10
6.22998
20
-3.56199
11
6.23168
21
-3.56455
0
LINE
8
BLACK
6
CONTINUOUS
10
6.23168
20
-3.56455
11
6.23228
21
-3.56756
0
LINE
8
BLACK
6
CONTINUOUS
10
6.23228
20
-3.56756
11
6.23228
21
-3.62756
0
LINE
8
BLACK
6
CONTINUOUS
10
6.23228
20
-3.62756
11
6.23168
21
-3.63057
0
LINE
8
BLACK
6
CONTINUOUS
10
6.23168
20
-3.63057
11
6.22998
21
-3.63313
0
LINE
8
BLACK
6
CONTINUOUS
10
6.22998
20
-3.63313
11
6.22742
21
-3.63483
0
LINE
8
BLACK
6
CONTINUOUS
10
6.22742
20
-3.63483
11
6.22441
21
-3.63543
0
LINE
8
BLACK
6
CONTINUOUS
10
6.22441
20
-3.63543
11
6.16441
21
-3.63543
0
LINE
8
BLACK
6
CONTINUOUS
10
6.16441
20
-3.63543
11
6.1614
21
-3.63483
0
LINE
8
BLACK
6
CONTINUOUS
10
6.1614
20
-3.63483
11
6.15884
21
-3.63313
0
LINE
8
BLACK
6
CONTINUOUS
10
6.15884
20
-3.63313
11
6.15713
21
-3.63057
0
LINE
8
BLACK
6
CONTINUOUS
10
6.15713
20
-3.63057
11
6.15654
21
-3.62756
0
LINE
8
BLACK
6
CONTINUOUS
10
6.15654
20
-3.62756
11
6.15654
21
-3.56756
0
LINE
8
BLACK
6
CONTINUOUS
10
6.15654
20
-3.56756
11
6.15713
21
-3.56455
0
LINE
8
BLACK
6
CONTINUOUS
10
6.15713
20
-3.56455
11
6.15884
21
-3.56199
0
LINE
8
BLACK
6
CONTINUOUS
10
6.15884
20
-3.56199
11
6.1614
21
-3.56028
0
LINE
8
BLACK
6
CONTINUOUS
10
6.1614
20
-3.56028
11
6.16441
21
-3.55969
0
LINE
8
BLACK
6
CONTINUOUS
10
6.16441
20
-3.55969
11
6.22441
21
-3.55969
0
LINE
8
BLACK
6
CONTINUOUS
10
6.22441
20
-3.55969
11
6.22742
21
-3.56028
0
LINE
8
BLACK
6
CONTINUOUS
10
4.92742
20
-3.47028
11
4.92998
21
-3.47199
0
LINE
8
BLACK
6
CONTINUOUS
10
4.92998
20
-3.47199
11
4.93168
21
-3.47455
0
LINE
8
BLACK
6
CONTINUOUS
10
4.93168
20
-3.47455
11
4.93228
21
-3.47756
0
LINE
8
BLACK
6
CONTINUOUS
10
4.93228
20
-3.47756
11
4.93228
21
-3.53756
0
LINE
8
BLACK
6
CONTINUOUS
10
4.93228
20
-3.53756
11
4.93168
21
-3.54057
0
LINE
8
BLACK
6
CONTINUOUS
10
4.93168
20
-3.54057
11
4.92998
21
-3.54313
0
LINE
8
BLACK
6
CONTINUOUS
10
4.92998
20
-3.54313
11
4.92742
21
-3.54483
0
LINE
8
BLACK
6
CONTINUOUS
10
4.92742
20
-3.54483
11
4.92441
21
-3.54543
0
LINE
8
BLACK
6
CONTINUOUS
10
4.92441
20
-3.54543
11
4.86441
21
-3.54543
0
LINE
8
BLACK
6
CONTINUOUS
10
4.86441
20
-3.54543
11
4.8614
21
-3.54483
0
LINE
8
BLACK
6
CONTINUOUS
10
4.8614
20
-3.54483
11
4.85884
21
-3.54313
0
LINE
8
BLACK
6
CONTINUOUS
10
4.85884
20
-3.54313
11
4.85713
21
-3.54057
0
LINE
8
BLACK
6
CONTINUOUS
10
4.85713
20
-3.54057
11
4.85654
21
-3.53756
0
LINE
8
BLACK
6
CONTINUOUS
10
4.85654
20
-3.53756
11
4.85654
21
-3.47756
0
LINE
8
BLACK
6
CONTINUOUS
10
4.85654
20
-3.47756
11
4.85713
21
-3.47455
0
LINE
8
BLACK
6
CONTINUOUS
10
4.85713
20
-3.47455
11
4.85884
21
-3.47199
0
LINE
8
BLACK
6
CONTINUOUS
10
4.85884
20
-3.47199
11
4.8614
21
-3.47028
0
LINE
8
BLACK
6
CONTINUOUS
10
4.8614
20
-3.47028
11
4.86441
21
-3.46969
0
LINE
8
BLACK
6
CONTINUOUS
10
4.86441
20
-3.46969
11
4.92441
21
-3.46969
0
LINE
8
BLACK
6
CONTINUOUS
10
4.92441
20
-3.46969
11
4.92742
21
-3.47028
0
LINE
8
BLACK
6
CONTINUOUS
10
5.02742
20
-3.47028
11
5.02998
21
-3.47199
0
LINE
8
BLACK
6
CONTINUOUS
10
5.02998
20
-3.47199
11
5.03168
21
-3.47455
0
LINE
8
BLACK
6
CONTINUOUS
10
5.03168
20
-3.47455
11
5.03228
21
-3.47756
0
LINE
8
BLACK
6
CONTINUOUS
10
5.03228
20
-3.47756
11
5.03228
21
-3.53756
0
LINE
8
BLACK
6
CONTINUOUS
10
5.03228
20
-3.53756
11
5.03168
21
-3.54057
0
LINE
8
BLACK
6
CONTINUOUS
10
5.03168
20
-3.54057
11
5.02998
21
-3.54313
0
LINE
8
BLACK
6
CONTINUOUS
10
5.02998
20
-3.54313
11
5.02742
21
-3.54483
0
LINE
8
BLACK
6
CONTINUOUS
10
5.02742
20
-3.54483
11
5.02441
21
-3.54543
0
LINE
8
BLACK
6
CONTINUOUS
10
5.02441
20
-3.54543
11
4.96441
21
-3.54543
0
LINE
8
BLACK
6
CONTINUOUS
10
4.96441
20
-3.54543
11
4.9614
21
-3.54483
0
LINE
8
BLACK
6
CONTINUOUS
10
4.9614
20
-3.54483
11
4.95884
21
-3.54313
0
LINE
8
BLACK
6
CONTINUOUS
10
4.95884
20
-3.54313
11
4.95713
21
-3.54057
0
LINE
8
BLACK
6
CONTINUOUS
10
4.95713
20
-3.54057
11
4.95654
21
-3.53756
0
LINE
8
BLACK
6
CONTINUOUS
10
4.95654
20
-3.53756
11
4.95654
21
-3.47756
0
LINE
8
BLACK
6
CONTINUOUS
10
4.95654
20
-3.47756
11
4.95713
21
-3.47455
0
LINE
8
BLACK
6
CONTINUOUS
10
4.95713
20
-3.47455
11
4.95884
21
-3.47199
0
LINE
8
BLACK
6
CONTINUOUS
10
4.95884
20
-3.47199
11
4.9614
21
-3.47028
0
LINE
8
BLACK
6
CONTINUOUS
10
4.9614
20
-3.47028
11
4.96441
21
-3.46969
0
LINE
8
BLACK
6
CONTINUOUS
10
4.96441
20
-3.46969
11
5.02441
21
-3.46969
0
LINE
8
BLACK
6
CONTINUOUS
10
5.02441
20
-3.46969
11
5.02742
21
-3.47028
0
LINE
8
BLACK
6
CONTINUOUS
10
6.12742
20
-3.46028
11
6.12998
21
-3.46199
0
LINE
8
BLACK
6
CONTINUOUS
10
6.12998
20
-3.46199
11
6.13168
21
-3.46455
0
LINE
8
BLACK
6
CONTINUOUS
10
6.13168
20
-3.46455
11
6.13228
21
-3.46756
0
LINE
8
BLACK
6
CONTINUOUS
10
6.13228
20
-3.46756
11
6.13228
21
-3.52756
0
LINE
8
BLACK
6
CONTINUOUS
10
6.13228
20
-3.52756
11
6.13168
21
-3.53057
0
LINE
8
BLACK
6
CONTINUOUS
10
6.13168
20
-3.53057
11
6.12998
21
-3.53313
0
LINE
8
BLACK
6
CONTINUOUS
10
6.12998
20
-3.53313
11
6.12742
21
-3.53483
0
LINE
8
BLACK
6
CONTINUOUS
10
6.12742
20
-3.53483
11
6.12441
21
-3.53543
0
LINE
8
BLACK
6
CONTINUOUS
10
6.12441
20
-3.53543
11
6.06441
21
-3.53543
0
LINE
8
BLACK
6
CONTINUOUS
10
6.06441
20
-3.53543
11
6.0614
21
-3.53483
0
LINE
8
BLACK
6
CONTINUOUS
10
6.0614
20
-3.53483
11
6.05884
21
-3.53313
0
LINE
8
BLACK
6
CONTINUOUS
10
6.05884
20
-3.53313
11
6.05713
21
-3.53057
0
LINE
8
BLACK
6
CONTINUOUS
10
6.05713
20
-3.53057
11
6.05654
21
-3.52756
0
LINE
8
BLACK
6
CONTINUOUS
10
6.05654
20
-3.52756
11
6.05654
21
-3.46756
0
LINE
8
BLACK
6
CONTINUOUS
10
6.05654
20
-3.46756
11
6.05713
21
-3.46455
0
LINE
8
BLACK
6
CONTINUOUS
10
6.05713
20
-3.46455
11
6.05884
21
-3.46199
0
LINE
8
BLACK
6
CONTINUOUS
10
6.05884
20
-3.46199
11
6.0614
21
-3.46028
0
LINE
8
BLACK
6
CONTINUOUS
10
6.0614
20
-3.46028
11
6.06441
21
-3.45969
0
LINE
8
BLACK
6
CONTINUOUS
10
6.06441
20
-3.45969
11
6.12441
21
-3.45969
0
LINE
8
BLACK
6
CONTINUOUS
10
6.12441
20
-3.45969
11
6.12742
21
-3.46028
0
LINE
8
BLACK
6
CONTINUOUS
10
6.22742
20
-3.46028
11
6.22998
21
-3.46199
0
LINE
8
BLACK
6
CONTINUOUS
10
6.22998
20
-3.46199
11
6.23168
21
-3.46455
0
LINE
8
BLACK
6
CONTINUOUS
10
6.23168
20
-3.46455
11
6.23228
21
-3.46756
0
LINE
8
BLACK
6
CONTINUOUS
10
6.23228
20
-3.46756
11
6.23228
21
-3.52756
0
LINE
8
BLACK
6
CONTINUOUS
10
6.23228
20
-3.52756
11
6.23168
21
-3.53057
0
LINE
8
BLACK
6
CONTINUOUS
10
6.23168
20
-3.53057
11
6.22998
21
-3.53313
0
LINE
8
BLACK
6
CONTINUOUS
10
6.22998
20
-3.53313
11
6.22742
21
-3.53483
0
LINE
8
BLACK
6
CONTINUOUS
10
6.22742
20
-3.53483
11
6.22441
21
-3.53543
0
LINE
8
BLACK
6
CONTINUOUS
10
6.22441
20
-3.53543
11
6.16441
21
-3.53543
0
LINE
8
BLACK
6
CONTINUOUS
10
6.16441
20
-3.53543
11
6.1614
21
-3.53483
0
LINE
8
BLACK
6
CONTINUOUS
10
6.1614
20
-3.53483
11
6.15884
21
-3.53313
0
LINE
8
BLACK
6
CONTINUOUS
10
6.15884
20
-3.53313
11
6.15713
21
-3.53057
0
LINE
8
BLACK
6
CONTINUOUS
10
6.15713
20
-3.53057
11
6.15654
21
-3.52756
0
LINE
8
BLACK
6
CONTINUOUS
10
6.15654
20
-3.52756
11
6.15654
21
-3.46756
0
LINE
8
BLACK
6
CONTINUOUS
10
6.15654
20
-3.46756
11
6.15713
21
-3.46455
0
LINE
8
BLACK
6
CONTINUOUS
10
6.15713
20
-3.46455
11
6.15884
21
-3.46199
0
LINE
8
BLACK
6
CONTINUOUS
10
6.15884
20
-3.46199
11
6.1614
21
-3.46028
0
LINE
8
BLACK
6
CONTINUOUS
10
6.1614
20
-3.46028
11
6.16441
21
-3.45969
0
LINE
8
BLACK
6
CONTINUOUS
10
6.16441
20
-3.45969
11
6.22441
21
-3.45969
0
LINE
8
BLACK
6
CONTINUOUS
10
6.22441
20
-3.45969
11
6.22742
21
-3.46028
0
LINE
8
BLACK
6
CONTINUOUS
10
4.92742
20
-3.37028
11
4.92998
21
-3.37199
0
LINE
8
BLACK
6
CONTINUOUS
10
4.92998
20
-3.37199
11
4.93168
21
-3.37455
0
LINE
8
BLACK
6
CONTINUOUS
10
4.93168
20
-3.37455
11
4.93228
21
-3.37756
0
LINE
8
BLACK
6
CONTINUOUS
10
4.93228
20
-3.37756
11
4.93228
21
-3.43756
0
LINE
8
BLACK
6
CONTINUOUS
10
4.93228
20
-3.43756
11
4.93168
21
-3.44057
0
LINE
8
BLACK
6
CONTINUOUS
10
4.93168
20
-3.44057
11
4.92998
21
-3.44313
0
LINE
8
BLACK
6
CONTINUOUS
10
4.92998
20
-3.44313
11
4.92742
21
-3.44483
0
LINE
8
BLACK
6
CONTINUOUS
10
4.92742
20
-3.44483
11
4.92441
21
-3.44543
0
LINE
8
BLACK
6
CONTINUOUS
10
4.92441
20
-3.44543
11
4.86441
21
-3.44543
0
LINE
8
BLACK
6
CONTINUOUS
10
4.86441
20
-3.44543
11
4.8614
21
-3.44483
0
LINE
8
BLACK
6
CONTINUOUS
10
4.8614
20
-3.44483
11
4.85884
21
-3.44313
0
LINE
8
BLACK
6
CONTINUOUS
10
4.85884
20
-3.44313
11
4.85713
21
-3.44057
0
LINE
8
BLACK
6
CONTINUOUS
10
4.85713
20
-3.44057
11
4.85654
21
-3.43756
0
LINE
8
BLACK
6
CONTINUOUS
10
4.85654
20
-3.43756
11
4.85654
21
-3.37756
0
LINE
8
BLACK
6
CONTINUOUS
10
4.85654
20
-3.37756
11
4.85713
21
-3.37455
0
LINE
8
BLACK
6
CONTINUOUS
10
4.85713
20
-3.37455
11
4.85884
21
-3.37199
0
LINE
8
BLACK
6
CONTINUOUS
10
4.85884
20
-3.37199
11
4.8614
21
-3.37028
0
LINE
8
BLACK
6
CONTINUOUS
10
4.8614
20
-3.37028
11
4.86441
21
-3.36969
0
LINE
8
BLACK
6
CONTINUOUS
10
4.86441
20
-3.36969
11
4.92441
21
-3.36969
0
LINE
8
BLACK
6
CONTINUOUS
10
4.92441
20
-3.36969
11
4.92742
21
-3.37028
0
LINE
8
BLACK
6
CONTINUOUS
10
5.02742
20
-3.37028
11
5.02998
21
-3.37199
0
LINE
8
BLACK
6
CONTINUOUS
10
5.02998
20
-3.37199
11
5.03168
21
-3.37455
0
LINE
8
BLACK
6
CONTINUOUS
10
5.03168
20
-3.37455
11
5.03228
21
-3.37756
0
LINE
8
BLACK
6
CONTINUOUS
10
5.03228
20
-3.37756
11
5.03228
21
-3.43756
0
LINE
8
BLACK
6
CONTINUOUS
10
5.03228
20
-3.43756
11
5.03168
21
-3.44057
0
LINE
8
BLACK
6
CONTINUOUS
10
5.03168
20
-3.44057
11
5.02998
21
-3.44313
0
LINE
8
BLACK
6
CONTINUOUS
10
5.02998
20
-3.44313
11
5.02742
21
-3.44483
0
LINE
8
BLACK
6
CONTINUOUS
10
5.02742
20
-3.44483
11
5.02441
21
-3.44543
0
LINE
8
BLACK
6
CONTINUOUS
10
5.02441
20
-3.44543
11
4.96441
21
-3.44543
0
LINE
8
BLACK
6
CONTINUOUS
10
4.96441
20
-3.44543
11
4.9614
21
-3.44483
0
LINE
8
BLACK
6
CONTINUOUS
10
4.9614
20
-3.44483
11
4.95884
21
-3.44313
0
LINE
8
BLACK
6
CONTINUOUS
10
4.95884
20
-3.44313
11
4.95713
21
-3.44057
0
LINE
8
BLACK
6
CONTINUOUS
10
4.95713
20
-3.44057
11
4.95654
21
-3.43756
0
LINE
8
BLACK
6
CONTINUOUS
10
4.95654
20
-3.43756
11
4.95654
21
-3.37756
0
LINE
8
BLACK
6
CONTINUOUS
10
4.95654
20
-3.37756
11
4.95713
21
-3.37455
0
LINE
8
BLACK
6
CONTINUOUS
10
4.95713
20
-3.37455
11
4.95884
21
-3.37199
0
LINE
8
BLACK
6
CONTINUOUS
10
4.95884
20
-3.37199
11
4.9614
21
-3.37028
0
LINE
8
BLACK
6
CONTINUOUS
10
4.9614
20
-3.37028
11
4.96441
21
-3.36969
0
LINE
8
BLACK
6
CONTINUOUS
10
4.96441
20
-3.36969
11
5.02441
21
-3.36969
0
LINE
8
BLACK
6
CONTINUOUS
10
5.02441
20
-3.36969
11
5.02742
21
-3.37028
0
LINE
8
BLACK
6
CONTINUOUS
10
6.12742
20
-3.36028
11
6.12998
21
-3.36199
0
LINE
8
BLACK
6
CONTINUOUS
10
6.12998
20
-3.36199
11
6.13168
21
-3.36455
0
LINE
8
BLACK
6
CONTINUOUS
10
6.13168
20
-3.36455
11
6.13228
21
-3.36756
0
LINE
8
BLACK
6
CONTINUOUS
10
6.13228
20
-3.36756
11
6.13228
21
-3.42756
0
LINE
8
BLACK
6
CONTINUOUS
10
6.13228
20
-3.42756
11
6.13168
21
-3.43057
0
LINE
8
BLACK
6
CONTINUOUS
10
6.13168
20
-3.43057
11
6.12998
21
-3.43313
0
LINE
8
BLACK
6
CONTINUOUS
10
6.12998
20
-3.43313
11
6.12742
21
-3.43483
0
LINE
8
BLACK
6
CONTINUOUS
10
6.12742
20
-3.43483
11
6.12441
21
-3.43543
0
LINE
8
BLACK
6
CONTINUOUS
10
6.12441
20
-3.43543
11
6.06441
21
-3.43543
0
LINE
8
BLACK
6
CONTINUOUS
10
6.06441
20
-3.43543
11
6.0614
21
-3.43483
0
LINE
8
BLACK
6
CONTINUOUS
10
6.0614
20
-3.43483
11
6.05884
21
-3.43313
0
LINE
8
BLACK
6
CONTINUOUS
10
6.05884
20
-3.43313
11
6.05713
21
-3.43057
0
LINE
8
BLACK
6
CONTINUOUS
10
6.05713
20
-3.43057
11
6.05654
21
-3.42756
0
LINE
8
BLACK
6
CONTINUOUS
10
6.05654
20
-3.42756
11
6.05654
21
-3.36756
0
LINE
8
BLACK
6
CONTINUOUS
10
6.05654
20
-3.36756
11
6.05713
21
-3.36455
0
LINE
8
BLACK
6
CONTINUOUS
10
6.05713
20
-3.36455
11
6.05884
21
-3.36199
0
LINE
8
BLACK
6
CONTINUOUS
10
6.05884
20
-3.36199
11
6.0614
21
-3.36028
0
LINE
8
BLACK
6
CONTINUOUS
10
6.0614
20
-3.36028
11
6.06441
21
-3.35969
0
LINE
8
BLACK
6
CONTINUOUS
10
6.06441
20
-3.35969
11
6.12441
21
-3.35969
0
LINE
8
BLACK
6
CONTINUOUS
10
6.12441
20
-3.35969
11
6.12742
21
-3.36028
0
LINE
8
BLACK
6
CONTINUOUS
10
6.22742
20
-3.36028
11
6.22998
21
-3.36199
0
LINE
8
BLACK
6
CONTINUOUS
10
6.22998
20
-3.36199
11
6.23168
21
-3.36455
0
LINE
8
BLACK
6
CONTINUOUS
10
6.23168
20
-3.36455
11
6.23228
21
-3.36756
0
LINE
8
BLACK
6
CONTINUOUS
10
6.23228
20
-3.36756
11
6.23228
21
-3.42756
0
LINE
8
BLACK
6
CONTINUOUS
10
6.23228
20
-3.42756
11
6.23168
21
-3.43057
0
LINE
8
BLACK
6
CONTINUOUS
10
6.23168
20
-3.43057
11
6.22998
21
-3.43313
0
LINE
8
BLACK
6
CONTINUOUS
10
6.22998
20
-3.43313
11
6.22742
21
-3.43483
0
LINE
8
BLACK
6
CONTINUOUS
10
6.22742
20
-3.43483
11
6.22441
21
-3.43543
0
LINE
8
BLACK
6
CONTINUOUS
10
6.22441
20
-3.43543
11
6.16441
21
-3.43543
0
LINE
8
BLACK
6
CONTINUOUS
10
6.16441
20
-3.43543
11
6.1614
21
-3.43483
0
LINE
8
BLACK
6
CONTINUOUS
10
6.1614
20
-3.43483
11
6.15884
21
-3.43313
0
LINE
8
BLACK
6
CONTINUOUS
10
6.15884
20
-3.43313
11
6.15713
21
-3.43057
0
LINE
8
BLACK
6
CONTINUOUS
10
6.15713
20
-3.43057
11
6.15654
21
-3.42756
0
LINE
8
BLACK
6
CONTINUOUS
10
6.15654
20
-3.42756
11
6.15654
21
-3.36756
0
LINE
8
BLACK
6
CONTINUOUS
10
6.15654
20
-3.36756
11
6.15713
21
-3.36455
0
LINE
8
BLACK
6
CONTINUOUS
10
6.15713
20
-3.36455
11
6.15884
21
-3.36199
0
LINE
8
BLACK
6
CONTINUOUS
10
6.15884
20
-3.36199
11
6.1614
21
-3.36028
0
LINE
8
BLACK
6
CONTINUOUS
10
6.1614
20
-3.36028
11
6.16441
21
-3.35969
0
LINE
8
BLACK
6
CONTINUOUS
10
6.16441
20
-3.35969
11
6.22441
21
-3.35969
0
LINE
8
BLACK
6
CONTINUOUS
10
6.22441
20
-3.35969
11
6.22742
21
-3.36028
0
LINE
8
BLACK
6
CONTINUOUS
10
4.93852
20
-3.00237
11
4.95244
21
-3.00473
0
LINE
8
BLACK
6
CONTINUOUS
10
4.95244
20
-3.00473
11
4.96602
21
-3.00864
0
LINE
8
BLACK
6
CONTINUOUS
10
4.96602
20
-3.00864
11
4.97907
21
-3.01405
0
LINE
8
BLACK
6
CONTINUOUS
10
4.97907
20
-3.01405
11
4.99144
21
-3.02089
0
LINE
8
BLACK
6
CONTINUOUS
10
4.99144
20
-3.02089
11
5.00296
21
-3.02906
0
LINE
8
BLACK
6
CONTINUOUS
10
5.00296
20
-3.02906
11
5.01349
21
-3.03847
0
LINE
8
BLACK
6
CONTINUOUS
10
5.01349
20
-3.03847
11
5.02291
21
-3.04901
0
LINE
8
BLACK
6
CONTINUOUS
10
5.02291
20
-3.04901
11
5.03108
21
-3.06053
0
LINE
8
BLACK
6
CONTINUOUS
10
5.03108
20
-3.06053
11
5.03792
21
-3.0729
0
LINE
8
BLACK
6
CONTINUOUS
10
5.03792
20
-3.0729
11
5.04332
21
-3.08595
0
LINE
8
BLACK
6
CONTINUOUS
10
5.04332
20
-3.08595
11
5.04723
21
-3.09952
0
LINE
8
BLACK
6
CONTINUOUS
10
5.04723
20
-3.09952
11
5.0496
21
-3.11345
0
LINE
8
BLACK
6
CONTINUOUS
10
5.0496
20
-3.11345
11
5.05039
21
-3.12756
0
LINE
8
BLACK
6
CONTINUOUS
10
5.05039
20
-3.12756
11
5.0496
21
-3.14166
0
LINE
8
BLACK
6
CONTINUOUS
10
5.0496
20
-3.14166
11
5.04723
21
-3.15559
0
LINE
8
BLACK
6
CONTINUOUS
10
5.04723
20
-3.15559
11
5.04332
21
-3.16917
0
LINE
8
BLACK
6
CONTINUOUS
10
5.04332
20
-3.16917
11
5.03792
21
-3.18222
0
LINE
8
BLACK
6
CONTINUOUS
10
5.03792
20
-3.18222
11
5.03108
21
-3.19459
0
LINE
8
BLACK
6
CONTINUOUS
10
5.03108
20
-3.19459
11
5.02291
21
-3.20611
0
LINE
8
BLACK
6
CONTINUOUS
10
5.02291
20
-3.20611
11
5.01349
21
-3.21664
0
LINE
8
BLACK
6
CONTINUOUS
10
5.01349
20
-3.21664
11
5.00296
21
-3.22606
0
LINE
8
BLACK
6
CONTINUOUS
10
5.00296
20
-3.22606
11
4.99144
21
-3.23423
0
LINE
8
BLACK
6
CONTINUOUS
10
4.99144
20
-3.23423
11
4.97907
21
-3.24107
0
LINE
8
BLACK
6
CONTINUOUS
10
4.97907
20
-3.24107
11
4.96602
21
-3.24647
0
LINE
8
BLACK
6
CONTINUOUS
10
4.96602
20
-3.24647
11
4.95244
21
-3.25038
0
LINE
8
BLACK
6
CONTINUOUS
10
4.95244
20
-3.25038
11
4.93852
21
-3.25275
0
LINE
8
BLACK
6
CONTINUOUS
10
4.93852
20
-3.25275
11
4.92441
21
-3.25354
0
LINE
8
BLACK
6
CONTINUOUS
10
4.92441
20
-3.25354
11
4.9103
21
-3.25275
0
LINE
8
BLACK
6
CONTINUOUS
10
4.9103
20
-3.25275
11
4.89638
21
-3.25038
0
LINE
8
BLACK
6
CONTINUOUS
10
4.89638
20
-3.25038
11
4.8828
21
-3.24647
0
LINE
8
BLACK
6
CONTINUOUS
10
4.8828
20
-3.24647
11
4.86975
21
-3.24107
0
LINE
8
BLACK
6
CONTINUOUS
10
4.86975
20
-3.24107
11
4.85738
21
-3.23423
0
LINE
8
BLACK
6
CONTINUOUS
10
4.85738
20
-3.23423
11
4.84586
21
-3.22606
0
LINE
8
BLACK
6
CONTINUOUS
10
4.84586
20
-3.22606
11
4.83533
21
-3.21664
0
LINE
8
BLACK
6
CONTINUOUS
10
4.83533
20
-3.21664
11
4.82591
21
-3.20611
0
LINE
8
BLACK
6
CONTINUOUS
10
4.82591
20
-3.20611
11
4.81774
21
-3.19459
0
LINE
8
BLACK
6
CONTINUOUS
10
4.81774
20
-3.19459
11
4.8109
21
-3.18222
0
LINE
8
BLACK
6
CONTINUOUS
10
4.8109
20
-3.18222
11
4.80549
21
-3.16917
0
LINE
8
BLACK
6
CONTINUOUS
10
4.80549
20
-3.16917
11
4.80158
21
-3.15559
0
LINE
8
BLACK
6
CONTINUOUS
10
4.80158
20
-3.15559
11
4.79922
21
-3.14166
0
LINE
8
BLACK
6
CONTINUOUS
10
4.79922
20
-3.14166
11
4.79843
21
-3.12756
0
LINE
8
BLACK
6
CONTINUOUS
10
4.79843
20
-3.12756
11
4.79922
21
-3.11345
0
LINE
8
BLACK
6
CONTINUOUS
10
4.79922
20
-3.11345
11
4.80158
21
-3.09952
0
LINE
8
BLACK
6
CONTINUOUS
10
4.80158
20
-3.09952
11
4.80549
21
-3.08595
0
LINE
8
BLACK
6
CONTINUOUS
10
4.80549
20
-3.08595
11
4.8109
21
-3.0729
0
LINE
8
BLACK
6
CONTINUOUS
10
4.8109
20
-3.0729
11
4.81774
21
-3.06053
0
LINE
8
BLACK
6
CONTINUOUS
10
4.81774
20
-3.06053
11
4.82591
21
-3.04901
0
LINE
8
BLACK
6
CONTINUOUS
10
4.82591
20
-3.04901
11
4.83533
21
-3.03847
0
LINE
8
BLACK
6
CONTINUOUS
10
4.83533
20
-3.03847
11
4.84586
21
-3.02906
0
LINE
8
BLACK
6
CONTINUOUS
10
4.84586
20
-3.02906
11
4.85738
21
-3.02089
0
LINE
8
BLACK
6
CONTINUOUS
10
4.85738
20
-3.02089
11
4.86975
21
-3.01405
0
LINE
8
BLACK
6
CONTINUOUS
10
4.86975
20
-3.01405
11
4.8828
21
-3.00864
0
LINE
8
BLACK
6
CONTINUOUS
10
4.8828
20
-3.00864
11
4.89638
21
-3.00473
0
LINE
8
BLACK
6
CONTINUOUS
10
4.89638
20
-3.00473
11
4.9103
21
-3.00237
0
LINE
8
BLACK
6
CONTINUOUS
10
4.9103
20
-3.00237
11
4.92441
21
-3.00157
0
LINE
8
BLACK
6
CONTINUOUS
10
4.92441
20
-3.00157
11
4.93852
21
-3.00237
0
LINE
8
BLACK
6
CONTINUOUS
10
6.13852
20
-3.00237
11
6.15244
21
-3.00473
0
LINE
8
BLACK
6
CONTINUOUS
10
6.15244
20
-3.00473
11
6.16602
21
-3.00864
0
LINE
8
BLACK
6
CONTINUOUS
10
6.16602
20
-3.00864
11
6.17907
21
-3.01405
0
LINE
8
BLACK
6
CONTINUOUS
10
6.17907
20
-3.01405
11
6.19144
21
-3.02089
0
LINE
8
BLACK
6
CONTINUOUS
10
6.19144
20
-3.02089
11
6.20296
21
-3.02906
0
LINE
8
BLACK
6
CONTINUOUS
10
6.20296
20
-3.02906
11
6.21349
21
-3.03847
0
LINE
8
BLACK
6
CONTINUOUS
10
6.21349
20
-3.03847
11
6.22291
21
-3.04901
0
LINE
8
BLACK
6
CONTINUOUS
10
6.22291
20
-3.04901
11
6.23108
21
-3.06053
0
LINE
8
BLACK
6
CONTINUOUS
10
6.23108
20
-3.06053
11
6.23792
21
-3.0729
0
LINE
8
BLACK
6
CONTINUOUS
10
6.23792
20
-3.0729
11
6.24332
21
-3.08595
0
LINE
8
BLACK
6
CONTINUOUS
10
6.24332
20
-3.08595
11
6.24723
21
-3.09952
0
LINE
8
BLACK
6
CONTINUOUS
10
6.24723
20
-3.09952
11
6.2496
21
-3.11345
0
LINE
8
BLACK
6
CONTINUOUS
10
6.2496
20
-3.11345
11
6.25039
21
-3.12756
0
LINE
8
BLACK
6
CONTINUOUS
10
6.25039
20
-3.12756
11
6.2496
21
-3.14166
0
LINE
8
BLACK
6
CONTINUOUS
10
6.2496
20
-3.14166
11
6.24723
21
-3.15559
0
LINE
8
BLACK
6
CONTINUOUS
10
6.24723
20
-3.15559
11
6.24332
21
-3.16917
0
LINE
8
BLACK
6
CONTINUOUS
10
6.24332
20
-3.16917
11
6.23792
21
-3.18222
0
LINE
8
BLACK
6
CONTINUOUS
10
6.23792
20
-3.18222
11
6.23108
21
-3.19459
0
LINE
8
BLACK
6
CONTINUOUS
10
6.23108
20
-3.19459
11
6.22291
21
-3.20611
0
LINE
8
BLACK
6
CONTINUOUS
10
6.22291
20
-3.20611
11
6.21349
21
-3.21664
0
LINE
8
BLACK
6
CONTINUOUS
10
6.21349
20
-3.21664
11
6.20296
21
-3.22606
0
LINE
8
BLACK
6
CONTINUOUS
10
6.20296
20
-3.22606
11
6.19144
21
-3.23423
0
LINE
8
BLACK
6
CONTINUOUS
10
6.19144
20
-3.23423
11
6.17907
21
-3.24107
0
LINE
8
BLACK
6
CONTINUOUS
10
6.17907
20
-3.24107
11
6.16602
21
-3.24647
0
LINE
8
BLACK
6
CONTINUOUS
10
6.16602
20
-3.24647
11
6.15244
21
-3.25038
0
LINE
8
BLACK
6
CONTINUOUS
10
6.15244
20
-3.25038
11
6.13852
21
-3.25275
0
LINE
8
BLACK
6
CONTINUOUS
10
6.13852
20
-3.25275
11
6.12441
21
-3.25354
0
LINE
8
BLACK
6
CONTINUOUS
10
6.12441
20
-3.25354
11
6.1103
21
-3.25275
0
LINE
8
BLACK
6
CONTINUOUS
10
6.1103
20
-3.25275
11
6.09638
21
-3.25038
0
LINE
8
BLACK
6
CONTINUOUS
10
6.09638
20
-3.25038
11
6.0828
21
-3.24647
0
LINE
8
BLACK
6
CONTINUOUS
10
6.0828
20
-3.24647
11
6.06975
21
-3.24107
0
LINE
8
BLACK
6
CONTINUOUS
10
6.06975
20
-3.24107
11
6.05738
21
-3.23423
0
LINE
8
BLACK
6
CONTINUOUS
10
6.05738
20
-3.23423
11
6.04586
21
-3.22606
0
LINE
8
BLACK
6
CONTINUOUS
10
6.04586
20
-3.22606
11
6.03533
21
-3.21664
0
LINE
8
BLACK
6
CONTINUOUS
10
6.03533
20
-3.21664
11
6.02591
21
-3.20611
0
LINE
8
BLACK
6
CONTINUOUS
10
6.02591
20
-3.20611
11
6.01774
21
-3.19459
0
LINE
8
BLACK
6
CONTINUOUS
10
6.01774
20
-3.19459
11
6.0109
21
-3.18222
0
LINE
8
BLACK
6
CONTINUOUS
10
6.0109
20
-3.18222
11
6.00549
21
-3.16917
0
LINE
8
BLACK
6
CONTINUOUS
10
6.00549
20
-3.16917
11
6.00158
21
-3.15559
0
LINE
8
BLACK
6
CONTINUOUS
10
6.00158
20
-3.15559
11
5.99922
21
-3.14166
0
LINE
8
BLACK
6
CONTINUOUS
10
5.99922
20
-3.14166
11
5.99843
21
-3.12756
0
LINE
8
BLACK
6
CONTINUOUS
10
5.99843
20
-3.12756
11
5.99922
21
-3.11345
0
LINE
8
BLACK
6
CONTINUOUS
10
5.99922
20
-3.11345
11
6.00158
21
-3.09952
0
LINE
8
BLACK
6
CONTINUOUS
10
6.00158
20
-3.09952
11
6.00549
21
-3.08595
0
LINE
8
BLACK
6
CONTINUOUS
10
6.00549
20
-3.08595
11
6.0109
21
-3.0729
0
LINE
8
BLACK
6
CONTINUOUS
10
6.0109
20
-3.0729
11
6.01774
21
-3.06053
0
LINE
8
BLACK
6
CONTINUOUS
10
6.01774
20
-3.06053
11
6.02591
21
-3.04901
0
LINE
8
BLACK
6
CONTINUOUS
10
6.02591
20
-3.04901
11
6.03533
21
-3.03847
0
LINE
8
BLACK
6
CONTINUOUS
10
6.03533
20
-3.03847
11
6.04586
21
-3.02906
0
LINE
8
BLACK
6
CONTINUOUS
10
6.04586
20
-3.02906
11
6.05738
21
-3.02089
0
LINE
8
BLACK
6
CONTINUOUS
10
6.05738
20
-3.02089
11
6.06975
21
-3.01405
0
LINE
8
BLACK
6
CONTINUOUS
10
6.06975
20
-3.01405
11
6.0828
21
-3.00864
0
LINE
8
BLACK
6
CONTINUOUS
10
6.0828
20
-3.00864
11
6.09638
21
-3.00473
0
LINE
8
BLACK
6
CONTINUOUS
10
6.09638
20
-3.00473
11
6.1103
21
-3.00237
0
LINE
8
BLACK
6
CONTINUOUS
10
6.1103
20
-3.00237
11
6.12441
21
-3.00157
0
LINE
8
BLACK
6
CONTINUOUS
10
6.12441
20
-3.00157
11
6.13852
21
-3.00237
0
LINE
8
BLACK
6
CONTINUOUS
10
5.20992
20
-3.12028
11
5.21248
21
-3.12199
0
LINE
8
BLACK
6
CONTINUOUS
10
5.21248
20
-3.12199
11
5.21418
21
-3.12455
0
LINE
8
BLACK
6
CONTINUOUS
10
5.21418
20
-3.12455
11
5.21478
21
-3.12756
0
LINE
8
BLACK
6
CONTINUOUS
10
5.21478
20
-3.12756
11
5.21478
21
-3.18756
0
LINE
8
BLACK
6
CONTINUOUS
10
5.21478
20
-3.18756
11
5.21418
21
-3.19057
0
LINE
8
BLACK
6
CONTINUOUS
10
5.21418
20
-3.19057
11
5.21248
21
-3.19313
0
LINE
8
BLACK
6
CONTINUOUS
10
5.21248
20
-3.19313
11
5.20992
21
-3.19483
0
LINE
8
BLACK
6
CONTINUOUS
10
5.20992
20
-3.19483
11
5.20691
21
-3.19543
0
LINE
8
BLACK
6
CONTINUOUS
10
5.20691
20
-3.19543
11
5.14691
21
-3.19543
0
LINE
8
BLACK
6
CONTINUOUS
10
5.14691
20
-3.19543
11
5.1439
21
-3.19483
0
LINE
8
BLACK
6
CONTINUOUS
10
5.1439
20
-3.19483
11
5.14134
21
-3.19313
0
LINE
8
BLACK
6
CONTINUOUS
10
5.14134
20
-3.19313
11
5.13963
21
-3.19057
0
LINE
8
BLACK
6
CONTINUOUS
10
5.13963
20
-3.19057
11
5.13904
21
-3.18756
0
LINE
8
BLACK
6
CONTINUOUS
10
5.13904
20
-3.18756
11
5.13904
21
-3.12756
0
LINE
8
BLACK
6
CONTINUOUS
10
5.13904
20
-3.12756
11
5.13963
21
-3.12455
0
LINE
8
BLACK
6
CONTINUOUS
10
5.13963
20
-3.12455
11
5.14134
21
-3.12199
0
LINE
8
BLACK
6
CONTINUOUS
10
5.14134
20
-3.12199
11
5.1439
21
-3.12028
0
LINE
8
BLACK
6
CONTINUOUS
10
5.1439
20
-3.12028
11
5.14691
21
-3.11969
0
LINE
8
BLACK
6
CONTINUOUS
10
5.14691
20
-3.11969
11
5.20691
21
-3.11969
0
LINE
8
BLACK
6
CONTINUOUS
10
5.20691
20
-3.11969
11
5.20992
21
-3.12028
0
LINE
8
BLACK
6
CONTINUOUS
10
5.30992
20
-3.12028
11
5.31248
21
-3.12199
0
LINE
8
BLACK
6
CONTINUOUS
10
5.31248
20
-3.12199
11
5.31418
21
-3.12455
0
LINE
8
BLACK
6
CONTINUOUS
10
5.31418
20
-3.12455
11
5.31478
21
-3.12756
0
LINE
8
BLACK
6
CONTINUOUS
10
5.31478
20
-3.12756
11
5.31478
21
-3.18756
0
LINE
8
BLACK
6
CONTINUOUS
10
5.31478
20
-3.18756
11
5.31418
21
-3.19057
0
LINE
8
BLACK
6
CONTINUOUS
10
5.31418
20
-3.19057
11
5.31248
21
-3.19313
0
LINE
8
BLACK
6
CONTINUOUS
10
5.31248
20
-3.19313
11
5.30992
21
-3.19483
0
LINE
8
BLACK
6
CONTINUOUS
10
5.30992
20
-3.19483
11
5.30691
21
-3.19543
0
LINE
8
BLACK
6
CONTINUOUS
10
5.30691
20
-3.19543
11
5.24691
21
-3.19543
0
LINE
8
BLACK
6
CONTINUOUS
10
5.24691
20
-3.19543
11
5.2439
21
-3.19483
0
LINE
8
BLACK
6
CONTINUOUS
10
5.2439
20
-3.19483
11
5.24134
21
-3.19313
0
LINE
8
BLACK
6
CONTINUOUS
10
5.24134
20
-3.19313
11
5.23963
21
-3.19057
0
LINE
8
BLACK
6
CONTINUOUS
10
5.23963
20
-3.19057
11
5.23904
21
-3.18756
0
LINE
8
BLACK
6
CONTINUOUS
10
5.23904
20
-3.18756
11
5.23904
21
-3.12756
0
LINE
8
BLACK
6
CONTINUOUS
10
5.23904
20
-3.12756
11
5.23963
21
-3.12455
0
LINE
8
BLACK
6
CONTINUOUS
10
5.23963
20
-3.12455
11
5.24134
21
-3.12199
0
LINE
8
BLACK
6
CONTINUOUS
10
5.24134
20
-3.12199
11
5.2439
21
-3.12028
0
LINE
8
BLACK
6
CONTINUOUS
10
5.2439
20
-3.12028
11
5.24691
21
-3.11969
0
LINE
8
BLACK
6
CONTINUOUS
10
5.24691
20
-3.11969
11
5.30691
21
-3.11969
0
LINE
8
BLACK
6
CONTINUOUS
10
5.30691
20
-3.11969
11
5.30992
21
-3.12028
0
LINE
8
BLACK
6
CONTINUOUS
10
5.40992
20
-3.12028
11
5.41248
21
-3.12199
0
LINE
8
BLACK
6
CONTINUOUS
10
5.41248
20
-3.12199
11
5.41418
21
-3.12455
0
LINE
8
BLACK
6
CONTINUOUS
10
5.41418
20
-3.12455
11
5.41478
21
-3.12756
0
LINE
8
BLACK
6
CONTINUOUS
10
5.41478
20
-3.12756
11
5.41478
21
-3.18756
0
LINE
8
BLACK
6
CONTINUOUS
10
5.41478
20
-3.18756
11
5.41418
21
-3.19057
0
LINE
8
BLACK
6
CONTINUOUS
10
5.41418
20
-3.19057
11
5.41248
21
-3.19313
0
LINE
8
BLACK
6
CONTINUOUS
10
5.41248
20
-3.19313
11
5.40992
21
-3.19483
0
LINE
8
BLACK
6
CONTINUOUS
10
5.40992
20
-3.19483
11
5.40691
21
-3.19543
0
LINE
8
BLACK
6
CONTINUOUS
10
5.40691
20
-3.19543
11
5.34691
21
-3.19543
0
LINE
8
BLACK
6
CONTINUOUS
10
5.34691
20
-3.19543
11
5.3439
21
-3.19483
0
LINE
8
BLACK
6
CONTINUOUS
10
5.3439
20
-3.19483
11
5.34134
21
-3.19313
0
LINE
8
BLACK
6
CONTINUOUS
10
5.34134
20
-3.19313
11
5.33963
21
-3.19057
0
LINE
8
BLACK
6
CONTINUOUS
10
5.33963
20
-3.19057
11
5.33904
21
-3.18756
0
LINE
8
BLACK
6
CONTINUOUS
10
5.33904
20
-3.18756
11
5.33904
21
-3.12756
0
LINE
8
BLACK
6
CONTINUOUS
10
5.33904
20
-3.12756
11
5.33963
21
-3.12455
0
LINE
8
BLACK
6
CONTINUOUS
10
5.33963
20
-3.12455
11
5.34134
21
-3.12199
0
LINE
8
BLACK
6
CONTINUOUS
10
5.34134
20
-3.12199
11
5.3439
21
-3.12028
0
LINE
8
BLACK
6
CONTINUOUS
10
5.3439
20
-3.12028
11
5.34691
21
-3.11969
0
LINE
8
BLACK
6
CONTINUOUS
10
5.34691
20
-3.11969
11
5.40691
21
-3.11969
0
LINE
8
BLACK
6
CONTINUOUS
10
5.40691
20
-3.11969
11
5.40992
21
-3.12028
0
LINE
8
BLACK
6
CONTINUOUS
10
5.50992
20
-3.12028
11
5.51248
21
-3.12199
0
LINE
8
BLACK
6
CONTINUOUS
10
5.51248
20
-3.12199
11
5.51418
21
-3.12455
0
LINE
8
BLACK
6
CONTINUOUS
10
5.51418
20
-3.12455
11
5.51478
21
-3.12756
0
LINE
8
BLACK
6
CONTINUOUS
10
5.51478
20
-3.12756
11
5.51478
21
-3.18756
0
LINE
8
BLACK
6
CONTINUOUS
10
5.51478
20
-3.18756
11
5.51418
21
-3.19057
0
LINE
8
BLACK
6
CONTINUOUS
10
5.51418
20
-3.19057
11
5.51248
21
-3.19313
0
LINE
8
BLACK
6
CONTINUOUS
10
5.51248
20
-3.19313
11
5.50992
21
-3.19483
0
LINE
8
BLACK
6
CONTINUOUS
10
5.50992
20
-3.19483
11
5.50691
21
-3.19543
0
LINE
8
BLACK
6
CONTINUOUS
10
5.50691
20
-3.19543
11
5.44691
21
-3.19543
0
LINE
8
BLACK
6
CONTINUOUS
10
5.44691
20
-3.19543
11
5.4439
21
-3.19483
0
LINE
8
BLACK
6
CONTINUOUS
10
5.4439
20
-3.19483
11
5.44134
21
-3.19313
0
LINE
8
BLACK
6
CONTINUOUS
10
5.44134
20
-3.19313
11
5.43963
21
-3.19057
0
LINE
8
BLACK
6
CONTINUOUS
10
5.43963
20
-3.19057
11
5.43904
21
-3.18756
0
LINE
8
BLACK
6
CONTINUOUS
10
5.43904
20
-3.18756
11
5.43904
21
-3.12756
0
LINE
8
BLACK
6
CONTINUOUS
10
5.43904
20
-3.12756
11
5.43963
21
-3.12455
0
LINE
8
BLACK
6
CONTINUOUS
10
5.43963
20
-3.12455
11
5.44134
21
-3.12199
0
LINE
8
BLACK
6
CONTINUOUS
10
5.44134
20
-3.12199
11
5.4439
21
-3.12028
0
LINE
8
BLACK
6
CONTINUOUS
10
5.4439
20
-3.12028
11
5.44691
21
-3.11969
0
LINE
8
BLACK
6
CONTINUOUS
10
5.44691
20
-3.11969
11
5.50691
21
-3.11969
0
LINE
8
BLACK
6
CONTINUOUS
10
5.50691
20
-3.11969
11
5.50992
21
-3.12028
0
LINE
8
BLACK
6
CONTINUOUS
10
5.60992
20
-3.12028
11
5.61248
21
-3.12199
0
LINE
8
BLACK
6
CONTINUOUS
10
5.61248
20
-3.12199
11
5.61418
21
-3.12455
0
LINE
8
BLACK
6
CONTINUOUS
10
5.61418
20
-3.12455
11
5.61478
21
-3.12756
0
LINE
8
BLACK
6
CONTINUOUS
10
5.61478
20
-3.12756
11
5.61478
21
-3.18756
0
LINE
8
BLACK
6
CONTINUOUS
10
5.61478
20
-3.18756
11
5.61418
21
-3.19057
0
LINE
8
BLACK
6
CONTINUOUS
10
5.61418
20
-3.19057
11
5.61248
21
-3.19313
0
LINE
8
BLACK
6
CONTINUOUS
10
5.61248
20
-3.19313
11
5.60992
21
-3.19483
0
LINE
8
BLACK
6
CONTINUOUS
10
5.60992
20
-3.19483
11
5.60691
21
-3.19543
0
LINE
8
BLACK
6
CONTINUOUS
10
5.60691
20
-3.19543
11
5.54691
21
-3.19543
0
LINE
8
BLACK
6
CONTINUOUS
10
5.54691
20
-3.19543
11
5.5439
21
-3.19483
0
LINE
8
BLACK
6
CONTINUOUS
10
5.5439
20
-3.19483
11
5.54134
21
-3.19313
0
LINE
8
BLACK
6
CONTINUOUS
10
5.54134
20
-3.19313
11
5.53963
21
-3.19057
0
LINE
8
BLACK
6
CONTINUOUS
10
5.53963
20
-3.19057
11
5.53904
21
-3.18756
0
LINE
8
BLACK
6
CONTINUOUS
10
5.53904
20
-3.18756
11
5.53904
21
-3.12756
0
LINE
8
BLACK
6
CONTINUOUS
10
5.53904
20
-3.12756
11
5.53963
21
-3.12455
0
LINE
8
BLACK
6
CONTINUOUS
10
5.53963
20
-3.12455
11
5.54134
21
-3.12199
0
LINE
8
BLACK
6
CONTINUOUS
10
5.54134
20
-3.12199
11
5.5439
21
-3.12028
0
LINE
8
BLACK
6
CONTINUOUS
10
5.5439
20
-3.12028
11
5.54691
21
-3.11969
0
LINE
8
BLACK
6
CONTINUOUS
10
5.54691
20
-3.11969
11
5.60691
21
-3.11969
0
LINE
8
BLACK
6
CONTINUOUS
10
5.60691
20
-3.11969
11
5.60992
21
-3.12028
0
LINE
8
BLACK
6
CONTINUOUS
10
5.71051
20
-3.12023
11
5.71307
21
-3.12193
0
LINE
8
BLACK
6
CONTINUOUS
10
5.71307
20
-3.12193
11
5.71477
21
-3.12449
0
LINE
8
BLACK
6
CONTINUOUS
10
5.71477
20
-3.12449
11
5.71537
21
-3.1275
0
LINE
8
BLACK
6
CONTINUOUS
10
5.71537
20
-3.1275
11
5.71537
21
-3.1875
0
LINE
8
BLACK
6
CONTINUOUS
10
5.71537
20
-3.1875
11
5.71477
21
-3.19051
0
LINE
8
BLACK
6
CONTINUOUS
10
5.71477
20
-3.19051
11
5.71307
21
-3.19307
0
LINE
8
BLACK
6
CONTINUOUS
10
5.71307
20
-3.19307
11
5.71051
21
-3.19477
0
LINE
8
BLACK
6
CONTINUOUS
10
5.71051
20
-3.19477
11
5.7075
21
-3.19537
0
LINE
8
BLACK
6
CONTINUOUS
10
5.7075
20
-3.19537
11
5.6475
21
-3.19537
0
LINE
8
BLACK
6
CONTINUOUS
10
5.6475
20
-3.19537
11
5.64449
21
-3.19477
0
LINE
8
BLACK
6
CONTINUOUS
10
5.64449
20
-3.19477
11
5.64193
21
-3.19307
0
LINE
8
BLACK
6
CONTINUOUS
10
5.64193
20
-3.19307
11
5.64023
21
-3.19051
0
LINE
8
BLACK
6
CONTINUOUS
10
5.64023
20
-3.19051
11
5.63963
21
-3.1875
0
LINE
8
BLACK
6
CONTINUOUS
10
5.63963
20
-3.1875
11
5.63963
21
-3.1275
0
LINE
8
BLACK
6
CONTINUOUS
10
5.63963
20
-3.1275
11
5.64023
21
-3.12449
0
LINE
8
BLACK
6
CONTINUOUS
10
5.64023
20
-3.12449
11
5.64193
21
-3.12193
0
LINE
8
BLACK
6
CONTINUOUS
10
5.64193
20
-3.12193
11
5.64449
21
-3.12023
0
LINE
8
BLACK
6
CONTINUOUS
10
5.64449
20
-3.12023
11
5.6475
21
-3.11963
0
LINE
8
BLACK
6
CONTINUOUS
10
5.6475
20
-3.11963
11
5.7075
21
-3.11963
0
LINE
8
BLACK
6
CONTINUOUS
10
5.7075
20
-3.11963
11
5.71051
21
-3.12023
0
LINE
8
BLACK
6
CONTINUOUS
10
5.81051
20
-3.12023
11
5.81307
21
-3.12193
0
LINE
8
BLACK
6
CONTINUOUS
10
5.81307
20
-3.12193
11
5.81477
21
-3.12449
0
LINE
8
BLACK
6
CONTINUOUS
10
5.81477
20
-3.12449
11
5.81537
21
-3.1275
0
LINE
8
BLACK
6
CONTINUOUS
10
5.81537
20
-3.1275
11
5.81537
21
-3.1875
0
LINE
8
BLACK
6
CONTINUOUS
10
5.81537
20
-3.1875
11
5.81477
21
-3.19051
0
LINE
8
BLACK
6
CONTINUOUS
10
5.81477
20
-3.19051
11
5.81307
21
-3.19307
0
LINE
8
BLACK
6
CONTINUOUS
10
5.81307
20
-3.19307
11
5.81051
21
-3.19477
0
LINE
8
BLACK
6
CONTINUOUS
10
5.81051
20
-3.19477
11
5.8075
21
-3.19537
0
LINE
8
BLACK
6
CONTINUOUS
10
5.8075
20
-3.19537
11
5.7475
21
-3.19537
0
LINE
8
BLACK
6
CONTINUOUS
10
5.7475
20
-3.19537
11
5.74449
21
-3.19477
0
LINE
8
BLACK
6
CONTINUOUS
10
5.74449
20
-3.19477
11
5.74193
21
-3.19307
0
LINE
8
BLACK
6
CONTINUOUS
10
5.74193
20
-3.19307
11
5.74023
21
-3.19051
0
LINE
8
BLACK
6
CONTINUOUS
10
5.74023
20
-3.19051
11
5.73963
21
-3.1875
0
LINE
8
BLACK
6
CONTINUOUS
10
5.73963
20
-3.1875
11
5.73963
21
-3.1275
0
LINE
8
BLACK
6
CONTINUOUS
10
5.73963
20
-3.1275
11
5.74023
21
-3.12449
0
LINE
8
BLACK
6
CONTINUOUS
10
5.74023
20
-3.12449
11
5.74193
21
-3.12193
0
LINE
8
BLACK
6
CONTINUOUS
10
5.74193
20
-3.12193
11
5.74449
21
-3.12023
0
LINE
8
BLACK
6
CONTINUOUS
10
5.74449
20
-3.12023
11
5.7475
21
-3.11963
0
LINE
8
BLACK
6
CONTINUOUS
10
5.7475
20
-3.11963
11
5.8075
21
-3.11963
0
LINE
8
BLACK
6
CONTINUOUS
10
5.8075
20
-3.11963
11
5.81051
21
-3.12023
0
LINE
8
BLACK
6
CONTINUOUS
10
5.91051
20
-3.12023
11
5.91307
21
-3.12193
0
LINE
8
BLACK
6
CONTINUOUS
10
5.91307
20
-3.12193
11
5.91477
21
-3.12449
0
LINE
8
BLACK
6
CONTINUOUS
10
5.91477
20
-3.12449
11
5.91537
21
-3.1275
0
LINE
8
BLACK
6
CONTINUOUS
10
5.91537
20
-3.1275
11
5.91537
21
-3.1875
0
LINE
8
BLACK
6
CONTINUOUS
10
5.91537
20
-3.1875
11
5.91477
21
-3.19051
0
LINE
8
BLACK
6
CONTINUOUS
10
5.91477
20
-3.19051
11
5.91307
21
-3.19307
0
LINE
8
BLACK
6
CONTINUOUS
10
5.91307
20
-3.19307
11
5.91051
21
-3.19477
0
LINE
8
BLACK
6
CONTINUOUS
10
5.91051
20
-3.19477
11
5.9075
21
-3.19537
0
LINE
8
BLACK
6
CONTINUOUS
10
5.9075
20
-3.19537
11
5.8475
21
-3.19537
0
LINE
8
BLACK
6
CONTINUOUS
10
5.8475
20
-3.19537
11
5.84449
21
-3.19477
0
LINE
8
BLACK
6
CONTINUOUS
10
5.84449
20
-3.19477
11
5.84193
21
-3.19307
0
LINE
8
BLACK
6
CONTINUOUS
10
5.84193
20
-3.19307
11
5.84023
21
-3.19051
0
LINE
8
BLACK
6
CONTINUOUS
10
5.84023
20
-3.19051
11
5.83963
21
-3.1875
0
LINE
8
BLACK
6
CONTINUOUS
10
5.83963
20
-3.1875
11
5.83963
21
-3.1275
0
LINE
8
BLACK
6
CONTINUOUS
10
5.83963
20
-3.1275
11
5.84023
21
-3.12449
0
LINE
8
BLACK
6
CONTINUOUS
10
5.84023
20
-3.12449
11
5.84193
21
-3.12193
0
LINE
8
BLACK
6
CONTINUOUS
10
5.84193
20
-3.12193
11
5.84449
21
-3.12023
0
LINE
8
BLACK
6
CONTINUOUS
10
5.84449
20
-3.12023
11
5.8475
21
-3.11963
0
LINE
8
BLACK
6
CONTINUOUS
10
5.8475
20
-3.11963
11
5.9075
21
-3.11963
0
LINE
8
BLACK
6
CONTINUOUS
10
5.9075
20
-3.11963
11
5.91051
21
-3.12023
0
LINE
8
BLACK
6
CONTINUOUS
10
5.20992
20
-3.02028
11
5.21248
21
-3.02199
0
LINE
8
BLACK
6
CONTINUOUS
10
5.21248
20
-3.02199
11
5.21418
21
-3.02455
0
LINE
8
BLACK
6
CONTINUOUS
10
5.21418
20
-3.02455
11
5.21478
21
-3.02756
0
LINE
8
BLACK
6
CONTINUOUS
10
5.21478
20
-3.02756
11
5.21478
21
-3.08756
0
LINE
8
BLACK
6
CONTINUOUS
10
5.21478
20
-3.08756
11
5.21418
21
-3.09057
0
LINE
8
BLACK
6
CONTINUOUS
10
5.21418
20
-3.09057
11
5.21248
21
-3.09313
0
LINE
8
BLACK
6
CONTINUOUS
10
5.21248
20
-3.09313
11
5.20992
21
-3.09483
0
LINE
8
BLACK
6
CONTINUOUS
10
5.20992
20
-3.09483
11
5.20691
21
-3.09543
0
LINE
8
BLACK
6
CONTINUOUS
10
5.20691
20
-3.09543
11
5.14691
21
-3.09543
0
LINE
8
BLACK
6
CONTINUOUS
10
5.14691
20
-3.09543
11
5.1439
21
-3.09483
0
LINE
8
BLACK
6
CONTINUOUS
10
5.1439
20
-3.09483
11
5.14134
21
-3.09313
0
LINE
8
BLACK
6
CONTINUOUS
10
5.14134
20
-3.09313
11
5.13963
21
-3.09057
0
LINE
8
BLACK
6
CONTINUOUS
10
5.13963
20
-3.09057
11
5.13904
21
-3.08756
0
LINE
8
BLACK
6
CONTINUOUS
10
5.13904
20
-3.08756
11
5.13904
21
-3.02756
0
LINE
8
BLACK
6
CONTINUOUS
10
5.13904
20
-3.02756
11
5.13963
21
-3.02455
0
LINE
8
BLACK
6
CONTINUOUS
10
5.13963
20
-3.02455
11
5.14134
21
-3.02199
0
LINE
8
BLACK
6
CONTINUOUS
10
5.14134
20
-3.02199
11
5.1439
21
-3.02028
0
LINE
8
BLACK
6
CONTINUOUS
10
5.1439
20
-3.02028
11
5.14691
21
-3.01969
0
LINE
8
BLACK
6
CONTINUOUS
10
5.14691
20
-3.01969
11
5.20691
21
-3.01969
0
LINE
8
BLACK
6
CONTINUOUS
10
5.20691
20
-3.01969
11
5.20992
21
-3.02028
0
LINE
8
BLACK
6
CONTINUOUS
10
5.30992
20
-3.02028
11
5.31248
21
-3.02199
0
LINE
8
BLACK
6
CONTINUOUS
10
5.31248
20
-3.02199
11
5.31418
21
-3.02455
0
LINE
8
BLACK
6
CONTINUOUS
10
5.31418
20
-3.02455
11
5.31478
21
-3.02756
0
LINE
8
BLACK
6
CONTINUOUS
10
5.31478
20
-3.02756
11
5.31478
21
-3.08756
0
LINE
8
BLACK
6
CONTINUOUS
10
5.31478
20
-3.08756
11
5.31418
21
-3.09057
0
LINE
8
BLACK
6
CONTINUOUS
10
5.31418
20
-3.09057
11
5.31248
21
-3.09313
0
LINE
8
BLACK
6
CONTINUOUS
10
5.31248
20
-3.09313
11
5.30992
21
-3.09483
0
LINE
8
BLACK
6
CONTINUOUS
10
5.30992
20
-3.09483
11
5.30691
21
-3.09543
0
LINE
8
BLACK
6
CONTINUOUS
10
5.30691
20
-3.09543
11
5.24691
21
-3.09543
0
LINE
8
BLACK
6
CONTINUOUS
10
5.24691
20
-3.09543
11
5.2439
21
-3.09483
0
LINE
8
BLACK
6
CONTINUOUS
10
5.2439
20
-3.09483
11
5.24134
21
-3.09313
0
LINE
8
BLACK
6
CONTINUOUS
10
5.24134
20
-3.09313
11
5.23963
21
-3.09057
0
LINE
8
BLACK
6
CONTINUOUS
10
5.23963
20
-3.09057
11
5.23904
21
-3.08756
0
LINE
8
BLACK
6
CONTINUOUS
10
5.23904
20
-3.08756
11
5.23904
21
-3.02756
0
LINE
8
BLACK
6
CONTINUOUS
10
5.23904
20
-3.02756
11
5.23963
21
-3.02455
0
LINE
8
BLACK
6
CONTINUOUS
10
5.23963
20
-3.02455
11
5.24134
21
-3.02199
0
LINE
8
BLACK
6
CONTINUOUS
10
5.24134
20
-3.02199
11
5.2439
21
-3.02028
0
LINE
8
BLACK
6
CONTINUOUS
10
5.2439
20
-3.02028
11
5.24691
21
-3.01969
0
LINE
8
BLACK
6
CONTINUOUS
10
5.24691
20
-3.01969
11
5.30691
21
-3.01969
0
LINE
8
BLACK
6
CONTINUOUS
10
5.30691
20
-3.01969
11
5.30992
21
-3.02028
0
LINE
8
BLACK
6
CONTINUOUS
10
5.40992
20
-3.02028
11
5.41248
21
-3.02199
0
LINE
8
BLACK
6
CONTINUOUS
10
5.41248
20
-3.02199
11
5.41418
21
-3.02455
0
LINE
8
BLACK
6
CONTINUOUS
10
5.41418
20
-3.02455
11
5.41478
21
-3.02756
0
LINE
8
BLACK
6
CONTINUOUS
10
5.41478
20
-3.02756
11
5.41478
21
-3.08756
0
LINE
8
BLACK
6
CONTINUOUS
10
5.41478
20
-3.08756
11
5.41418
21
-3.09057
0
LINE
8
BLACK
6
CONTINUOUS
10
5.41418
20
-3.09057
11
5.41248
21
-3.09313
0
LINE
8
BLACK
6
CONTINUOUS
10
5.41248
20
-3.09313
11
5.40992
21
-3.09483
0
LINE
8
BLACK
6
CONTINUOUS
10
5.40992
20
-3.09483
11
5.40691
21
-3.09543
0
LINE
8
BLACK
6
CONTINUOUS
10
5.40691
20
-3.09543
11
5.34691
21
-3.09543
0
LINE
8
BLACK
6
CONTINUOUS
10
5.34691
20
-3.09543
11
5.3439
21
-3.09483
0
LINE
8
BLACK
6
CONTINUOUS
10
5.3439
20
-3.09483
11
5.34134
21
-3.09313
0
LINE
8
BLACK
6
CONTINUOUS
10
5.34134
20
-3.09313
11
5.33963
21
-3.09057
0
LINE
8
BLACK
6
CONTINUOUS
10
5.33963
20
-3.09057
11
5.33904
21
-3.08756
0
LINE
8
BLACK
6
CONTINUOUS
10
5.33904
20
-3.08756
11
5.33904
21
-3.02756
0
LINE
8
BLACK
6
CONTINUOUS
10
5.33904
20
-3.02756
11
5.33963
21
-3.02455
0
LINE
8
BLACK
6
CONTINUOUS
10
5.33963
20
-3.02455
11
5.34134
21
-3.02199
0
LINE
8
BLACK
6
CONTINUOUS
10
5.34134
20
-3.02199
11
5.3439
21
-3.02028
0
LINE
8
BLACK
6
CONTINUOUS
10
5.3439
20
-3.02028
11
5.34691
21
-3.01969
0
LINE
8
BLACK
6
CONTINUOUS
10
5.34691
20
-3.01969
11
5.40691
21
-3.01969
0
LINE
8
BLACK
6
CONTINUOUS
10
5.40691
20
-3.01969
11
5.40992
21
-3.02028
0
LINE
8
BLACK
6
CONTINUOUS
10
5.50992
20
-3.02028
11
5.51248
21
-3.02199
0
LINE
8
BLACK
6
CONTINUOUS
10
5.51248
20
-3.02199
11
5.51418
21
-3.02455
0
LINE
8
BLACK
6
CONTINUOUS
10
5.51418
20
-3.02455
11
5.51478
21
-3.02756
0
LINE
8
BLACK
6
CONTINUOUS
10
5.51478
20
-3.02756
11
5.51478
21
-3.08756
0
LINE
8
BLACK
6
CONTINUOUS
10
5.51478
20
-3.08756
11
5.51418
21
-3.09057
0
LINE
8
BLACK
6
CONTINUOUS
10
5.51418
20
-3.09057
11
5.51248
21
-3.09313
0
LINE
8
BLACK
6
CONTINUOUS
10
5.51248
20
-3.09313
11
5.50992
21
-3.09483
0
LINE
8
BLACK
6
CONTINUOUS
10
5.50992
20
-3.09483
11
5.50691
21
-3.09543
0
LINE
8
BLACK
6
CONTINUOUS
10
5.50691
20
-3.09543
11
5.44691
21
-3.09543
0
LINE
8
BLACK
6
CONTINUOUS
10
5.44691
20
-3.09543
11
5.4439
21
-3.09483
0
LINE
8
BLACK
6
CONTINUOUS
10
5.4439
20
-3.09483
11
5.44134
21
-3.09313
0
LINE
8
BLACK
6
CONTINUOUS
10
5.44134
20
-3.09313
11
5.43963
21
-3.09057
0
LINE
8
BLACK
6
CONTINUOUS
10
5.43963
20
-3.09057
11
5.43904
21
-3.08756
0
LINE
8
BLACK
6
CONTINUOUS
10
5.43904
20
-3.08756
11
5.43904
21
-3.02756
0
LINE
8
BLACK
6
CONTINUOUS
10
5.43904
20
-3.02756
11
5.43963
21
-3.02455
0
LINE
8
BLACK
6
CONTINUOUS
10
5.43963
20
-3.02455
11
5.44134
21
-3.02199
0
LINE
8
BLACK
6
CONTINUOUS
10
5.44134
20
-3.02199
11
5.4439
21
-3.02028
0
LINE
8
BLACK
6
CONTINUOUS
10
5.4439
20
-3.02028
11
5.44691
21
-3.01969
0
LINE
8
BLACK
6
CONTINUOUS
10
5.44691
20
-3.01969
11
5.50691
21
-3.01969
0
LINE
8
BLACK
6
CONTINUOUS
10
5.50691
20
-3.01969
11
5.50992
21
-3.02028
0
LINE
8
BLACK
6
CONTINUOUS
10
5.60992
20
-3.02028
11
5.61248
21
-3.02199
0
LINE
8
BLACK
6
CONTINUOUS
10
5.61248
20
-3.02199
11
5.61418
21
-3.02455
0
LINE
8
BLACK
6
CONTINUOUS
10
5.61418
20
-3.02455
11
5.61478
21
-3.02756
0
LINE
8
BLACK
6
CONTINUOUS
10
5.61478
20
-3.02756
11
5.61478
21
-3.08756
0
LINE
8
BLACK
6
CONTINUOUS
10
5.61478
20
-3.08756
11
5.61418
21
-3.09057
0
LINE
8
BLACK
6
CONTINUOUS
10
5.61418
20
-3.09057
11
5.61248
21
-3.09313
0
LINE
8
BLACK
6
CONTINUOUS
10
5.61248
20
-3.09313
11
5.60992
21
-3.09483
0
LINE
8
BLACK
6
CONTINUOUS
10
5.60992
20
-3.09483
11
5.60691
21
-3.09543
0
LINE
8
BLACK
6
CONTINUOUS
10
5.60691
20
-3.09543
11
5.54691
21
-3.09543
0
LINE
8
BLACK
6
CONTINUOUS
10
5.54691
20
-3.09543
11
5.5439
21
-3.09483
0
LINE
8
BLACK
6
CONTINUOUS
10
5.5439
20
-3.09483
11
5.54134
21
-3.09313
0
LINE
8
BLACK
6
CONTINUOUS
10
5.54134
20
-3.09313
11
5.53963
21
-3.09057
0
LINE
8
BLACK
6
CONTINUOUS
10
5.53963
20
-3.09057
11
5.53904
21
-3.08756
0
LINE
8
BLACK
6
CONTINUOUS
10
5.53904
20
-3.08756
11
5.53904
21
-3.02756
0
LINE
8
BLACK
6
CONTINUOUS
10
5.53904
20
-3.02756
11
5.53963
21
-3.02455
0
LINE
8
BLACK
6
CONTINUOUS
10
5.53963
20
-3.02455
11
5.54134
21
-3.02199
0
LINE
8
BLACK
6
CONTINUOUS
10
5.54134
20
-3.02199
11
5.5439
21
-3.02028
0
LINE
8
BLACK
6
CONTINUOUS
10
5.5439
20
-3.02028
11
5.54691
21
-3.01969
0
LINE
8
BLACK
6
CONTINUOUS
10
5.54691
20
-3.01969
11
5.60691
21
-3.01969
0
LINE
8
BLACK
6
CONTINUOUS
10
5.60691
20
-3.01969
11
5.60992
21
-3.02028
0
LINE
8
BLACK
6
CONTINUOUS
10
5.71051
20
-3.02023
11
5.71307
21
-3.02193
0
LINE
8
BLACK
6
CONTINUOUS
10
5.71307
20
-3.02193
11
5.71477
21
-3.02449
0
LINE
8
BLACK
6
CONTINUOUS
10
5.71477
20
-3.02449
11
5.71537
21
-3.0275
0
LINE
8
BLACK
6
CONTINUOUS
10
5.71537
20
-3.0275
11
5.71537
21
-3.0875
0
LINE
8
BLACK
6
CONTINUOUS
10
5.71537
20
-3.0875
11
5.71477
21
-3.09051
0
LINE
8
BLACK
6
CONTINUOUS
10
5.71477
20
-3.09051
11
5.71307
21
-3.09307
0
LINE
8
BLACK
6
CONTINUOUS
10
5.71307
20
-3.09307
11
5.71051
21
-3.09477
0
LINE
8
BLACK
6
CONTINUOUS
10
5.71051
20
-3.09477
11
5.7075
21
-3.09537
0
LINE
8
BLACK
6
CONTINUOUS
10
5.7075
20
-3.09537
11
5.6475
21
-3.09537
0
LINE
8
BLACK
6
CONTINUOUS
10
5.6475
20
-3.09537
11
5.64449
21
-3.09477
0
LINE
8
BLACK
6
CONTINUOUS
10
5.64449
20
-3.09477
11
5.64193
21
-3.09307
0
LINE
8
BLACK
6
CONTINUOUS
10
5.64193
20
-3.09307
11
5.64023
21
-3.09051
0
LINE
8
BLACK
6
CONTINUOUS
10
5.64023
20
-3.09051
11
5.63963
21
-3.0875
0
LINE
8
BLACK
6
CONTINUOUS
10
5.63963
20
-3.0875
11
5.63963
21
-3.0275
0
LINE
8
BLACK
6
CONTINUOUS
10
5.63963
20
-3.0275
11
5.64023
21
-3.02449
0
LINE
8
BLACK
6
CONTINUOUS
10
5.64023
20
-3.02449
11
5.64193
21
-3.02193
0
LINE
8
BLACK
6
CONTINUOUS
10
5.64193
20
-3.02193
11
5.64449
21
-3.02023
0
LINE
8
BLACK
6
CONTINUOUS
10
5.64449
20
-3.02023
11
5.6475
21
-3.01963
0
LINE
8
BLACK
6
CONTINUOUS
10
5.6475
20
-3.01963
11
5.7075
21
-3.01963
0
LINE
8
BLACK
6
CONTINUOUS
10
5.7075
20
-3.01963
11
5.71051
21
-3.02023
0
LINE
8
BLACK
6
CONTINUOUS
10
5.81051
20
-3.02023
11
5.81307
21
-3.02193
0
LINE
8
BLACK
6
CONTINUOUS
10
5.81307
20
-3.02193
11
5.81477
21
-3.02449
0
LINE
8
BLACK
6
CONTINUOUS
10
5.81477
20
-3.02449
11
5.81537
21
-3.0275
0
LINE
8
BLACK
6
CONTINUOUS
10
5.81537
20
-3.0275
11
5.81537
21
-3.0875
0
LINE
8
BLACK
6
CONTINUOUS
10
5.81537
20
-3.0875
11
5.81477
21
-3.09051
0
LINE
8
BLACK
6
CONTINUOUS
10
5.81477
20
-3.09051
11
5.81307
21
-3.09307
0
LINE
8
BLACK
6
CONTINUOUS
10
5.81307
20
-3.09307
11
5.81051
21
-3.09477
0
LINE
8
BLACK
6
CONTINUOUS
10
5.81051
20
-3.09477
11
5.8075
21
-3.09537
0
LINE
8
BLACK
6
CONTINUOUS
10
5.8075
20
-3.09537
11
5.7475
21
-3.09537
0
LINE
8
BLACK
6
CONTINUOUS
10
5.7475
20
-3.09537
11
5.74449
21
-3.09477
0
LINE
8
BLACK
6
CONTINUOUS
10
5.74449
20
-3.09477
11
5.74193
21
-3.09307
0
LINE
8
BLACK
6
CONTINUOUS
10
5.74193
20
-3.09307
11
5.74023
21
-3.09051
0
LINE
8
BLACK
6
CONTINUOUS
10
5.74023
20
-3.09051
11
5.73963
21
-3.0875
0
LINE
8
BLACK
6
CONTINUOUS
10
5.73963
20
-3.0875
11
5.73963
21
-3.0275
0
LINE
8
BLACK
6
CONTINUOUS
10
5.73963
20
-3.0275
11
5.74023
21
-3.02449
0
LINE
8
BLACK
6
CONTINUOUS
10
5.74023
20
-3.02449
11
5.74193
21
-3.02193
0
LINE
8
BLACK
6
CONTINUOUS
10
5.74193
20
-3.02193
11
5.74449
21
-3.02023
0
LINE
8
BLACK
6
CONTINUOUS
10
5.74449
20
-3.02023
11
5.7475
21
-3.01963
0
LINE
8
BLACK
6
CONTINUOUS
10
5.7475
20
-3.01963
11
5.8075
21
-3.01963
0
LINE
8
BLACK
6
CONTINUOUS
10
5.8075
20
-3.01963
11
5.81051
21
-3.02023
0
LINE
8
BLACK
6
CONTINUOUS
10
5.91051
20
-3.02023
11
5.91307
21
-3.02193
0
LINE
8
BLACK
6
CONTINUOUS
10
5.91307
20
-3.02193
11
5.91477
21
-3.02449
0
LINE
8
BLACK
6
CONTINUOUS
10
5.91477
20
-3.02449
11
5.91537
21
-3.0275
0
LINE
8
BLACK
6
CONTINUOUS
10
5.91537
20
-3.0275
11
5.91537
21
-3.0875
0
LINE
8
BLACK
6
CONTINUOUS
10
5.91537
20
-3.0875
11
5.91477
21
-3.09051
0
LINE
8
BLACK
6
CONTINUOUS
10
5.91477
20
-3.09051
11
5.91307
21
-3.09307
0
LINE
8
BLACK
6
CONTINUOUS
10
5.91307
20
-3.09307
11
5.91051
21
-3.09477
0
LINE
8
BLACK
6
CONTINUOUS
10
5.91051
20
-3.09477
11
5.9075
21
-3.09537
0
LINE
8
BLACK
6
CONTINUOUS
10
5.9075
20
-3.09537
11
5.8475
21
-3.09537
0
LINE
8
BLACK
6
CONTINUOUS
10
5.8475
20
-3.09537
11
5.84449
21
-3.09477
0
LINE
8
BLACK
6
CONTINUOUS
10
5.84449
20
-3.09477
11
5.84193
21
-3.09307
0
LINE
8
BLACK
6
CONTINUOUS
10
5.84193
20
-3.09307
11
5.84023
21
-3.09051
0
LINE
8
BLACK
6
CONTINUOUS
10
5.84023
20
-3.09051
11
5.83963
21
-3.0875
0
LINE
8
BLACK
6
CONTINUOUS
10
5.83963
20
-3.0875
11
5.83963
21
-3.0275
0
LINE
8
BLACK
6
CONTINUOUS
10
5.83963
20
-3.0275
11
5.84023
21
-3.02449
0
LINE
8
BLACK
6
CONTINUOUS
10
5.84023
20
-3.02449
11
5.84193
21
-3.02193
0
LINE
8
BLACK
6
CONTINUOUS
10
5.84193
20
-3.02193
11
5.84449
21
-3.02023
0
LINE
8
BLACK
6
CONTINUOUS
10
5.84449
20
-3.02023
11
5.8475
21
-3.01963
0
LINE
8
BLACK
6
CONTINUOUS
10
5.8475
20
-3.01963
11
5.9075
21
-3.01963
0
LINE
8
BLACK
6
CONTINUOUS
10
5.9075
20
-3.01963
11
5.91051
21
-3.02023
  0
ENDSEC
  0
EOF
