  0
SECTION
  2
HEADER
  9
$ANGBASE
  50
0.0
  9
$ANGDIR
  70
1
  9
$MEASUREMENT
  70
0
  0
ENDSEC
  0
SECTION
  2
TABLES
  0
TABLE
  2
LTYPE
  70
4
  0
LTYPE
  5
40F
  2
CONTINUOUS
  70
0
  3
Solid line
  72
65
  73
0
  40
0.0
  0
LTYPE
  5
410
  2
DASHDOT
 70
0
  3
Dash Dot ____ _ ____ _
 72
65
 73
4
 40
2.0
 49
1.25
 49
-0.25
 49
0.25
 49
-0.25
  0
LTYPE
  5
411
  2
DASHED
 70
0
  3
Dashed __ __ __ __ __
 72
65
 73
2
 40
0.75
 49
0.5
 49
-0.25
  0
LTYPE
  5
43B
  2
DOTTED
 70
0
  3
Dotted .  .  .  .
 72
65
 73
2
 40
0.2
 49
0.0
 49
-0.2
  0
ENDTAB
  0
TABLE
  2
STYLE
  70
4
  0
STYLE
  2
KICAD
  70
0
  40
0
  41
1
  42
1
  50
0
  71
0
  3
isocp.shx
  0
STYLE
  2
KICADB
  70
0
  40
0
  41
1
  42
1
  50
0
  71
0
  3
isocp.shx
  0
STYLE
  2
KICADI
  70
0
  40
0
  41
1
  42
1
  50
15
  71
0
  3
isocp.shx
  0
STYLE
  2
KICADBI
  70
0
  40
0
  41
1
  42
1
  50
15
  71
0
  3
isocp.shx
  0
ENDTAB
  0
TABLE
  2
LAYER
  70
1
  0
LAYER
  2
BLACK
  70
0
  62
7
  6
CONTINUOUS
  0
ENDTAB
  0
ENDSEC
  0
SECTION
  2
ENTITIES
0
LINE
8
BLACK
6
CONTINUOUS
10
5.50083
20
-4.42312
11
5.50338
21
-4.42483
0
LINE
8
BLACK
6
CONTINUOUS
10
5.50338
20
-4.42483
11
5.50509
21
-4.42738
0
LINE
8
BLACK
6
CONTINUOUS
10
5.50509
20
-4.42738
11
5.50569
21
-4.43039
0
LINE
8
BLACK
6
CONTINUOUS
10
5.50569
20
-4.43039
11
5.50569
21
-4.47961
0
LINE
8
BLACK
6
CONTINUOUS
10
5.50569
20
-4.47961
11
5.50509
21
-4.48262
0
LINE
8
BLACK
6
CONTINUOUS
10
5.50509
20
-4.48262
11
5.50338
21
-4.48517
0
LINE
8
BLACK
6
CONTINUOUS
10
5.50338
20
-4.48517
11
5.50083
21
-4.48688
0
LINE
8
BLACK
6
CONTINUOUS
10
5.50083
20
-4.48688
11
5.49781
21
-4.48748
0
LINE
8
BLACK
6
CONTINUOUS
10
5.49781
20
-4.48748
11
5.45844
21
-4.48748
0
LINE
8
BLACK
6
CONTINUOUS
10
5.45844
20
-4.48748
11
5.45543
21
-4.48688
0
LINE
8
BLACK
6
CONTINUOUS
10
5.45543
20
-4.48688
11
5.45288
21
-4.48517
0
LINE
8
BLACK
6
CONTINUOUS
10
5.45288
20
-4.48517
11
5.45117
21
-4.48262
0
LINE
8
BLACK
6
CONTINUOUS
10
5.45117
20
-4.48262
11
5.45057
21
-4.47961
0
LINE
8
BLACK
6
CONTINUOUS
10
5.45057
20
-4.47961
11
5.45057
21
-4.43039
0
LINE
8
BLACK
6
CONTINUOUS
10
5.45057
20
-4.43039
11
5.45117
21
-4.42738
0
LINE
8
BLACK
6
CONTINUOUS
10
5.45117
20
-4.42738
11
5.45288
21
-4.42483
0
LINE
8
BLACK
6
CONTINUOUS
10
5.45288
20
-4.42483
11
5.45543
21
-4.42312
0
LINE
8
BLACK
6
CONTINUOUS
10
5.45543
20
-4.42312
11
5.45844
21
-4.42252
0
LINE
8
BLACK
6
CONTINUOUS
10
5.45844
20
-4.42252
11
5.49781
21
-4.42252
0
LINE
8
BLACK
6
CONTINUOUS
10
5.49781
20
-4.42252
11
5.50083
21
-4.42312
0
LINE
8
BLACK
6
CONTINUOUS
10
5.57957
20
-4.42312
11
5.58212
21
-4.42483
0
LINE
8
BLACK
6
CONTINUOUS
10
5.58212
20
-4.42483
11
5.58383
21
-4.42738
0
LINE
8
BLACK
6
CONTINUOUS
10
5.58383
20
-4.42738
11
5.58443
21
-4.43039
0
LINE
8
BLACK
6
CONTINUOUS
10
5.58443
20
-4.43039
11
5.58443
21
-4.47961
0
LINE
8
BLACK
6
CONTINUOUS
10
5.58443
20
-4.47961
11
5.58383
21
-4.48262
0
LINE
8
BLACK
6
CONTINUOUS
10
5.58383
20
-4.48262
11
5.58212
21
-4.48517
0
LINE
8
BLACK
6
CONTINUOUS
10
5.58212
20
-4.48517
11
5.57957
21
-4.48688
0
LINE
8
BLACK
6
CONTINUOUS
10
5.57957
20
-4.48688
11
5.57656
21
-4.48748
0
LINE
8
BLACK
6
CONTINUOUS
10
5.57656
20
-4.48748
11
5.53719
21
-4.48748
0
LINE
8
BLACK
6
CONTINUOUS
10
5.53719
20
-4.48748
11
5.53417
21
-4.48688
0
LINE
8
BLACK
6
CONTINUOUS
10
5.53417
20
-4.48688
11
5.53162
21
-4.48517
0
LINE
8
BLACK
6
CONTINUOUS
10
5.53162
20
-4.48517
11
5.52991
21
-4.48262
0
LINE
8
BLACK
6
CONTINUOUS
10
5.52991
20
-4.48262
11
5.52931
21
-4.47961
0
LINE
8
BLACK
6
CONTINUOUS
10
5.52931
20
-4.47961
11
5.52931
21
-4.43039
0
LINE
8
BLACK
6
CONTINUOUS
10
5.52931
20
-4.43039
11
5.52991
21
-4.42738
0
LINE
8
BLACK
6
CONTINUOUS
10
5.52991
20
-4.42738
11
5.53162
21
-4.42483
0
LINE
8
BLACK
6
CONTINUOUS
10
5.53162
20
-4.42483
11
5.53417
21
-4.42312
0
LINE
8
BLACK
6
CONTINUOUS
10
5.53417
20
-4.42312
11
5.53719
21
-4.42252
0
LINE
8
BLACK
6
CONTINUOUS
10
5.53719
20
-4.42252
11
5.57656
21
-4.42252
0
LINE
8
BLACK
6
CONTINUOUS
10
5.57656
20
-4.42252
11
5.57957
21
-4.42312
0
LINE
8
BLACK
6
CONTINUOUS
10
4.93852
20
-4.20237
11
4.95244
21
-4.20473
0
LINE
8
BLACK
6
CONTINUOUS
10
4.95244
20
-4.20473
11
4.96602
21
-4.20864
0
LINE
8
BLACK
6
CONTINUOUS
10
4.96602
20
-4.20864
11
4.97907
21
-4.21405
0
LINE
8
BLACK
6
CONTINUOUS
10
4.97907
20
-4.21405
11
4.99144
21
-4.22089
0
LINE
8
BLACK
6
CONTINUOUS
10
4.99144
20
-4.22089
11
5.00296
21
-4.22906
0
LINE
8
BLACK
6
CONTINUOUS
10
5.00296
20
-4.22906
11
5.01349
21
-4.23847
0
LINE
8
BLACK
6
CONTINUOUS
10
5.01349
20
-4.23847
11
5.02291
21
-4.24901
0
LINE
8
BLACK
6
CONTINUOUS
10
5.02291
20
-4.24901
11
5.03108
21
-4.26053
0
LINE
8
BLACK
6
CONTINUOUS
10
5.03108
20
-4.26053
11
5.03792
21
-4.2729
0
LINE
8
BLACK
6
CONTINUOUS
10
5.03792
20
-4.2729
11
5.04332
21
-4.28595
0
LINE
8
BLACK
6
CONTINUOUS
10
5.04332
20
-4.28595
11
5.04723
21
-4.29952
0
LINE
8
BLACK
6
CONTINUOUS
10
5.04723
20
-4.29952
11
5.0496
21
-4.31345
0
LINE
8
BLACK
6
CONTINUOUS
10
5.0496
20
-4.31345
11
5.05039
21
-4.32756
0
LINE
8
BLACK
6
CONTINUOUS
10
5.05039
20
-4.32756
11
5.0496
21
-4.34166
0
LINE
8
BLACK
6
CONTINUOUS
10
5.0496
20
-4.34166
11
5.04723
21
-4.35559
0
LINE
8
BLACK
6
CONTINUOUS
10
5.04723
20
-4.35559
11
5.04332
21
-4.36917
0
LINE
8
BLACK
6
CONTINUOUS
10
5.04332
20
-4.36917
11
5.03792
21
-4.38222
0
LINE
8
BLACK
6
CONTINUOUS
10
5.03792
20
-4.38222
11
5.03108
21
-4.39459
0
LINE
8
BLACK
6
CONTINUOUS
10
5.03108
20
-4.39459
11
5.02291
21
-4.40611
0
LINE
8
BLACK
6
CONTINUOUS
10
5.02291
20
-4.40611
11
5.01349
21
-4.41664
0
LINE
8
BLACK
6
CONTINUOUS
10
5.01349
20
-4.41664
11
5.00296
21
-4.42606
0
LINE
8
BLACK
6
CONTINUOUS
10
5.00296
20
-4.42606
11
4.99144
21
-4.43423
0
LINE
8
BLACK
6
CONTINUOUS
10
4.99144
20
-4.43423
11
4.97907
21
-4.44107
0
LINE
8
BLACK
6
CONTINUOUS
10
4.97907
20
-4.44107
11
4.96602
21
-4.44647
0
LINE
8
BLACK
6
CONTINUOUS
10
4.96602
20
-4.44647
11
4.95244
21
-4.45038
0
LINE
8
BLACK
6
CONTINUOUS
10
4.95244
20
-4.45038
11
4.93852
21
-4.45275
0
LINE
8
BLACK
6
CONTINUOUS
10
4.93852
20
-4.45275
11
4.92441
21
-4.45354
0
LINE
8
BLACK
6
CONTINUOUS
10
4.92441
20
-4.45354
11
4.9103
21
-4.45275
0
LINE
8
BLACK
6
CONTINUOUS
10
4.9103
20
-4.45275
11
4.89638
21
-4.45038
0
LINE
8
BLACK
6
CONTINUOUS
10
4.89638
20
-4.45038
11
4.8828
21
-4.44647
0
LINE
8
BLACK
6
CONTINUOUS
10
4.8828
20
-4.44647
11
4.86975
21
-4.44107
0
LINE
8
BLACK
6
CONTINUOUS
10
4.86975
20
-4.44107
11
4.85738
21
-4.43423
0
LINE
8
BLACK
6
CONTINUOUS
10
4.85738
20
-4.43423
11
4.84586
21
-4.42606
0
LINE
8
BLACK
6
CONTINUOUS
10
4.84586
20
-4.42606
11
4.83533
21
-4.41664
0
LINE
8
BLACK
6
CONTINUOUS
10
4.83533
20
-4.41664
11
4.82591
21
-4.40611
0
LINE
8
BLACK
6
CONTINUOUS
10
4.82591
20
-4.40611
11
4.81774
21
-4.39459
0
LINE
8
BLACK
6
CONTINUOUS
10
4.81774
20
-4.39459
11
4.8109
21
-4.38222
0
LINE
8
BLACK
6
CONTINUOUS
10
4.8109
20
-4.38222
11
4.80549
21
-4.36917
0
LINE
8
BLACK
6
CONTINUOUS
10
4.80549
20
-4.36917
11
4.80158
21
-4.35559
0
LINE
8
BLACK
6
CONTINUOUS
10
4.80158
20
-4.35559
11
4.79922
21
-4.34166
0
LINE
8
BLACK
6
CONTINUOUS
10
4.79922
20
-4.34166
11
4.79843
21
-4.32756
0
LINE
8
BLACK
6
CONTINUOUS
10
4.79843
20
-4.32756
11
4.79922
21
-4.31345
0
LINE
8
BLACK
6
CONTINUOUS
10
4.79922
20
-4.31345
11
4.80158
21
-4.29952
0
LINE
8
BLACK
6
CONTINUOUS
10
4.80158
20
-4.29952
11
4.80549
21
-4.28595
0
LINE
8
BLACK
6
CONTINUOUS
10
4.80549
20
-4.28595
11
4.8109
21
-4.2729
0
LINE
8
BLACK
6
CONTINUOUS
10
4.8109
20
-4.2729
11
4.81774
21
-4.26053
0
LINE
8
BLACK
6
CONTINUOUS
10
4.81774
20
-4.26053
11
4.82591
21
-4.24901
0
LINE
8
BLACK
6
CONTINUOUS
10
4.82591
20
-4.24901
11
4.83533
21
-4.23847
0
LINE
8
BLACK
6
CONTINUOUS
10
4.83533
20
-4.23847
11
4.84586
21
-4.22906
0
LINE
8
BLACK
6
CONTINUOUS
10
4.84586
20
-4.22906
11
4.85738
21
-4.22089
0
LINE
8
BLACK
6
CONTINUOUS
10
4.85738
20
-4.22089
11
4.86975
21
-4.21405
0
LINE
8
BLACK
6
CONTINUOUS
10
4.86975
20
-4.21405
11
4.8828
21
-4.20864
0
LINE
8
BLACK
6
CONTINUOUS
10
4.8828
20
-4.20864
11
4.89638
21
-4.20473
0
LINE
8
BLACK
6
CONTINUOUS
10
4.89638
20
-4.20473
11
4.9103
21
-4.20237
0
LINE
8
BLACK
6
CONTINUOUS
10
4.9103
20
-4.20237
11
4.92441
21
-4.20157
0
LINE
8
BLACK
6
CONTINUOUS
10
4.92441
20
-4.20157
11
4.93852
21
-4.20237
0
LINE
8
BLACK
6
CONTINUOUS
10
6.13852
20
-4.20237
11
6.15244
21
-4.20473
0
LINE
8
BLACK
6
CONTINUOUS
10
6.15244
20
-4.20473
11
6.16602
21
-4.20864
0
LINE
8
BLACK
6
CONTINUOUS
10
6.16602
20
-4.20864
11
6.17907
21
-4.21405
0
LINE
8
BLACK
6
CONTINUOUS
10
6.17907
20
-4.21405
11
6.19144
21
-4.22089
0
LINE
8
BLACK
6
CONTINUOUS
10
6.19144
20
-4.22089
11
6.20296
21
-4.22906
0
LINE
8
BLACK
6
CONTINUOUS
10
6.20296
20
-4.22906
11
6.21349
21
-4.23847
0
LINE
8
BLACK
6
CONTINUOUS
10
6.21349
20
-4.23847
11
6.22291
21
-4.24901
0
LINE
8
BLACK
6
CONTINUOUS
10
6.22291
20
-4.24901
11
6.23108
21
-4.26053
0
LINE
8
BLACK
6
CONTINUOUS
10
6.23108
20
-4.26053
11
6.23792
21
-4.2729
0
LINE
8
BLACK
6
CONTINUOUS
10
6.23792
20
-4.2729
11
6.24332
21
-4.28595
0
LINE
8
BLACK
6
CONTINUOUS
10
6.24332
20
-4.28595
11
6.24723
21
-4.29952
0
LINE
8
BLACK
6
CONTINUOUS
10
6.24723
20
-4.29952
11
6.2496
21
-4.31345
0
LINE
8
BLACK
6
CONTINUOUS
10
6.2496
20
-4.31345
11
6.25039
21
-4.32756
0
LINE
8
BLACK
6
CONTINUOUS
10
6.25039
20
-4.32756
11
6.2496
21
-4.34166
0
LINE
8
BLACK
6
CONTINUOUS
10
6.2496
20
-4.34166
11
6.24723
21
-4.35559
0
LINE
8
BLACK
6
CONTINUOUS
10
6.24723
20
-4.35559
11
6.24332
21
-4.36917
0
LINE
8
BLACK
6
CONTINUOUS
10
6.24332
20
-4.36917
11
6.23792
21
-4.38222
0
LINE
8
BLACK
6
CONTINUOUS
10
6.23792
20
-4.38222
11
6.23108
21
-4.39459
0
LINE
8
BLACK
6
CONTINUOUS
10
6.23108
20
-4.39459
11
6.22291
21
-4.40611
0
LINE
8
BLACK
6
CONTINUOUS
10
6.22291
20
-4.40611
11
6.21349
21
-4.41664
0
LINE
8
BLACK
6
CONTINUOUS
10
6.21349
20
-4.41664
11
6.20296
21
-4.42606
0
LINE
8
BLACK
6
CONTINUOUS
10
6.20296
20
-4.42606
11
6.19144
21
-4.43423
0
LINE
8
BLACK
6
CONTINUOUS
10
6.19144
20
-4.43423
11
6.17907
21
-4.44107
0
LINE
8
BLACK
6
CONTINUOUS
10
6.17907
20
-4.44107
11
6.16602
21
-4.44647
0
LINE
8
BLACK
6
CONTINUOUS
10
6.16602
20
-4.44647
11
6.15244
21
-4.45038
0
LINE
8
BLACK
6
CONTINUOUS
10
6.15244
20
-4.45038
11
6.13852
21
-4.45275
0
LINE
8
BLACK
6
CONTINUOUS
10
6.13852
20
-4.45275
11
6.12441
21
-4.45354
0
LINE
8
BLACK
6
CONTINUOUS
10
6.12441
20
-4.45354
11
6.1103
21
-4.45275
0
LINE
8
BLACK
6
CONTINUOUS
10
6.1103
20
-4.45275
11
6.09638
21
-4.45038
0
LINE
8
BLACK
6
CONTINUOUS
10
6.09638
20
-4.45038
11
6.0828
21
-4.44647
0
LINE
8
BLACK
6
CONTINUOUS
10
6.0828
20
-4.44647
11
6.06975
21
-4.44107
0
LINE
8
BLACK
6
CONTINUOUS
10
6.06975
20
-4.44107
11
6.05738
21
-4.43423
0
LINE
8
BLACK
6
CONTINUOUS
10
6.05738
20
-4.43423
11
6.04586
21
-4.42606
0
LINE
8
BLACK
6
CONTINUOUS
10
6.04586
20
-4.42606
11
6.03533
21
-4.41664
0
LINE
8
BLACK
6
CONTINUOUS
10
6.03533
20
-4.41664
11
6.02591
21
-4.40611
0
LINE
8
BLACK
6
CONTINUOUS
10
6.02591
20
-4.40611
11
6.01774
21
-4.39459
0
LINE
8
BLACK
6
CONTINUOUS
10
6.01774
20
-4.39459
11
6.0109
21
-4.38222
0
LINE
8
BLACK
6
CONTINUOUS
10
6.0109
20
-4.38222
11
6.00549
21
-4.36917
0
LINE
8
BLACK
6
CONTINUOUS
10
6.00549
20
-4.36917
11
6.00158
21
-4.35559
0
LINE
8
BLACK
6
CONTINUOUS
10
6.00158
20
-4.35559
11
5.99922
21
-4.34166
0
LINE
8
BLACK
6
CONTINUOUS
10
5.99922
20
-4.34166
11
5.99843
21
-4.32756
0
LINE
8
BLACK
6
CONTINUOUS
10
5.99843
20
-4.32756
11
5.99922
21
-4.31345
0
LINE
8
BLACK
6
CONTINUOUS
10
5.99922
20
-4.31345
11
6.00158
21
-4.29952
0
LINE
8
BLACK
6
CONTINUOUS
10
6.00158
20
-4.29952
11
6.00549
21
-4.28595
0
LINE
8
BLACK
6
CONTINUOUS
10
6.00549
20
-4.28595
11
6.0109
21
-4.2729
0
LINE
8
BLACK
6
CONTINUOUS
10
6.0109
20
-4.2729
11
6.01774
21
-4.26053
0
LINE
8
BLACK
6
CONTINUOUS
10
6.01774
20
-4.26053
11
6.02591
21
-4.24901
0
LINE
8
BLACK
6
CONTINUOUS
10
6.02591
20
-4.24901
11
6.03533
21
-4.23847
0
LINE
8
BLACK
6
CONTINUOUS
10
6.03533
20
-4.23847
11
6.04586
21
-4.22906
0
LINE
8
BLACK
6
CONTINUOUS
10
6.04586
20
-4.22906
11
6.05738
21
-4.22089
0
LINE
8
BLACK
6
CONTINUOUS
10
6.05738
20
-4.22089
11
6.06975
21
-4.21405
0
LINE
8
BLACK
6
CONTINUOUS
10
6.06975
20
-4.21405
11
6.0828
21
-4.20864
0
LINE
8
BLACK
6
CONTINUOUS
10
6.0828
20
-4.20864
11
6.09638
21
-4.20473
0
LINE
8
BLACK
6
CONTINUOUS
10
6.09638
20
-4.20473
11
6.1103
21
-4.20237
0
LINE
8
BLACK
6
CONTINUOUS
10
6.1103
20
-4.20237
11
6.12441
21
-4.20157
0
LINE
8
BLACK
6
CONTINUOUS
10
6.12441
20
-4.20157
11
6.13852
21
-4.20237
0
LINE
8
BLACK
6
CONTINUOUS
10
5.26287
20
-4.28978
11
5.26543
21
-4.29149
0
LINE
8
BLACK
6
CONTINUOUS
10
5.26543
20
-4.29149
11
5.26713
21
-4.29405
0
LINE
8
BLACK
6
CONTINUOUS
10
5.26713
20
-4.29405
11
5.26773
21
-4.29706
0
LINE
8
BLACK
6
CONTINUOUS
10
5.26773
20
-4.29706
11
5.26773
21
-4.39546
0
LINE
8
BLACK
6
CONTINUOUS
10
5.26773
20
-4.39546
11
5.26713
21
-4.39847
0
LINE
8
BLACK
6
CONTINUOUS
10
5.26713
20
-4.39847
11
5.26543
21
-4.40103
0
LINE
8
BLACK
6
CONTINUOUS
10
5.26543
20
-4.40103
11
5.26287
21
-4.40273
0
LINE
8
BLACK
6
CONTINUOUS
10
5.26287
20
-4.40273
11
5.25986
21
-4.40333
0
LINE
8
BLACK
6
CONTINUOUS
10
5.25986
20
-4.40333
11
5.18896
21
-4.40333
0
LINE
8
BLACK
6
CONTINUOUS
10
5.18896
20
-4.40333
11
5.18595
21
-4.40273
0
LINE
8
BLACK
6
CONTINUOUS
10
5.18595
20
-4.40273
11
5.18339
21
-4.40103
0
LINE
8
BLACK
6
CONTINUOUS
10
5.18339
20
-4.40103
11
5.18168
21
-4.39847
0
LINE
8
BLACK
6
CONTINUOUS
10
5.18168
20
-4.39847
11
5.18109
21
-4.39546
0
LINE
8
BLACK
6
CONTINUOUS
10
5.18109
20
-4.39546
11
5.18109
21
-4.29706
0
LINE
8
BLACK
6
CONTINUOUS
10
5.18109
20
-4.29706
11
5.18168
21
-4.29405
0
LINE
8
BLACK
6
CONTINUOUS
10
5.18168
20
-4.29405
11
5.18339
21
-4.29149
0
LINE
8
BLACK
6
CONTINUOUS
10
5.18339
20
-4.29149
11
5.18595
21
-4.28978
0
LINE
8
BLACK
6
CONTINUOUS
10
5.18595
20
-4.28978
11
5.18896
21
-4.28919
0
LINE
8
BLACK
6
CONTINUOUS
10
5.18896
20
-4.28919
11
5.25986
21
-4.28919
0
LINE
8
BLACK
6
CONTINUOUS
10
5.25986
20
-4.28919
11
5.26287
21
-4.28978
0
LINE
8
BLACK
6
CONTINUOUS
10
5.84287
20
-4.28978
11
5.84543
21
-4.29149
0
LINE
8
BLACK
6
CONTINUOUS
10
5.84543
20
-4.29149
11
5.84713
21
-4.29405
0
LINE
8
BLACK
6
CONTINUOUS
10
5.84713
20
-4.29405
11
5.84773
21
-4.29706
0
LINE
8
BLACK
6
CONTINUOUS
10
5.84773
20
-4.29706
11
5.84773
21
-4.39546
0
LINE
8
BLACK
6
CONTINUOUS
10
5.84773
20
-4.39546
11
5.84713
21
-4.39847
0
LINE
8
BLACK
6
CONTINUOUS
10
5.84713
20
-4.39847
11
5.84543
21
-4.40103
0
LINE
8
BLACK
6
CONTINUOUS
10
5.84543
20
-4.40103
11
5.84287
21
-4.40273
0
LINE
8
BLACK
6
CONTINUOUS
10
5.84287
20
-4.40273
11
5.83986
21
-4.40333
0
LINE
8
BLACK
6
CONTINUOUS
10
5.83986
20
-4.40333
11
5.76896
21
-4.40333
0
LINE
8
BLACK
6
CONTINUOUS
10
5.76896
20
-4.40333
11
5.76595
21
-4.40273
0
LINE
8
BLACK
6
CONTINUOUS
10
5.76595
20
-4.40273
11
5.76339
21
-4.40103
0
LINE
8
BLACK
6
CONTINUOUS
10
5.76339
20
-4.40103
11
5.76168
21
-4.39847
0
LINE
8
BLACK
6
CONTINUOUS
10
5.76168
20
-4.39847
11
5.76109
21
-4.39546
0
LINE
8
BLACK
6
CONTINUOUS
10
5.76109
20
-4.39546
11
5.76109
21
-4.29706
0
LINE
8
BLACK
6
CONTINUOUS
10
5.76109
20
-4.29706
11
5.76168
21
-4.29405
0
LINE
8
BLACK
6
CONTINUOUS
10
5.76168
20
-4.29405
11
5.76339
21
-4.29149
0
LINE
8
BLACK
6
CONTINUOUS
10
5.76339
20
-4.29149
11
5.76595
21
-4.28978
0
LINE
8
BLACK
6
CONTINUOUS
10
5.76595
20
-4.28978
11
5.76896
21
-4.28919
0
LINE
8
BLACK
6
CONTINUOUS
10
5.76896
20
-4.28919
11
5.83986
21
-4.28919
0
LINE
8
BLACK
6
CONTINUOUS
10
5.83986
20
-4.28919
11
5.84287
21
-4.28978
0
LINE
8
BLACK
6
CONTINUOUS
10
5.39742
20
-4.32028
11
5.39998
21
-4.32199
0
LINE
8
BLACK
6
CONTINUOUS
10
5.39998
20
-4.32199
11
5.40168
21
-4.32455
0
LINE
8
BLACK
6
CONTINUOUS
10
5.40168
20
-4.32455
11
5.40228
21
-4.32756
0
LINE
8
BLACK
6
CONTINUOUS
10
5.40228
20
-4.32756
11
5.40228
21
-4.38756
0
LINE
8
BLACK
6
CONTINUOUS
10
5.40228
20
-4.38756
11
5.40168
21
-4.39057
0
LINE
8
BLACK
6
CONTINUOUS
10
5.40168
20
-4.39057
11
5.39998
21
-4.39313
0
LINE
8
BLACK
6
CONTINUOUS
10
5.39998
20
-4.39313
11
5.39742
21
-4.39483
0
LINE
8
BLACK
6
CONTINUOUS
10
5.39742
20
-4.39483
11
5.39441
21
-4.39543
0
LINE
8
BLACK
6
CONTINUOUS
10
5.39441
20
-4.39543
11
5.33441
21
-4.39543
0
LINE
8
BLACK
6
CONTINUOUS
10
5.33441
20
-4.39543
11
5.3314
21
-4.39483
0
LINE
8
BLACK
6
CONTINUOUS
10
5.3314
20
-4.39483
11
5.32884
21
-4.39313
0
LINE
8
BLACK
6
CONTINUOUS
10
5.32884
20
-4.39313
11
5.32713
21
-4.39057
0
LINE
8
BLACK
6
CONTINUOUS
10
5.32713
20
-4.39057
11
5.32654
21
-4.38756
0
LINE
8
BLACK
6
CONTINUOUS
10
5.32654
20
-4.38756
11
5.32654
21
-4.32756
0
LINE
8
BLACK
6
CONTINUOUS
10
5.32654
20
-4.32756
11
5.32713
21
-4.32455
0
LINE
8
BLACK
6
CONTINUOUS
10
5.32713
20
-4.32455
11
5.32884
21
-4.32199
0
LINE
8
BLACK
6
CONTINUOUS
10
5.32884
20
-4.32199
11
5.3314
21
-4.32028
0
LINE
8
BLACK
6
CONTINUOUS
10
5.3314
20
-4.32028
11
5.33441
21
-4.31969
0
LINE
8
BLACK
6
CONTINUOUS
10
5.33441
20
-4.31969
11
5.39441
21
-4.31969
0
LINE
8
BLACK
6
CONTINUOUS
10
5.39441
20
-4.31969
11
5.39742
21
-4.32028
0
LINE
8
BLACK
6
CONTINUOUS
10
5.49742
20
-4.32028
11
5.49998
21
-4.32199
0
LINE
8
BLACK
6
CONTINUOUS
10
5.49998
20
-4.32199
11
5.50168
21
-4.32455
0
LINE
8
BLACK
6
CONTINUOUS
10
5.50168
20
-4.32455
11
5.50228
21
-4.32756
0
LINE
8
BLACK
6
CONTINUOUS
10
5.50228
20
-4.32756
11
5.50228
21
-4.38756
0
LINE
8
BLACK
6
CONTINUOUS
10
5.50228
20
-4.38756
11
5.50168
21
-4.39057
0
LINE
8
BLACK
6
CONTINUOUS
10
5.50168
20
-4.39057
11
5.49998
21
-4.39313
0
LINE
8
BLACK
6
CONTINUOUS
10
5.49998
20
-4.39313
11
5.49742
21
-4.39483
0
LINE
8
BLACK
6
CONTINUOUS
10
5.49742
20
-4.39483
11
5.49441
21
-4.39543
0
LINE
8
BLACK
6
CONTINUOUS
10
5.49441
20
-4.39543
11
5.43441
21
-4.39543
0
LINE
8
BLACK
6
CONTINUOUS
10
5.43441
20
-4.39543
11
5.4314
21
-4.39483
0
LINE
8
BLACK
6
CONTINUOUS
10
5.4314
20
-4.39483
11
5.42884
21
-4.39313
0
LINE
8
BLACK
6
CONTINUOUS
10
5.42884
20
-4.39313
11
5.42713
21
-4.39057
0
LINE
8
BLACK
6
CONTINUOUS
10
5.42713
20
-4.39057
11
5.42654
21
-4.38756
0
LINE
8
BLACK
6
CONTINUOUS
10
5.42654
20
-4.38756
11
5.42654
21
-4.32756
0
LINE
8
BLACK
6
CONTINUOUS
10
5.42654
20
-4.32756
11
5.42713
21
-4.32455
0
LINE
8
BLACK
6
CONTINUOUS
10
5.42713
20
-4.32455
11
5.42884
21
-4.32199
0
LINE
8
BLACK
6
CONTINUOUS
10
5.42884
20
-4.32199
11
5.4314
21
-4.32028
0
LINE
8
BLACK
6
CONTINUOUS
10
5.4314
20
-4.32028
11
5.43441
21
-4.31969
0
LINE
8
BLACK
6
CONTINUOUS
10
5.43441
20
-4.31969
11
5.49441
21
-4.31969
0
LINE
8
BLACK
6
CONTINUOUS
10
5.49441
20
-4.31969
11
5.49742
21
-4.32028
0
LINE
8
BLACK
6
CONTINUOUS
10
5.59742
20
-4.32028
11
5.59998
21
-4.32199
0
LINE
8
BLACK
6
CONTINUOUS
10
5.59998
20
-4.32199
11
5.60168
21
-4.32455
0
LINE
8
BLACK
6
CONTINUOUS
10
5.60168
20
-4.32455
11
5.60228
21
-4.32756
0
LINE
8
BLACK
6
CONTINUOUS
10
5.60228
20
-4.32756
11
5.60228
21
-4.38756
0
LINE
8
BLACK
6
CONTINUOUS
10
5.60228
20
-4.38756
11
5.60168
21
-4.39057
0
LINE
8
BLACK
6
CONTINUOUS
10
5.60168
20
-4.39057
11
5.59998
21
-4.39313
0
LINE
8
BLACK
6
CONTINUOUS
10
5.59998
20
-4.39313
11
5.59742
21
-4.39483
0
LINE
8
BLACK
6
CONTINUOUS
10
5.59742
20
-4.39483
11
5.59441
21
-4.39543
0
LINE
8
BLACK
6
CONTINUOUS
10
5.59441
20
-4.39543
11
5.53441
21
-4.39543
0
LINE
8
BLACK
6
CONTINUOUS
10
5.53441
20
-4.39543
11
5.5314
21
-4.39483
0
LINE
8
BLACK
6
CONTINUOUS
10
5.5314
20
-4.39483
11
5.52884
21
-4.39313
0
LINE
8
BLACK
6
CONTINUOUS
10
5.52884
20
-4.39313
11
5.52713
21
-4.39057
0
LINE
8
BLACK
6
CONTINUOUS
10
5.52713
20
-4.39057
11
5.52654
21
-4.38756
0
LINE
8
BLACK
6
CONTINUOUS
10
5.52654
20
-4.38756
11
5.52654
21
-4.32756
0
LINE
8
BLACK
6
CONTINUOUS
10
5.52654
20
-4.32756
11
5.52713
21
-4.32455
0
LINE
8
BLACK
6
CONTINUOUS
10
5.52713
20
-4.32455
11
5.52884
21
-4.32199
0
LINE
8
BLACK
6
CONTINUOUS
10
5.52884
20
-4.32199
11
5.5314
21
-4.32028
0
LINE
8
BLACK
6
CONTINUOUS
10
5.5314
20
-4.32028
11
5.53441
21
-4.31969
0
LINE
8
BLACK
6
CONTINUOUS
10
5.53441
20
-4.31969
11
5.59441
21
-4.31969
0
LINE
8
BLACK
6
CONTINUOUS
10
5.59441
20
-4.31969
11
5.59742
21
-4.32028
0
LINE
8
BLACK
6
CONTINUOUS
10
5.69742
20
-4.32028
11
5.69998
21
-4.32199
0
LINE
8
BLACK
6
CONTINUOUS
10
5.69998
20
-4.32199
11
5.70168
21
-4.32455
0
LINE
8
BLACK
6
CONTINUOUS
10
5.70168
20
-4.32455
11
5.70228
21
-4.32756
0
LINE
8
BLACK
6
CONTINUOUS
10
5.70228
20
-4.32756
11
5.70228
21
-4.38756
0
LINE
8
BLACK
6
CONTINUOUS
10
5.70228
20
-4.38756
11
5.70168
21
-4.39057
0
LINE
8
BLACK
6
CONTINUOUS
10
5.70168
20
-4.39057
11
5.69998
21
-4.39313
0
LINE
8
BLACK
6
CONTINUOUS
10
5.69998
20
-4.39313
11
5.69742
21
-4.39483
0
LINE
8
BLACK
6
CONTINUOUS
10
5.69742
20
-4.39483
11
5.69441
21
-4.39543
0
LINE
8
BLACK
6
CONTINUOUS
10
5.69441
20
-4.39543
11
5.63441
21
-4.39543
0
LINE
8
BLACK
6
CONTINUOUS
10
5.63441
20
-4.39543
11
5.6314
21
-4.39483
0
LINE
8
BLACK
6
CONTINUOUS
10
5.6314
20
-4.39483
11
5.62884
21
-4.39313
0
LINE
8
BLACK
6
CONTINUOUS
10
5.62884
20
-4.39313
11
5.62713
21
-4.39057
0
LINE
8
BLACK
6
CONTINUOUS
10
5.62713
20
-4.39057
11
5.62654
21
-4.38756
0
LINE
8
BLACK
6
CONTINUOUS
10
5.62654
20
-4.38756
11
5.62654
21
-4.32756
0
LINE
8
BLACK
6
CONTINUOUS
10
5.62654
20
-4.32756
11
5.62713
21
-4.32455
0
LINE
8
BLACK
6
CONTINUOUS
10
5.62713
20
-4.32455
11
5.62884
21
-4.32199
0
LINE
8
BLACK
6
CONTINUOUS
10
5.62884
20
-4.32199
11
5.6314
21
-4.32028
0
LINE
8
BLACK
6
CONTINUOUS
10
5.6314
20
-4.32028
11
5.63441
21
-4.31969
0
LINE
8
BLACK
6
CONTINUOUS
10
5.63441
20
-4.31969
11
5.69441
21
-4.31969
0
LINE
8
BLACK
6
CONTINUOUS
10
5.69441
20
-4.31969
11
5.69742
21
-4.32028
0
LINE
8
BLACK
6
CONTINUOUS
10
5.39742
20
-4.22028
11
5.39998
21
-4.22199
0
LINE
8
BLACK
6
CONTINUOUS
10
5.39998
20
-4.22199
11
5.40168
21
-4.22455
0
LINE
8
BLACK
6
CONTINUOUS
10
5.40168
20
-4.22455
11
5.40228
21
-4.22756
0
LINE
8
BLACK
6
CONTINUOUS
10
5.40228
20
-4.22756
11
5.40228
21
-4.28756
0
LINE
8
BLACK
6
CONTINUOUS
10
5.40228
20
-4.28756
11
5.40168
21
-4.29057
0
LINE
8
BLACK
6
CONTINUOUS
10
5.40168
20
-4.29057
11
5.39998
21
-4.29313
0
LINE
8
BLACK
6
CONTINUOUS
10
5.39998
20
-4.29313
11
5.39742
21
-4.29483
0
LINE
8
BLACK
6
CONTINUOUS
10
5.39742
20
-4.29483
11
5.39441
21
-4.29543
0
LINE
8
BLACK
6
CONTINUOUS
10
5.39441
20
-4.29543
11
5.33441
21
-4.29543
0
LINE
8
BLACK
6
CONTINUOUS
10
5.33441
20
-4.29543
11
5.3314
21
-4.29483
0
LINE
8
BLACK
6
CONTINUOUS
10
5.3314
20
-4.29483
11
5.32884
21
-4.29313
0
LINE
8
BLACK
6
CONTINUOUS
10
5.32884
20
-4.29313
11
5.32713
21
-4.29057
0
LINE
8
BLACK
6
CONTINUOUS
10
5.32713
20
-4.29057
11
5.32654
21
-4.28756
0
LINE
8
BLACK
6
CONTINUOUS
10
5.32654
20
-4.28756
11
5.32654
21
-4.22756
0
LINE
8
BLACK
6
CONTINUOUS
10
5.32654
20
-4.22756
11
5.32713
21
-4.22455
0
LINE
8
BLACK
6
CONTINUOUS
10
5.32713
20
-4.22455
11
5.32884
21
-4.22199
0
LINE
8
BLACK
6
CONTINUOUS
10
5.32884
20
-4.22199
11
5.3314
21
-4.22028
0
LINE
8
BLACK
6
CONTINUOUS
10
5.3314
20
-4.22028
11
5.33441
21
-4.21969
0
LINE
8
BLACK
6
CONTINUOUS
10
5.33441
20
-4.21969
11
5.39441
21
-4.21969
0
LINE
8
BLACK
6
CONTINUOUS
10
5.39441
20
-4.21969
11
5.39742
21
-4.22028
0
LINE
8
BLACK
6
CONTINUOUS
10
5.49742
20
-4.22028
11
5.49998
21
-4.22199
0
LINE
8
BLACK
6
CONTINUOUS
10
5.49998
20
-4.22199
11
5.50168
21
-4.22455
0
LINE
8
BLACK
6
CONTINUOUS
10
5.50168
20
-4.22455
11
5.50228
21
-4.22756
0
LINE
8
BLACK
6
CONTINUOUS
10
5.50228
20
-4.22756
11
5.50228
21
-4.28756
0
LINE
8
BLACK
6
CONTINUOUS
10
5.50228
20
-4.28756
11
5.50168
21
-4.29057
0
LINE
8
BLACK
6
CONTINUOUS
10
5.50168
20
-4.29057
11
5.49998
21
-4.29313
0
LINE
8
BLACK
6
CONTINUOUS
10
5.49998
20
-4.29313
11
5.49742
21
-4.29483
0
LINE
8
BLACK
6
CONTINUOUS
10
5.49742
20
-4.29483
11
5.49441
21
-4.29543
0
LINE
8
BLACK
6
CONTINUOUS
10
5.49441
20
-4.29543
11
5.43441
21
-4.29543
0
LINE
8
BLACK
6
CONTINUOUS
10
5.43441
20
-4.29543
11
5.4314
21
-4.29483
0
LINE
8
BLACK
6
CONTINUOUS
10
5.4314
20
-4.29483
11
5.42884
21
-4.29313
0
LINE
8
BLACK
6
CONTINUOUS
10
5.42884
20
-4.29313
11
5.42713
21
-4.29057
0
LINE
8
BLACK
6
CONTINUOUS
10
5.42713
20
-4.29057
11
5.42654
21
-4.28756
0
LINE
8
BLACK
6
CONTINUOUS
10
5.42654
20
-4.28756
11
5.42654
21
-4.22756
0
LINE
8
BLACK
6
CONTINUOUS
10
5.42654
20
-4.22756
11
5.42713
21
-4.22455
0
LINE
8
BLACK
6
CONTINUOUS
10
5.42713
20
-4.22455
11
5.42884
21
-4.22199
0
LINE
8
BLACK
6
CONTINUOUS
10
5.42884
20
-4.22199
11
5.4314
21
-4.22028
0
LINE
8
BLACK
6
CONTINUOUS
10
5.4314
20
-4.22028
11
5.43441
21
-4.21969
0
LINE
8
BLACK
6
CONTINUOUS
10
5.43441
20
-4.21969
11
5.49441
21
-4.21969
0
LINE
8
BLACK
6
CONTINUOUS
10
5.49441
20
-4.21969
11
5.49742
21
-4.22028
0
LINE
8
BLACK
6
CONTINUOUS
10
5.59742
20
-4.22028
11
5.59998
21
-4.22199
0
LINE
8
BLACK
6
CONTINUOUS
10
5.59998
20
-4.22199
11
5.60168
21
-4.22455
0
LINE
8
BLACK
6
CONTINUOUS
10
5.60168
20
-4.22455
11
5.60228
21
-4.22756
0
LINE
8
BLACK
6
CONTINUOUS
10
5.60228
20
-4.22756
11
5.60228
21
-4.28756
0
LINE
8
BLACK
6
CONTINUOUS
10
5.60228
20
-4.28756
11
5.60168
21
-4.29057
0
LINE
8
BLACK
6
CONTINUOUS
10
5.60168
20
-4.29057
11
5.59998
21
-4.29313
0
LINE
8
BLACK
6
CONTINUOUS
10
5.59998
20
-4.29313
11
5.59742
21
-4.29483
0
LINE
8
BLACK
6
CONTINUOUS
10
5.59742
20
-4.29483
11
5.59441
21
-4.29543
0
LINE
8
BLACK
6
CONTINUOUS
10
5.59441
20
-4.29543
11
5.53441
21
-4.29543
0
LINE
8
BLACK
6
CONTINUOUS
10
5.53441
20
-4.29543
11
5.5314
21
-4.29483
0
LINE
8
BLACK
6
CONTINUOUS
10
5.5314
20
-4.29483
11
5.52884
21
-4.29313
0
LINE
8
BLACK
6
CONTINUOUS
10
5.52884
20
-4.29313
11
5.52713
21
-4.29057
0
LINE
8
BLACK
6
CONTINUOUS
10
5.52713
20
-4.29057
11
5.52654
21
-4.28756
0
LINE
8
BLACK
6
CONTINUOUS
10
5.52654
20
-4.28756
11
5.52654
21
-4.22756
0
LINE
8
BLACK
6
CONTINUOUS
10
5.52654
20
-4.22756
11
5.52713
21
-4.22455
0
LINE
8
BLACK
6
CONTINUOUS
10
5.52713
20
-4.22455
11
5.52884
21
-4.22199
0
LINE
8
BLACK
6
CONTINUOUS
10
5.52884
20
-4.22199
11
5.5314
21
-4.22028
0
LINE
8
BLACK
6
CONTINUOUS
10
5.5314
20
-4.22028
11
5.53441
21
-4.21969
0
LINE
8
BLACK
6
CONTINUOUS
10
5.53441
20
-4.21969
11
5.59441
21
-4.21969
0
LINE
8
BLACK
6
CONTINUOUS
10
5.59441
20
-4.21969
11
5.59742
21
-4.22028
0
LINE
8
BLACK
6
CONTINUOUS
10
5.69742
20
-4.22028
11
5.69998
21
-4.22199
0
LINE
8
BLACK
6
CONTINUOUS
10
5.69998
20
-4.22199
11
5.70168
21
-4.22455
0
LINE
8
BLACK
6
CONTINUOUS
10
5.70168
20
-4.22455
11
5.70228
21
-4.22756
0
LINE
8
BLACK
6
CONTINUOUS
10
5.70228
20
-4.22756
11
5.70228
21
-4.28756
0
LINE
8
BLACK
6
CONTINUOUS
10
5.70228
20
-4.28756
11
5.70168
21
-4.29057
0
LINE
8
BLACK
6
CONTINUOUS
10
5.70168
20
-4.29057
11
5.69998
21
-4.29313
0
LINE
8
BLACK
6
CONTINUOUS
10
5.69998
20
-4.29313
11
5.69742
21
-4.29483
0
LINE
8
BLACK
6
CONTINUOUS
10
5.69742
20
-4.29483
11
5.69441
21
-4.29543
0
LINE
8
BLACK
6
CONTINUOUS
10
5.69441
20
-4.29543
11
5.63441
21
-4.29543
0
LINE
8
BLACK
6
CONTINUOUS
10
5.63441
20
-4.29543
11
5.6314
21
-4.29483
0
LINE
8
BLACK
6
CONTINUOUS
10
5.6314
20
-4.29483
11
5.62884
21
-4.29313
0
LINE
8
BLACK
6
CONTINUOUS
10
5.62884
20
-4.29313
11
5.62713
21
-4.29057
0
LINE
8
BLACK
6
CONTINUOUS
10
5.62713
20
-4.29057
11
5.62654
21
-4.28756
0
LINE
8
BLACK
6
CONTINUOUS
10
5.62654
20
-4.28756
11
5.62654
21
-4.22756
0
LINE
8
BLACK
6
CONTINUOUS
10
5.62654
20
-4.22756
11
5.62713
21
-4.22455
0
LINE
8
BLACK
6
CONTINUOUS
10
5.62713
20
-4.22455
11
5.62884
21
-4.22199
0
LINE
8
BLACK
6
CONTINUOUS
10
5.62884
20
-4.22199
11
5.6314
21
-4.22028
0
LINE
8
BLACK
6
CONTINUOUS
10
5.6314
20
-4.22028
11
5.63441
21
-4.21969
0
LINE
8
BLACK
6
CONTINUOUS
10
5.63441
20
-4.21969
11
5.69441
21
-4.21969
0
LINE
8
BLACK
6
CONTINUOUS
10
5.69441
20
-4.21969
11
5.69742
21
-4.22028
0
LINE
8
BLACK
6
CONTINUOUS
10
5.26287
20
-4.13238
11
5.26543
21
-4.13409
0
LINE
8
BLACK
6
CONTINUOUS
10
5.26543
20
-4.13409
11
5.26713
21
-4.13665
0
LINE
8
BLACK
6
CONTINUOUS
10
5.26713
20
-4.13665
11
5.26773
21
-4.13966
0
LINE
8
BLACK
6
CONTINUOUS
10
5.26773
20
-4.13966
11
5.26773
21
-4.23806
0
LINE
8
BLACK
6
CONTINUOUS
10
5.26773
20
-4.23806
11
5.26713
21
-4.24107
0
LINE
8
BLACK
6
CONTINUOUS
10
5.26713
20
-4.24107
11
5.26543
21
-4.24363
0
LINE
8
BLACK
6
CONTINUOUS
10
5.26543
20
-4.24363
11
5.26287
21
-4.24533
0
LINE
8
BLACK
6
CONTINUOUS
10
5.26287
20
-4.24533
11
5.25986
21
-4.24593
0
LINE
8
BLACK
6
CONTINUOUS
10
5.25986
20
-4.24593
11
5.18896
21
-4.24593
0
LINE
8
BLACK
6
CONTINUOUS
10
5.18896
20
-4.24593
11
5.18595
21
-4.24533
0
LINE
8
BLACK
6
CONTINUOUS
10
5.18595
20
-4.24533
11
5.18339
21
-4.24363
0
LINE
8
BLACK
6
CONTINUOUS
10
5.18339
20
-4.24363
11
5.18168
21
-4.24107
0
LINE
8
BLACK
6
CONTINUOUS
10
5.18168
20
-4.24107
11
5.18109
21
-4.23806
0
LINE
8
BLACK
6
CONTINUOUS
10
5.18109
20
-4.23806
11
5.18109
21
-4.13966
0
LINE
8
BLACK
6
CONTINUOUS
10
5.18109
20
-4.13966
11
5.18168
21
-4.13665
0
LINE
8
BLACK
6
CONTINUOUS
10
5.18168
20
-4.13665
11
5.18339
21
-4.13409
0
LINE
8
BLACK
6
CONTINUOUS
10
5.18339
20
-4.13409
11
5.18595
21
-4.13238
0
LINE
8
BLACK
6
CONTINUOUS
10
5.18595
20
-4.13238
11
5.18896
21
-4.13179
0
LINE
8
BLACK
6
CONTINUOUS
10
5.18896
20
-4.13179
11
5.25986
21
-4.13179
0
LINE
8
BLACK
6
CONTINUOUS
10
5.25986
20
-4.13179
11
5.26287
21
-4.13238
0
LINE
8
BLACK
6
CONTINUOUS
10
5.84287
20
-4.13238
11
5.84543
21
-4.13409
0
LINE
8
BLACK
6
CONTINUOUS
10
5.84543
20
-4.13409
11
5.84713
21
-4.13665
0
LINE
8
BLACK
6
CONTINUOUS
10
5.84713
20
-4.13665
11
5.84773
21
-4.13966
0
LINE
8
BLACK
6
CONTINUOUS
10
5.84773
20
-4.13966
11
5.84773
21
-4.23806
0
LINE
8
BLACK
6
CONTINUOUS
10
5.84773
20
-4.23806
11
5.84713
21
-4.24107
0
LINE
8
BLACK
6
CONTINUOUS
10
5.84713
20
-4.24107
11
5.84543
21
-4.24363
0
LINE
8
BLACK
6
CONTINUOUS
10
5.84543
20
-4.24363
11
5.84287
21
-4.24533
0
LINE
8
BLACK
6
CONTINUOUS
10
5.84287
20
-4.24533
11
5.83986
21
-4.24593
0
LINE
8
BLACK
6
CONTINUOUS
10
5.83986
20
-4.24593
11
5.76896
21
-4.24593
0
LINE
8
BLACK
6
CONTINUOUS
10
5.76896
20
-4.24593
11
5.76595
21
-4.24533
0
LINE
8
BLACK
6
CONTINUOUS
10
5.76595
20
-4.24533
11
5.76339
21
-4.24363
0
LINE
8
BLACK
6
CONTINUOUS
10
5.76339
20
-4.24363
11
5.76168
21
-4.24107
0
LINE
8
BLACK
6
CONTINUOUS
10
5.76168
20
-4.24107
11
5.76109
21
-4.23806
0
LINE
8
BLACK
6
CONTINUOUS
10
5.76109
20
-4.23806
11
5.76109
21
-4.13966
0
LINE
8
BLACK
6
CONTINUOUS
10
5.76109
20
-4.13966
11
5.76168
21
-4.13665
0
LINE
8
BLACK
6
CONTINUOUS
10
5.76168
20
-4.13665
11
5.76339
21
-4.13409
0
LINE
8
BLACK
6
CONTINUOUS
10
5.76339
20
-4.13409
11
5.76595
21
-4.13238
0
LINE
8
BLACK
6
CONTINUOUS
10
5.76595
20
-4.13238
11
5.76896
21
-4.13179
0
LINE
8
BLACK
6
CONTINUOUS
10
5.76896
20
-4.13179
11
5.83986
21
-4.13179
0
LINE
8
BLACK
6
CONTINUOUS
10
5.83986
20
-4.13179
11
5.84287
21
-4.13238
0
LINE
8
BLACK
6
CONTINUOUS
10
5.39742
20
-4.12028
11
5.39998
21
-4.12199
0
LINE
8
BLACK
6
CONTINUOUS
10
5.39998
20
-4.12199
11
5.40168
21
-4.12455
0
LINE
8
BLACK
6
CONTINUOUS
10
5.40168
20
-4.12455
11
5.40228
21
-4.12756
0
LINE
8
BLACK
6
CONTINUOUS
10
5.40228
20
-4.12756
11
5.40228
21
-4.18756
0
LINE
8
BLACK
6
CONTINUOUS
10
5.40228
20
-4.18756
11
5.40168
21
-4.19057
0
LINE
8
BLACK
6
CONTINUOUS
10
5.40168
20
-4.19057
11
5.39998
21
-4.19313
0
LINE
8
BLACK
6
CONTINUOUS
10
5.39998
20
-4.19313
11
5.39742
21
-4.19483
0
LINE
8
BLACK
6
CONTINUOUS
10
5.39742
20
-4.19483
11
5.39441
21
-4.19543
0
LINE
8
BLACK
6
CONTINUOUS
10
5.39441
20
-4.19543
11
5.33441
21
-4.19543
0
LINE
8
BLACK
6
CONTINUOUS
10
5.33441
20
-4.19543
11
5.3314
21
-4.19483
0
LINE
8
BLACK
6
CONTINUOUS
10
5.3314
20
-4.19483
11
5.32884
21
-4.19313
0
LINE
8
BLACK
6
CONTINUOUS
10
5.32884
20
-4.19313
11
5.32713
21
-4.19057
0
LINE
8
BLACK
6
CONTINUOUS
10
5.32713
20
-4.19057
11
5.32654
21
-4.18756
0
LINE
8
BLACK
6
CONTINUOUS
10
5.32654
20
-4.18756
11
5.32654
21
-4.12756
0
LINE
8
BLACK
6
CONTINUOUS
10
5.32654
20
-4.12756
11
5.32713
21
-4.12455
0
LINE
8
BLACK
6
CONTINUOUS
10
5.32713
20
-4.12455
11
5.32884
21
-4.12199
0
LINE
8
BLACK
6
CONTINUOUS
10
5.32884
20
-4.12199
11
5.3314
21
-4.12028
0
LINE
8
BLACK
6
CONTINUOUS
10
5.3314
20
-4.12028
11
5.33441
21
-4.11969
0
LINE
8
BLACK
6
CONTINUOUS
10
5.33441
20
-4.11969
11
5.39441
21
-4.11969
0
LINE
8
BLACK
6
CONTINUOUS
10
5.39441
20
-4.11969
11
5.39742
21
-4.12028
0
LINE
8
BLACK
6
CONTINUOUS
10
5.49742
20
-4.12028
11
5.49998
21
-4.12199
0
LINE
8
BLACK
6
CONTINUOUS
10
5.49998
20
-4.12199
11
5.50168
21
-4.12455
0
LINE
8
BLACK
6
CONTINUOUS
10
5.50168
20
-4.12455
11
5.50228
21
-4.12756
0
LINE
8
BLACK
6
CONTINUOUS
10
5.50228
20
-4.12756
11
5.50228
21
-4.18756
0
LINE
8
BLACK
6
CONTINUOUS
10
5.50228
20
-4.18756
11
5.50168
21
-4.19057
0
LINE
8
BLACK
6
CONTINUOUS
10
5.50168
20
-4.19057
11
5.49998
21
-4.19313
0
LINE
8
BLACK
6
CONTINUOUS
10
5.49998
20
-4.19313
11
5.49742
21
-4.19483
0
LINE
8
BLACK
6
CONTINUOUS
10
5.49742
20
-4.19483
11
5.49441
21
-4.19543
0
LINE
8
BLACK
6
CONTINUOUS
10
5.49441
20
-4.19543
11
5.43441
21
-4.19543
0
LINE
8
BLACK
6
CONTINUOUS
10
5.43441
20
-4.19543
11
5.4314
21
-4.19483
0
LINE
8
BLACK
6
CONTINUOUS
10
5.4314
20
-4.19483
11
5.42884
21
-4.19313
0
LINE
8
BLACK
6
CONTINUOUS
10
5.42884
20
-4.19313
11
5.42713
21
-4.19057
0
LINE
8
BLACK
6
CONTINUOUS
10
5.42713
20
-4.19057
11
5.42654
21
-4.18756
0
LINE
8
BLACK
6
CONTINUOUS
10
5.42654
20
-4.18756
11
5.42654
21
-4.12756
0
LINE
8
BLACK
6
CONTINUOUS
10
5.42654
20
-4.12756
11
5.42713
21
-4.12455
0
LINE
8
BLACK
6
CONTINUOUS
10
5.42713
20
-4.12455
11
5.42884
21
-4.12199
0
LINE
8
BLACK
6
CONTINUOUS
10
5.42884
20
-4.12199
11
5.4314
21
-4.12028
0
LINE
8
BLACK
6
CONTINUOUS
10
5.4314
20
-4.12028
11
5.43441
21
-4.11969
0
LINE
8
BLACK
6
CONTINUOUS
10
5.43441
20
-4.11969
11
5.49441
21
-4.11969
0
LINE
8
BLACK
6
CONTINUOUS
10
5.49441
20
-4.11969
11
5.49742
21
-4.12028
0
LINE
8
BLACK
6
CONTINUOUS
10
5.59742
20
-4.12028
11
5.59998
21
-4.12199
0
LINE
8
BLACK
6
CONTINUOUS
10
5.59998
20
-4.12199
11
5.60168
21
-4.12455
0
LINE
8
BLACK
6
CONTINUOUS
10
5.60168
20
-4.12455
11
5.60228
21
-4.12756
0
LINE
8
BLACK
6
CONTINUOUS
10
5.60228
20
-4.12756
11
5.60228
21
-4.18756
0
LINE
8
BLACK
6
CONTINUOUS
10
5.60228
20
-4.18756
11
5.60168
21
-4.19057
0
LINE
8
BLACK
6
CONTINUOUS
10
5.60168
20
-4.19057
11
5.59998
21
-4.19313
0
LINE
8
BLACK
6
CONTINUOUS
10
5.59998
20
-4.19313
11
5.59742
21
-4.19483
0
LINE
8
BLACK
6
CONTINUOUS
10
5.59742
20
-4.19483
11
5.59441
21
-4.19543
0
LINE
8
BLACK
6
CONTINUOUS
10
5.59441
20
-4.19543
11
5.53441
21
-4.19543
0
LINE
8
BLACK
6
CONTINUOUS
10
5.53441
20
-4.19543
11
5.5314
21
-4.19483
0
LINE
8
BLACK
6
CONTINUOUS
10
5.5314
20
-4.19483
11
5.52884
21
-4.19313
0
LINE
8
BLACK
6
CONTINUOUS
10
5.52884
20
-4.19313
11
5.52713
21
-4.19057
0
LINE
8
BLACK
6
CONTINUOUS
10
5.52713
20
-4.19057
11
5.52654
21
-4.18756
0
LINE
8
BLACK
6
CONTINUOUS
10
5.52654
20
-4.18756
11
5.52654
21
-4.12756
0
LINE
8
BLACK
6
CONTINUOUS
10
5.52654
20
-4.12756
11
5.52713
21
-4.12455
0
LINE
8
BLACK
6
CONTINUOUS
10
5.52713
20
-4.12455
11
5.52884
21
-4.12199
0
LINE
8
BLACK
6
CONTINUOUS
10
5.52884
20
-4.12199
11
5.5314
21
-4.12028
0
LINE
8
BLACK
6
CONTINUOUS
10
5.5314
20
-4.12028
11
5.53441
21
-4.11969
0
LINE
8
BLACK
6
CONTINUOUS
10
5.53441
20
-4.11969
11
5.59441
21
-4.11969
0
LINE
8
BLACK
6
CONTINUOUS
10
5.59441
20
-4.11969
11
5.59742
21
-4.12028
0
LINE
8
BLACK
6
CONTINUOUS
10
5.69742
20
-4.12028
11
5.69998
21
-4.12199
0
LINE
8
BLACK
6
CONTINUOUS
10
5.69998
20
-4.12199
11
5.70168
21
-4.12455
0
LINE
8
BLACK
6
CONTINUOUS
10
5.70168
20
-4.12455
11
5.70228
21
-4.12756
0
LINE
8
BLACK
6
CONTINUOUS
10
5.70228
20
-4.12756
11
5.70228
21
-4.18756
0
LINE
8
BLACK
6
CONTINUOUS
10
5.70228
20
-4.18756
11
5.70168
21
-4.19057
0
LINE
8
BLACK
6
CONTINUOUS
10
5.70168
20
-4.19057
11
5.69998
21
-4.19313
0
LINE
8
BLACK
6
CONTINUOUS
10
5.69998
20
-4.19313
11
5.69742
21
-4.19483
0
LINE
8
BLACK
6
CONTINUOUS
10
5.69742
20
-4.19483
11
5.69441
21
-4.19543
0
LINE
8
BLACK
6
CONTINUOUS
10
5.69441
20
-4.19543
11
5.63441
21
-4.19543
0
LINE
8
BLACK
6
CONTINUOUS
10
5.63441
20
-4.19543
11
5.6314
21
-4.19483
0
LINE
8
BLACK
6
CONTINUOUS
10
5.6314
20
-4.19483
11
5.62884
21
-4.19313
0
LINE
8
BLACK
6
CONTINUOUS
10
5.62884
20
-4.19313
11
5.62713
21
-4.19057
0
LINE
8
BLACK
6
CONTINUOUS
10
5.62713
20
-4.19057
11
5.62654
21
-4.18756
0
LINE
8
BLACK
6
CONTINUOUS
10
5.62654
20
-4.18756
11
5.62654
21
-4.12756
0
LINE
8
BLACK
6
CONTINUOUS
10
5.62654
20
-4.12756
11
5.62713
21
-4.12455
0
LINE
8
BLACK
6
CONTINUOUS
10
5.62713
20
-4.12455
11
5.62884
21
-4.12199
0
LINE
8
BLACK
6
CONTINUOUS
10
5.62884
20
-4.12199
11
5.6314
21
-4.12028
0
LINE
8
BLACK
6
CONTINUOUS
10
5.6314
20
-4.12028
11
5.63441
21
-4.11969
0
LINE
8
BLACK
6
CONTINUOUS
10
5.63441
20
-4.11969
11
5.69441
21
-4.11969
0
LINE
8
BLACK
6
CONTINUOUS
10
5.69441
20
-4.11969
11
5.69742
21
-4.12028
0
LINE
8
BLACK
6
CONTINUOUS
10
5.26203
20
-4.05997
11
5.26458
21
-4.06168
0
LINE
8
BLACK
6
CONTINUOUS
10
5.26458
20
-4.06168
11
5.26629
21
-4.06423
0
LINE
8
BLACK
6
CONTINUOUS
10
5.26629
20
-4.06423
11
5.26689
21
-4.06724
0
LINE
8
BLACK
6
CONTINUOUS
10
5.26689
20
-4.06724
11
5.26689
21
-4.10661
0
LINE
8
BLACK
6
CONTINUOUS
10
5.26689
20
-4.10661
11
5.26629
21
-4.10963
0
LINE
8
BLACK
6
CONTINUOUS
10
5.26629
20
-4.10963
11
5.26458
21
-4.11218
0
LINE
8
BLACK
6
CONTINUOUS
10
5.26458
20
-4.11218
11
5.26203
21
-4.11389
0
LINE
8
BLACK
6
CONTINUOUS
10
5.26203
20
-4.11389
11
5.25902
21
-4.11449
0
LINE
8
BLACK
6
CONTINUOUS
10
5.25902
20
-4.11449
11
5.2098
21
-4.11449
0
LINE
8
BLACK
6
CONTINUOUS
10
5.2098
20
-4.11449
11
5.20679
21
-4.11389
0
LINE
8
BLACK
6
CONTINUOUS
10
5.20679
20
-4.11389
11
5.20424
21
-4.11218
0
LINE
8
BLACK
6
CONTINUOUS
10
5.20424
20
-4.11218
11
5.20253
21
-4.10963
0
LINE
8
BLACK
6
CONTINUOUS
10
5.20253
20
-4.10963
11
5.20193
21
-4.10661
0
LINE
8
BLACK
6
CONTINUOUS
10
5.20193
20
-4.10661
11
5.20193
21
-4.06724
0
LINE
8
BLACK
6
CONTINUOUS
10
5.20193
20
-4.06724
11
5.20253
21
-4.06423
0
LINE
8
BLACK
6
CONTINUOUS
10
5.20253
20
-4.06423
11
5.20424
21
-4.06168
0
LINE
8
BLACK
6
CONTINUOUS
10
5.20424
20
-4.06168
11
5.20679
21
-4.05997
0
LINE
8
BLACK
6
CONTINUOUS
10
5.20679
20
-4.05997
11
5.2098
21
-4.05937
0
LINE
8
BLACK
6
CONTINUOUS
10
5.2098
20
-4.05937
11
5.25902
21
-4.05937
0
LINE
8
BLACK
6
CONTINUOUS
10
5.25902
20
-4.05937
11
5.26203
21
-4.05997
0
LINE
8
BLACK
6
CONTINUOUS
10
5.63538
20
-3.95639
11
5.63793
21
-3.95809
0
LINE
8
BLACK
6
CONTINUOUS
10
5.63793
20
-3.95809
11
5.63964
21
-3.96065
0
LINE
8
BLACK
6
CONTINUOUS
10
5.63964
20
-3.96065
11
5.64024
21
-3.96366
0
LINE
8
BLACK
6
CONTINUOUS
10
5.64024
20
-3.96366
11
5.64024
21
-4.05146
0
LINE
8
BLACK
6
CONTINUOUS
10
5.64024
20
-4.05146
11
5.63964
21
-4.05447
0
LINE
8
BLACK
6
CONTINUOUS
10
5.63964
20
-4.05447
11
5.63793
21
-4.05702
0
LINE
8
BLACK
6
CONTINUOUS
10
5.63793
20
-4.05702
11
5.63538
21
-4.05873
0
LINE
8
BLACK
6
CONTINUOUS
10
5.63538
20
-4.05873
11
5.63236
21
-4.05933
0
LINE
8
BLACK
6
CONTINUOUS
10
5.63236
20
-4.05933
11
5.5615
21
-4.05933
0
LINE
8
BLACK
6
CONTINUOUS
10
5.5615
20
-4.05933
11
5.55848
21
-4.05873
0
LINE
8
BLACK
6
CONTINUOUS
10
5.55848
20
-4.05873
11
5.55593
21
-4.05702
0
LINE
8
BLACK
6
CONTINUOUS
10
5.55593
20
-4.05702
11
5.55422
21
-4.05447
0
LINE
8
BLACK
6
CONTINUOUS
10
5.55422
20
-4.05447
11
5.55362
21
-4.05146
0
LINE
8
BLACK
6
CONTINUOUS
10
5.55362
20
-4.05146
11
5.55362
21
-3.96366
0
LINE
8
BLACK
6
CONTINUOUS
10
5.55362
20
-3.96366
11
5.55422
21
-3.96065
0
LINE
8
BLACK
6
CONTINUOUS
10
5.55422
20
-3.96065
11
5.55593
21
-3.95809
0
LINE
8
BLACK
6
CONTINUOUS
10
5.55593
20
-3.95809
11
5.55848
21
-3.95639
0
LINE
8
BLACK
6
CONTINUOUS
10
5.55848
20
-3.95639
11
5.5615
21
-3.95579
0
LINE
8
BLACK
6
CONTINUOUS
10
5.5615
20
-3.95579
11
5.63236
21
-3.95579
0
LINE
8
BLACK
6
CONTINUOUS
10
5.63236
20
-3.95579
11
5.63538
21
-3.95639
0
LINE
8
BLACK
6
CONTINUOUS
10
5.75034
20
-3.95639
11
5.75289
21
-3.95809
0
LINE
8
BLACK
6
CONTINUOUS
10
5.75289
20
-3.95809
11
5.7546
21
-3.96065
0
LINE
8
BLACK
6
CONTINUOUS
10
5.7546
20
-3.96065
11
5.7552
21
-3.96366
0
LINE
8
BLACK
6
CONTINUOUS
10
5.7552
20
-3.96366
11
5.7552
21
-4.05146
0
LINE
8
BLACK
6
CONTINUOUS
10
5.7552
20
-4.05146
11
5.7546
21
-4.05447
0
LINE
8
BLACK
6
CONTINUOUS
10
5.7546
20
-4.05447
11
5.75289
21
-4.05702
0
LINE
8
BLACK
6
CONTINUOUS
10
5.75289
20
-4.05702
11
5.75034
21
-4.05873
0
LINE
8
BLACK
6
CONTINUOUS
10
5.75034
20
-4.05873
11
5.74732
21
-4.05933
0
LINE
8
BLACK
6
CONTINUOUS
10
5.74732
20
-4.05933
11
5.67646
21
-4.05933
0
LINE
8
BLACK
6
CONTINUOUS
10
5.67646
20
-4.05933
11
5.67344
21
-4.05873
0
LINE
8
BLACK
6
CONTINUOUS
10
5.67344
20
-4.05873
11
5.67089
21
-4.05702
0
LINE
8
BLACK
6
CONTINUOUS
10
5.67089
20
-4.05702
11
5.66918
21
-4.05447
0
LINE
8
BLACK
6
CONTINUOUS
10
5.66918
20
-4.05447
11
5.66858
21
-4.05146
0
LINE
8
BLACK
6
CONTINUOUS
10
5.66858
20
-4.05146
11
5.66858
21
-3.96366
0
LINE
8
BLACK
6
CONTINUOUS
10
5.66858
20
-3.96366
11
5.66918
21
-3.96065
0
LINE
8
BLACK
6
CONTINUOUS
10
5.66918
20
-3.96065
11
5.67089
21
-3.95809
0
LINE
8
BLACK
6
CONTINUOUS
10
5.67089
20
-3.95809
11
5.67344
21
-3.95639
0
LINE
8
BLACK
6
CONTINUOUS
10
5.67344
20
-3.95639
11
5.67646
21
-3.95579
0
LINE
8
BLACK
6
CONTINUOUS
10
5.67646
20
-3.95579
11
5.74732
21
-3.95579
0
LINE
8
BLACK
6
CONTINUOUS
10
5.74732
20
-3.95579
11
5.75034
21
-3.95639
0
LINE
8
BLACK
6
CONTINUOUS
10
5.26203
20
-3.98123
11
5.26458
21
-3.98294
0
LINE
8
BLACK
6
CONTINUOUS
10
5.26458
20
-3.98294
11
5.26629
21
-3.98549
0
LINE
8
BLACK
6
CONTINUOUS
10
5.26629
20
-3.98549
11
5.26689
21
-3.9885
0
LINE
8
BLACK
6
CONTINUOUS
10
5.26689
20
-3.9885
11
5.26689
21
-4.02787
0
LINE
8
BLACK
6
CONTINUOUS
10
5.26689
20
-4.02787
11
5.26629
21
-4.03089
0
LINE
8
BLACK
6
CONTINUOUS
10
5.26629
20
-4.03089
11
5.26458
21
-4.03344
0
LINE
8
BLACK
6
CONTINUOUS
10
5.26458
20
-4.03344
11
5.26203
21
-4.03515
0
LINE
8
BLACK
6
CONTINUOUS
10
5.26203
20
-4.03515
11
5.25902
21
-4.03575
0
LINE
8
BLACK
6
CONTINUOUS
10
5.25902
20
-4.03575
11
5.2098
21
-4.03575
0
LINE
8
BLACK
6
CONTINUOUS
10
5.2098
20
-4.03575
11
5.20679
21
-4.03515
0
LINE
8
BLACK
6
CONTINUOUS
10
5.20679
20
-4.03515
11
5.20424
21
-4.03344
0
LINE
8
BLACK
6
CONTINUOUS
10
5.20424
20
-4.03344
11
5.20253
21
-4.03089
0
LINE
8
BLACK
6
CONTINUOUS
10
5.20253
20
-4.03089
11
5.20193
21
-4.02787
0
LINE
8
BLACK
6
CONTINUOUS
10
5.20193
20
-4.02787
11
5.20193
21
-3.9885
0
LINE
8
BLACK
6
CONTINUOUS
10
5.20193
20
-3.9885
11
5.20253
21
-3.98549
0
LINE
8
BLACK
6
CONTINUOUS
10
5.20253
20
-3.98549
11
5.20424
21
-3.98294
0
LINE
8
BLACK
6
CONTINUOUS
10
5.20424
20
-3.98294
11
5.20679
21
-3.98123
0
LINE
8
BLACK
6
CONTINUOUS
10
5.20679
20
-3.98123
11
5.2098
21
-3.98063
0
LINE
8
BLACK
6
CONTINUOUS
10
5.2098
20
-3.98063
11
5.25902
21
-3.98063
0
LINE
8
BLACK
6
CONTINUOUS
10
5.25902
20
-3.98063
11
5.26203
21
-3.98123
0
LINE
8
BLACK
6
CONTINUOUS
10
6.12742
20
-3.96028
11
6.12998
21
-3.96199
0
LINE
8
BLACK
6
CONTINUOUS
10
6.12998
20
-3.96199
11
6.13168
21
-3.96455
0
LINE
8
BLACK
6
CONTINUOUS
10
6.13168
20
-3.96455
11
6.13228
21
-3.96756
0
LINE
8
BLACK
6
CONTINUOUS
10
6.13228
20
-3.96756
11
6.13228
21
-4.02756
0
LINE
8
BLACK
6
CONTINUOUS
10
6.13228
20
-4.02756
11
6.13168
21
-4.03057
0
LINE
8
BLACK
6
CONTINUOUS
10
6.13168
20
-4.03057
11
6.12998
21
-4.03313
0
LINE
8
BLACK
6
CONTINUOUS
10
6.12998
20
-4.03313
11
6.12742
21
-4.03483
0
LINE
8
BLACK
6
CONTINUOUS
10
6.12742
20
-4.03483
11
6.12441
21
-4.03543
0
LINE
8
BLACK
6
CONTINUOUS
10
6.12441
20
-4.03543
11
6.06441
21
-4.03543
0
LINE
8
BLACK
6
CONTINUOUS
10
6.06441
20
-4.03543
11
6.0614
21
-4.03483
0
LINE
8
BLACK
6
CONTINUOUS
10
6.0614
20
-4.03483
11
6.05884
21
-4.03313
0
LINE
8
BLACK
6
CONTINUOUS
10
6.05884
20
-4.03313
11
6.05713
21
-4.03057
0
LINE
8
BLACK
6
CONTINUOUS
10
6.05713
20
-4.03057
11
6.05654
21
-4.02756
0
LINE
8
BLACK
6
CONTINUOUS
10
6.05654
20
-4.02756
11
6.05654
21
-3.96756
0
LINE
8
BLACK
6
CONTINUOUS
10
6.05654
20
-3.96756
11
6.05713
21
-3.96455
0
LINE
8
BLACK
6
CONTINUOUS
10
6.05713
20
-3.96455
11
6.05884
21
-3.96199
0
LINE
8
BLACK
6
CONTINUOUS
10
6.05884
20
-3.96199
11
6.0614
21
-3.96028
0
LINE
8
BLACK
6
CONTINUOUS
10
6.0614
20
-3.96028
11
6.06441
21
-3.95969
0
LINE
8
BLACK
6
CONTINUOUS
10
6.06441
20
-3.95969
11
6.12441
21
-3.95969
0
LINE
8
BLACK
6
CONTINUOUS
10
6.12441
20
-3.95969
11
6.12742
21
-3.96028
0
LINE
8
BLACK
6
CONTINUOUS
10
6.22742
20
-3.96028
11
6.22998
21
-3.96199
0
LINE
8
BLACK
6
CONTINUOUS
10
6.22998
20
-3.96199
11
6.23168
21
-3.96455
0
LINE
8
BLACK
6
CONTINUOUS
10
6.23168
20
-3.96455
11
6.23228
21
-3.96756
0
LINE
8
BLACK
6
CONTINUOUS
10
6.23228
20
-3.96756
11
6.23228
21
-4.02756
0
LINE
8
BLACK
6
CONTINUOUS
10
6.23228
20
-4.02756
11
6.23168
21
-4.03057
0
LINE
8
BLACK
6
CONTINUOUS
10
6.23168
20
-4.03057
11
6.22998
21
-4.03313
0
LINE
8
BLACK
6
CONTINUOUS
10
6.22998
20
-4.03313
11
6.22742
21
-4.03483
0
LINE
8
BLACK
6
CONTINUOUS
10
6.22742
20
-4.03483
11
6.22441
21
-4.03543
0
LINE
8
BLACK
6
CONTINUOUS
10
6.22441
20
-4.03543
11
6.16441
21
-4.03543
0
LINE
8
BLACK
6
CONTINUOUS
10
6.16441
20
-4.03543
11
6.1614
21
-4.03483
0
LINE
8
BLACK
6
CONTINUOUS
10
6.1614
20
-4.03483
11
6.15884
21
-4.03313
0
LINE
8
BLACK
6
CONTINUOUS
10
6.15884
20
-4.03313
11
6.15713
21
-4.03057
0
LINE
8
BLACK
6
CONTINUOUS
10
6.15713
20
-4.03057
11
6.15654
21
-4.02756
0
LINE
8
BLACK
6
CONTINUOUS
10
6.15654
20
-4.02756
11
6.15654
21
-3.96756
0
LINE
8
BLACK
6
CONTINUOUS
10
6.15654
20
-3.96756
11
6.15713
21
-3.96455
0
LINE
8
BLACK
6
CONTINUOUS
10
6.15713
20
-3.96455
11
6.15884
21
-3.96199
0
LINE
8
BLACK
6
CONTINUOUS
10
6.15884
20
-3.96199
11
6.1614
21
-3.96028
0
LINE
8
BLACK
6
CONTINUOUS
10
6.1614
20
-3.96028
11
6.16441
21
-3.95969
0
LINE
8
BLACK
6
CONTINUOUS
10
6.16441
20
-3.95969
11
6.22441
21
-3.95969
0
LINE
8
BLACK
6
CONTINUOUS
10
6.22441
20
-3.95969
11
6.22742
21
-3.96028
0
LINE
8
BLACK
6
CONTINUOUS
10
5.06538
20
-3.92639
11
5.06793
21
-3.92809
0
LINE
8
BLACK
6
CONTINUOUS
10
5.06793
20
-3.92809
11
5.06964
21
-3.93065
0
LINE
8
BLACK
6
CONTINUOUS
10
5.06964
20
-3.93065
11
5.07024
21
-3.93366
0
LINE
8
BLACK
6
CONTINUOUS
10
5.07024
20
-3.93366
11
5.07024
21
-4.02146
0
LINE
8
BLACK
6
CONTINUOUS
10
5.07024
20
-4.02146
11
5.06964
21
-4.02447
0
LINE
8
BLACK
6
CONTINUOUS
10
5.06964
20
-4.02447
11
5.06793
21
-4.02702
0
LINE
8
BLACK
6
CONTINUOUS
10
5.06793
20
-4.02702
11
5.06538
21
-4.02873
0
LINE
8
BLACK
6
CONTINUOUS
10
5.06538
20
-4.02873
11
5.06236
21
-4.02933
0
LINE
8
BLACK
6
CONTINUOUS
10
5.06236
20
-4.02933
11
4.9915
21
-4.02933
0
LINE
8
BLACK
6
CONTINUOUS
10
4.9915
20
-4.02933
11
4.98848
21
-4.02873
0
LINE
8
BLACK
6
CONTINUOUS
10
4.98848
20
-4.02873
11
4.98593
21
-4.02702
0
LINE
8
BLACK
6
CONTINUOUS
10
4.98593
20
-4.02702
11
4.98422
21
-4.02447
0
LINE
8
BLACK
6
CONTINUOUS
10
4.98422
20
-4.02447
11
4.98362
21
-4.02146
0
LINE
8
BLACK
6
CONTINUOUS
10
4.98362
20
-4.02146
11
4.98362
21
-3.93366
0
LINE
8
BLACK
6
CONTINUOUS
10
4.98362
20
-3.93366
11
4.98422
21
-3.93065
0
LINE
8
BLACK
6
CONTINUOUS
10
4.98422
20
-3.93065
11
4.98593
21
-3.92809
0
LINE
8
BLACK
6
CONTINUOUS
10
4.98593
20
-3.92809
11
4.98848
21
-3.92639
0
LINE
8
BLACK
6
CONTINUOUS
10
4.98848
20
-3.92639
11
4.9915
21
-3.92579
0
LINE
8
BLACK
6
CONTINUOUS
10
4.9915
20
-3.92579
11
5.06236
21
-3.92579
0
LINE
8
BLACK
6
CONTINUOUS
10
5.06236
20
-3.92579
11
5.06538
21
-3.92639
0
LINE
8
BLACK
6
CONTINUOUS
10
5.18034
20
-3.92639
11
5.18289
21
-3.92809
0
LINE
8
BLACK
6
CONTINUOUS
10
5.18289
20
-3.92809
11
5.1846
21
-3.93065
0
LINE
8
BLACK
6
CONTINUOUS
10
5.1846
20
-3.93065
11
5.1852
21
-3.93366
0
LINE
8
BLACK
6
CONTINUOUS
10
5.1852
20
-3.93366
11
5.1852
21
-4.02146
0
LINE
8
BLACK
6
CONTINUOUS
10
5.1852
20
-4.02146
11
5.1846
21
-4.02447
0
LINE
8
BLACK
6
CONTINUOUS
10
5.1846
20
-4.02447
11
5.18289
21
-4.02702
0
LINE
8
BLACK
6
CONTINUOUS
10
5.18289
20
-4.02702
11
5.18034
21
-4.02873
0
LINE
8
BLACK
6
CONTINUOUS
10
5.18034
20
-4.02873
11
5.17732
21
-4.02933
0
LINE
8
BLACK
6
CONTINUOUS
10
5.17732
20
-4.02933
11
5.10646
21
-4.02933
0
LINE
8
BLACK
6
CONTINUOUS
10
5.10646
20
-4.02933
11
5.10344
21
-4.02873
0
LINE
8
BLACK
6
CONTINUOUS
10
5.10344
20
-4.02873
11
5.10089
21
-4.02702
0
LINE
8
BLACK
6
CONTINUOUS
10
5.10089
20
-4.02702
11
5.09918
21
-4.02447
0
LINE
8
BLACK
6
CONTINUOUS
10
5.09918
20
-4.02447
11
5.09858
21
-4.02146
0
LINE
8
BLACK
6
CONTINUOUS
10
5.09858
20
-4.02146
11
5.09858
21
-3.93366
0
LINE
8
BLACK
6
CONTINUOUS
10
5.09858
20
-3.93366
11
5.09918
21
-3.93065
0
LINE
8
BLACK
6
CONTINUOUS
10
5.09918
20
-3.93065
11
5.10089
21
-3.92809
0
LINE
8
BLACK
6
CONTINUOUS
10
5.10089
20
-3.92809
11
5.10344
21
-3.92639
0
LINE
8
BLACK
6
CONTINUOUS
10
5.10344
20
-3.92639
11
5.10646
21
-3.92579
0
LINE
8
BLACK
6
CONTINUOUS
10
5.10646
20
-3.92579
11
5.17732
21
-3.92579
0
LINE
8
BLACK
6
CONTINUOUS
10
5.17732
20
-3.92579
11
5.18034
21
-3.92639
0
LINE
8
BLACK
6
CONTINUOUS
10
6.12742
20
-3.86028
11
6.12998
21
-3.86199
0
LINE
8
BLACK
6
CONTINUOUS
10
6.12998
20
-3.86199
11
6.13168
21
-3.86455
0
LINE
8
BLACK
6
CONTINUOUS
10
6.13168
20
-3.86455
11
6.13228
21
-3.86756
0
LINE
8
BLACK
6
CONTINUOUS
10
6.13228
20
-3.86756
11
6.13228
21
-3.92756
0
LINE
8
BLACK
6
CONTINUOUS
10
6.13228
20
-3.92756
11
6.13168
21
-3.93057
0
LINE
8
BLACK
6
CONTINUOUS
10
6.13168
20
-3.93057
11
6.12998
21
-3.93313
0
LINE
8
BLACK
6
CONTINUOUS
10
6.12998
20
-3.93313
11
6.12742
21
-3.93483
0
LINE
8
BLACK
6
CONTINUOUS
10
6.12742
20
-3.93483
11
6.12441
21
-3.93543
0
LINE
8
BLACK
6
CONTINUOUS
10
6.12441
20
-3.93543
11
6.06441
21
-3.93543
0
LINE
8
BLACK
6
CONTINUOUS
10
6.06441
20
-3.93543
11
6.0614
21
-3.93483
0
LINE
8
BLACK
6
CONTINUOUS
10
6.0614
20
-3.93483
11
6.05884
21
-3.93313
0
LINE
8
BLACK
6
CONTINUOUS
10
6.05884
20
-3.93313
11
6.05713
21
-3.93057
0
LINE
8
BLACK
6
CONTINUOUS
10
6.05713
20
-3.93057
11
6.05654
21
-3.92756
0
LINE
8
BLACK
6
CONTINUOUS
10
6.05654
20
-3.92756
11
6.05654
21
-3.86756
0
LINE
8
BLACK
6
CONTINUOUS
10
6.05654
20
-3.86756
11
6.05713
21
-3.86455
0
LINE
8
BLACK
6
CONTINUOUS
10
6.05713
20
-3.86455
11
6.05884
21
-3.86199
0
LINE
8
BLACK
6
CONTINUOUS
10
6.05884
20
-3.86199
11
6.0614
21
-3.86028
0
LINE
8
BLACK
6
CONTINUOUS
10
6.0614
20
-3.86028
11
6.06441
21
-3.85969
0
LINE
8
BLACK
6
CONTINUOUS
10
6.06441
20
-3.85969
11
6.12441
21
-3.85969
0
LINE
8
BLACK
6
CONTINUOUS
10
6.12441
20
-3.85969
11
6.12742
21
-3.86028
0
LINE
8
BLACK
6
CONTINUOUS
10
6.22742
20
-3.86028
11
6.22998
21
-3.86199
0
LINE
8
BLACK
6
CONTINUOUS
10
6.22998
20
-3.86199
11
6.23168
21
-3.86455
0
LINE
8
BLACK
6
CONTINUOUS
10
6.23168
20
-3.86455
11
6.23228
21
-3.86756
0
LINE
8
BLACK
6
CONTINUOUS
10
6.23228
20
-3.86756
11
6.23228
21
-3.92756
0
LINE
8
BLACK
6
CONTINUOUS
10
6.23228
20
-3.92756
11
6.23168
21
-3.93057
0
LINE
8
BLACK
6
CONTINUOUS
10
6.23168
20
-3.93057
11
6.22998
21
-3.93313
0
LINE
8
BLACK
6
CONTINUOUS
10
6.22998
20
-3.93313
11
6.22742
21
-3.93483
0
LINE
8
BLACK
6
CONTINUOUS
10
6.22742
20
-3.93483
11
6.22441
21
-3.93543
0
LINE
8
BLACK
6
CONTINUOUS
10
6.22441
20
-3.93543
11
6.16441
21
-3.93543
0
LINE
8
BLACK
6
CONTINUOUS
10
6.16441
20
-3.93543
11
6.1614
21
-3.93483
0
LINE
8
BLACK
6
CONTINUOUS
10
6.1614
20
-3.93483
11
6.15884
21
-3.93313
0
LINE
8
BLACK
6
CONTINUOUS
10
6.15884
20
-3.93313
11
6.15713
21
-3.93057
0
LINE
8
BLACK
6
CONTINUOUS
10
6.15713
20
-3.93057
11
6.15654
21
-3.92756
0
LINE
8
BLACK
6
CONTINUOUS
10
6.15654
20
-3.92756
11
6.15654
21
-3.86756
0
LINE
8
BLACK
6
CONTINUOUS
10
6.15654
20
-3.86756
11
6.15713
21
-3.86455
0
LINE
8
BLACK
6
CONTINUOUS
10
6.15713
20
-3.86455
11
6.15884
21
-3.86199
0
LINE
8
BLACK
6
CONTINUOUS
10
6.15884
20
-3.86199
11
6.1614
21
-3.86028
0
LINE
8
BLACK
6
CONTINUOUS
10
6.1614
20
-3.86028
11
6.16441
21
-3.85969
0
LINE
8
BLACK
6
CONTINUOUS
10
6.16441
20
-3.85969
11
6.22441
21
-3.85969
0
LINE
8
BLACK
6
CONTINUOUS
10
6.22441
20
-3.85969
11
6.22742
21
-3.86028
0
LINE
8
BLACK
6
CONTINUOUS
10
5.40742
20
-3.83028
11
5.40998
21
-3.83199
0
LINE
8
BLACK
6
CONTINUOUS
10
5.40998
20
-3.83199
11
5.41168
21
-3.83455
0
LINE
8
BLACK
6
CONTINUOUS
10
5.41168
20
-3.83455
11
5.41228
21
-3.83756
0
LINE
8
BLACK
6
CONTINUOUS
10
5.41228
20
-3.83756
11
5.41228
21
-3.89756
0
LINE
8
BLACK
6
CONTINUOUS
10
5.41228
20
-3.89756
11
5.41168
21
-3.90057
0
LINE
8
BLACK
6
CONTINUOUS
10
5.41168
20
-3.90057
11
5.40998
21
-3.90313
0
LINE
8
BLACK
6
CONTINUOUS
10
5.40998
20
-3.90313
11
5.40742
21
-3.90483
0
LINE
8
BLACK
6
CONTINUOUS
10
5.40742
20
-3.90483
11
5.40441
21
-3.90543
0
LINE
8
BLACK
6
CONTINUOUS
10
5.40441
20
-3.90543
11
5.34441
21
-3.90543
0
LINE
8
BLACK
6
CONTINUOUS
10
5.34441
20
-3.90543
11
5.3414
21
-3.90483
0
LINE
8
BLACK
6
CONTINUOUS
10
5.3414
20
-3.90483
11
5.33884
21
-3.90313
0
LINE
8
BLACK
6
CONTINUOUS
10
5.33884
20
-3.90313
11
5.33713
21
-3.90057
0
LINE
8
BLACK
6
CONTINUOUS
10
5.33713
20
-3.90057
11
5.33654
21
-3.89756
0
LINE
8
BLACK
6
CONTINUOUS
10
5.33654
20
-3.89756
11
5.33654
21
-3.83756
0
LINE
8
BLACK
6
CONTINUOUS
10
5.33654
20
-3.83756
11
5.33713
21
-3.83455
0
LINE
8
BLACK
6
CONTINUOUS
10
5.33713
20
-3.83455
11
5.33884
21
-3.83199
0
LINE
8
BLACK
6
CONTINUOUS
10
5.33884
20
-3.83199
11
5.3414
21
-3.83028
0
LINE
8
BLACK
6
CONTINUOUS
10
5.3414
20
-3.83028
11
5.34441
21
-3.82969
0
LINE
8
BLACK
6
CONTINUOUS
10
5.34441
20
-3.82969
11
5.40441
21
-3.82969
0
LINE
8
BLACK
6
CONTINUOUS
10
5.40441
20
-3.82969
11
5.40742
21
-3.83028
0
LINE
8
BLACK
6
CONTINUOUS
10
5.50742
20
-3.83028
11
5.50998
21
-3.83199
0
LINE
8
BLACK
6
CONTINUOUS
10
5.50998
20
-3.83199
11
5.51168
21
-3.83455
0
LINE
8
BLACK
6
CONTINUOUS
10
5.51168
20
-3.83455
11
5.51228
21
-3.83756
0
LINE
8
BLACK
6
CONTINUOUS
10
5.51228
20
-3.83756
11
5.51228
21
-3.89756
0
LINE
8
BLACK
6
CONTINUOUS
10
5.51228
20
-3.89756
11
5.51168
21
-3.90057
0
LINE
8
BLACK
6
CONTINUOUS
10
5.51168
20
-3.90057
11
5.50998
21
-3.90313
0
LINE
8
BLACK
6
CONTINUOUS
10
5.50998
20
-3.90313
11
5.50742
21
-3.90483
0
LINE
8
BLACK
6
CONTINUOUS
10
5.50742
20
-3.90483
11
5.50441
21
-3.90543
0
LINE
8
BLACK
6
CONTINUOUS
10
5.50441
20
-3.90543
11
5.44441
21
-3.90543
0
LINE
8
BLACK
6
CONTINUOUS
10
5.44441
20
-3.90543
11
5.4414
21
-3.90483
0
LINE
8
BLACK
6
CONTINUOUS
10
5.4414
20
-3.90483
11
5.43884
21
-3.90313
0
LINE
8
BLACK
6
CONTINUOUS
10
5.43884
20
-3.90313
11
5.43713
21
-3.90057
0
LINE
8
BLACK
6
CONTINUOUS
10
5.43713
20
-3.90057
11
5.43654
21
-3.89756
0
LINE
8
BLACK
6
CONTINUOUS
10
5.43654
20
-3.89756
11
5.43654
21
-3.83756
0
LINE
8
BLACK
6
CONTINUOUS
10
5.43654
20
-3.83756
11
5.43713
21
-3.83455
0
LINE
8
BLACK
6
CONTINUOUS
10
5.43713
20
-3.83455
11
5.43884
21
-3.83199
0
LINE
8
BLACK
6
CONTINUOUS
10
5.43884
20
-3.83199
11
5.4414
21
-3.83028
0
LINE
8
BLACK
6
CONTINUOUS
10
5.4414
20
-3.83028
11
5.44441
21
-3.82969
0
LINE
8
BLACK
6
CONTINUOUS
10
5.44441
20
-3.82969
11
5.50441
21
-3.82969
0
LINE
8
BLACK
6
CONTINUOUS
10
5.50441
20
-3.82969
11
5.50742
21
-3.83028
0
LINE
8
BLACK
6
CONTINUOUS
10
5.60742
20
-3.83028
11
5.60998
21
-3.83199
0
LINE
8
BLACK
6
CONTINUOUS
10
5.60998
20
-3.83199
11
5.61168
21
-3.83455
0
LINE
8
BLACK
6
CONTINUOUS
10
5.61168
20
-3.83455
11
5.61228
21
-3.83756
0
LINE
8
BLACK
6
CONTINUOUS
10
5.61228
20
-3.83756
11
5.61228
21
-3.89756
0
LINE
8
BLACK
6
CONTINUOUS
10
5.61228
20
-3.89756
11
5.61168
21
-3.90057
0
LINE
8
BLACK
6
CONTINUOUS
10
5.61168
20
-3.90057
11
5.60998
21
-3.90313
0
LINE
8
BLACK
6
CONTINUOUS
10
5.60998
20
-3.90313
11
5.60742
21
-3.90483
0
LINE
8
BLACK
6
CONTINUOUS
10
5.60742
20
-3.90483
11
5.60441
21
-3.90543
0
LINE
8
BLACK
6
CONTINUOUS
10
5.60441
20
-3.90543
11
5.54441
21
-3.90543
0
LINE
8
BLACK
6
CONTINUOUS
10
5.54441
20
-3.90543
11
5.5414
21
-3.90483
0
LINE
8
BLACK
6
CONTINUOUS
10
5.5414
20
-3.90483
11
5.53884
21
-3.90313
0
LINE
8
BLACK
6
CONTINUOUS
10
5.53884
20
-3.90313
11
5.53713
21
-3.90057
0
LINE
8
BLACK
6
CONTINUOUS
10
5.53713
20
-3.90057
11
5.53654
21
-3.89756
0
LINE
8
BLACK
6
CONTINUOUS
10
5.53654
20
-3.89756
11
5.53654
21
-3.83756
0
LINE
8
BLACK
6
CONTINUOUS
10
5.53654
20
-3.83756
11
5.53713
21
-3.83455
0
LINE
8
BLACK
6
CONTINUOUS
10
5.53713
20
-3.83455
11
5.53884
21
-3.83199
0
LINE
8
BLACK
6
CONTINUOUS
10
5.53884
20
-3.83199
11
5.5414
21
-3.83028
0
LINE
8
BLACK
6
CONTINUOUS
10
5.5414
20
-3.83028
11
5.54441
21
-3.82969
0
LINE
8
BLACK
6
CONTINUOUS
10
5.54441
20
-3.82969
11
5.60441
21
-3.82969
0
LINE
8
BLACK
6
CONTINUOUS
10
5.60441
20
-3.82969
11
5.60742
21
-3.83028
0
LINE
8
BLACK
6
CONTINUOUS
10
5.17671
20
-3.80695
11
5.18373
21
-3.80908
0
LINE
8
BLACK
6
CONTINUOUS
10
5.18373
20
-3.80908
11
5.1902
21
-3.81254
0
LINE
8
BLACK
6
CONTINUOUS
10
5.1902
20
-3.81254
11
5.19587
21
-3.8172
0
LINE
8
BLACK
6
CONTINUOUS
10
5.19587
20
-3.8172
11
5.20053
21
-3.82287
0
LINE
8
BLACK
6
CONTINUOUS
10
5.20053
20
-3.82287
11
5.20398
21
-3.82934
0
LINE
8
BLACK
6
CONTINUOUS
10
5.20398
20
-3.82934
11
5.20611
21
-3.83636
0
LINE
8
BLACK
6
CONTINUOUS
10
5.20611
20
-3.83636
11
5.20683
21
-3.84366
0
LINE
8
BLACK
6
CONTINUOUS
10
5.20683
20
-3.84366
11
5.20611
21
-3.85096
0
LINE
8
BLACK
6
CONTINUOUS
10
5.20611
20
-3.85096
11
5.20398
21
-3.85798
0
LINE
8
BLACK
6
CONTINUOUS
10
5.20398
20
-3.85798
11
5.20053
21
-3.86445
0
LINE
8
BLACK
6
CONTINUOUS
10
5.20053
20
-3.86445
11
5.19587
21
-3.87012
0
LINE
8
BLACK
6
CONTINUOUS
10
5.19587
20
-3.87012
11
5.1902
21
-3.87478
0
LINE
8
BLACK
6
CONTINUOUS
10
5.1902
20
-3.87478
11
5.18373
21
-3.87823
0
LINE
8
BLACK
6
CONTINUOUS
10
5.18373
20
-3.87823
11
5.17671
21
-3.88036
0
LINE
8
BLACK
6
CONTINUOUS
10
5.17671
20
-3.88036
11
5.16941
21
-3.88108
0
LINE
8
BLACK
6
CONTINUOUS
10
5.16941
20
-3.88108
11
5.16211
21
-3.88036
0
LINE
8
BLACK
6
CONTINUOUS
10
5.16211
20
-3.88036
11
5.15509
21
-3.87823
0
LINE
8
BLACK
6
CONTINUOUS
10
5.15509
20
-3.87823
11
5.14862
21
-3.87478
0
LINE
8
BLACK
6
CONTINUOUS
10
5.14862
20
-3.87478
11
5.14295
21
-3.87012
0
LINE
8
BLACK
6
CONTINUOUS
10
5.14295
20
-3.87012
11
5.13829
21
-3.86445
0
LINE
8
BLACK
6
CONTINUOUS
10
5.13829
20
-3.86445
11
5.13483
21
-3.85798
0
LINE
8
BLACK
6
CONTINUOUS
10
5.13483
20
-3.85798
11
5.1327
21
-3.85096
0
LINE
8
BLACK
6
CONTINUOUS
10
5.1327
20
-3.85096
11
5.13199
21
-3.84366
0
LINE
8
BLACK
6
CONTINUOUS
10
5.13199
20
-3.84366
11
5.1327
21
-3.83636
0
LINE
8
BLACK
6
CONTINUOUS
10
5.1327
20
-3.83636
11
5.13483
21
-3.82934
0
LINE
8
BLACK
6
CONTINUOUS
10
5.13483
20
-3.82934
11
5.13829
21
-3.82287
0
LINE
8
BLACK
6
CONTINUOUS
10
5.13829
20
-3.82287
11
5.14295
21
-3.8172
0
LINE
8
BLACK
6
CONTINUOUS
10
5.14295
20
-3.8172
11
5.14862
21
-3.81254
0
LINE
8
BLACK
6
CONTINUOUS
10
5.14862
20
-3.81254
11
5.15509
21
-3.80908
0
LINE
8
BLACK
6
CONTINUOUS
10
5.15509
20
-3.80908
11
5.16211
21
-3.80695
0
LINE
8
BLACK
6
CONTINUOUS
10
5.16211
20
-3.80695
11
5.16941
21
-3.80624
0
LINE
8
BLACK
6
CONTINUOUS
10
5.16941
20
-3.80624
11
5.17671
21
-3.80695
0
LINE
8
BLACK
6
CONTINUOUS
10
5.70203
20
-3.80997
11
5.70458
21
-3.81168
0
LINE
8
BLACK
6
CONTINUOUS
10
5.70458
20
-3.81168
11
5.70629
21
-3.81423
0
LINE
8
BLACK
6
CONTINUOUS
10
5.70629
20
-3.81423
11
5.70689
21
-3.81724
0
LINE
8
BLACK
6
CONTINUOUS
10
5.70689
20
-3.81724
11
5.70689
21
-3.85661
0
LINE
8
BLACK
6
CONTINUOUS
10
5.70689
20
-3.85661
11
5.70629
21
-3.85963
0
LINE
8
BLACK
6
CONTINUOUS
10
5.70629
20
-3.85963
11
5.70458
21
-3.86218
0
LINE
8
BLACK
6
CONTINUOUS
10
5.70458
20
-3.86218
11
5.70203
21
-3.86389
0
LINE
8
BLACK
6
CONTINUOUS
10
5.70203
20
-3.86389
11
5.69902
21
-3.86449
0
LINE
8
BLACK
6
CONTINUOUS
10
5.69902
20
-3.86449
11
5.6498
21
-3.86449
0
LINE
8
BLACK
6
CONTINUOUS
10
5.6498
20
-3.86449
11
5.64679
21
-3.86389
0
LINE
8
BLACK
6
CONTINUOUS
10
5.64679
20
-3.86389
11
5.64424
21
-3.86218
0
LINE
8
BLACK
6
CONTINUOUS
10
5.64424
20
-3.86218
11
5.64253
21
-3.85963
0
LINE
8
BLACK
6
CONTINUOUS
10
5.64253
20
-3.85963
11
5.64193
21
-3.85661
0
LINE
8
BLACK
6
CONTINUOUS
10
5.64193
20
-3.85661
11
5.64193
21
-3.81724
0
LINE
8
BLACK
6
CONTINUOUS
10
5.64193
20
-3.81724
11
5.64253
21
-3.81423
0
LINE
8
BLACK
6
CONTINUOUS
10
5.64253
20
-3.81423
11
5.64424
21
-3.81168
0
LINE
8
BLACK
6
CONTINUOUS
10
5.64424
20
-3.81168
11
5.64679
21
-3.80997
0
LINE
8
BLACK
6
CONTINUOUS
10
5.64679
20
-3.80997
11
5.6498
21
-3.80937
0
LINE
8
BLACK
6
CONTINUOUS
10
5.6498
20
-3.80937
11
5.69902
21
-3.80937
0
LINE
8
BLACK
6
CONTINUOUS
10
5.69902
20
-3.80937
11
5.70203
21
-3.80997
0
LINE
8
BLACK
6
CONTINUOUS
10
4.92742
20
-3.77028
11
4.92998
21
-3.77199
0
LINE
8
BLACK
6
CONTINUOUS
10
4.92998
20
-3.77199
11
4.93168
21
-3.77455
0
LINE
8
BLACK
6
CONTINUOUS
10
4.93168
20
-3.77455
11
4.93228
21
-3.77756
0
LINE
8
BLACK
6
CONTINUOUS
10
4.93228
20
-3.77756
11
4.93228
21
-3.83756
0
LINE
8
BLACK
6
CONTINUOUS
10
4.93228
20
-3.83756
11
4.93168
21
-3.84057
0
LINE
8
BLACK
6
CONTINUOUS
10
4.93168
20
-3.84057
11
4.92998
21
-3.84313
0
LINE
8
BLACK
6
CONTINUOUS
10
4.92998
20
-3.84313
11
4.92742
21
-3.84483
0
LINE
8
BLACK
6
CONTINUOUS
10
4.92742
20
-3.84483
11
4.92441
21
-3.84543
0
LINE
8
BLACK
6
CONTINUOUS
10
4.92441
20
-3.84543
11
4.86441
21
-3.84543
0
LINE
8
BLACK
6
CONTINUOUS
10
4.86441
20
-3.84543
11
4.8614
21
-3.84483
0
LINE
8
BLACK
6
CONTINUOUS
10
4.8614
20
-3.84483
11
4.85884
21
-3.84313
0
LINE
8
BLACK
6
CONTINUOUS
10
4.85884
20
-3.84313
11
4.85713
21
-3.84057
0
LINE
8
BLACK
6
CONTINUOUS
10
4.85713
20
-3.84057
11
4.85654
21
-3.83756
0
LINE
8
BLACK
6
CONTINUOUS
10
4.85654
20
-3.83756
11
4.85654
21
-3.77756
0
LINE
8
BLACK
6
CONTINUOUS
10
4.85654
20
-3.77756
11
4.85713
21
-3.77455
0
LINE
8
BLACK
6
CONTINUOUS
10
4.85713
20
-3.77455
11
4.85884
21
-3.77199
0
LINE
8
BLACK
6
CONTINUOUS
10
4.85884
20
-3.77199
11
4.8614
21
-3.77028
0
LINE
8
BLACK
6
CONTINUOUS
10
4.8614
20
-3.77028
11
4.86441
21
-3.76969
0
LINE
8
BLACK
6
CONTINUOUS
10
4.86441
20
-3.76969
11
4.92441
21
-3.76969
0
LINE
8
BLACK
6
CONTINUOUS
10
4.92441
20
-3.76969
11
4.92742
21
-3.77028
0
LINE
8
BLACK
6
CONTINUOUS
10
5.02742
20
-3.77028
11
5.02998
21
-3.77199
0
LINE
8
BLACK
6
CONTINUOUS
10
5.02998
20
-3.77199
11
5.03168
21
-3.77455
0
LINE
8
BLACK
6
CONTINUOUS
10
5.03168
20
-3.77455
11
5.03228
21
-3.77756
0
LINE
8
BLACK
6
CONTINUOUS
10
5.03228
20
-3.77756
11
5.03228
21
-3.83756
0
LINE
8
BLACK
6
CONTINUOUS
10
5.03228
20
-3.83756
11
5.03168
21
-3.84057
0
LINE
8
BLACK
6
CONTINUOUS
10
5.03168
20
-3.84057
11
5.02998
21
-3.84313
0
LINE
8
BLACK
6
CONTINUOUS
10
5.02998
20
-3.84313
11
5.02742
21
-3.84483
0
LINE
8
BLACK
6
CONTINUOUS
10
5.02742
20
-3.84483
11
5.02441
21
-3.84543
0
LINE
8
BLACK
6
CONTINUOUS
10
5.02441
20
-3.84543
11
4.96441
21
-3.84543
0
LINE
8
BLACK
6
CONTINUOUS
10
4.96441
20
-3.84543
11
4.9614
21
-3.84483
0
LINE
8
BLACK
6
CONTINUOUS
10
4.9614
20
-3.84483
11
4.95884
21
-3.84313
0
LINE
8
BLACK
6
CONTINUOUS
10
4.95884
20
-3.84313
11
4.95713
21
-3.84057
0
LINE
8
BLACK
6
CONTINUOUS
10
4.95713
20
-3.84057
11
4.95654
21
-3.83756
0
LINE
8
BLACK
6
CONTINUOUS
10
4.95654
20
-3.83756
11
4.95654
21
-3.77756
0
LINE
8
BLACK
6
CONTINUOUS
10
4.95654
20
-3.77756
11
4.95713
21
-3.77455
0
LINE
8
BLACK
6
CONTINUOUS
10
4.95713
20
-3.77455
11
4.95884
21
-3.77199
0
LINE
8
BLACK
6
CONTINUOUS
10
4.95884
20
-3.77199
11
4.9614
21
-3.77028
0
LINE
8
BLACK
6
CONTINUOUS
10
4.9614
20
-3.77028
11
4.96441
21
-3.76969
0
LINE
8
BLACK
6
CONTINUOUS
10
4.96441
20
-3.76969
11
5.02441
21
-3.76969
0
LINE
8
BLACK
6
CONTINUOUS
10
5.02441
20
-3.76969
11
5.02742
21
-3.77028
0
LINE
8
BLACK
6
CONTINUOUS
10
6.12742
20
-3.76028
11
6.12998
21
-3.76199
0
LINE
8
BLACK
6
CONTINUOUS
10
6.12998
20
-3.76199
11
6.13168
21
-3.76455
0
LINE
8
BLACK
6
CONTINUOUS
10
6.13168
20
-3.76455
11
6.13228
21
-3.76756
0
LINE
8
BLACK
6
CONTINUOUS
10
6.13228
20
-3.76756
11
6.13228
21
-3.82756
0
LINE
8
BLACK
6
CONTINUOUS
10
6.13228
20
-3.82756
11
6.13168
21
-3.83057
0
LINE
8
BLACK
6
CONTINUOUS
10
6.13168
20
-3.83057
11
6.12998
21
-3.83313
0
LINE
8
BLACK
6
CONTINUOUS
10
6.12998
20
-3.83313
11
6.12742
21
-3.83483
0
LINE
8
BLACK
6
CONTINUOUS
10
6.12742
20
-3.83483
11
6.12441
21
-3.83543
0
LINE
8
BLACK
6
CONTINUOUS
10
6.12441
20
-3.83543
11
6.06441
21
-3.83543
0
LINE
8
BLACK
6
CONTINUOUS
10
6.06441
20
-3.83543
11
6.0614
21
-3.83483
0
LINE
8
BLACK
6
CONTINUOUS
10
6.0614
20
-3.83483
11
6.05884
21
-3.83313
0
LINE
8
BLACK
6
CONTINUOUS
10
6.05884
20
-3.83313
11
6.05713
21
-3.83057
0
LINE
8
BLACK
6
CONTINUOUS
10
6.05713
20
-3.83057
11
6.05654
21
-3.82756
0
LINE
8
BLACK
6
CONTINUOUS
10
6.05654
20
-3.82756
11
6.05654
21
-3.76756
0
LINE
8
BLACK
6
CONTINUOUS
10
6.05654
20
-3.76756
11
6.05713
21
-3.76455
0
LINE
8
BLACK
6
CONTINUOUS
10
6.05713
20
-3.76455
11
6.05884
21
-3.76199
0
LINE
8
BLACK
6
CONTINUOUS
10
6.05884
20
-3.76199
11
6.0614
21
-3.76028
0
LINE
8
BLACK
6
CONTINUOUS
10
6.0614
20
-3.76028
11
6.06441
21
-3.75969
0
LINE
8
BLACK
6
CONTINUOUS
10
6.06441
20
-3.75969
11
6.12441
21
-3.75969
0
LINE
8
BLACK
6
CONTINUOUS
10
6.12441
20
-3.75969
11
6.12742
21
-3.76028
0
LINE
8
BLACK
6
CONTINUOUS
10
6.22742
20
-3.76028
11
6.22998
21
-3.76199
0
LINE
8
BLACK
6
CONTINUOUS
10
6.22998
20
-3.76199
11
6.23168
21
-3.76455
0
LINE
8
BLACK
6
CONTINUOUS
10
6.23168
20
-3.76455
11
6.23228
21
-3.76756
0
LINE
8
BLACK
6
CONTINUOUS
10
6.23228
20
-3.76756
11
6.23228
21
-3.82756
0
LINE
8
BLACK
6
CONTINUOUS
10
6.23228
20
-3.82756
11
6.23168
21
-3.83057
0
LINE
8
BLACK
6
CONTINUOUS
10
6.23168
20
-3.83057
11
6.22998
21
-3.83313
0
LINE
8
BLACK
6
CONTINUOUS
10
6.22998
20
-3.83313
11
6.22742
21
-3.83483
0
LINE
8
BLACK
6
CONTINUOUS
10
6.22742
20
-3.83483
11
6.22441
21
-3.83543
0
LINE
8
BLACK
6
CONTINUOUS
10
6.22441
20
-3.83543
11
6.16441
21
-3.83543
0
LINE
8
BLACK
6
CONTINUOUS
10
6.16441
20
-3.83543
11
6.1614
21
-3.83483
0
LINE
8
BLACK
6
CONTINUOUS
10
6.1614
20
-3.83483
11
6.15884
21
-3.83313
0
LINE
8
BLACK
6
CONTINUOUS
10
6.15884
20
-3.83313
11
6.15713
21
-3.83057
0
LINE
8
BLACK
6
CONTINUOUS
10
6.15713
20
-3.83057
11
6.15654
21
-3.82756
0
LINE
8
BLACK
6
CONTINUOUS
10
6.15654
20
-3.82756
11
6.15654
21
-3.76756
0
LINE
8
BLACK
6
CONTINUOUS
10
6.15654
20
-3.76756
11
6.15713
21
-3.76455
0
LINE
8
BLACK
6
CONTINUOUS
10
6.15713
20
-3.76455
11
6.15884
21
-3.76199
0
LINE
8
BLACK
6
CONTINUOUS
10
6.15884
20
-3.76199
11
6.1614
21
-3.76028
0
LINE
8
BLACK
6
CONTINUOUS
10
6.1614
20
-3.76028
11
6.16441
21
-3.75969
0
LINE
8
BLACK
6
CONTINUOUS
10
6.16441
20
-3.75969
11
6.22441
21
-3.75969
0
LINE
8
BLACK
6
CONTINUOUS
10
6.22441
20
-3.75969
11
6.22742
21
-3.76028
0
LINE
8
BLACK
6
CONTINUOUS
10
5.70203
20
-3.73123
11
5.70458
21
-3.73294
0
LINE
8
BLACK
6
CONTINUOUS
10
5.70458
20
-3.73294
11
5.70629
21
-3.73549
0
LINE
8
BLACK
6
CONTINUOUS
10
5.70629
20
-3.73549
11
5.70689
21
-3.7385
0
LINE
8
BLACK
6
CONTINUOUS
10
5.70689
20
-3.7385
11
5.70689
21
-3.77787
0
LINE
8
BLACK
6
CONTINUOUS
10
5.70689
20
-3.77787
11
5.70629
21
-3.78089
0
LINE
8
BLACK
6
CONTINUOUS
10
5.70629
20
-3.78089
11
5.70458
21
-3.78344
0
LINE
8
BLACK
6
CONTINUOUS
10
5.70458
20
-3.78344
11
5.70203
21
-3.78515
0
LINE
8
BLACK
6
CONTINUOUS
10
5.70203
20
-3.78515
11
5.69902
21
-3.78575
0
LINE
8
BLACK
6
CONTINUOUS
10
5.69902
20
-3.78575
11
5.6498
21
-3.78575
0
LINE
8
BLACK
6
CONTINUOUS
10
5.6498
20
-3.78575
11
5.64679
21
-3.78515
0
LINE
8
BLACK
6
CONTINUOUS
10
5.64679
20
-3.78515
11
5.64424
21
-3.78344
0
LINE
8
BLACK
6
CONTINUOUS
10
5.64424
20
-3.78344
11
5.64253
21
-3.78089
0
LINE
8
BLACK
6
CONTINUOUS
10
5.64253
20
-3.78089
11
5.64193
21
-3.77787
0
LINE
8
BLACK
6
CONTINUOUS
10
5.64193
20
-3.77787
11
5.64193
21
-3.7385
0
LINE
8
BLACK
6
CONTINUOUS
10
5.64193
20
-3.7385
11
5.64253
21
-3.73549
0
LINE
8
BLACK
6
CONTINUOUS
10
5.64253
20
-3.73549
11
5.64424
21
-3.73294
0
LINE
8
BLACK
6
CONTINUOUS
10
5.64424
20
-3.73294
11
5.64679
21
-3.73123
0
LINE
8
BLACK
6
CONTINUOUS
10
5.64679
20
-3.73123
11
5.6498
21
-3.73063
0
LINE
8
BLACK
6
CONTINUOUS
10
5.6498
20
-3.73063
11
5.69902
21
-3.73063
0
LINE
8
BLACK
6
CONTINUOUS
10
5.69902
20
-3.73063
11
5.70203
21
-3.73123
0
LINE
8
BLACK
6
CONTINUOUS
10
5.37447
20
-3.43885
11
5.37702
21
-3.44056
0
LINE
8
BLACK
6
CONTINUOUS
10
5.37702
20
-3.44056
11
5.37873
21
-3.44311
0
LINE
8
BLACK
6
CONTINUOUS
10
5.37873
20
-3.44311
11
5.37933
21
-3.44612
0
LINE
8
BLACK
6
CONTINUOUS
10
5.37933
20
-3.44612
11
5.37933
21
-3.46187
0
LINE
8
BLACK
6
CONTINUOUS
10
5.37933
20
-3.46187
11
5.37873
21
-3.46488
0
LINE
8
BLACK
6
CONTINUOUS
10
5.37873
20
-3.46488
11
5.37746
21
-3.46679
0
LINE
8
BLACK
6
CONTINUOUS
10
5.37746
20
-3.46679
11
5.37873
21
-3.4687
0
LINE
8
BLACK
6
CONTINUOUS
10
5.37873
20
-3.4687
11
5.37933
21
-3.47171
0
LINE
8
BLACK
6
CONTINUOUS
10
5.37933
20
-3.47171
11
5.37933
21
-3.48746
0
LINE
8
BLACK
6
CONTINUOUS
10
5.37933
20
-3.48746
11
5.37873
21
-3.49048
0
LINE
8
BLACK
6
CONTINUOUS
10
5.37873
20
-3.49048
11
5.37746
21
-3.49238
0
LINE
8
BLACK
6
CONTINUOUS
10
5.37746
20
-3.49238
11
5.37873
21
-3.49429
0
LINE
8
BLACK
6
CONTINUOUS
10
5.37873
20
-3.49429
11
5.37933
21
-3.4973
0
LINE
8
BLACK
6
CONTINUOUS
10
5.37933
20
-3.4973
11
5.37933
21
-3.51305
0
LINE
8
BLACK
6
CONTINUOUS
10
5.37933
20
-3.51305
11
5.37873
21
-3.51607
0
LINE
8
BLACK
6
CONTINUOUS
10
5.37873
20
-3.51607
11
5.37746
21
-3.51797
0
LINE
8
BLACK
6
CONTINUOUS
10
5.37746
20
-3.51797
11
5.37873
21
-3.51988
0
LINE
8
BLACK
6
CONTINUOUS
10
5.37873
20
-3.51988
11
5.37933
21
-3.5229
0
LINE
8
BLACK
6
CONTINUOUS
10
5.37933
20
-3.5229
11
5.37933
21
-3.53864
0
LINE
8
BLACK
6
CONTINUOUS
10
5.37933
20
-3.53864
11
5.37873
21
-3.54166
0
LINE
8
BLACK
6
CONTINUOUS
10
5.37873
20
-3.54166
11
5.37746
21
-3.54356
0
LINE
8
BLACK
6
CONTINUOUS
10
5.37746
20
-3.54356
11
5.37873
21
-3.54547
0
LINE
8
BLACK
6
CONTINUOUS
10
5.37873
20
-3.54547
11
5.37933
21
-3.54849
0
LINE
8
BLACK
6
CONTINUOUS
10
5.37933
20
-3.54849
11
5.37933
21
-3.56423
0
LINE
8
BLACK
6
CONTINUOUS
10
5.37933
20
-3.56423
11
5.37873
21
-3.56725
0
LINE
8
BLACK
6
CONTINUOUS
10
5.37873
20
-3.56725
11
5.37746
21
-3.56915
0
LINE
8
BLACK
6
CONTINUOUS
10
5.37746
20
-3.56915
11
5.37873
21
-3.57106
0
LINE
8
BLACK
6
CONTINUOUS
10
5.37873
20
-3.57106
11
5.37933
21
-3.57408
0
LINE
8
BLACK
6
CONTINUOUS
10
5.37933
20
-3.57408
11
5.37933
21
-3.58982
0
LINE
8
BLACK
6
CONTINUOUS
10
5.37933
20
-3.58982
11
5.37873
21
-3.59284
0
LINE
8
BLACK
6
CONTINUOUS
10
5.37873
20
-3.59284
11
5.37746
21
-3.59475
0
LINE
8
BLACK
6
CONTINUOUS
10
5.37746
20
-3.59475
11
5.37873
21
-3.59665
0
LINE
8
BLACK
6
CONTINUOUS
10
5.37873
20
-3.59665
11
5.37933
21
-3.59967
0
LINE
8
BLACK
6
CONTINUOUS
10
5.37933
20
-3.59967
11
5.37933
21
-3.61541
0
LINE
8
BLACK
6
CONTINUOUS
10
5.37933
20
-3.61541
11
5.37873
21
-3.61843
0
LINE
8
BLACK
6
CONTINUOUS
10
5.37873
20
-3.61843
11
5.37746
21
-3.62034
0
LINE
8
BLACK
6
CONTINUOUS
10
5.37746
20
-3.62034
11
5.37873
21
-3.62224
0
LINE
8
BLACK
6
CONTINUOUS
10
5.37873
20
-3.62224
11
5.37933
21
-3.62526
0
LINE
8
BLACK
6
CONTINUOUS
10
5.37933
20
-3.62526
11
5.37933
21
-3.64101
0
LINE
8
BLACK
6
CONTINUOUS
10
5.37933
20
-3.64101
11
5.37873
21
-3.64402
0
LINE
8
BLACK
6
CONTINUOUS
10
5.37873
20
-3.64402
11
5.37746
21
-3.64593
0
LINE
8
BLACK
6
CONTINUOUS
10
5.37746
20
-3.64593
11
5.37873
21
-3.64783
0
LINE
8
BLACK
6
CONTINUOUS
10
5.37873
20
-3.64783
11
5.37933
21
-3.65085
0
LINE
8
BLACK
6
CONTINUOUS
10
5.37933
20
-3.65085
11
5.37933
21
-3.6666
0
LINE
8
BLACK
6
CONTINUOUS
10
5.37933
20
-3.6666
11
5.37873
21
-3.66961
0
LINE
8
BLACK
6
CONTINUOUS
10
5.37873
20
-3.66961
11
5.37746
21
-3.67152
0
LINE
8
BLACK
6
CONTINUOUS
10
5.37746
20
-3.67152
11
5.37873
21
-3.67343
0
LINE
8
BLACK
6
CONTINUOUS
10
5.37873
20
-3.67343
11
5.37933
21
-3.67644
0
LINE
8
BLACK
6
CONTINUOUS
10
5.37933
20
-3.67644
11
5.37933
21
-3.69219
0
LINE
8
BLACK
6
CONTINUOUS
10
5.37933
20
-3.69219
11
5.37873
21
-3.6952
0
LINE
8
BLACK
6
CONTINUOUS
10
5.37873
20
-3.6952
11
5.37746
21
-3.69711
0
LINE
8
BLACK
6
CONTINUOUS
10
5.37746
20
-3.69711
11
5.37873
21
-3.69902
0
LINE
8
BLACK
6
CONTINUOUS
10
5.37873
20
-3.69902
11
5.37933
21
-3.70203
0
LINE
8
BLACK
6
CONTINUOUS
10
5.37933
20
-3.70203
11
5.37933
21
-3.71778
0
LINE
8
BLACK
6
CONTINUOUS
10
5.37933
20
-3.71778
11
5.37873
21
-3.72079
0
LINE
8
BLACK
6
CONTINUOUS
10
5.37873
20
-3.72079
11
5.37746
21
-3.7227
0
LINE
8
BLACK
6
CONTINUOUS
10
5.37746
20
-3.7227
11
5.37873
21
-3.72461
0
LINE
8
BLACK
6
CONTINUOUS
10
5.37873
20
-3.72461
11
5.37933
21
-3.72762
0
LINE
8
BLACK
6
CONTINUOUS
10
5.37933
20
-3.72762
11
5.37933
21
-3.74337
0
LINE
8
BLACK
6
CONTINUOUS
10
5.37933
20
-3.74337
11
5.37873
21
-3.74638
0
LINE
8
BLACK
6
CONTINUOUS
10
5.37873
20
-3.74638
11
5.37702
21
-3.74894
0
LINE
8
BLACK
6
CONTINUOUS
10
5.37702
20
-3.74894
11
5.37447
21
-3.75064
0
LINE
8
BLACK
6
CONTINUOUS
10
5.37447
20
-3.75064
11
5.37146
21
-3.75124
0
LINE
8
BLACK
6
CONTINUOUS
10
5.37146
20
-3.75124
11
5.32815
21
-3.75124
0
LINE
8
BLACK
6
CONTINUOUS
10
5.32815
20
-3.75124
11
5.32514
21
-3.75064
0
LINE
8
BLACK
6
CONTINUOUS
10
5.32514
20
-3.75064
11
5.32258
21
-3.74894
0
LINE
8
BLACK
6
CONTINUOUS
10
5.32258
20
-3.74894
11
5.32088
21
-3.74638
0
LINE
8
BLACK
6
CONTINUOUS
10
5.32088
20
-3.74638
11
5.32028
21
-3.74337
0
LINE
8
BLACK
6
CONTINUOUS
10
5.32028
20
-3.74337
11
5.32028
21
-3.72762
0
LINE
8
BLACK
6
CONTINUOUS
10
5.32028
20
-3.72762
11
5.32088
21
-3.72461
0
LINE
8
BLACK
6
CONTINUOUS
10
5.32088
20
-3.72461
11
5.32215
21
-3.7227
0
LINE
8
BLACK
6
CONTINUOUS
10
5.32215
20
-3.7227
11
5.32088
21
-3.72079
0
LINE
8
BLACK
6
CONTINUOUS
10
5.32088
20
-3.72079
11
5.32028
21
-3.71778
0
LINE
8
BLACK
6
CONTINUOUS
10
5.32028
20
-3.71778
11
5.32028
21
-3.70203
0
LINE
8
BLACK
6
CONTINUOUS
10
5.32028
20
-3.70203
11
5.32088
21
-3.69902
0
LINE
8
BLACK
6
CONTINUOUS
10
5.32088
20
-3.69902
11
5.32215
21
-3.69711
0
LINE
8
BLACK
6
CONTINUOUS
10
5.32215
20
-3.69711
11
5.32088
21
-3.6952
0
LINE
8
BLACK
6
CONTINUOUS
10
5.32088
20
-3.6952
11
5.32028
21
-3.69219
0
LINE
8
BLACK
6
CONTINUOUS
10
5.32028
20
-3.69219
11
5.32028
21
-3.67644
0
LINE
8
BLACK
6
CONTINUOUS
10
5.32028
20
-3.67644
11
5.32088
21
-3.67343
0
LINE
8
BLACK
6
CONTINUOUS
10
5.32088
20
-3.67343
11
5.32215
21
-3.67152
0
LINE
8
BLACK
6
CONTINUOUS
10
5.32215
20
-3.67152
11
5.32088
21
-3.66961
0
LINE
8
BLACK
6
CONTINUOUS
10
5.32088
20
-3.66961
11
5.32028
21
-3.6666
0
LINE
8
BLACK
6
CONTINUOUS
10
5.32028
20
-3.6666
11
5.32028
21
-3.65085
0
LINE
8
BLACK
6
CONTINUOUS
10
5.32028
20
-3.65085
11
5.32088
21
-3.64783
0
LINE
8
BLACK
6
CONTINUOUS
10
5.32088
20
-3.64783
11
5.32215
21
-3.64593
0
LINE
8
BLACK
6
CONTINUOUS
10
5.32215
20
-3.64593
11
5.32088
21
-3.64402
0
LINE
8
BLACK
6
CONTINUOUS
10
5.32088
20
-3.64402
11
5.32028
21
-3.64101
0
LINE
8
BLACK
6
CONTINUOUS
10
5.32028
20
-3.64101
11
5.32028
21
-3.62526
0
LINE
8
BLACK
6
CONTINUOUS
10
5.32028
20
-3.62526
11
5.32088
21
-3.62224
0
LINE
8
BLACK
6
CONTINUOUS
10
5.32088
20
-3.62224
11
5.32215
21
-3.62034
0
LINE
8
BLACK
6
CONTINUOUS
10
5.32215
20
-3.62034
11
5.32088
21
-3.61843
0
LINE
8
BLACK
6
CONTINUOUS
10
5.32088
20
-3.61843
11
5.32028
21
-3.61541
0
LINE
8
BLACK
6
CONTINUOUS
10
5.32028
20
-3.61541
11
5.32028
21
-3.59967
0
LINE
8
BLACK
6
CONTINUOUS
10
5.32028
20
-3.59967
11
5.32088
21
-3.59665
0
LINE
8
BLACK
6
CONTINUOUS
10
5.32088
20
-3.59665
11
5.32215
21
-3.59475
0
LINE
8
BLACK
6
CONTINUOUS
10
5.32215
20
-3.59475
11
5.32088
21
-3.59284
0
LINE
8
BLACK
6
CONTINUOUS
10
5.32088
20
-3.59284
11
5.32028
21
-3.58982
0
LINE
8
BLACK
6
CONTINUOUS
10
5.32028
20
-3.58982
11
5.32028
21
-3.57408
0
LINE
8
BLACK
6
CONTINUOUS
10
5.32028
20
-3.57408
11
5.32088
21
-3.57106
0
LINE
8
BLACK
6
CONTINUOUS
10
5.32088
20
-3.57106
11
5.32215
21
-3.56915
0
LINE
8
BLACK
6
CONTINUOUS
10
5.32215
20
-3.56915
11
5.32088
21
-3.56725
0
LINE
8
BLACK
6
CONTINUOUS
10
5.32088
20
-3.56725
11
5.32028
21
-3.56423
0
LINE
8
BLACK
6
CONTINUOUS
10
5.32028
20
-3.56423
11
5.32028
21
-3.54849
0
LINE
8
BLACK
6
CONTINUOUS
10
5.32028
20
-3.54849
11
5.32088
21
-3.54547
0
LINE
8
BLACK
6
CONTINUOUS
10
5.32088
20
-3.54547
11
5.32215
21
-3.54356
0
LINE
8
BLACK
6
CONTINUOUS
10
5.32215
20
-3.54356
11
5.32088
21
-3.54166
0
LINE
8
BLACK
6
CONTINUOUS
10
5.32088
20
-3.54166
11
5.32028
21
-3.53864
0
LINE
8
BLACK
6
CONTINUOUS
10
5.32028
20
-3.53864
11
5.32028
21
-3.5229
0
LINE
8
BLACK
6
CONTINUOUS
10
5.32028
20
-3.5229
11
5.32088
21
-3.51988
0
LINE
8
BLACK
6
CONTINUOUS
10
5.32088
20
-3.51988
11
5.32215
21
-3.51797
0
LINE
8
BLACK
6
CONTINUOUS
10
5.32215
20
-3.51797
11
5.32088
21
-3.51607
0
LINE
8
BLACK
6
CONTINUOUS
10
5.32088
20
-3.51607
11
5.32028
21
-3.51305
0
LINE
8
BLACK
6
CONTINUOUS
10
5.32028
20
-3.51305
11
5.32028
21
-3.4973
0
LINE
8
BLACK
6
CONTINUOUS
10
5.32028
20
-3.4973
11
5.32088
21
-3.49429
0
LINE
8
BLACK
6
CONTINUOUS
10
5.32088
20
-3.49429
11
5.32215
21
-3.49238
0
LINE
8
BLACK
6
CONTINUOUS
10
5.32215
20
-3.49238
11
5.32088
21
-3.49048
0
LINE
8
BLACK
6
CONTINUOUS
10
5.32088
20
-3.49048
11
5.32028
21
-3.48746
0
LINE
8
BLACK
6
CONTINUOUS
10
5.32028
20
-3.48746
11
5.32028
21
-3.47171
0
LINE
8
BLACK
6
CONTINUOUS
10
5.32028
20
-3.47171
11
5.32088
21
-3.4687
0
LINE
8
BLACK
6
CONTINUOUS
10
5.32088
20
-3.4687
11
5.32215
21
-3.46679
0
LINE
8
BLACK
6
CONTINUOUS
10
5.32215
20
-3.46679
11
5.32088
21
-3.46488
0
LINE
8
BLACK
6
CONTINUOUS
10
5.32088
20
-3.46488
11
5.32028
21
-3.46187
0
LINE
8
BLACK
6
CONTINUOUS
10
5.32028
20
-3.46187
11
5.32028
21
-3.44612
0
LINE
8
BLACK
6
CONTINUOUS
10
5.32028
20
-3.44612
11
5.32088
21
-3.44311
0
LINE
8
BLACK
6
CONTINUOUS
10
5.32088
20
-3.44311
11
5.32258
21
-3.44056
0
LINE
8
BLACK
6
CONTINUOUS
10
5.32258
20
-3.44056
11
5.32514
21
-3.43885
0
LINE
8
BLACK
6
CONTINUOUS
10
5.32514
20
-3.43885
11
5.32815
21
-3.43825
0
LINE
8
BLACK
6
CONTINUOUS
10
5.32815
20
-3.43825
11
5.37146
21
-3.43825
0
LINE
8
BLACK
6
CONTINUOUS
10
5.37146
20
-3.43825
11
5.37447
21
-3.43885
0
LINE
8
BLACK
6
CONTINUOUS
10
5.59888
20
-3.43885
11
5.60143
21
-3.44056
0
LINE
8
BLACK
6
CONTINUOUS
10
5.60143
20
-3.44056
11
5.60314
21
-3.44311
0
LINE
8
BLACK
6
CONTINUOUS
10
5.60314
20
-3.44311
11
5.60374
21
-3.44612
0
LINE
8
BLACK
6
CONTINUOUS
10
5.60374
20
-3.44612
11
5.60374
21
-3.46187
0
LINE
8
BLACK
6
CONTINUOUS
10
5.60374
20
-3.46187
11
5.60314
21
-3.46488
0
LINE
8
BLACK
6
CONTINUOUS
10
5.60314
20
-3.46488
11
5.60187
21
-3.46679
0
LINE
8
BLACK
6
CONTINUOUS
10
5.60187
20
-3.46679
11
5.60314
21
-3.4687
0
LINE
8
BLACK
6
CONTINUOUS
10
5.60314
20
-3.4687
11
5.60374
21
-3.47171
0
LINE
8
BLACK
6
CONTINUOUS
10
5.60374
20
-3.47171
11
5.60374
21
-3.48746
0
LINE
8
BLACK
6
CONTINUOUS
10
5.60374
20
-3.48746
11
5.60314
21
-3.49048
0
LINE
8
BLACK
6
CONTINUOUS
10
5.60314
20
-3.49048
11
5.60187
21
-3.49238
0
LINE
8
BLACK
6
CONTINUOUS
10
5.60187
20
-3.49238
11
5.60314
21
-3.49429
0
LINE
8
BLACK
6
CONTINUOUS
10
5.60314
20
-3.49429
11
5.60374
21
-3.4973
0
LINE
8
BLACK
6
CONTINUOUS
10
5.60374
20
-3.4973
11
5.60374
21
-3.51305
0
LINE
8
BLACK
6
CONTINUOUS
10
5.60374
20
-3.51305
11
5.60314
21
-3.51607
0
LINE
8
BLACK
6
CONTINUOUS
10
5.60314
20
-3.51607
11
5.60187
21
-3.51797
0
LINE
8
BLACK
6
CONTINUOUS
10
5.60187
20
-3.51797
11
5.60314
21
-3.51988
0
LINE
8
BLACK
6
CONTINUOUS
10
5.60314
20
-3.51988
11
5.60374
21
-3.5229
0
LINE
8
BLACK
6
CONTINUOUS
10
5.60374
20
-3.5229
11
5.60374
21
-3.53864
0
LINE
8
BLACK
6
CONTINUOUS
10
5.60374
20
-3.53864
11
5.60314
21
-3.54166
0
LINE
8
BLACK
6
CONTINUOUS
10
5.60314
20
-3.54166
11
5.60187
21
-3.54356
0
LINE
8
BLACK
6
CONTINUOUS
10
5.60187
20
-3.54356
11
5.60314
21
-3.54547
0
LINE
8
BLACK
6
CONTINUOUS
10
5.60314
20
-3.54547
11
5.60374
21
-3.54849
0
LINE
8
BLACK
6
CONTINUOUS
10
5.60374
20
-3.54849
11
5.60374
21
-3.56423
0
LINE
8
BLACK
6
CONTINUOUS
10
5.60374
20
-3.56423
11
5.60314
21
-3.56725
0
LINE
8
BLACK
6
CONTINUOUS
10
5.60314
20
-3.56725
11
5.60187
21
-3.56915
0
LINE
8
BLACK
6
CONTINUOUS
10
5.60187
20
-3.56915
11
5.60314
21
-3.57106
0
LINE
8
BLACK
6
CONTINUOUS
10
5.60314
20
-3.57106
11
5.60374
21
-3.57408
0
LINE
8
BLACK
6
CONTINUOUS
10
5.60374
20
-3.57408
11
5.60374
21
-3.58982
0
LINE
8
BLACK
6
CONTINUOUS
10
5.60374
20
-3.58982
11
5.60314
21
-3.59284
0
LINE
8
BLACK
6
CONTINUOUS
10
5.60314
20
-3.59284
11
5.60187
21
-3.59475
0
LINE
8
BLACK
6
CONTINUOUS
10
5.60187
20
-3.59475
11
5.60314
21
-3.59665
0
LINE
8
BLACK
6
CONTINUOUS
10
5.60314
20
-3.59665
11
5.60374
21
-3.59967
0
LINE
8
BLACK
6
CONTINUOUS
10
5.60374
20
-3.59967
11
5.60374
21
-3.61541
0
LINE
8
BLACK
6
CONTINUOUS
10
5.60374
20
-3.61541
11
5.60314
21
-3.61843
0
LINE
8
BLACK
6
CONTINUOUS
10
5.60314
20
-3.61843
11
5.60187
21
-3.62034
0
LINE
8
BLACK
6
CONTINUOUS
10
5.60187
20
-3.62034
11
5.60314
21
-3.62224
0
LINE
8
BLACK
6
CONTINUOUS
10
5.60314
20
-3.62224
11
5.60374
21
-3.62526
0
LINE
8
BLACK
6
CONTINUOUS
10
5.60374
20
-3.62526
11
5.60374
21
-3.64101
0
LINE
8
BLACK
6
CONTINUOUS
10
5.60374
20
-3.64101
11
5.60314
21
-3.64402
0
LINE
8
BLACK
6
CONTINUOUS
10
5.60314
20
-3.64402
11
5.60187
21
-3.64593
0
LINE
8
BLACK
6
CONTINUOUS
10
5.60187
20
-3.64593
11
5.60314
21
-3.64783
0
LINE
8
BLACK
6
CONTINUOUS
10
5.60314
20
-3.64783
11
5.60374
21
-3.65085
0
LINE
8
BLACK
6
CONTINUOUS
10
5.60374
20
-3.65085
11
5.60374
21
-3.6666
0
LINE
8
BLACK
6
CONTINUOUS
10
5.60374
20
-3.6666
11
5.60314
21
-3.66961
0
LINE
8
BLACK
6
CONTINUOUS
10
5.60314
20
-3.66961
11
5.60187
21
-3.67152
0
LINE
8
BLACK
6
CONTINUOUS
10
5.60187
20
-3.67152
11
5.60314
21
-3.67343
0
LINE
8
BLACK
6
CONTINUOUS
10
5.60314
20
-3.67343
11
5.60374
21
-3.67644
0
LINE
8
BLACK
6
CONTINUOUS
10
5.60374
20
-3.67644
11
5.60374
21
-3.69219
0
LINE
8
BLACK
6
CONTINUOUS
10
5.60374
20
-3.69219
11
5.60314
21
-3.6952
0
LINE
8
BLACK
6
CONTINUOUS
10
5.60314
20
-3.6952
11
5.60187
21
-3.69711
0
LINE
8
BLACK
6
CONTINUOUS
10
5.60187
20
-3.69711
11
5.60314
21
-3.69902
0
LINE
8
BLACK
6
CONTINUOUS
10
5.60314
20
-3.69902
11
5.60374
21
-3.70203
0
LINE
8
BLACK
6
CONTINUOUS
10
5.60374
20
-3.70203
11
5.60374
21
-3.71778
0
LINE
8
BLACK
6
CONTINUOUS
10
5.60374
20
-3.71778
11
5.60314
21
-3.72079
0
LINE
8
BLACK
6
CONTINUOUS
10
5.60314
20
-3.72079
11
5.60187
21
-3.7227
0
LINE
8
BLACK
6
CONTINUOUS
10
5.60187
20
-3.7227
11
5.60314
21
-3.72461
0
LINE
8
BLACK
6
CONTINUOUS
10
5.60314
20
-3.72461
11
5.60374
21
-3.72762
0
LINE
8
BLACK
6
CONTINUOUS
10
5.60374
20
-3.72762
11
5.60374
21
-3.74337
0
LINE
8
BLACK
6
CONTINUOUS
10
5.60374
20
-3.74337
11
5.60314
21
-3.74638
0
LINE
8
BLACK
6
CONTINUOUS
10
5.60314
20
-3.74638
11
5.60143
21
-3.74894
0
LINE
8
BLACK
6
CONTINUOUS
10
5.60143
20
-3.74894
11
5.59888
21
-3.75064
0
LINE
8
BLACK
6
CONTINUOUS
10
5.59888
20
-3.75064
11
5.59587
21
-3.75124
0
LINE
8
BLACK
6
CONTINUOUS
10
5.59587
20
-3.75124
11
5.55256
21
-3.75124
0
LINE
8
BLACK
6
CONTINUOUS
10
5.55256
20
-3.75124
11
5.54955
21
-3.75064
0
LINE
8
BLACK
6
CONTINUOUS
10
5.54955
20
-3.75064
11
5.54699
21
-3.74894
0
LINE
8
BLACK
6
CONTINUOUS
10
5.54699
20
-3.74894
11
5.54528
21
-3.74638
0
LINE
8
BLACK
6
CONTINUOUS
10
5.54528
20
-3.74638
11
5.54469
21
-3.74337
0
LINE
8
BLACK
6
CONTINUOUS
10
5.54469
20
-3.74337
11
5.54469
21
-3.72762
0
LINE
8
BLACK
6
CONTINUOUS
10
5.54469
20
-3.72762
11
5.54528
21
-3.72461
0
LINE
8
BLACK
6
CONTINUOUS
10
5.54528
20
-3.72461
11
5.54656
21
-3.7227
0
LINE
8
BLACK
6
CONTINUOUS
10
5.54656
20
-3.7227
11
5.54528
21
-3.72079
0
LINE
8
BLACK
6
CONTINUOUS
10
5.54528
20
-3.72079
11
5.54469
21
-3.71778
0
LINE
8
BLACK
6
CONTINUOUS
10
5.54469
20
-3.71778
11
5.54469
21
-3.70203
0
LINE
8
BLACK
6
CONTINUOUS
10
5.54469
20
-3.70203
11
5.54528
21
-3.69902
0
LINE
8
BLACK
6
CONTINUOUS
10
5.54528
20
-3.69902
11
5.54656
21
-3.69711
0
LINE
8
BLACK
6
CONTINUOUS
10
5.54656
20
-3.69711
11
5.54528
21
-3.6952
0
LINE
8
BLACK
6
CONTINUOUS
10
5.54528
20
-3.6952
11
5.54469
21
-3.69219
0
LINE
8
BLACK
6
CONTINUOUS
10
5.54469
20
-3.69219
11
5.54469
21
-3.67644
0
LINE
8
BLACK
6
CONTINUOUS
10
5.54469
20
-3.67644
11
5.54528
21
-3.67343
0
LINE
8
BLACK
6
CONTINUOUS
10
5.54528
20
-3.67343
11
5.54656
21
-3.67152
0
LINE
8
BLACK
6
CONTINUOUS
10
5.54656
20
-3.67152
11
5.54528
21
-3.66961
0
LINE
8
BLACK
6
CONTINUOUS
10
5.54528
20
-3.66961
11
5.54469
21
-3.6666
0
LINE
8
BLACK
6
CONTINUOUS
10
5.54469
20
-3.6666
11
5.54469
21
-3.65085
0
LINE
8
BLACK
6
CONTINUOUS
10
5.54469
20
-3.65085
11
5.54528
21
-3.64783
0
LINE
8
BLACK
6
CONTINUOUS
10
5.54528
20
-3.64783
11
5.54656
21
-3.64593
0
LINE
8
BLACK
6
CONTINUOUS
10
5.54656
20
-3.64593
11
5.54528
21
-3.64402
0
LINE
8
BLACK
6
CONTINUOUS
10
5.54528
20
-3.64402
11
5.54469
21
-3.64101
0
LINE
8
BLACK
6
CONTINUOUS
10
5.54469
20
-3.64101
11
5.54469
21
-3.62526
0
LINE
8
BLACK
6
CONTINUOUS
10
5.54469
20
-3.62526
11
5.54528
21
-3.62224
0
LINE
8
BLACK
6
CONTINUOUS
10
5.54528
20
-3.62224
11
5.54656
21
-3.62034
0
LINE
8
BLACK
6
CONTINUOUS
10
5.54656
20
-3.62034
11
5.54528
21
-3.61843
0
LINE
8
BLACK
6
CONTINUOUS
10
5.54528
20
-3.61843
11
5.54469
21
-3.61541
0
LINE
8
BLACK
6
CONTINUOUS
10
5.54469
20
-3.61541
11
5.54469
21
-3.59967
0
LINE
8
BLACK
6
CONTINUOUS
10
5.54469
20
-3.59967
11
5.54528
21
-3.59665
0
LINE
8
BLACK
6
CONTINUOUS
10
5.54528
20
-3.59665
11
5.54656
21
-3.59475
0
LINE
8
BLACK
6
CONTINUOUS
10
5.54656
20
-3.59475
11
5.54528
21
-3.59284
0
LINE
8
BLACK
6
CONTINUOUS
10
5.54528
20
-3.59284
11
5.54469
21
-3.58982
0
LINE
8
BLACK
6
CONTINUOUS
10
5.54469
20
-3.58982
11
5.54469
21
-3.57408
0
LINE
8
BLACK
6
CONTINUOUS
10
5.54469
20
-3.57408
11
5.54528
21
-3.57106
0
LINE
8
BLACK
6
CONTINUOUS
10
5.54528
20
-3.57106
11
5.54656
21
-3.56915
0
LINE
8
BLACK
6
CONTINUOUS
10
5.54656
20
-3.56915
11
5.54528
21
-3.56725
0
LINE
8
BLACK
6
CONTINUOUS
10
5.54528
20
-3.56725
11
5.54469
21
-3.56423
0
LINE
8
BLACK
6
CONTINUOUS
10
5.54469
20
-3.56423
11
5.54469
21
-3.54849
0
LINE
8
BLACK
6
CONTINUOUS
10
5.54469
20
-3.54849
11
5.54528
21
-3.54547
0
LINE
8
BLACK
6
CONTINUOUS
10
5.54528
20
-3.54547
11
5.54656
21
-3.54356
0
LINE
8
BLACK
6
CONTINUOUS
10
5.54656
20
-3.54356
11
5.54528
21
-3.54166
0
LINE
8
BLACK
6
CONTINUOUS
10
5.54528
20
-3.54166
11
5.54469
21
-3.53864
0
LINE
8
BLACK
6
CONTINUOUS
10
5.54469
20
-3.53864
11
5.54469
21
-3.5229
0
LINE
8
BLACK
6
CONTINUOUS
10
5.54469
20
-3.5229
11
5.54528
21
-3.51988
0
LINE
8
BLACK
6
CONTINUOUS
10
5.54528
20
-3.51988
11
5.54656
21
-3.51797
0
LINE
8
BLACK
6
CONTINUOUS
10
5.54656
20
-3.51797
11
5.54528
21
-3.51607
0
LINE
8
BLACK
6
CONTINUOUS
10
5.54528
20
-3.51607
11
5.54469
21
-3.51305
0
LINE
8
BLACK
6
CONTINUOUS
10
5.54469
20
-3.51305
11
5.54469
21
-3.4973
0
LINE
8
BLACK
6
CONTINUOUS
10
5.54469
20
-3.4973
11
5.54528
21
-3.49429
0
LINE
8
BLACK
6
CONTINUOUS
10
5.54528
20
-3.49429
11
5.54656
21
-3.49238
0
LINE
8
BLACK
6
CONTINUOUS
10
5.54656
20
-3.49238
11
5.54528
21
-3.49048
0
LINE
8
BLACK
6
CONTINUOUS
10
5.54528
20
-3.49048
11
5.54469
21
-3.48746
0
LINE
8
BLACK
6
CONTINUOUS
10
5.54469
20
-3.48746
11
5.54469
21
-3.47171
0
LINE
8
BLACK
6
CONTINUOUS
10
5.54469
20
-3.47171
11
5.54528
21
-3.4687
0
LINE
8
BLACK
6
CONTINUOUS
10
5.54528
20
-3.4687
11
5.54656
21
-3.46679
0
LINE
8
BLACK
6
CONTINUOUS
10
5.54656
20
-3.46679
11
5.54528
21
-3.46488
0
LINE
8
BLACK
6
CONTINUOUS
10
5.54528
20
-3.46488
11
5.54469
21
-3.46187
0
LINE
8
BLACK
6
CONTINUOUS
10
5.54469
20
-3.46187
11
5.54469
21
-3.44612
0
LINE
8
BLACK
6
CONTINUOUS
10
5.54469
20
-3.44612
11
5.54528
21
-3.44311
0
LINE
8
BLACK
6
CONTINUOUS
10
5.54528
20
-3.44311
11
5.54699
21
-3.44056
0
LINE
8
BLACK
6
CONTINUOUS
10
5.54699
20
-3.44056
11
5.54955
21
-3.43885
0
LINE
8
BLACK
6
CONTINUOUS
10
5.54955
20
-3.43885
11
5.55256
21
-3.43825
0
LINE
8
BLACK
6
CONTINUOUS
10
5.55256
20
-3.43825
11
5.59587
21
-3.43825
0
LINE
8
BLACK
6
CONTINUOUS
10
5.59587
20
-3.43825
11
5.59888
21
-3.43885
0
LINE
8
BLACK
6
CONTINUOUS
10
6.02301
20
-3.70391
11
6.02557
21
-3.70561
0
LINE
8
BLACK
6
CONTINUOUS
10
6.02557
20
-3.70561
11
6.02727
21
-3.70817
0
LINE
8
BLACK
6
CONTINUOUS
10
6.02727
20
-3.70817
11
6.02787
21
-3.71118
0
LINE
8
BLACK
6
CONTINUOUS
10
6.02787
20
-3.71118
11
6.02787
21
-3.73874
0
LINE
8
BLACK
6
CONTINUOUS
10
6.02787
20
-3.73874
11
6.02727
21
-3.74175
0
LINE
8
BLACK
6
CONTINUOUS
10
6.02727
20
-3.74175
11
6.02557
21
-3.74431
0
LINE
8
BLACK
6
CONTINUOUS
10
6.02557
20
-3.74431
11
6.02301
21
-3.74601
0
LINE
8
BLACK
6
CONTINUOUS
10
6.02301
20
-3.74601
11
6.02
21
-3.74661
0
LINE
8
BLACK
6
CONTINUOUS
10
6.02
20
-3.74661
11
5.96882
21
-3.74661
0
LINE
8
BLACK
6
CONTINUOUS
10
5.96882
20
-3.74661
11
5.96581
21
-3.74601
0
LINE
8
BLACK
6
CONTINUOUS
10
5.96581
20
-3.74601
11
5.96325
21
-3.74431
0
LINE
8
BLACK
6
CONTINUOUS
10
5.96325
20
-3.74431
11
5.96154
21
-3.74175
0
LINE
8
BLACK
6
CONTINUOUS
10
5.96154
20
-3.74175
11
5.96094
21
-3.73874
0
LINE
8
BLACK
6
CONTINUOUS
10
5.96094
20
-3.73874
11
5.96094
21
-3.71118
0
LINE
8
BLACK
6
CONTINUOUS
10
5.96094
20
-3.71118
11
5.96154
21
-3.70817
0
LINE
8
BLACK
6
CONTINUOUS
10
5.96154
20
-3.70817
11
5.96325
21
-3.70561
0
LINE
8
BLACK
6
CONTINUOUS
10
5.96325
20
-3.70561
11
5.96581
21
-3.70391
0
LINE
8
BLACK
6
CONTINUOUS
10
5.96581
20
-3.70391
11
5.96882
21
-3.70331
0
LINE
8
BLACK
6
CONTINUOUS
10
5.96882
20
-3.70331
11
6.02
21
-3.70331
0
LINE
8
BLACK
6
CONTINUOUS
10
6.02
20
-3.70331
11
6.02301
21
-3.70391
0
LINE
8
BLACK
6
CONTINUOUS
10
4.92742
20
-3.67028
11
4.92998
21
-3.67199
0
LINE
8
BLACK
6
CONTINUOUS
10
4.92998
20
-3.67199
11
4.93168
21
-3.67455
0
LINE
8
BLACK
6
CONTINUOUS
10
4.93168
20
-3.67455
11
4.93228
21
-3.67756
0
LINE
8
BLACK
6
CONTINUOUS
10
4.93228
20
-3.67756
11
4.93228
21
-3.73756
0
LINE
8
BLACK
6
CONTINUOUS
10
4.93228
20
-3.73756
11
4.93168
21
-3.74057
0
LINE
8
BLACK
6
CONTINUOUS
10
4.93168
20
-3.74057
11
4.92998
21
-3.74313
0
LINE
8
BLACK
6
CONTINUOUS
10
4.92998
20
-3.74313
11
4.92742
21
-3.74483
0
LINE
8
BLACK
6
CONTINUOUS
10
4.92742
20
-3.74483
11
4.92441
21
-3.74543
0
LINE
8
BLACK
6
CONTINUOUS
10
4.92441
20
-3.74543
11
4.86441
21
-3.74543
0
LINE
8
BLACK
6
CONTINUOUS
10
4.86441
20
-3.74543
11
4.8614
21
-3.74483
0
LINE
8
BLACK
6
CONTINUOUS
10
4.8614
20
-3.74483
11
4.85884
21
-3.74313
0
LINE
8
BLACK
6
CONTINUOUS
10
4.85884
20
-3.74313
11
4.85713
21
-3.74057
0
LINE
8
BLACK
6
CONTINUOUS
10
4.85713
20
-3.74057
11
4.85654
21
-3.73756
0
LINE
8
BLACK
6
CONTINUOUS
10
4.85654
20
-3.73756
11
4.85654
21
-3.67756
0
LINE
8
BLACK
6
CONTINUOUS
10
4.85654
20
-3.67756
11
4.85713
21
-3.67455
0
LINE
8
BLACK
6
CONTINUOUS
10
4.85713
20
-3.67455
11
4.85884
21
-3.67199
0
LINE
8
BLACK
6
CONTINUOUS
10
4.85884
20
-3.67199
11
4.8614
21
-3.67028
0
LINE
8
BLACK
6
CONTINUOUS
10
4.8614
20
-3.67028
11
4.86441
21
-3.66969
0
LINE
8
BLACK
6
CONTINUOUS
10
4.86441
20
-3.66969
11
4.92441
21
-3.66969
0
LINE
8
BLACK
6
CONTINUOUS
10
4.92441
20
-3.66969
11
4.92742
21
-3.67028
0
LINE
8
BLACK
6
CONTINUOUS
10
5.02742
20
-3.67028
11
5.02998
21
-3.67199
0
LINE
8
BLACK
6
CONTINUOUS
10
5.02998
20
-3.67199
11
5.03168
21
-3.67455
0
LINE
8
BLACK
6
CONTINUOUS
10
5.03168
20
-3.67455
11
5.03228
21
-3.67756
0
LINE
8
BLACK
6
CONTINUOUS
10
5.03228
20
-3.67756
11
5.03228
21
-3.73756
0
LINE
8
BLACK
6
CONTINUOUS
10
5.03228
20
-3.73756
11
5.03168
21
-3.74057
0
LINE
8
BLACK
6
CONTINUOUS
10
5.03168
20
-3.74057
11
5.02998
21
-3.74313
0
LINE
8
BLACK
6
CONTINUOUS
10
5.02998
20
-3.74313
11
5.02742
21
-3.74483
0
LINE
8
BLACK
6
CONTINUOUS
10
5.02742
20
-3.74483
11
5.02441
21
-3.74543
0
LINE
8
BLACK
6
CONTINUOUS
10
5.02441
20
-3.74543
11
4.96441
21
-3.74543
0
LINE
8
BLACK
6
CONTINUOUS
10
4.96441
20
-3.74543
11
4.9614
21
-3.74483
0
LINE
8
BLACK
6
CONTINUOUS
10
4.9614
20
-3.74483
11
4.95884
21
-3.74313
0
LINE
8
BLACK
6
CONTINUOUS
10
4.95884
20
-3.74313
11
4.95713
21
-3.74057
0
LINE
8
BLACK
6
CONTINUOUS
10
4.95713
20
-3.74057
11
4.95654
21
-3.73756
0
LINE
8
BLACK
6
CONTINUOUS
10
4.95654
20
-3.73756
11
4.95654
21
-3.67756
0
LINE
8
BLACK
6
CONTINUOUS
10
4.95654
20
-3.67756
11
4.95713
21
-3.67455
0
LINE
8
BLACK
6
CONTINUOUS
10
4.95713
20
-3.67455
11
4.95884
21
-3.67199
0
LINE
8
BLACK
6
CONTINUOUS
10
4.95884
20
-3.67199
11
4.9614
21
-3.67028
0
LINE
8
BLACK
6
CONTINUOUS
10
4.9614
20
-3.67028
11
4.96441
21
-3.66969
0
LINE
8
BLACK
6
CONTINUOUS
10
4.96441
20
-3.66969
11
5.02441
21
-3.66969
0
LINE
8
BLACK
6
CONTINUOUS
10
5.02441
20
-3.66969
11
5.02742
21
-3.67028
0
LINE
8
BLACK
6
CONTINUOUS
10
6.12742
20
-3.66028
11
6.12998
21
-3.66199
0
LINE
8
BLACK
6
CONTINUOUS
10
6.12998
20
-3.66199
11
6.13168
21
-3.66455
0
LINE
8
BLACK
6
CONTINUOUS
10
6.13168
20
-3.66455
11
6.13228
21
-3.66756
0
LINE
8
BLACK
6
CONTINUOUS
10
6.13228
20
-3.66756
11
6.13228
21
-3.72756
0
LINE
8
BLACK
6
CONTINUOUS
10
6.13228
20
-3.72756
11
6.13168
21
-3.73057
0
LINE
8
BLACK
6
CONTINUOUS
10
6.13168
20
-3.73057
11
6.12998
21
-3.73313
0
LINE
8
BLACK
6
CONTINUOUS
10
6.12998
20
-3.73313
11
6.12742
21
-3.73483
0
LINE
8
BLACK
6
CONTINUOUS
10
6.12742
20
-3.73483
11
6.12441
21
-3.73543
0
LINE
8
BLACK
6
CONTINUOUS
10
6.12441
20
-3.73543
11
6.06441
21
-3.73543
0
LINE
8
BLACK
6
CONTINUOUS
10
6.06441
20
-3.73543
11
6.0614
21
-3.73483
0
LINE
8
BLACK
6
CONTINUOUS
10
6.0614
20
-3.73483
11
6.05884
21
-3.73313
0
LINE
8
BLACK
6
CONTINUOUS
10
6.05884
20
-3.73313
11
6.05713
21
-3.73057
0
LINE
8
BLACK
6
CONTINUOUS
10
6.05713
20
-3.73057
11
6.05654
21
-3.72756
0
LINE
8
BLACK
6
CONTINUOUS
10
6.05654
20
-3.72756
11
6.05654
21
-3.66756
0
LINE
8
BLACK
6
CONTINUOUS
10
6.05654
20
-3.66756
11
6.05713
21
-3.66455
0
LINE
8
BLACK
6
CONTINUOUS
10
6.05713
20
-3.66455
11
6.05884
21
-3.66199
0
LINE
8
BLACK
6
CONTINUOUS
10
6.05884
20
-3.66199
11
6.0614
21
-3.66028
0
LINE
8
BLACK
6
CONTINUOUS
10
6.0614
20
-3.66028
11
6.06441
21
-3.65969
0
LINE
8
BLACK
6
CONTINUOUS
10
6.06441
20
-3.65969
11
6.12441
21
-3.65969
0
LINE
8
BLACK
6
CONTINUOUS
10
6.12441
20
-3.65969
11
6.12742
21
-3.66028
0
LINE
8
BLACK
6
CONTINUOUS
10
6.22742
20
-3.66028
11
6.22998
21
-3.66199
0
LINE
8
BLACK
6
CONTINUOUS
10
6.22998
20
-3.66199
11
6.23168
21
-3.66455
0
LINE
8
BLACK
6
CONTINUOUS
10
6.23168
20
-3.66455
11
6.23228
21
-3.66756
0
LINE
8
BLACK
6
CONTINUOUS
10
6.23228
20
-3.66756
11
6.23228
21
-3.72756
0
LINE
8
BLACK
6
CONTINUOUS
10
6.23228
20
-3.72756
11
6.23168
21
-3.73057
0
LINE
8
BLACK
6
CONTINUOUS
10
6.23168
20
-3.73057
11
6.22998
21
-3.73313
0
LINE
8
BLACK
6
CONTINUOUS
10
6.22998
20
-3.73313
11
6.22742
21
-3.73483
0
LINE
8
BLACK
6
CONTINUOUS
10
6.22742
20
-3.73483
11
6.22441
21
-3.73543
0
LINE
8
BLACK
6
CONTINUOUS
10
6.22441
20
-3.73543
11
6.16441
21
-3.73543
0
LINE
8
BLACK
6
CONTINUOUS
10
6.16441
20
-3.73543
11
6.1614
21
-3.73483
0
LINE
8
BLACK
6
CONTINUOUS
10
6.1614
20
-3.73483
11
6.15884
21
-3.73313
0
LINE
8
BLACK
6
CONTINUOUS
10
6.15884
20
-3.73313
11
6.15713
21
-3.73057
0
LINE
8
BLACK
6
CONTINUOUS
10
6.15713
20
-3.73057
11
6.15654
21
-3.72756
0
LINE
8
BLACK
6
CONTINUOUS
10
6.15654
20
-3.72756
11
6.15654
21
-3.66756
0
LINE
8
BLACK
6
CONTINUOUS
10
6.15654
20
-3.66756
11
6.15713
21
-3.66455
0
LINE
8
BLACK
6
CONTINUOUS
10
6.15713
20
-3.66455
11
6.15884
21
-3.66199
0
LINE
8
BLACK
6
CONTINUOUS
10
6.15884
20
-3.66199
11
6.1614
21
-3.66028
0
LINE
8
BLACK
6
CONTINUOUS
10
6.1614
20
-3.66028
11
6.16441
21
-3.65969
0
LINE
8
BLACK
6
CONTINUOUS
10
6.16441
20
-3.65969
11
6.22441
21
-3.65969
0
LINE
8
BLACK
6
CONTINUOUS
10
6.22441
20
-3.65969
11
6.22742
21
-3.66028
0
LINE
8
BLACK
6
CONTINUOUS
10
5.17671
20
-3.61475
11
5.18373
21
-3.61688
0
LINE
8
BLACK
6
CONTINUOUS
10
5.18373
20
-3.61688
11
5.1902
21
-3.62034
0
LINE
8
BLACK
6
CONTINUOUS
10
5.1902
20
-3.62034
11
5.19587
21
-3.625
0
LINE
8
BLACK
6
CONTINUOUS
10
5.19587
20
-3.625
11
5.20053
21
-3.63067
0
LINE
8
BLACK
6
CONTINUOUS
10
5.20053
20
-3.63067
11
5.20398
21
-3.63714
0
LINE
8
BLACK
6
CONTINUOUS
10
5.20398
20
-3.63714
11
5.20611
21
-3.64416
0
LINE
8
BLACK
6
CONTINUOUS
10
5.20611
20
-3.64416
11
5.20683
21
-3.65146
0
LINE
8
BLACK
6
CONTINUOUS
10
5.20683
20
-3.65146
11
5.20611
21
-3.65876
0
LINE
8
BLACK
6
CONTINUOUS
10
5.20611
20
-3.65876
11
5.20398
21
-3.66578
0
LINE
8
BLACK
6
CONTINUOUS
10
5.20398
20
-3.66578
11
5.20053
21
-3.67225
0
LINE
8
BLACK
6
CONTINUOUS
10
5.20053
20
-3.67225
11
5.19587
21
-3.67792
0
LINE
8
BLACK
6
CONTINUOUS
10
5.19587
20
-3.67792
11
5.1902
21
-3.68258
0
LINE
8
BLACK
6
CONTINUOUS
10
5.1902
20
-3.68258
11
5.18373
21
-3.68603
0
LINE
8
BLACK
6
CONTINUOUS
10
5.18373
20
-3.68603
11
5.17671
21
-3.68816
0
LINE
8
BLACK
6
CONTINUOUS
10
5.17671
20
-3.68816
11
5.16941
21
-3.68888
0
LINE
8
BLACK
6
CONTINUOUS
10
5.16941
20
-3.68888
11
5.16211
21
-3.68816
0
LINE
8
BLACK
6
CONTINUOUS
10
5.16211
20
-3.68816
11
5.15509
21
-3.68603
0
LINE
8
BLACK
6
CONTINUOUS
10
5.15509
20
-3.68603
11
5.14862
21
-3.68258
0
LINE
8
BLACK
6
CONTINUOUS
10
5.14862
20
-3.68258
11
5.14295
21
-3.67792
0
LINE
8
BLACK
6
CONTINUOUS
10
5.14295
20
-3.67792
11
5.13829
21
-3.67225
0
LINE
8
BLACK
6
CONTINUOUS
10
5.13829
20
-3.67225
11
5.13483
21
-3.66578
0
LINE
8
BLACK
6
CONTINUOUS
10
5.13483
20
-3.66578
11
5.1327
21
-3.65876
0
LINE
8
BLACK
6
CONTINUOUS
10
5.1327
20
-3.65876
11
5.13199
21
-3.65146
0
LINE
8
BLACK
6
CONTINUOUS
10
5.13199
20
-3.65146
11
5.1327
21
-3.64416
0
LINE
8
BLACK
6
CONTINUOUS
10
5.1327
20
-3.64416
11
5.13483
21
-3.63714
0
LINE
8
BLACK
6
CONTINUOUS
10
5.13483
20
-3.63714
11
5.13829
21
-3.63067
0
LINE
8
BLACK
6
CONTINUOUS
10
5.13829
20
-3.63067
11
5.14295
21
-3.625
0
LINE
8
BLACK
6
CONTINUOUS
10
5.14295
20
-3.625
11
5.14862
21
-3.62034
0
LINE
8
BLACK
6
CONTINUOUS
10
5.14862
20
-3.62034
11
5.15509
21
-3.61688
0
LINE
8
BLACK
6
CONTINUOUS
10
5.15509
20
-3.61688
11
5.16211
21
-3.61475
0
LINE
8
BLACK
6
CONTINUOUS
10
5.16211
20
-3.61475
11
5.16941
21
-3.61404
0
LINE
8
BLACK
6
CONTINUOUS
10
5.16941
20
-3.61404
11
5.17671
21
-3.61475
0
LINE
8
BLACK
6
CONTINUOUS
10
6.02301
20
-3.6291
11
6.02557
21
-3.63081
0
LINE
8
BLACK
6
CONTINUOUS
10
6.02557
20
-3.63081
11
6.02727
21
-3.63336
0
LINE
8
BLACK
6
CONTINUOUS
10
6.02727
20
-3.63336
11
6.02787
21
-3.63638
0
LINE
8
BLACK
6
CONTINUOUS
10
6.02787
20
-3.63638
11
6.02787
21
-3.66394
0
LINE
8
BLACK
6
CONTINUOUS
10
6.02787
20
-3.66394
11
6.02727
21
-3.66695
0
LINE
8
BLACK
6
CONTINUOUS
10
6.02727
20
-3.66695
11
6.02557
21
-3.6695
0
LINE
8
BLACK
6
CONTINUOUS
10
6.02557
20
-3.6695
11
6.02301
21
-3.67121
0
LINE
8
BLACK
6
CONTINUOUS
10
6.02301
20
-3.67121
11
6.02
21
-3.67181
0
LINE
8
BLACK
6
CONTINUOUS
10
6.02
20
-3.67181
11
5.96882
21
-3.67181
0
LINE
8
BLACK
6
CONTINUOUS
10
5.96882
20
-3.67181
11
5.96581
21
-3.67121
0
LINE
8
BLACK
6
CONTINUOUS
10
5.96581
20
-3.67121
11
5.96325
21
-3.6695
0
LINE
8
BLACK
6
CONTINUOUS
10
5.96325
20
-3.6695
11
5.96154
21
-3.66695
0
LINE
8
BLACK
6
CONTINUOUS
10
5.96154
20
-3.66695
11
5.96094
21
-3.66394
0
LINE
8
BLACK
6
CONTINUOUS
10
5.96094
20
-3.66394
11
5.96094
21
-3.63638
0
LINE
8
BLACK
6
CONTINUOUS
10
5.96094
20
-3.63638
11
5.96154
21
-3.63336
0
LINE
8
BLACK
6
CONTINUOUS
10
5.96154
20
-3.63336
11
5.96325
21
-3.63081
0
LINE
8
BLACK
6
CONTINUOUS
10
5.96325
20
-3.63081
11
5.96581
21
-3.6291
0
LINE
8
BLACK
6
CONTINUOUS
10
5.96581
20
-3.6291
11
5.96882
21
-3.6285
0
LINE
8
BLACK
6
CONTINUOUS
10
5.96882
20
-3.6285
11
6.02
21
-3.6285
0
LINE
8
BLACK
6
CONTINUOUS
10
6.02
20
-3.6285
11
6.02301
21
-3.6291
0
LINE
8
BLACK
6
CONTINUOUS
10
4.92742
20
-3.57028
11
4.92998
21
-3.57199
0
LINE
8
BLACK
6
CONTINUOUS
10
4.92998
20
-3.57199
11
4.93168
21
-3.57455
0
LINE
8
BLACK
6
CONTINUOUS
10
4.93168
20
-3.57455
11
4.93228
21
-3.57756
0
LINE
8
BLACK
6
CONTINUOUS
10
4.93228
20
-3.57756
11
4.93228
21
-3.63756
0
LINE
8
BLACK
6
CONTINUOUS
10
4.93228
20
-3.63756
11
4.93168
21
-3.64057
0
LINE
8
BLACK
6
CONTINUOUS
10
4.93168
20
-3.64057
11
4.92998
21
-3.64313
0
LINE
8
BLACK
6
CONTINUOUS
10
4.92998
20
-3.64313
11
4.92742
21
-3.64483
0
LINE
8
BLACK
6
CONTINUOUS
10
4.92742
20
-3.64483
11
4.92441
21
-3.64543
0
LINE
8
BLACK
6
CONTINUOUS
10
4.92441
20
-3.64543
11
4.86441
21
-3.64543
0
LINE
8
BLACK
6
CONTINUOUS
10
4.86441
20
-3.64543
11
4.8614
21
-3.64483
0
LINE
8
BLACK
6
CONTINUOUS
10
4.8614
20
-3.64483
11
4.85884
21
-3.64313
0
LINE
8
BLACK
6
CONTINUOUS
10
4.85884
20
-3.64313
11
4.85713
21
-3.64057
0
LINE
8
BLACK
6
CONTINUOUS
10
4.85713
20
-3.64057
11
4.85654
21
-3.63756
0
LINE
8
BLACK
6
CONTINUOUS
10
4.85654
20
-3.63756
11
4.85654
21
-3.57756
0
LINE
8
BLACK
6
CONTINUOUS
10
4.85654
20
-3.57756
11
4.85713
21
-3.57455
0
LINE
8
BLACK
6
CONTINUOUS
10
4.85713
20
-3.57455
11
4.85884
21
-3.57199
0
LINE
8
BLACK
6
CONTINUOUS
10
4.85884
20
-3.57199
11
4.8614
21
-3.57028
0
LINE
8
BLACK
6
CONTINUOUS
10
4.8614
20
-3.57028
11
4.86441
21
-3.56969
0
LINE
8
BLACK
6
CONTINUOUS
10
4.86441
20
-3.56969
11
4.92441
21
-3.56969
0
LINE
8
BLACK
6
CONTINUOUS
10
4.92441
20
-3.56969
11
4.92742
21
-3.57028
0
LINE
8
BLACK
6
CONTINUOUS
10
5.02742
20
-3.57028
11
5.02998
21
-3.57199
0
LINE
8
BLACK
6
CONTINUOUS
10
5.02998
20
-3.57199
11
5.03168
21
-3.57455
0
LINE
8
BLACK
6
CONTINUOUS
10
5.03168
20
-3.57455
11
5.03228
21
-3.57756
0
LINE
8
BLACK
6
CONTINUOUS
10
5.03228
20
-3.57756
11
5.03228
21
-3.63756
0
LINE
8
BLACK
6
CONTINUOUS
10
5.03228
20
-3.63756
11
5.03168
21
-3.64057
0
LINE
8
BLACK
6
CONTINUOUS
10
5.03168
20
-3.64057
11
5.02998
21
-3.64313
0
LINE
8
BLACK
6
CONTINUOUS
10
5.02998
20
-3.64313
11
5.02742
21
-3.64483
0
LINE
8
BLACK
6
CONTINUOUS
10
5.02742
20
-3.64483
11
5.02441
21
-3.64543
0
LINE
8
BLACK
6
CONTINUOUS
10
5.02441
20
-3.64543
11
4.96441
21
-3.64543
0
LINE
8
BLACK
6
CONTINUOUS
10
4.96441
20
-3.64543
11
4.9614
21
-3.64483
0
LINE
8
BLACK
6
CONTINUOUS
10
4.9614
20
-3.64483
11
4.95884
21
-3.64313
0
LINE
8
BLACK
6
CONTINUOUS
10
4.95884
20
-3.64313
11
4.95713
21
-3.64057
0
LINE
8
BLACK
6
CONTINUOUS
10
4.95713
20
-3.64057
11
4.95654
21
-3.63756
0
LINE
8
BLACK
6
CONTINUOUS
10
4.95654
20
-3.63756
11
4.95654
21
-3.57756
0
LINE
8
BLACK
6
CONTINUOUS
10
4.95654
20
-3.57756
11
4.95713
21
-3.57455
0
LINE
8
BLACK
6
CONTINUOUS
10
4.95713
20
-3.57455
11
4.95884
21
-3.57199
0
LINE
8
BLACK
6
CONTINUOUS
10
4.95884
20
-3.57199
11
4.9614
21
-3.57028
0
LINE
8
BLACK
6
CONTINUOUS
10
4.9614
20
-3.57028
11
4.96441
21
-3.56969
0
LINE
8
BLACK
6
CONTINUOUS
10
4.96441
20
-3.56969
11
5.02441
21
-3.56969
0
LINE
8
BLACK
6
CONTINUOUS
10
5.02441
20
-3.56969
11
5.02742
21
-3.57028
0
LINE
8
BLACK
6
CONTINUOUS
10
6.12742
20
-3.56028
11
6.12998
21
-3.56199
0
LINE
8
BLACK
6
CONTINUOUS
10
6.12998
20
-3.56199
11
6.13168
21
-3.56455
0
LINE
8
BLACK
6
CONTINUOUS
10
6.13168
20
-3.56455
11
6.13228
21
-3.56756
0
LINE
8
BLACK
6
CONTINUOUS
10
6.13228
20
-3.56756
11
6.13228
21
-3.62756
0
LINE
8
BLACK
6
CONTINUOUS
10
6.13228
20
-3.62756
11
6.13168
21
-3.63057
0
LINE
8
BLACK
6
CONTINUOUS
10
6.13168
20
-3.63057
11
6.12998
21
-3.63313
0
LINE
8
BLACK
6
CONTINUOUS
10
6.12998
20
-3.63313
11
6.12742
21
-3.63483
0
LINE
8
BLACK
6
CONTINUOUS
10
6.12742
20
-3.63483
11
6.12441
21
-3.63543
0
LINE
8
BLACK
6
CONTINUOUS
10
6.12441
20
-3.63543
11
6.06441
21
-3.63543
0
LINE
8
BLACK
6
CONTINUOUS
10
6.06441
20
-3.63543
11
6.0614
21
-3.63483
0
LINE
8
BLACK
6
CONTINUOUS
10
6.0614
20
-3.63483
11
6.05884
21
-3.63313
0
LINE
8
BLACK
6
CONTINUOUS
10
6.05884
20
-3.63313
11
6.05713
21
-3.63057
0
LINE
8
BLACK
6
CONTINUOUS
10
6.05713
20
-3.63057
11
6.05654
21
-3.62756
0
LINE
8
BLACK
6
CONTINUOUS
10
6.05654
20
-3.62756
11
6.05654
21
-3.56756
0
LINE
8
BLACK
6
CONTINUOUS
10
6.05654
20
-3.56756
11
6.05713
21
-3.56455
0
LINE
8
BLACK
6
CONTINUOUS
10
6.05713
20
-3.56455
11
6.05884
21
-3.56199
0
LINE
8
BLACK
6
CONTINUOUS
10
6.05884
20
-3.56199
11
6.0614
21
-3.56028
0
LINE
8
BLACK
6
CONTINUOUS
10
6.0614
20
-3.56028
11
6.06441
21
-3.55969
0
LINE
8
BLACK
6
CONTINUOUS
10
6.06441
20
-3.55969
11
6.12441
21
-3.55969
0
LINE
8
BLACK
6
CONTINUOUS
10
6.12441
20
-3.55969
11
6.12742
21
-3.56028
0
LINE
8
BLACK
6
CONTINUOUS
10
6.22742
20
-3.56028
11
6.22998
21
-3.56199
0
LINE
8
BLACK
6
CONTINUOUS
10
6.22998
20
-3.56199
11
6.23168
21
-3.56455
0
LINE
8
BLACK
6
CONTINUOUS
10
6.23168
20
-3.56455
11
6.23228
21
-3.56756
0
LINE
8
BLACK
6
CONTINUOUS
10
6.23228
20
-3.56756
11
6.23228
21
-3.62756
0
LINE
8
BLACK
6
CONTINUOUS
10
6.23228
20
-3.62756
11
6.23168
21
-3.63057
0
LINE
8
BLACK
6
CONTINUOUS
10
6.23168
20
-3.63057
11
6.22998
21
-3.63313
0
LINE
8
BLACK
6
CONTINUOUS
10
6.22998
20
-3.63313
11
6.22742
21
-3.63483
0
LINE
8
BLACK
6
CONTINUOUS
10
6.22742
20
-3.63483
11
6.22441
21
-3.63543
0
LINE
8
BLACK
6
CONTINUOUS
10
6.22441
20
-3.63543
11
6.16441
21
-3.63543
0
LINE
8
BLACK
6
CONTINUOUS
10
6.16441
20
-3.63543
11
6.1614
21
-3.63483
0
LINE
8
BLACK
6
CONTINUOUS
10
6.1614
20
-3.63483
11
6.15884
21
-3.63313
0
LINE
8
BLACK
6
CONTINUOUS
10
6.15884
20
-3.63313
11
6.15713
21
-3.63057
0
LINE
8
BLACK
6
CONTINUOUS
10
6.15713
20
-3.63057
11
6.15654
21
-3.62756
0
LINE
8
BLACK
6
CONTINUOUS
10
6.15654
20
-3.62756
11
6.15654
21
-3.56756
0
LINE
8
BLACK
6
CONTINUOUS
10
6.15654
20
-3.56756
11
6.15713
21
-3.56455
0
LINE
8
BLACK
6
CONTINUOUS
10
6.15713
20
-3.56455
11
6.15884
21
-3.56199
0
LINE
8
BLACK
6
CONTINUOUS
10
6.15884
20
-3.56199
11
6.1614
21
-3.56028
0
LINE
8
BLACK
6
CONTINUOUS
10
6.1614
20
-3.56028
11
6.16441
21
-3.55969
0
LINE
8
BLACK
6
CONTINUOUS
10
6.16441
20
-3.55969
11
6.22441
21
-3.55969
0
LINE
8
BLACK
6
CONTINUOUS
10
6.22441
20
-3.55969
11
6.22742
21
-3.56028
0
LINE
8
BLACK
6
CONTINUOUS
10
4.82301
20
-3.57391
11
4.82557
21
-3.57561
0
LINE
8
BLACK
6
CONTINUOUS
10
4.82557
20
-3.57561
11
4.82727
21
-3.57817
0
LINE
8
BLACK
6
CONTINUOUS
10
4.82727
20
-3.57817
11
4.82787
21
-3.58118
0
LINE
8
BLACK
6
CONTINUOUS
10
4.82787
20
-3.58118
11
4.82787
21
-3.60874
0
LINE
8
BLACK
6
CONTINUOUS
10
4.82787
20
-3.60874
11
4.82727
21
-3.61175
0
LINE
8
BLACK
6
CONTINUOUS
10
4.82727
20
-3.61175
11
4.82557
21
-3.61431
0
LINE
8
BLACK
6
CONTINUOUS
10
4.82557
20
-3.61431
11
4.82301
21
-3.61601
0
LINE
8
BLACK
6
CONTINUOUS
10
4.82301
20
-3.61601
11
4.82
21
-3.61661
0
LINE
8
BLACK
6
CONTINUOUS
10
4.82
20
-3.61661
11
4.76882
21
-3.61661
0
LINE
8
BLACK
6
CONTINUOUS
10
4.76882
20
-3.61661
11
4.76581
21
-3.61601
0
LINE
8
BLACK
6
CONTINUOUS
10
4.76581
20
-3.61601
11
4.76325
21
-3.61431
0
LINE
8
BLACK
6
CONTINUOUS
10
4.76325
20
-3.61431
11
4.76154
21
-3.61175
0
LINE
8
BLACK
6
CONTINUOUS
10
4.76154
20
-3.61175
11
4.76094
21
-3.60874
0
LINE
8
BLACK
6
CONTINUOUS
10
4.76094
20
-3.60874
11
4.76094
21
-3.58118
0
LINE
8
BLACK
6
CONTINUOUS
10
4.76094
20
-3.58118
11
4.76154
21
-3.57817
0
LINE
8
BLACK
6
CONTINUOUS
10
4.76154
20
-3.57817
11
4.76325
21
-3.57561
0
LINE
8
BLACK
6
CONTINUOUS
10
4.76325
20
-3.57561
11
4.76581
21
-3.57391
0
LINE
8
BLACK
6
CONTINUOUS
10
4.76581
20
-3.57391
11
4.76882
21
-3.57331
0
LINE
8
BLACK
6
CONTINUOUS
10
4.76882
20
-3.57331
11
4.82
21
-3.57331
0
LINE
8
BLACK
6
CONTINUOUS
10
4.82
20
-3.57331
11
4.82301
21
-3.57391
0
LINE
8
BLACK
6
CONTINUOUS
10
5.78664
20
-3.53347
11
5.78919
21
-3.53518
0
LINE
8
BLACK
6
CONTINUOUS
10
5.78919
20
-3.53518
11
5.7909
21
-3.53773
0
LINE
8
BLACK
6
CONTINUOUS
10
5.7909
20
-3.53773
11
5.7915
21
-3.54075
0
LINE
8
BLACK
6
CONTINUOUS
10
5.7915
20
-3.54075
11
5.7915
21
-3.56437
0
LINE
8
BLACK
6
CONTINUOUS
10
5.7915
20
-3.56437
11
5.7909
21
-3.56738
0
LINE
8
BLACK
6
CONTINUOUS
10
5.7909
20
-3.56738
11
5.78919
21
-3.56994
0
LINE
8
BLACK
6
CONTINUOUS
10
5.78919
20
-3.56994
11
5.78664
21
-3.57164
0
LINE
8
BLACK
6
CONTINUOUS
10
5.78664
20
-3.57164
11
5.78362
21
-3.57224
0
LINE
8
BLACK
6
CONTINUOUS
10
5.78362
20
-3.57224
11
5.7226
21
-3.57224
0
LINE
8
BLACK
6
CONTINUOUS
10
5.7226
20
-3.57224
11
5.71959
21
-3.57164
0
LINE
8
BLACK
6
CONTINUOUS
10
5.71959
20
-3.57164
11
5.71703
21
-3.56994
0
LINE
8
BLACK
6
CONTINUOUS
10
5.71703
20
-3.56994
11
5.71532
21
-3.56738
0
LINE
8
BLACK
6
CONTINUOUS
10
5.71532
20
-3.56738
11
5.71472
21
-3.56437
0
LINE
8
BLACK
6
CONTINUOUS
10
5.71472
20
-3.56437
11
5.71472
21
-3.54075
0
LINE
8
BLACK
6
CONTINUOUS
10
5.71472
20
-3.54075
11
5.71532
21
-3.53773
0
LINE
8
BLACK
6
CONTINUOUS
10
5.71532
20
-3.53773
11
5.71703
21
-3.53518
0
LINE
8
BLACK
6
CONTINUOUS
10
5.71703
20
-3.53518
11
5.71959
21
-3.53347
0
LINE
8
BLACK
6
CONTINUOUS
10
5.71959
20
-3.53347
11
5.7226
21
-3.53287
0
LINE
8
BLACK
6
CONTINUOUS
10
5.7226
20
-3.53287
11
5.78362
21
-3.53287
0
LINE
8
BLACK
6
CONTINUOUS
10
5.78362
20
-3.53287
11
5.78664
21
-3.53347
0
LINE
8
BLACK
6
CONTINUOUS
10
5.99923
20
-3.53347
11
6.00179
21
-3.53518
0
LINE
8
BLACK
6
CONTINUOUS
10
6.00179
20
-3.53518
11
6.0035
21
-3.53773
0
LINE
8
BLACK
6
CONTINUOUS
10
6.0035
20
-3.53773
11
6.00409
21
-3.54075
0
LINE
8
BLACK
6
CONTINUOUS
10
6.00409
20
-3.54075
11
6.00409
21
-3.56437
0
LINE
8
BLACK
6
CONTINUOUS
10
6.00409
20
-3.56437
11
6.0035
21
-3.56738
0
LINE
8
BLACK
6
CONTINUOUS
10
6.0035
20
-3.56738
11
6.00179
21
-3.56994
0
LINE
8
BLACK
6
CONTINUOUS
10
6.00179
20
-3.56994
11
5.99923
21
-3.57164
0
LINE
8
BLACK
6
CONTINUOUS
10
5.99923
20
-3.57164
11
5.99622
21
-3.57224
0
LINE
8
BLACK
6
CONTINUOUS
10
5.99622
20
-3.57224
11
5.9352
21
-3.57224
0
LINE
8
BLACK
6
CONTINUOUS
10
5.9352
20
-3.57224
11
5.93218
21
-3.57164
0
LINE
8
BLACK
6
CONTINUOUS
10
5.93218
20
-3.57164
11
5.92963
21
-3.56994
0
LINE
8
BLACK
6
CONTINUOUS
10
5.92963
20
-3.56994
11
5.92792
21
-3.56738
0
LINE
8
BLACK
6
CONTINUOUS
10
5.92792
20
-3.56738
11
5.92732
21
-3.56437
0
LINE
8
BLACK
6
CONTINUOUS
10
5.92732
20
-3.56437
11
5.92732
21
-3.54075
0
LINE
8
BLACK
6
CONTINUOUS
10
5.92732
20
-3.54075
11
5.92792
21
-3.53773
0
LINE
8
BLACK
6
CONTINUOUS
10
5.92792
20
-3.53773
11
5.92963
21
-3.53518
0
LINE
8
BLACK
6
CONTINUOUS
10
5.92963
20
-3.53518
11
5.93218
21
-3.53347
0
LINE
8
BLACK
6
CONTINUOUS
10
5.93218
20
-3.53347
11
5.9352
21
-3.53287
0
LINE
8
BLACK
6
CONTINUOUS
10
5.9352
20
-3.53287
11
5.99622
21
-3.53287
0
LINE
8
BLACK
6
CONTINUOUS
10
5.99622
20
-3.53287
11
5.99923
21
-3.53347
0
LINE
8
BLACK
6
CONTINUOUS
10
4.92742
20
-3.47028
11
4.92998
21
-3.47199
0
LINE
8
BLACK
6
CONTINUOUS
10
4.92998
20
-3.47199
11
4.93168
21
-3.47455
0
LINE
8
BLACK
6
CONTINUOUS
10
4.93168
20
-3.47455
11
4.93228
21
-3.47756
0
LINE
8
BLACK
6
CONTINUOUS
10
4.93228
20
-3.47756
11
4.93228
21
-3.53756
0
LINE
8
BLACK
6
CONTINUOUS
10
4.93228
20
-3.53756
11
4.93168
21
-3.54057
0
LINE
8
BLACK
6
CONTINUOUS
10
4.93168
20
-3.54057
11
4.92998
21
-3.54313
0
LINE
8
BLACK
6
CONTINUOUS
10
4.92998
20
-3.54313
11
4.92742
21
-3.54483
0
LINE
8
BLACK
6
CONTINUOUS
10
4.92742
20
-3.54483
11
4.92441
21
-3.54543
0
LINE
8
BLACK
6
CONTINUOUS
10
4.92441
20
-3.54543
11
4.86441
21
-3.54543
0
LINE
8
BLACK
6
CONTINUOUS
10
4.86441
20
-3.54543
11
4.8614
21
-3.54483
0
LINE
8
BLACK
6
CONTINUOUS
10
4.8614
20
-3.54483
11
4.85884
21
-3.54313
0
LINE
8
BLACK
6
CONTINUOUS
10
4.85884
20
-3.54313
11
4.85713
21
-3.54057
0
LINE
8
BLACK
6
CONTINUOUS
10
4.85713
20
-3.54057
11
4.85654
21
-3.53756
0
LINE
8
BLACK
6
CONTINUOUS
10
4.85654
20
-3.53756
11
4.85654
21
-3.47756
0
LINE
8
BLACK
6
CONTINUOUS
10
4.85654
20
-3.47756
11
4.85713
21
-3.47455
0
LINE
8
BLACK
6
CONTINUOUS
10
4.85713
20
-3.47455
11
4.85884
21
-3.47199
0
LINE
8
BLACK
6
CONTINUOUS
10
4.85884
20
-3.47199
11
4.8614
21
-3.47028
0
LINE
8
BLACK
6
CONTINUOUS
10
4.8614
20
-3.47028
11
4.86441
21
-3.46969
0
LINE
8
BLACK
6
CONTINUOUS
10
4.86441
20
-3.46969
11
4.92441
21
-3.46969
0
LINE
8
BLACK
6
CONTINUOUS
10
4.92441
20
-3.46969
11
4.92742
21
-3.47028
0
LINE
8
BLACK
6
CONTINUOUS
10
5.02742
20
-3.47028
11
5.02998
21
-3.47199
0
LINE
8
BLACK
6
CONTINUOUS
10
5.02998
20
-3.47199
11
5.03168
21
-3.47455
0
LINE
8
BLACK
6
CONTINUOUS
10
5.03168
20
-3.47455
11
5.03228
21
-3.47756
0
LINE
8
BLACK
6
CONTINUOUS
10
5.03228
20
-3.47756
11
5.03228
21
-3.53756
0
LINE
8
BLACK
6
CONTINUOUS
10
5.03228
20
-3.53756
11
5.03168
21
-3.54057
0
LINE
8
BLACK
6
CONTINUOUS
10
5.03168
20
-3.54057
11
5.02998
21
-3.54313
0
LINE
8
BLACK
6
CONTINUOUS
10
5.02998
20
-3.54313
11
5.02742
21
-3.54483
0
LINE
8
BLACK
6
CONTINUOUS
10
5.02742
20
-3.54483
11
5.02441
21
-3.54543
0
LINE
8
BLACK
6
CONTINUOUS
10
5.02441
20
-3.54543
11
4.96441
21
-3.54543
0
LINE
8
BLACK
6
CONTINUOUS
10
4.96441
20
-3.54543
11
4.9614
21
-3.54483
0
LINE
8
BLACK
6
CONTINUOUS
10
4.9614
20
-3.54483
11
4.95884
21
-3.54313
0
LINE
8
BLACK
6
CONTINUOUS
10
4.95884
20
-3.54313
11
4.95713
21
-3.54057
0
LINE
8
BLACK
6
CONTINUOUS
10
4.95713
20
-3.54057
11
4.95654
21
-3.53756
0
LINE
8
BLACK
6
CONTINUOUS
10
4.95654
20
-3.53756
11
4.95654
21
-3.47756
0
LINE
8
BLACK
6
CONTINUOUS
10
4.95654
20
-3.47756
11
4.95713
21
-3.47455
0
LINE
8
BLACK
6
CONTINUOUS
10
4.95713
20
-3.47455
11
4.95884
21
-3.47199
0
LINE
8
BLACK
6
CONTINUOUS
10
4.95884
20
-3.47199
11
4.9614
21
-3.47028
0
LINE
8
BLACK
6
CONTINUOUS
10
4.9614
20
-3.47028
11
4.96441
21
-3.46969
0
LINE
8
BLACK
6
CONTINUOUS
10
4.96441
20
-3.46969
11
5.02441
21
-3.46969
0
LINE
8
BLACK
6
CONTINUOUS
10
5.02441
20
-3.46969
11
5.02742
21
-3.47028
0
LINE
8
BLACK
6
CONTINUOUS
10
4.82301
20
-3.4991
11
4.82557
21
-3.50081
0
LINE
8
BLACK
6
CONTINUOUS
10
4.82557
20
-3.50081
11
4.82727
21
-3.50336
0
LINE
8
BLACK
6
CONTINUOUS
10
4.82727
20
-3.50336
11
4.82787
21
-3.50638
0
LINE
8
BLACK
6
CONTINUOUS
10
4.82787
20
-3.50638
11
4.82787
21
-3.53394
0
LINE
8
BLACK
6
CONTINUOUS
10
4.82787
20
-3.53394
11
4.82727
21
-3.53695
0
LINE
8
BLACK
6
CONTINUOUS
10
4.82727
20
-3.53695
11
4.82557
21
-3.5395
0
LINE
8
BLACK
6
CONTINUOUS
10
4.82557
20
-3.5395
11
4.82301
21
-3.54121
0
LINE
8
BLACK
6
CONTINUOUS
10
4.82301
20
-3.54121
11
4.82
21
-3.54181
0
LINE
8
BLACK
6
CONTINUOUS
10
4.82
20
-3.54181
11
4.76882
21
-3.54181
0
LINE
8
BLACK
6
CONTINUOUS
10
4.76882
20
-3.54181
11
4.76581
21
-3.54121
0
LINE
8
BLACK
6
CONTINUOUS
10
4.76581
20
-3.54121
11
4.76325
21
-3.5395
0
LINE
8
BLACK
6
CONTINUOUS
10
4.76325
20
-3.5395
11
4.76154
21
-3.53695
0
LINE
8
BLACK
6
CONTINUOUS
10
4.76154
20
-3.53695
11
4.76094
21
-3.53394
0
LINE
8
BLACK
6
CONTINUOUS
10
4.76094
20
-3.53394
11
4.76094
21
-3.50638
0
LINE
8
BLACK
6
CONTINUOUS
10
4.76094
20
-3.50638
11
4.76154
21
-3.50336
0
LINE
8
BLACK
6
CONTINUOUS
10
4.76154
20
-3.50336
11
4.76325
21
-3.50081
0
LINE
8
BLACK
6
CONTINUOUS
10
4.76325
20
-3.50081
11
4.76581
21
-3.4991
0
LINE
8
BLACK
6
CONTINUOUS
10
4.76581
20
-3.4991
11
4.76882
21
-3.4985
0
LINE
8
BLACK
6
CONTINUOUS
10
4.76882
20
-3.4985
11
4.82
21
-3.4985
0
LINE
8
BLACK
6
CONTINUOUS
10
4.82
20
-3.4985
11
4.82301
21
-3.4991
0
LINE
8
BLACK
6
CONTINUOUS
10
6.12742
20
-3.46028
11
6.12998
21
-3.46199
0
LINE
8
BLACK
6
CONTINUOUS
10
6.12998
20
-3.46199
11
6.13168
21
-3.46455
0
LINE
8
BLACK
6
CONTINUOUS
10
6.13168
20
-3.46455
11
6.13228
21
-3.46756
0
LINE
8
BLACK
6
CONTINUOUS
10
6.13228
20
-3.46756
11
6.13228
21
-3.52756
0
LINE
8
BLACK
6
CONTINUOUS
10
6.13228
20
-3.52756
11
6.13168
21
-3.53057
0
LINE
8
BLACK
6
CONTINUOUS
10
6.13168
20
-3.53057
11
6.12998
21
-3.53313
0
LINE
8
BLACK
6
CONTINUOUS
10
6.12998
20
-3.53313
11
6.12742
21
-3.53483
0
LINE
8
BLACK
6
CONTINUOUS
10
6.12742
20
-3.53483
11
6.12441
21
-3.53543
0
LINE
8
BLACK
6
CONTINUOUS
10
6.12441
20
-3.53543
11
6.06441
21
-3.53543
0
LINE
8
BLACK
6
CONTINUOUS
10
6.06441
20
-3.53543
11
6.0614
21
-3.53483
0
LINE
8
BLACK
6
CONTINUOUS
10
6.0614
20
-3.53483
11
6.05884
21
-3.53313
0
LINE
8
BLACK
6
CONTINUOUS
10
6.05884
20
-3.53313
11
6.05713
21
-3.53057
0
LINE
8
BLACK
6
CONTINUOUS
10
6.05713
20
-3.53057
11
6.05654
21
-3.52756
0
LINE
8
BLACK
6
CONTINUOUS
10
6.05654
20
-3.52756
11
6.05654
21
-3.46756
0
LINE
8
BLACK
6
CONTINUOUS
10
6.05654
20
-3.46756
11
6.05713
21
-3.46455
0
LINE
8
BLACK
6
CONTINUOUS
10
6.05713
20
-3.46455
11
6.05884
21
-3.46199
0
LINE
8
BLACK
6
CONTINUOUS
10
6.05884
20
-3.46199
11
6.0614
21
-3.46028
0
LINE
8
BLACK
6
CONTINUOUS
10
6.0614
20
-3.46028
11
6.06441
21
-3.45969
0
LINE
8
BLACK
6
CONTINUOUS
10
6.06441
20
-3.45969
11
6.12441
21
-3.45969
0
LINE
8
BLACK
6
CONTINUOUS
10
6.12441
20
-3.45969
11
6.12742
21
-3.46028
0
LINE
8
BLACK
6
CONTINUOUS
10
6.22742
20
-3.46028
11
6.22998
21
-3.46199
0
LINE
8
BLACK
6
CONTINUOUS
10
6.22998
20
-3.46199
11
6.23168
21
-3.46455
0
LINE
8
BLACK
6
CONTINUOUS
10
6.23168
20
-3.46455
11
6.23228
21
-3.46756
0
LINE
8
BLACK
6
CONTINUOUS
10
6.23228
20
-3.46756
11
6.23228
21
-3.52756
0
LINE
8
BLACK
6
CONTINUOUS
10
6.23228
20
-3.52756
11
6.23168
21
-3.53057
0
LINE
8
BLACK
6
CONTINUOUS
10
6.23168
20
-3.53057
11
6.22998
21
-3.53313
0
LINE
8
BLACK
6
CONTINUOUS
10
6.22998
20
-3.53313
11
6.22742
21
-3.53483
0
LINE
8
BLACK
6
CONTINUOUS
10
6.22742
20
-3.53483
11
6.22441
21
-3.53543
0
LINE
8
BLACK
6
CONTINUOUS
10
6.22441
20
-3.53543
11
6.16441
21
-3.53543
0
LINE
8
BLACK
6
CONTINUOUS
10
6.16441
20
-3.53543
11
6.1614
21
-3.53483
0
LINE
8
BLACK
6
CONTINUOUS
10
6.1614
20
-3.53483
11
6.15884
21
-3.53313
0
LINE
8
BLACK
6
CONTINUOUS
10
6.15884
20
-3.53313
11
6.15713
21
-3.53057
0
LINE
8
BLACK
6
CONTINUOUS
10
6.15713
20
-3.53057
11
6.15654
21
-3.52756
0
LINE
8
BLACK
6
CONTINUOUS
10
6.15654
20
-3.52756
11
6.15654
21
-3.46756
0
LINE
8
BLACK
6
CONTINUOUS
10
6.15654
20
-3.46756
11
6.15713
21
-3.46455
0
LINE
8
BLACK
6
CONTINUOUS
10
6.15713
20
-3.46455
11
6.15884
21
-3.46199
0
LINE
8
BLACK
6
CONTINUOUS
10
6.15884
20
-3.46199
11
6.1614
21
-3.46028
0
LINE
8
BLACK
6
CONTINUOUS
10
6.1614
20
-3.46028
11
6.16441
21
-3.45969
0
LINE
8
BLACK
6
CONTINUOUS
10
6.16441
20
-3.45969
11
6.22441
21
-3.45969
0
LINE
8
BLACK
6
CONTINUOUS
10
6.22441
20
-3.45969
11
6.22742
21
-3.46028
0
LINE
8
BLACK
6
CONTINUOUS
10
5.78664
20
-3.48347
11
5.78919
21
-3.48518
0
LINE
8
BLACK
6
CONTINUOUS
10
5.78919
20
-3.48518
11
5.7909
21
-3.48773
0
LINE
8
BLACK
6
CONTINUOUS
10
5.7909
20
-3.48773
11
5.7915
21
-3.49075
0
LINE
8
BLACK
6
CONTINUOUS
10
5.7915
20
-3.49075
11
5.7915
21
-3.51437
0
LINE
8
BLACK
6
CONTINUOUS
10
5.7915
20
-3.51437
11
5.7909
21
-3.51738
0
LINE
8
BLACK
6
CONTINUOUS
10
5.7909
20
-3.51738
11
5.78919
21
-3.51994
0
LINE
8
BLACK
6
CONTINUOUS
10
5.78919
20
-3.51994
11
5.78664
21
-3.52164
0
LINE
8
BLACK
6
CONTINUOUS
10
5.78664
20
-3.52164
11
5.78362
21
-3.52224
0
LINE
8
BLACK
6
CONTINUOUS
10
5.78362
20
-3.52224
11
5.7226
21
-3.52224
0
LINE
8
BLACK
6
CONTINUOUS
10
5.7226
20
-3.52224
11
5.71959
21
-3.52164
0
LINE
8
BLACK
6
CONTINUOUS
10
5.71959
20
-3.52164
11
5.71703
21
-3.51994
0
LINE
8
BLACK
6
CONTINUOUS
10
5.71703
20
-3.51994
11
5.71532
21
-3.51738
0
LINE
8
BLACK
6
CONTINUOUS
10
5.71532
20
-3.51738
11
5.71472
21
-3.51437
0
LINE
8
BLACK
6
CONTINUOUS
10
5.71472
20
-3.51437
11
5.71472
21
-3.49075
0
LINE
8
BLACK
6
CONTINUOUS
10
5.71472
20
-3.49075
11
5.71532
21
-3.48773
0
LINE
8
BLACK
6
CONTINUOUS
10
5.71532
20
-3.48773
11
5.71703
21
-3.48518
0
LINE
8
BLACK
6
CONTINUOUS
10
5.71703
20
-3.48518
11
5.71959
21
-3.48347
0
LINE
8
BLACK
6
CONTINUOUS
10
5.71959
20
-3.48347
11
5.7226
21
-3.48287
0
LINE
8
BLACK
6
CONTINUOUS
10
5.7226
20
-3.48287
11
5.78362
21
-3.48287
0
LINE
8
BLACK
6
CONTINUOUS
10
5.78362
20
-3.48287
11
5.78664
21
-3.48347
0
LINE
8
BLACK
6
CONTINUOUS
10
5.99923
20
-3.48347
11
6.00179
21
-3.48518
0
LINE
8
BLACK
6
CONTINUOUS
10
6.00179
20
-3.48518
11
6.0035
21
-3.48773
0
LINE
8
BLACK
6
CONTINUOUS
10
6.0035
20
-3.48773
11
6.00409
21
-3.49075
0
LINE
8
BLACK
6
CONTINUOUS
10
6.00409
20
-3.49075
11
6.00409
21
-3.51437
0
LINE
8
BLACK
6
CONTINUOUS
10
6.00409
20
-3.51437
11
6.0035
21
-3.51738
0
LINE
8
BLACK
6
CONTINUOUS
10
6.0035
20
-3.51738
11
6.00179
21
-3.51994
0
LINE
8
BLACK
6
CONTINUOUS
10
6.00179
20
-3.51994
11
5.99923
21
-3.52164
0
LINE
8
BLACK
6
CONTINUOUS
10
5.99923
20
-3.52164
11
5.99622
21
-3.52224
0
LINE
8
BLACK
6
CONTINUOUS
10
5.99622
20
-3.52224
11
5.9352
21
-3.52224
0
LINE
8
BLACK
6
CONTINUOUS
10
5.9352
20
-3.52224
11
5.93218
21
-3.52164
0
LINE
8
BLACK
6
CONTINUOUS
10
5.93218
20
-3.52164
11
5.92963
21
-3.51994
0
LINE
8
BLACK
6
CONTINUOUS
10
5.92963
20
-3.51994
11
5.92792
21
-3.51738
0
LINE
8
BLACK
6
CONTINUOUS
10
5.92792
20
-3.51738
11
5.92732
21
-3.51437
0
LINE
8
BLACK
6
CONTINUOUS
10
5.92732
20
-3.51437
11
5.92732
21
-3.49075
0
LINE
8
BLACK
6
CONTINUOUS
10
5.92732
20
-3.49075
11
5.92792
21
-3.48773
0
LINE
8
BLACK
6
CONTINUOUS
10
5.92792
20
-3.48773
11
5.92963
21
-3.48518
0
LINE
8
BLACK
6
CONTINUOUS
10
5.92963
20
-3.48518
11
5.93218
21
-3.48347
0
LINE
8
BLACK
6
CONTINUOUS
10
5.93218
20
-3.48347
11
5.9352
21
-3.48287
0
LINE
8
BLACK
6
CONTINUOUS
10
5.9352
20
-3.48287
11
5.99622
21
-3.48287
0
LINE
8
BLACK
6
CONTINUOUS
10
5.99622
20
-3.48287
11
5.99923
21
-3.48347
0
LINE
8
BLACK
6
CONTINUOUS
10
5.18774
20
-3.42568
11
5.19029
21
-3.42739
0
LINE
8
BLACK
6
CONTINUOUS
10
5.19029
20
-3.42739
11
5.192
21
-3.42994
0
LINE
8
BLACK
6
CONTINUOUS
10
5.192
20
-3.42994
11
5.1926
21
-3.43295
0
LINE
8
BLACK
6
CONTINUOUS
10
5.1926
20
-3.43295
11
5.1926
21
-3.48217
0
LINE
8
BLACK
6
CONTINUOUS
10
5.1926
20
-3.48217
11
5.192
21
-3.48518
0
LINE
8
BLACK
6
CONTINUOUS
10
5.192
20
-3.48518
11
5.19029
21
-3.48773
0
LINE
8
BLACK
6
CONTINUOUS
10
5.19029
20
-3.48773
11
5.18774
21
-3.48944
0
LINE
8
BLACK
6
CONTINUOUS
10
5.18774
20
-3.48944
11
5.18472
21
-3.49004
0
LINE
8
BLACK
6
CONTINUOUS
10
5.18472
20
-3.49004
11
5.14535
21
-3.49004
0
LINE
8
BLACK
6
CONTINUOUS
10
5.14535
20
-3.49004
11
5.14234
21
-3.48944
0
LINE
8
BLACK
6
CONTINUOUS
10
5.14234
20
-3.48944
11
5.13979
21
-3.48773
0
LINE
8
BLACK
6
CONTINUOUS
10
5.13979
20
-3.48773
11
5.13808
21
-3.48518
0
LINE
8
BLACK
6
CONTINUOUS
10
5.13808
20
-3.48518
11
5.13748
21
-3.48217
0
LINE
8
BLACK
6
CONTINUOUS
10
5.13748
20
-3.48217
11
5.13748
21
-3.43295
0
LINE
8
BLACK
6
CONTINUOUS
10
5.13748
20
-3.43295
11
5.13808
21
-3.42994
0
LINE
8
BLACK
6
CONTINUOUS
10
5.13808
20
-3.42994
11
5.13979
21
-3.42739
0
LINE
8
BLACK
6
CONTINUOUS
10
5.13979
20
-3.42739
11
5.14234
21
-3.42568
0
LINE
8
BLACK
6
CONTINUOUS
10
5.14234
20
-3.42568
11
5.14535
21
-3.42508
0
LINE
8
BLACK
6
CONTINUOUS
10
5.14535
20
-3.42508
11
5.18472
21
-3.42508
0
LINE
8
BLACK
6
CONTINUOUS
10
5.18472
20
-3.42508
11
5.18774
21
-3.42568
0
LINE
8
BLACK
6
CONTINUOUS
10
5.26648
20
-3.42568
11
5.26903
21
-3.42739
0
LINE
8
BLACK
6
CONTINUOUS
10
5.26903
20
-3.42739
11
5.27074
21
-3.42994
0
LINE
8
BLACK
6
CONTINUOUS
10
5.27074
20
-3.42994
11
5.27134
21
-3.43295
0
LINE
8
BLACK
6
CONTINUOUS
10
5.27134
20
-3.43295
11
5.27134
21
-3.48217
0
LINE
8
BLACK
6
CONTINUOUS
10
5.27134
20
-3.48217
11
5.27074
21
-3.48518
0
LINE
8
BLACK
6
CONTINUOUS
10
5.27074
20
-3.48518
11
5.26903
21
-3.48773
0
LINE
8
BLACK
6
CONTINUOUS
10
5.26903
20
-3.48773
11
5.26648
21
-3.48944
0
LINE
8
BLACK
6
CONTINUOUS
10
5.26648
20
-3.48944
11
5.26346
21
-3.49004
0
LINE
8
BLACK
6
CONTINUOUS
10
5.26346
20
-3.49004
11
5.22409
21
-3.49004
0
LINE
8
BLACK
6
CONTINUOUS
10
5.22409
20
-3.49004
11
5.22108
21
-3.48944
0
LINE
8
BLACK
6
CONTINUOUS
10
5.22108
20
-3.48944
11
5.21853
21
-3.48773
0
LINE
8
BLACK
6
CONTINUOUS
10
5.21853
20
-3.48773
11
5.21682
21
-3.48518
0
LINE
8
BLACK
6
CONTINUOUS
10
5.21682
20
-3.48518
11
5.21622
21
-3.48217
0
LINE
8
BLACK
6
CONTINUOUS
10
5.21622
20
-3.48217
11
5.21622
21
-3.43295
0
LINE
8
BLACK
6
CONTINUOUS
10
5.21622
20
-3.43295
11
5.21682
21
-3.42994
0
LINE
8
BLACK
6
CONTINUOUS
10
5.21682
20
-3.42994
11
5.21853
21
-3.42739
0
LINE
8
BLACK
6
CONTINUOUS
10
5.21853
20
-3.42739
11
5.22108
21
-3.42568
0
LINE
8
BLACK
6
CONTINUOUS
10
5.22108
20
-3.42568
11
5.22409
21
-3.42508
0
LINE
8
BLACK
6
CONTINUOUS
10
5.22409
20
-3.42508
11
5.26346
21
-3.42508
0
LINE
8
BLACK
6
CONTINUOUS
10
5.26346
20
-3.42508
11
5.26648
21
-3.42568
0
LINE
8
BLACK
6
CONTINUOUS
10
5.78664
20
-3.43347
11
5.78919
21
-3.43518
0
LINE
8
BLACK
6
CONTINUOUS
10
5.78919
20
-3.43518
11
5.7909
21
-3.43773
0
LINE
8
BLACK
6
CONTINUOUS
10
5.7909
20
-3.43773
11
5.7915
21
-3.44075
0
LINE
8
BLACK
6
CONTINUOUS
10
5.7915
20
-3.44075
11
5.7915
21
-3.46437
0
LINE
8
BLACK
6
CONTINUOUS
10
5.7915
20
-3.46437
11
5.7909
21
-3.46738
0
LINE
8
BLACK
6
CONTINUOUS
10
5.7909
20
-3.46738
11
5.78919
21
-3.46994
0
LINE
8
BLACK
6
CONTINUOUS
10
5.78919
20
-3.46994
11
5.78664
21
-3.47164
0
LINE
8
BLACK
6
CONTINUOUS
10
5.78664
20
-3.47164
11
5.78362
21
-3.47224
0
LINE
8
BLACK
6
CONTINUOUS
10
5.78362
20
-3.47224
11
5.7226
21
-3.47224
0
LINE
8
BLACK
6
CONTINUOUS
10
5.7226
20
-3.47224
11
5.71959
21
-3.47164
0
LINE
8
BLACK
6
CONTINUOUS
10
5.71959
20
-3.47164
11
5.71703
21
-3.46994
0
LINE
8
BLACK
6
CONTINUOUS
10
5.71703
20
-3.46994
11
5.71532
21
-3.46738
0
LINE
8
BLACK
6
CONTINUOUS
10
5.71532
20
-3.46738
11
5.71472
21
-3.46437
0
LINE
8
BLACK
6
CONTINUOUS
10
5.71472
20
-3.46437
11
5.71472
21
-3.44075
0
LINE
8
BLACK
6
CONTINUOUS
10
5.71472
20
-3.44075
11
5.71532
21
-3.43773
0
LINE
8
BLACK
6
CONTINUOUS
10
5.71532
20
-3.43773
11
5.71703
21
-3.43518
0
LINE
8
BLACK
6
CONTINUOUS
10
5.71703
20
-3.43518
11
5.71959
21
-3.43347
0
LINE
8
BLACK
6
CONTINUOUS
10
5.71959
20
-3.43347
11
5.7226
21
-3.43287
0
LINE
8
BLACK
6
CONTINUOUS
10
5.7226
20
-3.43287
11
5.78362
21
-3.43287
0
LINE
8
BLACK
6
CONTINUOUS
10
5.78362
20
-3.43287
11
5.78664
21
-3.43347
0
LINE
8
BLACK
6
CONTINUOUS
10
5.99923
20
-3.43347
11
6.00179
21
-3.43518
0
LINE
8
BLACK
6
CONTINUOUS
10
6.00179
20
-3.43518
11
6.0035
21
-3.43773
0
LINE
8
BLACK
6
CONTINUOUS
10
6.0035
20
-3.43773
11
6.00409
21
-3.44075
0
LINE
8
BLACK
6
CONTINUOUS
10
6.00409
20
-3.44075
11
6.00409
21
-3.46437
0
LINE
8
BLACK
6
CONTINUOUS
10
6.00409
20
-3.46437
11
6.0035
21
-3.46738
0
LINE
8
BLACK
6
CONTINUOUS
10
6.0035
20
-3.46738
11
6.00179
21
-3.46994
0
LINE
8
BLACK
6
CONTINUOUS
10
6.00179
20
-3.46994
11
5.99923
21
-3.47164
0
LINE
8
BLACK
6
CONTINUOUS
10
5.99923
20
-3.47164
11
5.99622
21
-3.47224
0
LINE
8
BLACK
6
CONTINUOUS
10
5.99622
20
-3.47224
11
5.9352
21
-3.47224
0
LINE
8
BLACK
6
CONTINUOUS
10
5.9352
20
-3.47224
11
5.93218
21
-3.47164
0
LINE
8
BLACK
6
CONTINUOUS
10
5.93218
20
-3.47164
11
5.92963
21
-3.46994
0
LINE
8
BLACK
6
CONTINUOUS
10
5.92963
20
-3.46994
11
5.92792
21
-3.46738
0
LINE
8
BLACK
6
CONTINUOUS
10
5.92792
20
-3.46738
11
5.92732
21
-3.46437
0
LINE
8
BLACK
6
CONTINUOUS
10
5.92732
20
-3.46437
11
5.92732
21
-3.44075
0
LINE
8
BLACK
6
CONTINUOUS
10
5.92732
20
-3.44075
11
5.92792
21
-3.43773
0
LINE
8
BLACK
6
CONTINUOUS
10
5.92792
20
-3.43773
11
5.92963
21
-3.43518
0
LINE
8
BLACK
6
CONTINUOUS
10
5.92963
20
-3.43518
11
5.93218
21
-3.43347
0
LINE
8
BLACK
6
CONTINUOUS
10
5.93218
20
-3.43347
11
5.9352
21
-3.43287
0
LINE
8
BLACK
6
CONTINUOUS
10
5.9352
20
-3.43287
11
5.99622
21
-3.43287
0
LINE
8
BLACK
6
CONTINUOUS
10
5.99622
20
-3.43287
11
5.99923
21
-3.43347
0
LINE
8
BLACK
6
CONTINUOUS
10
4.92742
20
-3.37028
11
4.92998
21
-3.37199
0
LINE
8
BLACK
6
CONTINUOUS
10
4.92998
20
-3.37199
11
4.93168
21
-3.37455
0
LINE
8
BLACK
6
CONTINUOUS
10
4.93168
20
-3.37455
11
4.93228
21
-3.37756
0
LINE
8
BLACK
6
CONTINUOUS
10
4.93228
20
-3.37756
11
4.93228
21
-3.43756
0
LINE
8
BLACK
6
CONTINUOUS
10
4.93228
20
-3.43756
11
4.93168
21
-3.44057
0
LINE
8
BLACK
6
CONTINUOUS
10
4.93168
20
-3.44057
11
4.92998
21
-3.44313
0
LINE
8
BLACK
6
CONTINUOUS
10
4.92998
20
-3.44313
11
4.92742
21
-3.44483
0
LINE
8
BLACK
6
CONTINUOUS
10
4.92742
20
-3.44483
11
4.92441
21
-3.44543
0
LINE
8
BLACK
6
CONTINUOUS
10
4.92441
20
-3.44543
11
4.86441
21
-3.44543
0
LINE
8
BLACK
6
CONTINUOUS
10
4.86441
20
-3.44543
11
4.8614
21
-3.44483
0
LINE
8
BLACK
6
CONTINUOUS
10
4.8614
20
-3.44483
11
4.85884
21
-3.44313
0
LINE
8
BLACK
6
CONTINUOUS
10
4.85884
20
-3.44313
11
4.85713
21
-3.44057
0
LINE
8
BLACK
6
CONTINUOUS
10
4.85713
20
-3.44057
11
4.85654
21
-3.43756
0
LINE
8
BLACK
6
CONTINUOUS
10
4.85654
20
-3.43756
11
4.85654
21
-3.37756
0
LINE
8
BLACK
6
CONTINUOUS
10
4.85654
20
-3.37756
11
4.85713
21
-3.37455
0
LINE
8
BLACK
6
CONTINUOUS
10
4.85713
20
-3.37455
11
4.85884
21
-3.37199
0
LINE
8
BLACK
6
CONTINUOUS
10
4.85884
20
-3.37199
11
4.8614
21
-3.37028
0
LINE
8
BLACK
6
CONTINUOUS
10
4.8614
20
-3.37028
11
4.86441
21
-3.36969
0
LINE
8
BLACK
6
CONTINUOUS
10
4.86441
20
-3.36969
11
4.92441
21
-3.36969
0
LINE
8
BLACK
6
CONTINUOUS
10
4.92441
20
-3.36969
11
4.92742
21
-3.37028
0
LINE
8
BLACK
6
CONTINUOUS
10
5.02742
20
-3.37028
11
5.02998
21
-3.37199
0
LINE
8
BLACK
6
CONTINUOUS
10
5.02998
20
-3.37199
11
5.03168
21
-3.37455
0
LINE
8
BLACK
6
CONTINUOUS
10
5.03168
20
-3.37455
11
5.03228
21
-3.37756
0
LINE
8
BLACK
6
CONTINUOUS
10
5.03228
20
-3.37756
11
5.03228
21
-3.43756
0
LINE
8
BLACK
6
CONTINUOUS
10
5.03228
20
-3.43756
11
5.03168
21
-3.44057
0
LINE
8
BLACK
6
CONTINUOUS
10
5.03168
20
-3.44057
11
5.02998
21
-3.44313
0
LINE
8
BLACK
6
CONTINUOUS
10
5.02998
20
-3.44313
11
5.02742
21
-3.44483
0
LINE
8
BLACK
6
CONTINUOUS
10
5.02742
20
-3.44483
11
5.02441
21
-3.44543
0
LINE
8
BLACK
6
CONTINUOUS
10
5.02441
20
-3.44543
11
4.96441
21
-3.44543
0
LINE
8
BLACK
6
CONTINUOUS
10
4.96441
20
-3.44543
11
4.9614
21
-3.44483
0
LINE
8
BLACK
6
CONTINUOUS
10
4.9614
20
-3.44483
11
4.95884
21
-3.44313
0
LINE
8
BLACK
6
CONTINUOUS
10
4.95884
20
-3.44313
11
4.95713
21
-3.44057
0
LINE
8
BLACK
6
CONTINUOUS
10
4.95713
20
-3.44057
11
4.95654
21
-3.43756
0
LINE
8
BLACK
6
CONTINUOUS
10
4.95654
20
-3.43756
11
4.95654
21
-3.37756
0
LINE
8
BLACK
6
CONTINUOUS
10
4.95654
20
-3.37756
11
4.95713
21
-3.37455
0
LINE
8
BLACK
6
CONTINUOUS
10
4.95713
20
-3.37455
11
4.95884
21
-3.37199
0
LINE
8
BLACK
6
CONTINUOUS
10
4.95884
20
-3.37199
11
4.9614
21
-3.37028
0
LINE
8
BLACK
6
CONTINUOUS
10
4.9614
20
-3.37028
11
4.96441
21
-3.36969
0
LINE
8
BLACK
6
CONTINUOUS
10
4.96441
20
-3.36969
11
5.02441
21
-3.36969
0
LINE
8
BLACK
6
CONTINUOUS
10
5.02441
20
-3.36969
11
5.02742
21
-3.37028
0
LINE
8
BLACK
6
CONTINUOUS
10
6.12742
20
-3.36028
11
6.12998
21
-3.36199
0
LINE
8
BLACK
6
CONTINUOUS
10
6.12998
20
-3.36199
11
6.13168
21
-3.36455
0
LINE
8
BLACK
6
CONTINUOUS
10
6.13168
20
-3.36455
11
6.13228
21
-3.36756
0
LINE
8
BLACK
6
CONTINUOUS
10
6.13228
20
-3.36756
11
6.13228
21
-3.42756
0
LINE
8
BLACK
6
CONTINUOUS
10
6.13228
20
-3.42756
11
6.13168
21
-3.43057
0
LINE
8
BLACK
6
CONTINUOUS
10
6.13168
20
-3.43057
11
6.12998
21
-3.43313
0
LINE
8
BLACK
6
CONTINUOUS
10
6.12998
20
-3.43313
11
6.12742
21
-3.43483
0
LINE
8
BLACK
6
CONTINUOUS
10
6.12742
20
-3.43483
11
6.12441
21
-3.43543
0
LINE
8
BLACK
6
CONTINUOUS
10
6.12441
20
-3.43543
11
6.06441
21
-3.43543
0
LINE
8
BLACK
6
CONTINUOUS
10
6.06441
20
-3.43543
11
6.0614
21
-3.43483
0
LINE
8
BLACK
6
CONTINUOUS
10
6.0614
20
-3.43483
11
6.05884
21
-3.43313
0
LINE
8
BLACK
6
CONTINUOUS
10
6.05884
20
-3.43313
11
6.05713
21
-3.43057
0
LINE
8
BLACK
6
CONTINUOUS
10
6.05713
20
-3.43057
11
6.05654
21
-3.42756
0
LINE
8
BLACK
6
CONTINUOUS
10
6.05654
20
-3.42756
11
6.05654
21
-3.36756
0
LINE
8
BLACK
6
CONTINUOUS
10
6.05654
20
-3.36756
11
6.05713
21
-3.36455
0
LINE
8
BLACK
6
CONTINUOUS
10
6.05713
20
-3.36455
11
6.05884
21
-3.36199
0
LINE
8
BLACK
6
CONTINUOUS
10
6.05884
20
-3.36199
11
6.0614
21
-3.36028
0
LINE
8
BLACK
6
CONTINUOUS
10
6.0614
20
-3.36028
11
6.06441
21
-3.35969
0
LINE
8
BLACK
6
CONTINUOUS
10
6.06441
20
-3.35969
11
6.12441
21
-3.35969
0
LINE
8
BLACK
6
CONTINUOUS
10
6.12441
20
-3.35969
11
6.12742
21
-3.36028
0
LINE
8
BLACK
6
CONTINUOUS
10
6.22742
20
-3.36028
11
6.22998
21
-3.36199
0
LINE
8
BLACK
6
CONTINUOUS
10
6.22998
20
-3.36199
11
6.23168
21
-3.36455
0
LINE
8
BLACK
6
CONTINUOUS
10
6.23168
20
-3.36455
11
6.23228
21
-3.36756
0
LINE
8
BLACK
6
CONTINUOUS
10
6.23228
20
-3.36756
11
6.23228
21
-3.42756
0
LINE
8
BLACK
6
CONTINUOUS
10
6.23228
20
-3.42756
11
6.23168
21
-3.43057
0
LINE
8
BLACK
6
CONTINUOUS
10
6.23168
20
-3.43057
11
6.22998
21
-3.43313
0
LINE
8
BLACK
6
CONTINUOUS
10
6.22998
20
-3.43313
11
6.22742
21
-3.43483
0
LINE
8
BLACK
6
CONTINUOUS
10
6.22742
20
-3.43483
11
6.22441
21
-3.43543
0
LINE
8
BLACK
6
CONTINUOUS
10
6.22441
20
-3.43543
11
6.16441
21
-3.43543
0
LINE
8
BLACK
6
CONTINUOUS
10
6.16441
20
-3.43543
11
6.1614
21
-3.43483
0
LINE
8
BLACK
6
CONTINUOUS
10
6.1614
20
-3.43483
11
6.15884
21
-3.43313
0
LINE
8
BLACK
6
CONTINUOUS
10
6.15884
20
-3.43313
11
6.15713
21
-3.43057
0
LINE
8
BLACK
6
CONTINUOUS
10
6.15713
20
-3.43057
11
6.15654
21
-3.42756
0
LINE
8
BLACK
6
CONTINUOUS
10
6.15654
20
-3.42756
11
6.15654
21
-3.36756
0
LINE
8
BLACK
6
CONTINUOUS
10
6.15654
20
-3.36756
11
6.15713
21
-3.36455
0
LINE
8
BLACK
6
CONTINUOUS
10
6.15713
20
-3.36455
11
6.15884
21
-3.36199
0
LINE
8
BLACK
6
CONTINUOUS
10
6.15884
20
-3.36199
11
6.1614
21
-3.36028
0
LINE
8
BLACK
6
CONTINUOUS
10
6.1614
20
-3.36028
11
6.16441
21
-3.35969
0
LINE
8
BLACK
6
CONTINUOUS
10
6.16441
20
-3.35969
11
6.22441
21
-3.35969
0
LINE
8
BLACK
6
CONTINUOUS
10
6.22441
20
-3.35969
11
6.22742
21
-3.36028
0
LINE
8
BLACK
6
CONTINUOUS
10
5.12301
20
-3.3865
11
5.12557
21
-3.38821
0
LINE
8
BLACK
6
CONTINUOUS
10
5.12557
20
-3.38821
11
5.12727
21
-3.39077
0
LINE
8
BLACK
6
CONTINUOUS
10
5.12727
20
-3.39077
11
5.12787
21
-3.39378
0
LINE
8
BLACK
6
CONTINUOUS
10
5.12787
20
-3.39378
11
5.12787
21
-3.42134
0
LINE
8
BLACK
6
CONTINUOUS
10
5.12787
20
-3.42134
11
5.12727
21
-3.42435
0
LINE
8
BLACK
6
CONTINUOUS
10
5.12727
20
-3.42435
11
5.12557
21
-3.42691
0
LINE
8
BLACK
6
CONTINUOUS
10
5.12557
20
-3.42691
11
5.12301
21
-3.42861
0
LINE
8
BLACK
6
CONTINUOUS
10
5.12301
20
-3.42861
11
5.12
21
-3.42921
0
LINE
8
BLACK
6
CONTINUOUS
10
5.12
20
-3.42921
11
5.06882
21
-3.42921
0
LINE
8
BLACK
6
CONTINUOUS
10
5.06882
20
-3.42921
11
5.06581
21
-3.42861
0
LINE
8
BLACK
6
CONTINUOUS
10
5.06581
20
-3.42861
11
5.06325
21
-3.42691
0
LINE
8
BLACK
6
CONTINUOUS
10
5.06325
20
-3.42691
11
5.06154
21
-3.42435
0
LINE
8
BLACK
6
CONTINUOUS
10
5.06154
20
-3.42435
11
5.06094
21
-3.42134
0
LINE
8
BLACK
6
CONTINUOUS
10
5.06094
20
-3.42134
11
5.06094
21
-3.39378
0
LINE
8
BLACK
6
CONTINUOUS
10
5.06094
20
-3.39378
11
5.06154
21
-3.39077
0
LINE
8
BLACK
6
CONTINUOUS
10
5.06154
20
-3.39077
11
5.06325
21
-3.38821
0
LINE
8
BLACK
6
CONTINUOUS
10
5.06325
20
-3.38821
11
5.06581
21
-3.3865
0
LINE
8
BLACK
6
CONTINUOUS
10
5.06581
20
-3.3865
11
5.06882
21
-3.38591
0
LINE
8
BLACK
6
CONTINUOUS
10
5.06882
20
-3.38591
11
5.12
21
-3.38591
0
LINE
8
BLACK
6
CONTINUOUS
10
5.12
20
-3.38591
11
5.12301
21
-3.3865
0
LINE
8
BLACK
6
CONTINUOUS
10
5.78664
20
-3.38347
11
5.78919
21
-3.38518
0
LINE
8
BLACK
6
CONTINUOUS
10
5.78919
20
-3.38518
11
5.7909
21
-3.38773
0
LINE
8
BLACK
6
CONTINUOUS
10
5.7909
20
-3.38773
11
5.7915
21
-3.39075
0
LINE
8
BLACK
6
CONTINUOUS
10
5.7915
20
-3.39075
11
5.7915
21
-3.41437
0
LINE
8
BLACK
6
CONTINUOUS
10
5.7915
20
-3.41437
11
5.7909
21
-3.41738
0
LINE
8
BLACK
6
CONTINUOUS
10
5.7909
20
-3.41738
11
5.78919
21
-3.41994
0
LINE
8
BLACK
6
CONTINUOUS
10
5.78919
20
-3.41994
11
5.78664
21
-3.42164
0
LINE
8
BLACK
6
CONTINUOUS
10
5.78664
20
-3.42164
11
5.78362
21
-3.42224
0
LINE
8
BLACK
6
CONTINUOUS
10
5.78362
20
-3.42224
11
5.7226
21
-3.42224
0
LINE
8
BLACK
6
CONTINUOUS
10
5.7226
20
-3.42224
11
5.71959
21
-3.42164
0
LINE
8
BLACK
6
CONTINUOUS
10
5.71959
20
-3.42164
11
5.71703
21
-3.41994
0
LINE
8
BLACK
6
CONTINUOUS
10
5.71703
20
-3.41994
11
5.71532
21
-3.41738
0
LINE
8
BLACK
6
CONTINUOUS
10
5.71532
20
-3.41738
11
5.71472
21
-3.41437
0
LINE
8
BLACK
6
CONTINUOUS
10
5.71472
20
-3.41437
11
5.71472
21
-3.39075
0
LINE
8
BLACK
6
CONTINUOUS
10
5.71472
20
-3.39075
11
5.71532
21
-3.38773
0
LINE
8
BLACK
6
CONTINUOUS
10
5.71532
20
-3.38773
11
5.71703
21
-3.38518
0
LINE
8
BLACK
6
CONTINUOUS
10
5.71703
20
-3.38518
11
5.71959
21
-3.38347
0
LINE
8
BLACK
6
CONTINUOUS
10
5.71959
20
-3.38347
11
5.7226
21
-3.38287
0
LINE
8
BLACK
6
CONTINUOUS
10
5.7226
20
-3.38287
11
5.78362
21
-3.38287
0
LINE
8
BLACK
6
CONTINUOUS
10
5.78362
20
-3.38287
11
5.78664
21
-3.38347
0
LINE
8
BLACK
6
CONTINUOUS
10
5.99923
20
-3.38347
11
6.00179
21
-3.38518
0
LINE
8
BLACK
6
CONTINUOUS
10
6.00179
20
-3.38518
11
6.0035
21
-3.38773
0
LINE
8
BLACK
6
CONTINUOUS
10
6.0035
20
-3.38773
11
6.00409
21
-3.39075
0
LINE
8
BLACK
6
CONTINUOUS
10
6.00409
20
-3.39075
11
6.00409
21
-3.41437
0
LINE
8
BLACK
6
CONTINUOUS
10
6.00409
20
-3.41437
11
6.0035
21
-3.41738
0
LINE
8
BLACK
6
CONTINUOUS
10
6.0035
20
-3.41738
11
6.00179
21
-3.41994
0
LINE
8
BLACK
6
CONTINUOUS
10
6.00179
20
-3.41994
11
5.99923
21
-3.42164
0
LINE
8
BLACK
6
CONTINUOUS
10
5.99923
20
-3.42164
11
5.99622
21
-3.42224
0
LINE
8
BLACK
6
CONTINUOUS
10
5.99622
20
-3.42224
11
5.9352
21
-3.42224
0
LINE
8
BLACK
6
CONTINUOUS
10
5.9352
20
-3.42224
11
5.93218
21
-3.42164
0
LINE
8
BLACK
6
CONTINUOUS
10
5.93218
20
-3.42164
11
5.92963
21
-3.41994
0
LINE
8
BLACK
6
CONTINUOUS
10
5.92963
20
-3.41994
11
5.92792
21
-3.41738
0
LINE
8
BLACK
6
CONTINUOUS
10
5.92792
20
-3.41738
11
5.92732
21
-3.41437
0
LINE
8
BLACK
6
CONTINUOUS
10
5.92732
20
-3.41437
11
5.92732
21
-3.39075
0
LINE
8
BLACK
6
CONTINUOUS
10
5.92732
20
-3.39075
11
5.92792
21
-3.38773
0
LINE
8
BLACK
6
CONTINUOUS
10
5.92792
20
-3.38773
11
5.92963
21
-3.38518
0
LINE
8
BLACK
6
CONTINUOUS
10
5.92963
20
-3.38518
11
5.93218
21
-3.38347
0
LINE
8
BLACK
6
CONTINUOUS
10
5.93218
20
-3.38347
11
5.9352
21
-3.38287
0
LINE
8
BLACK
6
CONTINUOUS
10
5.9352
20
-3.38287
11
5.99622
21
-3.38287
0
LINE
8
BLACK
6
CONTINUOUS
10
5.99622
20
-3.38287
11
5.99923
21
-3.38347
0
LINE
8
BLACK
6
CONTINUOUS
10
5.96203
20
-3.29997
11
5.96458
21
-3.30168
0
LINE
8
BLACK
6
CONTINUOUS
10
5.96458
20
-3.30168
11
5.96629
21
-3.30423
0
LINE
8
BLACK
6
CONTINUOUS
10
5.96629
20
-3.30423
11
5.96689
21
-3.30724
0
LINE
8
BLACK
6
CONTINUOUS
10
5.96689
20
-3.30724
11
5.96689
21
-3.34661
0
LINE
8
BLACK
6
CONTINUOUS
10
5.96689
20
-3.34661
11
5.96629
21
-3.34963
0
LINE
8
BLACK
6
CONTINUOUS
10
5.96629
20
-3.34963
11
5.96458
21
-3.35218
0
LINE
8
BLACK
6
CONTINUOUS
10
5.96458
20
-3.35218
11
5.96203
21
-3.35389
0
LINE
8
BLACK
6
CONTINUOUS
10
5.96203
20
-3.35389
11
5.95902
21
-3.35449
0
LINE
8
BLACK
6
CONTINUOUS
10
5.95902
20
-3.35449
11
5.9098
21
-3.35449
0
LINE
8
BLACK
6
CONTINUOUS
10
5.9098
20
-3.35449
11
5.90679
21
-3.35389
0
LINE
8
BLACK
6
CONTINUOUS
10
5.90679
20
-3.35389
11
5.90424
21
-3.35218
0
LINE
8
BLACK
6
CONTINUOUS
10
5.90424
20
-3.35218
11
5.90253
21
-3.34963
0
LINE
8
BLACK
6
CONTINUOUS
10
5.90253
20
-3.34963
11
5.90193
21
-3.34661
0
LINE
8
BLACK
6
CONTINUOUS
10
5.90193
20
-3.34661
11
5.90193
21
-3.30724
0
LINE
8
BLACK
6
CONTINUOUS
10
5.90193
20
-3.30724
11
5.90253
21
-3.30423
0
LINE
8
BLACK
6
CONTINUOUS
10
5.90253
20
-3.30423
11
5.90424
21
-3.30168
0
LINE
8
BLACK
6
CONTINUOUS
10
5.90424
20
-3.30168
11
5.90679
21
-3.29997
0
LINE
8
BLACK
6
CONTINUOUS
10
5.90679
20
-3.29997
11
5.9098
21
-3.29937
0
LINE
8
BLACK
6
CONTINUOUS
10
5.9098
20
-3.29937
11
5.95902
21
-3.29937
0
LINE
8
BLACK
6
CONTINUOUS
10
5.95902
20
-3.29937
11
5.96203
21
-3.29997
0
LINE
8
BLACK
6
CONTINUOUS
10
5.12301
20
-3.3117
11
5.12557
21
-3.31341
0
LINE
8
BLACK
6
CONTINUOUS
10
5.12557
20
-3.31341
11
5.12727
21
-3.31596
0
LINE
8
BLACK
6
CONTINUOUS
10
5.12727
20
-3.31596
11
5.12787
21
-3.31898
0
LINE
8
BLACK
6
CONTINUOUS
10
5.12787
20
-3.31898
11
5.12787
21
-3.34654
0
LINE
8
BLACK
6
CONTINUOUS
10
5.12787
20
-3.34654
11
5.12727
21
-3.34955
0
LINE
8
BLACK
6
CONTINUOUS
10
5.12727
20
-3.34955
11
5.12557
21
-3.3521
0
LINE
8
BLACK
6
CONTINUOUS
10
5.12557
20
-3.3521
11
5.12301
21
-3.35381
0
LINE
8
BLACK
6
CONTINUOUS
10
5.12301
20
-3.35381
11
5.12
21
-3.35441
0
LINE
8
BLACK
6
CONTINUOUS
10
5.12
20
-3.35441
11
5.06882
21
-3.35441
0
LINE
8
BLACK
6
CONTINUOUS
10
5.06882
20
-3.35441
11
5.06581
21
-3.35381
0
LINE
8
BLACK
6
CONTINUOUS
10
5.06581
20
-3.35381
11
5.06325
21
-3.3521
0
LINE
8
BLACK
6
CONTINUOUS
10
5.06325
20
-3.3521
11
5.06154
21
-3.34955
0
LINE
8
BLACK
6
CONTINUOUS
10
5.06154
20
-3.34955
11
5.06094
21
-3.34654
0
LINE
8
BLACK
6
CONTINUOUS
10
5.06094
20
-3.34654
11
5.06094
21
-3.31898
0
LINE
8
BLACK
6
CONTINUOUS
10
5.06094
20
-3.31898
11
5.06154
21
-3.31596
0
LINE
8
BLACK
6
CONTINUOUS
10
5.06154
20
-3.31596
11
5.06325
21
-3.31341
0
LINE
8
BLACK
6
CONTINUOUS
10
5.06325
20
-3.31341
11
5.06581
21
-3.3117
0
LINE
8
BLACK
6
CONTINUOUS
10
5.06581
20
-3.3117
11
5.06882
21
-3.3111
0
LINE
8
BLACK
6
CONTINUOUS
10
5.06882
20
-3.3111
11
5.12
21
-3.3111
0
LINE
8
BLACK
6
CONTINUOUS
10
5.12
20
-3.3111
11
5.12301
21
-3.3117
0
LINE
8
BLACK
6
CONTINUOUS
10
5.76038
20
-3.23639
11
5.76293
21
-3.23809
0
LINE
8
BLACK
6
CONTINUOUS
10
5.76293
20
-3.23809
11
5.76464
21
-3.24065
0
LINE
8
BLACK
6
CONTINUOUS
10
5.76464
20
-3.24065
11
5.76524
21
-3.24366
0
LINE
8
BLACK
6
CONTINUOUS
10
5.76524
20
-3.24366
11
5.76524
21
-3.33146
0
LINE
8
BLACK
6
CONTINUOUS
10
5.76524
20
-3.33146
11
5.76464
21
-3.33447
0
LINE
8
BLACK
6
CONTINUOUS
10
5.76464
20
-3.33447
11
5.76293
21
-3.33702
0
LINE
8
BLACK
6
CONTINUOUS
10
5.76293
20
-3.33702
11
5.76038
21
-3.33873
0
LINE
8
BLACK
6
CONTINUOUS
10
5.76038
20
-3.33873
11
5.75736
21
-3.33933
0
LINE
8
BLACK
6
CONTINUOUS
10
5.75736
20
-3.33933
11
5.6865
21
-3.33933
0
LINE
8
BLACK
6
CONTINUOUS
10
5.6865
20
-3.33933
11
5.68348
21
-3.33873
0
LINE
8
BLACK
6
CONTINUOUS
10
5.68348
20
-3.33873
11
5.68093
21
-3.33702
0
LINE
8
BLACK
6
CONTINUOUS
10
5.68093
20
-3.33702
11
5.67922
21
-3.33447
0
LINE
8
BLACK
6
CONTINUOUS
10
5.67922
20
-3.33447
11
5.67862
21
-3.33146
0
LINE
8
BLACK
6
CONTINUOUS
10
5.67862
20
-3.33146
11
5.67862
21
-3.24366
0
LINE
8
BLACK
6
CONTINUOUS
10
5.67862
20
-3.24366
11
5.67922
21
-3.24065
0
LINE
8
BLACK
6
CONTINUOUS
10
5.67922
20
-3.24065
11
5.68093
21
-3.23809
0
LINE
8
BLACK
6
CONTINUOUS
10
5.68093
20
-3.23809
11
5.68348
21
-3.23639
0
LINE
8
BLACK
6
CONTINUOUS
10
5.68348
20
-3.23639
11
5.6865
21
-3.23579
0
LINE
8
BLACK
6
CONTINUOUS
10
5.6865
20
-3.23579
11
5.75736
21
-3.23579
0
LINE
8
BLACK
6
CONTINUOUS
10
5.75736
20
-3.23579
11
5.76038
21
-3.23639
0
LINE
8
BLACK
6
CONTINUOUS
10
5.87534
20
-3.23639
11
5.87789
21
-3.23809
0
LINE
8
BLACK
6
CONTINUOUS
10
5.87789
20
-3.23809
11
5.8796
21
-3.24065
0
LINE
8
BLACK
6
CONTINUOUS
10
5.8796
20
-3.24065
11
5.8802
21
-3.24366
0
LINE
8
BLACK
6
CONTINUOUS
10
5.8802
20
-3.24366
11
5.8802
21
-3.33146
0
LINE
8
BLACK
6
CONTINUOUS
10
5.8802
20
-3.33146
11
5.8796
21
-3.33447
0
LINE
8
BLACK
6
CONTINUOUS
10
5.8796
20
-3.33447
11
5.87789
21
-3.33702
0
LINE
8
BLACK
6
CONTINUOUS
10
5.87789
20
-3.33702
11
5.87534
21
-3.33873
0
LINE
8
BLACK
6
CONTINUOUS
10
5.87534
20
-3.33873
11
5.87232
21
-3.33933
0
LINE
8
BLACK
6
CONTINUOUS
10
5.87232
20
-3.33933
11
5.80146
21
-3.33933
0
LINE
8
BLACK
6
CONTINUOUS
10
5.80146
20
-3.33933
11
5.79844
21
-3.33873
0
LINE
8
BLACK
6
CONTINUOUS
10
5.79844
20
-3.33873
11
5.79589
21
-3.33702
0
LINE
8
BLACK
6
CONTINUOUS
10
5.79589
20
-3.33702
11
5.79418
21
-3.33447
0
LINE
8
BLACK
6
CONTINUOUS
10
5.79418
20
-3.33447
11
5.79358
21
-3.33146
0
LINE
8
BLACK
6
CONTINUOUS
10
5.79358
20
-3.33146
11
5.79358
21
-3.24366
0
LINE
8
BLACK
6
CONTINUOUS
10
5.79358
20
-3.24366
11
5.79418
21
-3.24065
0
LINE
8
BLACK
6
CONTINUOUS
10
5.79418
20
-3.24065
11
5.79589
21
-3.23809
0
LINE
8
BLACK
6
CONTINUOUS
10
5.79589
20
-3.23809
11
5.79844
21
-3.23639
0
LINE
8
BLACK
6
CONTINUOUS
10
5.79844
20
-3.23639
11
5.80146
21
-3.23579
0
LINE
8
BLACK
6
CONTINUOUS
10
5.80146
20
-3.23579
11
5.87232
21
-3.23579
0
LINE
8
BLACK
6
CONTINUOUS
10
5.87232
20
-3.23579
11
5.87534
21
-3.23639
0
LINE
8
BLACK
6
CONTINUOUS
10
5.56083
20
-3.23312
11
5.56338
21
-3.23483
0
LINE
8
BLACK
6
CONTINUOUS
10
5.56338
20
-3.23483
11
5.56509
21
-3.23738
0
LINE
8
BLACK
6
CONTINUOUS
10
5.56509
20
-3.23738
11
5.56569
21
-3.24039
0
LINE
8
BLACK
6
CONTINUOUS
10
5.56569
20
-3.24039
11
5.56569
21
-3.28961
0
LINE
8
BLACK
6
CONTINUOUS
10
5.56569
20
-3.28961
11
5.56509
21
-3.29262
0
LINE
8
BLACK
6
CONTINUOUS
10
5.56509
20
-3.29262
11
5.56338
21
-3.29517
0
LINE
8
BLACK
6
CONTINUOUS
10
5.56338
20
-3.29517
11
5.56083
21
-3.29688
0
LINE
8
BLACK
6
CONTINUOUS
10
5.56083
20
-3.29688
11
5.55781
21
-3.29748
0
LINE
8
BLACK
6
CONTINUOUS
10
5.55781
20
-3.29748
11
5.51844
21
-3.29748
0
LINE
8
BLACK
6
CONTINUOUS
10
5.51844
20
-3.29748
11
5.51543
21
-3.29688
0
LINE
8
BLACK
6
CONTINUOUS
10
5.51543
20
-3.29688
11
5.51288
21
-3.29517
0
LINE
8
BLACK
6
CONTINUOUS
10
5.51288
20
-3.29517
11
5.51117
21
-3.29262
0
LINE
8
BLACK
6
CONTINUOUS
10
5.51117
20
-3.29262
11
5.51057
21
-3.28961
0
LINE
8
BLACK
6
CONTINUOUS
10
5.51057
20
-3.28961
11
5.51057
21
-3.24039
0
LINE
8
BLACK
6
CONTINUOUS
10
5.51057
20
-3.24039
11
5.51117
21
-3.23738
0
LINE
8
BLACK
6
CONTINUOUS
10
5.51117
20
-3.23738
11
5.51288
21
-3.23483
0
LINE
8
BLACK
6
CONTINUOUS
10
5.51288
20
-3.23483
11
5.51543
21
-3.23312
0
LINE
8
BLACK
6
CONTINUOUS
10
5.51543
20
-3.23312
11
5.51844
21
-3.23252
0
LINE
8
BLACK
6
CONTINUOUS
10
5.51844
20
-3.23252
11
5.55781
21
-3.23252
0
LINE
8
BLACK
6
CONTINUOUS
10
5.55781
20
-3.23252
11
5.56083
21
-3.23312
0
LINE
8
BLACK
6
CONTINUOUS
10
5.63957
20
-3.23312
11
5.64212
21
-3.23483
0
LINE
8
BLACK
6
CONTINUOUS
10
5.64212
20
-3.23483
11
5.64383
21
-3.23738
0
LINE
8
BLACK
6
CONTINUOUS
10
5.64383
20
-3.23738
11
5.64443
21
-3.24039
0
LINE
8
BLACK
6
CONTINUOUS
10
5.64443
20
-3.24039
11
5.64443
21
-3.28961
0
LINE
8
BLACK
6
CONTINUOUS
10
5.64443
20
-3.28961
11
5.64383
21
-3.29262
0
LINE
8
BLACK
6
CONTINUOUS
10
5.64383
20
-3.29262
11
5.64212
21
-3.29517
0
LINE
8
BLACK
6
CONTINUOUS
10
5.64212
20
-3.29517
11
5.63957
21
-3.29688
0
LINE
8
BLACK
6
CONTINUOUS
10
5.63957
20
-3.29688
11
5.63656
21
-3.29748
0
LINE
8
BLACK
6
CONTINUOUS
10
5.63656
20
-3.29748
11
5.59719
21
-3.29748
0
LINE
8
BLACK
6
CONTINUOUS
10
5.59719
20
-3.29748
11
5.59417
21
-3.29688
0
LINE
8
BLACK
6
CONTINUOUS
10
5.59417
20
-3.29688
11
5.59162
21
-3.29517
0
LINE
8
BLACK
6
CONTINUOUS
10
5.59162
20
-3.29517
11
5.58991
21
-3.29262
0
LINE
8
BLACK
6
CONTINUOUS
10
5.58991
20
-3.29262
11
5.58931
21
-3.28961
0
LINE
8
BLACK
6
CONTINUOUS
10
5.58931
20
-3.28961
11
5.58931
21
-3.24039
0
LINE
8
BLACK
6
CONTINUOUS
10
5.58931
20
-3.24039
11
5.58991
21
-3.23738
0
LINE
8
BLACK
6
CONTINUOUS
10
5.58991
20
-3.23738
11
5.59162
21
-3.23483
0
LINE
8
BLACK
6
CONTINUOUS
10
5.59162
20
-3.23483
11
5.59417
21
-3.23312
0
LINE
8
BLACK
6
CONTINUOUS
10
5.59417
20
-3.23312
11
5.59719
21
-3.23252
0
LINE
8
BLACK
6
CONTINUOUS
10
5.59719
20
-3.23252
11
5.63656
21
-3.23252
0
LINE
8
BLACK
6
CONTINUOUS
10
5.63656
20
-3.23252
11
5.63957
21
-3.23312
0
LINE
8
BLACK
6
CONTINUOUS
10
5.96203
20
-3.22123
11
5.96458
21
-3.22294
0
LINE
8
BLACK
6
CONTINUOUS
10
5.96458
20
-3.22294
11
5.96629
21
-3.22549
0
LINE
8
BLACK
6
CONTINUOUS
10
5.96629
20
-3.22549
11
5.96689
21
-3.2285
0
LINE
8
BLACK
6
CONTINUOUS
10
5.96689
20
-3.2285
11
5.96689
21
-3.26787
0
LINE
8
BLACK
6
CONTINUOUS
10
5.96689
20
-3.26787
11
5.96629
21
-3.27089
0
LINE
8
BLACK
6
CONTINUOUS
10
5.96629
20
-3.27089
11
5.96458
21
-3.27344
0
LINE
8
BLACK
6
CONTINUOUS
10
5.96458
20
-3.27344
11
5.96203
21
-3.27515
0
LINE
8
BLACK
6
CONTINUOUS
10
5.96203
20
-3.27515
11
5.95902
21
-3.27575
0
LINE
8
BLACK
6
CONTINUOUS
10
5.95902
20
-3.27575
11
5.9098
21
-3.27575
0
LINE
8
BLACK
6
CONTINUOUS
10
5.9098
20
-3.27575
11
5.90679
21
-3.27515
0
LINE
8
BLACK
6
CONTINUOUS
10
5.90679
20
-3.27515
11
5.90424
21
-3.27344
0
LINE
8
BLACK
6
CONTINUOUS
10
5.90424
20
-3.27344
11
5.90253
21
-3.27089
0
LINE
8
BLACK
6
CONTINUOUS
10
5.90253
20
-3.27089
11
5.90193
21
-3.26787
0
LINE
8
BLACK
6
CONTINUOUS
10
5.90193
20
-3.26787
11
5.90193
21
-3.2285
0
LINE
8
BLACK
6
CONTINUOUS
10
5.90193
20
-3.2285
11
5.90253
21
-3.22549
0
LINE
8
BLACK
6
CONTINUOUS
10
5.90253
20
-3.22549
11
5.90424
21
-3.22294
0
LINE
8
BLACK
6
CONTINUOUS
10
5.90424
20
-3.22294
11
5.90679
21
-3.22123
0
LINE
8
BLACK
6
CONTINUOUS
10
5.90679
20
-3.22123
11
5.9098
21
-3.22063
0
LINE
8
BLACK
6
CONTINUOUS
10
5.9098
20
-3.22063
11
5.95902
21
-3.22063
0
LINE
8
BLACK
6
CONTINUOUS
10
5.95902
20
-3.22063
11
5.96203
21
-3.22123
0
LINE
8
BLACK
6
CONTINUOUS
10
4.93852
20
-3.00237
11
4.95244
21
-3.00473
0
LINE
8
BLACK
6
CONTINUOUS
10
4.95244
20
-3.00473
11
4.96602
21
-3.00864
0
LINE
8
BLACK
6
CONTINUOUS
10
4.96602
20
-3.00864
11
4.97907
21
-3.01405
0
LINE
8
BLACK
6
CONTINUOUS
10
4.97907
20
-3.01405
11
4.99144
21
-3.02089
0
LINE
8
BLACK
6
CONTINUOUS
10
4.99144
20
-3.02089
11
5.00296
21
-3.02906
0
LINE
8
BLACK
6
CONTINUOUS
10
5.00296
20
-3.02906
11
5.01349
21
-3.03847
0
LINE
8
BLACK
6
CONTINUOUS
10
5.01349
20
-3.03847
11
5.02291
21
-3.04901
0
LINE
8
BLACK
6
CONTINUOUS
10
5.02291
20
-3.04901
11
5.03108
21
-3.06053
0
LINE
8
BLACK
6
CONTINUOUS
10
5.03108
20
-3.06053
11
5.03792
21
-3.0729
0
LINE
8
BLACK
6
CONTINUOUS
10
5.03792
20
-3.0729
11
5.04332
21
-3.08595
0
LINE
8
BLACK
6
CONTINUOUS
10
5.04332
20
-3.08595
11
5.04723
21
-3.09952
0
LINE
8
BLACK
6
CONTINUOUS
10
5.04723
20
-3.09952
11
5.0496
21
-3.11345
0
LINE
8
BLACK
6
CONTINUOUS
10
5.0496
20
-3.11345
11
5.05039
21
-3.12756
0
LINE
8
BLACK
6
CONTINUOUS
10
5.05039
20
-3.12756
11
5.0496
21
-3.14166
0
LINE
8
BLACK
6
CONTINUOUS
10
5.0496
20
-3.14166
11
5.04723
21
-3.15559
0
LINE
8
BLACK
6
CONTINUOUS
10
5.04723
20
-3.15559
11
5.04332
21
-3.16917
0
LINE
8
BLACK
6
CONTINUOUS
10
5.04332
20
-3.16917
11
5.03792
21
-3.18222
0
LINE
8
BLACK
6
CONTINUOUS
10
5.03792
20
-3.18222
11
5.03108
21
-3.19459
0
LINE
8
BLACK
6
CONTINUOUS
10
5.03108
20
-3.19459
11
5.02291
21
-3.20611
0
LINE
8
BLACK
6
CONTINUOUS
10
5.02291
20
-3.20611
11
5.01349
21
-3.21664
0
LINE
8
BLACK
6
CONTINUOUS
10
5.01349
20
-3.21664
11
5.00296
21
-3.22606
0
LINE
8
BLACK
6
CONTINUOUS
10
5.00296
20
-3.22606
11
4.99144
21
-3.23423
0
LINE
8
BLACK
6
CONTINUOUS
10
4.99144
20
-3.23423
11
4.97907
21
-3.24107
0
LINE
8
BLACK
6
CONTINUOUS
10
4.97907
20
-3.24107
11
4.96602
21
-3.24647
0
LINE
8
BLACK
6
CONTINUOUS
10
4.96602
20
-3.24647
11
4.95244
21
-3.25038
0
LINE
8
BLACK
6
CONTINUOUS
10
4.95244
20
-3.25038
11
4.93852
21
-3.25275
0
LINE
8
BLACK
6
CONTINUOUS
10
4.93852
20
-3.25275
11
4.92441
21
-3.25354
0
LINE
8
BLACK
6
CONTINUOUS
10
4.92441
20
-3.25354
11
4.9103
21
-3.25275
0
LINE
8
BLACK
6
CONTINUOUS
10
4.9103
20
-3.25275
11
4.89638
21
-3.25038
0
LINE
8
BLACK
6
CONTINUOUS
10
4.89638
20
-3.25038
11
4.8828
21
-3.24647
0
LINE
8
BLACK
6
CONTINUOUS
10
4.8828
20
-3.24647
11
4.86975
21
-3.24107
0
LINE
8
BLACK
6
CONTINUOUS
10
4.86975
20
-3.24107
11
4.85738
21
-3.23423
0
LINE
8
BLACK
6
CONTINUOUS
10
4.85738
20
-3.23423
11
4.84586
21
-3.22606
0
LINE
8
BLACK
6
CONTINUOUS
10
4.84586
20
-3.22606
11
4.83533
21
-3.21664
0
LINE
8
BLACK
6
CONTINUOUS
10
4.83533
20
-3.21664
11
4.82591
21
-3.20611
0
LINE
8
BLACK
6
CONTINUOUS
10
4.82591
20
-3.20611
11
4.81774
21
-3.19459
0
LINE
8
BLACK
6
CONTINUOUS
10
4.81774
20
-3.19459
11
4.8109
21
-3.18222
0
LINE
8
BLACK
6
CONTINUOUS
10
4.8109
20
-3.18222
11
4.80549
21
-3.16917
0
LINE
8
BLACK
6
CONTINUOUS
10
4.80549
20
-3.16917
11
4.80158
21
-3.15559
0
LINE
8
BLACK
6
CONTINUOUS
10
4.80158
20
-3.15559
11
4.79922
21
-3.14166
0
LINE
8
BLACK
6
CONTINUOUS
10
4.79922
20
-3.14166
11
4.79843
21
-3.12756
0
LINE
8
BLACK
6
CONTINUOUS
10
4.79843
20
-3.12756
11
4.79922
21
-3.11345
0
LINE
8
BLACK
6
CONTINUOUS
10
4.79922
20
-3.11345
11
4.80158
21
-3.09952
0
LINE
8
BLACK
6
CONTINUOUS
10
4.80158
20
-3.09952
11
4.80549
21
-3.08595
0
LINE
8
BLACK
6
CONTINUOUS
10
4.80549
20
-3.08595
11
4.8109
21
-3.0729
0
LINE
8
BLACK
6
CONTINUOUS
10
4.8109
20
-3.0729
11
4.81774
21
-3.06053
0
LINE
8
BLACK
6
CONTINUOUS
10
4.81774
20
-3.06053
11
4.82591
21
-3.04901
0
LINE
8
BLACK
6
CONTINUOUS
10
4.82591
20
-3.04901
11
4.83533
21
-3.03847
0
LINE
8
BLACK
6
CONTINUOUS
10
4.83533
20
-3.03847
11
4.84586
21
-3.02906
0
LINE
8
BLACK
6
CONTINUOUS
10
4.84586
20
-3.02906
11
4.85738
21
-3.02089
0
LINE
8
BLACK
6
CONTINUOUS
10
4.85738
20
-3.02089
11
4.86975
21
-3.01405
0
LINE
8
BLACK
6
CONTINUOUS
10
4.86975
20
-3.01405
11
4.8828
21
-3.00864
0
LINE
8
BLACK
6
CONTINUOUS
10
4.8828
20
-3.00864
11
4.89638
21
-3.00473
0
LINE
8
BLACK
6
CONTINUOUS
10
4.89638
20
-3.00473
11
4.9103
21
-3.00237
0
LINE
8
BLACK
6
CONTINUOUS
10
4.9103
20
-3.00237
11
4.92441
21
-3.00157
0
LINE
8
BLACK
6
CONTINUOUS
10
4.92441
20
-3.00157
11
4.93852
21
-3.00237
0
LINE
8
BLACK
6
CONTINUOUS
10
6.13852
20
-3.00237
11
6.15244
21
-3.00473
0
LINE
8
BLACK
6
CONTINUOUS
10
6.15244
20
-3.00473
11
6.16602
21
-3.00864
0
LINE
8
BLACK
6
CONTINUOUS
10
6.16602
20
-3.00864
11
6.17907
21
-3.01405
0
LINE
8
BLACK
6
CONTINUOUS
10
6.17907
20
-3.01405
11
6.19144
21
-3.02089
0
LINE
8
BLACK
6
CONTINUOUS
10
6.19144
20
-3.02089
11
6.20296
21
-3.02906
0
LINE
8
BLACK
6
CONTINUOUS
10
6.20296
20
-3.02906
11
6.21349
21
-3.03847
0
LINE
8
BLACK
6
CONTINUOUS
10
6.21349
20
-3.03847
11
6.22291
21
-3.04901
0
LINE
8
BLACK
6
CONTINUOUS
10
6.22291
20
-3.04901
11
6.23108
21
-3.06053
0
LINE
8
BLACK
6
CONTINUOUS
10
6.23108
20
-3.06053
11
6.23792
21
-3.0729
0
LINE
8
BLACK
6
CONTINUOUS
10
6.23792
20
-3.0729
11
6.24332
21
-3.08595
0
LINE
8
BLACK
6
CONTINUOUS
10
6.24332
20
-3.08595
11
6.24723
21
-3.09952
0
LINE
8
BLACK
6
CONTINUOUS
10
6.24723
20
-3.09952
11
6.2496
21
-3.11345
0
LINE
8
BLACK
6
CONTINUOUS
10
6.2496
20
-3.11345
11
6.25039
21
-3.12756
0
LINE
8
BLACK
6
CONTINUOUS
10
6.25039
20
-3.12756
11
6.2496
21
-3.14166
0
LINE
8
BLACK
6
CONTINUOUS
10
6.2496
20
-3.14166
11
6.24723
21
-3.15559
0
LINE
8
BLACK
6
CONTINUOUS
10
6.24723
20
-3.15559
11
6.24332
21
-3.16917
0
LINE
8
BLACK
6
CONTINUOUS
10
6.24332
20
-3.16917
11
6.23792
21
-3.18222
0
LINE
8
BLACK
6
CONTINUOUS
10
6.23792
20
-3.18222
11
6.23108
21
-3.19459
0
LINE
8
BLACK
6
CONTINUOUS
10
6.23108
20
-3.19459
11
6.22291
21
-3.20611
0
LINE
8
BLACK
6
CONTINUOUS
10
6.22291
20
-3.20611
11
6.21349
21
-3.21664
0
LINE
8
BLACK
6
CONTINUOUS
10
6.21349
20
-3.21664
11
6.20296
21
-3.22606
0
LINE
8
BLACK
6
CONTINUOUS
10
6.20296
20
-3.22606
11
6.19144
21
-3.23423
0
LINE
8
BLACK
6
CONTINUOUS
10
6.19144
20
-3.23423
11
6.17907
21
-3.24107
0
LINE
8
BLACK
6
CONTINUOUS
10
6.17907
20
-3.24107
11
6.16602
21
-3.24647
0
LINE
8
BLACK
6
CONTINUOUS
10
6.16602
20
-3.24647
11
6.15244
21
-3.25038
0
LINE
8
BLACK
6
CONTINUOUS
10
6.15244
20
-3.25038
11
6.13852
21
-3.25275
0
LINE
8
BLACK
6
CONTINUOUS
10
6.13852
20
-3.25275
11
6.12441
21
-3.25354
0
LINE
8
BLACK
6
CONTINUOUS
10
6.12441
20
-3.25354
11
6.1103
21
-3.25275
0
LINE
8
BLACK
6
CONTINUOUS
10
6.1103
20
-3.25275
11
6.09638
21
-3.25038
0
LINE
8
BLACK
6
CONTINUOUS
10
6.09638
20
-3.25038
11
6.0828
21
-3.24647
0
LINE
8
BLACK
6
CONTINUOUS
10
6.0828
20
-3.24647
11
6.06975
21
-3.24107
0
LINE
8
BLACK
6
CONTINUOUS
10
6.06975
20
-3.24107
11
6.05738
21
-3.23423
0
LINE
8
BLACK
6
CONTINUOUS
10
6.05738
20
-3.23423
11
6.04586
21
-3.22606
0
LINE
8
BLACK
6
CONTINUOUS
10
6.04586
20
-3.22606
11
6.03533
21
-3.21664
0
LINE
8
BLACK
6
CONTINUOUS
10
6.03533
20
-3.21664
11
6.02591
21
-3.20611
0
LINE
8
BLACK
6
CONTINUOUS
10
6.02591
20
-3.20611
11
6.01774
21
-3.19459
0
LINE
8
BLACK
6
CONTINUOUS
10
6.01774
20
-3.19459
11
6.0109
21
-3.18222
0
LINE
8
BLACK
6
CONTINUOUS
10
6.0109
20
-3.18222
11
6.00549
21
-3.16917
0
LINE
8
BLACK
6
CONTINUOUS
10
6.00549
20
-3.16917
11
6.00158
21
-3.15559
0
LINE
8
BLACK
6
CONTINUOUS
10
6.00158
20
-3.15559
11
5.99922
21
-3.14166
0
LINE
8
BLACK
6
CONTINUOUS
10
5.99922
20
-3.14166
11
5.99843
21
-3.12756
0
LINE
8
BLACK
6
CONTINUOUS
10
5.99843
20
-3.12756
11
5.99922
21
-3.11345
0
LINE
8
BLACK
6
CONTINUOUS
10
5.99922
20
-3.11345
11
6.00158
21
-3.09952
0
LINE
8
BLACK
6
CONTINUOUS
10
6.00158
20
-3.09952
11
6.00549
21
-3.08595
0
LINE
8
BLACK
6
CONTINUOUS
10
6.00549
20
-3.08595
11
6.0109
21
-3.0729
0
LINE
8
BLACK
6
CONTINUOUS
10
6.0109
20
-3.0729
11
6.01774
21
-3.06053
0
LINE
8
BLACK
6
CONTINUOUS
10
6.01774
20
-3.06053
11
6.02591
21
-3.04901
0
LINE
8
BLACK
6
CONTINUOUS
10
6.02591
20
-3.04901
11
6.03533
21
-3.03847
0
LINE
8
BLACK
6
CONTINUOUS
10
6.03533
20
-3.03847
11
6.04586
21
-3.02906
0
LINE
8
BLACK
6
CONTINUOUS
10
6.04586
20
-3.02906
11
6.05738
21
-3.02089
0
LINE
8
BLACK
6
CONTINUOUS
10
6.05738
20
-3.02089
11
6.06975
21
-3.01405
0
LINE
8
BLACK
6
CONTINUOUS
10
6.06975
20
-3.01405
11
6.0828
21
-3.00864
0
LINE
8
BLACK
6
CONTINUOUS
10
6.0828
20
-3.00864
11
6.09638
21
-3.00473
0
LINE
8
BLACK
6
CONTINUOUS
10
6.09638
20
-3.00473
11
6.1103
21
-3.00237
0
LINE
8
BLACK
6
CONTINUOUS
10
6.1103
20
-3.00237
11
6.12441
21
-3.00157
0
LINE
8
BLACK
6
CONTINUOUS
10
6.12441
20
-3.00157
11
6.13852
21
-3.00237
0
LINE
8
BLACK
6
CONTINUOUS
10
5.20992
20
-3.12028
11
5.21248
21
-3.12199
0
LINE
8
BLACK
6
CONTINUOUS
10
5.21248
20
-3.12199
11
5.21418
21
-3.12455
0
LINE
8
BLACK
6
CONTINUOUS
10
5.21418
20
-3.12455
11
5.21478
21
-3.12756
0
LINE
8
BLACK
6
CONTINUOUS
10
5.21478
20
-3.12756
11
5.21478
21
-3.18756
0
LINE
8
BLACK
6
CONTINUOUS
10
5.21478
20
-3.18756
11
5.21418
21
-3.19057
0
LINE
8
BLACK
6
CONTINUOUS
10
5.21418
20
-3.19057
11
5.21248
21
-3.19313
0
LINE
8
BLACK
6
CONTINUOUS
10
5.21248
20
-3.19313
11
5.20992
21
-3.19483
0
LINE
8
BLACK
6
CONTINUOUS
10
5.20992
20
-3.19483
11
5.20691
21
-3.19543
0
LINE
8
BLACK
6
CONTINUOUS
10
5.20691
20
-3.19543
11
5.14691
21
-3.19543
0
LINE
8
BLACK
6
CONTINUOUS
10
5.14691
20
-3.19543
11
5.1439
21
-3.19483
0
LINE
8
BLACK
6
CONTINUOUS
10
5.1439
20
-3.19483
11
5.14134
21
-3.19313
0
LINE
8
BLACK
6
CONTINUOUS
10
5.14134
20
-3.19313
11
5.13963
21
-3.19057
0
LINE
8
BLACK
6
CONTINUOUS
10
5.13963
20
-3.19057
11
5.13904
21
-3.18756
0
LINE
8
BLACK
6
CONTINUOUS
10
5.13904
20
-3.18756
11
5.13904
21
-3.12756
0
LINE
8
BLACK
6
CONTINUOUS
10
5.13904
20
-3.12756
11
5.13963
21
-3.12455
0
LINE
8
BLACK
6
CONTINUOUS
10
5.13963
20
-3.12455
11
5.14134
21
-3.12199
0
LINE
8
BLACK
6
CONTINUOUS
10
5.14134
20
-3.12199
11
5.1439
21
-3.12028
0
LINE
8
BLACK
6
CONTINUOUS
10
5.1439
20
-3.12028
11
5.14691
21
-3.11969
0
LINE
8
BLACK
6
CONTINUOUS
10
5.14691
20
-3.11969
11
5.20691
21
-3.11969
0
LINE
8
BLACK
6
CONTINUOUS
10
5.20691
20
-3.11969
11
5.20992
21
-3.12028
0
LINE
8
BLACK
6
CONTINUOUS
10
5.30992
20
-3.12028
11
5.31248
21
-3.12199
0
LINE
8
BLACK
6
CONTINUOUS
10
5.31248
20
-3.12199
11
5.31418
21
-3.12455
0
LINE
8
BLACK
6
CONTINUOUS
10
5.31418
20
-3.12455
11
5.31478
21
-3.12756
0
LINE
8
BLACK
6
CONTINUOUS
10
5.31478
20
-3.12756
11
5.31478
21
-3.18756
0
LINE
8
BLACK
6
CONTINUOUS
10
5.31478
20
-3.18756
11
5.31418
21
-3.19057
0
LINE
8
BLACK
6
CONTINUOUS
10
5.31418
20
-3.19057
11
5.31248
21
-3.19313
0
LINE
8
BLACK
6
CONTINUOUS
10
5.31248
20
-3.19313
11
5.30992
21
-3.19483
0
LINE
8
BLACK
6
CONTINUOUS
10
5.30992
20
-3.19483
11
5.30691
21
-3.19543
0
LINE
8
BLACK
6
CONTINUOUS
10
5.30691
20
-3.19543
11
5.24691
21
-3.19543
0
LINE
8
BLACK
6
CONTINUOUS
10
5.24691
20
-3.19543
11
5.2439
21
-3.19483
0
LINE
8
BLACK
6
CONTINUOUS
10
5.2439
20
-3.19483
11
5.24134
21
-3.19313
0
LINE
8
BLACK
6
CONTINUOUS
10
5.24134
20
-3.19313
11
5.23963
21
-3.19057
0
LINE
8
BLACK
6
CONTINUOUS
10
5.23963
20
-3.19057
11
5.23904
21
-3.18756
0
LINE
8
BLACK
6
CONTINUOUS
10
5.23904
20
-3.18756
11
5.23904
21
-3.12756
0
LINE
8
BLACK
6
CONTINUOUS
10
5.23904
20
-3.12756
11
5.23963
21
-3.12455
0
LINE
8
BLACK
6
CONTINUOUS
10
5.23963
20
-3.12455
11
5.24134
21
-3.12199
0
LINE
8
BLACK
6
CONTINUOUS
10
5.24134
20
-3.12199
11
5.2439
21
-3.12028
0
LINE
8
BLACK
6
CONTINUOUS
10
5.2439
20
-3.12028
11
5.24691
21
-3.11969
0
LINE
8
BLACK
6
CONTINUOUS
10
5.24691
20
-3.11969
11
5.30691
21
-3.11969
0
LINE
8
BLACK
6
CONTINUOUS
10
5.30691
20
-3.11969
11
5.30992
21
-3.12028
0
LINE
8
BLACK
6
CONTINUOUS
10
5.40992
20
-3.12028
11
5.41248
21
-3.12199
0
LINE
8
BLACK
6
CONTINUOUS
10
5.41248
20
-3.12199
11
5.41418
21
-3.12455
0
LINE
8
BLACK
6
CONTINUOUS
10
5.41418
20
-3.12455
11
5.41478
21
-3.12756
0
LINE
8
BLACK
6
CONTINUOUS
10
5.41478
20
-3.12756
11
5.41478
21
-3.18756
0
LINE
8
BLACK
6
CONTINUOUS
10
5.41478
20
-3.18756
11
5.41418
21
-3.19057
0
LINE
8
BLACK
6
CONTINUOUS
10
5.41418
20
-3.19057
11
5.41248
21
-3.19313
0
LINE
8
BLACK
6
CONTINUOUS
10
5.41248
20
-3.19313
11
5.40992
21
-3.19483
0
LINE
8
BLACK
6
CONTINUOUS
10
5.40992
20
-3.19483
11
5.40691
21
-3.19543
0
LINE
8
BLACK
6
CONTINUOUS
10
5.40691
20
-3.19543
11
5.34691
21
-3.19543
0
LINE
8
BLACK
6
CONTINUOUS
10
5.34691
20
-3.19543
11
5.3439
21
-3.19483
0
LINE
8
BLACK
6
CONTINUOUS
10
5.3439
20
-3.19483
11
5.34134
21
-3.19313
0
LINE
8
BLACK
6
CONTINUOUS
10
5.34134
20
-3.19313
11
5.33963
21
-3.19057
0
LINE
8
BLACK
6
CONTINUOUS
10
5.33963
20
-3.19057
11
5.33904
21
-3.18756
0
LINE
8
BLACK
6
CONTINUOUS
10
5.33904
20
-3.18756
11
5.33904
21
-3.12756
0
LINE
8
BLACK
6
CONTINUOUS
10
5.33904
20
-3.12756
11
5.33963
21
-3.12455
0
LINE
8
BLACK
6
CONTINUOUS
10
5.33963
20
-3.12455
11
5.34134
21
-3.12199
0
LINE
8
BLACK
6
CONTINUOUS
10
5.34134
20
-3.12199
11
5.3439
21
-3.12028
0
LINE
8
BLACK
6
CONTINUOUS
10
5.3439
20
-3.12028
11
5.34691
21
-3.11969
0
LINE
8
BLACK
6
CONTINUOUS
10
5.34691
20
-3.11969
11
5.40691
21
-3.11969
0
LINE
8
BLACK
6
CONTINUOUS
10
5.40691
20
-3.11969
11
5.40992
21
-3.12028
0
LINE
8
BLACK
6
CONTINUOUS
10
5.50992
20
-3.12028
11
5.51248
21
-3.12199
0
LINE
8
BLACK
6
CONTINUOUS
10
5.51248
20
-3.12199
11
5.51418
21
-3.12455
0
LINE
8
BLACK
6
CONTINUOUS
10
5.51418
20
-3.12455
11
5.51478
21
-3.12756
0
LINE
8
BLACK
6
CONTINUOUS
10
5.51478
20
-3.12756
11
5.51478
21
-3.18756
0
LINE
8
BLACK
6
CONTINUOUS
10
5.51478
20
-3.18756
11
5.51418
21
-3.19057
0
LINE
8
BLACK
6
CONTINUOUS
10
5.51418
20
-3.19057
11
5.51248
21
-3.19313
0
LINE
8
BLACK
6
CONTINUOUS
10
5.51248
20
-3.19313
11
5.50992
21
-3.19483
0
LINE
8
BLACK
6
CONTINUOUS
10
5.50992
20
-3.19483
11
5.50691
21
-3.19543
0
LINE
8
BLACK
6
CONTINUOUS
10
5.50691
20
-3.19543
11
5.44691
21
-3.19543
0
LINE
8
BLACK
6
CONTINUOUS
10
5.44691
20
-3.19543
11
5.4439
21
-3.19483
0
LINE
8
BLACK
6
CONTINUOUS
10
5.4439
20
-3.19483
11
5.44134
21
-3.19313
0
LINE
8
BLACK
6
CONTINUOUS
10
5.44134
20
-3.19313
11
5.43963
21
-3.19057
0
LINE
8
BLACK
6
CONTINUOUS
10
5.43963
20
-3.19057
11
5.43904
21
-3.18756
0
LINE
8
BLACK
6
CONTINUOUS
10
5.43904
20
-3.18756
11
5.43904
21
-3.12756
0
LINE
8
BLACK
6
CONTINUOUS
10
5.43904
20
-3.12756
11
5.43963
21
-3.12455
0
LINE
8
BLACK
6
CONTINUOUS
10
5.43963
20
-3.12455
11
5.44134
21
-3.12199
0
LINE
8
BLACK
6
CONTINUOUS
10
5.44134
20
-3.12199
11
5.4439
21
-3.12028
0
LINE
8
BLACK
6
CONTINUOUS
10
5.4439
20
-3.12028
11
5.44691
21
-3.11969
0
LINE
8
BLACK
6
CONTINUOUS
10
5.44691
20
-3.11969
11
5.50691
21
-3.11969
0
LINE
8
BLACK
6
CONTINUOUS
10
5.50691
20
-3.11969
11
5.50992
21
-3.12028
0
LINE
8
BLACK
6
CONTINUOUS
10
5.60992
20
-3.12028
11
5.61248
21
-3.12199
0
LINE
8
BLACK
6
CONTINUOUS
10
5.61248
20
-3.12199
11
5.61418
21
-3.12455
0
LINE
8
BLACK
6
CONTINUOUS
10
5.61418
20
-3.12455
11
5.61478
21
-3.12756
0
LINE
8
BLACK
6
CONTINUOUS
10
5.61478
20
-3.12756
11
5.61478
21
-3.18756
0
LINE
8
BLACK
6
CONTINUOUS
10
5.61478
20
-3.18756
11
5.61418
21
-3.19057
0
LINE
8
BLACK
6
CONTINUOUS
10
5.61418
20
-3.19057
11
5.61248
21
-3.19313
0
LINE
8
BLACK
6
CONTINUOUS
10
5.61248
20
-3.19313
11
5.60992
21
-3.19483
0
LINE
8
BLACK
6
CONTINUOUS
10
5.60992
20
-3.19483
11
5.60691
21
-3.19543
0
LINE
8
BLACK
6
CONTINUOUS
10
5.60691
20
-3.19543
11
5.54691
21
-3.19543
0
LINE
8
BLACK
6
CONTINUOUS
10
5.54691
20
-3.19543
11
5.5439
21
-3.19483
0
LINE
8
BLACK
6
CONTINUOUS
10
5.5439
20
-3.19483
11
5.54134
21
-3.19313
0
LINE
8
BLACK
6
CONTINUOUS
10
5.54134
20
-3.19313
11
5.53963
21
-3.19057
0
LINE
8
BLACK
6
CONTINUOUS
10
5.53963
20
-3.19057
11
5.53904
21
-3.18756
0
LINE
8
BLACK
6
CONTINUOUS
10
5.53904
20
-3.18756
11
5.53904
21
-3.12756
0
LINE
8
BLACK
6
CONTINUOUS
10
5.53904
20
-3.12756
11
5.53963
21
-3.12455
0
LINE
8
BLACK
6
CONTINUOUS
10
5.53963
20
-3.12455
11
5.54134
21
-3.12199
0
LINE
8
BLACK
6
CONTINUOUS
10
5.54134
20
-3.12199
11
5.5439
21
-3.12028
0
LINE
8
BLACK
6
CONTINUOUS
10
5.5439
20
-3.12028
11
5.54691
21
-3.11969
0
LINE
8
BLACK
6
CONTINUOUS
10
5.54691
20
-3.11969
11
5.60691
21
-3.11969
0
LINE
8
BLACK
6
CONTINUOUS
10
5.60691
20
-3.11969
11
5.60992
21
-3.12028
0
LINE
8
BLACK
6
CONTINUOUS
10
5.71051
20
-3.12023
11
5.71307
21
-3.12193
0
LINE
8
BLACK
6
CONTINUOUS
10
5.71307
20
-3.12193
11
5.71477
21
-3.12449
0
LINE
8
BLACK
6
CONTINUOUS
10
5.71477
20
-3.12449
11
5.71537
21
-3.1275
0
LINE
8
BLACK
6
CONTINUOUS
10
5.71537
20
-3.1275
11
5.71537
21
-3.1875
0
LINE
8
BLACK
6
CONTINUOUS
10
5.71537
20
-3.1875
11
5.71477
21
-3.19051
0
LINE
8
BLACK
6
CONTINUOUS
10
5.71477
20
-3.19051
11
5.71307
21
-3.19307
0
LINE
8
BLACK
6
CONTINUOUS
10
5.71307
20
-3.19307
11
5.71051
21
-3.19477
0
LINE
8
BLACK
6
CONTINUOUS
10
5.71051
20
-3.19477
11
5.7075
21
-3.19537
0
LINE
8
BLACK
6
CONTINUOUS
10
5.7075
20
-3.19537
11
5.6475
21
-3.19537
0
LINE
8
BLACK
6
CONTINUOUS
10
5.6475
20
-3.19537
11
5.64449
21
-3.19477
0
LINE
8
BLACK
6
CONTINUOUS
10
5.64449
20
-3.19477
11
5.64193
21
-3.19307
0
LINE
8
BLACK
6
CONTINUOUS
10
5.64193
20
-3.19307
11
5.64023
21
-3.19051
0
LINE
8
BLACK
6
CONTINUOUS
10
5.64023
20
-3.19051
11
5.63963
21
-3.1875
0
LINE
8
BLACK
6
CONTINUOUS
10
5.63963
20
-3.1875
11
5.63963
21
-3.1275
0
LINE
8
BLACK
6
CONTINUOUS
10
5.63963
20
-3.1275
11
5.64023
21
-3.12449
0
LINE
8
BLACK
6
CONTINUOUS
10
5.64023
20
-3.12449
11
5.64193
21
-3.12193
0
LINE
8
BLACK
6
CONTINUOUS
10
5.64193
20
-3.12193
11
5.64449
21
-3.12023
0
LINE
8
BLACK
6
CONTINUOUS
10
5.64449
20
-3.12023
11
5.6475
21
-3.11963
0
LINE
8
BLACK
6
CONTINUOUS
10
5.6475
20
-3.11963
11
5.7075
21
-3.11963
0
LINE
8
BLACK
6
CONTINUOUS
10
5.7075
20
-3.11963
11
5.71051
21
-3.12023
0
LINE
8
BLACK
6
CONTINUOUS
10
5.81051
20
-3.12023
11
5.81307
21
-3.12193
0
LINE
8
BLACK
6
CONTINUOUS
10
5.81307
20
-3.12193
11
5.81477
21
-3.12449
0
LINE
8
BLACK
6
CONTINUOUS
10
5.81477
20
-3.12449
11
5.81537
21
-3.1275
0
LINE
8
BLACK
6
CONTINUOUS
10
5.81537
20
-3.1275
11
5.81537
21
-3.1875
0
LINE
8
BLACK
6
CONTINUOUS
10
5.81537
20
-3.1875
11
5.81477
21
-3.19051
0
LINE
8
BLACK
6
CONTINUOUS
10
5.81477
20
-3.19051
11
5.81307
21
-3.19307
0
LINE
8
BLACK
6
CONTINUOUS
10
5.81307
20
-3.19307
11
5.81051
21
-3.19477
0
LINE
8
BLACK
6
CONTINUOUS
10
5.81051
20
-3.19477
11
5.8075
21
-3.19537
0
LINE
8
BLACK
6
CONTINUOUS
10
5.8075
20
-3.19537
11
5.7475
21
-3.19537
0
LINE
8
BLACK
6
CONTINUOUS
10
5.7475
20
-3.19537
11
5.74449
21
-3.19477
0
LINE
8
BLACK
6
CONTINUOUS
10
5.74449
20
-3.19477
11
5.74193
21
-3.19307
0
LINE
8
BLACK
6
CONTINUOUS
10
5.74193
20
-3.19307
11
5.74023
21
-3.19051
0
LINE
8
BLACK
6
CONTINUOUS
10
5.74023
20
-3.19051
11
5.73963
21
-3.1875
0
LINE
8
BLACK
6
CONTINUOUS
10
5.73963
20
-3.1875
11
5.73963
21
-3.1275
0
LINE
8
BLACK
6
CONTINUOUS
10
5.73963
20
-3.1275
11
5.74023
21
-3.12449
0
LINE
8
BLACK
6
CONTINUOUS
10
5.74023
20
-3.12449
11
5.74193
21
-3.12193
0
LINE
8
BLACK
6
CONTINUOUS
10
5.74193
20
-3.12193
11
5.74449
21
-3.12023
0
LINE
8
BLACK
6
CONTINUOUS
10
5.74449
20
-3.12023
11
5.7475
21
-3.11963
0
LINE
8
BLACK
6
CONTINUOUS
10
5.7475
20
-3.11963
11
5.8075
21
-3.11963
0
LINE
8
BLACK
6
CONTINUOUS
10
5.8075
20
-3.11963
11
5.81051
21
-3.12023
0
LINE
8
BLACK
6
CONTINUOUS
10
5.91051
20
-3.12023
11
5.91307
21
-3.12193
0
LINE
8
BLACK
6
CONTINUOUS
10
5.91307
20
-3.12193
11
5.91477
21
-3.12449
0
LINE
8
BLACK
6
CONTINUOUS
10
5.91477
20
-3.12449
11
5.91537
21
-3.1275
0
LINE
8
BLACK
6
CONTINUOUS
10
5.91537
20
-3.1275
11
5.91537
21
-3.1875
0
LINE
8
BLACK
6
CONTINUOUS
10
5.91537
20
-3.1875
11
5.91477
21
-3.19051
0
LINE
8
BLACK
6
CONTINUOUS
10
5.91477
20
-3.19051
11
5.91307
21
-3.19307
0
LINE
8
BLACK
6
CONTINUOUS
10
5.91307
20
-3.19307
11
5.91051
21
-3.19477
0
LINE
8
BLACK
6
CONTINUOUS
10
5.91051
20
-3.19477
11
5.9075
21
-3.19537
0
LINE
8
BLACK
6
CONTINUOUS
10
5.9075
20
-3.19537
11
5.8475
21
-3.19537
0
LINE
8
BLACK
6
CONTINUOUS
10
5.8475
20
-3.19537
11
5.84449
21
-3.19477
0
LINE
8
BLACK
6
CONTINUOUS
10
5.84449
20
-3.19477
11
5.84193
21
-3.19307
0
LINE
8
BLACK
6
CONTINUOUS
10
5.84193
20
-3.19307
11
5.84023
21
-3.19051
0
LINE
8
BLACK
6
CONTINUOUS
10
5.84023
20
-3.19051
11
5.83963
21
-3.1875
0
LINE
8
BLACK
6
CONTINUOUS
10
5.83963
20
-3.1875
11
5.83963
21
-3.1275
0
LINE
8
BLACK
6
CONTINUOUS
10
5.83963
20
-3.1275
11
5.84023
21
-3.12449
0
LINE
8
BLACK
6
CONTINUOUS
10
5.84023
20
-3.12449
11
5.84193
21
-3.12193
0
LINE
8
BLACK
6
CONTINUOUS
10
5.84193
20
-3.12193
11
5.84449
21
-3.12023
0
LINE
8
BLACK
6
CONTINUOUS
10
5.84449
20
-3.12023
11
5.8475
21
-3.11963
0
LINE
8
BLACK
6
CONTINUOUS
10
5.8475
20
-3.11963
11
5.9075
21
-3.11963
0
LINE
8
BLACK
6
CONTINUOUS
10
5.9075
20
-3.11963
11
5.91051
21
-3.12023
0
LINE
8
BLACK
6
CONTINUOUS
10
5.20992
20
-3.02028
11
5.21248
21
-3.02199
0
LINE
8
BLACK
6
CONTINUOUS
10
5.21248
20
-3.02199
11
5.21418
21
-3.02455
0
LINE
8
BLACK
6
CONTINUOUS
10
5.21418
20
-3.02455
11
5.21478
21
-3.02756
0
LINE
8
BLACK
6
CONTINUOUS
10
5.21478
20
-3.02756
11
5.21478
21
-3.08756
0
LINE
8
BLACK
6
CONTINUOUS
10
5.21478
20
-3.08756
11
5.21418
21
-3.09057
0
LINE
8
BLACK
6
CONTINUOUS
10
5.21418
20
-3.09057
11
5.21248
21
-3.09313
0
LINE
8
BLACK
6
CONTINUOUS
10
5.21248
20
-3.09313
11
5.20992
21
-3.09483
0
LINE
8
BLACK
6
CONTINUOUS
10
5.20992
20
-3.09483
11
5.20691
21
-3.09543
0
LINE
8
BLACK
6
CONTINUOUS
10
5.20691
20
-3.09543
11
5.14691
21
-3.09543
0
LINE
8
BLACK
6
CONTINUOUS
10
5.14691
20
-3.09543
11
5.1439
21
-3.09483
0
LINE
8
BLACK
6
CONTINUOUS
10
5.1439
20
-3.09483
11
5.14134
21
-3.09313
0
LINE
8
BLACK
6
CONTINUOUS
10
5.14134
20
-3.09313
11
5.13963
21
-3.09057
0
LINE
8
BLACK
6
CONTINUOUS
10
5.13963
20
-3.09057
11
5.13904
21
-3.08756
0
LINE
8
BLACK
6
CONTINUOUS
10
5.13904
20
-3.08756
11
5.13904
21
-3.02756
0
LINE
8
BLACK
6
CONTINUOUS
10
5.13904
20
-3.02756
11
5.13963
21
-3.02455
0
LINE
8
BLACK
6
CONTINUOUS
10
5.13963
20
-3.02455
11
5.14134
21
-3.02199
0
LINE
8
BLACK
6
CONTINUOUS
10
5.14134
20
-3.02199
11
5.1439
21
-3.02028
0
LINE
8
BLACK
6
CONTINUOUS
10
5.1439
20
-3.02028
11
5.14691
21
-3.01969
0
LINE
8
BLACK
6
CONTINUOUS
10
5.14691
20
-3.01969
11
5.20691
21
-3.01969
0
LINE
8
BLACK
6
CONTINUOUS
10
5.20691
20
-3.01969
11
5.20992
21
-3.02028
0
LINE
8
BLACK
6
CONTINUOUS
10
5.30992
20
-3.02028
11
5.31248
21
-3.02199
0
LINE
8
BLACK
6
CONTINUOUS
10
5.31248
20
-3.02199
11
5.31418
21
-3.02455
0
LINE
8
BLACK
6
CONTINUOUS
10
5.31418
20
-3.02455
11
5.31478
21
-3.02756
0
LINE
8
BLACK
6
CONTINUOUS
10
5.31478
20
-3.02756
11
5.31478
21
-3.08756
0
LINE
8
BLACK
6
CONTINUOUS
10
5.31478
20
-3.08756
11
5.31418
21
-3.09057
0
LINE
8
BLACK
6
CONTINUOUS
10
5.31418
20
-3.09057
11
5.31248
21
-3.09313
0
LINE
8
BLACK
6
CONTINUOUS
10
5.31248
20
-3.09313
11
5.30992
21
-3.09483
0
LINE
8
BLACK
6
CONTINUOUS
10
5.30992
20
-3.09483
11
5.30691
21
-3.09543
0
LINE
8
BLACK
6
CONTINUOUS
10
5.30691
20
-3.09543
11
5.24691
21
-3.09543
0
LINE
8
BLACK
6
CONTINUOUS
10
5.24691
20
-3.09543
11
5.2439
21
-3.09483
0
LINE
8
BLACK
6
CONTINUOUS
10
5.2439
20
-3.09483
11
5.24134
21
-3.09313
0
LINE
8
BLACK
6
CONTINUOUS
10
5.24134
20
-3.09313
11
5.23963
21
-3.09057
0
LINE
8
BLACK
6
CONTINUOUS
10
5.23963
20
-3.09057
11
5.23904
21
-3.08756
0
LINE
8
BLACK
6
CONTINUOUS
10
5.23904
20
-3.08756
11
5.23904
21
-3.02756
0
LINE
8
BLACK
6
CONTINUOUS
10
5.23904
20
-3.02756
11
5.23963
21
-3.02455
0
LINE
8
BLACK
6
CONTINUOUS
10
5.23963
20
-3.02455
11
5.24134
21
-3.02199
0
LINE
8
BLACK
6
CONTINUOUS
10
5.24134
20
-3.02199
11
5.2439
21
-3.02028
0
LINE
8
BLACK
6
CONTINUOUS
10
5.2439
20
-3.02028
11
5.24691
21
-3.01969
0
LINE
8
BLACK
6
CONTINUOUS
10
5.24691
20
-3.01969
11
5.30691
21
-3.01969
0
LINE
8
BLACK
6
CONTINUOUS
10
5.30691
20
-3.01969
11
5.30992
21
-3.02028
0
LINE
8
BLACK
6
CONTINUOUS
10
5.40992
20
-3.02028
11
5.41248
21
-3.02199
0
LINE
8
BLACK
6
CONTINUOUS
10
5.41248
20
-3.02199
11
5.41418
21
-3.02455
0
LINE
8
BLACK
6
CONTINUOUS
10
5.41418
20
-3.02455
11
5.41478
21
-3.02756
0
LINE
8
BLACK
6
CONTINUOUS
10
5.41478
20
-3.02756
11
5.41478
21
-3.08756
0
LINE
8
BLACK
6
CONTINUOUS
10
5.41478
20
-3.08756
11
5.41418
21
-3.09057
0
LINE
8
BLACK
6
CONTINUOUS
10
5.41418
20
-3.09057
11
5.41248
21
-3.09313
0
LINE
8
BLACK
6
CONTINUOUS
10
5.41248
20
-3.09313
11
5.40992
21
-3.09483
0
LINE
8
BLACK
6
CONTINUOUS
10
5.40992
20
-3.09483
11
5.40691
21
-3.09543
0
LINE
8
BLACK
6
CONTINUOUS
10
5.40691
20
-3.09543
11
5.34691
21
-3.09543
0
LINE
8
BLACK
6
CONTINUOUS
10
5.34691
20
-3.09543
11
5.3439
21
-3.09483
0
LINE
8
BLACK
6
CONTINUOUS
10
5.3439
20
-3.09483
11
5.34134
21
-3.09313
0
LINE
8
BLACK
6
CONTINUOUS
10
5.34134
20
-3.09313
11
5.33963
21
-3.09057
0
LINE
8
BLACK
6
CONTINUOUS
10
5.33963
20
-3.09057
11
5.33904
21
-3.08756
0
LINE
8
BLACK
6
CONTINUOUS
10
5.33904
20
-3.08756
11
5.33904
21
-3.02756
0
LINE
8
BLACK
6
CONTINUOUS
10
5.33904
20
-3.02756
11
5.33963
21
-3.02455
0
LINE
8
BLACK
6
CONTINUOUS
10
5.33963
20
-3.02455
11
5.34134
21
-3.02199
0
LINE
8
BLACK
6
CONTINUOUS
10
5.34134
20
-3.02199
11
5.3439
21
-3.02028
0
LINE
8
BLACK
6
CONTINUOUS
10
5.3439
20
-3.02028
11
5.34691
21
-3.01969
0
LINE
8
BLACK
6
CONTINUOUS
10
5.34691
20
-3.01969
11
5.40691
21
-3.01969
0
LINE
8
BLACK
6
CONTINUOUS
10
5.40691
20
-3.01969
11
5.40992
21
-3.02028
0
LINE
8
BLACK
6
CONTINUOUS
10
5.50992
20
-3.02028
11
5.51248
21
-3.02199
0
LINE
8
BLACK
6
CONTINUOUS
10
5.51248
20
-3.02199
11
5.51418
21
-3.02455
0
LINE
8
BLACK
6
CONTINUOUS
10
5.51418
20
-3.02455
11
5.51478
21
-3.02756
0
LINE
8
BLACK
6
CONTINUOUS
10
5.51478
20
-3.02756
11
5.51478
21
-3.08756
0
LINE
8
BLACK
6
CONTINUOUS
10
5.51478
20
-3.08756
11
5.51418
21
-3.09057
0
LINE
8
BLACK
6
CONTINUOUS
10
5.51418
20
-3.09057
11
5.51248
21
-3.09313
0
LINE
8
BLACK
6
CONTINUOUS
10
5.51248
20
-3.09313
11
5.50992
21
-3.09483
0
LINE
8
BLACK
6
CONTINUOUS
10
5.50992
20
-3.09483
11
5.50691
21
-3.09543
0
LINE
8
BLACK
6
CONTINUOUS
10
5.50691
20
-3.09543
11
5.44691
21
-3.09543
0
LINE
8
BLACK
6
CONTINUOUS
10
5.44691
20
-3.09543
11
5.4439
21
-3.09483
0
LINE
8
BLACK
6
CONTINUOUS
10
5.4439
20
-3.09483
11
5.44134
21
-3.09313
0
LINE
8
BLACK
6
CONTINUOUS
10
5.44134
20
-3.09313
11
5.43963
21
-3.09057
0
LINE
8
BLACK
6
CONTINUOUS
10
5.43963
20
-3.09057
11
5.43904
21
-3.08756
0
LINE
8
BLACK
6
CONTINUOUS
10
5.43904
20
-3.08756
11
5.43904
21
-3.02756
0
LINE
8
BLACK
6
CONTINUOUS
10
5.43904
20
-3.02756
11
5.43963
21
-3.02455
0
LINE
8
BLACK
6
CONTINUOUS
10
5.43963
20
-3.02455
11
5.44134
21
-3.02199
0
LINE
8
BLACK
6
CONTINUOUS
10
5.44134
20
-3.02199
11
5.4439
21
-3.02028
0
LINE
8
BLACK
6
CONTINUOUS
10
5.4439
20
-3.02028
11
5.44691
21
-3.01969
0
LINE
8
BLACK
6
CONTINUOUS
10
5.44691
20
-3.01969
11
5.50691
21
-3.01969
0
LINE
8
BLACK
6
CONTINUOUS
10
5.50691
20
-3.01969
11
5.50992
21
-3.02028
0
LINE
8
BLACK
6
CONTINUOUS
10
5.60992
20
-3.02028
11
5.61248
21
-3.02199
0
LINE
8
BLACK
6
CONTINUOUS
10
5.61248
20
-3.02199
11
5.61418
21
-3.02455
0
LINE
8
BLACK
6
CONTINUOUS
10
5.61418
20
-3.02455
11
5.61478
21
-3.02756
0
LINE
8
BLACK
6
CONTINUOUS
10
5.61478
20
-3.02756
11
5.61478
21
-3.08756
0
LINE
8
BLACK
6
CONTINUOUS
10
5.61478
20
-3.08756
11
5.61418
21
-3.09057
0
LINE
8
BLACK
6
CONTINUOUS
10
5.61418
20
-3.09057
11
5.61248
21
-3.09313
0
LINE
8
BLACK
6
CONTINUOUS
10
5.61248
20
-3.09313
11
5.60992
21
-3.09483
0
LINE
8
BLACK
6
CONTINUOUS
10
5.60992
20
-3.09483
11
5.60691
21
-3.09543
0
LINE
8
BLACK
6
CONTINUOUS
10
5.60691
20
-3.09543
11
5.54691
21
-3.09543
0
LINE
8
BLACK
6
CONTINUOUS
10
5.54691
20
-3.09543
11
5.5439
21
-3.09483
0
LINE
8
BLACK
6
CONTINUOUS
10
5.5439
20
-3.09483
11
5.54134
21
-3.09313
0
LINE
8
BLACK
6
CONTINUOUS
10
5.54134
20
-3.09313
11
5.53963
21
-3.09057
0
LINE
8
BLACK
6
CONTINUOUS
10
5.53963
20
-3.09057
11
5.53904
21
-3.08756
0
LINE
8
BLACK
6
CONTINUOUS
10
5.53904
20
-3.08756
11
5.53904
21
-3.02756
0
LINE
8
BLACK
6
CONTINUOUS
10
5.53904
20
-3.02756
11
5.53963
21
-3.02455
0
LINE
8
BLACK
6
CONTINUOUS
10
5.53963
20
-3.02455
11
5.54134
21
-3.02199
0
LINE
8
BLACK
6
CONTINUOUS
10
5.54134
20
-3.02199
11
5.5439
21
-3.02028
0
LINE
8
BLACK
6
CONTINUOUS
10
5.5439
20
-3.02028
11
5.54691
21
-3.01969
0
LINE
8
BLACK
6
CONTINUOUS
10
5.54691
20
-3.01969
11
5.60691
21
-3.01969
0
LINE
8
BLACK
6
CONTINUOUS
10
5.60691
20
-3.01969
11
5.60992
21
-3.02028
0
LINE
8
BLACK
6
CONTINUOUS
10
5.71051
20
-3.02023
11
5.71307
21
-3.02193
0
LINE
8
BLACK
6
CONTINUOUS
10
5.71307
20
-3.02193
11
5.71477
21
-3.02449
0
LINE
8
BLACK
6
CONTINUOUS
10
5.71477
20
-3.02449
11
5.71537
21
-3.0275
0
LINE
8
BLACK
6
CONTINUOUS
10
5.71537
20
-3.0275
11
5.71537
21
-3.0875
0
LINE
8
BLACK
6
CONTINUOUS
10
5.71537
20
-3.0875
11
5.71477
21
-3.09051
0
LINE
8
BLACK
6
CONTINUOUS
10
5.71477
20
-3.09051
11
5.71307
21
-3.09307
0
LINE
8
BLACK
6
CONTINUOUS
10
5.71307
20
-3.09307
11
5.71051
21
-3.09477
0
LINE
8
BLACK
6
CONTINUOUS
10
5.71051
20
-3.09477
11
5.7075
21
-3.09537
0
LINE
8
BLACK
6
CONTINUOUS
10
5.7075
20
-3.09537
11
5.6475
21
-3.09537
0
LINE
8
BLACK
6
CONTINUOUS
10
5.6475
20
-3.09537
11
5.64449
21
-3.09477
0
LINE
8
BLACK
6
CONTINUOUS
10
5.64449
20
-3.09477
11
5.64193
21
-3.09307
0
LINE
8
BLACK
6
CONTINUOUS
10
5.64193
20
-3.09307
11
5.64023
21
-3.09051
0
LINE
8
BLACK
6
CONTINUOUS
10
5.64023
20
-3.09051
11
5.63963
21
-3.0875
0
LINE
8
BLACK
6
CONTINUOUS
10
5.63963
20
-3.0875
11
5.63963
21
-3.0275
0
LINE
8
BLACK
6
CONTINUOUS
10
5.63963
20
-3.0275
11
5.64023
21
-3.02449
0
LINE
8
BLACK
6
CONTINUOUS
10
5.64023
20
-3.02449
11
5.64193
21
-3.02193
0
LINE
8
BLACK
6
CONTINUOUS
10
5.64193
20
-3.02193
11
5.64449
21
-3.02023
0
LINE
8
BLACK
6
CONTINUOUS
10
5.64449
20
-3.02023
11
5.6475
21
-3.01963
0
LINE
8
BLACK
6
CONTINUOUS
10
5.6475
20
-3.01963
11
5.7075
21
-3.01963
0
LINE
8
BLACK
6
CONTINUOUS
10
5.7075
20
-3.01963
11
5.71051
21
-3.02023
0
LINE
8
BLACK
6
CONTINUOUS
10
5.81051
20
-3.02023
11
5.81307
21
-3.02193
0
LINE
8
BLACK
6
CONTINUOUS
10
5.81307
20
-3.02193
11
5.81477
21
-3.02449
0
LINE
8
BLACK
6
CONTINUOUS
10
5.81477
20
-3.02449
11
5.81537
21
-3.0275
0
LINE
8
BLACK
6
CONTINUOUS
10
5.81537
20
-3.0275
11
5.81537
21
-3.0875
0
LINE
8
BLACK
6
CONTINUOUS
10
5.81537
20
-3.0875
11
5.81477
21
-3.09051
0
LINE
8
BLACK
6
CONTINUOUS
10
5.81477
20
-3.09051
11
5.81307
21
-3.09307
0
LINE
8
BLACK
6
CONTINUOUS
10
5.81307
20
-3.09307
11
5.81051
21
-3.09477
0
LINE
8
BLACK
6
CONTINUOUS
10
5.81051
20
-3.09477
11
5.8075
21
-3.09537
0
LINE
8
BLACK
6
CONTINUOUS
10
5.8075
20
-3.09537
11
5.7475
21
-3.09537
0
LINE
8
BLACK
6
CONTINUOUS
10
5.7475
20
-3.09537
11
5.74449
21
-3.09477
0
LINE
8
BLACK
6
CONTINUOUS
10
5.74449
20
-3.09477
11
5.74193
21
-3.09307
0
LINE
8
BLACK
6
CONTINUOUS
10
5.74193
20
-3.09307
11
5.74023
21
-3.09051
0
LINE
8
BLACK
6
CONTINUOUS
10
5.74023
20
-3.09051
11
5.73963
21
-3.0875
0
LINE
8
BLACK
6
CONTINUOUS
10
5.73963
20
-3.0875
11
5.73963
21
-3.0275
0
LINE
8
BLACK
6
CONTINUOUS
10
5.73963
20
-3.0275
11
5.74023
21
-3.02449
0
LINE
8
BLACK
6
CONTINUOUS
10
5.74023
20
-3.02449
11
5.74193
21
-3.02193
0
LINE
8
BLACK
6
CONTINUOUS
10
5.74193
20
-3.02193
11
5.74449
21
-3.02023
0
LINE
8
BLACK
6
CONTINUOUS
10
5.74449
20
-3.02023
11
5.7475
21
-3.01963
0
LINE
8
BLACK
6
CONTINUOUS
10
5.7475
20
-3.01963
11
5.8075
21
-3.01963
0
LINE
8
BLACK
6
CONTINUOUS
10
5.8075
20
-3.01963
11
5.81051
21
-3.02023
0
LINE
8
BLACK
6
CONTINUOUS
10
5.91051
20
-3.02023
11
5.91307
21
-3.02193
0
LINE
8
BLACK
6
CONTINUOUS
10
5.91307
20
-3.02193
11
5.91477
21
-3.02449
0
LINE
8
BLACK
6
CONTINUOUS
10
5.91477
20
-3.02449
11
5.91537
21
-3.0275
0
LINE
8
BLACK
6
CONTINUOUS
10
5.91537
20
-3.0275
11
5.91537
21
-3.0875
0
LINE
8
BLACK
6
CONTINUOUS
10
5.91537
20
-3.0875
11
5.91477
21
-3.09051
0
LINE
8
BLACK
6
CONTINUOUS
10
5.91477
20
-3.09051
11
5.91307
21
-3.09307
0
LINE
8
BLACK
6
CONTINUOUS
10
5.91307
20
-3.09307
11
5.91051
21
-3.09477
0
LINE
8
BLACK
6
CONTINUOUS
10
5.91051
20
-3.09477
11
5.9075
21
-3.09537
0
LINE
8
BLACK
6
CONTINUOUS
10
5.9075
20
-3.09537
11
5.8475
21
-3.09537
0
LINE
8
BLACK
6
CONTINUOUS
10
5.8475
20
-3.09537
11
5.84449
21
-3.09477
0
LINE
8
BLACK
6
CONTINUOUS
10
5.84449
20
-3.09477
11
5.84193
21
-3.09307
0
LINE
8
BLACK
6
CONTINUOUS
10
5.84193
20
-3.09307
11
5.84023
21
-3.09051
0
LINE
8
BLACK
6
CONTINUOUS
10
5.84023
20
-3.09051
11
5.83963
21
-3.0875
0
LINE
8
BLACK
6
CONTINUOUS
10
5.83963
20
-3.0875
11
5.83963
21
-3.0275
0
LINE
8
BLACK
6
CONTINUOUS
10
5.83963
20
-3.0275
11
5.84023
21
-3.02449
0
LINE
8
BLACK
6
CONTINUOUS
10
5.84023
20
-3.02449
11
5.84193
21
-3.02193
0
LINE
8
BLACK
6
CONTINUOUS
10
5.84193
20
-3.02193
11
5.84449
21
-3.02023
0
LINE
8
BLACK
6
CONTINUOUS
10
5.84449
20
-3.02023
11
5.8475
21
-3.01963
0
LINE
8
BLACK
6
CONTINUOUS
10
5.8475
20
-3.01963
11
5.9075
21
-3.01963
0
LINE
8
BLACK
6
CONTINUOUS
10
5.9075
20
-3.01963
11
5.91051
21
-3.02023
  0
ENDSEC
  0
EOF
