  0
SECTION
  2
HEADER
  9
$ANGBASE
  50
0.0
  9
$ANGDIR
  70
1
  9
$MEASUREMENT
  70
0
  0
ENDSEC
  0
SECTION
  2
TABLES
  0
TABLE
  2
LTYPE
  70
4
  0
LTYPE
  5
40F
  2
CONTINUOUS
  70
0
  3
Solid line
  72
65
  73
0
  40
0.0
  0
LTYPE
  5
410
  2
DASHDOT
 70
0
  3
Dash Dot ____ _ ____ _
 72
65
 73
4
 40
2.0
 49
1.25
 49
-0.25
 49
0.25
 49
-0.25
  0
LTYPE
  5
411
  2
DASHED
 70
0
  3
Dashed __ __ __ __ __
 72
65
 73
2
 40
0.75
 49
0.5
 49
-0.25
  0
LTYPE
  5
43B
  2
DOTTED
 70
0
  3
Dotted .  .  .  .
 72
65
 73
2
 40
0.2
 49
0.0
 49
-0.2
  0
ENDTAB
  0
TABLE
  2
STYLE
  70
4
  0
STYLE
  2
KICAD
  70
0
  40
0
  41
1
  42
1
  50
0
  71
0
  3
isocp.shx
  0
STYLE
  2
KICADB
  70
0
  40
0
  41
1
  42
1
  50
0
  71
0
  3
isocp.shx
  0
STYLE
  2
KICADI
  70
0
  40
0
  41
1
  42
1
  50
15
  71
0
  3
isocp.shx
  0
STYLE
  2
KICADBI
  70
0
  40
0
  41
1
  42
1
  50
15
  71
0
  3
isocp.shx
  0
ENDTAB
  0
TABLE
  2
LAYER
  70
1
  0
LAYER
  2
BLACK
  70
0
  62
7
  6
CONTINUOUS
  0
ENDTAB
  0
ENDSEC
  0
SECTION
  2
ENTITIES
0
LINE
8
BLACK
6
CONTINUOUS
10
5.49781
20
-4.47961
11
5.45844
21
-4.47961
0
LINE
8
BLACK
6
CONTINUOUS
10
5.45844
20
-4.47961
11
5.45844
21
-4.43039
0
LINE
8
BLACK
6
CONTINUOUS
10
5.45844
20
-4.43039
11
5.49781
21
-4.43039
0
LINE
8
BLACK
6
CONTINUOUS
10
5.49781
20
-4.43039
11
5.49781
21
-4.47961
0
LINE
8
BLACK
6
CONTINUOUS
10
5.57656
20
-4.47961
11
5.53719
21
-4.47961
0
LINE
8
BLACK
6
CONTINUOUS
10
5.53719
20
-4.47961
11
5.53719
21
-4.43039
0
LINE
8
BLACK
6
CONTINUOUS
10
5.53719
20
-4.43039
11
5.57656
21
-4.43039
0
LINE
8
BLACK
6
CONTINUOUS
10
5.57656
20
-4.43039
11
5.57656
21
-4.47961
0
LINE
8
BLACK
6
CONTINUOUS
10
5.25986
20
-4.39546
11
5.18896
21
-4.39546
0
LINE
8
BLACK
6
CONTINUOUS
10
5.18896
20
-4.39546
11
5.18896
21
-4.29706
0
LINE
8
BLACK
6
CONTINUOUS
10
5.18896
20
-4.29706
11
5.25986
21
-4.29706
0
LINE
8
BLACK
6
CONTINUOUS
10
5.25986
20
-4.29706
11
5.25986
21
-4.39546
0
LINE
8
BLACK
6
CONTINUOUS
10
5.83986
20
-4.39546
11
5.76896
21
-4.39546
0
LINE
8
BLACK
6
CONTINUOUS
10
5.76896
20
-4.39546
11
5.76896
21
-4.29706
0
LINE
8
BLACK
6
CONTINUOUS
10
5.76896
20
-4.29706
11
5.83986
21
-4.29706
0
LINE
8
BLACK
6
CONTINUOUS
10
5.83986
20
-4.29706
11
5.83986
21
-4.39546
0
LINE
8
BLACK
6
CONTINUOUS
10
5.25986
20
-4.23806
11
5.18896
21
-4.23806
0
LINE
8
BLACK
6
CONTINUOUS
10
5.18896
20
-4.23806
11
5.18896
21
-4.13966
0
LINE
8
BLACK
6
CONTINUOUS
10
5.18896
20
-4.13966
11
5.25986
21
-4.13966
0
LINE
8
BLACK
6
CONTINUOUS
10
5.25986
20
-4.13966
11
5.25986
21
-4.23806
0
LINE
8
BLACK
6
CONTINUOUS
10
5.83986
20
-4.23806
11
5.76896
21
-4.23806
0
LINE
8
BLACK
6
CONTINUOUS
10
5.76896
20
-4.23806
11
5.76896
21
-4.13966
0
LINE
8
BLACK
6
CONTINUOUS
10
5.76896
20
-4.13966
11
5.83986
21
-4.13966
0
LINE
8
BLACK
6
CONTINUOUS
10
5.83986
20
-4.13966
11
5.83986
21
-4.23806
0
LINE
8
BLACK
6
CONTINUOUS
10
5.25902
20
-4.10661
11
5.2098
21
-4.10661
0
LINE
8
BLACK
6
CONTINUOUS
10
5.2098
20
-4.10661
11
5.2098
21
-4.06724
0
LINE
8
BLACK
6
CONTINUOUS
10
5.2098
20
-4.06724
11
5.25902
21
-4.06724
0
LINE
8
BLACK
6
CONTINUOUS
10
5.25902
20
-4.06724
11
5.25902
21
-4.10661
0
LINE
8
BLACK
6
CONTINUOUS
10
5.63236
20
-4.05146
11
5.5615
21
-4.05146
0
LINE
8
BLACK
6
CONTINUOUS
10
5.5615
20
-4.05146
11
5.5615
21
-3.96366
0
LINE
8
BLACK
6
CONTINUOUS
10
5.5615
20
-3.96366
11
5.63236
21
-3.96366
0
LINE
8
BLACK
6
CONTINUOUS
10
5.63236
20
-3.96366
11
5.63236
21
-4.05146
0
LINE
8
BLACK
6
CONTINUOUS
10
5.74732
20
-4.05146
11
5.67646
21
-4.05146
0
LINE
8
BLACK
6
CONTINUOUS
10
5.67646
20
-4.05146
11
5.67646
21
-3.96366
0
LINE
8
BLACK
6
CONTINUOUS
10
5.67646
20
-3.96366
11
5.74732
21
-3.96366
0
LINE
8
BLACK
6
CONTINUOUS
10
5.74732
20
-3.96366
11
5.74732
21
-4.05146
0
LINE
8
BLACK
6
CONTINUOUS
10
5.25902
20
-4.02787
11
5.2098
21
-4.02787
0
LINE
8
BLACK
6
CONTINUOUS
10
5.2098
20
-4.02787
11
5.2098
21
-3.9885
0
LINE
8
BLACK
6
CONTINUOUS
10
5.2098
20
-3.9885
11
5.25902
21
-3.9885
0
LINE
8
BLACK
6
CONTINUOUS
10
5.25902
20
-3.9885
11
5.25902
21
-4.02787
0
LINE
8
BLACK
6
CONTINUOUS
10
5.06236
20
-4.02146
11
4.9915
21
-4.02146
0
LINE
8
BLACK
6
CONTINUOUS
10
4.9915
20
-4.02146
11
4.9915
21
-3.93366
0
LINE
8
BLACK
6
CONTINUOUS
10
4.9915
20
-3.93366
11
5.06236
21
-3.93366
0
LINE
8
BLACK
6
CONTINUOUS
10
5.06236
20
-3.93366
11
5.06236
21
-4.02146
0
LINE
8
BLACK
6
CONTINUOUS
10
5.17732
20
-4.02146
11
5.10646
21
-4.02146
0
LINE
8
BLACK
6
CONTINUOUS
10
5.10646
20
-4.02146
11
5.10646
21
-3.93366
0
LINE
8
BLACK
6
CONTINUOUS
10
5.10646
20
-3.93366
11
5.17732
21
-3.93366
0
LINE
8
BLACK
6
CONTINUOUS
10
5.17732
20
-3.93366
11
5.17732
21
-4.02146
0
LINE
8
BLACK
6
CONTINUOUS
10
5.69902
20
-3.85661
11
5.6498
21
-3.85661
0
LINE
8
BLACK
6
CONTINUOUS
10
5.6498
20
-3.85661
11
5.6498
21
-3.81724
0
LINE
8
BLACK
6
CONTINUOUS
10
5.6498
20
-3.81724
11
5.69902
21
-3.81724
0
LINE
8
BLACK
6
CONTINUOUS
10
5.69902
20
-3.81724
11
5.69902
21
-3.85661
0
LINE
8
BLACK
6
CONTINUOUS
10
5.69902
20
-3.77787
11
5.6498
21
-3.77787
0
LINE
8
BLACK
6
CONTINUOUS
10
5.6498
20
-3.77787
11
5.6498
21
-3.7385
0
LINE
8
BLACK
6
CONTINUOUS
10
5.6498
20
-3.7385
11
5.69902
21
-3.7385
0
LINE
8
BLACK
6
CONTINUOUS
10
5.69902
20
-3.7385
11
5.69902
21
-3.77787
0
LINE
8
BLACK
6
CONTINUOUS
10
5.37146
20
-3.74337
11
5.32815
21
-3.74337
0
LINE
8
BLACK
6
CONTINUOUS
10
5.32815
20
-3.74337
11
5.32815
21
-3.72762
0
LINE
8
BLACK
6
CONTINUOUS
10
5.32815
20
-3.72762
11
5.37146
21
-3.72762
0
LINE
8
BLACK
6
CONTINUOUS
10
5.37146
20
-3.72762
11
5.37146
21
-3.74337
0
LINE
8
BLACK
6
CONTINUOUS
10
5.59587
20
-3.74337
11
5.55256
21
-3.74337
0
LINE
8
BLACK
6
CONTINUOUS
10
5.55256
20
-3.74337
11
5.55256
21
-3.72762
0
LINE
8
BLACK
6
CONTINUOUS
10
5.55256
20
-3.72762
11
5.59587
21
-3.72762
0
LINE
8
BLACK
6
CONTINUOUS
10
5.59587
20
-3.72762
11
5.59587
21
-3.74337
0
LINE
8
BLACK
6
CONTINUOUS
10
6.02
20
-3.73874
11
5.96882
21
-3.73874
0
LINE
8
BLACK
6
CONTINUOUS
10
5.96882
20
-3.73874
11
5.96882
21
-3.71118
0
LINE
8
BLACK
6
CONTINUOUS
10
5.96882
20
-3.71118
11
6.02
21
-3.71118
0
LINE
8
BLACK
6
CONTINUOUS
10
6.02
20
-3.71118
11
6.02
21
-3.73874
0
LINE
8
BLACK
6
CONTINUOUS
10
5.37146
20
-3.71778
11
5.32815
21
-3.71778
0
LINE
8
BLACK
6
CONTINUOUS
10
5.32815
20
-3.71778
11
5.32815
21
-3.70203
0
LINE
8
BLACK
6
CONTINUOUS
10
5.32815
20
-3.70203
11
5.37146
21
-3.70203
0
LINE
8
BLACK
6
CONTINUOUS
10
5.37146
20
-3.70203
11
5.37146
21
-3.71778
0
LINE
8
BLACK
6
CONTINUOUS
10
5.59587
20
-3.71778
11
5.55256
21
-3.71778
0
LINE
8
BLACK
6
CONTINUOUS
10
5.55256
20
-3.71778
11
5.55256
21
-3.70203
0
LINE
8
BLACK
6
CONTINUOUS
10
5.55256
20
-3.70203
11
5.59587
21
-3.70203
0
LINE
8
BLACK
6
CONTINUOUS
10
5.59587
20
-3.70203
11
5.59587
21
-3.71778
0
LINE
8
BLACK
6
CONTINUOUS
10
5.37146
20
-3.69219
11
5.32815
21
-3.69219
0
LINE
8
BLACK
6
CONTINUOUS
10
5.32815
20
-3.69219
11
5.32815
21
-3.67644
0
LINE
8
BLACK
6
CONTINUOUS
10
5.32815
20
-3.67644
11
5.37146
21
-3.67644
0
LINE
8
BLACK
6
CONTINUOUS
10
5.37146
20
-3.67644
11
5.37146
21
-3.69219
0
LINE
8
BLACK
6
CONTINUOUS
10
5.59587
20
-3.69219
11
5.55256
21
-3.69219
0
LINE
8
BLACK
6
CONTINUOUS
10
5.55256
20
-3.69219
11
5.55256
21
-3.67644
0
LINE
8
BLACK
6
CONTINUOUS
10
5.55256
20
-3.67644
11
5.59587
21
-3.67644
0
LINE
8
BLACK
6
CONTINUOUS
10
5.59587
20
-3.67644
11
5.59587
21
-3.69219
0
LINE
8
BLACK
6
CONTINUOUS
10
5.37146
20
-3.6666
11
5.32815
21
-3.6666
0
LINE
8
BLACK
6
CONTINUOUS
10
5.32815
20
-3.6666
11
5.32815
21
-3.65085
0
LINE
8
BLACK
6
CONTINUOUS
10
5.32815
20
-3.65085
11
5.37146
21
-3.65085
0
LINE
8
BLACK
6
CONTINUOUS
10
5.37146
20
-3.65085
11
5.37146
21
-3.6666
0
LINE
8
BLACK
6
CONTINUOUS
10
5.59587
20
-3.6666
11
5.55256
21
-3.6666
0
LINE
8
BLACK
6
CONTINUOUS
10
5.55256
20
-3.6666
11
5.55256
21
-3.65085
0
LINE
8
BLACK
6
CONTINUOUS
10
5.55256
20
-3.65085
11
5.59587
21
-3.65085
0
LINE
8
BLACK
6
CONTINUOUS
10
5.59587
20
-3.65085
11
5.59587
21
-3.6666
0
LINE
8
BLACK
6
CONTINUOUS
10
6.02
20
-3.66394
11
5.96882
21
-3.66394
0
LINE
8
BLACK
6
CONTINUOUS
10
5.96882
20
-3.66394
11
5.96882
21
-3.63638
0
LINE
8
BLACK
6
CONTINUOUS
10
5.96882
20
-3.63638
11
6.02
21
-3.63638
0
LINE
8
BLACK
6
CONTINUOUS
10
6.02
20
-3.63638
11
6.02
21
-3.66394
0
LINE
8
BLACK
6
CONTINUOUS
10
5.37146
20
-3.64101
11
5.32815
21
-3.64101
0
LINE
8
BLACK
6
CONTINUOUS
10
5.32815
20
-3.64101
11
5.32815
21
-3.62526
0
LINE
8
BLACK
6
CONTINUOUS
10
5.32815
20
-3.62526
11
5.37146
21
-3.62526
0
LINE
8
BLACK
6
CONTINUOUS
10
5.37146
20
-3.62526
11
5.37146
21
-3.64101
0
LINE
8
BLACK
6
CONTINUOUS
10
5.59587
20
-3.64101
11
5.55256
21
-3.64101
0
LINE
8
BLACK
6
CONTINUOUS
10
5.55256
20
-3.64101
11
5.55256
21
-3.62526
0
LINE
8
BLACK
6
CONTINUOUS
10
5.55256
20
-3.62526
11
5.59587
21
-3.62526
0
LINE
8
BLACK
6
CONTINUOUS
10
5.59587
20
-3.62526
11
5.59587
21
-3.64101
0
LINE
8
BLACK
6
CONTINUOUS
10
5.37146
20
-3.61541
11
5.32815
21
-3.61541
0
LINE
8
BLACK
6
CONTINUOUS
10
5.32815
20
-3.61541
11
5.32815
21
-3.59967
0
LINE
8
BLACK
6
CONTINUOUS
10
5.32815
20
-3.59967
11
5.37146
21
-3.59967
0
LINE
8
BLACK
6
CONTINUOUS
10
5.37146
20
-3.59967
11
5.37146
21
-3.61541
0
LINE
8
BLACK
6
CONTINUOUS
10
5.59587
20
-3.61541
11
5.55256
21
-3.61541
0
LINE
8
BLACK
6
CONTINUOUS
10
5.55256
20
-3.61541
11
5.55256
21
-3.59967
0
LINE
8
BLACK
6
CONTINUOUS
10
5.55256
20
-3.59967
11
5.59587
21
-3.59967
0
LINE
8
BLACK
6
CONTINUOUS
10
5.59587
20
-3.59967
11
5.59587
21
-3.61541
0
LINE
8
BLACK
6
CONTINUOUS
10
4.82
20
-3.60874
11
4.76882
21
-3.60874
0
LINE
8
BLACK
6
CONTINUOUS
10
4.76882
20
-3.60874
11
4.76882
21
-3.58118
0
LINE
8
BLACK
6
CONTINUOUS
10
4.76882
20
-3.58118
11
4.82
21
-3.58118
0
LINE
8
BLACK
6
CONTINUOUS
10
4.82
20
-3.58118
11
4.82
21
-3.60874
0
LINE
8
BLACK
6
CONTINUOUS
10
5.37146
20
-3.58982
11
5.32815
21
-3.58982
0
LINE
8
BLACK
6
CONTINUOUS
10
5.32815
20
-3.58982
11
5.32815
21
-3.57408
0
LINE
8
BLACK
6
CONTINUOUS
10
5.32815
20
-3.57408
11
5.37146
21
-3.57408
0
LINE
8
BLACK
6
CONTINUOUS
10
5.37146
20
-3.57408
11
5.37146
21
-3.58982
0
LINE
8
BLACK
6
CONTINUOUS
10
5.59587
20
-3.58982
11
5.55256
21
-3.58982
0
LINE
8
BLACK
6
CONTINUOUS
10
5.55256
20
-3.58982
11
5.55256
21
-3.57408
0
LINE
8
BLACK
6
CONTINUOUS
10
5.55256
20
-3.57408
11
5.59587
21
-3.57408
0
LINE
8
BLACK
6
CONTINUOUS
10
5.59587
20
-3.57408
11
5.59587
21
-3.58982
0
LINE
8
BLACK
6
CONTINUOUS
10
5.78362
20
-3.56437
11
5.7226
21
-3.56437
0
LINE
8
BLACK
6
CONTINUOUS
10
5.7226
20
-3.56437
11
5.7226
21
-3.54075
0
LINE
8
BLACK
6
CONTINUOUS
10
5.7226
20
-3.54075
11
5.78362
21
-3.54075
0
LINE
8
BLACK
6
CONTINUOUS
10
5.78362
20
-3.54075
11
5.78362
21
-3.56437
0
LINE
8
BLACK
6
CONTINUOUS
10
5.99622
20
-3.56437
11
5.9352
21
-3.56437
0
LINE
8
BLACK
6
CONTINUOUS
10
5.9352
20
-3.56437
11
5.9352
21
-3.54075
0
LINE
8
BLACK
6
CONTINUOUS
10
5.9352
20
-3.54075
11
5.99622
21
-3.54075
0
LINE
8
BLACK
6
CONTINUOUS
10
5.99622
20
-3.54075
11
5.99622
21
-3.56437
0
LINE
8
BLACK
6
CONTINUOUS
10
5.37146
20
-3.56423
11
5.32815
21
-3.56423
0
LINE
8
BLACK
6
CONTINUOUS
10
5.32815
20
-3.56423
11
5.32815
21
-3.54849
0
LINE
8
BLACK
6
CONTINUOUS
10
5.32815
20
-3.54849
11
5.37146
21
-3.54849
0
LINE
8
BLACK
6
CONTINUOUS
10
5.37146
20
-3.54849
11
5.37146
21
-3.56423
0
LINE
8
BLACK
6
CONTINUOUS
10
5.59587
20
-3.56423
11
5.55256
21
-3.56423
0
LINE
8
BLACK
6
CONTINUOUS
10
5.55256
20
-3.56423
11
5.55256
21
-3.54849
0
LINE
8
BLACK
6
CONTINUOUS
10
5.55256
20
-3.54849
11
5.59587
21
-3.54849
0
LINE
8
BLACK
6
CONTINUOUS
10
5.59587
20
-3.54849
11
5.59587
21
-3.56423
0
LINE
8
BLACK
6
CONTINUOUS
10
5.37146
20
-3.53864
11
5.32815
21
-3.53864
0
LINE
8
BLACK
6
CONTINUOUS
10
5.32815
20
-3.53864
11
5.32815
21
-3.5229
0
LINE
8
BLACK
6
CONTINUOUS
10
5.32815
20
-3.5229
11
5.37146
21
-3.5229
0
LINE
8
BLACK
6
CONTINUOUS
10
5.37146
20
-3.5229
11
5.37146
21
-3.53864
0
LINE
8
BLACK
6
CONTINUOUS
10
5.59587
20
-3.53864
11
5.55256
21
-3.53864
0
LINE
8
BLACK
6
CONTINUOUS
10
5.55256
20
-3.53864
11
5.55256
21
-3.5229
0
LINE
8
BLACK
6
CONTINUOUS
10
5.55256
20
-3.5229
11
5.59587
21
-3.5229
0
LINE
8
BLACK
6
CONTINUOUS
10
5.59587
20
-3.5229
11
5.59587
21
-3.53864
0
LINE
8
BLACK
6
CONTINUOUS
10
4.82
20
-3.53394
11
4.76882
21
-3.53394
0
LINE
8
BLACK
6
CONTINUOUS
10
4.76882
20
-3.53394
11
4.76882
21
-3.50638
0
LINE
8
BLACK
6
CONTINUOUS
10
4.76882
20
-3.50638
11
4.82
21
-3.50638
0
LINE
8
BLACK
6
CONTINUOUS
10
4.82
20
-3.50638
11
4.82
21
-3.53394
0
LINE
8
BLACK
6
CONTINUOUS
10
5.78362
20
-3.51437
11
5.7226
21
-3.51437
0
LINE
8
BLACK
6
CONTINUOUS
10
5.7226
20
-3.51437
11
5.7226
21
-3.49075
0
LINE
8
BLACK
6
CONTINUOUS
10
5.7226
20
-3.49075
11
5.78362
21
-3.49075
0
LINE
8
BLACK
6
CONTINUOUS
10
5.78362
20
-3.49075
11
5.78362
21
-3.51437
0
LINE
8
BLACK
6
CONTINUOUS
10
5.99622
20
-3.51437
11
5.9352
21
-3.51437
0
LINE
8
BLACK
6
CONTINUOUS
10
5.9352
20
-3.51437
11
5.9352
21
-3.49075
0
LINE
8
BLACK
6
CONTINUOUS
10
5.9352
20
-3.49075
11
5.99622
21
-3.49075
0
LINE
8
BLACK
6
CONTINUOUS
10
5.99622
20
-3.49075
11
5.99622
21
-3.51437
0
LINE
8
BLACK
6
CONTINUOUS
10
5.37146
20
-3.51305
11
5.32815
21
-3.51305
0
LINE
8
BLACK
6
CONTINUOUS
10
5.32815
20
-3.51305
11
5.32815
21
-3.4973
0
LINE
8
BLACK
6
CONTINUOUS
10
5.32815
20
-3.4973
11
5.37146
21
-3.4973
0
LINE
8
BLACK
6
CONTINUOUS
10
5.37146
20
-3.4973
11
5.37146
21
-3.51305
0
LINE
8
BLACK
6
CONTINUOUS
10
5.59587
20
-3.51305
11
5.55256
21
-3.51305
0
LINE
8
BLACK
6
CONTINUOUS
10
5.55256
20
-3.51305
11
5.55256
21
-3.4973
0
LINE
8
BLACK
6
CONTINUOUS
10
5.55256
20
-3.4973
11
5.59587
21
-3.4973
0
LINE
8
BLACK
6
CONTINUOUS
10
5.59587
20
-3.4973
11
5.59587
21
-3.51305
0
LINE
8
BLACK
6
CONTINUOUS
10
5.37146
20
-3.48746
11
5.32815
21
-3.48746
0
LINE
8
BLACK
6
CONTINUOUS
10
5.32815
20
-3.48746
11
5.32815
21
-3.47171
0
LINE
8
BLACK
6
CONTINUOUS
10
5.32815
20
-3.47171
11
5.37146
21
-3.47171
0
LINE
8
BLACK
6
CONTINUOUS
10
5.37146
20
-3.47171
11
5.37146
21
-3.48746
0
LINE
8
BLACK
6
CONTINUOUS
10
5.59587
20
-3.48746
11
5.55256
21
-3.48746
0
LINE
8
BLACK
6
CONTINUOUS
10
5.55256
20
-3.48746
11
5.55256
21
-3.47171
0
LINE
8
BLACK
6
CONTINUOUS
10
5.55256
20
-3.47171
11
5.59587
21
-3.47171
0
LINE
8
BLACK
6
CONTINUOUS
10
5.59587
20
-3.47171
11
5.59587
21
-3.48746
0
LINE
8
BLACK
6
CONTINUOUS
10
5.18472
20
-3.48217
11
5.14535
21
-3.48217
0
LINE
8
BLACK
6
CONTINUOUS
10
5.14535
20
-3.48217
11
5.14535
21
-3.43295
0
LINE
8
BLACK
6
CONTINUOUS
10
5.14535
20
-3.43295
11
5.18472
21
-3.43295
0
LINE
8
BLACK
6
CONTINUOUS
10
5.18472
20
-3.43295
11
5.18472
21
-3.48217
0
LINE
8
BLACK
6
CONTINUOUS
10
5.26346
20
-3.48217
11
5.22409
21
-3.48217
0
LINE
8
BLACK
6
CONTINUOUS
10
5.22409
20
-3.48217
11
5.22409
21
-3.43295
0
LINE
8
BLACK
6
CONTINUOUS
10
5.22409
20
-3.43295
11
5.26346
21
-3.43295
0
LINE
8
BLACK
6
CONTINUOUS
10
5.26346
20
-3.43295
11
5.26346
21
-3.48217
0
LINE
8
BLACK
6
CONTINUOUS
10
5.78362
20
-3.46437
11
5.7226
21
-3.46437
0
LINE
8
BLACK
6
CONTINUOUS
10
5.7226
20
-3.46437
11
5.7226
21
-3.44075
0
LINE
8
BLACK
6
CONTINUOUS
10
5.7226
20
-3.44075
11
5.78362
21
-3.44075
0
LINE
8
BLACK
6
CONTINUOUS
10
5.78362
20
-3.44075
11
5.78362
21
-3.46437
0
LINE
8
BLACK
6
CONTINUOUS
10
5.99622
20
-3.46437
11
5.9352
21
-3.46437
0
LINE
8
BLACK
6
CONTINUOUS
10
5.9352
20
-3.46437
11
5.9352
21
-3.44075
0
LINE
8
BLACK
6
CONTINUOUS
10
5.9352
20
-3.44075
11
5.99622
21
-3.44075
0
LINE
8
BLACK
6
CONTINUOUS
10
5.99622
20
-3.44075
11
5.99622
21
-3.46437
0
LINE
8
BLACK
6
CONTINUOUS
10
5.37146
20
-3.46187
11
5.32815
21
-3.46187
0
LINE
8
BLACK
6
CONTINUOUS
10
5.32815
20
-3.46187
11
5.32815
21
-3.44612
0
LINE
8
BLACK
6
CONTINUOUS
10
5.32815
20
-3.44612
11
5.37146
21
-3.44612
0
LINE
8
BLACK
6
CONTINUOUS
10
5.37146
20
-3.44612
11
5.37146
21
-3.46187
0
LINE
8
BLACK
6
CONTINUOUS
10
5.59587
20
-3.46187
11
5.55256
21
-3.46187
0
LINE
8
BLACK
6
CONTINUOUS
10
5.55256
20
-3.46187
11
5.55256
21
-3.44612
0
LINE
8
BLACK
6
CONTINUOUS
10
5.55256
20
-3.44612
11
5.59587
21
-3.44612
0
LINE
8
BLACK
6
CONTINUOUS
10
5.59587
20
-3.44612
11
5.59587
21
-3.46187
0
LINE
8
BLACK
6
CONTINUOUS
10
5.12
20
-3.42134
11
5.06882
21
-3.42134
0
LINE
8
BLACK
6
CONTINUOUS
10
5.06882
20
-3.42134
11
5.06882
21
-3.39378
0
LINE
8
BLACK
6
CONTINUOUS
10
5.06882
20
-3.39378
11
5.12
21
-3.39378
0
LINE
8
BLACK
6
CONTINUOUS
10
5.12
20
-3.39378
11
5.12
21
-3.42134
0
LINE
8
BLACK
6
CONTINUOUS
10
5.78362
20
-3.41437
11
5.7226
21
-3.41437
0
LINE
8
BLACK
6
CONTINUOUS
10
5.7226
20
-3.41437
11
5.7226
21
-3.39075
0
LINE
8
BLACK
6
CONTINUOUS
10
5.7226
20
-3.39075
11
5.78362
21
-3.39075
0
LINE
8
BLACK
6
CONTINUOUS
10
5.78362
20
-3.39075
11
5.78362
21
-3.41437
0
LINE
8
BLACK
6
CONTINUOUS
10
5.99622
20
-3.41437
11
5.9352
21
-3.41437
0
LINE
8
BLACK
6
CONTINUOUS
10
5.9352
20
-3.41437
11
5.9352
21
-3.39075
0
LINE
8
BLACK
6
CONTINUOUS
10
5.9352
20
-3.39075
11
5.99622
21
-3.39075
0
LINE
8
BLACK
6
CONTINUOUS
10
5.99622
20
-3.39075
11
5.99622
21
-3.41437
0
LINE
8
BLACK
6
CONTINUOUS
10
5.95902
20
-3.34661
11
5.9098
21
-3.34661
0
LINE
8
BLACK
6
CONTINUOUS
10
5.9098
20
-3.34661
11
5.9098
21
-3.30724
0
LINE
8
BLACK
6
CONTINUOUS
10
5.9098
20
-3.30724
11
5.95902
21
-3.30724
0
LINE
8
BLACK
6
CONTINUOUS
10
5.95902
20
-3.30724
11
5.95902
21
-3.34661
0
LINE
8
BLACK
6
CONTINUOUS
10
5.12
20
-3.34654
11
5.06882
21
-3.34654
0
LINE
8
BLACK
6
CONTINUOUS
10
5.06882
20
-3.34654
11
5.06882
21
-3.31898
0
LINE
8
BLACK
6
CONTINUOUS
10
5.06882
20
-3.31898
11
5.12
21
-3.31898
0
LINE
8
BLACK
6
CONTINUOUS
10
5.12
20
-3.31898
11
5.12
21
-3.34654
0
LINE
8
BLACK
6
CONTINUOUS
10
5.75736
20
-3.33146
11
5.6865
21
-3.33146
0
LINE
8
BLACK
6
CONTINUOUS
10
5.6865
20
-3.33146
11
5.6865
21
-3.24366
0
LINE
8
BLACK
6
CONTINUOUS
10
5.6865
20
-3.24366
11
5.75736
21
-3.24366
0
LINE
8
BLACK
6
CONTINUOUS
10
5.75736
20
-3.24366
11
5.75736
21
-3.33146
0
LINE
8
BLACK
6
CONTINUOUS
10
5.87232
20
-3.33146
11
5.80146
21
-3.33146
0
LINE
8
BLACK
6
CONTINUOUS
10
5.80146
20
-3.33146
11
5.80146
21
-3.24366
0
LINE
8
BLACK
6
CONTINUOUS
10
5.80146
20
-3.24366
11
5.87232
21
-3.24366
0
LINE
8
BLACK
6
CONTINUOUS
10
5.87232
20
-3.24366
11
5.87232
21
-3.33146
0
LINE
8
BLACK
6
CONTINUOUS
10
5.55781
20
-3.28961
11
5.51844
21
-3.28961
0
LINE
8
BLACK
6
CONTINUOUS
10
5.51844
20
-3.28961
11
5.51844
21
-3.24039
0
LINE
8
BLACK
6
CONTINUOUS
10
5.51844
20
-3.24039
11
5.55781
21
-3.24039
0
LINE
8
BLACK
6
CONTINUOUS
10
5.55781
20
-3.24039
11
5.55781
21
-3.28961
0
LINE
8
BLACK
6
CONTINUOUS
10
5.63656
20
-3.28961
11
5.59719
21
-3.28961
0
LINE
8
BLACK
6
CONTINUOUS
10
5.59719
20
-3.28961
11
5.59719
21
-3.24039
0
LINE
8
BLACK
6
CONTINUOUS
10
5.59719
20
-3.24039
11
5.63656
21
-3.24039
0
LINE
8
BLACK
6
CONTINUOUS
10
5.63656
20
-3.24039
11
5.63656
21
-3.28961
0
LINE
8
BLACK
6
CONTINUOUS
10
5.95902
20
-3.26787
11
5.9098
21
-3.26787
0
LINE
8
BLACK
6
CONTINUOUS
10
5.9098
20
-3.26787
11
5.9098
21
-3.2285
0
LINE
8
BLACK
6
CONTINUOUS
10
5.9098
20
-3.2285
11
5.95902
21
-3.2285
0
LINE
8
BLACK
6
CONTINUOUS
10
5.95902
20
-3.2285
11
5.95902
21
-3.26787
  0
ENDSEC
  0
EOF
