  0
SECTION
  2
HEADER
  9
$ANGBASE
  50
0.0
  9
$ANGDIR
  70
1
  9
$MEASUREMENT
  70
0
  0
ENDSEC
  0
SECTION
  2
TABLES
  0
TABLE
  2
LTYPE
  70
4
  0
LTYPE
  5
40F
  2
CONTINUOUS
  70
0
  3
Solid line
  72
65
  73
0
  40
0.0
  0
LTYPE
  5
410
  2
DASHDOT
 70
0
  3
Dash Dot ____ _ ____ _
 72
65
 73
4
 40
2.0
 49
1.25
 49
-0.25
 49
0.25
 49
-0.25
  0
LTYPE
  5
411
  2
DASHED
 70
0
  3
Dashed __ __ __ __ __
 72
65
 73
2
 40
0.75
 49
0.5
 49
-0.25
  0
LTYPE
  5
43B
  2
DOTTED
 70
0
  3
Dotted .  .  .  .
 72
65
 73
2
 40
0.2
 49
0.0
 49
-0.2
  0
ENDTAB
  0
TABLE
  2
STYLE
  70
4
  0
STYLE
  2
KICAD
  70
0
  40
0
  41
1
  42
1
  50
0
  71
0
  3
isocp.shx
  0
STYLE
  2
KICADB
  70
0
  40
0
  41
1
  42
1
  50
0
  71
0
  3
isocp.shx
  0
STYLE
  2
KICADI
  70
0
  40
0
  41
1
  42
1
  50
15
  71
0
  3
isocp.shx
  0
STYLE
  2
KICADBI
  70
0
  40
0
  41
1
  42
1
  50
15
  71
0
  3
isocp.shx
  0
ENDTAB
  0
TABLE
  2
LAYER
  70
1
  0
LAYER
  2
BLACK
  70
0
  62
7
  6
CONTINUOUS
  0
ENDTAB
  0
ENDSEC
  0
SECTION
  2
ENTITIES
0
LINE
8
BLACK
6
CONTINUOUS
10
5.02645
20
-3.89096
11
5.02715
21
-3.89285
0
LINE
8
BLACK
6
CONTINUOUS
10
5.02715
20
-3.89285
11
5.02715
21
-3.89552
0
LINE
8
BLACK
6
CONTINUOUS
10
5.02715
20
-3.89552
11
5.03732
21
-3.89552
0
LINE
8
BLACK
6
CONTINUOUS
10
5.03732
20
-3.89552
11
5.03833
21
-3.8957
0
LINE
8
BLACK
6
CONTINUOUS
10
5.03833
20
-3.8957
11
5.03987
21
-3.897
0
LINE
8
BLACK
6
CONTINUOUS
10
5.03987
20
-3.897
11
5.04022
21
-3.89899
0
LINE
8
BLACK
6
CONTINUOUS
10
5.04022
20
-3.89899
11
5.03921
21
-3.90074
0
LINE
8
BLACK
6
CONTINUOUS
10
5.03921
20
-3.90074
11
5.03732
21
-3.90143
0
LINE
8
BLACK
6
CONTINUOUS
10
5.03732
20
-3.90143
11
5.02715
21
-3.90143
0
LINE
8
BLACK
6
CONTINUOUS
10
5.02715
20
-3.90143
11
5.02715
21
-3.91723
0
LINE
8
BLACK
6
CONTINUOUS
10
5.02715
20
-3.91723
11
5.02697
21
-3.91824
0
LINE
8
BLACK
6
CONTINUOUS
10
5.02697
20
-3.91824
11
5.02682
21
-3.91841
0
LINE
8
BLACK
6
CONTINUOUS
10
5.02682
20
-3.91841
11
5.02679
21
-3.91863
0
LINE
8
BLACK
6
CONTINUOUS
10
5.02679
20
-3.91863
11
5.02619
21
-3.91917
0
LINE
8
BLACK
6
CONTINUOUS
10
5.02619
20
-3.91917
11
5.02567
21
-3.91978
0
LINE
8
BLACK
6
CONTINUOUS
10
5.02567
20
-3.91978
11
5.02545
21
-3.91982
0
LINE
8
BLACK
6
CONTINUOUS
10
5.02545
20
-3.91982
11
5.02528
21
-3.91997
0
LINE
8
BLACK
6
CONTINUOUS
10
5.02528
20
-3.91997
11
5.02447
21
-3.91999
0
LINE
8
BLACK
6
CONTINUOUS
10
5.02447
20
-3.91999
11
5.02368
21
-3.92013
0
LINE
8
BLACK
6
CONTINUOUS
10
5.02368
20
-3.92013
11
5.02348
21
-3.92002
0
LINE
8
BLACK
6
CONTINUOUS
10
5.02348
20
-3.92002
11
5.02326
21
-3.92003
0
LINE
8
BLACK
6
CONTINUOUS
10
5.02326
20
-3.92003
11
4.99514
21
-3.91065
0
LINE
8
BLACK
6
CONTINUOUS
10
4.99514
20
-3.91065
11
4.99424
21
-3.91016
0
LINE
8
BLACK
6
CONTINUOUS
10
4.99424
20
-3.91016
11
4.99318
21
-3.90844
0
LINE
8
BLACK
6
CONTINUOUS
10
4.99318
20
-3.90844
11
4.99347
21
-3.90645
0
LINE
8
BLACK
6
CONTINUOUS
10
4.99347
20
-3.90645
11
4.99499
21
-3.90511
0
LINE
8
BLACK
6
CONTINUOUS
10
4.99499
20
-3.90511
11
4.997
21
-3.90505
0
LINE
8
BLACK
6
CONTINUOUS
10
4.997
20
-3.90505
11
5.02124
21
-3.91313
0
LINE
8
BLACK
6
CONTINUOUS
10
5.02124
20
-3.91313
11
5.02124
21
-3.90143
0
LINE
8
BLACK
6
CONTINUOUS
10
5.02124
20
-3.90143
11
5.01107
21
-3.90143
0
LINE
8
BLACK
6
CONTINUOUS
10
5.01107
20
-3.90143
11
5.01006
21
-3.90125
0
LINE
8
BLACK
6
CONTINUOUS
10
5.01006
20
-3.90125
11
5.00851
21
-3.89995
0
LINE
8
BLACK
6
CONTINUOUS
10
5.00851
20
-3.89995
11
5.00816
21
-3.89796
0
LINE
8
BLACK
6
CONTINUOUS
10
5.00816
20
-3.89796
11
5.00917
21
-3.89622
0
LINE
8
BLACK
6
CONTINUOUS
10
5.00917
20
-3.89622
11
5.01107
21
-3.89552
0
LINE
8
BLACK
6
CONTINUOUS
10
5.01107
20
-3.89552
11
5.02124
21
-3.89552
0
LINE
8
BLACK
6
CONTINUOUS
10
5.02124
20
-3.89552
11
5.02124
21
-3.89285
0
LINE
8
BLACK
6
CONTINUOUS
10
5.02124
20
-3.89285
11
5.02142
21
-3.89184
0
LINE
8
BLACK
6
CONTINUOUS
10
5.02142
20
-3.89184
11
5.02272
21
-3.8903
0
LINE
8
BLACK
6
CONTINUOUS
10
5.02272
20
-3.8903
11
5.02471
21
-3.88995
0
LINE
8
BLACK
6
CONTINUOUS
10
5.02471
20
-3.88995
11
5.02645
21
-3.89096
0
LINE
8
BLACK
6
CONTINUOUS
10
5.03594
20
-3.87315
11
5.03621
21
-3.87313
0
LINE
8
BLACK
6
CONTINUOUS
10
5.03621
20
-3.87313
11
5.03683
21
-3.87357
0
LINE
8
BLACK
6
CONTINUOUS
10
5.03683
20
-3.87357
11
5.03753
21
-3.87389
0
LINE
8
BLACK
6
CONTINUOUS
10
5.03753
20
-3.87389
11
5.0394
21
-3.87577
0
LINE
8
BLACK
6
CONTINUOUS
10
5.0394
20
-3.87577
11
5.03963
21
-3.87609
0
LINE
8
BLACK
6
CONTINUOUS
10
5.03963
20
-3.87609
11
5.03973
21
-3.87616
0
LINE
8
BLACK
6
CONTINUOUS
10
5.03973
20
-3.87616
11
5.03977
21
-3.87629
0
LINE
8
BLACK
6
CONTINUOUS
10
5.03977
20
-3.87629
11
5.03977
21
-3.8763
0
LINE
8
BLACK
6
CONTINUOUS
10
5.03977
20
-3.8763
11
5.03987
21
-3.87638
0
LINE
8
BLACK
6
CONTINUOUS
10
5.03987
20
-3.87638
11
5.03989
21
-3.87646
0
LINE
8
BLACK
6
CONTINUOUS
10
5.03989
20
-3.87646
11
5.03999
21
-3.87661
0
LINE
8
BLACK
6
CONTINUOUS
10
5.03999
20
-3.87661
11
5.04006
21
-3.87737
0
LINE
8
BLACK
6
CONTINUOUS
10
5.04006
20
-3.87737
11
5.04026
21
-3.87811
0
LINE
8
BLACK
6
CONTINUOUS
10
5.04026
20
-3.87811
11
5.0402
21
-3.87823
0
LINE
8
BLACK
6
CONTINUOUS
10
5.0402
20
-3.87823
11
5.04022
21
-3.87837
0
LINE
8
BLACK
6
CONTINUOUS
10
5.04022
20
-3.87837
11
5.04016
21
-3.87848
0
LINE
8
BLACK
6
CONTINUOUS
10
5.04016
20
-3.87848
11
5.04017
21
-3.87862
0
LINE
8
BLACK
6
CONTINUOUS
10
5.04017
20
-3.87862
11
5.03973
21
-3.87925
0
LINE
8
BLACK
6
CONTINUOUS
10
5.03973
20
-3.87925
11
5.0394
21
-3.87994
0
LINE
8
BLACK
6
CONTINUOUS
10
5.0394
20
-3.87994
11
5.03753
21
-3.88182
0
LINE
8
BLACK
6
CONTINUOUS
10
5.03753
20
-3.88182
11
5.03721
21
-3.88204
0
LINE
8
BLACK
6
CONTINUOUS
10
5.03721
20
-3.88204
11
5.03713
21
-3.88215
0
LINE
8
BLACK
6
CONTINUOUS
10
5.03713
20
-3.88215
11
5.03701
21
-3.88218
0
LINE
8
BLACK
6
CONTINUOUS
10
5.03701
20
-3.88218
11
5.03669
21
-3.88241
0
LINE
8
BLACK
6
CONTINUOUS
10
5.03669
20
-3.88241
11
5.03592
21
-3.88247
0
LINE
8
BLACK
6
CONTINUOUS
10
5.03592
20
-3.88247
11
5.03518
21
-3.88267
0
LINE
8
BLACK
6
CONTINUOUS
10
5.03518
20
-3.88267
11
5.03494
21
-3.88256
0
LINE
8
BLACK
6
CONTINUOUS
10
5.03494
20
-3.88256
11
5.03468
21
-3.88258
0
LINE
8
BLACK
6
CONTINUOUS
10
5.03468
20
-3.88258
11
5.03405
21
-3.88214
0
LINE
8
BLACK
6
CONTINUOUS
10
5.03405
20
-3.88214
11
5.03335
21
-3.88182
0
LINE
8
BLACK
6
CONTINUOUS
10
5.03335
20
-3.88182
11
5.03148
21
-3.87994
0
LINE
8
BLACK
6
CONTINUOUS
10
5.03148
20
-3.87994
11
5.03125
21
-3.87962
0
LINE
8
BLACK
6
CONTINUOUS
10
5.03125
20
-3.87962
11
5.03115
21
-3.87955
0
LINE
8
BLACK
6
CONTINUOUS
10
5.03115
20
-3.87955
11
5.03111
21
-3.87942
0
LINE
8
BLACK
6
CONTINUOUS
10
5.03111
20
-3.87942
11
5.03111
21
-3.87942
0
LINE
8
BLACK
6
CONTINUOUS
10
5.03111
20
-3.87942
11
5.03101
21
-3.87933
0
LINE
8
BLACK
6
CONTINUOUS
10
5.03101
20
-3.87933
11
5.031
21
-3.87925
0
LINE
8
BLACK
6
CONTINUOUS
10
5.031
20
-3.87925
11
5.03089
21
-3.8791
0
LINE
8
BLACK
6
CONTINUOUS
10
5.03089
20
-3.8791
11
5.03082
21
-3.87834
0
LINE
8
BLACK
6
CONTINUOUS
10
5.03082
20
-3.87834
11
5.03062
21
-3.8776
0
LINE
8
BLACK
6
CONTINUOUS
10
5.03062
20
-3.8776
11
5.03068
21
-3.87748
0
LINE
8
BLACK
6
CONTINUOUS
10
5.03068
20
-3.87748
11
5.03066
21
-3.87734
0
LINE
8
BLACK
6
CONTINUOUS
10
5.03066
20
-3.87734
11
5.03073
21
-3.87723
0
LINE
8
BLACK
6
CONTINUOUS
10
5.03073
20
-3.87723
11
5.03071
21
-3.87709
0
LINE
8
BLACK
6
CONTINUOUS
10
5.03071
20
-3.87709
11
5.03115
21
-3.87646
0
LINE
8
BLACK
6
CONTINUOUS
10
5.03115
20
-3.87646
11
5.03148
21
-3.87577
0
LINE
8
BLACK
6
CONTINUOUS
10
5.03148
20
-3.87577
11
5.03335
21
-3.87389
0
LINE
8
BLACK
6
CONTINUOUS
10
5.03335
20
-3.87389
11
5.03367
21
-3.87367
0
LINE
8
BLACK
6
CONTINUOUS
10
5.03367
20
-3.87367
11
5.03375
21
-3.87356
0
LINE
8
BLACK
6
CONTINUOUS
10
5.03375
20
-3.87356
11
5.03387
21
-3.87353
0
LINE
8
BLACK
6
CONTINUOUS
10
5.03387
20
-3.87353
11
5.03419
21
-3.8733
0
LINE
8
BLACK
6
CONTINUOUS
10
5.03419
20
-3.8733
11
5.03496
21
-3.87324
0
LINE
8
BLACK
6
CONTINUOUS
10
5.03496
20
-3.87324
11
5.0357
21
-3.87304
0
LINE
8
BLACK
6
CONTINUOUS
10
5.0357
20
-3.87304
11
5.03594
21
-3.87315
0
LINE
8
BLACK
6
CONTINUOUS
10
5.02102
20
-3.83563
11
5.02116
21
-3.83562
0
LINE
8
BLACK
6
CONTINUOUS
10
5.02116
20
-3.83562
11
5.02866
21
-3.8375
0
LINE
8
BLACK
6
CONTINUOUS
10
5.02866
20
-3.8375
11
5.02956
21
-3.8379
0
LINE
8
BLACK
6
CONTINUOUS
10
5.02956
20
-3.8379
11
5.02958
21
-3.8379
0
LINE
8
BLACK
6
CONTINUOUS
10
5.02958
20
-3.8379
11
5.0352
21
-3.84165
0
LINE
8
BLACK
6
CONTINUOUS
10
5.0352
20
-3.84165
11
5.03553
21
-3.84196
0
LINE
8
BLACK
6
CONTINUOUS
10
5.03553
20
-3.84196
11
5.03565
21
-3.84202
0
LINE
8
BLACK
6
CONTINUOUS
10
5.03565
20
-3.84202
11
5.03753
21
-3.8439
0
LINE
8
BLACK
6
CONTINUOUS
10
5.03753
20
-3.8439
11
5.03804
21
-3.84462
0
LINE
8
BLACK
6
CONTINUOUS
10
5.03804
20
-3.84462
11
5.03808
21
-3.84466
0
LINE
8
BLACK
6
CONTINUOUS
10
5.03808
20
-3.84466
11
5.03996
21
-3.84841
0
LINE
8
BLACK
6
CONTINUOUS
10
5.03996
20
-3.84841
11
5.04025
21
-3.8494
0
LINE
8
BLACK
6
CONTINUOUS
10
5.04025
20
-3.8494
11
5.04021
21
-3.84957
0
LINE
8
BLACK
6
CONTINUOUS
10
5.04021
20
-3.84957
11
5.04027
21
-3.84973
0
LINE
8
BLACK
6
CONTINUOUS
10
5.04027
20
-3.84973
11
5.04027
21
-3.85723
0
LINE
8
BLACK
6
CONTINUOUS
10
5.04027
20
-3.85723
11
5.04009
21
-3.85824
0
LINE
8
BLACK
6
CONTINUOUS
10
5.04009
20
-3.85824
11
5.03879
21
-3.85979
0
LINE
8
BLACK
6
CONTINUOUS
10
5.03879
20
-3.85979
11
5.0368
21
-3.86014
0
LINE
8
BLACK
6
CONTINUOUS
10
5.0368
20
-3.86014
11
5.03505
21
-3.85913
0
LINE
8
BLACK
6
CONTINUOUS
10
5.03505
20
-3.85913
11
5.03436
21
-3.85723
0
LINE
8
BLACK
6
CONTINUOUS
10
5.03436
20
-3.85723
11
5.03436
21
-3.85043
0
LINE
8
BLACK
6
CONTINUOUS
10
5.03436
20
-3.85043
11
5.03301
21
-3.84773
0
LINE
8
BLACK
6
CONTINUOUS
10
5.03301
20
-3.84773
11
5.03168
21
-3.8464
0
LINE
8
BLACK
6
CONTINUOUS
10
5.03168
20
-3.8464
11
5.02673
21
-3.8431
0
LINE
8
BLACK
6
CONTINUOUS
10
5.02673
20
-3.8431
11
5.02381
21
-3.84237
0
LINE
8
BLACK
6
CONTINUOUS
10
5.02381
20
-3.84237
11
5.02496
21
-3.84466
0
LINE
8
BLACK
6
CONTINUOUS
10
5.02496
20
-3.84466
11
5.02525
21
-3.84565
0
LINE
8
BLACK
6
CONTINUOUS
10
5.02525
20
-3.84565
11
5.02521
21
-3.84582
0
LINE
8
BLACK
6
CONTINUOUS
10
5.02521
20
-3.84582
11
5.02527
21
-3.84598
0
LINE
8
BLACK
6
CONTINUOUS
10
5.02527
20
-3.84598
11
5.02527
21
-3.85348
0
LINE
8
BLACK
6
CONTINUOUS
10
5.02527
20
-3.85348
11
5.02509
21
-3.85449
0
LINE
8
BLACK
6
CONTINUOUS
10
5.02509
20
-3.85449
11
5.02498
21
-3.85463
0
LINE
8
BLACK
6
CONTINUOUS
10
5.02498
20
-3.85463
11
5.02496
21
-3.8548
0
LINE
8
BLACK
6
CONTINUOUS
10
5.02496
20
-3.8548
11
5.02308
21
-3.85855
0
LINE
8
BLACK
6
CONTINUOUS
10
5.02308
20
-3.85855
11
5.02256
21
-3.85926
0
LINE
8
BLACK
6
CONTINUOUS
10
5.02256
20
-3.85926
11
5.02253
21
-3.85932
0
LINE
8
BLACK
6
CONTINUOUS
10
5.02253
20
-3.85932
11
5.02066
21
-3.8612
0
LINE
8
BLACK
6
CONTINUOUS
10
5.02066
20
-3.8612
11
5.01993
21
-3.8617
0
LINE
8
BLACK
6
CONTINUOUS
10
5.01993
20
-3.8617
11
5.01989
21
-3.86175
0
LINE
8
BLACK
6
CONTINUOUS
10
5.01989
20
-3.86175
11
5.01614
21
-3.86362
0
LINE
8
BLACK
6
CONTINUOUS
10
5.01614
20
-3.86362
11
5.01516
21
-3.86392
0
LINE
8
BLACK
6
CONTINUOUS
10
5.01516
20
-3.86392
11
5.01498
21
-3.86387
0
LINE
8
BLACK
6
CONTINUOUS
10
5.01498
20
-3.86387
11
5.01482
21
-3.86394
0
LINE
8
BLACK
6
CONTINUOUS
10
5.01482
20
-3.86394
11
5.00544
21
-3.86394
0
LINE
8
BLACK
6
CONTINUOUS
10
5.00544
20
-3.86394
11
5.00443
21
-3.86376
0
LINE
8
BLACK
6
CONTINUOUS
10
5.00443
20
-3.86376
11
5.0043
21
-3.86364
0
LINE
8
BLACK
6
CONTINUOUS
10
5.0043
20
-3.86364
11
5.00412
21
-3.86362
0
LINE
8
BLACK
6
CONTINUOUS
10
5.00412
20
-3.86362
11
5.00037
21
-3.86175
0
LINE
8
BLACK
6
CONTINUOUS
10
5.00037
20
-3.86175
11
4.99967
21
-3.86122
0
LINE
8
BLACK
6
CONTINUOUS
10
4.99967
20
-3.86122
11
4.99961
21
-3.8612
0
LINE
8
BLACK
6
CONTINUOUS
10
4.99961
20
-3.8612
11
4.99773
21
-3.85932
0
LINE
8
BLACK
6
CONTINUOUS
10
4.99773
20
-3.85932
11
4.99723
21
-3.8586
0
LINE
8
BLACK
6
CONTINUOUS
10
4.99723
20
-3.8586
11
4.99718
21
-3.85855
0
LINE
8
BLACK
6
CONTINUOUS
10
4.99718
20
-3.85855
11
4.9953
21
-3.8548
0
LINE
8
BLACK
6
CONTINUOUS
10
4.9953
20
-3.8548
11
4.99501
21
-3.85382
0
LINE
8
BLACK
6
CONTINUOUS
10
4.99501
20
-3.85382
11
4.99505
21
-3.85365
0
LINE
8
BLACK
6
CONTINUOUS
10
4.99505
20
-3.85365
11
4.99499
21
-3.85348
0
LINE
8
BLACK
6
CONTINUOUS
10
4.99499
20
-3.85348
11
4.99499
21
-3.84598
0
LINE
8
BLACK
6
CONTINUOUS
10
4.99499
20
-3.84598
11
4.99517
21
-3.84497
0
LINE
8
BLACK
6
CONTINUOUS
10
4.99517
20
-3.84497
11
4.99528
21
-3.84484
0
LINE
8
BLACK
6
CONTINUOUS
10
4.99528
20
-3.84484
11
4.9953
21
-3.84466
0
LINE
8
BLACK
6
CONTINUOUS
10
4.9953
20
-3.84466
11
4.99718
21
-3.84091
0
LINE
8
BLACK
6
CONTINUOUS
10
4.99718
20
-3.84091
11
4.99771
21
-3.84021
0
LINE
8
BLACK
6
CONTINUOUS
10
4.99771
20
-3.84021
11
4.99773
21
-3.84015
0
LINE
8
BLACK
6
CONTINUOUS
10
4.99773
20
-3.84015
11
4.99961
21
-3.83827
0
LINE
8
BLACK
6
CONTINUOUS
10
4.99961
20
-3.83827
11
5.00033
21
-3.83777
0
LINE
8
BLACK
6
CONTINUOUS
10
5.00033
20
-3.83777
11
5.00037
21
-3.83772
0
LINE
8
BLACK
6
CONTINUOUS
10
5.00037
20
-3.83772
11
5.00412
21
-3.83584
0
LINE
8
BLACK
6
CONTINUOUS
10
5.00412
20
-3.83584
11
5.00511
21
-3.83555
0
LINE
8
BLACK
6
CONTINUOUS
10
5.00511
20
-3.83555
11
5.00528
21
-3.83559
0
LINE
8
BLACK
6
CONTINUOUS
10
5.00528
20
-3.83559
11
5.00544
21
-3.83553
0
LINE
8
BLACK
6
CONTINUOUS
10
5.00544
20
-3.83553
11
5.02044
21
-3.83553
0
LINE
8
BLACK
6
CONTINUOUS
10
5.02044
20
-3.83553
11
5.02102
21
-3.83563
0
LINE
8
BLACK
6
CONTINUOUS
10
5.00344
20
-3.84279
11
5.00225
21
-3.84398
0
LINE
8
BLACK
6
CONTINUOUS
10
5.00225
20
-3.84398
11
5.0009
21
-3.84668
0
LINE
8
BLACK
6
CONTINUOUS
10
5.0009
20
-3.84668
11
5.0009
21
-3.85279
0
LINE
8
BLACK
6
CONTINUOUS
10
5.0009
20
-3.85279
11
5.00225
21
-3.85548
0
LINE
8
BLACK
6
CONTINUOUS
10
5.00225
20
-3.85548
11
5.00344
21
-3.85668
0
LINE
8
BLACK
6
CONTINUOUS
10
5.00344
20
-3.85668
11
5.00614
21
-3.85803
0
LINE
8
BLACK
6
CONTINUOUS
10
5.00614
20
-3.85803
11
5.01412
21
-3.85803
0
LINE
8
BLACK
6
CONTINUOUS
10
5.01412
20
-3.85803
11
5.01682
21
-3.85668
0
LINE
8
BLACK
6
CONTINUOUS
10
5.01682
20
-3.85668
11
5.01802
21
-3.85548
0
LINE
8
BLACK
6
CONTINUOUS
10
5.01802
20
-3.85548
11
5.01936
21
-3.85279
0
LINE
8
BLACK
6
CONTINUOUS
10
5.01936
20
-3.85279
11
5.01936
21
-3.84668
0
LINE
8
BLACK
6
CONTINUOUS
10
5.01936
20
-3.84668
11
5.01802
21
-3.84398
0
LINE
8
BLACK
6
CONTINUOUS
10
5.01802
20
-3.84398
11
5.01682
21
-3.84279
0
LINE
8
BLACK
6
CONTINUOUS
10
5.01682
20
-3.84279
11
5.01412
21
-3.84144
0
LINE
8
BLACK
6
CONTINUOUS
10
5.01412
20
-3.84144
11
5.00614
21
-3.84144
0
LINE
8
BLACK
6
CONTINUOUS
10
5.00614
20
-3.84144
11
5.00344
21
-3.84279
0
LINE
8
BLACK
6
CONTINUOUS
10
5.03958
20
-3.79909
11
5.04027
21
-3.80099
0
LINE
8
BLACK
6
CONTINUOUS
10
5.04027
20
-3.80099
11
5.04027
21
-3.82349
0
LINE
8
BLACK
6
CONTINUOUS
10
5.04027
20
-3.82349
11
5.04009
21
-3.8245
0
LINE
8
BLACK
6
CONTINUOUS
10
5.04009
20
-3.8245
11
5.03879
21
-3.82604
0
LINE
8
BLACK
6
CONTINUOUS
10
5.03879
20
-3.82604
11
5.0368
21
-3.82639
0
LINE
8
BLACK
6
CONTINUOUS
10
5.0368
20
-3.82639
11
5.03505
21
-3.82539
0
LINE
8
BLACK
6
CONTINUOUS
10
5.03505
20
-3.82539
11
5.03436
21
-3.82349
0
LINE
8
BLACK
6
CONTINUOUS
10
5.03436
20
-3.82349
11
5.03436
21
-3.81519
0
LINE
8
BLACK
6
CONTINUOUS
10
5.03436
20
-3.81519
11
5.00695
21
-3.81519
0
LINE
8
BLACK
6
CONTINUOUS
10
5.00695
20
-3.81519
11
5.00941
21
-3.81765
0
LINE
8
BLACK
6
CONTINUOUS
10
5.00941
20
-3.81765
11
5.00991
21
-3.81837
0
LINE
8
BLACK
6
CONTINUOUS
10
5.00991
20
-3.81837
11
5.00996
21
-3.81842
0
LINE
8
BLACK
6
CONTINUOUS
10
5.00996
20
-3.81842
11
5.01184
21
-3.82217
0
LINE
8
BLACK
6
CONTINUOUS
10
5.01184
20
-3.82217
11
5.01213
21
-3.82315
0
LINE
8
BLACK
6
CONTINUOUS
10
5.01213
20
-3.82315
11
5.01166
21
-3.82511
0
LINE
8
BLACK
6
CONTINUOUS
10
5.01166
20
-3.82511
11
5.01004
21
-3.82632
0
LINE
8
BLACK
6
CONTINUOUS
10
5.01004
20
-3.82632
11
5.00802
21
-3.8262
0
LINE
8
BLACK
6
CONTINUOUS
10
5.00802
20
-3.8262
11
5.00655
21
-3.82481
0
LINE
8
BLACK
6
CONTINUOUS
10
5.00655
20
-3.82481
11
5.00489
21
-3.82149
0
LINE
8
BLACK
6
CONTINUOUS
10
5.00489
20
-3.82149
11
5.00169
21
-3.81828
0
LINE
8
BLACK
6
CONTINUOUS
10
5.00169
20
-3.81828
11
4.99631
21
-3.8147
0
LINE
8
BLACK
6
CONTINUOUS
10
4.99631
20
-3.8147
11
4.99557
21
-3.81399
0
LINE
8
BLACK
6
CONTINUOUS
10
4.99557
20
-3.81399
11
4.99552
21
-3.81382
0
LINE
8
BLACK
6
CONTINUOUS
10
4.99552
20
-3.81382
11
4.99539
21
-3.81371
0
LINE
8
BLACK
6
CONTINUOUS
10
4.99539
20
-3.81371
11
4.99524
21
-3.81287
0
LINE
8
BLACK
6
CONTINUOUS
10
4.99524
20
-3.81287
11
4.995
21
-3.81205
0
LINE
8
BLACK
6
CONTINUOUS
10
4.995
20
-3.81205
11
4.99507
21
-3.81189
0
LINE
8
BLACK
6
CONTINUOUS
10
4.99507
20
-3.81189
11
4.99504
21
-3.81173
0
LINE
8
BLACK
6
CONTINUOUS
10
4.99504
20
-3.81173
11
4.99547
21
-3.81098
0
LINE
8
BLACK
6
CONTINUOUS
10
4.99547
20
-3.81098
11
4.99581
21
-3.8102
0
LINE
8
BLACK
6
CONTINUOUS
10
4.99581
20
-3.8102
11
4.99596
21
-3.81012
0
LINE
8
BLACK
6
CONTINUOUS
10
4.99596
20
-3.81012
11
4.99605
21
-3.80998
0
LINE
8
BLACK
6
CONTINUOUS
10
4.99605
20
-3.80998
11
4.99685
21
-3.80968
0
LINE
8
BLACK
6
CONTINUOUS
10
4.99685
20
-3.80968
11
4.99762
21
-3.8093
0
LINE
8
BLACK
6
CONTINUOUS
10
4.99762
20
-3.8093
11
4.99779
21
-3.80934
0
LINE
8
BLACK
6
CONTINUOUS
10
4.99779
20
-3.80934
11
4.99795
21
-3.80929
0
LINE
8
BLACK
6
CONTINUOUS
10
4.99795
20
-3.80929
11
5.03436
21
-3.80929
0
LINE
8
BLACK
6
CONTINUOUS
10
5.03436
20
-3.80929
11
5.03436
21
-3.80099
0
LINE
8
BLACK
6
CONTINUOUS
10
5.03436
20
-3.80099
11
5.03454
21
-3.79998
0
LINE
8
BLACK
6
CONTINUOUS
10
5.03454
20
-3.79998
11
5.03584
21
-3.79843
0
LINE
8
BLACK
6
CONTINUOUS
10
5.03584
20
-3.79843
11
5.03783
21
-3.79808
0
LINE
8
BLACK
6
CONTINUOUS
10
5.03783
20
-3.79808
11
5.03958
21
-3.79909
0
LINE
8
BLACK
6
CONTINUOUS
10
5.03083
20
-3.76072
11
5.03096
21
-3.76083
0
LINE
8
BLACK
6
CONTINUOUS
10
5.03096
20
-3.76083
11
5.03114
21
-3.76085
0
LINE
8
BLACK
6
CONTINUOUS
10
5.03114
20
-3.76085
11
5.03489
21
-3.76273
0
LINE
8
BLACK
6
CONTINUOUS
10
5.03489
20
-3.76273
11
5.0356
21
-3.76325
0
LINE
8
BLACK
6
CONTINUOUS
10
5.0356
20
-3.76325
11
5.03565
21
-3.76328
0
LINE
8
BLACK
6
CONTINUOUS
10
5.03565
20
-3.76328
11
5.03753
21
-3.76516
0
LINE
8
BLACK
6
CONTINUOUS
10
5.03753
20
-3.76516
11
5.03804
21
-3.76588
0
LINE
8
BLACK
6
CONTINUOUS
10
5.03804
20
-3.76588
11
5.03808
21
-3.76592
0
LINE
8
BLACK
6
CONTINUOUS
10
5.03808
20
-3.76592
11
5.03996
21
-3.76967
0
LINE
8
BLACK
6
CONTINUOUS
10
5.03996
20
-3.76967
11
5.04025
21
-3.77066
0
LINE
8
BLACK
6
CONTINUOUS
10
5.04025
20
-3.77066
11
5.04021
21
-3.77083
0
LINE
8
BLACK
6
CONTINUOUS
10
5.04021
20
-3.77083
11
5.04027
21
-3.77099
0
LINE
8
BLACK
6
CONTINUOUS
10
5.04027
20
-3.77099
11
5.04027
21
-3.78037
0
LINE
8
BLACK
6
CONTINUOUS
10
5.04027
20
-3.78037
11
5.04009
21
-3.78138
0
LINE
8
BLACK
6
CONTINUOUS
10
5.04009
20
-3.78138
11
5.03998
21
-3.78151
0
LINE
8
BLACK
6
CONTINUOUS
10
5.03998
20
-3.78151
11
5.03996
21
-3.78169
0
LINE
8
BLACK
6
CONTINUOUS
10
5.03996
20
-3.78169
11
5.03808
21
-3.78544
0
LINE
8
BLACK
6
CONTINUOUS
10
5.03808
20
-3.78544
11
5.03756
21
-3.78615
0
LINE
8
BLACK
6
CONTINUOUS
10
5.03756
20
-3.78615
11
5.03753
21
-3.7862
0
LINE
8
BLACK
6
CONTINUOUS
10
5.03753
20
-3.7862
11
5.03565
21
-3.78808
0
LINE
8
BLACK
6
CONTINUOUS
10
5.03565
20
-3.78808
11
5.03481
21
-3.78867
0
LINE
8
BLACK
6
CONTINUOUS
10
5.03481
20
-3.78867
11
5.0328
21
-3.78884
0
LINE
8
BLACK
6
CONTINUOUS
10
5.0328
20
-3.78884
11
5.03115
21
-3.78769
0
LINE
8
BLACK
6
CONTINUOUS
10
5.03115
20
-3.78769
11
5.03062
21
-3.78573
0
LINE
8
BLACK
6
CONTINUOUS
10
5.03062
20
-3.78573
11
5.03148
21
-3.7839
0
LINE
8
BLACK
6
CONTINUOUS
10
5.03148
20
-3.7839
11
5.03301
21
-3.78237
0
LINE
8
BLACK
6
CONTINUOUS
10
5.03301
20
-3.78237
11
5.03436
21
-3.77967
0
LINE
8
BLACK
6
CONTINUOUS
10
5.03436
20
-3.77967
11
5.03436
21
-3.77169
0
LINE
8
BLACK
6
CONTINUOUS
10
5.03436
20
-3.77169
11
5.03301
21
-3.76899
0
LINE
8
BLACK
6
CONTINUOUS
10
5.03301
20
-3.76899
11
5.03182
21
-3.7678
0
LINE
8
BLACK
6
CONTINUOUS
10
5.03182
20
-3.7678
11
5.02912
21
-3.76645
0
LINE
8
BLACK
6
CONTINUOUS
10
5.02912
20
-3.76645
11
5.02114
21
-3.76645
0
LINE
8
BLACK
6
CONTINUOUS
10
5.02114
20
-3.76645
11
5.01844
21
-3.7678
0
LINE
8
BLACK
6
CONTINUOUS
10
5.01844
20
-3.7678
11
5.01725
21
-3.76899
0
LINE
8
BLACK
6
CONTINUOUS
10
5.01725
20
-3.76899
11
5.0159
21
-3.77169
0
LINE
8
BLACK
6
CONTINUOUS
10
5.0159
20
-3.77169
11
5.0159
21
-3.77967
0
LINE
8
BLACK
6
CONTINUOUS
10
5.0159
20
-3.77967
11
5.01725
21
-3.78237
0
LINE
8
BLACK
6
CONTINUOUS
10
5.01725
20
-3.78237
11
5.01878
21
-3.7839
0
LINE
8
BLACK
6
CONTINUOUS
10
5.01878
20
-3.7839
11
5.01937
21
-3.78474
0
LINE
8
BLACK
6
CONTINUOUS
10
5.01937
20
-3.78474
11
5.01937
21
-3.78476
0
LINE
8
BLACK
6
CONTINUOUS
10
5.01937
20
-3.78476
11
5.01938
21
-3.78478
0
LINE
8
BLACK
6
CONTINUOUS
10
5.01938
20
-3.78478
11
5.01946
21
-3.78577
0
LINE
8
BLACK
6
CONTINUOUS
10
5.01946
20
-3.78577
11
5.01955
21
-3.78676
0
LINE
8
BLACK
6
CONTINUOUS
10
5.01955
20
-3.78676
11
5.01953
21
-3.78677
0
LINE
8
BLACK
6
CONTINUOUS
10
5.01953
20
-3.78677
11
5.01954
21
-3.78679
0
LINE
8
BLACK
6
CONTINUOUS
10
5.01954
20
-3.78679
11
5.01896
21
-3.7876
0
LINE
8
BLACK
6
CONTINUOUS
10
5.01896
20
-3.7876
11
5.01839
21
-3.78841
0
LINE
8
BLACK
6
CONTINUOUS
10
5.01839
20
-3.78841
11
5.01837
21
-3.78842
0
LINE
8
BLACK
6
CONTINUOUS
10
5.01837
20
-3.78842
11
5.01836
21
-3.78843
0
LINE
8
BLACK
6
CONTINUOUS
10
5.01836
20
-3.78843
11
5.01739
21
-3.78868
0
LINE
8
BLACK
6
CONTINUOUS
10
5.01739
20
-3.78868
11
5.01644
21
-3.78893
0
LINE
8
BLACK
6
CONTINUOUS
10
5.01644
20
-3.78893
11
5.01642
21
-3.78892
0
LINE
8
BLACK
6
CONTINUOUS
10
5.01642
20
-3.78892
11
5.0164
21
-3.78893
0
LINE
8
BLACK
6
CONTINUOUS
10
5.0164
20
-3.78893
11
4.99765
21
-3.78706
0
LINE
8
BLACK
6
CONTINUOUS
10
4.99765
20
-3.78706
11
4.9975
21
-3.78701
0
LINE
8
BLACK
6
CONTINUOUS
10
4.9975
20
-3.78701
11
4.99743
21
-3.78702
0
LINE
8
BLACK
6
CONTINUOUS
10
4.99743
20
-3.78702
11
4.99733
21
-3.78696
0
LINE
8
BLACK
6
CONTINUOUS
10
4.99733
20
-3.78696
11
4.99666
21
-3.78678
0
LINE
8
BLACK
6
CONTINUOUS
10
4.99666
20
-3.78678
11
4.99623
21
-3.78633
0
LINE
8
BLACK
6
CONTINUOUS
10
4.99623
20
-3.78633
11
4.99568
21
-3.78601
0
LINE
8
BLACK
6
CONTINUOUS
10
4.99568
20
-3.78601
11
4.99554
21
-3.78563
0
LINE
8
BLACK
6
CONTINUOUS
10
4.99554
20
-3.78563
11
4.99525
21
-3.78533
0
LINE
8
BLACK
6
CONTINUOUS
10
4.99525
20
-3.78533
11
4.99521
21
-3.78471
0
LINE
8
BLACK
6
CONTINUOUS
10
4.99521
20
-3.78471
11
4.99499
21
-3.78412
0
LINE
8
BLACK
6
CONTINUOUS
10
4.99499
20
-3.78412
11
4.99499
21
-3.76537
0
LINE
8
BLACK
6
CONTINUOUS
10
4.99499
20
-3.76537
11
4.99517
21
-3.76436
0
LINE
8
BLACK
6
CONTINUOUS
10
4.99517
20
-3.76436
11
4.99647
21
-3.76281
0
LINE
8
BLACK
6
CONTINUOUS
10
4.99647
20
-3.76281
11
4.99846
21
-3.76246
0
LINE
8
BLACK
6
CONTINUOUS
10
4.99846
20
-3.76246
11
5.00021
21
-3.76347
0
LINE
8
BLACK
6
CONTINUOUS
10
5.00021
20
-3.76347
11
5.0009
21
-3.76537
0
LINE
8
BLACK
6
CONTINUOUS
10
5.0009
20
-3.76537
11
5.0009
21
-3.78144
0
LINE
8
BLACK
6
CONTINUOUS
10
5.0009
20
-3.78144
11
5.01067
21
-3.78242
0
LINE
8
BLACK
6
CONTINUOUS
10
5.01067
20
-3.78242
11
5.0103
21
-3.78169
0
LINE
8
BLACK
6
CONTINUOUS
10
5.0103
20
-3.78169
11
5.01001
21
-3.7807
0
LINE
8
BLACK
6
CONTINUOUS
10
5.01001
20
-3.7807
11
5.01005
21
-3.78053
0
LINE
8
BLACK
6
CONTINUOUS
10
5.01005
20
-3.78053
11
5.00999
21
-3.78037
0
LINE
8
BLACK
6
CONTINUOUS
10
5.00999
20
-3.78037
11
5.00999
21
-3.77099
0
LINE
8
BLACK
6
CONTINUOUS
10
5.00999
20
-3.77099
11
5.01017
21
-3.76998
0
LINE
8
BLACK
6
CONTINUOUS
10
5.01017
20
-3.76998
11
5.01028
21
-3.76985
0
LINE
8
BLACK
6
CONTINUOUS
10
5.01028
20
-3.76985
11
5.0103
21
-3.76967
0
LINE
8
BLACK
6
CONTINUOUS
10
5.0103
20
-3.76967
11
5.01218
21
-3.76592
0
LINE
8
BLACK
6
CONTINUOUS
10
5.01218
20
-3.76592
11
5.0127
21
-3.76521
0
LINE
8
BLACK
6
CONTINUOUS
10
5.0127
20
-3.76521
11
5.01273
21
-3.76516
0
LINE
8
BLACK
6
CONTINUOUS
10
5.01273
20
-3.76516
11
5.01461
21
-3.76328
0
LINE
8
BLACK
6
CONTINUOUS
10
5.01461
20
-3.76328
11
5.01533
21
-3.76278
0
LINE
8
BLACK
6
CONTINUOUS
10
5.01533
20
-3.76278
11
5.01537
21
-3.76273
0
LINE
8
BLACK
6
CONTINUOUS
10
5.01537
20
-3.76273
11
5.01912
21
-3.76085
0
LINE
8
BLACK
6
CONTINUOUS
10
5.01912
20
-3.76085
11
5.02011
21
-3.76056
0
LINE
8
BLACK
6
CONTINUOUS
10
5.02011
20
-3.76056
11
5.02028
21
-3.7606
0
LINE
8
BLACK
6
CONTINUOUS
10
5.02028
20
-3.7606
11
5.02044
21
-3.76054
0
LINE
8
BLACK
6
CONTINUOUS
10
5.02044
20
-3.76054
11
5.02982
21
-3.76054
0
LINE
8
BLACK
6
CONTINUOUS
10
5.02982
20
-3.76054
11
5.03083
21
-3.76072
0
LINE
8
BLACK
6
CONTINUOUS
10
5.01006
20
-3.7232
11
5.01013
21
-3.7232
0
LINE
8
BLACK
6
CONTINUOUS
10
5.01013
20
-3.7232
11
5.01575
21
-3.72507
0
LINE
8
BLACK
6
CONTINUOUS
10
5.01575
20
-3.72507
11
5.01665
21
-3.72556
0
LINE
8
BLACK
6
CONTINUOUS
10
5.01665
20
-3.72556
11
5.01675
21
-3.72571
0
LINE
8
BLACK
6
CONTINUOUS
10
5.01675
20
-3.72571
11
5.01691
21
-3.72579
0
LINE
8
BLACK
6
CONTINUOUS
10
5.01691
20
-3.72579
11
5.03436
21
-3.74324
0
LINE
8
BLACK
6
CONTINUOUS
10
5.03436
20
-3.74324
11
5.03436
21
-3.726
0
LINE
8
BLACK
6
CONTINUOUS
10
5.03436
20
-3.726
11
5.03454
21
-3.72499
0
LINE
8
BLACK
6
CONTINUOUS
10
5.03454
20
-3.72499
11
5.03584
21
-3.72344
0
LINE
8
BLACK
6
CONTINUOUS
10
5.03584
20
-3.72344
11
5.03783
21
-3.72309
0
LINE
8
BLACK
6
CONTINUOUS
10
5.03783
20
-3.72309
11
5.03958
21
-3.7241
0
LINE
8
BLACK
6
CONTINUOUS
10
5.03958
20
-3.7241
11
5.04027
21
-3.726
0
LINE
8
BLACK
6
CONTINUOUS
10
5.04027
20
-3.726
11
5.04027
21
-3.75037
0
LINE
8
BLACK
6
CONTINUOUS
10
5.04027
20
-3.75037
11
5.04016
21
-3.75101
0
LINE
8
BLACK
6
CONTINUOUS
10
5.04016
20
-3.75101
11
5.04017
21
-3.75114
0
LINE
8
BLACK
6
CONTINUOUS
10
5.04017
20
-3.75114
11
5.04012
21
-3.7512
0
LINE
8
BLACK
6
CONTINUOUS
10
5.04012
20
-3.7512
11
5.04009
21
-3.75138
0
LINE
8
BLACK
6
CONTINUOUS
10
5.04009
20
-3.75138
11
5.03952
21
-3.75206
0
LINE
8
BLACK
6
CONTINUOUS
10
5.03952
20
-3.75206
11
5.03901
21
-3.75279
0
LINE
8
BLACK
6
CONTINUOUS
10
5.03901
20
-3.75279
11
5.03888
21
-3.75282
0
LINE
8
BLACK
6
CONTINUOUS
10
5.03888
20
-3.75282
11
5.03879
21
-3.75293
0
LINE
8
BLACK
6
CONTINUOUS
10
5.03879
20
-3.75293
11
5.03792
21
-3.75308
0
LINE
8
BLACK
6
CONTINUOUS
10
5.03792
20
-3.75308
11
5.03706
21
-3.75331
0
LINE
8
BLACK
6
CONTINUOUS
10
5.03706
20
-3.75331
11
5.03694
21
-3.75326
0
LINE
8
BLACK
6
CONTINUOUS
10
5.03694
20
-3.75326
11
5.0368
21
-3.75328
0
LINE
8
BLACK
6
CONTINUOUS
10
5.0368
20
-3.75328
11
5.03603
21
-3.75283
0
LINE
8
BLACK
6
CONTINUOUS
10
5.03603
20
-3.75283
11
5.03523
21
-3.75246
0
LINE
8
BLACK
6
CONTINUOUS
10
5.03523
20
-3.75246
11
5.01322
21
-3.73045
0
LINE
8
BLACK
6
CONTINUOUS
10
5.01322
20
-3.73045
11
5.00872
21
-3.72895
0
LINE
8
BLACK
6
CONTINUOUS
10
5.00872
20
-3.72895
11
5.00614
21
-3.72895
0
LINE
8
BLACK
6
CONTINUOUS
10
5.00614
20
-3.72895
11
5.00344
21
-3.7303
0
LINE
8
BLACK
6
CONTINUOUS
10
5.00344
20
-3.7303
11
5.00225
21
-3.7315
0
LINE
8
BLACK
6
CONTINUOUS
10
5.00225
20
-3.7315
11
5.0009
21
-3.7342
0
LINE
8
BLACK
6
CONTINUOUS
10
5.0009
20
-3.7342
11
5.0009
21
-3.74218
0
LINE
8
BLACK
6
CONTINUOUS
10
5.0009
20
-3.74218
11
5.00225
21
-3.74487
0
LINE
8
BLACK
6
CONTINUOUS
10
5.00225
20
-3.74487
11
5.00378
21
-3.74641
0
LINE
8
BLACK
6
CONTINUOUS
10
5.00378
20
-3.74641
11
5.00437
21
-3.74725
0
LINE
8
BLACK
6
CONTINUOUS
10
5.00437
20
-3.74725
11
5.00455
21
-3.74926
0
LINE
8
BLACK
6
CONTINUOUS
10
5.00455
20
-3.74926
11
5.00339
21
-3.75092
0
LINE
8
BLACK
6
CONTINUOUS
10
5.00339
20
-3.75092
11
5.00144
21
-3.75144
0
LINE
8
BLACK
6
CONTINUOUS
10
5.00144
20
-3.75144
11
4.99961
21
-3.75058
0
LINE
8
BLACK
6
CONTINUOUS
10
4.99961
20
-3.75058
11
4.99773
21
-3.74871
0
LINE
8
BLACK
6
CONTINUOUS
10
4.99773
20
-3.74871
11
4.99723
21
-3.74799
0
LINE
8
BLACK
6
CONTINUOUS
10
4.99723
20
-3.74799
11
4.99718
21
-3.74794
0
LINE
8
BLACK
6
CONTINUOUS
10
4.99718
20
-3.74794
11
4.9953
21
-3.74419
0
LINE
8
BLACK
6
CONTINUOUS
10
4.9953
20
-3.74419
11
4.99501
21
-3.74321
0
LINE
8
BLACK
6
CONTINUOUS
10
4.99501
20
-3.74321
11
4.99505
21
-3.74304
0
LINE
8
BLACK
6
CONTINUOUS
10
4.99505
20
-3.74304
11
4.99499
21
-3.74287
0
LINE
8
BLACK
6
CONTINUOUS
10
4.99499
20
-3.74287
11
4.99499
21
-3.7335
0
LINE
8
BLACK
6
CONTINUOUS
10
4.99499
20
-3.7335
11
4.99517
21
-3.73249
0
LINE
8
BLACK
6
CONTINUOUS
10
4.99517
20
-3.73249
11
4.99528
21
-3.73235
0
LINE
8
BLACK
6
CONTINUOUS
10
4.99528
20
-3.73235
11
4.9953
21
-3.73218
0
LINE
8
BLACK
6
CONTINUOUS
10
4.9953
20
-3.73218
11
4.99718
21
-3.72843
0
LINE
8
BLACK
6
CONTINUOUS
10
4.99718
20
-3.72843
11
4.99771
21
-3.72772
0
LINE
8
BLACK
6
CONTINUOUS
10
4.99771
20
-3.72772
11
4.99773
21
-3.72766
0
LINE
8
BLACK
6
CONTINUOUS
10
4.99773
20
-3.72766
11
4.99961
21
-3.72579
0
LINE
8
BLACK
6
CONTINUOUS
10
4.99961
20
-3.72579
11
5.00033
21
-3.72528
0
LINE
8
BLACK
6
CONTINUOUS
10
5.00033
20
-3.72528
11
5.00037
21
-3.72523
0
LINE
8
BLACK
6
CONTINUOUS
10
5.00037
20
-3.72523
11
5.00412
21
-3.72336
0
LINE
8
BLACK
6
CONTINUOUS
10
5.00412
20
-3.72336
11
5.00511
21
-3.72307
0
LINE
8
BLACK
6
CONTINUOUS
10
5.00511
20
-3.72307
11
5.00528
21
-3.72311
0
LINE
8
BLACK
6
CONTINUOUS
10
5.00528
20
-3.72311
11
5.00544
21
-3.72305
0
LINE
8
BLACK
6
CONTINUOUS
10
5.00544
20
-3.72305
11
5.00919
21
-3.72305
0
LINE
8
BLACK
6
CONTINUOUS
10
5.00919
20
-3.72305
11
5.01006
21
-3.7232
0
LINE
8
BLACK
6
CONTINUOUS
10
5.03833
20
-3.65011
11
5.03987
21
-3.65141
0
LINE
8
BLACK
6
CONTINUOUS
10
5.03987
20
-3.65141
11
5.04022
21
-3.6534
0
LINE
8
BLACK
6
CONTINUOUS
10
5.04022
20
-3.6534
11
5.03921
21
-3.65515
0
LINE
8
BLACK
6
CONTINUOUS
10
5.03921
20
-3.65515
11
5.03732
21
-3.65584
0
LINE
8
BLACK
6
CONTINUOUS
10
5.03732
20
-3.65584
11
5.01126
21
-3.65584
0
LINE
8
BLACK
6
CONTINUOUS
10
5.01126
20
-3.65584
11
5.02732
21
-3.66333
0
LINE
8
BLACK
6
CONTINUOUS
10
5.02732
20
-3.66333
11
5.02763
21
-3.66355
0
LINE
8
BLACK
6
CONTINUOUS
10
5.02763
20
-3.66355
11
5.02776
21
-3.66359
0
LINE
8
BLACK
6
CONTINUOUS
10
5.02776
20
-3.66359
11
5.02784
21
-3.6637
0
LINE
8
BLACK
6
CONTINUOUS
10
5.02784
20
-3.6637
11
5.02816
21
-3.66392
0
LINE
8
BLACK
6
CONTINUOUS
10
5.02816
20
-3.66392
11
5.02848
21
-3.66461
0
LINE
8
BLACK
6
CONTINUOUS
10
5.02848
20
-3.66461
11
5.02892
21
-3.66524
0
LINE
8
BLACK
6
CONTINUOUS
10
5.02892
20
-3.66524
11
5.0289
21
-3.66551
0
LINE
8
BLACK
6
CONTINUOUS
10
5.0289
20
-3.66551
11
5.02901
21
-3.66575
0
LINE
8
BLACK
6
CONTINUOUS
10
5.02901
20
-3.66575
11
5.02881
21
-3.66649
0
LINE
8
BLACK
6
CONTINUOUS
10
5.02881
20
-3.66649
11
5.02874
21
-3.66725
0
LINE
8
BLACK
6
CONTINUOUS
10
5.02874
20
-3.66725
11
5.02855
21
-3.66744
0
LINE
8
BLACK
6
CONTINUOUS
10
5.02855
20
-3.66744
11
5.02849
21
-3.6677
0
LINE
8
BLACK
6
CONTINUOUS
10
5.02849
20
-3.6677
11
5.02786
21
-3.66814
0
LINE
8
BLACK
6
CONTINUOUS
10
5.02786
20
-3.66814
11
5.02732
21
-3.66868
0
LINE
8
BLACK
6
CONTINUOUS
10
5.02732
20
-3.66868
11
5.01126
21
-3.67618
0
LINE
8
BLACK
6
CONTINUOUS
10
5.01126
20
-3.67618
11
5.03732
21
-3.67618
0
LINE
8
BLACK
6
CONTINUOUS
10
5.03732
20
-3.67618
11
5.03833
21
-3.67636
0
LINE
8
BLACK
6
CONTINUOUS
10
5.03833
20
-3.67636
11
5.03987
21
-3.67765
0
LINE
8
BLACK
6
CONTINUOUS
10
5.03987
20
-3.67765
11
5.04022
21
-3.67964
0
LINE
8
BLACK
6
CONTINUOUS
10
5.04022
20
-3.67964
11
5.03921
21
-3.68139
0
LINE
8
BLACK
6
CONTINUOUS
10
5.03921
20
-3.68139
11
5.03732
21
-3.68208
0
LINE
8
BLACK
6
CONTINUOUS
10
5.03732
20
-3.68208
11
4.99795
21
-3.68208
0
LINE
8
BLACK
6
CONTINUOUS
10
4.99795
20
-3.68208
11
4.99694
21
-3.6819
0
LINE
8
BLACK
6
CONTINUOUS
10
4.99694
20
-3.6819
11
4.99663
21
-3.68165
0
LINE
8
BLACK
6
CONTINUOUS
10
4.99663
20
-3.68165
11
4.99625
21
-3.68155
0
LINE
8
BLACK
6
CONTINUOUS
10
4.99625
20
-3.68155
11
4.99588
21
-3.68102
0
LINE
8
BLACK
6
CONTINUOUS
10
4.99588
20
-3.68102
11
4.99539
21
-3.68061
0
LINE
8
BLACK
6
CONTINUOUS
10
4.99539
20
-3.68061
11
4.99532
21
-3.68022
0
LINE
8
BLACK
6
CONTINUOUS
10
4.99532
20
-3.68022
11
4.99509
21
-3.6799
0
LINE
8
BLACK
6
CONTINUOUS
10
4.99509
20
-3.6799
11
4.99515
21
-3.67925
0
LINE
8
BLACK
6
CONTINUOUS
10
4.99515
20
-3.67925
11
4.99504
21
-3.67862
0
LINE
8
BLACK
6
CONTINUOUS
10
4.99504
20
-3.67862
11
4.99523
21
-3.67828
0
LINE
8
BLACK
6
CONTINUOUS
10
4.99523
20
-3.67828
11
4.99527
21
-3.67788
0
LINE
8
BLACK
6
CONTINUOUS
10
4.99527
20
-3.67788
11
4.99573
21
-3.67743
0
LINE
8
BLACK
6
CONTINUOUS
10
4.99573
20
-3.67743
11
4.99605
21
-3.67687
0
LINE
8
BLACK
6
CONTINUOUS
10
4.99605
20
-3.67687
11
4.99642
21
-3.67673
0
LINE
8
BLACK
6
CONTINUOUS
10
4.99642
20
-3.67673
11
4.9967
21
-3.67645
0
LINE
8
BLACK
6
CONTINUOUS
10
4.9967
20
-3.67645
11
5.01908
21
-3.66601
0
LINE
8
BLACK
6
CONTINUOUS
10
5.01908
20
-3.66601
11
4.9967
21
-3.65556
0
LINE
8
BLACK
6
CONTINUOUS
10
4.9967
20
-3.65556
11
4.99586
21
-3.65497
0
LINE
8
BLACK
6
CONTINUOUS
10
4.99586
20
-3.65497
11
4.99569
21
-3.65461
0
LINE
8
BLACK
6
CONTINUOUS
10
4.99569
20
-3.65461
11
4.99539
21
-3.65436
0
LINE
8
BLACK
6
CONTINUOUS
10
4.99539
20
-3.65436
11
4.99528
21
-3.65372
0
LINE
8
BLACK
6
CONTINUOUS
10
4.99528
20
-3.65372
11
4.995
21
-3.65314
0
LINE
8
BLACK
6
CONTINUOUS
10
4.995
20
-3.65314
11
4.99511
21
-3.65276
0
LINE
8
BLACK
6
CONTINUOUS
10
4.99511
20
-3.65276
11
4.99504
21
-3.65237
0
LINE
8
BLACK
6
CONTINUOUS
10
4.99504
20
-3.65237
11
4.99536
21
-3.65181
0
LINE
8
BLACK
6
CONTINUOUS
10
4.99536
20
-3.65181
11
4.99553
21
-3.65119
0
LINE
8
BLACK
6
CONTINUOUS
10
4.99553
20
-3.65119
11
4.99585
21
-3.65096
0
LINE
8
BLACK
6
CONTINUOUS
10
4.99585
20
-3.65096
11
4.99605
21
-3.65062
0
LINE
8
BLACK
6
CONTINUOUS
10
4.99605
20
-3.65062
11
4.99665
21
-3.6504
0
LINE
8
BLACK
6
CONTINUOUS
10
4.99665
20
-3.6504
11
4.99718
21
-3.65003
0
LINE
8
BLACK
6
CONTINUOUS
10
4.99718
20
-3.65003
11
4.99758
21
-3.65007
0
LINE
8
BLACK
6
CONTINUOUS
10
4.99758
20
-3.65007
11
4.99795
21
-3.64993
0
LINE
8
BLACK
6
CONTINUOUS
10
4.99795
20
-3.64993
11
5.03732
21
-3.64993
0
LINE
8
BLACK
6
CONTINUOUS
10
5.03732
20
-3.64993
11
5.03833
21
-3.65011
0
LINE
8
BLACK
6
CONTINUOUS
10
5.03833
20
-3.60886
11
5.03987
21
-3.61016
0
LINE
8
BLACK
6
CONTINUOUS
10
5.03987
20
-3.61016
11
5.04022
21
-3.61215
0
LINE
8
BLACK
6
CONTINUOUS
10
5.04022
20
-3.61215
11
5.03921
21
-3.6139
0
LINE
8
BLACK
6
CONTINUOUS
10
5.03921
20
-3.6139
11
5.03732
21
-3.61459
0
LINE
8
BLACK
6
CONTINUOUS
10
5.03732
20
-3.61459
11
5.01965
21
-3.61459
0
LINE
8
BLACK
6
CONTINUOUS
10
5.01965
20
-3.61459
11
5.01965
21
-3.63118
0
LINE
8
BLACK
6
CONTINUOUS
10
5.01965
20
-3.63118
11
5.03732
21
-3.63118
0
LINE
8
BLACK
6
CONTINUOUS
10
5.03732
20
-3.63118
11
5.03833
21
-3.63136
0
LINE
8
BLACK
6
CONTINUOUS
10
5.03833
20
-3.63136
11
5.03987
21
-3.63266
0
LINE
8
BLACK
6
CONTINUOUS
10
5.03987
20
-3.63266
11
5.04022
21
-3.63465
0
LINE
8
BLACK
6
CONTINUOUS
10
5.04022
20
-3.63465
11
5.03921
21
-3.6364
0
LINE
8
BLACK
6
CONTINUOUS
10
5.03921
20
-3.6364
11
5.03732
21
-3.63709
0
LINE
8
BLACK
6
CONTINUOUS
10
5.03732
20
-3.63709
11
4.99795
21
-3.63709
0
LINE
8
BLACK
6
CONTINUOUS
10
4.99795
20
-3.63709
11
4.99694
21
-3.63691
0
LINE
8
BLACK
6
CONTINUOUS
10
4.99694
20
-3.63691
11
4.99539
21
-3.63561
0
LINE
8
BLACK
6
CONTINUOUS
10
4.99539
20
-3.63561
11
4.99504
21
-3.63362
0
LINE
8
BLACK
6
CONTINUOUS
10
4.99504
20
-3.63362
11
4.99605
21
-3.63187
0
LINE
8
BLACK
6
CONTINUOUS
10
4.99605
20
-3.63187
11
4.99795
21
-3.63118
0
LINE
8
BLACK
6
CONTINUOUS
10
4.99795
20
-3.63118
11
5.01374
21
-3.63118
0
LINE
8
BLACK
6
CONTINUOUS
10
5.01374
20
-3.63118
11
5.01374
21
-3.61459
0
LINE
8
BLACK
6
CONTINUOUS
10
5.01374
20
-3.61459
11
4.99795
21
-3.61459
0
LINE
8
BLACK
6
CONTINUOUS
10
4.99795
20
-3.61459
11
4.99694
21
-3.61441
0
LINE
8
BLACK
6
CONTINUOUS
10
4.99694
20
-3.61441
11
4.99539
21
-3.61311
0
LINE
8
BLACK
6
CONTINUOUS
10
4.99539
20
-3.61311
11
4.99504
21
-3.61113
0
LINE
8
BLACK
6
CONTINUOUS
10
4.99504
20
-3.61113
11
4.99605
21
-3.60938
0
LINE
8
BLACK
6
CONTINUOUS
10
4.99605
20
-3.60938
11
4.99795
21
-3.60869
0
LINE
8
BLACK
6
CONTINUOUS
10
4.99795
20
-3.60869
11
5.03732
21
-3.60869
0
LINE
8
BLACK
6
CONTINUOUS
10
5.03732
20
-3.60869
11
5.03833
21
-3.60886
0
LINE
8
BLACK
6
CONTINUOUS
10
5.01127
20
-3.57316
11
5.01158
21
-3.57311
0
LINE
8
BLACK
6
CONTINUOUS
10
5.01158
20
-3.57311
11
5.01221
21
-3.57347
0
LINE
8
BLACK
6
CONTINUOUS
10
5.01221
20
-3.57347
11
5.01289
21
-3.5737
0
LINE
8
BLACK
6
CONTINUOUS
10
5.01289
20
-3.5737
11
5.03436
21
-3.59057
0
LINE
8
BLACK
6
CONTINUOUS
10
5.03436
20
-3.59057
11
5.03436
21
-3.57602
0
LINE
8
BLACK
6
CONTINUOUS
10
5.03436
20
-3.57602
11
5.03454
21
-3.57501
0
LINE
8
BLACK
6
CONTINUOUS
10
5.03454
20
-3.57501
11
5.03584
21
-3.57346
0
LINE
8
BLACK
6
CONTINUOUS
10
5.03584
20
-3.57346
11
5.03783
21
-3.57311
0
LINE
8
BLACK
6
CONTINUOUS
10
5.03783
20
-3.57311
11
5.03958
21
-3.57412
0
LINE
8
BLACK
6
CONTINUOUS
10
5.03958
20
-3.57412
11
5.04027
21
-3.57602
0
LINE
8
BLACK
6
CONTINUOUS
10
5.04027
20
-3.57602
11
5.04027
21
-3.59664
0
LINE
8
BLACK
6
CONTINUOUS
10
5.04027
20
-3.59664
11
5.04021
21
-3.59695
0
LINE
8
BLACK
6
CONTINUOUS
10
5.04021
20
-3.59695
11
5.04024
21
-3.59706
0
LINE
8
BLACK
6
CONTINUOUS
10
5.04024
20
-3.59706
11
5.04017
21
-3.59718
0
LINE
8
BLACK
6
CONTINUOUS
10
5.04017
20
-3.59718
11
5.04009
21
-3.59765
0
LINE
8
BLACK
6
CONTINUOUS
10
5.04009
20
-3.59765
11
5.03963
21
-3.5982
0
LINE
8
BLACK
6
CONTINUOUS
10
5.03963
20
-3.5982
11
5.03929
21
-3.59884
0
LINE
8
BLACK
6
CONTINUOUS
10
5.03929
20
-3.59884
11
5.03899
21
-3.59896
0
LINE
8
BLACK
6
CONTINUOUS
10
5.03899
20
-3.59896
11
5.03879
21
-3.5992
0
LINE
8
BLACK
6
CONTINUOUS
10
5.03879
20
-3.5992
11
5.03808
21
-3.59932
0
LINE
8
BLACK
6
CONTINUOUS
10
5.03808
20
-3.59932
11
5.03741
21
-3.59959
0
LINE
8
BLACK
6
CONTINUOUS
10
5.03741
20
-3.59959
11
5.03711
21
-3.59949
0
LINE
8
BLACK
6
CONTINUOUS
10
5.03711
20
-3.59949
11
5.0368
21
-3.59955
0
LINE
8
BLACK
6
CONTINUOUS
10
5.0368
20
-3.59955
11
5.03618
21
-3.59919
0
LINE
8
BLACK
6
CONTINUOUS
10
5.03618
20
-3.59919
11
5.03549
21
-3.59896
0
LINE
8
BLACK
6
CONTINUOUS
10
5.03549
20
-3.59896
11
5.01402
21
-3.58209
0
LINE
8
BLACK
6
CONTINUOUS
10
5.01402
20
-3.58209
11
5.01402
21
-3.59664
0
LINE
8
BLACK
6
CONTINUOUS
10
5.01402
20
-3.59664
11
5.01384
21
-3.59765
0
LINE
8
BLACK
6
CONTINUOUS
10
5.01384
20
-3.59765
11
5.01255
21
-3.5992
0
LINE
8
BLACK
6
CONTINUOUS
10
5.01255
20
-3.5992
11
5.01056
21
-3.59955
0
LINE
8
BLACK
6
CONTINUOUS
10
5.01056
20
-3.59955
11
5.00881
21
-3.59854
0
LINE
8
BLACK
6
CONTINUOUS
10
5.00881
20
-3.59854
11
5.00812
21
-3.59664
0
LINE
8
BLACK
6
CONTINUOUS
10
5.00812
20
-3.59664
11
5.00812
21
-3.57602
0
LINE
8
BLACK
6
CONTINUOUS
10
5.00812
20
-3.57602
11
5.00817
21
-3.57571
0
LINE
8
BLACK
6
CONTINUOUS
10
5.00817
20
-3.57571
11
5.00815
21
-3.5756
0
LINE
8
BLACK
6
CONTINUOUS
10
5.00815
20
-3.5756
11
5.00821
21
-3.57548
0
LINE
8
BLACK
6
CONTINUOUS
10
5.00821
20
-3.57548
11
5.00829
21
-3.57501
0
LINE
8
BLACK
6
CONTINUOUS
10
5.00829
20
-3.57501
11
5.00876
21
-3.57445
0
LINE
8
BLACK
6
CONTINUOUS
10
5.00876
20
-3.57445
11
5.0091
21
-3.57382
0
LINE
8
BLACK
6
CONTINUOUS
10
5.0091
20
-3.57382
11
5.00939
21
-3.5737
0
LINE
8
BLACK
6
CONTINUOUS
10
5.00939
20
-3.5737
11
5.00959
21
-3.57346
0
LINE
8
BLACK
6
CONTINUOUS
10
5.00959
20
-3.57346
11
5.0103
21
-3.57334
0
LINE
8
BLACK
6
CONTINUOUS
10
5.0103
20
-3.57334
11
5.01097
21
-3.57307
0
LINE
8
BLACK
6
CONTINUOUS
10
5.01097
20
-3.57307
11
5.01127
21
-3.57316
  0
ENDSEC
  0
EOF
