<?xml version='1.0' encoding='ASCII' standalone='yes'?>
<svg xmlns:svg="http://www.w3.org/2000/svg" xmlns="http://www.w3.org/2000/svg" xmlns:xlink="http://www.w3.org/1999/xlink" version="1.1" width="297.0022mm" height="210.0072mm" viewBox="0.0000 0.0000 297.0022 210.0072">
<title>SVG Image created as BRIDGEADC01-F_Fab.svg date 2023/07/20 12:10:10 </title>
  <desc>Image generated by PCBNEW </desc>
<g style="fill:#848484; fill-opacity:1.0000;stroke:#848484; stroke-opacity:1.0000; stroke-linecap:round; stroke-linejoin:round;" transform="translate(0 0) scale(1 1)">
</g>
<g style="fill:#848484; fill-opacity:0.0;  stroke:#848484; stroke-width:0.0000; stroke-opacity:1;  stroke-linecap:round; stroke-linejoin:round;">
</g>
<g style="fill:#848484; fill-opacity:0.0;  stroke:#848484; stroke-width:0.7820; stroke-opacity:1;  stroke-linecap:round; stroke-linejoin:round;">
<g transform="rotate(-90.000000 81.6308 107.6519)">
<text x="81.6308" y="110.2586" textLength="47.8315" font-size="6.9510" lengthAdjust="spacingAndGlyphs" text-anchor="middle" opacity="0.01" style="font-family:monospace">4.9152 MHz</text>
</g>
<g class="stroked-text"><desc>4.9152 MHz</desc>
<path d="M80.5264 127.6360 L84.0019 127.6360 "/>
<path d="M78.5404 128.8773 L82.2641 130.1185 "/>
<path d="M82.2641 130.1185 L82.2641 126.8913 "/>
<path d="M83.5054 124.9053 L83.7536 124.6570 "/>
<path d="M83.7536 124.6570 L84.0019 124.9053 "/>
<path d="M84.0019 124.9053 L83.7536 125.1535 "/>
<path d="M83.7536 125.1535 L83.5054 124.9053 "/>
<path d="M83.5054 124.9053 L84.0019 124.9053 "/>
<path d="M84.0019 122.1745 L84.0019 121.1815 "/>
<path d="M84.0019 121.1815 L83.7536 120.6850 "/>
<path d="M83.7536 120.6850 L83.5054 120.4368 "/>
<path d="M83.5054 120.4368 L82.7606 119.9403 "/>
<path d="M82.7606 119.9403 L81.7676 119.6920 "/>
<path d="M81.7676 119.6920 L79.7816 119.6920 "/>
<path d="M79.7816 119.6920 L79.2851 119.9403 "/>
<path d="M79.2851 119.9403 L79.0369 120.1885 "/>
<path d="M79.0369 120.1885 L78.7886 120.6850 "/>
<path d="M78.7886 120.6850 L78.7886 121.6780 "/>
<path d="M78.7886 121.6780 L79.0369 122.1745 "/>
<path d="M79.0369 122.1745 L79.2851 122.4228 "/>
<path d="M79.2851 122.4228 L79.7816 122.6710 "/>
<path d="M79.7816 122.6710 L81.0229 122.6710 "/>
<path d="M81.0229 122.6710 L81.5194 122.4228 "/>
<path d="M81.5194 122.4228 L81.7676 122.1745 "/>
<path d="M81.7676 122.1745 L82.0159 121.6780 "/>
<path d="M82.0159 121.6780 L82.0159 120.6850 "/>
<path d="M82.0159 120.6850 L81.7676 120.1885 "/>
<path d="M81.7676 120.1885 L81.5194 119.9403 "/>
<path d="M81.5194 119.9403 L81.0229 119.6920 "/>
<path d="M84.0019 114.7271 L84.0019 117.7060 "/>
<path d="M84.0019 116.2166 L78.7886 116.2166 "/>
<path d="M78.7886 116.2166 L79.5334 116.7130 "/>
<path d="M79.5334 116.7130 L80.0299 117.2095 "/>
<path d="M80.0299 117.2095 L80.2781 117.7060 "/>
<path d="M78.7886 110.0103 L78.7886 112.4928 "/>
<path d="M78.7886 112.4928 L81.2711 112.7411 "/>
<path d="M81.2711 112.7411 L81.0229 112.4928 "/>
<path d="M81.0229 112.4928 L80.7746 111.9963 "/>
<path d="M80.7746 111.9963 L80.7746 110.7551 "/>
<path d="M80.7746 110.7551 L81.0229 110.2586 "/>
<path d="M81.0229 110.2586 L81.2711 110.0103 "/>
<path d="M81.2711 110.0103 L81.7676 109.7621 "/>
<path d="M81.7676 109.7621 L83.0089 109.7621 "/>
<path d="M83.0089 109.7621 L83.5054 110.0103 "/>
<path d="M83.5054 110.0103 L83.7536 110.2586 "/>
<path d="M83.7536 110.2586 L84.0019 110.7551 "/>
<path d="M84.0019 110.7551 L84.0019 111.9963 "/>
<path d="M84.0019 111.9963 L83.7536 112.4928 "/>
<path d="M83.7536 112.4928 L83.5054 112.7411 "/>
<path d="M79.2851 107.7761 L79.0369 107.5278 "/>
<path d="M79.0369 107.5278 L78.7886 107.0313 "/>
<path d="M78.7886 107.0313 L78.7886 105.7901 "/>
<path d="M78.7886 105.7901 L79.0369 105.2936 "/>
<path d="M79.0369 105.2936 L79.2851 105.0453 "/>
<path d="M79.2851 105.0453 L79.7816 104.7971 "/>
<path d="M79.7816 104.7971 L80.2781 104.7971 "/>
<path d="M80.2781 104.7971 L81.0229 105.0453 "/>
<path d="M81.0229 105.0453 L84.0019 108.0243 "/>
<path d="M84.0019 108.0243 L84.0019 104.7971 "/>
<path d="M84.0019 98.5908 L78.7886 98.5908 "/>
<path d="M78.7886 98.5908 L82.5124 96.8531 "/>
<path d="M82.5124 96.8531 L78.7886 95.1153 "/>
<path d="M78.7886 95.1153 L84.0019 95.1153 "/>
<path d="M84.0019 92.6328 L78.7886 92.6328 "/>
<path d="M81.2711 92.6328 L81.2711 89.6538 "/>
<path d="M84.0019 89.6538 L78.7886 89.6538 "/>
<path d="M80.5264 87.6678 L80.5264 84.9371 "/>
<path d="M80.5264 84.9371 L84.0019 87.6678 "/>
<path d="M84.0019 87.6678 L84.0019 84.9371 "/>
</g><g>
</g>
<g>
</g>
<g>
</g>
<g>
</g>
<g>
</g>
<g>
</g>
<g>
</g>
<g>
</g>
<g>
</g>
<g>
</g>
<g>
</g>
<g>
</g>
<g>
</g>
<g>
</g>
<g>
</g>
<g>
</g>
<g>
</g>
<g>
</g>
<g>
</g>
<g>
</g>
<g>
</g>
<g>
</g>
<g>
</g>
<g>
</g>
<g>
</g>
<g>
</g>
<g>
</g>
<g>
</g>
<g>
</g>
<g>
</g>
<g>
</g>
<g>
</g>
<g>
</g>
<g>
</g>
<g>
</g>
<g>
</g>
<g>
</g>
<g>
</g>
<g>
</g>
<g>
</g>
<g>
</g>
<g>
</g>
<g>
</g>
<g>
</g>
<g>
</g>
<g>
</g>
<g>
</g>
</g> 
<svg:g><svg:g><svg:title>SVG Image created as BRIDGEADC01-Edge_Cuts.svg date 2023/07/20 12:10:10 </svg:title>
  <svg:desc>Image generated by PCBNEW </svg:desc>
<svg:g style="fill:#C2C200; fill-opacity:1.0000;stroke:#C2C200; stroke-opacity:1.0000; stroke-linecap:round; stroke-linejoin:round;" transform="translate(0 0) scale(1 1)">
</svg:g>
<svg:g style="fill:#C2C200; fill-opacity:0.0;  stroke:#C2C200; stroke-width:0.0000; stroke-opacity:1;  stroke-linecap:round; stroke-linejoin:round;">
</svg:g>
<svg:g style="fill:#C2C200; fill-opacity:0.0;  stroke:#C2C200; stroke-width:0.7820; stroke-opacity:1;  stroke-linecap:round; stroke-linejoin:round;">
<svg:path d="M43.8921 209.6126 L253.1101 209.6126 "/>
<svg:path d="M253.1101 0.3946 L43.8921 0.3946 "/>
<svg:path d="M43.8921 0.3946 L43.8921 209.6126 "/>
<svg:path d="M253.1101 209.6126 L253.1101 0.3946 "/>
<svg:g>
</svg:g>
<svg:g>
</svg:g>
<svg:g>
</svg:g>
<svg:g>
</svg:g>
<svg:g>
</svg:g>
<svg:g>
</svg:g>
<svg:g>
</svg:g>
<svg:g>
</svg:g>
<svg:g>
</svg:g>
<svg:g>
</svg:g>
<svg:g>
</svg:g>
<svg:g>
</svg:g>
<svg:g>
</svg:g>
<svg:g>
</svg:g>
<svg:g>
</svg:g>
<svg:g>
</svg:g>
<svg:g>
</svg:g>
<svg:g>
</svg:g>
<svg:g>
</svg:g>
<svg:g>
</svg:g>
<svg:g>
</svg:g>
<svg:g>
</svg:g>
<svg:g>
</svg:g>
<svg:g>
</svg:g>
<svg:g>
</svg:g>
<svg:g>
</svg:g>
<svg:g>
</svg:g>
<svg:g>
</svg:g>
<svg:g>
</svg:g>
<svg:g>
</svg:g>
<svg:g>
</svg:g>
<svg:g>
</svg:g>
<svg:g>
</svg:g>
<svg:g>
</svg:g>
<svg:g>
</svg:g>
<svg:g>
</svg:g>
<svg:g>
</svg:g>
<svg:g>
</svg:g>
<svg:g>
</svg:g>
<svg:g>
</svg:g>
<svg:g>
</svg:g>
<svg:g>
</svg:g>
<svg:g>
</svg:g>
<svg:g>
</svg:g>
<svg:g>
</svg:g>
<svg:g>
</svg:g>
<svg:g>
</svg:g>
</svg:g> 
</svg:g></svg:g></svg>
