<?xml version='1.0' encoding='ASCII' standalone='yes'?>
<svg xmlns:svg="http://www.w3.org/2000/svg" xmlns="http://www.w3.org/2000/svg" xmlns:xlink="http://www.w3.org/1999/xlink" version="1.1" width="297.0022mm" height="210.0072mm" viewBox="0.0000 0.0000 297.0022 210.0072">
<title>SVG Image created as BRIDGEADC01-B_Fab.svg date 2023/07/20 11:23:05 </title>
  <desc>Image generated by PCBNEW </desc>
<g style="fill:#000084; fill-opacity:1.0000;stroke:#000084; stroke-opacity:1.0000; stroke-linecap:round; stroke-linejoin:round;" transform="translate(0 0) scale(1 1)">
</g>
<g style="fill:#000084; fill-opacity:0.0;  stroke:#000084; stroke-width:0.0000; stroke-opacity:1;  stroke-linecap:round; stroke-linejoin:round;">
</g>
<g style="fill:#000084; fill-opacity:0.01;  stroke:#000084; stroke-width:0.7820; stroke-opacity:1;  stroke-linecap:round; stroke-linejoin:round;">
<text x="131.2870" y="130.6111" transform="scale(-1 1) translate(-262.573915 0)" textLength="20.0276" font-size="6.9510" lengthAdjust="spacingAndGlyphs" text-anchor="middle" opacity="0.01" style="font-family:monospace">10uF</text>
<g class="stroked-text"><desc>10uF</desc>
<path d="M125.7013 130.3755 L122.7223 130.3755 "/>
<path d="M124.2118 130.3755 L124.2118 125.1623 "/>
<path d="M124.2118 125.1623 L123.7153 125.9070 "/>
<path d="M123.7153 125.9070 L123.2188 126.4035 "/>
<path d="M123.2188 126.4035 L122.7223 126.6518 "/>
<path d="M128.9286 125.1623 L129.4251 125.1623 "/>
<path d="M129.4251 125.1623 L129.9216 125.4105 "/>
<path d="M129.9216 125.4105 L130.1698 125.6588 "/>
<path d="M130.1698 125.6588 L130.4181 126.1553 "/>
<path d="M130.4181 126.1553 L130.6663 127.1483 "/>
<path d="M130.6663 127.1483 L130.6663 128.3895 "/>
<path d="M130.6663 128.3895 L130.4181 129.3825 "/>
<path d="M130.4181 129.3825 L130.1698 129.8790 "/>
<path d="M130.1698 129.8790 L129.9216 130.1273 "/>
<path d="M129.9216 130.1273 L129.4251 130.3755 "/>
<path d="M129.4251 130.3755 L128.9286 130.3755 "/>
<path d="M128.9286 130.3755 L128.4321 130.1273 "/>
<path d="M128.4321 130.1273 L128.1838 129.8790 "/>
<path d="M128.1838 129.8790 L127.9356 129.3825 "/>
<path d="M127.9356 129.3825 L127.6873 128.3895 "/>
<path d="M127.6873 128.3895 L127.6873 127.1483 "/>
<path d="M127.6873 127.1483 L127.9356 126.1553 "/>
<path d="M127.9356 126.1553 L128.1838 125.6588 "/>
<path d="M128.1838 125.6588 L128.4321 125.4105 "/>
<path d="M128.4321 125.4105 L128.9286 125.1623 "/>
<path d="M135.1348 126.9000 L135.1348 130.3755 "/>
<path d="M132.9006 126.9000 L132.9006 129.6308 "/>
<path d="M132.9006 129.6308 L133.1488 130.1273 "/>
<path d="M133.1488 130.1273 L133.6453 130.3755 "/>
<path d="M133.6453 130.3755 L134.3901 130.3755 "/>
<path d="M134.3901 130.3755 L134.8866 130.1273 "/>
<path d="M134.8866 130.1273 L135.1348 129.8790 "/>
<path d="M139.3551 127.6448 L137.6173 127.6448 "/>
<path d="M137.6173 130.3755 L137.6173 125.1623 "/>
<path d="M137.6173 125.1623 L140.0998 125.1623 "/>
</g><g transform="rotate(-90.000000 117.6908 114.2728)">
<text x="117.6908" y="116.8794" transform="scale(-1 1) translate(-235.381621 0)" textLength="24.9926" font-size="6.9510" lengthAdjust="spacingAndGlyphs" text-anchor="middle" opacity="0.01" style="font-family:monospace">100nF</text>
</g>
<g class="stroked-text"><desc>100nF</desc>
<path d="M115.3197 106.2046 L115.3197 103.2256 "/>
<path d="M115.3197 104.7151 L120.5330 104.7151 "/>
<path d="M120.5330 104.7151 L119.7882 104.2186 "/>
<path d="M119.7882 104.2186 L119.2917 103.7221 "/>
<path d="M119.2917 103.7221 L119.0435 103.2256 "/>
<path d="M120.5330 109.4319 L120.5330 109.9284 "/>
<path d="M120.5330 109.9284 L120.2847 110.4249 "/>
<path d="M120.2847 110.4249 L120.0365 110.6731 "/>
<path d="M120.0365 110.6731 L119.5400 110.9214 "/>
<path d="M119.5400 110.9214 L118.5470 111.1696 "/>
<path d="M118.5470 111.1696 L117.3057 111.1696 "/>
<path d="M117.3057 111.1696 L116.3127 110.9214 "/>
<path d="M116.3127 110.9214 L115.8162 110.6731 "/>
<path d="M115.8162 110.6731 L115.5680 110.4249 "/>
<path d="M115.5680 110.4249 L115.3197 109.9284 "/>
<path d="M115.3197 109.9284 L115.3197 109.4319 "/>
<path d="M115.3197 109.4319 L115.5680 108.9354 "/>
<path d="M115.5680 108.9354 L115.8162 108.6871 "/>
<path d="M115.8162 108.6871 L116.3127 108.4389 "/>
<path d="M116.3127 108.4389 L117.3057 108.1906 "/>
<path d="M117.3057 108.1906 L118.5470 108.1906 "/>
<path d="M118.5470 108.1906 L119.5400 108.4389 "/>
<path d="M119.5400 108.4389 L120.0365 108.6871 "/>
<path d="M120.0365 108.6871 L120.2847 108.9354 "/>
<path d="M120.2847 108.9354 L120.5330 109.4319 "/>
<path d="M120.5330 114.3969 L120.5330 114.8934 "/>
<path d="M120.5330 114.8934 L120.2847 115.3899 "/>
<path d="M120.2847 115.3899 L120.0365 115.6381 "/>
<path d="M120.0365 115.6381 L119.5400 115.8864 "/>
<path d="M119.5400 115.8864 L118.5470 116.1346 "/>
<path d="M118.5470 116.1346 L117.3057 116.1346 "/>
<path d="M117.3057 116.1346 L116.3127 115.8864 "/>
<path d="M116.3127 115.8864 L115.8162 115.6381 "/>
<path d="M115.8162 115.6381 L115.5680 115.3899 "/>
<path d="M115.5680 115.3899 L115.3197 114.8934 "/>
<path d="M115.3197 114.8934 L115.3197 114.3969 "/>
<path d="M115.3197 114.3969 L115.5680 113.9004 "/>
<path d="M115.5680 113.9004 L115.8162 113.6521 "/>
<path d="M115.8162 113.6521 L116.3127 113.4039 "/>
<path d="M116.3127 113.4039 L117.3057 113.1556 "/>
<path d="M117.3057 113.1556 L118.5470 113.1556 "/>
<path d="M118.5470 113.1556 L119.5400 113.4039 "/>
<path d="M119.5400 113.4039 L120.0365 113.6521 "/>
<path d="M120.0365 113.6521 L120.2847 113.9004 "/>
<path d="M120.2847 113.9004 L120.5330 114.3969 "/>
<path d="M118.7952 118.3689 L115.3197 118.3689 "/>
<path d="M118.2987 118.3689 L118.5470 118.6171 "/>
<path d="M118.5470 118.6171 L118.7952 119.1136 "/>
<path d="M118.7952 119.1136 L118.7952 119.8584 "/>
<path d="M118.7952 119.8584 L118.5470 120.3549 "/>
<path d="M118.5470 120.3549 L118.0505 120.6031 "/>
<path d="M118.0505 120.6031 L115.3197 120.6031 "/>
<path d="M118.0505 124.8234 L118.0505 123.0856 "/>
<path d="M115.3197 123.0856 L120.5330 123.0856 "/>
<path d="M120.5330 123.0856 L120.5330 125.5681 "/>
</g><g transform="rotate(-90.000000 105.1582 46.7404)">
<text x="105.1582" y="49.3470" transform="scale(-1 1) translate(-210.316331 0)" textLength="24.9926" font-size="6.9510" lengthAdjust="spacingAndGlyphs" text-anchor="middle" opacity="0.01" style="font-family:monospace">100nF</text>
</g>
<g class="stroked-text"><desc>100nF</desc>
<path d="M102.7871 38.6722 L102.7871 35.6932 "/>
<path d="M102.7871 37.1827 L108.0003 37.1827 "/>
<path d="M108.0003 37.1827 L107.2556 36.6862 "/>
<path d="M107.2556 36.6862 L106.7591 36.1897 "/>
<path d="M106.7591 36.1897 L106.5108 35.6932 "/>
<path d="M108.0003 41.8995 L108.0003 42.3960 "/>
<path d="M108.0003 42.3960 L107.7521 42.8925 "/>
<path d="M107.7521 42.8925 L107.5038 43.1407 "/>
<path d="M107.5038 43.1407 L107.0073 43.3890 "/>
<path d="M107.0073 43.3890 L106.0143 43.6372 "/>
<path d="M106.0143 43.6372 L104.7731 43.6372 "/>
<path d="M104.7731 43.6372 L103.7801 43.3890 "/>
<path d="M103.7801 43.3890 L103.2836 43.1407 "/>
<path d="M103.2836 43.1407 L103.0353 42.8925 "/>
<path d="M103.0353 42.8925 L102.7871 42.3960 "/>
<path d="M102.7871 42.3960 L102.7871 41.8995 "/>
<path d="M102.7871 41.8995 L103.0353 41.4030 "/>
<path d="M103.0353 41.4030 L103.2836 41.1547 "/>
<path d="M103.2836 41.1547 L103.7801 40.9065 "/>
<path d="M103.7801 40.9065 L104.7731 40.6582 "/>
<path d="M104.7731 40.6582 L106.0143 40.6582 "/>
<path d="M106.0143 40.6582 L107.0073 40.9065 "/>
<path d="M107.0073 40.9065 L107.5038 41.1547 "/>
<path d="M107.5038 41.1547 L107.7521 41.4030 "/>
<path d="M107.7521 41.4030 L108.0003 41.8995 "/>
<path d="M108.0003 46.8645 L108.0003 47.3610 "/>
<path d="M108.0003 47.3610 L107.7521 47.8575 "/>
<path d="M107.7521 47.8575 L107.5038 48.1057 "/>
<path d="M107.5038 48.1057 L107.0073 48.3540 "/>
<path d="M107.0073 48.3540 L106.0143 48.6022 "/>
<path d="M106.0143 48.6022 L104.7731 48.6022 "/>
<path d="M104.7731 48.6022 L103.7801 48.3540 "/>
<path d="M103.7801 48.3540 L103.2836 48.1057 "/>
<path d="M103.2836 48.1057 L103.0353 47.8575 "/>
<path d="M103.0353 47.8575 L102.7871 47.3610 "/>
<path d="M102.7871 47.3610 L102.7871 46.8645 "/>
<path d="M102.7871 46.8645 L103.0353 46.3680 "/>
<path d="M103.0353 46.3680 L103.2836 46.1197 "/>
<path d="M103.2836 46.1197 L103.7801 45.8715 "/>
<path d="M103.7801 45.8715 L104.7731 45.6232 "/>
<path d="M104.7731 45.6232 L106.0143 45.6232 "/>
<path d="M106.0143 45.6232 L107.0073 45.8715 "/>
<path d="M107.0073 45.8715 L107.5038 46.1197 "/>
<path d="M107.5038 46.1197 L107.7521 46.3680 "/>
<path d="M107.7521 46.3680 L108.0003 46.8645 "/>
<path d="M106.2626 50.8365 L102.7871 50.8365 "/>
<path d="M105.7661 50.8365 L106.0143 51.0847 "/>
<path d="M106.0143 51.0847 L106.2626 51.5812 "/>
<path d="M106.2626 51.5812 L106.2626 52.3260 "/>
<path d="M106.2626 52.3260 L106.0143 52.8225 "/>
<path d="M106.0143 52.8225 L105.5178 53.0707 "/>
<path d="M105.5178 53.0707 L102.7871 53.0707 "/>
<path d="M105.5178 57.2910 L105.5178 55.5532 "/>
<path d="M102.7871 55.5532 L108.0003 55.5532 "/>
<path d="M108.0003 55.5532 L108.0003 58.0357 "/>
</g><text x="190.8744" y="82.8056" transform="scale(-1 1) translate(-381.748732 0)" textLength="24.9926" font-size="6.9510" lengthAdjust="spacingAndGlyphs" text-anchor="middle" opacity="0.01" style="font-family:monospace">100nF</text>
<g class="stroked-text"><desc>100nF</desc>
<path d="M182.8062 82.5701 L179.8273 82.5701 "/>
<path d="M181.3167 82.5701 L181.3167 77.3568 "/>
<path d="M181.3167 77.3568 L180.8202 78.1016 "/>
<path d="M180.8202 78.1016 L180.3238 78.5981 "/>
<path d="M180.3238 78.5981 L179.8273 78.8463 "/>
<path d="M186.0335 77.3568 L186.5300 77.3568 "/>
<path d="M186.5300 77.3568 L187.0265 77.6051 "/>
<path d="M187.0265 77.6051 L187.2747 77.8533 "/>
<path d="M187.2747 77.8533 L187.5230 78.3498 "/>
<path d="M187.5230 78.3498 L187.7712 79.3428 "/>
<path d="M187.7712 79.3428 L187.7712 80.5841 "/>
<path d="M187.7712 80.5841 L187.5230 81.5771 "/>
<path d="M187.5230 81.5771 L187.2747 82.0736 "/>
<path d="M187.2747 82.0736 L187.0265 82.3218 "/>
<path d="M187.0265 82.3218 L186.5300 82.5701 "/>
<path d="M186.5300 82.5701 L186.0335 82.5701 "/>
<path d="M186.0335 82.5701 L185.5370 82.3218 "/>
<path d="M185.5370 82.3218 L185.2887 82.0736 "/>
<path d="M185.2887 82.0736 L185.0405 81.5771 "/>
<path d="M185.0405 81.5771 L184.7922 80.5841 "/>
<path d="M184.7922 80.5841 L184.7922 79.3428 "/>
<path d="M184.7922 79.3428 L185.0405 78.3498 "/>
<path d="M185.0405 78.3498 L185.2887 77.8533 "/>
<path d="M185.2887 77.8533 L185.5370 77.6051 "/>
<path d="M185.5370 77.6051 L186.0335 77.3568 "/>
<path d="M190.9985 77.3568 L191.4950 77.3568 "/>
<path d="M191.4950 77.3568 L191.9915 77.6051 "/>
<path d="M191.9915 77.6051 L192.2397 77.8533 "/>
<path d="M192.2397 77.8533 L192.4880 78.3498 "/>
<path d="M192.4880 78.3498 L192.7362 79.3428 "/>
<path d="M192.7362 79.3428 L192.7362 80.5841 "/>
<path d="M192.7362 80.5841 L192.4880 81.5771 "/>
<path d="M192.4880 81.5771 L192.2397 82.0736 "/>
<path d="M192.2397 82.0736 L191.9915 82.3218 "/>
<path d="M191.9915 82.3218 L191.4950 82.5701 "/>
<path d="M191.4950 82.5701 L190.9985 82.5701 "/>
<path d="M190.9985 82.5701 L190.5020 82.3218 "/>
<path d="M190.5020 82.3218 L190.2537 82.0736 "/>
<path d="M190.2537 82.0736 L190.0055 81.5771 "/>
<path d="M190.0055 81.5771 L189.7572 80.5841 "/>
<path d="M189.7572 80.5841 L189.7572 79.3428 "/>
<path d="M189.7572 79.3428 L190.0055 78.3498 "/>
<path d="M190.0055 78.3498 L190.2537 77.8533 "/>
<path d="M190.2537 77.8533 L190.5020 77.6051 "/>
<path d="M190.5020 77.6051 L190.9985 77.3568 "/>
<path d="M194.9705 79.0946 L194.9705 82.5701 "/>
<path d="M194.9705 79.5911 L195.2187 79.3428 "/>
<path d="M195.2187 79.3428 L195.7152 79.0946 "/>
<path d="M195.7152 79.0946 L196.4600 79.0946 "/>
<path d="M196.4600 79.0946 L196.9565 79.3428 "/>
<path d="M196.9565 79.3428 L197.2047 79.8393 "/>
<path d="M197.2047 79.8393 L197.2047 82.5701 "/>
<path d="M201.4250 79.8393 L199.6872 79.8393 "/>
<path d="M199.6872 82.5701 L199.6872 77.3568 "/>
<path d="M199.6872 77.3568 L202.1697 77.3568 "/>
</g><g transform="rotate(-90.000000 95.5345 177.1706)">
<text x="95.5345" y="179.7772" transform="scale(-1 1) translate(-191.069024 0)" textLength="11.8353" font-size="6.9510" lengthAdjust="spacingAndGlyphs" text-anchor="middle" opacity="0.01" style="font-family:monospace">M4</text>
</g>
<g class="stroked-text"><desc>M4</desc>
<path d="M93.1634 172.9503 L98.3767 172.9503 "/>
<path d="M98.3767 172.9503 L94.6529 174.6881 "/>
<path d="M94.6529 174.6881 L98.3767 176.4258 "/>
<path d="M98.3767 176.4258 L93.1634 176.4258 "/>
<path d="M96.6389 181.1426 L93.1634 181.1426 "/>
<path d="M98.6249 179.9013 L94.9012 178.6601 "/>
<path d="M94.9012 178.6601 L94.9012 181.8873 "/>
</g><g transform="rotate(-90.000000 165.8091 176.5085)">
<text x="165.8091" y="179.1151" transform="scale(-1 1) translate(-331.618153 0)" textLength="11.8353" font-size="6.9510" lengthAdjust="spacingAndGlyphs" text-anchor="middle" opacity="0.01" style="font-family:monospace">M4</text>
</g>
<g class="stroked-text"><desc>M4</desc>
<path d="M163.4380 172.2882 L168.6512 172.2882 "/>
<path d="M168.6512 172.2882 L164.9275 174.0260 "/>
<path d="M164.9275 174.0260 L168.6512 175.7637 "/>
<path d="M168.6512 175.7637 L163.4380 175.7637 "/>
<path d="M166.9135 180.4805 L163.4380 180.4805 "/>
<path d="M168.8995 179.2392 L165.1757 177.9980 "/>
<path d="M165.1757 177.9980 L165.1757 181.2252 "/>
</g><text x="149.4160" y="192.9876" transform="scale(-1 1) translate(-298.832045 0)" textLength="72.1600" font-size="6.9510" lengthAdjust="spacingAndGlyphs" text-anchor="middle" opacity="0.01" style="font-family:monospace">BLM21PG300SN1D</text>
<g class="stroked-text"><desc>BLM21PG300SN1D</desc>
<path d="M116.7712 190.0213 L117.5159 190.2695 "/>
<path d="M117.5159 190.2695 L117.7642 190.5178 "/>
<path d="M117.7642 190.5178 L118.0124 191.0143 "/>
<path d="M118.0124 191.0143 L118.0124 191.7590 "/>
<path d="M118.0124 191.7590 L117.7642 192.2555 "/>
<path d="M117.7642 192.2555 L117.5159 192.5038 "/>
<path d="M117.5159 192.5038 L117.0194 192.7520 "/>
<path d="M117.0194 192.7520 L115.0334 192.7520 "/>
<path d="M115.0334 192.7520 L115.0334 187.5388 "/>
<path d="M115.0334 187.5388 L116.7712 187.5388 "/>
<path d="M116.7712 187.5388 L117.2677 187.7870 "/>
<path d="M117.2677 187.7870 L117.5159 188.0353 "/>
<path d="M117.5159 188.0353 L117.7642 188.5318 "/>
<path d="M117.7642 188.5318 L117.7642 189.0283 "/>
<path d="M117.7642 189.0283 L117.5159 189.5248 "/>
<path d="M117.5159 189.5248 L117.2677 189.7730 "/>
<path d="M117.2677 189.7730 L116.7712 190.0213 "/>
<path d="M116.7712 190.0213 L115.0334 190.0213 "/>
<path d="M122.7292 192.7520 L120.2467 192.7520 "/>
<path d="M120.2467 192.7520 L120.2467 187.5388 "/>
<path d="M124.4669 192.7520 L124.4669 187.5388 "/>
<path d="M124.4669 187.5388 L126.2047 191.2625 "/>
<path d="M126.2047 191.2625 L127.9424 187.5388 "/>
<path d="M127.9424 187.5388 L127.9424 192.7520 "/>
<path d="M130.1767 188.0353 L130.4249 187.7870 "/>
<path d="M130.4249 187.7870 L130.9214 187.5388 "/>
<path d="M130.9214 187.5388 L132.1627 187.5388 "/>
<path d="M132.1627 187.5388 L132.6592 187.7870 "/>
<path d="M132.6592 187.7870 L132.9074 188.0353 "/>
<path d="M132.9074 188.0353 L133.1557 188.5318 "/>
<path d="M133.1557 188.5318 L133.1557 189.0283 "/>
<path d="M133.1557 189.0283 L132.9074 189.7730 "/>
<path d="M132.9074 189.7730 L129.9284 192.7520 "/>
<path d="M129.9284 192.7520 L133.1557 192.7520 "/>
<path d="M138.1207 192.7520 L135.1417 192.7520 "/>
<path d="M136.6312 192.7520 L136.6312 187.5388 "/>
<path d="M136.6312 187.5388 L136.1347 188.2835 "/>
<path d="M136.1347 188.2835 L135.6382 188.7800 "/>
<path d="M135.6382 188.7800 L135.1417 189.0283 "/>
<path d="M140.3549 192.7520 L140.3549 187.5388 "/>
<path d="M140.3549 187.5388 L142.3409 187.5388 "/>
<path d="M142.3409 187.5388 L142.8374 187.7870 "/>
<path d="M142.8374 187.7870 L143.0857 188.0353 "/>
<path d="M143.0857 188.0353 L143.3339 188.5318 "/>
<path d="M143.3339 188.5318 L143.3339 189.2765 "/>
<path d="M143.3339 189.2765 L143.0857 189.7730 "/>
<path d="M143.0857 189.7730 L142.8374 190.0213 "/>
<path d="M142.8374 190.0213 L142.3409 190.2695 "/>
<path d="M142.3409 190.2695 L140.3549 190.2695 "/>
<path d="M148.2989 187.7870 L147.8024 187.5388 "/>
<path d="M147.8024 187.5388 L147.0577 187.5388 "/>
<path d="M147.0577 187.5388 L146.3129 187.7870 "/>
<path d="M146.3129 187.7870 L145.8164 188.2835 "/>
<path d="M145.8164 188.2835 L145.5682 188.7800 "/>
<path d="M145.5682 188.7800 L145.3199 189.7730 "/>
<path d="M145.3199 189.7730 L145.3199 190.5178 "/>
<path d="M145.3199 190.5178 L145.5682 191.5108 "/>
<path d="M145.5682 191.5108 L145.8164 192.0073 "/>
<path d="M145.8164 192.0073 L146.3129 192.5038 "/>
<path d="M146.3129 192.5038 L147.0577 192.7520 "/>
<path d="M147.0577 192.7520 L147.5542 192.7520 "/>
<path d="M147.5542 192.7520 L148.2989 192.5038 "/>
<path d="M148.2989 192.5038 L148.5472 192.2555 "/>
<path d="M148.5472 192.2555 L148.5472 190.5178 "/>
<path d="M148.5472 190.5178 L147.5542 190.5178 "/>
<path d="M150.2849 187.5388 L153.5121 187.5388 "/>
<path d="M153.5121 187.5388 L151.7744 189.5248 "/>
<path d="M151.7744 189.5248 L152.5192 189.5248 "/>
<path d="M152.5192 189.5248 L153.0156 189.7730 "/>
<path d="M153.0156 189.7730 L153.2639 190.0213 "/>
<path d="M153.2639 190.0213 L153.5121 190.5178 "/>
<path d="M153.5121 190.5178 L153.5121 191.7590 "/>
<path d="M153.5121 191.7590 L153.2639 192.2555 "/>
<path d="M153.2639 192.2555 L153.0156 192.5038 "/>
<path d="M153.0156 192.5038 L152.5192 192.7520 "/>
<path d="M152.5192 192.7520 L151.0297 192.7520 "/>
<path d="M151.0297 192.7520 L150.5332 192.5038 "/>
<path d="M150.5332 192.5038 L150.2849 192.2555 "/>
<path d="M156.7394 187.5388 L157.2359 187.5388 "/>
<path d="M157.2359 187.5388 L157.7324 187.7870 "/>
<path d="M157.7324 187.7870 L157.9806 188.0353 "/>
<path d="M157.9806 188.0353 L158.2289 188.5318 "/>
<path d="M158.2289 188.5318 L158.4771 189.5248 "/>
<path d="M158.4771 189.5248 L158.4771 190.7660 "/>
<path d="M158.4771 190.7660 L158.2289 191.7590 "/>
<path d="M158.2289 191.7590 L157.9806 192.2555 "/>
<path d="M157.9806 192.2555 L157.7324 192.5038 "/>
<path d="M157.7324 192.5038 L157.2359 192.7520 "/>
<path d="M157.2359 192.7520 L156.7394 192.7520 "/>
<path d="M156.7394 192.7520 L156.2429 192.5038 "/>
<path d="M156.2429 192.5038 L155.9946 192.2555 "/>
<path d="M155.9946 192.2555 L155.7464 191.7590 "/>
<path d="M155.7464 191.7590 L155.4982 190.7660 "/>
<path d="M155.4982 190.7660 L155.4982 189.5248 "/>
<path d="M155.4982 189.5248 L155.7464 188.5318 "/>
<path d="M155.7464 188.5318 L155.9946 188.0353 "/>
<path d="M155.9946 188.0353 L156.2429 187.7870 "/>
<path d="M156.2429 187.7870 L156.7394 187.5388 "/>
<path d="M161.7044 187.5388 L162.2009 187.5388 "/>
<path d="M162.2009 187.5388 L162.6974 187.7870 "/>
<path d="M162.6974 187.7870 L162.9456 188.0353 "/>
<path d="M162.9456 188.0353 L163.1939 188.5318 "/>
<path d="M163.1939 188.5318 L163.4421 189.5248 "/>
<path d="M163.4421 189.5248 L163.4421 190.7660 "/>
<path d="M163.4421 190.7660 L163.1939 191.7590 "/>
<path d="M163.1939 191.7590 L162.9456 192.2555 "/>
<path d="M162.9456 192.2555 L162.6974 192.5038 "/>
<path d="M162.6974 192.5038 L162.2009 192.7520 "/>
<path d="M162.2009 192.7520 L161.7044 192.7520 "/>
<path d="M161.7044 192.7520 L161.2079 192.5038 "/>
<path d="M161.2079 192.5038 L160.9596 192.2555 "/>
<path d="M160.9596 192.2555 L160.7114 191.7590 "/>
<path d="M160.7114 191.7590 L160.4631 190.7660 "/>
<path d="M160.4631 190.7660 L160.4631 189.5248 "/>
<path d="M160.4631 189.5248 L160.7114 188.5318 "/>
<path d="M160.7114 188.5318 L160.9596 188.0353 "/>
<path d="M160.9596 188.0353 L161.2079 187.7870 "/>
<path d="M161.2079 187.7870 L161.7044 187.5388 "/>
<path d="M165.4281 192.5038 L166.1729 192.7520 "/>
<path d="M166.1729 192.7520 L167.4141 192.7520 "/>
<path d="M167.4141 192.7520 L167.9106 192.5038 "/>
<path d="M167.9106 192.5038 L168.1589 192.2555 "/>
<path d="M168.1589 192.2555 L168.4071 191.7590 "/>
<path d="M168.4071 191.7590 L168.4071 191.2625 "/>
<path d="M168.4071 191.2625 L168.1589 190.7660 "/>
<path d="M168.1589 190.7660 L167.9106 190.5178 "/>
<path d="M167.9106 190.5178 L167.4141 190.2695 "/>
<path d="M167.4141 190.2695 L166.4211 190.0213 "/>
<path d="M166.4211 190.0213 L165.9246 189.7730 "/>
<path d="M165.9246 189.7730 L165.6764 189.5248 "/>
<path d="M165.6764 189.5248 L165.4281 189.0283 "/>
<path d="M165.4281 189.0283 L165.4281 188.5318 "/>
<path d="M165.4281 188.5318 L165.6764 188.0353 "/>
<path d="M165.6764 188.0353 L165.9246 187.7870 "/>
<path d="M165.9246 187.7870 L166.4211 187.5388 "/>
<path d="M166.4211 187.5388 L167.6624 187.5388 "/>
<path d="M167.6624 187.5388 L168.4071 187.7870 "/>
<path d="M170.6414 192.7520 L170.6414 187.5388 "/>
<path d="M170.6414 187.5388 L173.6204 192.7520 "/>
<path d="M173.6204 192.7520 L173.6204 187.5388 "/>
<path d="M178.8336 192.7520 L175.8546 192.7520 "/>
<path d="M177.3441 192.7520 L177.3441 187.5388 "/>
<path d="M177.3441 187.5388 L176.8476 188.2835 "/>
<path d="M176.8476 188.2835 L176.3511 188.7800 "/>
<path d="M176.3511 188.7800 L175.8546 189.0283 "/>
<path d="M181.0679 192.7520 L181.0679 187.5388 "/>
<path d="M181.0679 187.5388 L182.3091 187.5388 "/>
<path d="M182.3091 187.5388 L183.0539 187.7870 "/>
<path d="M183.0539 187.7870 L183.5504 188.2835 "/>
<path d="M183.5504 188.2835 L183.7986 188.7800 "/>
<path d="M183.7986 188.7800 L184.0469 189.7730 "/>
<path d="M184.0469 189.7730 L184.0469 190.5178 "/>
<path d="M184.0469 190.5178 L183.7986 191.5108 "/>
<path d="M183.7986 191.5108 L183.5504 192.0073 "/>
<path d="M183.5504 192.0073 L183.0539 192.5038 "/>
<path d="M183.0539 192.5038 L182.3091 192.7520 "/>
<path d="M182.3091 192.7520 L181.0679 192.7520 "/>
</g><g transform="rotate(-90.000000 175.9541 147.3769)">
<text x="175.9541" y="149.9835" transform="scale(-1 1) translate(-351.908109 0)" textLength="72.1600" font-size="6.9510" lengthAdjust="spacingAndGlyphs" text-anchor="middle" opacity="0.01" style="font-family:monospace">BLM21PG300SN1D</text>
</g>
<g class="stroked-text"><desc>BLM21PG300SN1D</desc>
<path d="M176.3137 114.7320 L176.0655 115.4768 "/>
<path d="M176.0655 115.4768 L175.8172 115.7250 "/>
<path d="M175.8172 115.7250 L175.3207 115.9733 "/>
<path d="M175.3207 115.9733 L174.5760 115.9733 "/>
<path d="M174.5760 115.9733 L174.0795 115.7250 "/>
<path d="M174.0795 115.7250 L173.8312 115.4768 "/>
<path d="M173.8312 115.4768 L173.5830 114.9803 "/>
<path d="M173.5830 114.9803 L173.5830 112.9943 "/>
<path d="M173.5830 112.9943 L178.7962 112.9943 "/>
<path d="M178.7962 112.9943 L178.7962 114.7320 "/>
<path d="M178.7962 114.7320 L178.5480 115.2285 "/>
<path d="M178.5480 115.2285 L178.2997 115.4768 "/>
<path d="M178.2997 115.4768 L177.8032 115.7250 "/>
<path d="M177.8032 115.7250 L177.3067 115.7250 "/>
<path d="M177.3067 115.7250 L176.8102 115.4768 "/>
<path d="M176.8102 115.4768 L176.5620 115.2285 "/>
<path d="M176.5620 115.2285 L176.3137 114.7320 "/>
<path d="M176.3137 114.7320 L176.3137 112.9943 "/>
<path d="M173.5830 120.6900 L173.5830 118.2075 "/>
<path d="M173.5830 118.2075 L178.7962 118.2075 "/>
<path d="M173.5830 122.4278 L178.7962 122.4278 "/>
<path d="M178.7962 122.4278 L175.0725 124.1655 "/>
<path d="M175.0725 124.1655 L178.7962 125.9033 "/>
<path d="M178.7962 125.9033 L173.5830 125.9033 "/>
<path d="M178.2997 128.1375 L178.5480 128.3858 "/>
<path d="M178.5480 128.3858 L178.7962 128.8823 "/>
<path d="M178.7962 128.8823 L178.7962 130.1235 "/>
<path d="M178.7962 130.1235 L178.5480 130.6200 "/>
<path d="M178.5480 130.6200 L178.2997 130.8683 "/>
<path d="M178.2997 130.8683 L177.8032 131.1165 "/>
<path d="M177.8032 131.1165 L177.3067 131.1165 "/>
<path d="M177.3067 131.1165 L176.5620 130.8683 "/>
<path d="M176.5620 130.8683 L173.5830 127.8893 "/>
<path d="M173.5830 127.8893 L173.5830 131.1165 "/>
<path d="M173.5830 136.0815 L173.5830 133.1025 "/>
<path d="M173.5830 134.5920 L178.7962 134.5920 "/>
<path d="M178.7962 134.5920 L178.0515 134.0955 "/>
<path d="M178.0515 134.0955 L177.5550 133.5990 "/>
<path d="M177.5550 133.5990 L177.3067 133.1025 "/>
<path d="M173.5830 138.3158 L178.7962 138.3158 "/>
<path d="M178.7962 138.3158 L178.7962 140.3017 "/>
<path d="M178.7962 140.3017 L178.5480 140.7982 "/>
<path d="M178.5480 140.7982 L178.2997 141.0465 "/>
<path d="M178.2997 141.0465 L177.8032 141.2947 "/>
<path d="M177.8032 141.2947 L177.0585 141.2947 "/>
<path d="M177.0585 141.2947 L176.5620 141.0465 "/>
<path d="M176.5620 141.0465 L176.3137 140.7982 "/>
<path d="M176.3137 140.7982 L176.0655 140.3017 "/>
<path d="M176.0655 140.3017 L176.0655 138.3158 "/>
<path d="M178.5480 146.2597 L178.7962 145.7632 "/>
<path d="M178.7962 145.7632 L178.7962 145.0185 "/>
<path d="M178.7962 145.0185 L178.5480 144.2737 "/>
<path d="M178.5480 144.2737 L178.0515 143.7772 "/>
<path d="M178.0515 143.7772 L177.5550 143.5290 "/>
<path d="M177.5550 143.5290 L176.5620 143.2807 "/>
<path d="M176.5620 143.2807 L175.8172 143.2807 "/>
<path d="M175.8172 143.2807 L174.8242 143.5290 "/>
<path d="M174.8242 143.5290 L174.3277 143.7772 "/>
<path d="M174.3277 143.7772 L173.8312 144.2737 "/>
<path d="M173.8312 144.2737 L173.5830 145.0185 "/>
<path d="M173.5830 145.0185 L173.5830 145.5150 "/>
<path d="M173.5830 145.5150 L173.8312 146.2597 "/>
<path d="M173.8312 146.2597 L174.0795 146.5080 "/>
<path d="M174.0795 146.5080 L175.8172 146.5080 "/>
<path d="M175.8172 146.5080 L175.8172 145.5150 "/>
<path d="M178.7962 148.2457 L178.7962 151.4730 "/>
<path d="M178.7962 151.4730 L176.8102 149.7352 "/>
<path d="M176.8102 149.7352 L176.8102 150.4800 "/>
<path d="M176.8102 150.4800 L176.5620 150.9765 "/>
<path d="M176.5620 150.9765 L176.3137 151.2247 "/>
<path d="M176.3137 151.2247 L175.8172 151.4730 "/>
<path d="M175.8172 151.4730 L174.5760 151.4730 "/>
<path d="M174.5760 151.4730 L174.0795 151.2247 "/>
<path d="M174.0795 151.2247 L173.8312 150.9765 "/>
<path d="M173.8312 150.9765 L173.5830 150.4800 "/>
<path d="M173.5830 150.4800 L173.5830 148.9905 "/>
<path d="M173.5830 148.9905 L173.8312 148.4940 "/>
<path d="M173.8312 148.4940 L174.0795 148.2457 "/>
<path d="M178.7962 154.7002 L178.7962 155.1967 "/>
<path d="M178.7962 155.1967 L178.5480 155.6932 "/>
<path d="M178.5480 155.6932 L178.2997 155.9415 "/>
<path d="M178.2997 155.9415 L177.8032 156.1897 "/>
<path d="M177.8032 156.1897 L176.8102 156.4380 "/>
<path d="M176.8102 156.4380 L175.5690 156.4380 "/>
<path d="M175.5690 156.4380 L174.5760 156.1897 "/>
<path d="M174.5760 156.1897 L174.0795 155.9415 "/>
<path d="M174.0795 155.9415 L173.8312 155.6932 "/>
<path d="M173.8312 155.6932 L173.5830 155.1967 "/>
<path d="M173.5830 155.1967 L173.5830 154.7002 "/>
<path d="M173.5830 154.7002 L173.8312 154.2037 "/>
<path d="M173.8312 154.2037 L174.0795 153.9555 "/>
<path d="M174.0795 153.9555 L174.5760 153.7072 "/>
<path d="M174.5760 153.7072 L175.5690 153.4590 "/>
<path d="M175.5690 153.4590 L176.8102 153.4590 "/>
<path d="M176.8102 153.4590 L177.8032 153.7072 "/>
<path d="M177.8032 153.7072 L178.2997 153.9555 "/>
<path d="M178.2997 153.9555 L178.5480 154.2037 "/>
<path d="M178.5480 154.2037 L178.7962 154.7002 "/>
<path d="M178.7962 159.6652 L178.7962 160.1617 "/>
<path d="M178.7962 160.1617 L178.5480 160.6582 "/>
<path d="M178.5480 160.6582 L178.2997 160.9065 "/>
<path d="M178.2997 160.9065 L177.8032 161.1547 "/>
<path d="M177.8032 161.1547 L176.8102 161.4030 "/>
<path d="M176.8102 161.4030 L175.5690 161.4030 "/>
<path d="M175.5690 161.4030 L174.5760 161.1547 "/>
<path d="M174.5760 161.1547 L174.0795 160.9065 "/>
<path d="M174.0795 160.9065 L173.8312 160.6582 "/>
<path d="M173.8312 160.6582 L173.5830 160.1617 "/>
<path d="M173.5830 160.1617 L173.5830 159.6652 "/>
<path d="M173.5830 159.6652 L173.8312 159.1687 "/>
<path d="M173.8312 159.1687 L174.0795 158.9205 "/>
<path d="M174.0795 158.9205 L174.5760 158.6722 "/>
<path d="M174.5760 158.6722 L175.5690 158.4240 "/>
<path d="M175.5690 158.4240 L176.8102 158.4240 "/>
<path d="M176.8102 158.4240 L177.8032 158.6722 "/>
<path d="M177.8032 158.6722 L178.2997 158.9205 "/>
<path d="M178.2997 158.9205 L178.5480 159.1687 "/>
<path d="M178.5480 159.1687 L178.7962 159.6652 "/>
<path d="M173.8312 163.3890 L173.5830 164.1337 "/>
<path d="M173.5830 164.1337 L173.5830 165.3750 "/>
<path d="M173.5830 165.3750 L173.8312 165.8715 "/>
<path d="M173.8312 165.8715 L174.0795 166.1197 "/>
<path d="M174.0795 166.1197 L174.5760 166.3680 "/>
<path d="M174.5760 166.3680 L175.0725 166.3680 "/>
<path d="M175.0725 166.3680 L175.5690 166.1197 "/>
<path d="M175.5690 166.1197 L175.8172 165.8715 "/>
<path d="M175.8172 165.8715 L176.0655 165.3750 "/>
<path d="M176.0655 165.3750 L176.3137 164.3820 "/>
<path d="M176.3137 164.3820 L176.5620 163.8855 "/>
<path d="M176.5620 163.8855 L176.8102 163.6372 "/>
<path d="M176.8102 163.6372 L177.3067 163.3890 "/>
<path d="M177.3067 163.3890 L177.8032 163.3890 "/>
<path d="M177.8032 163.3890 L178.2997 163.6372 "/>
<path d="M178.2997 163.6372 L178.5480 163.8855 "/>
<path d="M178.5480 163.8855 L178.7962 164.3820 "/>
<path d="M178.7962 164.3820 L178.7962 165.6232 "/>
<path d="M178.7962 165.6232 L178.5480 166.3680 "/>
<path d="M173.5830 168.6022 L178.7962 168.6022 "/>
<path d="M178.7962 168.6022 L173.5830 171.5812 "/>
<path d="M173.5830 171.5812 L178.7962 171.5812 "/>
<path d="M173.5830 176.7945 L173.5830 173.8155 "/>
<path d="M173.5830 175.3050 L178.7962 175.3050 "/>
<path d="M178.7962 175.3050 L178.0515 174.8085 "/>
<path d="M178.0515 174.8085 L177.5550 174.3120 "/>
<path d="M177.5550 174.3120 L177.3067 173.8155 "/>
<path d="M173.5830 179.0287 L178.7962 179.0287 "/>
<path d="M178.7962 179.0287 L178.7962 180.2700 "/>
<path d="M178.7962 180.2700 L178.5480 181.0147 "/>
<path d="M178.5480 181.0147 L178.0515 181.5112 "/>
<path d="M178.0515 181.5112 L177.5550 181.7595 "/>
<path d="M177.5550 181.7595 L176.5620 182.0077 "/>
<path d="M176.5620 182.0077 L175.8172 182.0077 "/>
<path d="M175.8172 182.0077 L174.8242 181.7595 "/>
<path d="M174.8242 181.7595 L174.3277 181.5112 "/>
<path d="M174.3277 181.5112 L173.8312 181.0147 "/>
<path d="M173.8312 181.0147 L173.5830 180.2700 "/>
<path d="M173.5830 180.2700 L173.5830 179.0287 "/>
</g><g transform="rotate(-90.000000 194.8469 56.3536)">
<text x="194.8469" y="58.9602" transform="scale(-1 1) translate(-389.693720 0)" textLength="15.0626" font-size="6.9510" lengthAdjust="spacingAndGlyphs" text-anchor="middle" opacity="0.01" style="font-family:monospace">10k</text>
</g>
<g class="stroked-text"><desc>10k</desc>
<path d="M192.4758 53.2505 L192.4758 50.2715 "/>
<path d="M192.4758 51.7610 L197.6890 51.7610 "/>
<path d="M197.6890 51.7610 L196.9443 51.2645 "/>
<path d="M196.9443 51.2645 L196.4478 50.7680 "/>
<path d="M196.4478 50.7680 L196.1995 50.2715 "/>
<path d="M197.6890 56.4777 L197.6890 56.9742 "/>
<path d="M197.6890 56.9742 L197.4408 57.4707 "/>
<path d="M197.4408 57.4707 L197.1925 57.7190 "/>
<path d="M197.1925 57.7190 L196.6960 57.9672 "/>
<path d="M196.6960 57.9672 L195.7030 58.2155 "/>
<path d="M195.7030 58.2155 L194.4618 58.2155 "/>
<path d="M194.4618 58.2155 L193.4688 57.9672 "/>
<path d="M193.4688 57.9672 L192.9723 57.7190 "/>
<path d="M192.9723 57.7190 L192.7240 57.4707 "/>
<path d="M192.7240 57.4707 L192.4758 56.9742 "/>
<path d="M192.4758 56.9742 L192.4758 56.4777 "/>
<path d="M192.4758 56.4777 L192.7240 55.9812 "/>
<path d="M192.7240 55.9812 L192.9723 55.7330 "/>
<path d="M192.9723 55.7330 L193.4688 55.4847 "/>
<path d="M193.4688 55.4847 L194.4618 55.2365 "/>
<path d="M194.4618 55.2365 L195.7030 55.2365 "/>
<path d="M195.7030 55.2365 L196.6960 55.4847 "/>
<path d="M196.6960 55.4847 L197.1925 55.7330 "/>
<path d="M197.1925 55.7330 L197.4408 55.9812 "/>
<path d="M197.4408 55.9812 L197.6890 56.4777 "/>
<path d="M192.4758 60.4497 L197.6890 60.4497 "/>
<path d="M194.4618 60.9462 L192.4758 62.4357 "/>
<path d="M195.9513 62.4357 L193.9653 60.4497 "/>
</g><g transform="rotate(-90.000000 256.1129 82.4928)">
<text x="256.1129" y="85.0994" transform="scale(-1 1) translate(-512.225869 0)" textLength="15.0626" font-size="6.9510" lengthAdjust="spacingAndGlyphs" text-anchor="middle" opacity="0.01" style="font-family:monospace">10k</text>
</g>
<g class="stroked-text"><desc>10k</desc>
<path d="M253.7419 79.3897 L253.7419 76.4107 "/>
<path d="M253.7419 77.9002 L258.9551 77.9002 "/>
<path d="M258.9551 77.9002 L258.2103 77.4037 "/>
<path d="M258.2103 77.4037 L257.7138 76.9072 "/>
<path d="M257.7138 76.9072 L257.4656 76.4107 "/>
<path d="M258.9551 82.6169 L258.9551 83.1134 "/>
<path d="M258.9551 83.1134 L258.7068 83.6099 "/>
<path d="M258.7068 83.6099 L258.4586 83.8582 "/>
<path d="M258.4586 83.8582 L257.9621 84.1064 "/>
<path d="M257.9621 84.1064 L256.9691 84.3547 "/>
<path d="M256.9691 84.3547 L255.7279 84.3547 "/>
<path d="M255.7279 84.3547 L254.7349 84.1064 "/>
<path d="M254.7349 84.1064 L254.2384 83.8582 "/>
<path d="M254.2384 83.8582 L253.9901 83.6099 "/>
<path d="M253.9901 83.6099 L253.7419 83.1134 "/>
<path d="M253.7419 83.1134 L253.7419 82.6169 "/>
<path d="M253.7419 82.6169 L253.9901 82.1204 "/>
<path d="M253.9901 82.1204 L254.2384 81.8722 "/>
<path d="M254.2384 81.8722 L254.7349 81.6239 "/>
<path d="M254.7349 81.6239 L255.7279 81.3757 "/>
<path d="M255.7279 81.3757 L256.9691 81.3757 "/>
<path d="M256.9691 81.3757 L257.9621 81.6239 "/>
<path d="M257.9621 81.6239 L258.4586 81.8722 "/>
<path d="M258.4586 81.8722 L258.7068 82.1204 "/>
<path d="M258.7068 82.1204 L258.9551 82.6169 "/>
<path d="M253.7419 86.5889 L258.9551 86.5889 "/>
<path d="M255.7279 87.0854 L253.7419 88.5749 "/>
<path d="M257.2174 88.5749 L255.2314 86.5889 "/>
</g><g transform="rotate(-90.000000 97.2132 99.7069)">
<text x="97.2132" y="102.3136" transform="scale(-1 1) translate(-194.426355 0)" textLength="15.0626" font-size="6.9510" lengthAdjust="spacingAndGlyphs" text-anchor="middle" opacity="0.01" style="font-family:monospace">10k</text>
</g>
<g class="stroked-text"><desc>10k</desc>
<path d="M94.8421 96.6038 L94.8421 93.6248 "/>
<path d="M94.8421 95.1143 L100.0553 95.1143 "/>
<path d="M100.0553 95.1143 L99.3106 94.6178 "/>
<path d="M99.3106 94.6178 L98.8141 94.1213 "/>
<path d="M98.8141 94.1213 L98.5658 93.6248 "/>
<path d="M100.0553 99.8311 L100.0553 100.3276 "/>
<path d="M100.0553 100.3276 L99.8071 100.8241 "/>
<path d="M99.8071 100.8241 L99.5588 101.0723 "/>
<path d="M99.5588 101.0723 L99.0623 101.3206 "/>
<path d="M99.0623 101.3206 L98.0693 101.5688 "/>
<path d="M98.0693 101.5688 L96.8281 101.5688 "/>
<path d="M96.8281 101.5688 L95.8351 101.3206 "/>
<path d="M95.8351 101.3206 L95.3386 101.0723 "/>
<path d="M95.3386 101.0723 L95.0903 100.8241 "/>
<path d="M95.0903 100.8241 L94.8421 100.3276 "/>
<path d="M94.8421 100.3276 L94.8421 99.8311 "/>
<path d="M94.8421 99.8311 L95.0903 99.3346 "/>
<path d="M95.0903 99.3346 L95.3386 99.0863 "/>
<path d="M95.3386 99.0863 L95.8351 98.8381 "/>
<path d="M95.8351 98.8381 L96.8281 98.5898 "/>
<path d="M96.8281 98.5898 L98.0693 98.5898 "/>
<path d="M98.0693 98.5898 L99.0623 98.8381 "/>
<path d="M99.0623 98.8381 L99.5588 99.0863 "/>
<path d="M99.5588 99.0863 L99.8071 99.3346 "/>
<path d="M99.8071 99.3346 L100.0553 99.8311 "/>
<path d="M94.8421 103.8031 L100.0553 103.8031 "/>
<path d="M96.8281 104.2996 L94.8421 105.7891 "/>
<path d="M98.3176 105.7891 L96.3316 103.8031 "/>
</g><text x="104.1416" y="56.2597" transform="scale(-1 1) translate(-208.283165 0)" textLength="34.4260" font-size="6.9510" lengthAdjust="spacingAndGlyphs" text-anchor="middle" opacity="0.01" style="font-family:monospace">MIC4426</text>
<g class="stroked-text"><desc>MIC4426</desc>
<path d="M88.6260 56.0242 L88.6260 50.8110 "/>
<path d="M88.6260 50.8110 L90.3637 54.5347 "/>
<path d="M90.3637 54.5347 L92.1015 50.8110 "/>
<path d="M92.1015 50.8110 L92.1015 56.0242 "/>
<path d="M94.5840 56.0242 L94.5840 50.8110 "/>
<path d="M100.0455 55.5277 L99.7972 55.7760 "/>
<path d="M99.7972 55.7760 L99.0525 56.0242 "/>
<path d="M99.0525 56.0242 L98.5560 56.0242 "/>
<path d="M98.5560 56.0242 L97.8112 55.7760 "/>
<path d="M97.8112 55.7760 L97.3147 55.2795 "/>
<path d="M97.3147 55.2795 L97.0665 54.7830 "/>
<path d="M97.0665 54.7830 L96.8182 53.7900 "/>
<path d="M96.8182 53.7900 L96.8182 53.0452 "/>
<path d="M96.8182 53.0452 L97.0665 52.0522 "/>
<path d="M97.0665 52.0522 L97.3147 51.5557 "/>
<path d="M97.3147 51.5557 L97.8112 51.0592 "/>
<path d="M97.8112 51.0592 L98.5560 50.8110 "/>
<path d="M98.5560 50.8110 L99.0525 50.8110 "/>
<path d="M99.0525 50.8110 L99.7972 51.0592 "/>
<path d="M99.7972 51.0592 L100.0455 51.3075 "/>
<path d="M104.5140 52.5487 L104.5140 56.0242 "/>
<path d="M103.2727 50.5627 L102.0315 54.2865 "/>
<path d="M102.0315 54.2865 L105.2587 54.2865 "/>
<path d="M109.4790 52.5487 L109.4790 56.0242 "/>
<path d="M108.2377 50.5627 L106.9965 54.2865 "/>
<path d="M106.9965 54.2865 L110.2237 54.2865 "/>
<path d="M111.9615 51.3075 L112.2097 51.0592 "/>
<path d="M112.2097 51.0592 L112.7062 50.8110 "/>
<path d="M112.7062 50.8110 L113.9475 50.8110 "/>
<path d="M113.9475 50.8110 L114.4440 51.0592 "/>
<path d="M114.4440 51.0592 L114.6922 51.3075 "/>
<path d="M114.6922 51.3075 L114.9405 51.8040 "/>
<path d="M114.9405 51.8040 L114.9405 52.3005 "/>
<path d="M114.9405 52.3005 L114.6922 53.0452 "/>
<path d="M114.6922 53.0452 L111.7132 56.0242 "/>
<path d="M111.7132 56.0242 L114.9405 56.0242 "/>
<path d="M119.4090 50.8110 L118.4160 50.8110 "/>
<path d="M118.4160 50.8110 L117.9195 51.0592 "/>
<path d="M117.9195 51.0592 L117.6712 51.3075 "/>
<path d="M117.6712 51.3075 L117.1747 52.0522 "/>
<path d="M117.1747 52.0522 L116.9265 53.0452 "/>
<path d="M116.9265 53.0452 L116.9265 55.0312 "/>
<path d="M116.9265 55.0312 L117.1747 55.5277 "/>
<path d="M117.1747 55.5277 L117.4230 55.7760 "/>
<path d="M117.4230 55.7760 L117.9195 56.0242 "/>
<path d="M117.9195 56.0242 L118.9125 56.0242 "/>
<path d="M118.9125 56.0242 L119.4090 55.7760 "/>
<path d="M119.4090 55.7760 L119.6572 55.5277 "/>
<path d="M119.6572 55.5277 L119.9054 55.0312 "/>
<path d="M119.9054 55.0312 L119.9054 53.7900 "/>
<path d="M119.9054 53.7900 L119.6572 53.2935 "/>
<path d="M119.6572 53.2935 L119.4090 53.0452 "/>
<path d="M119.4090 53.0452 L118.9125 52.7970 "/>
<path d="M118.9125 52.7970 L117.9195 52.7970 "/>
<path d="M117.9195 52.7970 L117.4230 53.0452 "/>
<path d="M117.4230 53.0452 L117.1747 53.2935 "/>
<path d="M117.1747 53.2935 L116.9265 53.7900 "/>
</g><text x="156.7641" y="64.2179" transform="scale(-1 1) translate(-313.528177 0)" textLength="30.4541" font-size="6.9510" lengthAdjust="spacingAndGlyphs" text-anchor="middle" opacity="0.01" style="font-family:monospace">AD7730</text>
<g class="stroked-text"><desc>AD7730</desc>
<path d="M142.9862 62.4929 L145.4687 62.4929 "/>
<path d="M142.4897 63.9824 L144.2275 58.7692 "/>
<path d="M144.2275 58.7692 L145.9652 63.9824 "/>
<path d="M147.7030 63.9824 L147.7030 58.7692 "/>
<path d="M147.7030 58.7692 L148.9442 58.7692 "/>
<path d="M148.9442 58.7692 L149.6890 59.0174 "/>
<path d="M149.6890 59.0174 L150.1855 59.5139 "/>
<path d="M150.1855 59.5139 L150.4337 60.0104 "/>
<path d="M150.4337 60.0104 L150.6820 61.0034 "/>
<path d="M150.6820 61.0034 L150.6820 61.7482 "/>
<path d="M150.6820 61.7482 L150.4337 62.7412 "/>
<path d="M150.4337 62.7412 L150.1855 63.2377 "/>
<path d="M150.1855 63.2377 L149.6890 63.7342 "/>
<path d="M149.6890 63.7342 L148.9442 63.9824 "/>
<path d="M148.9442 63.9824 L147.7030 63.9824 "/>
<path d="M152.4197 58.7692 L155.8952 58.7692 "/>
<path d="M155.8952 58.7692 L153.6610 63.9824 "/>
<path d="M157.3847 58.7692 L160.8602 58.7692 "/>
<path d="M160.8602 58.7692 L158.6260 63.9824 "/>
<path d="M162.3497 58.7692 L165.5770 58.7692 "/>
<path d="M165.5770 58.7692 L163.8392 60.7552 "/>
<path d="M163.8392 60.7552 L164.5840 60.7552 "/>
<path d="M164.5840 60.7552 L165.0805 61.0034 "/>
<path d="M165.0805 61.0034 L165.3287 61.2517 "/>
<path d="M165.3287 61.2517 L165.5770 61.7482 "/>
<path d="M165.5770 61.7482 L165.5770 62.9894 "/>
<path d="M165.5770 62.9894 L165.3287 63.4859 "/>
<path d="M165.3287 63.4859 L165.0805 63.7342 "/>
<path d="M165.0805 63.7342 L164.5840 63.9824 "/>
<path d="M164.5840 63.9824 L163.0945 63.9824 "/>
<path d="M163.0945 63.9824 L162.5980 63.7342 "/>
<path d="M162.5980 63.7342 L162.3497 63.4859 "/>
<path d="M168.8042 58.7692 L169.3007 58.7692 "/>
<path d="M169.3007 58.7692 L169.7972 59.0174 "/>
<path d="M169.7972 59.0174 L170.0455 59.2657 "/>
<path d="M170.0455 59.2657 L170.2937 59.7622 "/>
<path d="M170.2937 59.7622 L170.5420 60.7552 "/>
<path d="M170.5420 60.7552 L170.5420 61.9964 "/>
<path d="M170.5420 61.9964 L170.2937 62.9894 "/>
<path d="M170.2937 62.9894 L170.0455 63.4859 "/>
<path d="M170.0455 63.4859 L169.7972 63.7342 "/>
<path d="M169.7972 63.7342 L169.3007 63.9824 "/>
<path d="M169.3007 63.9824 L168.8042 63.9824 "/>
<path d="M168.8042 63.9824 L168.3077 63.7342 "/>
<path d="M168.3077 63.7342 L168.0595 63.4859 "/>
<path d="M168.0595 63.4859 L167.8112 62.9894 "/>
<path d="M167.8112 62.9894 L167.5630 61.9964 "/>
<path d="M167.5630 61.9964 L167.5630 60.7552 "/>
<path d="M167.5630 60.7552 L167.8112 59.7622 "/>
<path d="M167.8112 59.7622 L168.0595 59.2657 "/>
<path d="M168.0595 59.2657 L168.3077 59.0174 "/>
<path d="M168.3077 59.0174 L168.8042 58.7692 "/>
</g><text x="114.7349" y="63.4227" transform="scale(-1 1) translate(-229.469799 0)" textLength="20.0276" font-size="6.9510" lengthAdjust="spacingAndGlyphs" text-anchor="middle" opacity="0.01" style="font-family:monospace">10uF</text>
<g class="stroked-text"><desc>10uF</desc>
<path d="M109.1493 63.1872 L106.1703 63.1872 "/>
<path d="M107.6598 63.1872 L107.6598 57.9740 "/>
<path d="M107.6598 57.9740 L107.1633 58.7187 "/>
<path d="M107.1633 58.7187 L106.6668 59.2152 "/>
<path d="M106.6668 59.2152 L106.1703 59.4635 "/>
<path d="M112.3765 57.9740 L112.8730 57.9740 "/>
<path d="M112.8730 57.9740 L113.3695 58.2222 "/>
<path d="M113.3695 58.2222 L113.6178 58.4705 "/>
<path d="M113.6178 58.4705 L113.8660 58.9670 "/>
<path d="M113.8660 58.9670 L114.1143 59.9600 "/>
<path d="M114.1143 59.9600 L114.1143 61.2012 "/>
<path d="M114.1143 61.2012 L113.8660 62.1942 "/>
<path d="M113.8660 62.1942 L113.6178 62.6907 "/>
<path d="M113.6178 62.6907 L113.3695 62.9390 "/>
<path d="M113.3695 62.9390 L112.8730 63.1872 "/>
<path d="M112.8730 63.1872 L112.3765 63.1872 "/>
<path d="M112.3765 63.1872 L111.8800 62.9390 "/>
<path d="M111.8800 62.9390 L111.6318 62.6907 "/>
<path d="M111.6318 62.6907 L111.3835 62.1942 "/>
<path d="M111.3835 62.1942 L111.1353 61.2012 "/>
<path d="M111.1353 61.2012 L111.1353 59.9600 "/>
<path d="M111.1353 59.9600 L111.3835 58.9670 "/>
<path d="M111.3835 58.9670 L111.6318 58.4705 "/>
<path d="M111.6318 58.4705 L111.8800 58.2222 "/>
<path d="M111.8800 58.2222 L112.3765 57.9740 "/>
<path d="M118.5828 59.7117 L118.5828 63.1872 "/>
<path d="M116.3485 59.7117 L116.3485 62.4425 "/>
<path d="M116.3485 62.4425 L116.5968 62.9390 "/>
<path d="M116.5968 62.9390 L117.0933 63.1872 "/>
<path d="M117.0933 63.1872 L117.8380 63.1872 "/>
<path d="M117.8380 63.1872 L118.3345 62.9390 "/>
<path d="M118.3345 62.9390 L118.5828 62.6907 "/>
<path d="M122.8030 60.4565 L121.0653 60.4565 "/>
<path d="M121.0653 63.1872 L121.0653 57.9740 "/>
<path d="M121.0653 57.9740 L123.5478 57.9740 "/>
</g><text x="206.7643" y="154.7901" transform="scale(-1 1) translate(-413.528684 0)" textLength="20.0276" font-size="6.9510" lengthAdjust="spacingAndGlyphs" text-anchor="middle" opacity="0.01" style="font-family:monospace">10uF</text>
<g class="stroked-text"><desc>10uF</desc>
<path d="M201.1787 154.5546 L198.1997 154.5546 "/>
<path d="M199.6892 154.5546 L199.6892 149.3413 "/>
<path d="M199.6892 149.3413 L199.1927 150.0861 "/>
<path d="M199.1927 150.0861 L198.6962 150.5826 "/>
<path d="M198.6962 150.5826 L198.1997 150.8308 "/>
<path d="M204.4060 149.3413 L204.9025 149.3413 "/>
<path d="M204.9025 149.3413 L205.3990 149.5896 "/>
<path d="M205.3990 149.5896 L205.6472 149.8378 "/>
<path d="M205.6472 149.8378 L205.8955 150.3343 "/>
<path d="M205.8955 150.3343 L206.1437 151.3273 "/>
<path d="M206.1437 151.3273 L206.1437 152.5686 "/>
<path d="M206.1437 152.5686 L205.8955 153.5616 "/>
<path d="M205.8955 153.5616 L205.6472 154.0581 "/>
<path d="M205.6472 154.0581 L205.3990 154.3063 "/>
<path d="M205.3990 154.3063 L204.9025 154.5546 "/>
<path d="M204.9025 154.5546 L204.4060 154.5546 "/>
<path d="M204.4060 154.5546 L203.9095 154.3063 "/>
<path d="M203.9095 154.3063 L203.6612 154.0581 "/>
<path d="M203.6612 154.0581 L203.4130 153.5616 "/>
<path d="M203.4130 153.5616 L203.1647 152.5686 "/>
<path d="M203.1647 152.5686 L203.1647 151.3273 "/>
<path d="M203.1647 151.3273 L203.4130 150.3343 "/>
<path d="M203.4130 150.3343 L203.6612 149.8378 "/>
<path d="M203.6612 149.8378 L203.9095 149.5896 "/>
<path d="M203.9095 149.5896 L204.4060 149.3413 "/>
<path d="M210.6122 151.0791 L210.6122 154.5546 "/>
<path d="M208.3780 151.0791 L208.3780 153.8098 "/>
<path d="M208.3780 153.8098 L208.6262 154.3063 "/>
<path d="M208.6262 154.3063 L209.1227 154.5546 "/>
<path d="M209.1227 154.5546 L209.8675 154.5546 "/>
<path d="M209.8675 154.5546 L210.3640 154.3063 "/>
<path d="M210.3640 154.3063 L210.6122 154.0581 "/>
<path d="M214.8325 151.8238 L213.0947 151.8238 "/>
<path d="M213.0947 154.5546 L213.0947 149.3413 "/>
<path d="M213.0947 149.3413 L215.5772 149.3413 "/>
</g><text x="141.4710" y="57.3076" transform="scale(-1 1) translate(-282.942069 0)" textLength="24.9926" font-size="6.9510" lengthAdjust="spacingAndGlyphs" text-anchor="middle" opacity="0.01" style="font-family:monospace">100nF</text>
<g class="stroked-text"><desc>100nF</desc>
<path d="M133.4029 57.0721 L130.4239 57.0721 "/>
<path d="M131.9134 57.0721 L131.9134 51.8588 "/>
<path d="M131.9134 51.8588 L131.4169 52.6036 "/>
<path d="M131.4169 52.6036 L130.9204 53.1001 "/>
<path d="M130.9204 53.1001 L130.4239 53.3483 "/>
<path d="M136.6302 51.8588 L137.1267 51.8588 "/>
<path d="M137.1267 51.8588 L137.6232 52.1071 "/>
<path d="M137.6232 52.1071 L137.8714 52.3553 "/>
<path d="M137.8714 52.3553 L138.1197 52.8518 "/>
<path d="M138.1197 52.8518 L138.3679 53.8448 "/>
<path d="M138.3679 53.8448 L138.3679 55.0861 "/>
<path d="M138.3679 55.0861 L138.1197 56.0791 "/>
<path d="M138.1197 56.0791 L137.8714 56.5756 "/>
<path d="M137.8714 56.5756 L137.6232 56.8238 "/>
<path d="M137.6232 56.8238 L137.1267 57.0721 "/>
<path d="M137.1267 57.0721 L136.6302 57.0721 "/>
<path d="M136.6302 57.0721 L136.1337 56.8238 "/>
<path d="M136.1337 56.8238 L135.8854 56.5756 "/>
<path d="M135.8854 56.5756 L135.6372 56.0791 "/>
<path d="M135.6372 56.0791 L135.3889 55.0861 "/>
<path d="M135.3889 55.0861 L135.3889 53.8448 "/>
<path d="M135.3889 53.8448 L135.6372 52.8518 "/>
<path d="M135.6372 52.8518 L135.8854 52.3553 "/>
<path d="M135.8854 52.3553 L136.1337 52.1071 "/>
<path d="M136.1337 52.1071 L136.6302 51.8588 "/>
<path d="M141.5952 51.8588 L142.0917 51.8588 "/>
<path d="M142.0917 51.8588 L142.5882 52.1071 "/>
<path d="M142.5882 52.1071 L142.8364 52.3553 "/>
<path d="M142.8364 52.3553 L143.0847 52.8518 "/>
<path d="M143.0847 52.8518 L143.3329 53.8448 "/>
<path d="M143.3329 53.8448 L143.3329 55.0861 "/>
<path d="M143.3329 55.0861 L143.0847 56.0791 "/>
<path d="M143.0847 56.0791 L142.8364 56.5756 "/>
<path d="M142.8364 56.5756 L142.5882 56.8238 "/>
<path d="M142.5882 56.8238 L142.0917 57.0721 "/>
<path d="M142.0917 57.0721 L141.5952 57.0721 "/>
<path d="M141.5952 57.0721 L141.0987 56.8238 "/>
<path d="M141.0987 56.8238 L140.8504 56.5756 "/>
<path d="M140.8504 56.5756 L140.6022 56.0791 "/>
<path d="M140.6022 56.0791 L140.3539 55.0861 "/>
<path d="M140.3539 55.0861 L140.3539 53.8448 "/>
<path d="M140.3539 53.8448 L140.6022 52.8518 "/>
<path d="M140.6022 52.8518 L140.8504 52.3553 "/>
<path d="M140.8504 52.3553 L141.0987 52.1071 "/>
<path d="M141.0987 52.1071 L141.5952 51.8588 "/>
<path d="M145.5672 53.5966 L145.5672 57.0721 "/>
<path d="M145.5672 54.0931 L145.8154 53.8448 "/>
<path d="M145.8154 53.8448 L146.3119 53.5966 "/>
<path d="M146.3119 53.5966 L147.0567 53.5966 "/>
<path d="M147.0567 53.5966 L147.5532 53.8448 "/>
<path d="M147.5532 53.8448 L147.8014 54.3413 "/>
<path d="M147.8014 54.3413 L147.8014 57.0721 "/>
<path d="M152.0217 54.3413 L150.2839 54.3413 "/>
<path d="M150.2839 57.0721 L150.2839 51.8588 "/>
<path d="M150.2839 51.8588 L152.7664 51.8588 "/>
</g><g>
</g>
<g>
</g>
<g>
</g>
<g>
</g>
<g>
</g>
<g>
</g>
<g>
</g>
<g>
</g>
<g>
</g>
<g>
</g>
<g>
</g>
<g>
</g>
<g>
</g>
<g>
</g>
<g>
</g>
<g>
</g>
<g>
</g>
<g>
</g>
<g>
</g>
<g>
</g>
<g>
</g>
<g>
</g>
<g>
</g>
<g>
</g>
<g>
</g>
<g>
</g>
<g>
</g>
<g>
</g>
<g>
</g>
<g>
</g>
<g>
</g>
<g>
</g>
<g>
</g>
<g>
</g>
<g>
</g>
<g>
</g>
<g>
</g>
<g>
</g>
<g>
</g>
<g>
</g>
<g>
</g>
<g>
</g>
<g>
</g>
<g>
</g>
<g>
</g>
<g>
</g>
<g>
</g>
</g> 
<svg:g><svg:g><svg:title>SVG Image created as BRIDGEADC01-Edge_Cuts.svg date 2023/07/20 11:23:05 </svg:title>
  <svg:desc>Image generated by PCBNEW </svg:desc>
<svg:g style="fill:#C2C200; fill-opacity:1.0000;stroke:#C2C200; stroke-opacity:1.0000; stroke-linecap:round; stroke-linejoin:round;" transform="translate(0 0) scale(1 1)">
</svg:g>
<svg:g style="fill:#C2C200; fill-opacity:0.0;  stroke:#C2C200; stroke-width:0.0000; stroke-opacity:1;  stroke-linecap:round; stroke-linejoin:round;">
</svg:g>
<svg:g style="fill:#C2C200; fill-opacity:0.0;  stroke:#C2C200; stroke-width:0.7820; stroke-opacity:1;  stroke-linecap:round; stroke-linejoin:round;">
<svg:path d="M253.1101 209.6126 L43.8921 209.6126 "/>
<svg:path d="M43.8921 0.3946 L253.1101 0.3946 "/>
<svg:path d="M253.1101 0.3946 L253.1101 209.6126 "/>
<svg:path d="M43.8921 209.6126 L43.8921 0.3946 "/>
<svg:g>
</svg:g>
<svg:g>
</svg:g>
<svg:g>
</svg:g>
<svg:g>
</svg:g>
<svg:g>
</svg:g>
<svg:g>
</svg:g>
<svg:g>
</svg:g>
<svg:g>
</svg:g>
<svg:g>
</svg:g>
<svg:g>
</svg:g>
<svg:g>
</svg:g>
<svg:g>
</svg:g>
<svg:g>
</svg:g>
<svg:g>
</svg:g>
<svg:g>
</svg:g>
<svg:g>
</svg:g>
<svg:g>
</svg:g>
<svg:g>
</svg:g>
<svg:g>
</svg:g>
<svg:g>
</svg:g>
<svg:g>
</svg:g>
<svg:g>
</svg:g>
<svg:g>
</svg:g>
<svg:g>
</svg:g>
<svg:g>
</svg:g>
<svg:g>
</svg:g>
<svg:g>
</svg:g>
<svg:g>
</svg:g>
<svg:g>
</svg:g>
<svg:g>
</svg:g>
<svg:g>
</svg:g>
<svg:g>
</svg:g>
<svg:g>
</svg:g>
<svg:g>
</svg:g>
<svg:g>
</svg:g>
<svg:g>
</svg:g>
<svg:g>
</svg:g>
<svg:g>
</svg:g>
<svg:g>
</svg:g>
<svg:g>
</svg:g>
<svg:g>
</svg:g>
<svg:g>
</svg:g>
<svg:g>
</svg:g>
<svg:g>
</svg:g>
<svg:g>
</svg:g>
<svg:g>
</svg:g>
<svg:g>
</svg:g>
</svg:g> 
</svg:g></svg:g></svg>
