<?xml version='1.0' encoding='ASCII' standalone='yes'?>
<svg xmlns:svg="http://www.w3.org/2000/svg" xmlns="http://www.w3.org/2000/svg" xmlns:xlink="http://www.w3.org/1999/xlink" version="1.1" width="297.0022mm" height="210.0072mm" viewBox="0.0000 0.0000 297.0022 210.0072">
<title>SVG Image created as BRIDGEADC01-B_Fab.svg date 2023/07/05 15:05:39 </title>
  <desc>Image generated by PCBNEW </desc>
<g style="fill:#000084; fill-opacity:1.0000;stroke:#000084; stroke-opacity:1.0000; stroke-linecap:round; stroke-linejoin:round;" transform="translate(0 0) scale(1 1)">
</g>
<g style="fill:#000084; fill-opacity:0.0;  stroke:#000084; stroke-width:0.0000; stroke-opacity:1;  stroke-linecap:round; stroke-linejoin:round;">
</g>
<g style="fill:#000084; fill-opacity:0.01;  stroke:#000084; stroke-width:0.7820; stroke-opacity:1;  stroke-linecap:round; stroke-linejoin:round;">
<text x="165.7152" y="130.6111" transform="scale(-1 1) translate(-331.430485 0)" textLength="20.0276" font-size="6.9510" lengthAdjust="spacingAndGlyphs" text-anchor="middle" opacity="0.01" style="font-family:monospace">10uF</text>
<g class="stroked-text"><desc>10uF</desc>
<path d="M171.3009 130.3755 L174.2799 130.3755 "/>
<path d="M172.7904 130.3755 L172.7904 125.1623 "/>
<path d="M172.7904 125.1623 L173.2869 125.9070 "/>
<path d="M173.2869 125.9070 L173.7834 126.4035 "/>
<path d="M173.7834 126.4035 L174.2799 126.6518 "/>
<path d="M168.0736 125.1623 L167.5771 125.1623 "/>
<path d="M167.5771 125.1623 L167.0806 125.4105 "/>
<path d="M167.0806 125.4105 L166.8324 125.6588 "/>
<path d="M166.8324 125.6588 L166.5841 126.1553 "/>
<path d="M166.5841 126.1553 L166.3359 127.1483 "/>
<path d="M166.3359 127.1483 L166.3359 128.3895 "/>
<path d="M166.3359 128.3895 L166.5841 129.3825 "/>
<path d="M166.5841 129.3825 L166.8324 129.8790 "/>
<path d="M166.8324 129.8790 L167.0806 130.1273 "/>
<path d="M167.0806 130.1273 L167.5771 130.3755 "/>
<path d="M167.5771 130.3755 L168.0736 130.3755 "/>
<path d="M168.0736 130.3755 L168.5701 130.1273 "/>
<path d="M168.5701 130.1273 L168.8184 129.8790 "/>
<path d="M168.8184 129.8790 L169.0666 129.3825 "/>
<path d="M169.0666 129.3825 L169.3149 128.3895 "/>
<path d="M169.3149 128.3895 L169.3149 127.1483 "/>
<path d="M169.3149 127.1483 L169.0666 126.1553 "/>
<path d="M169.0666 126.1553 L168.8184 125.6588 "/>
<path d="M168.8184 125.6588 L168.5701 125.4105 "/>
<path d="M168.5701 125.4105 L168.0736 125.1623 "/>
<path d="M161.8674 126.9000 L161.8674 130.3755 "/>
<path d="M164.1016 126.9000 L164.1016 129.6308 "/>
<path d="M164.1016 129.6308 L163.8534 130.1273 "/>
<path d="M163.8534 130.1273 L163.3569 130.3755 "/>
<path d="M163.3569 130.3755 L162.6121 130.3755 "/>
<path d="M162.6121 130.3755 L162.1156 130.1273 "/>
<path d="M162.1156 130.1273 L161.8674 129.8790 "/>
<path d="M157.6471 127.6448 L159.3849 127.6448 "/>
<path d="M159.3849 130.3755 L159.3849 125.1623 "/>
<path d="M159.3849 125.1623 L156.9024 125.1623 "/>
</g><g transform="rotate(-90.000000 179.3114 114.2728)">
<text x="179.3114" y="116.8794" transform="scale(-1 1) translate(-358.622779 0)" textLength="24.9926" font-size="6.9510" lengthAdjust="spacingAndGlyphs" text-anchor="middle" opacity="0.01" style="font-family:monospace">100nF</text>
</g>
<g class="stroked-text"><desc>100nF</desc>
<path d="M181.6825 106.2046 L181.6825 103.2256 "/>
<path d="M181.6825 104.7151 L176.4692 104.7151 "/>
<path d="M176.4692 104.7151 L177.2140 104.2186 "/>
<path d="M177.2140 104.2186 L177.7105 103.7221 "/>
<path d="M177.7105 103.7221 L177.9587 103.2256 "/>
<path d="M176.4692 109.4319 L176.4692 109.9284 "/>
<path d="M176.4692 109.9284 L176.7175 110.4249 "/>
<path d="M176.7175 110.4249 L176.9657 110.6731 "/>
<path d="M176.9657 110.6731 L177.4622 110.9214 "/>
<path d="M177.4622 110.9214 L178.4552 111.1696 "/>
<path d="M178.4552 111.1696 L179.6965 111.1696 "/>
<path d="M179.6965 111.1696 L180.6895 110.9214 "/>
<path d="M180.6895 110.9214 L181.1860 110.6731 "/>
<path d="M181.1860 110.6731 L181.4342 110.4249 "/>
<path d="M181.4342 110.4249 L181.6825 109.9284 "/>
<path d="M181.6825 109.9284 L181.6825 109.4319 "/>
<path d="M181.6825 109.4319 L181.4342 108.9354 "/>
<path d="M181.4342 108.9354 L181.1860 108.6871 "/>
<path d="M181.1860 108.6871 L180.6895 108.4389 "/>
<path d="M180.6895 108.4389 L179.6965 108.1906 "/>
<path d="M179.6965 108.1906 L178.4552 108.1906 "/>
<path d="M178.4552 108.1906 L177.4622 108.4389 "/>
<path d="M177.4622 108.4389 L176.9657 108.6871 "/>
<path d="M176.9657 108.6871 L176.7175 108.9354 "/>
<path d="M176.7175 108.9354 L176.4692 109.4319 "/>
<path d="M176.4692 114.3969 L176.4692 114.8934 "/>
<path d="M176.4692 114.8934 L176.7175 115.3899 "/>
<path d="M176.7175 115.3899 L176.9657 115.6381 "/>
<path d="M176.9657 115.6381 L177.4622 115.8864 "/>
<path d="M177.4622 115.8864 L178.4552 116.1346 "/>
<path d="M178.4552 116.1346 L179.6965 116.1346 "/>
<path d="M179.6965 116.1346 L180.6895 115.8864 "/>
<path d="M180.6895 115.8864 L181.1860 115.6381 "/>
<path d="M181.1860 115.6381 L181.4342 115.3899 "/>
<path d="M181.4342 115.3899 L181.6825 114.8934 "/>
<path d="M181.6825 114.8934 L181.6825 114.3969 "/>
<path d="M181.6825 114.3969 L181.4342 113.9004 "/>
<path d="M181.4342 113.9004 L181.1860 113.6521 "/>
<path d="M181.1860 113.6521 L180.6895 113.4039 "/>
<path d="M180.6895 113.4039 L179.6965 113.1556 "/>
<path d="M179.6965 113.1556 L178.4552 113.1556 "/>
<path d="M178.4552 113.1556 L177.4622 113.4039 "/>
<path d="M177.4622 113.4039 L176.9657 113.6521 "/>
<path d="M176.9657 113.6521 L176.7175 113.9004 "/>
<path d="M176.7175 113.9004 L176.4692 114.3969 "/>
<path d="M178.2070 118.3689 L181.6825 118.3689 "/>
<path d="M178.7035 118.3689 L178.4552 118.6171 "/>
<path d="M178.4552 118.6171 L178.2070 119.1136 "/>
<path d="M178.2070 119.1136 L178.2070 119.8584 "/>
<path d="M178.2070 119.8584 L178.4552 120.3549 "/>
<path d="M178.4552 120.3549 L178.9517 120.6031 "/>
<path d="M178.9517 120.6031 L181.6825 120.6031 "/>
<path d="M178.9517 124.8234 L178.9517 123.0856 "/>
<path d="M181.6825 123.0856 L176.4692 123.0856 "/>
<path d="M176.4692 123.0856 L176.4692 125.5681 "/>
</g><g transform="rotate(-90.000000 191.8440 46.7404)">
<text x="191.8440" y="49.3470" transform="scale(-1 1) translate(-383.688069 0)" textLength="24.9926" font-size="6.9510" lengthAdjust="spacingAndGlyphs" text-anchor="middle" opacity="0.01" style="font-family:monospace">100nF</text>
</g>
<g class="stroked-text"><desc>100nF</desc>
<path d="M194.2151 38.6722 L194.2151 35.6932 "/>
<path d="M194.2151 37.1827 L189.0019 37.1827 "/>
<path d="M189.0019 37.1827 L189.7466 36.6862 "/>
<path d="M189.7466 36.6862 L190.2431 36.1897 "/>
<path d="M190.2431 36.1897 L190.4914 35.6932 "/>
<path d="M189.0019 41.8995 L189.0019 42.3960 "/>
<path d="M189.0019 42.3960 L189.2501 42.8925 "/>
<path d="M189.2501 42.8925 L189.4984 43.1407 "/>
<path d="M189.4984 43.1407 L189.9949 43.3890 "/>
<path d="M189.9949 43.3890 L190.9879 43.6372 "/>
<path d="M190.9879 43.6372 L192.2291 43.6372 "/>
<path d="M192.2291 43.6372 L193.2221 43.3890 "/>
<path d="M193.2221 43.3890 L193.7186 43.1407 "/>
<path d="M193.7186 43.1407 L193.9669 42.8925 "/>
<path d="M193.9669 42.8925 L194.2151 42.3960 "/>
<path d="M194.2151 42.3960 L194.2151 41.8995 "/>
<path d="M194.2151 41.8995 L193.9669 41.4030 "/>
<path d="M193.9669 41.4030 L193.7186 41.1547 "/>
<path d="M193.7186 41.1547 L193.2221 40.9065 "/>
<path d="M193.2221 40.9065 L192.2291 40.6582 "/>
<path d="M192.2291 40.6582 L190.9879 40.6582 "/>
<path d="M190.9879 40.6582 L189.9949 40.9065 "/>
<path d="M189.9949 40.9065 L189.4984 41.1547 "/>
<path d="M189.4984 41.1547 L189.2501 41.4030 "/>
<path d="M189.2501 41.4030 L189.0019 41.8995 "/>
<path d="M189.0019 46.8645 L189.0019 47.3610 "/>
<path d="M189.0019 47.3610 L189.2501 47.8575 "/>
<path d="M189.2501 47.8575 L189.4984 48.1057 "/>
<path d="M189.4984 48.1057 L189.9949 48.3540 "/>
<path d="M189.9949 48.3540 L190.9879 48.6022 "/>
<path d="M190.9879 48.6022 L192.2291 48.6022 "/>
<path d="M192.2291 48.6022 L193.2221 48.3540 "/>
<path d="M193.2221 48.3540 L193.7186 48.1057 "/>
<path d="M193.7186 48.1057 L193.9669 47.8575 "/>
<path d="M193.9669 47.8575 L194.2151 47.3610 "/>
<path d="M194.2151 47.3610 L194.2151 46.8645 "/>
<path d="M194.2151 46.8645 L193.9669 46.3680 "/>
<path d="M193.9669 46.3680 L193.7186 46.1197 "/>
<path d="M193.7186 46.1197 L193.2221 45.8715 "/>
<path d="M193.2221 45.8715 L192.2291 45.6232 "/>
<path d="M192.2291 45.6232 L190.9879 45.6232 "/>
<path d="M190.9879 45.6232 L189.9949 45.8715 "/>
<path d="M189.9949 45.8715 L189.4984 46.1197 "/>
<path d="M189.4984 46.1197 L189.2501 46.3680 "/>
<path d="M189.2501 46.3680 L189.0019 46.8645 "/>
<path d="M190.7396 50.8365 L194.2151 50.8365 "/>
<path d="M191.2361 50.8365 L190.9879 51.0847 "/>
<path d="M190.9879 51.0847 L190.7396 51.5812 "/>
<path d="M190.7396 51.5812 L190.7396 52.3260 "/>
<path d="M190.7396 52.3260 L190.9879 52.8225 "/>
<path d="M190.9879 52.8225 L191.4844 53.0707 "/>
<path d="M191.4844 53.0707 L194.2151 53.0707 "/>
<path d="M191.4844 57.2910 L191.4844 55.5532 "/>
<path d="M194.2151 55.5532 L189.0019 55.5532 "/>
<path d="M189.0019 55.5532 L189.0019 58.0357 "/>
</g><text x="106.1278" y="82.8056" transform="scale(-1 1) translate(-212.255668 0)" textLength="24.9926" font-size="6.9510" lengthAdjust="spacingAndGlyphs" text-anchor="middle" opacity="0.01" style="font-family:monospace">100nF</text>
<g class="stroked-text"><desc>100nF</desc>
<path d="M114.1960 82.5701 L117.1749 82.5701 "/>
<path d="M115.6855 82.5701 L115.6855 77.3568 "/>
<path d="M115.6855 77.3568 L116.1820 78.1016 "/>
<path d="M116.1820 78.1016 L116.6784 78.5981 "/>
<path d="M116.6784 78.5981 L117.1749 78.8463 "/>
<path d="M110.9687 77.3568 L110.4722 77.3568 "/>
<path d="M110.4722 77.3568 L109.9757 77.6051 "/>
<path d="M109.9757 77.6051 L109.7275 77.8533 "/>
<path d="M109.7275 77.8533 L109.4792 78.3498 "/>
<path d="M109.4792 78.3498 L109.2310 79.3428 "/>
<path d="M109.2310 79.3428 L109.2310 80.5841 "/>
<path d="M109.2310 80.5841 L109.4792 81.5771 "/>
<path d="M109.4792 81.5771 L109.7275 82.0736 "/>
<path d="M109.7275 82.0736 L109.9757 82.3218 "/>
<path d="M109.9757 82.3218 L110.4722 82.5701 "/>
<path d="M110.4722 82.5701 L110.9687 82.5701 "/>
<path d="M110.9687 82.5701 L111.4652 82.3218 "/>
<path d="M111.4652 82.3218 L111.7135 82.0736 "/>
<path d="M111.7135 82.0736 L111.9617 81.5771 "/>
<path d="M111.9617 81.5771 L112.2100 80.5841 "/>
<path d="M112.2100 80.5841 L112.2100 79.3428 "/>
<path d="M112.2100 79.3428 L111.9617 78.3498 "/>
<path d="M111.9617 78.3498 L111.7135 77.8533 "/>
<path d="M111.7135 77.8533 L111.4652 77.6051 "/>
<path d="M111.4652 77.6051 L110.9687 77.3568 "/>
<path d="M106.0037 77.3568 L105.5072 77.3568 "/>
<path d="M105.5072 77.3568 L105.0107 77.6051 "/>
<path d="M105.0107 77.6051 L104.7625 77.8533 "/>
<path d="M104.7625 77.8533 L104.5142 78.3498 "/>
<path d="M104.5142 78.3498 L104.2660 79.3428 "/>
<path d="M104.2660 79.3428 L104.2660 80.5841 "/>
<path d="M104.2660 80.5841 L104.5142 81.5771 "/>
<path d="M104.5142 81.5771 L104.7625 82.0736 "/>
<path d="M104.7625 82.0736 L105.0107 82.3218 "/>
<path d="M105.0107 82.3218 L105.5072 82.5701 "/>
<path d="M105.5072 82.5701 L106.0037 82.5701 "/>
<path d="M106.0037 82.5701 L106.5002 82.3218 "/>
<path d="M106.5002 82.3218 L106.7485 82.0736 "/>
<path d="M106.7485 82.0736 L106.9967 81.5771 "/>
<path d="M106.9967 81.5771 L107.2450 80.5841 "/>
<path d="M107.2450 80.5841 L107.2450 79.3428 "/>
<path d="M107.2450 79.3428 L106.9967 78.3498 "/>
<path d="M106.9967 78.3498 L106.7485 77.8533 "/>
<path d="M106.7485 77.8533 L106.5002 77.6051 "/>
<path d="M106.5002 77.6051 L106.0037 77.3568 "/>
<path d="M102.0317 79.0946 L102.0317 82.5701 "/>
<path d="M102.0317 79.5911 L101.7835 79.3428 "/>
<path d="M101.7835 79.3428 L101.2870 79.0946 "/>
<path d="M101.2870 79.0946 L100.5422 79.0946 "/>
<path d="M100.5422 79.0946 L100.0457 79.3428 "/>
<path d="M100.0457 79.3428 L99.7975 79.8393 "/>
<path d="M99.7975 79.8393 L99.7975 82.5701 "/>
<path d="M95.5772 79.8393 L97.3150 79.8393 "/>
<path d="M97.3150 82.5701 L97.3150 77.3568 "/>
<path d="M97.3150 77.3568 L94.8325 77.3568 "/>
</g><g transform="rotate(-90.000000 201.4677 177.1706)">
<text x="201.4677" y="179.7772" transform="scale(-1 1) translate(-402.935376 0)" textLength="11.8353" font-size="6.9510" lengthAdjust="spacingAndGlyphs" text-anchor="middle" opacity="0.01" style="font-family:monospace">M4</text>
</g>
<g class="stroked-text"><desc>M4</desc>
<path d="M203.8388 172.9503 L198.6255 172.9503 "/>
<path d="M198.6255 172.9503 L202.3493 174.6881 "/>
<path d="M202.3493 174.6881 L198.6255 176.4258 "/>
<path d="M198.6255 176.4258 L203.8388 176.4258 "/>
<path d="M200.3633 181.1426 L203.8388 181.1426 "/>
<path d="M198.3773 179.9013 L202.1010 178.6601 "/>
<path d="M202.1010 178.6601 L202.1010 181.8873 "/>
</g><g transform="rotate(-90.000000 131.1931 176.5085)">
<text x="131.1931" y="179.1151" transform="scale(-1 1) translate(-262.386247 0)" textLength="11.8353" font-size="6.9510" lengthAdjust="spacingAndGlyphs" text-anchor="middle" opacity="0.01" style="font-family:monospace">M4</text>
</g>
<g class="stroked-text"><desc>M4</desc>
<path d="M133.5642 172.2882 L128.3510 172.2882 "/>
<path d="M128.3510 172.2882 L132.0747 174.0260 "/>
<path d="M132.0747 174.0260 L128.3510 175.7637 "/>
<path d="M128.3510 175.7637 L133.5642 175.7637 "/>
<path d="M130.0887 180.4805 L133.5642 180.4805 "/>
<path d="M128.1027 179.2392 L131.8265 177.9980 "/>
<path d="M131.8265 177.9980 L131.8265 181.2252 "/>
</g><text x="147.5862" y="192.9876" transform="scale(-1 1) translate(-295.172355 0)" textLength="72.1600" font-size="6.9510" lengthAdjust="spacingAndGlyphs" text-anchor="middle" opacity="0.01" style="font-family:monospace">BLM21PG300SN1D</text>
<g class="stroked-text"><desc>BLM21PG300SN1D</desc>
<path d="M180.2310 190.0213 L179.4863 190.2695 "/>
<path d="M179.4863 190.2695 L179.2380 190.5178 "/>
<path d="M179.2380 190.5178 L178.9898 191.0143 "/>
<path d="M178.9898 191.0143 L178.9898 191.7590 "/>
<path d="M178.9898 191.7590 L179.2380 192.2555 "/>
<path d="M179.2380 192.2555 L179.4863 192.5038 "/>
<path d="M179.4863 192.5038 L179.9828 192.7520 "/>
<path d="M179.9828 192.7520 L181.9688 192.7520 "/>
<path d="M181.9688 192.7520 L181.9688 187.5388 "/>
<path d="M181.9688 187.5388 L180.2310 187.5388 "/>
<path d="M180.2310 187.5388 L179.7345 187.7870 "/>
<path d="M179.7345 187.7870 L179.4863 188.0353 "/>
<path d="M179.4863 188.0353 L179.2380 188.5318 "/>
<path d="M179.2380 188.5318 L179.2380 189.0283 "/>
<path d="M179.2380 189.0283 L179.4863 189.5248 "/>
<path d="M179.4863 189.5248 L179.7345 189.7730 "/>
<path d="M179.7345 189.7730 L180.2310 190.0213 "/>
<path d="M180.2310 190.0213 L181.9688 190.0213 "/>
<path d="M174.2730 192.7520 L176.7555 192.7520 "/>
<path d="M176.7555 192.7520 L176.7555 187.5388 "/>
<path d="M172.5353 192.7520 L172.5353 187.5388 "/>
<path d="M172.5353 187.5388 L170.7975 191.2625 "/>
<path d="M170.7975 191.2625 L169.0598 187.5388 "/>
<path d="M169.0598 187.5388 L169.0598 192.7520 "/>
<path d="M166.8255 188.0353 L166.5773 187.7870 "/>
<path d="M166.5773 187.7870 L166.0808 187.5388 "/>
<path d="M166.0808 187.5388 L164.8395 187.5388 "/>
<path d="M164.8395 187.5388 L164.3430 187.7870 "/>
<path d="M164.3430 187.7870 L164.0948 188.0353 "/>
<path d="M164.0948 188.0353 L163.8465 188.5318 "/>
<path d="M163.8465 188.5318 L163.8465 189.0283 "/>
<path d="M163.8465 189.0283 L164.0948 189.7730 "/>
<path d="M164.0948 189.7730 L167.0738 192.7520 "/>
<path d="M167.0738 192.7520 L163.8465 192.7520 "/>
<path d="M158.8815 192.7520 L161.8605 192.7520 "/>
<path d="M160.3710 192.7520 L160.3710 187.5388 "/>
<path d="M160.3710 187.5388 L160.8675 188.2835 "/>
<path d="M160.8675 188.2835 L161.3640 188.7800 "/>
<path d="M161.3640 188.7800 L161.8605 189.0283 "/>
<path d="M156.6473 192.7520 L156.6473 187.5388 "/>
<path d="M156.6473 187.5388 L154.6613 187.5388 "/>
<path d="M154.6613 187.5388 L154.1648 187.7870 "/>
<path d="M154.1648 187.7870 L153.9165 188.0353 "/>
<path d="M153.9165 188.0353 L153.6683 188.5318 "/>
<path d="M153.6683 188.5318 L153.6683 189.2765 "/>
<path d="M153.6683 189.2765 L153.9165 189.7730 "/>
<path d="M153.9165 189.7730 L154.1648 190.0213 "/>
<path d="M154.1648 190.0213 L154.6613 190.2695 "/>
<path d="M154.6613 190.2695 L156.6473 190.2695 "/>
<path d="M148.7033 187.7870 L149.1998 187.5388 "/>
<path d="M149.1998 187.5388 L149.9445 187.5388 "/>
<path d="M149.9445 187.5388 L150.6893 187.7870 "/>
<path d="M150.6893 187.7870 L151.1858 188.2835 "/>
<path d="M151.1858 188.2835 L151.4340 188.7800 "/>
<path d="M151.4340 188.7800 L151.6823 189.7730 "/>
<path d="M151.6823 189.7730 L151.6823 190.5178 "/>
<path d="M151.6823 190.5178 L151.4340 191.5108 "/>
<path d="M151.4340 191.5108 L151.1858 192.0073 "/>
<path d="M151.1858 192.0073 L150.6893 192.5038 "/>
<path d="M150.6893 192.5038 L149.9445 192.7520 "/>
<path d="M149.9445 192.7520 L149.4480 192.7520 "/>
<path d="M149.4480 192.7520 L148.7033 192.5038 "/>
<path d="M148.7033 192.5038 L148.4550 192.2555 "/>
<path d="M148.4550 192.2555 L148.4550 190.5178 "/>
<path d="M148.4550 190.5178 L149.4480 190.5178 "/>
<path d="M146.7173 187.5388 L143.4901 187.5388 "/>
<path d="M143.4901 187.5388 L145.2278 189.5248 "/>
<path d="M145.2278 189.5248 L144.4830 189.5248 "/>
<path d="M144.4830 189.5248 L143.9866 189.7730 "/>
<path d="M143.9866 189.7730 L143.7383 190.0213 "/>
<path d="M143.7383 190.0213 L143.4901 190.5178 "/>
<path d="M143.4901 190.5178 L143.4901 191.7590 "/>
<path d="M143.4901 191.7590 L143.7383 192.2555 "/>
<path d="M143.7383 192.2555 L143.9866 192.5038 "/>
<path d="M143.9866 192.5038 L144.4830 192.7520 "/>
<path d="M144.4830 192.7520 L145.9725 192.7520 "/>
<path d="M145.9725 192.7520 L146.4690 192.5038 "/>
<path d="M146.4690 192.5038 L146.7173 192.2555 "/>
<path d="M140.2628 187.5388 L139.7663 187.5388 "/>
<path d="M139.7663 187.5388 L139.2698 187.7870 "/>
<path d="M139.2698 187.7870 L139.0216 188.0353 "/>
<path d="M139.0216 188.0353 L138.7733 188.5318 "/>
<path d="M138.7733 188.5318 L138.5251 189.5248 "/>
<path d="M138.5251 189.5248 L138.5251 190.7660 "/>
<path d="M138.5251 190.7660 L138.7733 191.7590 "/>
<path d="M138.7733 191.7590 L139.0216 192.2555 "/>
<path d="M139.0216 192.2555 L139.2698 192.5038 "/>
<path d="M139.2698 192.5038 L139.7663 192.7520 "/>
<path d="M139.7663 192.7520 L140.2628 192.7520 "/>
<path d="M140.2628 192.7520 L140.7593 192.5038 "/>
<path d="M140.7593 192.5038 L141.0076 192.2555 "/>
<path d="M141.0076 192.2555 L141.2558 191.7590 "/>
<path d="M141.2558 191.7590 L141.5040 190.7660 "/>
<path d="M141.5040 190.7660 L141.5040 189.5248 "/>
<path d="M141.5040 189.5248 L141.2558 188.5318 "/>
<path d="M141.2558 188.5318 L141.0076 188.0353 "/>
<path d="M141.0076 188.0353 L140.7593 187.7870 "/>
<path d="M140.7593 187.7870 L140.2628 187.5388 "/>
<path d="M135.2978 187.5388 L134.8013 187.5388 "/>
<path d="M134.8013 187.5388 L134.3048 187.7870 "/>
<path d="M134.3048 187.7870 L134.0566 188.0353 "/>
<path d="M134.0566 188.0353 L133.8083 188.5318 "/>
<path d="M133.8083 188.5318 L133.5601 189.5248 "/>
<path d="M133.5601 189.5248 L133.5601 190.7660 "/>
<path d="M133.5601 190.7660 L133.8083 191.7590 "/>
<path d="M133.8083 191.7590 L134.0566 192.2555 "/>
<path d="M134.0566 192.2555 L134.3048 192.5038 "/>
<path d="M134.3048 192.5038 L134.8013 192.7520 "/>
<path d="M134.8013 192.7520 L135.2978 192.7520 "/>
<path d="M135.2978 192.7520 L135.7943 192.5038 "/>
<path d="M135.7943 192.5038 L136.0426 192.2555 "/>
<path d="M136.0426 192.2555 L136.2908 191.7590 "/>
<path d="M136.2908 191.7590 L136.5391 190.7660 "/>
<path d="M136.5391 190.7660 L136.5391 189.5248 "/>
<path d="M136.5391 189.5248 L136.2908 188.5318 "/>
<path d="M136.2908 188.5318 L136.0426 188.0353 "/>
<path d="M136.0426 188.0353 L135.7943 187.7870 "/>
<path d="M135.7943 187.7870 L135.2978 187.5388 "/>
<path d="M131.5741 192.5038 L130.8293 192.7520 "/>
<path d="M130.8293 192.7520 L129.5881 192.7520 "/>
<path d="M129.5881 192.7520 L129.0916 192.5038 "/>
<path d="M129.0916 192.5038 L128.8433 192.2555 "/>
<path d="M128.8433 192.2555 L128.5951 191.7590 "/>
<path d="M128.5951 191.7590 L128.5951 191.2625 "/>
<path d="M128.5951 191.2625 L128.8433 190.7660 "/>
<path d="M128.8433 190.7660 L129.0916 190.5178 "/>
<path d="M129.0916 190.5178 L129.5881 190.2695 "/>
<path d="M129.5881 190.2695 L130.5811 190.0213 "/>
<path d="M130.5811 190.0213 L131.0776 189.7730 "/>
<path d="M131.0776 189.7730 L131.3258 189.5248 "/>
<path d="M131.3258 189.5248 L131.5741 189.0283 "/>
<path d="M131.5741 189.0283 L131.5741 188.5318 "/>
<path d="M131.5741 188.5318 L131.3258 188.0353 "/>
<path d="M131.3258 188.0353 L131.0776 187.7870 "/>
<path d="M131.0776 187.7870 L130.5811 187.5388 "/>
<path d="M130.5811 187.5388 L129.3398 187.5388 "/>
<path d="M129.3398 187.5388 L128.5951 187.7870 "/>
<path d="M126.3608 192.7520 L126.3608 187.5388 "/>
<path d="M126.3608 187.5388 L123.3818 192.7520 "/>
<path d="M123.3818 192.7520 L123.3818 187.5388 "/>
<path d="M118.1686 192.7520 L121.1476 192.7520 "/>
<path d="M119.6581 192.7520 L119.6581 187.5388 "/>
<path d="M119.6581 187.5388 L120.1546 188.2835 "/>
<path d="M120.1546 188.2835 L120.6511 188.7800 "/>
<path d="M120.6511 188.7800 L121.1476 189.0283 "/>
<path d="M115.9343 192.7520 L115.9343 187.5388 "/>
<path d="M115.9343 187.5388 L114.6931 187.5388 "/>
<path d="M114.6931 187.5388 L113.9483 187.7870 "/>
<path d="M113.9483 187.7870 L113.4518 188.2835 "/>
<path d="M113.4518 188.2835 L113.2036 188.7800 "/>
<path d="M113.2036 188.7800 L112.9553 189.7730 "/>
<path d="M112.9553 189.7730 L112.9553 190.5178 "/>
<path d="M112.9553 190.5178 L113.2036 191.5108 "/>
<path d="M113.2036 191.5108 L113.4518 192.0073 "/>
<path d="M113.4518 192.0073 L113.9483 192.5038 "/>
<path d="M113.9483 192.5038 L114.6931 192.7520 "/>
<path d="M114.6931 192.7520 L115.9343 192.7520 "/>
</g><g transform="rotate(-90.000000 121.0481 147.3769)">
<text x="121.0481" y="149.9835" transform="scale(-1 1) translate(-242.096291 0)" textLength="72.1600" font-size="6.9510" lengthAdjust="spacingAndGlyphs" text-anchor="middle" opacity="0.01" style="font-family:monospace">BLM21PG300SN1D</text>
</g>
<g class="stroked-text"><desc>BLM21PG300SN1D</desc>
<path d="M120.6885 114.7320 L120.9367 115.4768 "/>
<path d="M120.9367 115.4768 L121.1850 115.7250 "/>
<path d="M121.1850 115.7250 L121.6815 115.9733 "/>
<path d="M121.6815 115.9733 L122.4262 115.9733 "/>
<path d="M122.4262 115.9733 L122.9227 115.7250 "/>
<path d="M122.9227 115.7250 L123.1710 115.4768 "/>
<path d="M123.1710 115.4768 L123.4192 114.9803 "/>
<path d="M123.4192 114.9803 L123.4192 112.9943 "/>
<path d="M123.4192 112.9943 L118.2060 112.9943 "/>
<path d="M118.2060 112.9943 L118.2060 114.7320 "/>
<path d="M118.2060 114.7320 L118.4542 115.2285 "/>
<path d="M118.4542 115.2285 L118.7025 115.4768 "/>
<path d="M118.7025 115.4768 L119.1990 115.7250 "/>
<path d="M119.1990 115.7250 L119.6955 115.7250 "/>
<path d="M119.6955 115.7250 L120.1920 115.4768 "/>
<path d="M120.1920 115.4768 L120.4402 115.2285 "/>
<path d="M120.4402 115.2285 L120.6885 114.7320 "/>
<path d="M120.6885 114.7320 L120.6885 112.9943 "/>
<path d="M123.4192 120.6900 L123.4192 118.2075 "/>
<path d="M123.4192 118.2075 L118.2060 118.2075 "/>
<path d="M123.4192 122.4278 L118.2060 122.4278 "/>
<path d="M118.2060 122.4278 L121.9297 124.1655 "/>
<path d="M121.9297 124.1655 L118.2060 125.9033 "/>
<path d="M118.2060 125.9033 L123.4192 125.9033 "/>
<path d="M118.7025 128.1375 L118.4542 128.3858 "/>
<path d="M118.4542 128.3858 L118.2060 128.8823 "/>
<path d="M118.2060 128.8823 L118.2060 130.1235 "/>
<path d="M118.2060 130.1235 L118.4542 130.6200 "/>
<path d="M118.4542 130.6200 L118.7025 130.8683 "/>
<path d="M118.7025 130.8683 L119.1990 131.1165 "/>
<path d="M119.1990 131.1165 L119.6955 131.1165 "/>
<path d="M119.6955 131.1165 L120.4402 130.8683 "/>
<path d="M120.4402 130.8683 L123.4192 127.8893 "/>
<path d="M123.4192 127.8893 L123.4192 131.1165 "/>
<path d="M123.4192 136.0815 L123.4192 133.1025 "/>
<path d="M123.4192 134.5920 L118.2060 134.5920 "/>
<path d="M118.2060 134.5920 L118.9507 134.0955 "/>
<path d="M118.9507 134.0955 L119.4472 133.5990 "/>
<path d="M119.4472 133.5990 L119.6955 133.1025 "/>
<path d="M123.4192 138.3158 L118.2060 138.3158 "/>
<path d="M118.2060 138.3158 L118.2060 140.3017 "/>
<path d="M118.2060 140.3017 L118.4542 140.7982 "/>
<path d="M118.4542 140.7982 L118.7025 141.0465 "/>
<path d="M118.7025 141.0465 L119.1990 141.2947 "/>
<path d="M119.1990 141.2947 L119.9437 141.2947 "/>
<path d="M119.9437 141.2947 L120.4402 141.0465 "/>
<path d="M120.4402 141.0465 L120.6885 140.7982 "/>
<path d="M120.6885 140.7982 L120.9367 140.3017 "/>
<path d="M120.9367 140.3017 L120.9367 138.3158 "/>
<path d="M118.4542 146.2597 L118.2060 145.7632 "/>
<path d="M118.2060 145.7632 L118.2060 145.0185 "/>
<path d="M118.2060 145.0185 L118.4542 144.2737 "/>
<path d="M118.4542 144.2737 L118.9507 143.7772 "/>
<path d="M118.9507 143.7772 L119.4472 143.5290 "/>
<path d="M119.4472 143.5290 L120.4402 143.2807 "/>
<path d="M120.4402 143.2807 L121.1850 143.2807 "/>
<path d="M121.1850 143.2807 L122.1780 143.5290 "/>
<path d="M122.1780 143.5290 L122.6745 143.7772 "/>
<path d="M122.6745 143.7772 L123.1710 144.2737 "/>
<path d="M123.1710 144.2737 L123.4192 145.0185 "/>
<path d="M123.4192 145.0185 L123.4192 145.5150 "/>
<path d="M123.4192 145.5150 L123.1710 146.2597 "/>
<path d="M123.1710 146.2597 L122.9227 146.5080 "/>
<path d="M122.9227 146.5080 L121.1850 146.5080 "/>
<path d="M121.1850 146.5080 L121.1850 145.5150 "/>
<path d="M118.2060 148.2457 L118.2060 151.4730 "/>
<path d="M118.2060 151.4730 L120.1920 149.7352 "/>
<path d="M120.1920 149.7352 L120.1920 150.4800 "/>
<path d="M120.1920 150.4800 L120.4402 150.9765 "/>
<path d="M120.4402 150.9765 L120.6885 151.2247 "/>
<path d="M120.6885 151.2247 L121.1850 151.4730 "/>
<path d="M121.1850 151.4730 L122.4262 151.4730 "/>
<path d="M122.4262 151.4730 L122.9227 151.2247 "/>
<path d="M122.9227 151.2247 L123.1710 150.9765 "/>
<path d="M123.1710 150.9765 L123.4192 150.4800 "/>
<path d="M123.4192 150.4800 L123.4192 148.9905 "/>
<path d="M123.4192 148.9905 L123.1710 148.4940 "/>
<path d="M123.1710 148.4940 L122.9227 148.2457 "/>
<path d="M118.2060 154.7002 L118.2060 155.1967 "/>
<path d="M118.2060 155.1967 L118.4542 155.6932 "/>
<path d="M118.4542 155.6932 L118.7025 155.9415 "/>
<path d="M118.7025 155.9415 L119.1990 156.1897 "/>
<path d="M119.1990 156.1897 L120.1920 156.4380 "/>
<path d="M120.1920 156.4380 L121.4332 156.4380 "/>
<path d="M121.4332 156.4380 L122.4262 156.1897 "/>
<path d="M122.4262 156.1897 L122.9227 155.9415 "/>
<path d="M122.9227 155.9415 L123.1710 155.6932 "/>
<path d="M123.1710 155.6932 L123.4192 155.1967 "/>
<path d="M123.4192 155.1967 L123.4192 154.7002 "/>
<path d="M123.4192 154.7002 L123.1710 154.2037 "/>
<path d="M123.1710 154.2037 L122.9227 153.9555 "/>
<path d="M122.9227 153.9555 L122.4262 153.7072 "/>
<path d="M122.4262 153.7072 L121.4332 153.4590 "/>
<path d="M121.4332 153.4590 L120.1920 153.4590 "/>
<path d="M120.1920 153.4590 L119.1990 153.7072 "/>
<path d="M119.1990 153.7072 L118.7025 153.9555 "/>
<path d="M118.7025 153.9555 L118.4542 154.2037 "/>
<path d="M118.4542 154.2037 L118.2060 154.7002 "/>
<path d="M118.2060 159.6652 L118.2060 160.1617 "/>
<path d="M118.2060 160.1617 L118.4542 160.6582 "/>
<path d="M118.4542 160.6582 L118.7025 160.9065 "/>
<path d="M118.7025 160.9065 L119.1990 161.1547 "/>
<path d="M119.1990 161.1547 L120.1920 161.4030 "/>
<path d="M120.1920 161.4030 L121.4332 161.4030 "/>
<path d="M121.4332 161.4030 L122.4262 161.1547 "/>
<path d="M122.4262 161.1547 L122.9227 160.9065 "/>
<path d="M122.9227 160.9065 L123.1710 160.6582 "/>
<path d="M123.1710 160.6582 L123.4192 160.1617 "/>
<path d="M123.4192 160.1617 L123.4192 159.6652 "/>
<path d="M123.4192 159.6652 L123.1710 159.1687 "/>
<path d="M123.1710 159.1687 L122.9227 158.9205 "/>
<path d="M122.9227 158.9205 L122.4262 158.6722 "/>
<path d="M122.4262 158.6722 L121.4332 158.4240 "/>
<path d="M121.4332 158.4240 L120.1920 158.4240 "/>
<path d="M120.1920 158.4240 L119.1990 158.6722 "/>
<path d="M119.1990 158.6722 L118.7025 158.9205 "/>
<path d="M118.7025 158.9205 L118.4542 159.1687 "/>
<path d="M118.4542 159.1687 L118.2060 159.6652 "/>
<path d="M123.1710 163.3890 L123.4192 164.1337 "/>
<path d="M123.4192 164.1337 L123.4192 165.3750 "/>
<path d="M123.4192 165.3750 L123.1710 165.8715 "/>
<path d="M123.1710 165.8715 L122.9227 166.1197 "/>
<path d="M122.9227 166.1197 L122.4262 166.3680 "/>
<path d="M122.4262 166.3680 L121.9297 166.3680 "/>
<path d="M121.9297 166.3680 L121.4332 166.1197 "/>
<path d="M121.4332 166.1197 L121.1850 165.8715 "/>
<path d="M121.1850 165.8715 L120.9367 165.3750 "/>
<path d="M120.9367 165.3750 L120.6885 164.3820 "/>
<path d="M120.6885 164.3820 L120.4402 163.8855 "/>
<path d="M120.4402 163.8855 L120.1920 163.6372 "/>
<path d="M120.1920 163.6372 L119.6955 163.3890 "/>
<path d="M119.6955 163.3890 L119.1990 163.3890 "/>
<path d="M119.1990 163.3890 L118.7025 163.6372 "/>
<path d="M118.7025 163.6372 L118.4542 163.8855 "/>
<path d="M118.4542 163.8855 L118.2060 164.3820 "/>
<path d="M118.2060 164.3820 L118.2060 165.6232 "/>
<path d="M118.2060 165.6232 L118.4542 166.3680 "/>
<path d="M123.4192 168.6022 L118.2060 168.6022 "/>
<path d="M118.2060 168.6022 L123.4192 171.5812 "/>
<path d="M123.4192 171.5812 L118.2060 171.5812 "/>
<path d="M123.4192 176.7945 L123.4192 173.8155 "/>
<path d="M123.4192 175.3050 L118.2060 175.3050 "/>
<path d="M118.2060 175.3050 L118.9507 174.8085 "/>
<path d="M118.9507 174.8085 L119.4472 174.3120 "/>
<path d="M119.4472 174.3120 L119.6955 173.8155 "/>
<path d="M123.4192 179.0287 L118.2060 179.0287 "/>
<path d="M118.2060 179.0287 L118.2060 180.2700 "/>
<path d="M118.2060 180.2700 L118.4542 181.0147 "/>
<path d="M118.4542 181.0147 L118.9507 181.5112 "/>
<path d="M118.9507 181.5112 L119.4472 181.7595 "/>
<path d="M119.4472 181.7595 L120.4402 182.0077 "/>
<path d="M120.4402 182.0077 L121.1850 182.0077 "/>
<path d="M121.1850 182.0077 L122.1780 181.7595 "/>
<path d="M122.1780 181.7595 L122.6745 181.5112 "/>
<path d="M122.6745 181.5112 L123.1710 181.0147 "/>
<path d="M123.1710 181.0147 L123.4192 180.2700 "/>
<path d="M123.4192 180.2700 L123.4192 179.0287 "/>
</g><g transform="rotate(-90.000000 102.1553 56.3536)">
<text x="102.1553" y="58.9602" transform="scale(-1 1) translate(-204.310680 0)" textLength="15.0626" font-size="6.9510" lengthAdjust="spacingAndGlyphs" text-anchor="middle" opacity="0.01" style="font-family:monospace">10k</text>
</g>
<g class="stroked-text"><desc>10k</desc>
<path d="M104.5264 53.2505 L104.5264 50.2715 "/>
<path d="M104.5264 51.7610 L99.3132 51.7610 "/>
<path d="M99.3132 51.7610 L100.0579 51.2645 "/>
<path d="M100.0579 51.2645 L100.5544 50.7680 "/>
<path d="M100.5544 50.7680 L100.8027 50.2715 "/>
<path d="M99.3132 56.4777 L99.3132 56.9742 "/>
<path d="M99.3132 56.9742 L99.5614 57.4707 "/>
<path d="M99.5614 57.4707 L99.8097 57.7190 "/>
<path d="M99.8097 57.7190 L100.3062 57.9672 "/>
<path d="M100.3062 57.9672 L101.2992 58.2155 "/>
<path d="M101.2992 58.2155 L102.5404 58.2155 "/>
<path d="M102.5404 58.2155 L103.5334 57.9672 "/>
<path d="M103.5334 57.9672 L104.0299 57.7190 "/>
<path d="M104.0299 57.7190 L104.2782 57.4707 "/>
<path d="M104.2782 57.4707 L104.5264 56.9742 "/>
<path d="M104.5264 56.9742 L104.5264 56.4777 "/>
<path d="M104.5264 56.4777 L104.2782 55.9812 "/>
<path d="M104.2782 55.9812 L104.0299 55.7330 "/>
<path d="M104.0299 55.7330 L103.5334 55.4847 "/>
<path d="M103.5334 55.4847 L102.5404 55.2365 "/>
<path d="M102.5404 55.2365 L101.2992 55.2365 "/>
<path d="M101.2992 55.2365 L100.3062 55.4847 "/>
<path d="M100.3062 55.4847 L99.8097 55.7330 "/>
<path d="M99.8097 55.7330 L99.5614 55.9812 "/>
<path d="M99.5614 55.9812 L99.3132 56.4777 "/>
<path d="M104.5264 60.4497 L99.3132 60.4497 "/>
<path d="M102.5404 60.9462 L104.5264 62.4357 "/>
<path d="M101.0509 62.4357 L103.0369 60.4497 "/>
</g><g transform="rotate(-90.000000 40.8893 82.4928)">
<text x="40.8893" y="85.0994" transform="scale(-1 1) translate(-81.778531 0)" textLength="15.0626" font-size="6.9510" lengthAdjust="spacingAndGlyphs" text-anchor="middle" opacity="0.01" style="font-family:monospace">10k</text>
</g>
<g class="stroked-text"><desc>10k</desc>
<path d="M43.2603 79.3897 L43.2603 76.4107 "/>
<path d="M43.2603 77.9002 L38.0471 77.9002 "/>
<path d="M38.0471 77.9002 L38.7919 77.4037 "/>
<path d="M38.7919 77.4037 L39.2884 76.9072 "/>
<path d="M39.2884 76.9072 L39.5366 76.4107 "/>
<path d="M38.0471 82.6169 L38.0471 83.1134 "/>
<path d="M38.0471 83.1134 L38.2954 83.6099 "/>
<path d="M38.2954 83.6099 L38.5436 83.8582 "/>
<path d="M38.5436 83.8582 L39.0401 84.1064 "/>
<path d="M39.0401 84.1064 L40.0331 84.3547 "/>
<path d="M40.0331 84.3547 L41.2743 84.3547 "/>
<path d="M41.2743 84.3547 L42.2673 84.1064 "/>
<path d="M42.2673 84.1064 L42.7638 83.8582 "/>
<path d="M42.7638 83.8582 L43.0121 83.6099 "/>
<path d="M43.0121 83.6099 L43.2603 83.1134 "/>
<path d="M43.2603 83.1134 L43.2603 82.6169 "/>
<path d="M43.2603 82.6169 L43.0121 82.1204 "/>
<path d="M43.0121 82.1204 L42.7638 81.8722 "/>
<path d="M42.7638 81.8722 L42.2673 81.6239 "/>
<path d="M42.2673 81.6239 L41.2743 81.3757 "/>
<path d="M41.2743 81.3757 L40.0331 81.3757 "/>
<path d="M40.0331 81.3757 L39.0401 81.6239 "/>
<path d="M39.0401 81.6239 L38.5436 81.8722 "/>
<path d="M38.5436 81.8722 L38.2954 82.1204 "/>
<path d="M38.2954 82.1204 L38.0471 82.6169 "/>
<path d="M43.2603 86.5889 L38.0471 86.5889 "/>
<path d="M41.2743 87.0854 L43.2603 88.5749 "/>
<path d="M39.7848 88.5749 L41.7708 86.5889 "/>
</g><g transform="rotate(-90.000000 199.7890 99.7069)">
<text x="199.7890" y="102.3136" transform="scale(-1 1) translate(-399.578045 0)" textLength="15.0626" font-size="6.9510" lengthAdjust="spacingAndGlyphs" text-anchor="middle" opacity="0.01" style="font-family:monospace">10k</text>
</g>
<g class="stroked-text"><desc>10k</desc>
<path d="M202.1601 96.6038 L202.1601 93.6248 "/>
<path d="M202.1601 95.1143 L196.9469 95.1143 "/>
<path d="M196.9469 95.1143 L197.6916 94.6178 "/>
<path d="M197.6916 94.6178 L198.1881 94.1213 "/>
<path d="M198.1881 94.1213 L198.4364 93.6248 "/>
<path d="M196.9469 99.8311 L196.9469 100.3276 "/>
<path d="M196.9469 100.3276 L197.1951 100.8241 "/>
<path d="M197.1951 100.8241 L197.4434 101.0723 "/>
<path d="M197.4434 101.0723 L197.9399 101.3206 "/>
<path d="M197.9399 101.3206 L198.9329 101.5688 "/>
<path d="M198.9329 101.5688 L200.1741 101.5688 "/>
<path d="M200.1741 101.5688 L201.1671 101.3206 "/>
<path d="M201.1671 101.3206 L201.6636 101.0723 "/>
<path d="M201.6636 101.0723 L201.9119 100.8241 "/>
<path d="M201.9119 100.8241 L202.1601 100.3276 "/>
<path d="M202.1601 100.3276 L202.1601 99.8311 "/>
<path d="M202.1601 99.8311 L201.9119 99.3346 "/>
<path d="M201.9119 99.3346 L201.6636 99.0863 "/>
<path d="M201.6636 99.0863 L201.1671 98.8381 "/>
<path d="M201.1671 98.8381 L200.1741 98.5898 "/>
<path d="M200.1741 98.5898 L198.9329 98.5898 "/>
<path d="M198.9329 98.5898 L197.9399 98.8381 "/>
<path d="M197.9399 98.8381 L197.4434 99.0863 "/>
<path d="M197.4434 99.0863 L197.1951 99.3346 "/>
<path d="M197.1951 99.3346 L196.9469 99.8311 "/>
<path d="M202.1601 103.8031 L196.9469 103.8031 "/>
<path d="M200.1741 104.2996 L202.1601 105.7891 "/>
<path d="M198.6846 105.7891 L200.6706 103.8031 "/>
</g><text x="192.8606" y="56.2597" transform="scale(-1 1) translate(-385.721235 0)" textLength="34.4260" font-size="6.9510" lengthAdjust="spacingAndGlyphs" text-anchor="middle" opacity="0.01" style="font-family:monospace">MIC4426</text>
<g class="stroked-text"><desc>MIC4426</desc>
<path d="M208.3762 56.0242 L208.3762 50.8110 "/>
<path d="M208.3762 50.8110 L206.6385 54.5347 "/>
<path d="M206.6385 54.5347 L204.9007 50.8110 "/>
<path d="M204.9007 50.8110 L204.9007 56.0242 "/>
<path d="M202.4182 56.0242 L202.4182 50.8110 "/>
<path d="M196.9567 55.5277 L197.2050 55.7760 "/>
<path d="M197.2050 55.7760 L197.9497 56.0242 "/>
<path d="M197.9497 56.0242 L198.4462 56.0242 "/>
<path d="M198.4462 56.0242 L199.1910 55.7760 "/>
<path d="M199.1910 55.7760 L199.6875 55.2795 "/>
<path d="M199.6875 55.2795 L199.9357 54.7830 "/>
<path d="M199.9357 54.7830 L200.1840 53.7900 "/>
<path d="M200.1840 53.7900 L200.1840 53.0452 "/>
<path d="M200.1840 53.0452 L199.9357 52.0522 "/>
<path d="M199.9357 52.0522 L199.6875 51.5557 "/>
<path d="M199.6875 51.5557 L199.1910 51.0592 "/>
<path d="M199.1910 51.0592 L198.4462 50.8110 "/>
<path d="M198.4462 50.8110 L197.9497 50.8110 "/>
<path d="M197.9497 50.8110 L197.2050 51.0592 "/>
<path d="M197.2050 51.0592 L196.9567 51.3075 "/>
<path d="M192.4882 52.5487 L192.4882 56.0242 "/>
<path d="M193.7295 50.5627 L194.9707 54.2865 "/>
<path d="M194.9707 54.2865 L191.7435 54.2865 "/>
<path d="M187.5232 52.5487 L187.5232 56.0242 "/>
<path d="M188.7645 50.5627 L190.0057 54.2865 "/>
<path d="M190.0057 54.2865 L186.7785 54.2865 "/>
<path d="M185.0407 51.3075 L184.7925 51.0592 "/>
<path d="M184.7925 51.0592 L184.2960 50.8110 "/>
<path d="M184.2960 50.8110 L183.0547 50.8110 "/>
<path d="M183.0547 50.8110 L182.5582 51.0592 "/>
<path d="M182.5582 51.0592 L182.3100 51.3075 "/>
<path d="M182.3100 51.3075 L182.0617 51.8040 "/>
<path d="M182.0617 51.8040 L182.0617 52.3005 "/>
<path d="M182.0617 52.3005 L182.3100 53.0452 "/>
<path d="M182.3100 53.0452 L185.2890 56.0242 "/>
<path d="M185.2890 56.0242 L182.0617 56.0242 "/>
<path d="M177.5932 50.8110 L178.5862 50.8110 "/>
<path d="M178.5862 50.8110 L179.0827 51.0592 "/>
<path d="M179.0827 51.0592 L179.3310 51.3075 "/>
<path d="M179.3310 51.3075 L179.8275 52.0522 "/>
<path d="M179.8275 52.0522 L180.0757 53.0452 "/>
<path d="M180.0757 53.0452 L180.0757 55.0312 "/>
<path d="M180.0757 55.0312 L179.8275 55.5277 "/>
<path d="M179.8275 55.5277 L179.5792 55.7760 "/>
<path d="M179.5792 55.7760 L179.0827 56.0242 "/>
<path d="M179.0827 56.0242 L178.0897 56.0242 "/>
<path d="M178.0897 56.0242 L177.5932 55.7760 "/>
<path d="M177.5932 55.7760 L177.3450 55.5277 "/>
<path d="M177.3450 55.5277 L177.0968 55.0312 "/>
<path d="M177.0968 55.0312 L177.0968 53.7900 "/>
<path d="M177.0968 53.7900 L177.3450 53.2935 "/>
<path d="M177.3450 53.2935 L177.5932 53.0452 "/>
<path d="M177.5932 53.0452 L178.0897 52.7970 "/>
<path d="M178.0897 52.7970 L179.0827 52.7970 "/>
<path d="M179.0827 52.7970 L179.5792 53.0452 "/>
<path d="M179.5792 53.0452 L179.8275 53.2935 "/>
<path d="M179.8275 53.2935 L180.0757 53.7900 "/>
</g><text x="140.2381" y="64.2179" transform="scale(-1 1) translate(-280.476223 0)" textLength="30.4541" font-size="6.9510" lengthAdjust="spacingAndGlyphs" text-anchor="middle" opacity="0.01" style="font-family:monospace">AD7730</text>
<g class="stroked-text"><desc>AD7730</desc>
<path d="M154.0160 62.4929 L151.5335 62.4929 "/>
<path d="M154.5125 63.9824 L152.7747 58.7692 "/>
<path d="M152.7747 58.7692 L151.0370 63.9824 "/>
<path d="M149.2992 63.9824 L149.2992 58.7692 "/>
<path d="M149.2992 58.7692 L148.0580 58.7692 "/>
<path d="M148.0580 58.7692 L147.3132 59.0174 "/>
<path d="M147.3132 59.0174 L146.8167 59.5139 "/>
<path d="M146.8167 59.5139 L146.5685 60.0104 "/>
<path d="M146.5685 60.0104 L146.3202 61.0034 "/>
<path d="M146.3202 61.0034 L146.3202 61.7482 "/>
<path d="M146.3202 61.7482 L146.5685 62.7412 "/>
<path d="M146.5685 62.7412 L146.8167 63.2377 "/>
<path d="M146.8167 63.2377 L147.3132 63.7342 "/>
<path d="M147.3132 63.7342 L148.0580 63.9824 "/>
<path d="M148.0580 63.9824 L149.2992 63.9824 "/>
<path d="M144.5825 58.7692 L141.1070 58.7692 "/>
<path d="M141.1070 58.7692 L143.3412 63.9824 "/>
<path d="M139.6175 58.7692 L136.1420 58.7692 "/>
<path d="M136.1420 58.7692 L138.3762 63.9824 "/>
<path d="M134.6525 58.7692 L131.4252 58.7692 "/>
<path d="M131.4252 58.7692 L133.1630 60.7552 "/>
<path d="M133.1630 60.7552 L132.4182 60.7552 "/>
<path d="M132.4182 60.7552 L131.9217 61.0034 "/>
<path d="M131.9217 61.0034 L131.6735 61.2517 "/>
<path d="M131.6735 61.2517 L131.4252 61.7482 "/>
<path d="M131.4252 61.7482 L131.4252 62.9894 "/>
<path d="M131.4252 62.9894 L131.6735 63.4859 "/>
<path d="M131.6735 63.4859 L131.9217 63.7342 "/>
<path d="M131.9217 63.7342 L132.4182 63.9824 "/>
<path d="M132.4182 63.9824 L133.9077 63.9824 "/>
<path d="M133.9077 63.9824 L134.4042 63.7342 "/>
<path d="M134.4042 63.7342 L134.6525 63.4859 "/>
<path d="M128.1980 58.7692 L127.7015 58.7692 "/>
<path d="M127.7015 58.7692 L127.2050 59.0174 "/>
<path d="M127.2050 59.0174 L126.9567 59.2657 "/>
<path d="M126.9567 59.2657 L126.7085 59.7622 "/>
<path d="M126.7085 59.7622 L126.4602 60.7552 "/>
<path d="M126.4602 60.7552 L126.4602 61.9964 "/>
<path d="M126.4602 61.9964 L126.7085 62.9894 "/>
<path d="M126.7085 62.9894 L126.9567 63.4859 "/>
<path d="M126.9567 63.4859 L127.2050 63.7342 "/>
<path d="M127.2050 63.7342 L127.7015 63.9824 "/>
<path d="M127.7015 63.9824 L128.1980 63.9824 "/>
<path d="M128.1980 63.9824 L128.6945 63.7342 "/>
<path d="M128.6945 63.7342 L128.9427 63.4859 "/>
<path d="M128.9427 63.4859 L129.1910 62.9894 "/>
<path d="M129.1910 62.9894 L129.4392 61.9964 "/>
<path d="M129.4392 61.9964 L129.4392 60.7552 "/>
<path d="M129.4392 60.7552 L129.1910 59.7622 "/>
<path d="M129.1910 59.7622 L128.9427 59.2657 "/>
<path d="M128.9427 59.2657 L128.6945 59.0174 "/>
<path d="M128.6945 59.0174 L128.1980 58.7692 "/>
</g><text x="182.2673" y="63.4227" transform="scale(-1 1) translate(-364.534601 0)" textLength="20.0276" font-size="6.9510" lengthAdjust="spacingAndGlyphs" text-anchor="middle" opacity="0.01" style="font-family:monospace">10uF</text>
<g class="stroked-text"><desc>10uF</desc>
<path d="M187.8529 63.1872 L190.8319 63.1872 "/>
<path d="M189.3424 63.1872 L189.3424 57.9740 "/>
<path d="M189.3424 57.9740 L189.8389 58.7187 "/>
<path d="M189.8389 58.7187 L190.3354 59.2152 "/>
<path d="M190.3354 59.2152 L190.8319 59.4635 "/>
<path d="M184.6257 57.9740 L184.1292 57.9740 "/>
<path d="M184.1292 57.9740 L183.6327 58.2222 "/>
<path d="M183.6327 58.2222 L183.3844 58.4705 "/>
<path d="M183.3844 58.4705 L183.1362 58.9670 "/>
<path d="M183.1362 58.9670 L182.8879 59.9600 "/>
<path d="M182.8879 59.9600 L182.8879 61.2012 "/>
<path d="M182.8879 61.2012 L183.1362 62.1942 "/>
<path d="M183.1362 62.1942 L183.3844 62.6907 "/>
<path d="M183.3844 62.6907 L183.6327 62.9390 "/>
<path d="M183.6327 62.9390 L184.1292 63.1872 "/>
<path d="M184.1292 63.1872 L184.6257 63.1872 "/>
<path d="M184.6257 63.1872 L185.1222 62.9390 "/>
<path d="M185.1222 62.9390 L185.3704 62.6907 "/>
<path d="M185.3704 62.6907 L185.6187 62.1942 "/>
<path d="M185.6187 62.1942 L185.8669 61.2012 "/>
<path d="M185.8669 61.2012 L185.8669 59.9600 "/>
<path d="M185.8669 59.9600 L185.6187 58.9670 "/>
<path d="M185.6187 58.9670 L185.3704 58.4705 "/>
<path d="M185.3704 58.4705 L185.1222 58.2222 "/>
<path d="M185.1222 58.2222 L184.6257 57.9740 "/>
<path d="M178.4194 59.7117 L178.4194 63.1872 "/>
<path d="M180.6537 59.7117 L180.6537 62.4425 "/>
<path d="M180.6537 62.4425 L180.4054 62.9390 "/>
<path d="M180.4054 62.9390 L179.9089 63.1872 "/>
<path d="M179.9089 63.1872 L179.1642 63.1872 "/>
<path d="M179.1642 63.1872 L178.6677 62.9390 "/>
<path d="M178.6677 62.9390 L178.4194 62.6907 "/>
<path d="M174.1992 60.4565 L175.9369 60.4565 "/>
<path d="M175.9369 63.1872 L175.9369 57.9740 "/>
<path d="M175.9369 57.9740 L173.4544 57.9740 "/>
</g><text x="90.2379" y="154.7901" transform="scale(-1 1) translate(-180.475716 0)" textLength="20.0276" font-size="6.9510" lengthAdjust="spacingAndGlyphs" text-anchor="middle" opacity="0.01" style="font-family:monospace">10uF</text>
<g class="stroked-text"><desc>10uF</desc>
<path d="M95.8235 154.5546 L98.8025 154.5546 "/>
<path d="M97.3130 154.5546 L97.3130 149.3413 "/>
<path d="M97.3130 149.3413 L97.8095 150.0861 "/>
<path d="M97.8095 150.0861 L98.3060 150.5826 "/>
<path d="M98.3060 150.5826 L98.8025 150.8308 "/>
<path d="M92.5962 149.3413 L92.0997 149.3413 "/>
<path d="M92.0997 149.3413 L91.6032 149.5896 "/>
<path d="M91.6032 149.5896 L91.3550 149.8378 "/>
<path d="M91.3550 149.8378 L91.1067 150.3343 "/>
<path d="M91.1067 150.3343 L90.8585 151.3273 "/>
<path d="M90.8585 151.3273 L90.8585 152.5686 "/>
<path d="M90.8585 152.5686 L91.1067 153.5616 "/>
<path d="M91.1067 153.5616 L91.3550 154.0581 "/>
<path d="M91.3550 154.0581 L91.6032 154.3063 "/>
<path d="M91.6032 154.3063 L92.0997 154.5546 "/>
<path d="M92.0997 154.5546 L92.5962 154.5546 "/>
<path d="M92.5962 154.5546 L93.0927 154.3063 "/>
<path d="M93.0927 154.3063 L93.3410 154.0581 "/>
<path d="M93.3410 154.0581 L93.5892 153.5616 "/>
<path d="M93.5892 153.5616 L93.8375 152.5686 "/>
<path d="M93.8375 152.5686 L93.8375 151.3273 "/>
<path d="M93.8375 151.3273 L93.5892 150.3343 "/>
<path d="M93.5892 150.3343 L93.3410 149.8378 "/>
<path d="M93.3410 149.8378 L93.0927 149.5896 "/>
<path d="M93.0927 149.5896 L92.5962 149.3413 "/>
<path d="M86.3900 151.0791 L86.3900 154.5546 "/>
<path d="M88.6242 151.0791 L88.6242 153.8098 "/>
<path d="M88.6242 153.8098 L88.3760 154.3063 "/>
<path d="M88.3760 154.3063 L87.8795 154.5546 "/>
<path d="M87.8795 154.5546 L87.1347 154.5546 "/>
<path d="M87.1347 154.5546 L86.6382 154.3063 "/>
<path d="M86.6382 154.3063 L86.3900 154.0581 "/>
<path d="M82.1697 151.8238 L83.9075 151.8238 "/>
<path d="M83.9075 154.5546 L83.9075 149.3413 "/>
<path d="M83.9075 149.3413 L81.4250 149.3413 "/>
</g><text x="155.5312" y="57.3076" transform="scale(-1 1) translate(-311.062331 0)" textLength="24.9926" font-size="6.9510" lengthAdjust="spacingAndGlyphs" text-anchor="middle" opacity="0.01" style="font-family:monospace">100nF</text>
<g class="stroked-text"><desc>100nF</desc>
<path d="M163.5993 57.0721 L166.5783 57.0721 "/>
<path d="M165.0888 57.0721 L165.0888 51.8588 "/>
<path d="M165.0888 51.8588 L165.5853 52.6036 "/>
<path d="M165.5853 52.6036 L166.0818 53.1001 "/>
<path d="M166.0818 53.1001 L166.5783 53.3483 "/>
<path d="M160.3720 51.8588 L159.8755 51.8588 "/>
<path d="M159.8755 51.8588 L159.3790 52.1071 "/>
<path d="M159.3790 52.1071 L159.1308 52.3553 "/>
<path d="M159.1308 52.3553 L158.8825 52.8518 "/>
<path d="M158.8825 52.8518 L158.6343 53.8448 "/>
<path d="M158.6343 53.8448 L158.6343 55.0861 "/>
<path d="M158.6343 55.0861 L158.8825 56.0791 "/>
<path d="M158.8825 56.0791 L159.1308 56.5756 "/>
<path d="M159.1308 56.5756 L159.3790 56.8238 "/>
<path d="M159.3790 56.8238 L159.8755 57.0721 "/>
<path d="M159.8755 57.0721 L160.3720 57.0721 "/>
<path d="M160.3720 57.0721 L160.8685 56.8238 "/>
<path d="M160.8685 56.8238 L161.1168 56.5756 "/>
<path d="M161.1168 56.5756 L161.3650 56.0791 "/>
<path d="M161.3650 56.0791 L161.6133 55.0861 "/>
<path d="M161.6133 55.0861 L161.6133 53.8448 "/>
<path d="M161.6133 53.8448 L161.3650 52.8518 "/>
<path d="M161.3650 52.8518 L161.1168 52.3553 "/>
<path d="M161.1168 52.3553 L160.8685 52.1071 "/>
<path d="M160.8685 52.1071 L160.3720 51.8588 "/>
<path d="M155.4070 51.8588 L154.9105 51.8588 "/>
<path d="M154.9105 51.8588 L154.4140 52.1071 "/>
<path d="M154.4140 52.1071 L154.1658 52.3553 "/>
<path d="M154.1658 52.3553 L153.9175 52.8518 "/>
<path d="M153.9175 52.8518 L153.6693 53.8448 "/>
<path d="M153.6693 53.8448 L153.6693 55.0861 "/>
<path d="M153.6693 55.0861 L153.9175 56.0791 "/>
<path d="M153.9175 56.0791 L154.1658 56.5756 "/>
<path d="M154.1658 56.5756 L154.4140 56.8238 "/>
<path d="M154.4140 56.8238 L154.9105 57.0721 "/>
<path d="M154.9105 57.0721 L155.4070 57.0721 "/>
<path d="M155.4070 57.0721 L155.9035 56.8238 "/>
<path d="M155.9035 56.8238 L156.1518 56.5756 "/>
<path d="M156.1518 56.5756 L156.4000 56.0791 "/>
<path d="M156.4000 56.0791 L156.6483 55.0861 "/>
<path d="M156.6483 55.0861 L156.6483 53.8448 "/>
<path d="M156.6483 53.8448 L156.4000 52.8518 "/>
<path d="M156.4000 52.8518 L156.1518 52.3553 "/>
<path d="M156.1518 52.3553 L155.9035 52.1071 "/>
<path d="M155.9035 52.1071 L155.4070 51.8588 "/>
<path d="M151.4350 53.5966 L151.4350 57.0721 "/>
<path d="M151.4350 54.0931 L151.1868 53.8448 "/>
<path d="M151.1868 53.8448 L150.6903 53.5966 "/>
<path d="M150.6903 53.5966 L149.9455 53.5966 "/>
<path d="M149.9455 53.5966 L149.4490 53.8448 "/>
<path d="M149.4490 53.8448 L149.2008 54.3413 "/>
<path d="M149.2008 54.3413 L149.2008 57.0721 "/>
<path d="M144.9805 54.3413 L146.7183 54.3413 "/>
<path d="M146.7183 57.0721 L146.7183 51.8588 "/>
<path d="M146.7183 51.8588 L144.2358 51.8588 "/>
</g><g>
</g>
<g>
</g>
<g>
</g>
<g>
</g>
<g>
</g>
<g>
</g>
<g>
</g>
<g>
</g>
<g>
</g>
<g>
</g>
<g>
</g>
<g>
</g>
<g>
</g>
<g>
</g>
<g>
</g>
<g>
</g>
<g>
</g>
<g>
</g>
<g>
</g>
<g>
</g>
<g>
</g>
<g>
</g>
<g>
</g>
<g>
</g>
<g>
</g>
<g>
</g>
<g>
</g>
<g>
</g>
<g>
</g>
<g>
</g>
<g>
</g>
<g>
</g>
<g>
</g>
<g>
</g>
<g>
</g>
<g>
</g>
<g>
</g>
<g>
</g>
<g>
</g>
<g>
</g>
<g>
</g>
<g>
</g>
<g>
</g>
<g>
</g>
<g>
</g>
<g>
</g>
<g>
</g>
</g> 
<svg:g><svg:g><svg:title>SVG Image created as BRIDGEADC01-Edge_Cuts.svg date 2023/07/05 15:05:39 </svg:title>
  <svg:desc>Image generated by PCBNEW </svg:desc>
<svg:g style="fill:#C2C200; fill-opacity:1.0000;stroke:#C2C200; stroke-opacity:1.0000; stroke-linecap:round; stroke-linejoin:round;" transform="translate(0 0) scale(1 1)">
</svg:g>
<svg:g style="fill:#C2C200; fill-opacity:0.0;  stroke:#C2C200; stroke-width:0.0000; stroke-opacity:1;  stroke-linecap:round; stroke-linejoin:round;">
</svg:g>
<svg:g style="fill:#C2C200; fill-opacity:0.0;  stroke:#C2C200; stroke-width:0.7820; stroke-opacity:1;  stroke-linecap:round; stroke-linejoin:round;">
<svg:path d="M43.8921 209.6126 L253.1101 209.6126 "/>
<svg:path d="M253.1101 0.3946 L43.8921 0.3946 "/>
<svg:path d="M43.8921 0.3946 L43.8921 209.6126 "/>
<svg:path d="M253.1101 209.6126 L253.1101 0.3946 "/>
<svg:g>
</svg:g>
<svg:g>
</svg:g>
<svg:g>
</svg:g>
<svg:g>
</svg:g>
<svg:g>
</svg:g>
<svg:g>
</svg:g>
<svg:g>
</svg:g>
<svg:g>
</svg:g>
<svg:g>
</svg:g>
<svg:g>
</svg:g>
<svg:g>
</svg:g>
<svg:g>
</svg:g>
<svg:g>
</svg:g>
<svg:g>
</svg:g>
<svg:g>
</svg:g>
<svg:g>
</svg:g>
<svg:g>
</svg:g>
<svg:g>
</svg:g>
<svg:g>
</svg:g>
<svg:g>
</svg:g>
<svg:g>
</svg:g>
<svg:g>
</svg:g>
<svg:g>
</svg:g>
<svg:g>
</svg:g>
<svg:g>
</svg:g>
<svg:g>
</svg:g>
<svg:g>
</svg:g>
<svg:g>
</svg:g>
<svg:g>
</svg:g>
<svg:g>
</svg:g>
<svg:g>
</svg:g>
<svg:g>
</svg:g>
<svg:g>
</svg:g>
<svg:g>
</svg:g>
<svg:g>
</svg:g>
<svg:g>
</svg:g>
<svg:g>
</svg:g>
<svg:g>
</svg:g>
<svg:g>
</svg:g>
<svg:g>
</svg:g>
<svg:g>
</svg:g>
<svg:g>
</svg:g>
<svg:g>
</svg:g>
<svg:g>
</svg:g>
<svg:g>
</svg:g>
<svg:g>
</svg:g>
<svg:g>
</svg:g>
</svg:g> 
</svg:g></svg:g></svg>
