<?xml version='1.0' encoding='ASCII' standalone='yes'?>
<svg xmlns:svg="http://www.w3.org/2000/svg" xmlns="http://www.w3.org/2000/svg" xmlns:xlink="http://www.w3.org/1999/xlink" version="1.1" width="297.0022mm" height="210.0072mm" viewBox="0.0000 0.0000 297.0022 210.0072">
<title>SVG Image created as BRIDGEADC01-F_Fab.svg date 2023/07/05 14:03:27 </title>
  <desc>Image generated by PCBNEW </desc>
<g style="fill:#848484; fill-opacity:1.0000;stroke:#848484; stroke-opacity:1.0000; stroke-linecap:round; stroke-linejoin:round;" transform="translate(0 0) scale(1 1)">
</g>
<g style="fill:#848484; fill-opacity:0.0;  stroke:#848484; stroke-width:0.0000; stroke-opacity:1;  stroke-linecap:round; stroke-linejoin:round;">
</g>
<g style="fill:#848484; fill-opacity:0.0;  stroke:#848484; stroke-width:0.7820; stroke-opacity:1;  stroke-linecap:round; stroke-linejoin:round;">
<g transform="rotate(-90.000000 215.3714 107.6519)">
<text x="215.3714" y="110.2586" textLength="47.8315" font-size="6.9510" lengthAdjust="spacingAndGlyphs" text-anchor="middle" opacity="0.01" style="font-family:monospace">4.9152 MHz</text>
</g>
<g class="stroked-text"><desc>4.9152 MHz</desc>
<path d="M216.4758 127.6360 L213.0003 127.6360 "/>
<path d="M218.4618 128.8773 L214.7381 130.1185 "/>
<path d="M214.7381 130.1185 L214.7381 126.8913 "/>
<path d="M213.4968 124.9053 L213.2486 124.6570 "/>
<path d="M213.2486 124.6570 L213.0003 124.9053 "/>
<path d="M213.0003 124.9053 L213.2486 125.1535 "/>
<path d="M213.2486 125.1535 L213.4968 124.9053 "/>
<path d="M213.4968 124.9053 L213.0003 124.9053 "/>
<path d="M213.0003 122.1745 L213.0003 121.1815 "/>
<path d="M213.0003 121.1815 L213.2486 120.6850 "/>
<path d="M213.2486 120.6850 L213.4968 120.4368 "/>
<path d="M213.4968 120.4368 L214.2416 119.9403 "/>
<path d="M214.2416 119.9403 L215.2346 119.6920 "/>
<path d="M215.2346 119.6920 L217.2206 119.6920 "/>
<path d="M217.2206 119.6920 L217.7171 119.9403 "/>
<path d="M217.7171 119.9403 L217.9653 120.1885 "/>
<path d="M217.9653 120.1885 L218.2136 120.6850 "/>
<path d="M218.2136 120.6850 L218.2136 121.6780 "/>
<path d="M218.2136 121.6780 L217.9653 122.1745 "/>
<path d="M217.9653 122.1745 L217.7171 122.4228 "/>
<path d="M217.7171 122.4228 L217.2206 122.6710 "/>
<path d="M217.2206 122.6710 L215.9793 122.6710 "/>
<path d="M215.9793 122.6710 L215.4828 122.4228 "/>
<path d="M215.4828 122.4228 L215.2346 122.1745 "/>
<path d="M215.2346 122.1745 L214.9863 121.6780 "/>
<path d="M214.9863 121.6780 L214.9863 120.6850 "/>
<path d="M214.9863 120.6850 L215.2346 120.1885 "/>
<path d="M215.2346 120.1885 L215.4828 119.9403 "/>
<path d="M215.4828 119.9403 L215.9793 119.6920 "/>
<path d="M213.0003 114.7271 L213.0003 117.7060 "/>
<path d="M213.0003 116.2166 L218.2136 116.2166 "/>
<path d="M218.2136 116.2166 L217.4688 116.7130 "/>
<path d="M217.4688 116.7130 L216.9723 117.2095 "/>
<path d="M216.9723 117.2095 L216.7241 117.7060 "/>
<path d="M218.2136 110.0103 L218.2136 112.4928 "/>
<path d="M218.2136 112.4928 L215.7311 112.7411 "/>
<path d="M215.7311 112.7411 L215.9793 112.4928 "/>
<path d="M215.9793 112.4928 L216.2276 111.9963 "/>
<path d="M216.2276 111.9963 L216.2276 110.7551 "/>
<path d="M216.2276 110.7551 L215.9793 110.2586 "/>
<path d="M215.9793 110.2586 L215.7311 110.0103 "/>
<path d="M215.7311 110.0103 L215.2346 109.7621 "/>
<path d="M215.2346 109.7621 L213.9933 109.7621 "/>
<path d="M213.9933 109.7621 L213.4968 110.0103 "/>
<path d="M213.4968 110.0103 L213.2486 110.2586 "/>
<path d="M213.2486 110.2586 L213.0003 110.7551 "/>
<path d="M213.0003 110.7551 L213.0003 111.9963 "/>
<path d="M213.0003 111.9963 L213.2486 112.4928 "/>
<path d="M213.2486 112.4928 L213.4968 112.7411 "/>
<path d="M217.7171 107.7761 L217.9653 107.5278 "/>
<path d="M217.9653 107.5278 L218.2136 107.0313 "/>
<path d="M218.2136 107.0313 L218.2136 105.7901 "/>
<path d="M218.2136 105.7901 L217.9653 105.2936 "/>
<path d="M217.9653 105.2936 L217.7171 105.0453 "/>
<path d="M217.7171 105.0453 L217.2206 104.7971 "/>
<path d="M217.2206 104.7971 L216.7241 104.7971 "/>
<path d="M216.7241 104.7971 L215.9793 105.0453 "/>
<path d="M215.9793 105.0453 L213.0003 108.0243 "/>
<path d="M213.0003 108.0243 L213.0003 104.7971 "/>
<path d="M213.0003 98.5908 L218.2136 98.5908 "/>
<path d="M218.2136 98.5908 L214.4898 96.8531 "/>
<path d="M214.4898 96.8531 L218.2136 95.1153 "/>
<path d="M218.2136 95.1153 L213.0003 95.1153 "/>
<path d="M213.0003 92.6328 L218.2136 92.6328 "/>
<path d="M215.7311 92.6328 L215.7311 89.6538 "/>
<path d="M213.0003 89.6538 L218.2136 89.6538 "/>
<path d="M216.4758 87.6678 L216.4758 84.9371 "/>
<path d="M216.4758 84.9371 L213.0003 87.6678 "/>
<path d="M213.0003 87.6678 L213.0003 84.9371 "/>
</g><g>
</g>
<g>
</g>
<g>
</g>
<g>
</g>
<g>
</g>
<g>
</g>
<g>
</g>
<g>
</g>
<g>
</g>
<g>
</g>
<g>
</g>
<g>
</g>
<g>
</g>
<g>
</g>
<g>
</g>
<g>
</g>
<g>
</g>
<g>
</g>
<g>
</g>
<g>
</g>
<g>
</g>
<g>
</g>
<g>
</g>
<g>
</g>
<g>
</g>
<g>
</g>
<g>
</g>
<g>
</g>
<g>
</g>
<g>
</g>
<g>
</g>
<g>
</g>
<g>
</g>
<g>
</g>
<g>
</g>
<g>
</g>
<g>
</g>
<g>
</g>
<g>
</g>
<g>
</g>
<g>
</g>
<g>
</g>
<g>
</g>
<g>
</g>
<g>
</g>
<g>
</g>
<g>
</g>
</g> 
<svg:g><svg:g><svg:title>SVG Image created as BRIDGEADC01-Edge_Cuts.svg date 2023/07/05 14:03:27 </svg:title>
  <svg:desc>Image generated by PCBNEW </svg:desc>
<svg:g style="fill:#C2C200; fill-opacity:1.0000;stroke:#C2C200; stroke-opacity:1.0000; stroke-linecap:round; stroke-linejoin:round;" transform="translate(0 0) scale(1 1)">
</svg:g>
<svg:g style="fill:#C2C200; fill-opacity:0.0;  stroke:#C2C200; stroke-width:0.0000; stroke-opacity:1;  stroke-linecap:round; stroke-linejoin:round;">
</svg:g>
<svg:g style="fill:#C2C200; fill-opacity:0.0;  stroke:#C2C200; stroke-width:0.7820; stroke-opacity:1;  stroke-linecap:round; stroke-linejoin:round;">
<svg:path d="M253.1101 209.6126 L43.8921 209.6126 "/>
<svg:path d="M43.8921 0.3946 L253.1101 0.3946 "/>
<svg:path d="M253.1101 0.3946 L253.1101 209.6126 "/>
<svg:path d="M43.8921 209.6126 L43.8921 0.3946 "/>
<svg:g>
</svg:g>
<svg:g>
</svg:g>
<svg:g>
</svg:g>
<svg:g>
</svg:g>
<svg:g>
</svg:g>
<svg:g>
</svg:g>
<svg:g>
</svg:g>
<svg:g>
</svg:g>
<svg:g>
</svg:g>
<svg:g>
</svg:g>
<svg:g>
</svg:g>
<svg:g>
</svg:g>
<svg:g>
</svg:g>
<svg:g>
</svg:g>
<svg:g>
</svg:g>
<svg:g>
</svg:g>
<svg:g>
</svg:g>
<svg:g>
</svg:g>
<svg:g>
</svg:g>
<svg:g>
</svg:g>
<svg:g>
</svg:g>
<svg:g>
</svg:g>
<svg:g>
</svg:g>
<svg:g>
</svg:g>
<svg:g>
</svg:g>
<svg:g>
</svg:g>
<svg:g>
</svg:g>
<svg:g>
</svg:g>
<svg:g>
</svg:g>
<svg:g>
</svg:g>
<svg:g>
</svg:g>
<svg:g>
</svg:g>
<svg:g>
</svg:g>
<svg:g>
</svg:g>
<svg:g>
</svg:g>
<svg:g>
</svg:g>
<svg:g>
</svg:g>
<svg:g>
</svg:g>
<svg:g>
</svg:g>
<svg:g>
</svg:g>
<svg:g>
</svg:g>
<svg:g>
</svg:g>
<svg:g>
</svg:g>
<svg:g>
</svg:g>
<svg:g>
</svg:g>
<svg:g>
</svg:g>
<svg:g>
</svg:g>
</svg:g> 
</svg:g></svg:g></svg>
