%TF.GenerationSoftware,KiCad,Pcbnew,7.0.7-7.0.7~ubuntu23.04.1*%
%TF.CreationDate,2023-09-11T00:40:32+00:00*%
%TF.ProjectId,BRIDGEADC01,42524944-4745-4414-9443-30312e6b6963,rev?*%
%TF.SameCoordinates,Original*%
%TF.FileFunction,Paste,Bot*%
%TF.FilePolarity,Positive*%
%FSLAX46Y46*%
G04 Gerber Fmt 4.6, Leading zero omitted, Abs format (unit mm)*
G04 Created by KiCad (PCBNEW 7.0.7-7.0.7~ubuntu23.04.1) date 2023-09-11 00:40:32*
%MOMM*%
%LPD*%
G01*
G04 APERTURE LIST*
%ADD10R,1.800000X2.230000*%
%ADD11R,1.250000X1.000000*%
%ADD12R,1.000000X1.250000*%
%ADD13R,1.800860X2.499360*%
%ADD14R,1.300000X0.700000*%
%ADD15R,1.550000X0.600000*%
%ADD16R,1.100000X0.400000*%
G04 APERTURE END LIST*
D10*
%TO.C,C1*%
X142162000Y-101792000D03*
X145082000Y-101792000D03*
%TD*%
D11*
%TO.C,C2*%
X144130000Y-95458000D03*
X144130000Y-97458000D03*
%TD*%
%TO.C,C3*%
X150734000Y-84504000D03*
X150734000Y-82504000D03*
%TD*%
D12*
%TO.C,C6*%
X133192000Y-87822000D03*
X131192000Y-87822000D03*
%TD*%
D13*
%TO.C,D1*%
X147432000Y-106397020D03*
X147432000Y-110394980D03*
%TD*%
%TO.C,D2*%
X132700000Y-106397020D03*
X132700000Y-110394980D03*
%TD*%
D12*
%TO.C,L1*%
X139144500Y-113157000D03*
X141144500Y-113157000D03*
%TD*%
D11*
%TO.C,L2*%
X132954000Y-101808000D03*
X132954000Y-103808000D03*
%TD*%
D14*
%TO.C,R1*%
X129398000Y-84652000D03*
X129398000Y-86552000D03*
%TD*%
%TO.C,R2*%
X121778000Y-91312000D03*
X121778000Y-89412000D03*
%TD*%
%TO.C,R3*%
X152258000Y-94614000D03*
X152258000Y-92714000D03*
%TD*%
D15*
%TO.C,U1*%
X146129000Y-90235000D03*
X146129000Y-88965000D03*
X146129000Y-87695000D03*
X146129000Y-86425000D03*
X151529000Y-86425000D03*
X151529000Y-87695000D03*
X151529000Y-88965000D03*
X151529000Y-90235000D03*
%TD*%
D16*
%TO.C,U2*%
X135885001Y-94881534D03*
X135885001Y-94231534D03*
X135885001Y-93581534D03*
X135885001Y-92931534D03*
X135885001Y-92281534D03*
X135885001Y-91631534D03*
X135885001Y-90981534D03*
X135885001Y-90331534D03*
X135885001Y-89681534D03*
X135885001Y-89031534D03*
X135885001Y-88381534D03*
X135885001Y-87731534D03*
X141585001Y-87731534D03*
X141585001Y-88381534D03*
X141585001Y-89031534D03*
X141585001Y-89681534D03*
X141585001Y-90331534D03*
X141585001Y-90981534D03*
X141585001Y-91631534D03*
X141585001Y-92281534D03*
X141585001Y-92931534D03*
X141585001Y-93581534D03*
X141585001Y-94231534D03*
X141585001Y-94881534D03*
%TD*%
D10*
%TO.C,C4*%
X148257000Y-83504000D03*
X145337000Y-83504000D03*
%TD*%
%TO.C,C5*%
X130604000Y-101030000D03*
X127684000Y-101030000D03*
%TD*%
D12*
%TO.C,C7*%
X142668500Y-82931000D03*
X140668500Y-82931000D03*
%TD*%
M02*
