%TF.GenerationSoftware,KiCad,Pcbnew,7.0.5.1-1-g8f565ef7f0-dirty-deb11*%
%TF.CreationDate,2023-07-21T03:30:06+00:00*%
%TF.ProjectId,BRIDGEADC01,42524944-4745-4414-9443-30312e6b6963,rev?*%
%TF.SameCoordinates,Original*%
%TF.FileFunction,Legend,Top*%
%TF.FilePolarity,Positive*%
%FSLAX46Y46*%
G04 Gerber Fmt 4.6, Leading zero omitted, Abs format (unit mm)*
G04 Created by KiCad (PCBNEW 7.0.5.1-1-g8f565ef7f0-dirty-deb11) date 2023-07-21 03:30:06*
%MOMM*%
%LPD*%
G01*
G04 APERTURE LIST*
%ADD10C,0.150000*%
%ADD11C,0.250000*%
%ADD12C,0.200000*%
%ADD13C,0.300000*%
%ADD14R,1.524000X1.524000*%
%ADD15C,1.501140*%
G04 APERTURE END LIST*
D10*
X146543143Y-104986557D02*
X146400286Y-104915128D01*
X146400286Y-104915128D02*
X146186000Y-104915128D01*
X146186000Y-104915128D02*
X145971714Y-104986557D01*
X145971714Y-104986557D02*
X145828857Y-105129414D01*
X145828857Y-105129414D02*
X145757428Y-105272271D01*
X145757428Y-105272271D02*
X145686000Y-105557985D01*
X145686000Y-105557985D02*
X145686000Y-105772271D01*
X145686000Y-105772271D02*
X145757428Y-106057985D01*
X145757428Y-106057985D02*
X145828857Y-106200842D01*
X145828857Y-106200842D02*
X145971714Y-106343700D01*
X145971714Y-106343700D02*
X146186000Y-106415128D01*
X146186000Y-106415128D02*
X146328857Y-106415128D01*
X146328857Y-106415128D02*
X146543143Y-106343700D01*
X146543143Y-106343700D02*
X146614571Y-106272271D01*
X146614571Y-106272271D02*
X146614571Y-105772271D01*
X146614571Y-105772271D02*
X146328857Y-105772271D01*
X147257428Y-106415128D02*
X147257428Y-104915128D01*
X147257428Y-104915128D02*
X148114571Y-106415128D01*
X148114571Y-106415128D02*
X148114571Y-104915128D01*
X148828857Y-106415128D02*
X148828857Y-104915128D01*
X148828857Y-104915128D02*
X149186000Y-104915128D01*
X149186000Y-104915128D02*
X149400286Y-104986557D01*
X149400286Y-104986557D02*
X149543143Y-105129414D01*
X149543143Y-105129414D02*
X149614572Y-105272271D01*
X149614572Y-105272271D02*
X149686000Y-105557985D01*
X149686000Y-105557985D02*
X149686000Y-105772271D01*
X149686000Y-105772271D02*
X149614572Y-106057985D01*
X149614572Y-106057985D02*
X149543143Y-106200842D01*
X149543143Y-106200842D02*
X149400286Y-106343700D01*
X149400286Y-106343700D02*
X149186000Y-106415128D01*
X149186000Y-106415128D02*
X148828857Y-106415128D01*
X135894557Y-95695856D02*
X135823128Y-95838714D01*
X135823128Y-95838714D02*
X135823128Y-96052999D01*
X135823128Y-96052999D02*
X135894557Y-96267285D01*
X135894557Y-96267285D02*
X136037414Y-96410142D01*
X136037414Y-96410142D02*
X136180271Y-96481571D01*
X136180271Y-96481571D02*
X136465985Y-96552999D01*
X136465985Y-96552999D02*
X136680271Y-96552999D01*
X136680271Y-96552999D02*
X136965985Y-96481571D01*
X136965985Y-96481571D02*
X137108842Y-96410142D01*
X137108842Y-96410142D02*
X137251700Y-96267285D01*
X137251700Y-96267285D02*
X137323128Y-96052999D01*
X137323128Y-96052999D02*
X137323128Y-95910142D01*
X137323128Y-95910142D02*
X137251700Y-95695856D01*
X137251700Y-95695856D02*
X137180271Y-95624428D01*
X137180271Y-95624428D02*
X136680271Y-95624428D01*
X136680271Y-95624428D02*
X136680271Y-95910142D01*
X137323128Y-94981571D02*
X135823128Y-94981571D01*
X135823128Y-94981571D02*
X137323128Y-94124428D01*
X137323128Y-94124428D02*
X135823128Y-94124428D01*
X137323128Y-93410142D02*
X135823128Y-93410142D01*
X135823128Y-93410142D02*
X135823128Y-93052999D01*
X135823128Y-93052999D02*
X135894557Y-92838713D01*
X135894557Y-92838713D02*
X136037414Y-92695856D01*
X136037414Y-92695856D02*
X136180271Y-92624427D01*
X136180271Y-92624427D02*
X136465985Y-92552999D01*
X136465985Y-92552999D02*
X136680271Y-92552999D01*
X136680271Y-92552999D02*
X136965985Y-92624427D01*
X136965985Y-92624427D02*
X137108842Y-92695856D01*
X137108842Y-92695856D02*
X137251700Y-92838713D01*
X137251700Y-92838713D02*
X137323128Y-93052999D01*
X137323128Y-93052999D02*
X137323128Y-93410142D01*
X140903128Y-96338713D02*
X142403128Y-95838713D01*
X142403128Y-95838713D02*
X140903128Y-95338713D01*
X142331700Y-94195857D02*
X142403128Y-94338714D01*
X142403128Y-94338714D02*
X142403128Y-94624428D01*
X142403128Y-94624428D02*
X142331700Y-94767285D01*
X142331700Y-94767285D02*
X142260271Y-94838714D01*
X142260271Y-94838714D02*
X142117414Y-94910142D01*
X142117414Y-94910142D02*
X141688842Y-94910142D01*
X141688842Y-94910142D02*
X141545985Y-94838714D01*
X141545985Y-94838714D02*
X141474557Y-94767285D01*
X141474557Y-94767285D02*
X141403128Y-94624428D01*
X141403128Y-94624428D02*
X141403128Y-94338714D01*
X141403128Y-94338714D02*
X141474557Y-94195857D01*
X142331700Y-92910143D02*
X142403128Y-93053000D01*
X142403128Y-93053000D02*
X142403128Y-93338714D01*
X142403128Y-93338714D02*
X142331700Y-93481571D01*
X142331700Y-93481571D02*
X142260271Y-93553000D01*
X142260271Y-93553000D02*
X142117414Y-93624428D01*
X142117414Y-93624428D02*
X141688842Y-93624428D01*
X141688842Y-93624428D02*
X141545985Y-93553000D01*
X141545985Y-93553000D02*
X141474557Y-93481571D01*
X141474557Y-93481571D02*
X141403128Y-93338714D01*
X141403128Y-93338714D02*
X141403128Y-93053000D01*
X141403128Y-93053000D02*
X141474557Y-92910143D01*
X136601713Y-114035128D02*
X136601713Y-112535128D01*
X136601713Y-112535128D02*
X137173142Y-112535128D01*
X137173142Y-112535128D02*
X137315999Y-112606557D01*
X137315999Y-112606557D02*
X137387428Y-112677985D01*
X137387428Y-112677985D02*
X137458856Y-112820842D01*
X137458856Y-112820842D02*
X137458856Y-113035128D01*
X137458856Y-113035128D02*
X137387428Y-113177985D01*
X137387428Y-113177985D02*
X137315999Y-113249414D01*
X137315999Y-113249414D02*
X137173142Y-113320842D01*
X137173142Y-113320842D02*
X136601713Y-113320842D01*
X138387428Y-112535128D02*
X138673142Y-112535128D01*
X138673142Y-112535128D02*
X138815999Y-112606557D01*
X138815999Y-112606557D02*
X138958856Y-112749414D01*
X138958856Y-112749414D02*
X139030285Y-113035128D01*
X139030285Y-113035128D02*
X139030285Y-113535128D01*
X139030285Y-113535128D02*
X138958856Y-113820842D01*
X138958856Y-113820842D02*
X138815999Y-113963700D01*
X138815999Y-113963700D02*
X138673142Y-114035128D01*
X138673142Y-114035128D02*
X138387428Y-114035128D01*
X138387428Y-114035128D02*
X138244571Y-113963700D01*
X138244571Y-113963700D02*
X138101713Y-113820842D01*
X138101713Y-113820842D02*
X138030285Y-113535128D01*
X138030285Y-113535128D02*
X138030285Y-113035128D01*
X138030285Y-113035128D02*
X138101713Y-112749414D01*
X138101713Y-112749414D02*
X138244571Y-112606557D01*
X138244571Y-112606557D02*
X138387428Y-112535128D01*
X139530285Y-112535128D02*
X139887428Y-114035128D01*
X139887428Y-114035128D02*
X140173142Y-112963700D01*
X140173142Y-112963700D02*
X140458857Y-114035128D01*
X140458857Y-114035128D02*
X140816000Y-112535128D01*
X141387428Y-113249414D02*
X141887428Y-113249414D01*
X142101714Y-114035128D02*
X141387428Y-114035128D01*
X141387428Y-114035128D02*
X141387428Y-112535128D01*
X141387428Y-112535128D02*
X142101714Y-112535128D01*
X143601714Y-114035128D02*
X143101714Y-113320842D01*
X142744571Y-114035128D02*
X142744571Y-112535128D01*
X142744571Y-112535128D02*
X143316000Y-112535128D01*
X143316000Y-112535128D02*
X143458857Y-112606557D01*
X143458857Y-112606557D02*
X143530286Y-112677985D01*
X143530286Y-112677985D02*
X143601714Y-112820842D01*
X143601714Y-112820842D02*
X143601714Y-113035128D01*
X143601714Y-113035128D02*
X143530286Y-113177985D01*
X143530286Y-113177985D02*
X143458857Y-113249414D01*
X143458857Y-113249414D02*
X143316000Y-113320842D01*
X143316000Y-113320842D02*
X142744571Y-113320842D01*
D11*
X134103215Y-100815071D02*
X134274643Y-100872214D01*
X134274643Y-100872214D02*
X134331786Y-100929357D01*
X134331786Y-100929357D02*
X134388929Y-101043642D01*
X134388929Y-101043642D02*
X134388929Y-101215071D01*
X134388929Y-101215071D02*
X134331786Y-101329357D01*
X134331786Y-101329357D02*
X134274643Y-101386500D01*
X134274643Y-101386500D02*
X134160358Y-101443642D01*
X134160358Y-101443642D02*
X133703215Y-101443642D01*
X133703215Y-101443642D02*
X133703215Y-100243642D01*
X133703215Y-100243642D02*
X134103215Y-100243642D01*
X134103215Y-100243642D02*
X134217501Y-100300785D01*
X134217501Y-100300785D02*
X134274643Y-100357928D01*
X134274643Y-100357928D02*
X134331786Y-100472214D01*
X134331786Y-100472214D02*
X134331786Y-100586500D01*
X134331786Y-100586500D02*
X134274643Y-100700785D01*
X134274643Y-100700785D02*
X134217501Y-100757928D01*
X134217501Y-100757928D02*
X134103215Y-100815071D01*
X134103215Y-100815071D02*
X133703215Y-100815071D01*
X135588929Y-101443642D02*
X135188929Y-100872214D01*
X134903215Y-101443642D02*
X134903215Y-100243642D01*
X134903215Y-100243642D02*
X135360358Y-100243642D01*
X135360358Y-100243642D02*
X135474643Y-100300785D01*
X135474643Y-100300785D02*
X135531786Y-100357928D01*
X135531786Y-100357928D02*
X135588929Y-100472214D01*
X135588929Y-100472214D02*
X135588929Y-100643642D01*
X135588929Y-100643642D02*
X135531786Y-100757928D01*
X135531786Y-100757928D02*
X135474643Y-100815071D01*
X135474643Y-100815071D02*
X135360358Y-100872214D01*
X135360358Y-100872214D02*
X134903215Y-100872214D01*
X136103215Y-101443642D02*
X136103215Y-100243642D01*
X136674644Y-101443642D02*
X136674644Y-100243642D01*
X136674644Y-100243642D02*
X136960358Y-100243642D01*
X136960358Y-100243642D02*
X137131787Y-100300785D01*
X137131787Y-100300785D02*
X137246072Y-100415071D01*
X137246072Y-100415071D02*
X137303215Y-100529357D01*
X137303215Y-100529357D02*
X137360358Y-100757928D01*
X137360358Y-100757928D02*
X137360358Y-100929357D01*
X137360358Y-100929357D02*
X137303215Y-101157928D01*
X137303215Y-101157928D02*
X137246072Y-101272214D01*
X137246072Y-101272214D02*
X137131787Y-101386500D01*
X137131787Y-101386500D02*
X136960358Y-101443642D01*
X136960358Y-101443642D02*
X136674644Y-101443642D01*
X138503215Y-100300785D02*
X138388930Y-100243642D01*
X138388930Y-100243642D02*
X138217501Y-100243642D01*
X138217501Y-100243642D02*
X138046072Y-100300785D01*
X138046072Y-100300785D02*
X137931787Y-100415071D01*
X137931787Y-100415071D02*
X137874644Y-100529357D01*
X137874644Y-100529357D02*
X137817501Y-100757928D01*
X137817501Y-100757928D02*
X137817501Y-100929357D01*
X137817501Y-100929357D02*
X137874644Y-101157928D01*
X137874644Y-101157928D02*
X137931787Y-101272214D01*
X137931787Y-101272214D02*
X138046072Y-101386500D01*
X138046072Y-101386500D02*
X138217501Y-101443642D01*
X138217501Y-101443642D02*
X138331787Y-101443642D01*
X138331787Y-101443642D02*
X138503215Y-101386500D01*
X138503215Y-101386500D02*
X138560358Y-101329357D01*
X138560358Y-101329357D02*
X138560358Y-100929357D01*
X138560358Y-100929357D02*
X138331787Y-100929357D01*
X139074644Y-100815071D02*
X139474644Y-100815071D01*
X139646072Y-101443642D02*
X139074644Y-101443642D01*
X139074644Y-101443642D02*
X139074644Y-100243642D01*
X139074644Y-100243642D02*
X139646072Y-100243642D01*
X140103215Y-101100785D02*
X140674644Y-101100785D01*
X139988929Y-101443642D02*
X140388929Y-100243642D01*
X140388929Y-100243642D02*
X140788929Y-101443642D01*
X141188929Y-101443642D02*
X141188929Y-100243642D01*
X141188929Y-100243642D02*
X141474643Y-100243642D01*
X141474643Y-100243642D02*
X141646072Y-100300785D01*
X141646072Y-100300785D02*
X141760357Y-100415071D01*
X141760357Y-100415071D02*
X141817500Y-100529357D01*
X141817500Y-100529357D02*
X141874643Y-100757928D01*
X141874643Y-100757928D02*
X141874643Y-100929357D01*
X141874643Y-100929357D02*
X141817500Y-101157928D01*
X141817500Y-101157928D02*
X141760357Y-101272214D01*
X141760357Y-101272214D02*
X141646072Y-101386500D01*
X141646072Y-101386500D02*
X141474643Y-101443642D01*
X141474643Y-101443642D02*
X141188929Y-101443642D01*
X143074643Y-101329357D02*
X143017500Y-101386500D01*
X143017500Y-101386500D02*
X142846072Y-101443642D01*
X142846072Y-101443642D02*
X142731786Y-101443642D01*
X142731786Y-101443642D02*
X142560357Y-101386500D01*
X142560357Y-101386500D02*
X142446072Y-101272214D01*
X142446072Y-101272214D02*
X142388929Y-101157928D01*
X142388929Y-101157928D02*
X142331786Y-100929357D01*
X142331786Y-100929357D02*
X142331786Y-100757928D01*
X142331786Y-100757928D02*
X142388929Y-100529357D01*
X142388929Y-100529357D02*
X142446072Y-100415071D01*
X142446072Y-100415071D02*
X142560357Y-100300785D01*
X142560357Y-100300785D02*
X142731786Y-100243642D01*
X142731786Y-100243642D02*
X142846072Y-100243642D01*
X142846072Y-100243642D02*
X143017500Y-100300785D01*
X143017500Y-100300785D02*
X143074643Y-100357928D01*
X143817500Y-100243642D02*
X143931786Y-100243642D01*
X143931786Y-100243642D02*
X144046072Y-100300785D01*
X144046072Y-100300785D02*
X144103215Y-100357928D01*
X144103215Y-100357928D02*
X144160357Y-100472214D01*
X144160357Y-100472214D02*
X144217500Y-100700785D01*
X144217500Y-100700785D02*
X144217500Y-100986500D01*
X144217500Y-100986500D02*
X144160357Y-101215071D01*
X144160357Y-101215071D02*
X144103215Y-101329357D01*
X144103215Y-101329357D02*
X144046072Y-101386500D01*
X144046072Y-101386500D02*
X143931786Y-101443642D01*
X143931786Y-101443642D02*
X143817500Y-101443642D01*
X143817500Y-101443642D02*
X143703215Y-101386500D01*
X143703215Y-101386500D02*
X143646072Y-101329357D01*
X143646072Y-101329357D02*
X143588929Y-101215071D01*
X143588929Y-101215071D02*
X143531786Y-100986500D01*
X143531786Y-100986500D02*
X143531786Y-100700785D01*
X143531786Y-100700785D02*
X143588929Y-100472214D01*
X143588929Y-100472214D02*
X143646072Y-100357928D01*
X143646072Y-100357928D02*
X143703215Y-100300785D01*
X143703215Y-100300785D02*
X143817500Y-100243642D01*
X145360357Y-101443642D02*
X144674643Y-101443642D01*
X145017500Y-101443642D02*
X145017500Y-100243642D01*
X145017500Y-100243642D02*
X144903214Y-100415071D01*
X144903214Y-100415071D02*
X144788929Y-100529357D01*
X144788929Y-100529357D02*
X144674643Y-100586500D01*
X145817500Y-101100785D02*
X146388929Y-101100785D01*
X145703214Y-101443642D02*
X146103214Y-100243642D01*
X146103214Y-100243642D02*
X146503214Y-101443642D01*
D12*
X133823858Y-103262385D02*
X134395287Y-103262385D01*
X133709572Y-103605242D02*
X134109572Y-102405242D01*
X134109572Y-102405242D02*
X134509572Y-103605242D01*
X134909572Y-102805242D02*
X134909572Y-103605242D01*
X134909572Y-102919528D02*
X134966715Y-102862385D01*
X134966715Y-102862385D02*
X135081000Y-102805242D01*
X135081000Y-102805242D02*
X135252429Y-102805242D01*
X135252429Y-102805242D02*
X135366715Y-102862385D01*
X135366715Y-102862385D02*
X135423858Y-102976671D01*
X135423858Y-102976671D02*
X135423858Y-103605242D01*
X136509572Y-103605242D02*
X136509572Y-102976671D01*
X136509572Y-102976671D02*
X136452429Y-102862385D01*
X136452429Y-102862385D02*
X136338143Y-102805242D01*
X136338143Y-102805242D02*
X136109572Y-102805242D01*
X136109572Y-102805242D02*
X135995286Y-102862385D01*
X136509572Y-103548100D02*
X136395286Y-103605242D01*
X136395286Y-103605242D02*
X136109572Y-103605242D01*
X136109572Y-103605242D02*
X135995286Y-103548100D01*
X135995286Y-103548100D02*
X135938143Y-103433814D01*
X135938143Y-103433814D02*
X135938143Y-103319528D01*
X135938143Y-103319528D02*
X135995286Y-103205242D01*
X135995286Y-103205242D02*
X136109572Y-103148100D01*
X136109572Y-103148100D02*
X136395286Y-103148100D01*
X136395286Y-103148100D02*
X136509572Y-103090957D01*
X137252428Y-103605242D02*
X137138143Y-103548100D01*
X137138143Y-103548100D02*
X137081000Y-103433814D01*
X137081000Y-103433814D02*
X137081000Y-102405242D01*
X137880999Y-103605242D02*
X137766714Y-103548100D01*
X137766714Y-103548100D02*
X137709571Y-103490957D01*
X137709571Y-103490957D02*
X137652428Y-103376671D01*
X137652428Y-103376671D02*
X137652428Y-103033814D01*
X137652428Y-103033814D02*
X137709571Y-102919528D01*
X137709571Y-102919528D02*
X137766714Y-102862385D01*
X137766714Y-102862385D02*
X137880999Y-102805242D01*
X137880999Y-102805242D02*
X138052428Y-102805242D01*
X138052428Y-102805242D02*
X138166714Y-102862385D01*
X138166714Y-102862385D02*
X138223857Y-102919528D01*
X138223857Y-102919528D02*
X138280999Y-103033814D01*
X138280999Y-103033814D02*
X138280999Y-103376671D01*
X138280999Y-103376671D02*
X138223857Y-103490957D01*
X138223857Y-103490957D02*
X138166714Y-103548100D01*
X138166714Y-103548100D02*
X138052428Y-103605242D01*
X138052428Y-103605242D02*
X137880999Y-103605242D01*
X139309571Y-102805242D02*
X139309571Y-103776671D01*
X139309571Y-103776671D02*
X139252428Y-103890957D01*
X139252428Y-103890957D02*
X139195285Y-103948100D01*
X139195285Y-103948100D02*
X139080999Y-104005242D01*
X139080999Y-104005242D02*
X138909571Y-104005242D01*
X138909571Y-104005242D02*
X138795285Y-103948100D01*
X139309571Y-103548100D02*
X139195285Y-103605242D01*
X139195285Y-103605242D02*
X138966713Y-103605242D01*
X138966713Y-103605242D02*
X138852428Y-103548100D01*
X138852428Y-103548100D02*
X138795285Y-103490957D01*
X138795285Y-103490957D02*
X138738142Y-103376671D01*
X138738142Y-103376671D02*
X138738142Y-103033814D01*
X138738142Y-103033814D02*
X138795285Y-102919528D01*
X138795285Y-102919528D02*
X138852428Y-102862385D01*
X138852428Y-102862385D02*
X138966713Y-102805242D01*
X138966713Y-102805242D02*
X139195285Y-102805242D01*
X139195285Y-102805242D02*
X139309571Y-102862385D01*
X140166713Y-104005242D02*
X140166713Y-102290957D01*
X141023856Y-103605242D02*
X141023856Y-102405242D01*
X141023856Y-102405242D02*
X141309570Y-102405242D01*
X141309570Y-102405242D02*
X141480999Y-102462385D01*
X141480999Y-102462385D02*
X141595284Y-102576671D01*
X141595284Y-102576671D02*
X141652427Y-102690957D01*
X141652427Y-102690957D02*
X141709570Y-102919528D01*
X141709570Y-102919528D02*
X141709570Y-103090957D01*
X141709570Y-103090957D02*
X141652427Y-103319528D01*
X141652427Y-103319528D02*
X141595284Y-103433814D01*
X141595284Y-103433814D02*
X141480999Y-103548100D01*
X141480999Y-103548100D02*
X141309570Y-103605242D01*
X141309570Y-103605242D02*
X141023856Y-103605242D01*
X142223856Y-103605242D02*
X142223856Y-102805242D01*
X142223856Y-102405242D02*
X142166713Y-102462385D01*
X142166713Y-102462385D02*
X142223856Y-102519528D01*
X142223856Y-102519528D02*
X142280999Y-102462385D01*
X142280999Y-102462385D02*
X142223856Y-102405242D01*
X142223856Y-102405242D02*
X142223856Y-102519528D01*
X143309571Y-102805242D02*
X143309571Y-103776671D01*
X143309571Y-103776671D02*
X143252428Y-103890957D01*
X143252428Y-103890957D02*
X143195285Y-103948100D01*
X143195285Y-103948100D02*
X143080999Y-104005242D01*
X143080999Y-104005242D02*
X142909571Y-104005242D01*
X142909571Y-104005242D02*
X142795285Y-103948100D01*
X143309571Y-103548100D02*
X143195285Y-103605242D01*
X143195285Y-103605242D02*
X142966713Y-103605242D01*
X142966713Y-103605242D02*
X142852428Y-103548100D01*
X142852428Y-103548100D02*
X142795285Y-103490957D01*
X142795285Y-103490957D02*
X142738142Y-103376671D01*
X142738142Y-103376671D02*
X142738142Y-103033814D01*
X142738142Y-103033814D02*
X142795285Y-102919528D01*
X142795285Y-102919528D02*
X142852428Y-102862385D01*
X142852428Y-102862385D02*
X142966713Y-102805242D01*
X142966713Y-102805242D02*
X143195285Y-102805242D01*
X143195285Y-102805242D02*
X143309571Y-102862385D01*
X143880999Y-103605242D02*
X143880999Y-102805242D01*
X143880999Y-102405242D02*
X143823856Y-102462385D01*
X143823856Y-102462385D02*
X143880999Y-102519528D01*
X143880999Y-102519528D02*
X143938142Y-102462385D01*
X143938142Y-102462385D02*
X143880999Y-102405242D01*
X143880999Y-102405242D02*
X143880999Y-102519528D01*
X144280999Y-102805242D02*
X144738142Y-102805242D01*
X144452428Y-102405242D02*
X144452428Y-103433814D01*
X144452428Y-103433814D02*
X144509571Y-103548100D01*
X144509571Y-103548100D02*
X144623856Y-103605242D01*
X144623856Y-103605242D02*
X144738142Y-103605242D01*
X145652428Y-103605242D02*
X145652428Y-102976671D01*
X145652428Y-102976671D02*
X145595285Y-102862385D01*
X145595285Y-102862385D02*
X145480999Y-102805242D01*
X145480999Y-102805242D02*
X145252428Y-102805242D01*
X145252428Y-102805242D02*
X145138142Y-102862385D01*
X145652428Y-103548100D02*
X145538142Y-103605242D01*
X145538142Y-103605242D02*
X145252428Y-103605242D01*
X145252428Y-103605242D02*
X145138142Y-103548100D01*
X145138142Y-103548100D02*
X145080999Y-103433814D01*
X145080999Y-103433814D02*
X145080999Y-103319528D01*
X145080999Y-103319528D02*
X145138142Y-103205242D01*
X145138142Y-103205242D02*
X145252428Y-103148100D01*
X145252428Y-103148100D02*
X145538142Y-103148100D01*
X145538142Y-103148100D02*
X145652428Y-103090957D01*
X146395284Y-103605242D02*
X146280999Y-103548100D01*
X146280999Y-103548100D02*
X146223856Y-103433814D01*
X146223856Y-103433814D02*
X146223856Y-102405242D01*
D13*
X120964071Y-104056328D02*
X120964071Y-102556328D01*
X120964071Y-102556328D02*
X121464071Y-103627757D01*
X121464071Y-103627757D02*
X121964071Y-102556328D01*
X121964071Y-102556328D02*
X121964071Y-104056328D01*
X123392643Y-104056328D02*
X122678357Y-104056328D01*
X122678357Y-104056328D02*
X122678357Y-102556328D01*
X123821215Y-103627757D02*
X124535501Y-103627757D01*
X123678358Y-104056328D02*
X124178358Y-102556328D01*
X124178358Y-102556328D02*
X124678358Y-104056328D01*
X125678357Y-103270614D02*
X125892643Y-103342042D01*
X125892643Y-103342042D02*
X125964072Y-103413471D01*
X125964072Y-103413471D02*
X126035500Y-103556328D01*
X126035500Y-103556328D02*
X126035500Y-103770614D01*
X126035500Y-103770614D02*
X125964072Y-103913471D01*
X125964072Y-103913471D02*
X125892643Y-103984900D01*
X125892643Y-103984900D02*
X125749786Y-104056328D01*
X125749786Y-104056328D02*
X125178357Y-104056328D01*
X125178357Y-104056328D02*
X125178357Y-102556328D01*
X125178357Y-102556328D02*
X125678357Y-102556328D01*
X125678357Y-102556328D02*
X125821215Y-102627757D01*
X125821215Y-102627757D02*
X125892643Y-102699185D01*
X125892643Y-102699185D02*
X125964072Y-102842042D01*
X125964072Y-102842042D02*
X125964072Y-102984900D01*
X125964072Y-102984900D02*
X125892643Y-103127757D01*
X125892643Y-103127757D02*
X125821215Y-103199185D01*
X125821215Y-103199185D02*
X125678357Y-103270614D01*
X125678357Y-103270614D02*
X125178357Y-103270614D01*
X126678357Y-103913471D02*
X126749786Y-103984900D01*
X126749786Y-103984900D02*
X126678357Y-104056328D01*
X126678357Y-104056328D02*
X126606929Y-103984900D01*
X126606929Y-103984900D02*
X126678357Y-103913471D01*
X126678357Y-103913471D02*
X126678357Y-104056328D01*
X128249786Y-103913471D02*
X128178358Y-103984900D01*
X128178358Y-103984900D02*
X127964072Y-104056328D01*
X127964072Y-104056328D02*
X127821215Y-104056328D01*
X127821215Y-104056328D02*
X127606929Y-103984900D01*
X127606929Y-103984900D02*
X127464072Y-103842042D01*
X127464072Y-103842042D02*
X127392643Y-103699185D01*
X127392643Y-103699185D02*
X127321215Y-103413471D01*
X127321215Y-103413471D02*
X127321215Y-103199185D01*
X127321215Y-103199185D02*
X127392643Y-102913471D01*
X127392643Y-102913471D02*
X127464072Y-102770614D01*
X127464072Y-102770614D02*
X127606929Y-102627757D01*
X127606929Y-102627757D02*
X127821215Y-102556328D01*
X127821215Y-102556328D02*
X127964072Y-102556328D01*
X127964072Y-102556328D02*
X128178358Y-102627757D01*
X128178358Y-102627757D02*
X128249786Y-102699185D01*
X128749786Y-102556328D02*
X129749786Y-102556328D01*
X129749786Y-102556328D02*
X128749786Y-104056328D01*
X128749786Y-104056328D02*
X129749786Y-104056328D01*
D10*
X131303143Y-104859557D02*
X131160286Y-104788128D01*
X131160286Y-104788128D02*
X130946000Y-104788128D01*
X130946000Y-104788128D02*
X130731714Y-104859557D01*
X130731714Y-104859557D02*
X130588857Y-105002414D01*
X130588857Y-105002414D02*
X130517428Y-105145271D01*
X130517428Y-105145271D02*
X130446000Y-105430985D01*
X130446000Y-105430985D02*
X130446000Y-105645271D01*
X130446000Y-105645271D02*
X130517428Y-105930985D01*
X130517428Y-105930985D02*
X130588857Y-106073842D01*
X130588857Y-106073842D02*
X130731714Y-106216700D01*
X130731714Y-106216700D02*
X130946000Y-106288128D01*
X130946000Y-106288128D02*
X131088857Y-106288128D01*
X131088857Y-106288128D02*
X131303143Y-106216700D01*
X131303143Y-106216700D02*
X131374571Y-106145271D01*
X131374571Y-106145271D02*
X131374571Y-105645271D01*
X131374571Y-105645271D02*
X131088857Y-105645271D01*
X132017428Y-106288128D02*
X132017428Y-104788128D01*
X132017428Y-104788128D02*
X132874571Y-106288128D01*
X132874571Y-106288128D02*
X132874571Y-104788128D01*
X133588857Y-106288128D02*
X133588857Y-104788128D01*
X133588857Y-104788128D02*
X133946000Y-104788128D01*
X133946000Y-104788128D02*
X134160286Y-104859557D01*
X134160286Y-104859557D02*
X134303143Y-105002414D01*
X134303143Y-105002414D02*
X134374572Y-105145271D01*
X134374572Y-105145271D02*
X134446000Y-105430985D01*
X134446000Y-105430985D02*
X134446000Y-105645271D01*
X134446000Y-105645271D02*
X134374572Y-105930985D01*
X134374572Y-105930985D02*
X134303143Y-106073842D01*
X134303143Y-106073842D02*
X134160286Y-106216700D01*
X134160286Y-106216700D02*
X133946000Y-106288128D01*
X133946000Y-106288128D02*
X133588857Y-106288128D01*
D13*
X123101357Y-104927328D02*
X123158500Y-104870185D01*
X123158500Y-104870185D02*
X123272786Y-104813042D01*
X123272786Y-104813042D02*
X123558500Y-104813042D01*
X123558500Y-104813042D02*
X123672786Y-104870185D01*
X123672786Y-104870185D02*
X123729928Y-104927328D01*
X123729928Y-104927328D02*
X123787071Y-105041614D01*
X123787071Y-105041614D02*
X123787071Y-105155900D01*
X123787071Y-105155900D02*
X123729928Y-105327328D01*
X123729928Y-105327328D02*
X123044214Y-106013042D01*
X123044214Y-106013042D02*
X123787071Y-106013042D01*
X124529928Y-104813042D02*
X124644214Y-104813042D01*
X124644214Y-104813042D02*
X124758500Y-104870185D01*
X124758500Y-104870185D02*
X124815643Y-104927328D01*
X124815643Y-104927328D02*
X124872785Y-105041614D01*
X124872785Y-105041614D02*
X124929928Y-105270185D01*
X124929928Y-105270185D02*
X124929928Y-105555900D01*
X124929928Y-105555900D02*
X124872785Y-105784471D01*
X124872785Y-105784471D02*
X124815643Y-105898757D01*
X124815643Y-105898757D02*
X124758500Y-105955900D01*
X124758500Y-105955900D02*
X124644214Y-106013042D01*
X124644214Y-106013042D02*
X124529928Y-106013042D01*
X124529928Y-106013042D02*
X124415643Y-105955900D01*
X124415643Y-105955900D02*
X124358500Y-105898757D01*
X124358500Y-105898757D02*
X124301357Y-105784471D01*
X124301357Y-105784471D02*
X124244214Y-105555900D01*
X124244214Y-105555900D02*
X124244214Y-105270185D01*
X124244214Y-105270185D02*
X124301357Y-105041614D01*
X124301357Y-105041614D02*
X124358500Y-104927328D01*
X124358500Y-104927328D02*
X124415643Y-104870185D01*
X124415643Y-104870185D02*
X124529928Y-104813042D01*
X126072785Y-106013042D02*
X125387071Y-106013042D01*
X125729928Y-106013042D02*
X125729928Y-104813042D01*
X125729928Y-104813042D02*
X125615642Y-104984471D01*
X125615642Y-104984471D02*
X125501357Y-105098757D01*
X125501357Y-105098757D02*
X125387071Y-105155900D01*
X127101357Y-104813042D02*
X126872785Y-104813042D01*
X126872785Y-104813042D02*
X126758499Y-104870185D01*
X126758499Y-104870185D02*
X126701357Y-104927328D01*
X126701357Y-104927328D02*
X126587071Y-105098757D01*
X126587071Y-105098757D02*
X126529928Y-105327328D01*
X126529928Y-105327328D02*
X126529928Y-105784471D01*
X126529928Y-105784471D02*
X126587071Y-105898757D01*
X126587071Y-105898757D02*
X126644214Y-105955900D01*
X126644214Y-105955900D02*
X126758499Y-106013042D01*
X126758499Y-106013042D02*
X126987071Y-106013042D01*
X126987071Y-106013042D02*
X127101357Y-105955900D01*
X127101357Y-105955900D02*
X127158499Y-105898757D01*
X127158499Y-105898757D02*
X127215642Y-105784471D01*
X127215642Y-105784471D02*
X127215642Y-105498757D01*
X127215642Y-105498757D02*
X127158499Y-105384471D01*
X127158499Y-105384471D02*
X127101357Y-105327328D01*
X127101357Y-105327328D02*
X126987071Y-105270185D01*
X126987071Y-105270185D02*
X126758499Y-105270185D01*
X126758499Y-105270185D02*
X126644214Y-105327328D01*
X126644214Y-105327328D02*
X126587071Y-105384471D01*
X126587071Y-105384471D02*
X126529928Y-105498757D01*
X152394000Y-105505042D02*
X152394000Y-104305042D01*
X153079714Y-105505042D02*
X152565428Y-104819328D01*
X153079714Y-104305042D02*
X152394000Y-104990757D01*
X153536857Y-105162185D02*
X154108286Y-105162185D01*
X153422571Y-105505042D02*
X153822571Y-104305042D01*
X153822571Y-104305042D02*
X154222571Y-105505042D01*
X154622571Y-105505042D02*
X154622571Y-104305042D01*
X155308285Y-105505042D02*
X154793999Y-104819328D01*
X155308285Y-104305042D02*
X154622571Y-104990757D01*
X156393999Y-105505042D02*
X155822571Y-105505042D01*
X155822571Y-105505042D02*
X155822571Y-104305042D01*
X156794000Y-105505042D02*
X156794000Y-104305042D01*
X157365429Y-105505042D02*
X157365429Y-104305042D01*
X158051143Y-105505042D02*
X157536857Y-104819328D01*
X158051143Y-104305042D02*
X157365429Y-104990757D01*
D10*
%TO.C,J1*%
X145662286Y-107455128D02*
X146590858Y-107455128D01*
X146590858Y-107455128D02*
X146090858Y-108026557D01*
X146090858Y-108026557D02*
X146305143Y-108026557D01*
X146305143Y-108026557D02*
X146448001Y-108097985D01*
X146448001Y-108097985D02*
X146519429Y-108169414D01*
X146519429Y-108169414D02*
X146590858Y-108312271D01*
X146590858Y-108312271D02*
X146590858Y-108669414D01*
X146590858Y-108669414D02*
X146519429Y-108812271D01*
X146519429Y-108812271D02*
X146448001Y-108883700D01*
X146448001Y-108883700D02*
X146305143Y-108955128D01*
X146305143Y-108955128D02*
X145876572Y-108955128D01*
X145876572Y-108955128D02*
X145733715Y-108883700D01*
X145733715Y-108883700D02*
X145662286Y-108812271D01*
X148376572Y-108383700D02*
X147233714Y-108383700D01*
X147805143Y-108740842D02*
X147876572Y-108812271D01*
X147876572Y-108812271D02*
X147805143Y-108883700D01*
X147805143Y-108883700D02*
X147733714Y-108812271D01*
X147733714Y-108812271D02*
X147805143Y-108740842D01*
X147805143Y-108740842D02*
X147805143Y-108883700D01*
X147805143Y-107883700D02*
X147876572Y-107955128D01*
X147876572Y-107955128D02*
X147805143Y-108026557D01*
X147805143Y-108026557D02*
X147733714Y-107955128D01*
X147733714Y-107955128D02*
X147805143Y-107883700D01*
X147805143Y-107883700D02*
X147805143Y-108026557D01*
X149805143Y-107455128D02*
X149090857Y-107455128D01*
X149090857Y-107455128D02*
X149019429Y-108169414D01*
X149019429Y-108169414D02*
X149090857Y-108097985D01*
X149090857Y-108097985D02*
X149233715Y-108026557D01*
X149233715Y-108026557D02*
X149590857Y-108026557D01*
X149590857Y-108026557D02*
X149733715Y-108097985D01*
X149733715Y-108097985D02*
X149805143Y-108169414D01*
X149805143Y-108169414D02*
X149876572Y-108312271D01*
X149876572Y-108312271D02*
X149876572Y-108669414D01*
X149876572Y-108669414D02*
X149805143Y-108812271D01*
X149805143Y-108812271D02*
X149733715Y-108883700D01*
X149733715Y-108883700D02*
X149590857Y-108955128D01*
X149590857Y-108955128D02*
X149233715Y-108955128D01*
X149233715Y-108955128D02*
X149090857Y-108883700D01*
X149090857Y-108883700D02*
X149019429Y-108812271D01*
X150305143Y-107455128D02*
X150805143Y-108955128D01*
X150805143Y-108955128D02*
X151305143Y-107455128D01*
%TO.C,J2*%
X149293572Y-89095557D02*
X150007858Y-89095557D01*
X149150715Y-89524128D02*
X149650715Y-88024128D01*
X149650715Y-88024128D02*
X150150715Y-89524128D01*
X151507857Y-89381271D02*
X151436429Y-89452700D01*
X151436429Y-89452700D02*
X151222143Y-89524128D01*
X151222143Y-89524128D02*
X151079286Y-89524128D01*
X151079286Y-89524128D02*
X150865000Y-89452700D01*
X150865000Y-89452700D02*
X150722143Y-89309842D01*
X150722143Y-89309842D02*
X150650714Y-89166985D01*
X150650714Y-89166985D02*
X150579286Y-88881271D01*
X150579286Y-88881271D02*
X150579286Y-88666985D01*
X150579286Y-88666985D02*
X150650714Y-88381271D01*
X150650714Y-88381271D02*
X150722143Y-88238414D01*
X150722143Y-88238414D02*
X150865000Y-88095557D01*
X150865000Y-88095557D02*
X151079286Y-88024128D01*
X151079286Y-88024128D02*
X151222143Y-88024128D01*
X151222143Y-88024128D02*
X151436429Y-88095557D01*
X151436429Y-88095557D02*
X151507857Y-88166985D01*
X152007857Y-88024128D02*
X153007857Y-89524128D01*
X153007857Y-88024128D02*
X152007857Y-89524128D01*
%TO.C,J3*%
X148615000Y-86539700D02*
X148686428Y-86468271D01*
X148686428Y-86468271D02*
X148829285Y-86396842D01*
X148829285Y-86396842D02*
X149115000Y-86539700D01*
X149115000Y-86539700D02*
X149257857Y-86468271D01*
X149257857Y-86468271D02*
X149329285Y-86396842D01*
X149829286Y-86682557D02*
X150543572Y-86682557D01*
X149686429Y-87111128D02*
X150186429Y-85611128D01*
X150186429Y-85611128D02*
X150686429Y-87111128D01*
X152043571Y-86968271D02*
X151972143Y-87039700D01*
X151972143Y-87039700D02*
X151757857Y-87111128D01*
X151757857Y-87111128D02*
X151615000Y-87111128D01*
X151615000Y-87111128D02*
X151400714Y-87039700D01*
X151400714Y-87039700D02*
X151257857Y-86896842D01*
X151257857Y-86896842D02*
X151186428Y-86753985D01*
X151186428Y-86753985D02*
X151115000Y-86468271D01*
X151115000Y-86468271D02*
X151115000Y-86253985D01*
X151115000Y-86253985D02*
X151186428Y-85968271D01*
X151186428Y-85968271D02*
X151257857Y-85825414D01*
X151257857Y-85825414D02*
X151400714Y-85682557D01*
X151400714Y-85682557D02*
X151615000Y-85611128D01*
X151615000Y-85611128D02*
X151757857Y-85611128D01*
X151757857Y-85611128D02*
X151972143Y-85682557D01*
X151972143Y-85682557D02*
X152043571Y-85753985D01*
X152543571Y-85611128D02*
X153543571Y-87111128D01*
X153543571Y-85611128D02*
X152543571Y-87111128D01*
%TO.C,J4*%
X129416557Y-82073356D02*
X129416557Y-81359071D01*
X129845128Y-82216213D02*
X128345128Y-81716213D01*
X128345128Y-81716213D02*
X129845128Y-81216213D01*
X129845128Y-80716214D02*
X128345128Y-80716214D01*
X129845128Y-80001928D02*
X128345128Y-80001928D01*
X128345128Y-80001928D02*
X129845128Y-79144785D01*
X129845128Y-79144785D02*
X128345128Y-79144785D01*
X129845128Y-77644784D02*
X129845128Y-78501927D01*
X129845128Y-78073356D02*
X128345128Y-78073356D01*
X128345128Y-78073356D02*
X128559414Y-78216213D01*
X128559414Y-78216213D02*
X128702271Y-78359070D01*
X128702271Y-78359070D02*
X128773700Y-78501927D01*
X129273700Y-77001928D02*
X129273700Y-75859071D01*
X129845128Y-76430499D02*
X128702271Y-76430499D01*
%TO.C,J5*%
X132033643Y-75633557D02*
X132747929Y-75633557D01*
X131890786Y-76062128D02*
X132390786Y-74562128D01*
X132390786Y-74562128D02*
X132890786Y-76062128D01*
X133390785Y-76062128D02*
X133390785Y-74562128D01*
X134105071Y-76062128D02*
X134105071Y-74562128D01*
X134105071Y-74562128D02*
X134962214Y-76062128D01*
X134962214Y-76062128D02*
X134962214Y-74562128D01*
X136462215Y-76062128D02*
X135605072Y-76062128D01*
X136033643Y-76062128D02*
X136033643Y-74562128D01*
X136033643Y-74562128D02*
X135890786Y-74776414D01*
X135890786Y-74776414D02*
X135747929Y-74919271D01*
X135747929Y-74919271D02*
X135605072Y-74990700D01*
X137105071Y-75490700D02*
X138247929Y-75490700D01*
%TO.C,J6*%
X136958057Y-88043856D02*
X136958057Y-87329571D01*
X137386628Y-88186713D02*
X135886628Y-87686713D01*
X135886628Y-87686713D02*
X137386628Y-87186713D01*
X137386628Y-86686714D02*
X135886628Y-86686714D01*
X137386628Y-85972428D02*
X135886628Y-85972428D01*
X135886628Y-85972428D02*
X137386628Y-85115285D01*
X137386628Y-85115285D02*
X135886628Y-85115285D01*
X136029485Y-84472427D02*
X135958057Y-84400999D01*
X135958057Y-84400999D02*
X135886628Y-84258142D01*
X135886628Y-84258142D02*
X135886628Y-83900999D01*
X135886628Y-83900999D02*
X135958057Y-83758142D01*
X135958057Y-83758142D02*
X136029485Y-83686713D01*
X136029485Y-83686713D02*
X136172342Y-83615284D01*
X136172342Y-83615284D02*
X136315200Y-83615284D01*
X136315200Y-83615284D02*
X136529485Y-83686713D01*
X136529485Y-83686713D02*
X137386628Y-84543856D01*
X137386628Y-84543856D02*
X137386628Y-83615284D01*
X136815200Y-82972428D02*
X136815200Y-81829571D01*
X137386628Y-82400999D02*
X136243771Y-82400999D01*
%TO.C,J7*%
X139371057Y-88043856D02*
X139371057Y-87329571D01*
X139799628Y-88186713D02*
X138299628Y-87686713D01*
X138299628Y-87686713D02*
X139799628Y-87186713D01*
X139799628Y-86686714D02*
X138299628Y-86686714D01*
X139799628Y-85972428D02*
X138299628Y-85972428D01*
X138299628Y-85972428D02*
X139799628Y-85115285D01*
X139799628Y-85115285D02*
X138299628Y-85115285D01*
X138442485Y-84472427D02*
X138371057Y-84400999D01*
X138371057Y-84400999D02*
X138299628Y-84258142D01*
X138299628Y-84258142D02*
X138299628Y-83900999D01*
X138299628Y-83900999D02*
X138371057Y-83758142D01*
X138371057Y-83758142D02*
X138442485Y-83686713D01*
X138442485Y-83686713D02*
X138585342Y-83615284D01*
X138585342Y-83615284D02*
X138728200Y-83615284D01*
X138728200Y-83615284D02*
X138942485Y-83686713D01*
X138942485Y-83686713D02*
X139799628Y-84543856D01*
X139799628Y-84543856D02*
X139799628Y-83615284D01*
X139228200Y-82972428D02*
X139228200Y-81829571D01*
%TO.C,J8*%
X147561628Y-88590071D02*
X146847342Y-89090071D01*
X147561628Y-89447214D02*
X146061628Y-89447214D01*
X146061628Y-89447214D02*
X146061628Y-88875785D01*
X146061628Y-88875785D02*
X146133057Y-88732928D01*
X146133057Y-88732928D02*
X146204485Y-88661499D01*
X146204485Y-88661499D02*
X146347342Y-88590071D01*
X146347342Y-88590071D02*
X146561628Y-88590071D01*
X146561628Y-88590071D02*
X146704485Y-88661499D01*
X146704485Y-88661499D02*
X146775914Y-88732928D01*
X146775914Y-88732928D02*
X146847342Y-88875785D01*
X146847342Y-88875785D02*
X146847342Y-89447214D01*
X146775914Y-87947214D02*
X146775914Y-87447214D01*
X147561628Y-87232928D02*
X147561628Y-87947214D01*
X147561628Y-87947214D02*
X146061628Y-87947214D01*
X146061628Y-87947214D02*
X146061628Y-87232928D01*
X146775914Y-86090071D02*
X146775914Y-86590071D01*
X147561628Y-86590071D02*
X146061628Y-86590071D01*
X146061628Y-86590071D02*
X146061628Y-85875785D01*
X147561628Y-85304357D02*
X146061628Y-85304357D01*
X147561628Y-84590071D02*
X146061628Y-84590071D01*
X146061628Y-84590071D02*
X147561628Y-83732928D01*
X147561628Y-83732928D02*
X146061628Y-83732928D01*
X146990200Y-83018642D02*
X146990200Y-81875785D01*
%TO.C,J9*%
X142339628Y-88718571D02*
X141625342Y-89218571D01*
X142339628Y-89575714D02*
X140839628Y-89575714D01*
X140839628Y-89575714D02*
X140839628Y-89004285D01*
X140839628Y-89004285D02*
X140911057Y-88861428D01*
X140911057Y-88861428D02*
X140982485Y-88789999D01*
X140982485Y-88789999D02*
X141125342Y-88718571D01*
X141125342Y-88718571D02*
X141339628Y-88718571D01*
X141339628Y-88718571D02*
X141482485Y-88789999D01*
X141482485Y-88789999D02*
X141553914Y-88861428D01*
X141553914Y-88861428D02*
X141625342Y-89004285D01*
X141625342Y-89004285D02*
X141625342Y-89575714D01*
X141553914Y-88075714D02*
X141553914Y-87575714D01*
X142339628Y-87361428D02*
X142339628Y-88075714D01*
X142339628Y-88075714D02*
X140839628Y-88075714D01*
X140839628Y-88075714D02*
X140839628Y-87361428D01*
X141553914Y-86218571D02*
X141553914Y-86718571D01*
X142339628Y-86718571D02*
X140839628Y-86718571D01*
X140839628Y-86718571D02*
X140839628Y-86004285D01*
X142339628Y-85432857D02*
X140839628Y-85432857D01*
X142339628Y-84718571D02*
X140839628Y-84718571D01*
X140839628Y-84718571D02*
X142339628Y-83861428D01*
X142339628Y-83861428D02*
X140839628Y-83861428D01*
X141768200Y-83147142D02*
X141768200Y-82004285D01*
X142339628Y-82575713D02*
X141196771Y-82575713D01*
%TO.C,J10*%
X139990128Y-96592714D02*
X138490128Y-96592714D01*
X138490128Y-96592714D02*
X138490128Y-96021285D01*
X138490128Y-96021285D02*
X138561557Y-95878428D01*
X138561557Y-95878428D02*
X138632985Y-95806999D01*
X138632985Y-95806999D02*
X138775842Y-95735571D01*
X138775842Y-95735571D02*
X138990128Y-95735571D01*
X138990128Y-95735571D02*
X139132985Y-95806999D01*
X139132985Y-95806999D02*
X139204414Y-95878428D01*
X139204414Y-95878428D02*
X139275842Y-96021285D01*
X139275842Y-96021285D02*
X139275842Y-96592714D01*
X138490128Y-94806999D02*
X138490128Y-94521285D01*
X138490128Y-94521285D02*
X138561557Y-94378428D01*
X138561557Y-94378428D02*
X138704414Y-94235571D01*
X138704414Y-94235571D02*
X138990128Y-94164142D01*
X138990128Y-94164142D02*
X139490128Y-94164142D01*
X139490128Y-94164142D02*
X139775842Y-94235571D01*
X139775842Y-94235571D02*
X139918700Y-94378428D01*
X139918700Y-94378428D02*
X139990128Y-94521285D01*
X139990128Y-94521285D02*
X139990128Y-94806999D01*
X139990128Y-94806999D02*
X139918700Y-94949857D01*
X139918700Y-94949857D02*
X139775842Y-95092714D01*
X139775842Y-95092714D02*
X139490128Y-95164142D01*
X139490128Y-95164142D02*
X138990128Y-95164142D01*
X138990128Y-95164142D02*
X138704414Y-95092714D01*
X138704414Y-95092714D02*
X138561557Y-94949857D01*
X138561557Y-94949857D02*
X138490128Y-94806999D01*
X139990128Y-92806999D02*
X139990128Y-93521285D01*
X139990128Y-93521285D02*
X138490128Y-93521285D01*
%TO.C,J11*%
X128152286Y-86539700D02*
X128223714Y-86468271D01*
X128223714Y-86468271D02*
X128366571Y-86396842D01*
X128366571Y-86396842D02*
X128652286Y-86539700D01*
X128652286Y-86539700D02*
X128795143Y-86468271D01*
X128795143Y-86468271D02*
X128866571Y-86396842D01*
X130295143Y-87111128D02*
X129795143Y-86396842D01*
X129438000Y-87111128D02*
X129438000Y-85611128D01*
X129438000Y-85611128D02*
X130009429Y-85611128D01*
X130009429Y-85611128D02*
X130152286Y-85682557D01*
X130152286Y-85682557D02*
X130223715Y-85753985D01*
X130223715Y-85753985D02*
X130295143Y-85896842D01*
X130295143Y-85896842D02*
X130295143Y-86111128D01*
X130295143Y-86111128D02*
X130223715Y-86253985D01*
X130223715Y-86253985D02*
X130152286Y-86325414D01*
X130152286Y-86325414D02*
X130009429Y-86396842D01*
X130009429Y-86396842D02*
X129438000Y-86396842D01*
X130938000Y-86325414D02*
X131438000Y-86325414D01*
X131652286Y-87111128D02*
X130938000Y-87111128D01*
X130938000Y-87111128D02*
X130938000Y-85611128D01*
X130938000Y-85611128D02*
X131652286Y-85611128D01*
X132223715Y-87039700D02*
X132438001Y-87111128D01*
X132438001Y-87111128D02*
X132795143Y-87111128D01*
X132795143Y-87111128D02*
X132938001Y-87039700D01*
X132938001Y-87039700D02*
X133009429Y-86968271D01*
X133009429Y-86968271D02*
X133080858Y-86825414D01*
X133080858Y-86825414D02*
X133080858Y-86682557D01*
X133080858Y-86682557D02*
X133009429Y-86539700D01*
X133009429Y-86539700D02*
X132938001Y-86468271D01*
X132938001Y-86468271D02*
X132795143Y-86396842D01*
X132795143Y-86396842D02*
X132509429Y-86325414D01*
X132509429Y-86325414D02*
X132366572Y-86253985D01*
X132366572Y-86253985D02*
X132295143Y-86182557D01*
X132295143Y-86182557D02*
X132223715Y-86039700D01*
X132223715Y-86039700D02*
X132223715Y-85896842D01*
X132223715Y-85896842D02*
X132295143Y-85753985D01*
X132295143Y-85753985D02*
X132366572Y-85682557D01*
X132366572Y-85682557D02*
X132509429Y-85611128D01*
X132509429Y-85611128D02*
X132866572Y-85611128D01*
X132866572Y-85611128D02*
X133080858Y-85682557D01*
X133723714Y-86325414D02*
X134223714Y-86325414D01*
X134438000Y-87111128D02*
X133723714Y-87111128D01*
X133723714Y-87111128D02*
X133723714Y-85611128D01*
X133723714Y-85611128D02*
X134438000Y-85611128D01*
X134866572Y-85611128D02*
X135723715Y-85611128D01*
X135295143Y-87111128D02*
X135295143Y-85611128D01*
%TO.C,J12*%
X128398286Y-88825700D02*
X128469714Y-88754271D01*
X128469714Y-88754271D02*
X128612571Y-88682842D01*
X128612571Y-88682842D02*
X128898286Y-88825700D01*
X128898286Y-88825700D02*
X129041143Y-88754271D01*
X129041143Y-88754271D02*
X129112571Y-88682842D01*
X129612572Y-89325700D02*
X129826858Y-89397128D01*
X129826858Y-89397128D02*
X130184000Y-89397128D01*
X130184000Y-89397128D02*
X130326858Y-89325700D01*
X130326858Y-89325700D02*
X130398286Y-89254271D01*
X130398286Y-89254271D02*
X130469715Y-89111414D01*
X130469715Y-89111414D02*
X130469715Y-88968557D01*
X130469715Y-88968557D02*
X130398286Y-88825700D01*
X130398286Y-88825700D02*
X130326858Y-88754271D01*
X130326858Y-88754271D02*
X130184000Y-88682842D01*
X130184000Y-88682842D02*
X129898286Y-88611414D01*
X129898286Y-88611414D02*
X129755429Y-88539985D01*
X129755429Y-88539985D02*
X129684000Y-88468557D01*
X129684000Y-88468557D02*
X129612572Y-88325700D01*
X129612572Y-88325700D02*
X129612572Y-88182842D01*
X129612572Y-88182842D02*
X129684000Y-88039985D01*
X129684000Y-88039985D02*
X129755429Y-87968557D01*
X129755429Y-87968557D02*
X129898286Y-87897128D01*
X129898286Y-87897128D02*
X130255429Y-87897128D01*
X130255429Y-87897128D02*
X130469715Y-87968557D01*
X131398286Y-88682842D02*
X131398286Y-89397128D01*
X130898286Y-87897128D02*
X131398286Y-88682842D01*
X131398286Y-88682842D02*
X131898286Y-87897128D01*
X132398285Y-89397128D02*
X132398285Y-87897128D01*
X132398285Y-87897128D02*
X133255428Y-89397128D01*
X133255428Y-89397128D02*
X133255428Y-87897128D01*
X134826857Y-89254271D02*
X134755429Y-89325700D01*
X134755429Y-89325700D02*
X134541143Y-89397128D01*
X134541143Y-89397128D02*
X134398286Y-89397128D01*
X134398286Y-89397128D02*
X134184000Y-89325700D01*
X134184000Y-89325700D02*
X134041143Y-89182842D01*
X134041143Y-89182842D02*
X133969714Y-89039985D01*
X133969714Y-89039985D02*
X133898286Y-88754271D01*
X133898286Y-88754271D02*
X133898286Y-88539985D01*
X133898286Y-88539985D02*
X133969714Y-88254271D01*
X133969714Y-88254271D02*
X134041143Y-88111414D01*
X134041143Y-88111414D02*
X134184000Y-87968557D01*
X134184000Y-87968557D02*
X134398286Y-87897128D01*
X134398286Y-87897128D02*
X134541143Y-87897128D01*
X134541143Y-87897128D02*
X134755429Y-87968557D01*
X134755429Y-87968557D02*
X134826857Y-88039985D01*
%TO.C,J13*%
X148325286Y-96699700D02*
X148396714Y-96628271D01*
X148396714Y-96628271D02*
X148539571Y-96556842D01*
X148539571Y-96556842D02*
X148825286Y-96699700D01*
X148825286Y-96699700D02*
X148968143Y-96628271D01*
X148968143Y-96628271D02*
X149039571Y-96556842D01*
X150468143Y-97271128D02*
X149968143Y-96556842D01*
X149611000Y-97271128D02*
X149611000Y-95771128D01*
X149611000Y-95771128D02*
X150182429Y-95771128D01*
X150182429Y-95771128D02*
X150325286Y-95842557D01*
X150325286Y-95842557D02*
X150396715Y-95913985D01*
X150396715Y-95913985D02*
X150468143Y-96056842D01*
X150468143Y-96056842D02*
X150468143Y-96271128D01*
X150468143Y-96271128D02*
X150396715Y-96413985D01*
X150396715Y-96413985D02*
X150325286Y-96485414D01*
X150325286Y-96485414D02*
X150182429Y-96556842D01*
X150182429Y-96556842D02*
X149611000Y-96556842D01*
X151111000Y-97271128D02*
X151111000Y-95771128D01*
X151111000Y-95771128D02*
X151468143Y-95771128D01*
X151468143Y-95771128D02*
X151682429Y-95842557D01*
X151682429Y-95842557D02*
X151825286Y-95985414D01*
X151825286Y-95985414D02*
X151896715Y-96128271D01*
X151896715Y-96128271D02*
X151968143Y-96413985D01*
X151968143Y-96413985D02*
X151968143Y-96628271D01*
X151968143Y-96628271D02*
X151896715Y-96913985D01*
X151896715Y-96913985D02*
X151825286Y-97056842D01*
X151825286Y-97056842D02*
X151682429Y-97199700D01*
X151682429Y-97199700D02*
X151468143Y-97271128D01*
X151468143Y-97271128D02*
X151111000Y-97271128D01*
X152896715Y-96556842D02*
X152896715Y-97271128D01*
X152396715Y-95771128D02*
X152896715Y-96556842D01*
X152896715Y-96556842D02*
X153396715Y-95771128D01*
%TO.C,J14*%
X149765857Y-94159700D02*
X149837285Y-94088271D01*
X149837285Y-94088271D02*
X149980142Y-94016842D01*
X149980142Y-94016842D02*
X150265857Y-94159700D01*
X150265857Y-94159700D02*
X150408714Y-94088271D01*
X150408714Y-94088271D02*
X150480142Y-94016842D01*
X151908714Y-94588271D02*
X151837286Y-94659700D01*
X151837286Y-94659700D02*
X151623000Y-94731128D01*
X151623000Y-94731128D02*
X151480143Y-94731128D01*
X151480143Y-94731128D02*
X151265857Y-94659700D01*
X151265857Y-94659700D02*
X151123000Y-94516842D01*
X151123000Y-94516842D02*
X151051571Y-94373985D01*
X151051571Y-94373985D02*
X150980143Y-94088271D01*
X150980143Y-94088271D02*
X150980143Y-93873985D01*
X150980143Y-93873985D02*
X151051571Y-93588271D01*
X151051571Y-93588271D02*
X151123000Y-93445414D01*
X151123000Y-93445414D02*
X151265857Y-93302557D01*
X151265857Y-93302557D02*
X151480143Y-93231128D01*
X151480143Y-93231128D02*
X151623000Y-93231128D01*
X151623000Y-93231128D02*
X151837286Y-93302557D01*
X151837286Y-93302557D02*
X151908714Y-93373985D01*
X152480143Y-94659700D02*
X152694429Y-94731128D01*
X152694429Y-94731128D02*
X153051571Y-94731128D01*
X153051571Y-94731128D02*
X153194429Y-94659700D01*
X153194429Y-94659700D02*
X153265857Y-94588271D01*
X153265857Y-94588271D02*
X153337286Y-94445414D01*
X153337286Y-94445414D02*
X153337286Y-94302557D01*
X153337286Y-94302557D02*
X153265857Y-94159700D01*
X153265857Y-94159700D02*
X153194429Y-94088271D01*
X153194429Y-94088271D02*
X153051571Y-94016842D01*
X153051571Y-94016842D02*
X152765857Y-93945414D01*
X152765857Y-93945414D02*
X152623000Y-93873985D01*
X152623000Y-93873985D02*
X152551571Y-93802557D01*
X152551571Y-93802557D02*
X152480143Y-93659700D01*
X152480143Y-93659700D02*
X152480143Y-93516842D01*
X152480143Y-93516842D02*
X152551571Y-93373985D01*
X152551571Y-93373985D02*
X152623000Y-93302557D01*
X152623000Y-93302557D02*
X152765857Y-93231128D01*
X152765857Y-93231128D02*
X153123000Y-93231128D01*
X153123000Y-93231128D02*
X153337286Y-93302557D01*
%TO.C,J15*%
X123179286Y-100120700D02*
X123393572Y-100192128D01*
X123393572Y-100192128D02*
X123750714Y-100192128D01*
X123750714Y-100192128D02*
X123893572Y-100120700D01*
X123893572Y-100120700D02*
X123965000Y-100049271D01*
X123965000Y-100049271D02*
X124036429Y-99906414D01*
X124036429Y-99906414D02*
X124036429Y-99763557D01*
X124036429Y-99763557D02*
X123965000Y-99620700D01*
X123965000Y-99620700D02*
X123893572Y-99549271D01*
X123893572Y-99549271D02*
X123750714Y-99477842D01*
X123750714Y-99477842D02*
X123465000Y-99406414D01*
X123465000Y-99406414D02*
X123322143Y-99334985D01*
X123322143Y-99334985D02*
X123250714Y-99263557D01*
X123250714Y-99263557D02*
X123179286Y-99120700D01*
X123179286Y-99120700D02*
X123179286Y-98977842D01*
X123179286Y-98977842D02*
X123250714Y-98834985D01*
X123250714Y-98834985D02*
X123322143Y-98763557D01*
X123322143Y-98763557D02*
X123465000Y-98692128D01*
X123465000Y-98692128D02*
X123822143Y-98692128D01*
X123822143Y-98692128D02*
X124036429Y-98763557D01*
X125536428Y-100049271D02*
X125465000Y-100120700D01*
X125465000Y-100120700D02*
X125250714Y-100192128D01*
X125250714Y-100192128D02*
X125107857Y-100192128D01*
X125107857Y-100192128D02*
X124893571Y-100120700D01*
X124893571Y-100120700D02*
X124750714Y-99977842D01*
X124750714Y-99977842D02*
X124679285Y-99834985D01*
X124679285Y-99834985D02*
X124607857Y-99549271D01*
X124607857Y-99549271D02*
X124607857Y-99334985D01*
X124607857Y-99334985D02*
X124679285Y-99049271D01*
X124679285Y-99049271D02*
X124750714Y-98906414D01*
X124750714Y-98906414D02*
X124893571Y-98763557D01*
X124893571Y-98763557D02*
X125107857Y-98692128D01*
X125107857Y-98692128D02*
X125250714Y-98692128D01*
X125250714Y-98692128D02*
X125465000Y-98763557D01*
X125465000Y-98763557D02*
X125536428Y-98834985D01*
X126893571Y-100192128D02*
X126179285Y-100192128D01*
X126179285Y-100192128D02*
X126179285Y-98692128D01*
X127393571Y-100192128D02*
X127393571Y-98692128D01*
X128250714Y-100192128D02*
X127607857Y-99334985D01*
X128250714Y-98692128D02*
X127393571Y-99549271D01*
%TO.C,J16*%
X149833285Y-102351128D02*
X149833285Y-100851128D01*
X149833285Y-100851128D02*
X150190428Y-100851128D01*
X150190428Y-100851128D02*
X150404714Y-100922557D01*
X150404714Y-100922557D02*
X150547571Y-101065414D01*
X150547571Y-101065414D02*
X150619000Y-101208271D01*
X150619000Y-101208271D02*
X150690428Y-101493985D01*
X150690428Y-101493985D02*
X150690428Y-101708271D01*
X150690428Y-101708271D02*
X150619000Y-101993985D01*
X150619000Y-101993985D02*
X150547571Y-102136842D01*
X150547571Y-102136842D02*
X150404714Y-102279700D01*
X150404714Y-102279700D02*
X150190428Y-102351128D01*
X150190428Y-102351128D02*
X149833285Y-102351128D01*
X151333285Y-102351128D02*
X151333285Y-100851128D01*
X152047571Y-102351128D02*
X152047571Y-100851128D01*
X152047571Y-100851128D02*
X152904714Y-102351128D01*
X152904714Y-102351128D02*
X152904714Y-100851128D01*
%TO.C,J17*%
X147817285Y-99811128D02*
X147817285Y-98311128D01*
X147817285Y-98311128D02*
X148174428Y-98311128D01*
X148174428Y-98311128D02*
X148388714Y-98382557D01*
X148388714Y-98382557D02*
X148531571Y-98525414D01*
X148531571Y-98525414D02*
X148603000Y-98668271D01*
X148603000Y-98668271D02*
X148674428Y-98953985D01*
X148674428Y-98953985D02*
X148674428Y-99168271D01*
X148674428Y-99168271D02*
X148603000Y-99453985D01*
X148603000Y-99453985D02*
X148531571Y-99596842D01*
X148531571Y-99596842D02*
X148388714Y-99739700D01*
X148388714Y-99739700D02*
X148174428Y-99811128D01*
X148174428Y-99811128D02*
X147817285Y-99811128D01*
X149603000Y-98311128D02*
X149888714Y-98311128D01*
X149888714Y-98311128D02*
X150031571Y-98382557D01*
X150031571Y-98382557D02*
X150174428Y-98525414D01*
X150174428Y-98525414D02*
X150245857Y-98811128D01*
X150245857Y-98811128D02*
X150245857Y-99311128D01*
X150245857Y-99311128D02*
X150174428Y-99596842D01*
X150174428Y-99596842D02*
X150031571Y-99739700D01*
X150031571Y-99739700D02*
X149888714Y-99811128D01*
X149888714Y-99811128D02*
X149603000Y-99811128D01*
X149603000Y-99811128D02*
X149460143Y-99739700D01*
X149460143Y-99739700D02*
X149317285Y-99596842D01*
X149317285Y-99596842D02*
X149245857Y-99311128D01*
X149245857Y-99311128D02*
X149245857Y-98811128D01*
X149245857Y-98811128D02*
X149317285Y-98525414D01*
X149317285Y-98525414D02*
X149460143Y-98382557D01*
X149460143Y-98382557D02*
X149603000Y-98311128D01*
X150888714Y-98311128D02*
X150888714Y-99525414D01*
X150888714Y-99525414D02*
X150960143Y-99668271D01*
X150960143Y-99668271D02*
X151031572Y-99739700D01*
X151031572Y-99739700D02*
X151174429Y-99811128D01*
X151174429Y-99811128D02*
X151460143Y-99811128D01*
X151460143Y-99811128D02*
X151603000Y-99739700D01*
X151603000Y-99739700D02*
X151674429Y-99668271D01*
X151674429Y-99668271D02*
X151745857Y-99525414D01*
X151745857Y-99525414D02*
X151745857Y-98311128D01*
X152245858Y-98311128D02*
X153103001Y-98311128D01*
X152674429Y-99811128D02*
X152674429Y-98311128D01*
%TO.C,J18*%
X142959000Y-91619700D02*
X143030428Y-91548271D01*
X143030428Y-91548271D02*
X143173285Y-91476842D01*
X143173285Y-91476842D02*
X143459000Y-91619700D01*
X143459000Y-91619700D02*
X143601857Y-91548271D01*
X143601857Y-91548271D02*
X143673285Y-91476842D01*
X144173286Y-92119700D02*
X144387572Y-92191128D01*
X144387572Y-92191128D02*
X144744714Y-92191128D01*
X144744714Y-92191128D02*
X144887572Y-92119700D01*
X144887572Y-92119700D02*
X144959000Y-92048271D01*
X144959000Y-92048271D02*
X145030429Y-91905414D01*
X145030429Y-91905414D02*
X145030429Y-91762557D01*
X145030429Y-91762557D02*
X144959000Y-91619700D01*
X144959000Y-91619700D02*
X144887572Y-91548271D01*
X144887572Y-91548271D02*
X144744714Y-91476842D01*
X144744714Y-91476842D02*
X144459000Y-91405414D01*
X144459000Y-91405414D02*
X144316143Y-91333985D01*
X144316143Y-91333985D02*
X144244714Y-91262557D01*
X144244714Y-91262557D02*
X144173286Y-91119700D01*
X144173286Y-91119700D02*
X144173286Y-90976842D01*
X144173286Y-90976842D02*
X144244714Y-90833985D01*
X144244714Y-90833985D02*
X144316143Y-90762557D01*
X144316143Y-90762557D02*
X144459000Y-90691128D01*
X144459000Y-90691128D02*
X144816143Y-90691128D01*
X144816143Y-90691128D02*
X145030429Y-90762557D01*
X145459000Y-90691128D02*
X146316143Y-90691128D01*
X145887571Y-92191128D02*
X145887571Y-90691128D01*
X146744714Y-91762557D02*
X147459000Y-91762557D01*
X146601857Y-92191128D02*
X147101857Y-90691128D01*
X147101857Y-90691128D02*
X147601857Y-92191128D01*
X148101856Y-92191128D02*
X148101856Y-90691128D01*
X148101856Y-90691128D02*
X148958999Y-92191128D01*
X148958999Y-92191128D02*
X148958999Y-90691128D01*
X149673285Y-92191128D02*
X149673285Y-90691128D01*
X149673285Y-90691128D02*
X150030428Y-90691128D01*
X150030428Y-90691128D02*
X150244714Y-90762557D01*
X150244714Y-90762557D02*
X150387571Y-90905414D01*
X150387571Y-90905414D02*
X150459000Y-91048271D01*
X150459000Y-91048271D02*
X150530428Y-91333985D01*
X150530428Y-91333985D02*
X150530428Y-91548271D01*
X150530428Y-91548271D02*
X150459000Y-91833985D01*
X150459000Y-91833985D02*
X150387571Y-91976842D01*
X150387571Y-91976842D02*
X150244714Y-92119700D01*
X150244714Y-92119700D02*
X150030428Y-92191128D01*
X150030428Y-92191128D02*
X149673285Y-92191128D01*
X151673285Y-91405414D02*
X151887571Y-91476842D01*
X151887571Y-91476842D02*
X151959000Y-91548271D01*
X151959000Y-91548271D02*
X152030428Y-91691128D01*
X152030428Y-91691128D02*
X152030428Y-91905414D01*
X152030428Y-91905414D02*
X151959000Y-92048271D01*
X151959000Y-92048271D02*
X151887571Y-92119700D01*
X151887571Y-92119700D02*
X151744714Y-92191128D01*
X151744714Y-92191128D02*
X151173285Y-92191128D01*
X151173285Y-92191128D02*
X151173285Y-90691128D01*
X151173285Y-90691128D02*
X151673285Y-90691128D01*
X151673285Y-90691128D02*
X151816143Y-90762557D01*
X151816143Y-90762557D02*
X151887571Y-90833985D01*
X151887571Y-90833985D02*
X151959000Y-90976842D01*
X151959000Y-90976842D02*
X151959000Y-91119700D01*
X151959000Y-91119700D02*
X151887571Y-91262557D01*
X151887571Y-91262557D02*
X151816143Y-91333985D01*
X151816143Y-91333985D02*
X151673285Y-91405414D01*
X151673285Y-91405414D02*
X151173285Y-91405414D01*
X152959000Y-91476842D02*
X152959000Y-92191128D01*
X152459000Y-90691128D02*
X152959000Y-91476842D01*
X152959000Y-91476842D02*
X153459000Y-90691128D01*
%TO.C,J19*%
X130517428Y-108256700D02*
X131660286Y-108256700D01*
X131088857Y-108828128D02*
X131088857Y-107685271D01*
X133088857Y-107328128D02*
X132374571Y-107328128D01*
X132374571Y-107328128D02*
X132303143Y-108042414D01*
X132303143Y-108042414D02*
X132374571Y-107970985D01*
X132374571Y-107970985D02*
X132517429Y-107899557D01*
X132517429Y-107899557D02*
X132874571Y-107899557D01*
X132874571Y-107899557D02*
X133017429Y-107970985D01*
X133017429Y-107970985D02*
X133088857Y-108042414D01*
X133088857Y-108042414D02*
X133160286Y-108185271D01*
X133160286Y-108185271D02*
X133160286Y-108542414D01*
X133160286Y-108542414D02*
X133088857Y-108685271D01*
X133088857Y-108685271D02*
X133017429Y-108756700D01*
X133017429Y-108756700D02*
X132874571Y-108828128D01*
X132874571Y-108828128D02*
X132517429Y-108828128D01*
X132517429Y-108828128D02*
X132374571Y-108756700D01*
X132374571Y-108756700D02*
X132303143Y-108685271D01*
X133588857Y-107328128D02*
X134088857Y-108828128D01*
X134088857Y-108828128D02*
X134588857Y-107328128D01*
%TO.C,J20*%
X122591128Y-101478000D02*
X121091128Y-101478000D01*
X121091128Y-101478000D02*
X122162557Y-100978000D01*
X122162557Y-100978000D02*
X121091128Y-100478000D01*
X121091128Y-100478000D02*
X122591128Y-100478000D01*
X122448271Y-98906571D02*
X122519700Y-98977999D01*
X122519700Y-98977999D02*
X122591128Y-99192285D01*
X122591128Y-99192285D02*
X122591128Y-99335142D01*
X122591128Y-99335142D02*
X122519700Y-99549428D01*
X122519700Y-99549428D02*
X122376842Y-99692285D01*
X122376842Y-99692285D02*
X122233985Y-99763714D01*
X122233985Y-99763714D02*
X121948271Y-99835142D01*
X121948271Y-99835142D02*
X121733985Y-99835142D01*
X121733985Y-99835142D02*
X121448271Y-99763714D01*
X121448271Y-99763714D02*
X121305414Y-99692285D01*
X121305414Y-99692285D02*
X121162557Y-99549428D01*
X121162557Y-99549428D02*
X121091128Y-99335142D01*
X121091128Y-99335142D02*
X121091128Y-99192285D01*
X121091128Y-99192285D02*
X121162557Y-98977999D01*
X121162557Y-98977999D02*
X121233985Y-98906571D01*
X122591128Y-97549428D02*
X122591128Y-98263714D01*
X122591128Y-98263714D02*
X121091128Y-98263714D01*
X122591128Y-97049428D02*
X121091128Y-97049428D01*
X122591128Y-96192285D02*
X121733985Y-96835142D01*
X121091128Y-96192285D02*
X121948271Y-97049428D01*
X122591128Y-95549428D02*
X121091128Y-95549428D01*
X122591128Y-94835142D02*
X121091128Y-94835142D01*
X121091128Y-94835142D02*
X122591128Y-93977999D01*
X122591128Y-93977999D02*
X121091128Y-93977999D01*
%TO.C,J21*%
X122464128Y-92318000D02*
X120964128Y-92318000D01*
X120964128Y-92318000D02*
X122035557Y-91818000D01*
X122035557Y-91818000D02*
X120964128Y-91318000D01*
X120964128Y-91318000D02*
X122464128Y-91318000D01*
X122321271Y-89746571D02*
X122392700Y-89817999D01*
X122392700Y-89817999D02*
X122464128Y-90032285D01*
X122464128Y-90032285D02*
X122464128Y-90175142D01*
X122464128Y-90175142D02*
X122392700Y-90389428D01*
X122392700Y-90389428D02*
X122249842Y-90532285D01*
X122249842Y-90532285D02*
X122106985Y-90603714D01*
X122106985Y-90603714D02*
X121821271Y-90675142D01*
X121821271Y-90675142D02*
X121606985Y-90675142D01*
X121606985Y-90675142D02*
X121321271Y-90603714D01*
X121321271Y-90603714D02*
X121178414Y-90532285D01*
X121178414Y-90532285D02*
X121035557Y-90389428D01*
X121035557Y-90389428D02*
X120964128Y-90175142D01*
X120964128Y-90175142D02*
X120964128Y-90032285D01*
X120964128Y-90032285D02*
X121035557Y-89817999D01*
X121035557Y-89817999D02*
X121106985Y-89746571D01*
X122464128Y-88389428D02*
X122464128Y-89103714D01*
X122464128Y-89103714D02*
X120964128Y-89103714D01*
X122464128Y-87889428D02*
X120964128Y-87889428D01*
X122464128Y-87032285D02*
X121606985Y-87675142D01*
X120964128Y-87032285D02*
X121821271Y-87889428D01*
X120964128Y-86103713D02*
X120964128Y-85817999D01*
X120964128Y-85817999D02*
X121035557Y-85675142D01*
X121035557Y-85675142D02*
X121178414Y-85532285D01*
X121178414Y-85532285D02*
X121464128Y-85460856D01*
X121464128Y-85460856D02*
X121964128Y-85460856D01*
X121964128Y-85460856D02*
X122249842Y-85532285D01*
X122249842Y-85532285D02*
X122392700Y-85675142D01*
X122392700Y-85675142D02*
X122464128Y-85817999D01*
X122464128Y-85817999D02*
X122464128Y-86103713D01*
X122464128Y-86103713D02*
X122392700Y-86246571D01*
X122392700Y-86246571D02*
X122249842Y-86389428D01*
X122249842Y-86389428D02*
X121964128Y-86460856D01*
X121964128Y-86460856D02*
X121464128Y-86460856D01*
X121464128Y-86460856D02*
X121178414Y-86389428D01*
X121178414Y-86389428D02*
X121035557Y-86246571D01*
X121035557Y-86246571D02*
X120964128Y-86103713D01*
X120964128Y-84817999D02*
X122178414Y-84817999D01*
X122178414Y-84817999D02*
X122321271Y-84746570D01*
X122321271Y-84746570D02*
X122392700Y-84675142D01*
X122392700Y-84675142D02*
X122464128Y-84532284D01*
X122464128Y-84532284D02*
X122464128Y-84246570D01*
X122464128Y-84246570D02*
X122392700Y-84103713D01*
X122392700Y-84103713D02*
X122321271Y-84032284D01*
X122321271Y-84032284D02*
X122178414Y-83960856D01*
X122178414Y-83960856D02*
X120964128Y-83960856D01*
X120964128Y-83460855D02*
X120964128Y-82603713D01*
X122464128Y-83032284D02*
X120964128Y-83032284D01*
%TO.C,Y1*%
X134329628Y-95283190D02*
X134805819Y-95283190D01*
X133805819Y-95616523D02*
X134329628Y-95283190D01*
X134329628Y-95283190D02*
X133805819Y-94949857D01*
X134805819Y-94092714D02*
X134805819Y-94664142D01*
X134805819Y-94378428D02*
X133805819Y-94378428D01*
X133805819Y-94378428D02*
X133948676Y-94473666D01*
X133948676Y-94473666D02*
X134043914Y-94568904D01*
X134043914Y-94568904D02*
X134091533Y-94664142D01*
%TO.C,J22*%
X143331128Y-85605713D02*
X144831128Y-85105713D01*
X144831128Y-85105713D02*
X143331128Y-84605713D01*
X144402557Y-84177142D02*
X144402557Y-83462857D01*
X144831128Y-84319999D02*
X143331128Y-83819999D01*
X143331128Y-83819999D02*
X144831128Y-83319999D01*
X144402557Y-82891428D02*
X144402557Y-82177143D01*
X144831128Y-83034285D02*
X143331128Y-82534285D01*
X143331128Y-82534285D02*
X144831128Y-82034285D01*
%TO.C,J23*%
X150895557Y-80263856D02*
X150824128Y-80406714D01*
X150824128Y-80406714D02*
X150824128Y-80620999D01*
X150824128Y-80620999D02*
X150895557Y-80835285D01*
X150895557Y-80835285D02*
X151038414Y-80978142D01*
X151038414Y-80978142D02*
X151181271Y-81049571D01*
X151181271Y-81049571D02*
X151466985Y-81120999D01*
X151466985Y-81120999D02*
X151681271Y-81120999D01*
X151681271Y-81120999D02*
X151966985Y-81049571D01*
X151966985Y-81049571D02*
X152109842Y-80978142D01*
X152109842Y-80978142D02*
X152252700Y-80835285D01*
X152252700Y-80835285D02*
X152324128Y-80620999D01*
X152324128Y-80620999D02*
X152324128Y-80478142D01*
X152324128Y-80478142D02*
X152252700Y-80263856D01*
X152252700Y-80263856D02*
X152181271Y-80192428D01*
X152181271Y-80192428D02*
X151681271Y-80192428D01*
X151681271Y-80192428D02*
X151681271Y-80478142D01*
X152324128Y-79549571D02*
X150824128Y-79549571D01*
X150824128Y-79549571D02*
X152324128Y-78692428D01*
X152324128Y-78692428D02*
X150824128Y-78692428D01*
X152324128Y-77978142D02*
X150824128Y-77978142D01*
X150824128Y-77978142D02*
X150824128Y-77620999D01*
X150824128Y-77620999D02*
X150895557Y-77406713D01*
X150895557Y-77406713D02*
X151038414Y-77263856D01*
X151038414Y-77263856D02*
X151181271Y-77192427D01*
X151181271Y-77192427D02*
X151466985Y-77120999D01*
X151466985Y-77120999D02*
X151681271Y-77120999D01*
X151681271Y-77120999D02*
X151966985Y-77192427D01*
X151966985Y-77192427D02*
X152109842Y-77263856D01*
X152109842Y-77263856D02*
X152252700Y-77406713D01*
X152252700Y-77406713D02*
X152324128Y-77620999D01*
X152324128Y-77620999D02*
X152324128Y-77978142D01*
%TO.C,J1*%
X145146000Y-111952000D02*
X140066000Y-111952000D01*
X145146000Y-104332000D02*
X145146000Y-111952000D01*
X140066000Y-111952000D02*
X140066000Y-104332000D01*
X140066000Y-104332000D02*
X145146000Y-104332000D01*
%TO.C,J2*%
X153528000Y-90108000D02*
X153528000Y-87568000D01*
X158608000Y-90108000D02*
X153528000Y-90108000D01*
X153528000Y-87568000D02*
X158608000Y-87568000D01*
X158608000Y-87568000D02*
X158608000Y-90108000D01*
%TO.C,J3*%
X153528000Y-87568000D02*
X153528000Y-85028000D01*
X158608000Y-87568000D02*
X153528000Y-87568000D01*
X153528000Y-85028000D02*
X158608000Y-85028000D01*
X158608000Y-85028000D02*
X158608000Y-87568000D01*
%TO.C,J4*%
X130223500Y-76392000D02*
X132763500Y-76392000D01*
X130223500Y-81472000D02*
X130223500Y-76392000D01*
X132763500Y-76392000D02*
X132763500Y-81472000D01*
X132763500Y-81472000D02*
X130223500Y-81472000D01*
%TO.C,J5*%
X132763500Y-76392000D02*
X135303500Y-76392000D01*
X132763500Y-81472000D02*
X132763500Y-76392000D01*
X135303500Y-76392000D02*
X135303500Y-81472000D01*
X135303500Y-81472000D02*
X132763500Y-81472000D01*
%TO.C,J6*%
X135303500Y-76392000D02*
X137843500Y-76392000D01*
X135303500Y-81472000D02*
X135303500Y-76392000D01*
X137843500Y-76392000D02*
X137843500Y-81472000D01*
X137843500Y-81472000D02*
X135303500Y-81472000D01*
%TO.C,J7*%
X140383500Y-81472000D02*
X137843500Y-81472000D01*
X140383500Y-76392000D02*
X140383500Y-81472000D01*
X137843500Y-81472000D02*
X137843500Y-76392000D01*
X137843500Y-76392000D02*
X140383500Y-76392000D01*
%TO.C,J8*%
X148018500Y-81470500D02*
X145478500Y-81470500D01*
X148018500Y-76390500D02*
X148018500Y-81470500D01*
X145478500Y-81470500D02*
X145478500Y-76390500D01*
X145478500Y-76390500D02*
X148018500Y-76390500D01*
%TO.C,J9*%
X142923500Y-81472000D02*
X140383500Y-81472000D01*
X142923500Y-76392000D02*
X142923500Y-81472000D01*
X140383500Y-81472000D02*
X140383500Y-76392000D01*
X140383500Y-76392000D02*
X142923500Y-76392000D01*
%TO.C,J10*%
X142860000Y-96966000D02*
X142860000Y-99506000D01*
X135240000Y-96966000D02*
X142860000Y-96966000D01*
X142860000Y-99506000D02*
X135240000Y-99506000D01*
X135240000Y-99506000D02*
X135240000Y-96966000D01*
%TO.C,J11*%
X123048000Y-87822000D02*
X123048000Y-85282000D01*
X128128000Y-87822000D02*
X123048000Y-87822000D01*
X123048000Y-85282000D02*
X128128000Y-85282000D01*
X128128000Y-85282000D02*
X128128000Y-87822000D01*
%TO.C,J12*%
X123048000Y-90362000D02*
X123048000Y-87822000D01*
X128128000Y-90362000D02*
X123048000Y-90362000D01*
X123048000Y-87822000D02*
X128128000Y-87822000D01*
X128128000Y-87822000D02*
X128128000Y-90362000D01*
%TO.C,J13*%
X153528000Y-97728000D02*
X153528000Y-95188000D01*
X158608000Y-97728000D02*
X153528000Y-97728000D01*
X153528000Y-95188000D02*
X158608000Y-95188000D01*
X158608000Y-95188000D02*
X158608000Y-97728000D01*
%TO.C,J14*%
X153528000Y-95188000D02*
X153528000Y-92648000D01*
X158608000Y-95188000D02*
X153528000Y-95188000D01*
X153528000Y-92648000D02*
X158608000Y-92648000D01*
X158608000Y-92648000D02*
X158608000Y-95188000D01*
%TO.C,J15*%
X123048000Y-97982000D02*
X123048000Y-95442000D01*
X128128000Y-97982000D02*
X123048000Y-97982000D01*
X123048000Y-95442000D02*
X128128000Y-95442000D01*
X128128000Y-95442000D02*
X128128000Y-97982000D01*
%TO.C,J16*%
X153528000Y-102808000D02*
X153528000Y-100268000D01*
X158608000Y-102808000D02*
X153528000Y-102808000D01*
X153528000Y-100268000D02*
X158608000Y-100268000D01*
X158608000Y-100268000D02*
X158608000Y-102808000D01*
%TO.C,J17*%
X153528000Y-100268000D02*
X153528000Y-97728000D01*
X158608000Y-100268000D02*
X153528000Y-100268000D01*
X153528000Y-97728000D02*
X158608000Y-97728000D01*
X158608000Y-97728000D02*
X158608000Y-100268000D01*
%TO.C,J18*%
X153528000Y-92648000D02*
X153528000Y-90108000D01*
X158608000Y-92648000D02*
X153528000Y-92648000D01*
X153528000Y-90108000D02*
X158608000Y-90108000D01*
X158608000Y-90108000D02*
X158608000Y-92648000D01*
%TO.C,J19*%
X134986000Y-104332000D02*
X140066000Y-104332000D01*
X134986000Y-111952000D02*
X134986000Y-104332000D01*
X140066000Y-104332000D02*
X140066000Y-111952000D01*
X140066000Y-111952000D02*
X134986000Y-111952000D01*
%TO.C,J20*%
X123048000Y-95442000D02*
X123048000Y-92902000D01*
X128128000Y-95442000D02*
X123048000Y-95442000D01*
X123048000Y-92902000D02*
X128128000Y-92902000D01*
X128128000Y-92902000D02*
X128128000Y-95442000D01*
%TO.C,J21*%
X123048000Y-92902000D02*
X123048000Y-90362000D01*
X128128000Y-92902000D02*
X123048000Y-92902000D01*
X123048000Y-90362000D02*
X128128000Y-90362000D01*
X128128000Y-90362000D02*
X128128000Y-92902000D01*
%TO.C,Y1*%
X131534140Y-89668580D02*
X131023600Y-89668580D01*
X131023600Y-89668580D02*
X130322560Y-89838760D01*
X132133580Y-89798120D02*
X131534140Y-89668580D01*
X130322560Y-89838760D02*
X129733280Y-90237540D01*
X132672060Y-90087680D02*
X132133580Y-89798120D01*
X131602720Y-90186740D02*
X132103100Y-90387400D01*
X131102340Y-90186740D02*
X131602720Y-90186740D01*
X129733280Y-90237540D02*
X129362440Y-90697280D01*
X132103100Y-90387400D02*
X132702540Y-90887780D01*
X130502900Y-90387400D02*
X131102340Y-90186740D01*
X133022580Y-90417880D02*
X132672060Y-90087680D01*
X129362440Y-90697280D02*
X129154160Y-91118920D01*
X133253720Y-90707440D02*
X133022580Y-90417880D01*
X130002520Y-90788720D02*
X130502900Y-90387400D01*
X132702540Y-90887780D02*
X133002260Y-91388160D01*
X129154160Y-91118920D02*
X128994140Y-91568500D01*
X133472160Y-91139240D02*
X133253720Y-90707440D01*
X129702800Y-91187500D02*
X130002520Y-90788720D01*
X133002260Y-91388160D02*
X133103860Y-91888540D01*
X133583920Y-91538020D02*
X133472160Y-91139240D01*
X128994140Y-91568500D02*
X128963660Y-92007920D01*
X129502140Y-91888540D02*
X129702800Y-91187500D01*
X133632180Y-91987600D02*
X133632180Y-98439200D01*
X133103860Y-91987600D02*
X133103860Y-98589060D01*
X128973820Y-91987600D02*
X128973820Y-98439200D01*
X133632180Y-91997760D02*
X133583920Y-91538020D01*
X128973820Y-98439200D02*
X129011920Y-98858300D01*
X129502140Y-98487460D02*
X129502140Y-91888540D01*
X133103860Y-98589060D02*
X133002260Y-98987840D01*
X129011920Y-98858300D02*
X129182100Y-99348520D01*
X133563600Y-98919260D02*
X133632180Y-98477300D01*
X133002260Y-98987840D02*
X132702540Y-99488220D01*
X129702800Y-99086900D02*
X129502140Y-98487460D01*
X133423900Y-99348520D02*
X133563600Y-98919260D01*
X129182100Y-99348520D02*
X129403080Y-99726980D01*
X132702540Y-99488220D02*
X132202160Y-99988600D01*
X130104120Y-99688880D02*
X129702800Y-99086900D01*
X129403080Y-99726980D02*
X129682480Y-100047020D01*
X133192760Y-99737140D02*
X133423900Y-99348520D01*
X132303760Y-99887000D02*
X131902440Y-100087660D01*
X129682480Y-100047020D02*
X130012680Y-100298480D01*
X132872720Y-100087660D02*
X133192760Y-99737140D01*
X131902440Y-100087660D02*
X131303000Y-100189260D01*
X130802620Y-100087660D02*
X130104120Y-99688880D01*
X131303000Y-100189260D02*
X130802620Y-100087660D01*
X130012680Y-100298480D02*
X130563860Y-100598200D01*
X132402820Y-100448340D02*
X132872720Y-100087660D01*
X130563860Y-100598200D02*
X131033760Y-100707420D01*
X131953240Y-100638840D02*
X132402820Y-100448340D01*
X131033760Y-100707420D02*
X131493500Y-100727740D01*
X131493500Y-100727740D02*
X131953240Y-100638840D01*
%TO.C,J22*%
X142938500Y-76390500D02*
X145478500Y-76390500D01*
X142938500Y-81470500D02*
X142938500Y-76390500D01*
X145478500Y-76390500D02*
X145478500Y-81470500D01*
X145478500Y-81470500D02*
X142938500Y-81470500D01*
%TO.C,J23*%
X148018500Y-76390500D02*
X150558500Y-76390500D01*
X148018500Y-81470500D02*
X148018500Y-76390500D01*
X150558500Y-76390500D02*
X150558500Y-81470500D01*
X150558500Y-81470500D02*
X148018500Y-81470500D01*
%TD*%
D14*
%TO.C,J1*%
X143876000Y-110682000D03*
X141336000Y-110682000D03*
X143876000Y-108142000D03*
X141336000Y-108142000D03*
X143876000Y-105602000D03*
X141336000Y-105602000D03*
%TD*%
%TO.C,J2*%
X154798000Y-88838000D03*
X157338000Y-88838000D03*
%TD*%
%TO.C,J3*%
X154798000Y-86298000D03*
X157338000Y-86298000D03*
%TD*%
%TO.C,J4*%
X131493500Y-77662000D03*
X131493500Y-80202000D03*
%TD*%
%TO.C,J5*%
X134033500Y-77662000D03*
X134033500Y-80202000D03*
%TD*%
%TO.C,J6*%
X136573500Y-77662000D03*
X136573500Y-80202000D03*
%TD*%
%TO.C,J7*%
X139113500Y-80202000D03*
X139113500Y-77662000D03*
%TD*%
%TO.C,J8*%
X146748500Y-80200500D03*
X146748500Y-77660500D03*
%TD*%
%TO.C,J9*%
X141653500Y-80202000D03*
X141653500Y-77662000D03*
%TD*%
%TO.C,J10*%
X141590000Y-98236000D03*
X139050000Y-98236000D03*
X136510000Y-98236000D03*
%TD*%
%TO.C,J11*%
X124318000Y-86552000D03*
X126858000Y-86552000D03*
%TD*%
%TO.C,J12*%
X124318000Y-89092000D03*
X126858000Y-89092000D03*
%TD*%
%TO.C,J13*%
X154798000Y-96458000D03*
X157338000Y-96458000D03*
%TD*%
%TO.C,J14*%
X154798000Y-93918000D03*
X157338000Y-93918000D03*
%TD*%
%TO.C,J15*%
X124318000Y-96712000D03*
X126858000Y-96712000D03*
%TD*%
%TO.C,J16*%
X154798000Y-101538000D03*
X157338000Y-101538000D03*
%TD*%
%TO.C,J17*%
X154798000Y-98998000D03*
X157338000Y-98998000D03*
%TD*%
%TO.C,J18*%
X154798000Y-91378000D03*
X157338000Y-91378000D03*
%TD*%
%TO.C,J19*%
X136256000Y-105602000D03*
X138796000Y-105602000D03*
X136256000Y-108142000D03*
X138796000Y-108142000D03*
X136256000Y-110682000D03*
X138796000Y-110682000D03*
%TD*%
%TO.C,J20*%
X124318000Y-94172000D03*
X126858000Y-94172000D03*
%TD*%
%TO.C,J21*%
X124318000Y-91632000D03*
X126858000Y-91632000D03*
%TD*%
D15*
%TO.C,Y1*%
X131303000Y-92747060D03*
X131303000Y-97628940D03*
%TD*%
D14*
%TO.C,J22*%
X144208500Y-77660500D03*
X144208500Y-80200500D03*
%TD*%
%TO.C,J23*%
X149288500Y-77660500D03*
X149288500Y-80200500D03*
%TD*%
M02*
