%TF.GenerationSoftware,KiCad,Pcbnew,7.0.5.1-1-g8f565ef7f0-dirty-deb11*%
%TF.CreationDate,2023-07-10T00:59:46+00:00*%
%TF.ProjectId,BRIDGEADC01,42524944-4745-4414-9443-30312e6b6963,rev?*%
%TF.SameCoordinates,Original*%
%TF.FileFunction,Soldermask,Top*%
%TF.FilePolarity,Negative*%
%FSLAX46Y46*%
G04 Gerber Fmt 4.6, Leading zero omitted, Abs format (unit mm)*
G04 Created by KiCad (PCBNEW 7.0.5.1-1-g8f565ef7f0-dirty-deb11) date 2023-07-10 00:59:46*
%MOMM*%
%LPD*%
G01*
G04 APERTURE LIST*
G04 Aperture macros list*
%AMRoundRect*
0 Rectangle with rounded corners*
0 $1 Rounding radius*
0 $2 $3 $4 $5 $6 $7 $8 $9 X,Y pos of 4 corners*
0 Add a 4 corners polygon primitive as box body*
4,1,4,$2,$3,$4,$5,$6,$7,$8,$9,$2,$3,0*
0 Add four circle primitives for the rounded corners*
1,1,$1+$1,$2,$3*
1,1,$1+$1,$4,$5*
1,1,$1+$1,$6,$7*
1,1,$1+$1,$8,$9*
0 Add four rect primitives between the rounded corners*
20,1,$1+$1,$2,$3,$4,$5,0*
20,1,$1+$1,$4,$5,$6,$7,0*
20,1,$1+$1,$6,$7,$8,$9,0*
20,1,$1+$1,$8,$9,$2,$3,0*%
G04 Aperture macros list end*
%ADD10RoundRect,0.200000X0.762000X0.762000X-0.762000X0.762000X-0.762000X-0.762000X0.762000X-0.762000X0*%
%ADD11RoundRect,0.200000X0.762000X-0.762000X0.762000X0.762000X-0.762000X0.762000X-0.762000X-0.762000X0*%
%ADD12RoundRect,0.200000X-0.762000X-0.762000X0.762000X-0.762000X0.762000X0.762000X-0.762000X0.762000X0*%
%ADD13RoundRect,0.200000X-0.762000X0.762000X-0.762000X-0.762000X0.762000X-0.762000X0.762000X0.762000X0*%
%ADD14C,6.400000*%
%ADD15C,1.901140*%
G04 APERTURE END LIST*
D10*
%TO.C,J1*%
X143876000Y-110682000D03*
X141336000Y-110682000D03*
X143876000Y-108142000D03*
X141336000Y-108142000D03*
X143876000Y-105602000D03*
X141336000Y-105602000D03*
%TD*%
D11*
%TO.C,J2*%
X154798000Y-88838000D03*
X157338000Y-88838000D03*
%TD*%
%TO.C,J3*%
X154798000Y-86298000D03*
X157338000Y-86298000D03*
%TD*%
D12*
%TO.C,J4*%
X131493500Y-77662000D03*
X131493500Y-80202000D03*
%TD*%
%TO.C,J5*%
X134033500Y-77662000D03*
X134033500Y-80202000D03*
%TD*%
%TO.C,J6*%
X136573500Y-77662000D03*
X136573500Y-80202000D03*
%TD*%
D10*
%TO.C,J7*%
X139113500Y-80202000D03*
X139113500Y-77662000D03*
%TD*%
%TO.C,J8*%
X146748500Y-80200500D03*
X146748500Y-77660500D03*
%TD*%
%TO.C,J9*%
X141653500Y-80202000D03*
X141653500Y-77662000D03*
%TD*%
D13*
%TO.C,J10*%
X141590000Y-98236000D03*
X139050000Y-98236000D03*
X136510000Y-98236000D03*
%TD*%
D11*
%TO.C,J11*%
X124318000Y-86552000D03*
X126858000Y-86552000D03*
%TD*%
%TO.C,J12*%
X124318000Y-89092000D03*
X126858000Y-89092000D03*
%TD*%
%TO.C,J13*%
X154798000Y-96458000D03*
X157338000Y-96458000D03*
%TD*%
%TO.C,J14*%
X154798000Y-93918000D03*
X157338000Y-93918000D03*
%TD*%
%TO.C,J15*%
X124318000Y-96712000D03*
X126858000Y-96712000D03*
%TD*%
%TO.C,J16*%
X154798000Y-101538000D03*
X157338000Y-101538000D03*
%TD*%
%TO.C,J17*%
X154798000Y-98998000D03*
X157338000Y-98998000D03*
%TD*%
%TO.C,J18*%
X154798000Y-91378000D03*
X157338000Y-91378000D03*
%TD*%
D12*
%TO.C,J19*%
X136256000Y-105602000D03*
X138796000Y-105602000D03*
X136256000Y-108142000D03*
X138796000Y-108142000D03*
X136256000Y-110682000D03*
X138796000Y-110682000D03*
%TD*%
D11*
%TO.C,J20*%
X124318000Y-94172000D03*
X126858000Y-94172000D03*
%TD*%
%TO.C,J21*%
X124318000Y-91632000D03*
X126858000Y-91632000D03*
%TD*%
D14*
%TO.C,M1*%
X155560000Y-79440000D03*
%TD*%
%TO.C,M2*%
X155560000Y-109920000D03*
%TD*%
%TO.C,M3*%
X125080000Y-79440000D03*
%TD*%
%TO.C,M4*%
X125080000Y-109920000D03*
%TD*%
D15*
%TO.C,Y1*%
X131303000Y-92747060D03*
X131303000Y-97628940D03*
%TD*%
D12*
%TO.C,J22*%
X144208500Y-77660500D03*
X144208500Y-80200500D03*
%TD*%
%TO.C,J23*%
X149288500Y-77660500D03*
X149288500Y-80200500D03*
%TD*%
M02*
