%TF.GenerationSoftware,KiCad,Pcbnew,7.0.5.1-1-g8f565ef7f0-dirty-deb11*%
%TF.CreationDate,2023-07-05T15:05:04+00:00*%
%TF.ProjectId,BRIDGEADC01,42524944-4745-4414-9443-30312e6b6963,rev?*%
%TF.SameCoordinates,Original*%
%TF.FileFunction,Legend,Bot*%
%TF.FilePolarity,Positive*%
%FSLAX46Y46*%
G04 Gerber Fmt 4.6, Leading zero omitted, Abs format (unit mm)*
G04 Created by KiCad (PCBNEW 7.0.5.1-1-g8f565ef7f0-dirty-deb11) date 2023-07-05 15:05:04*
%MOMM*%
%LPD*%
G01*
G04 APERTURE LIST*
%ADD10C,0.150000*%
G04 APERTURE END LIST*
D10*
%TO.C,C1*%
X147725666Y-102151580D02*
X147773285Y-102199200D01*
X147773285Y-102199200D02*
X147916142Y-102246819D01*
X147916142Y-102246819D02*
X148011380Y-102246819D01*
X148011380Y-102246819D02*
X148154237Y-102199200D01*
X148154237Y-102199200D02*
X148249475Y-102103961D01*
X148249475Y-102103961D02*
X148297094Y-102008723D01*
X148297094Y-102008723D02*
X148344713Y-101818247D01*
X148344713Y-101818247D02*
X148344713Y-101675390D01*
X148344713Y-101675390D02*
X148297094Y-101484914D01*
X148297094Y-101484914D02*
X148249475Y-101389676D01*
X148249475Y-101389676D02*
X148154237Y-101294438D01*
X148154237Y-101294438D02*
X148011380Y-101246819D01*
X148011380Y-101246819D02*
X147916142Y-101246819D01*
X147916142Y-101246819D02*
X147773285Y-101294438D01*
X147773285Y-101294438D02*
X147725666Y-101342057D01*
X146773285Y-102246819D02*
X147344713Y-102246819D01*
X147058999Y-102246819D02*
X147058999Y-101246819D01*
X147058999Y-101246819D02*
X147154237Y-101389676D01*
X147154237Y-101389676D02*
X147249475Y-101484914D01*
X147249475Y-101484914D02*
X147344713Y-101532533D01*
%TO.C,C2*%
X144616580Y-93370333D02*
X144664200Y-93322714D01*
X144664200Y-93322714D02*
X144711819Y-93179857D01*
X144711819Y-93179857D02*
X144711819Y-93084619D01*
X144711819Y-93084619D02*
X144664200Y-92941762D01*
X144664200Y-92941762D02*
X144568961Y-92846524D01*
X144568961Y-92846524D02*
X144473723Y-92798905D01*
X144473723Y-92798905D02*
X144283247Y-92751286D01*
X144283247Y-92751286D02*
X144140390Y-92751286D01*
X144140390Y-92751286D02*
X143949914Y-92798905D01*
X143949914Y-92798905D02*
X143854676Y-92846524D01*
X143854676Y-92846524D02*
X143759438Y-92941762D01*
X143759438Y-92941762D02*
X143711819Y-93084619D01*
X143711819Y-93084619D02*
X143711819Y-93179857D01*
X143711819Y-93179857D02*
X143759438Y-93322714D01*
X143759438Y-93322714D02*
X143807057Y-93370333D01*
X143807057Y-93751286D02*
X143759438Y-93798905D01*
X143759438Y-93798905D02*
X143711819Y-93894143D01*
X143711819Y-93894143D02*
X143711819Y-94132238D01*
X143711819Y-94132238D02*
X143759438Y-94227476D01*
X143759438Y-94227476D02*
X143807057Y-94275095D01*
X143807057Y-94275095D02*
X143902295Y-94322714D01*
X143902295Y-94322714D02*
X143997533Y-94322714D01*
X143997533Y-94322714D02*
X144140390Y-94275095D01*
X144140390Y-94275095D02*
X144711819Y-93703667D01*
X144711819Y-93703667D02*
X144711819Y-94322714D01*
%TO.C,C3*%
X153125580Y-83337333D02*
X153173200Y-83289714D01*
X153173200Y-83289714D02*
X153220819Y-83146857D01*
X153220819Y-83146857D02*
X153220819Y-83051619D01*
X153220819Y-83051619D02*
X153173200Y-82908762D01*
X153173200Y-82908762D02*
X153077961Y-82813524D01*
X153077961Y-82813524D02*
X152982723Y-82765905D01*
X152982723Y-82765905D02*
X152792247Y-82718286D01*
X152792247Y-82718286D02*
X152649390Y-82718286D01*
X152649390Y-82718286D02*
X152458914Y-82765905D01*
X152458914Y-82765905D02*
X152363676Y-82813524D01*
X152363676Y-82813524D02*
X152268438Y-82908762D01*
X152268438Y-82908762D02*
X152220819Y-83051619D01*
X152220819Y-83051619D02*
X152220819Y-83146857D01*
X152220819Y-83146857D02*
X152268438Y-83289714D01*
X152268438Y-83289714D02*
X152316057Y-83337333D01*
X152220819Y-83670667D02*
X152220819Y-84289714D01*
X152220819Y-84289714D02*
X152601771Y-83956381D01*
X152601771Y-83956381D02*
X152601771Y-84099238D01*
X152601771Y-84099238D02*
X152649390Y-84194476D01*
X152649390Y-84194476D02*
X152697009Y-84242095D01*
X152697009Y-84242095D02*
X152792247Y-84289714D01*
X152792247Y-84289714D02*
X153030342Y-84289714D01*
X153030342Y-84289714D02*
X153125580Y-84242095D01*
X153125580Y-84242095D02*
X153173200Y-84194476D01*
X153173200Y-84194476D02*
X153220819Y-84099238D01*
X153220819Y-84099238D02*
X153220819Y-83813524D01*
X153220819Y-83813524D02*
X153173200Y-83718286D01*
X153173200Y-83718286D02*
X153125580Y-83670667D01*
%TO.C,C6*%
X132231666Y-86276580D02*
X132279285Y-86324200D01*
X132279285Y-86324200D02*
X132422142Y-86371819D01*
X132422142Y-86371819D02*
X132517380Y-86371819D01*
X132517380Y-86371819D02*
X132660237Y-86324200D01*
X132660237Y-86324200D02*
X132755475Y-86228961D01*
X132755475Y-86228961D02*
X132803094Y-86133723D01*
X132803094Y-86133723D02*
X132850713Y-85943247D01*
X132850713Y-85943247D02*
X132850713Y-85800390D01*
X132850713Y-85800390D02*
X132803094Y-85609914D01*
X132803094Y-85609914D02*
X132755475Y-85514676D01*
X132755475Y-85514676D02*
X132660237Y-85419438D01*
X132660237Y-85419438D02*
X132517380Y-85371819D01*
X132517380Y-85371819D02*
X132422142Y-85371819D01*
X132422142Y-85371819D02*
X132279285Y-85419438D01*
X132279285Y-85419438D02*
X132231666Y-85467057D01*
X131374523Y-85371819D02*
X131564999Y-85371819D01*
X131564999Y-85371819D02*
X131660237Y-85419438D01*
X131660237Y-85419438D02*
X131707856Y-85467057D01*
X131707856Y-85467057D02*
X131803094Y-85609914D01*
X131803094Y-85609914D02*
X131850713Y-85800390D01*
X131850713Y-85800390D02*
X131850713Y-86181342D01*
X131850713Y-86181342D02*
X131803094Y-86276580D01*
X131803094Y-86276580D02*
X131755475Y-86324200D01*
X131755475Y-86324200D02*
X131660237Y-86371819D01*
X131660237Y-86371819D02*
X131469761Y-86371819D01*
X131469761Y-86371819D02*
X131374523Y-86324200D01*
X131374523Y-86324200D02*
X131326904Y-86276580D01*
X131326904Y-86276580D02*
X131279285Y-86181342D01*
X131279285Y-86181342D02*
X131279285Y-85943247D01*
X131279285Y-85943247D02*
X131326904Y-85848009D01*
X131326904Y-85848009D02*
X131374523Y-85800390D01*
X131374523Y-85800390D02*
X131469761Y-85752771D01*
X131469761Y-85752771D02*
X131660237Y-85752771D01*
X131660237Y-85752771D02*
X131755475Y-85800390D01*
X131755475Y-85800390D02*
X131803094Y-85848009D01*
X131803094Y-85848009D02*
X131850713Y-85943247D01*
%TO.C,D1*%
X150807819Y-107657905D02*
X149807819Y-107657905D01*
X149807819Y-107657905D02*
X149807819Y-107896000D01*
X149807819Y-107896000D02*
X149855438Y-108038857D01*
X149855438Y-108038857D02*
X149950676Y-108134095D01*
X149950676Y-108134095D02*
X150045914Y-108181714D01*
X150045914Y-108181714D02*
X150236390Y-108229333D01*
X150236390Y-108229333D02*
X150379247Y-108229333D01*
X150379247Y-108229333D02*
X150569723Y-108181714D01*
X150569723Y-108181714D02*
X150664961Y-108134095D01*
X150664961Y-108134095D02*
X150760200Y-108038857D01*
X150760200Y-108038857D02*
X150807819Y-107896000D01*
X150807819Y-107896000D02*
X150807819Y-107657905D01*
X150807819Y-109181714D02*
X150807819Y-108610286D01*
X150807819Y-108896000D02*
X149807819Y-108896000D01*
X149807819Y-108896000D02*
X149950676Y-108800762D01*
X149950676Y-108800762D02*
X150045914Y-108705524D01*
X150045914Y-108705524D02*
X150093533Y-108610286D01*
X150836819Y-105234095D02*
X149836819Y-105234095D01*
X150836819Y-105805523D02*
X150265390Y-105376952D01*
X149836819Y-105805523D02*
X150408247Y-105234095D01*
X150501104Y-111057905D02*
X150501104Y-111534095D01*
X150786819Y-110962667D02*
X149786819Y-111296000D01*
X149786819Y-111296000D02*
X150786819Y-111629333D01*
%TO.C,D2*%
X133360319Y-107084905D02*
X132360319Y-107084905D01*
X132360319Y-107084905D02*
X132360319Y-107323000D01*
X132360319Y-107323000D02*
X132407938Y-107465857D01*
X132407938Y-107465857D02*
X132503176Y-107561095D01*
X132503176Y-107561095D02*
X132598414Y-107608714D01*
X132598414Y-107608714D02*
X132788890Y-107656333D01*
X132788890Y-107656333D02*
X132931747Y-107656333D01*
X132931747Y-107656333D02*
X133122223Y-107608714D01*
X133122223Y-107608714D02*
X133217461Y-107561095D01*
X133217461Y-107561095D02*
X133312700Y-107465857D01*
X133312700Y-107465857D02*
X133360319Y-107323000D01*
X133360319Y-107323000D02*
X133360319Y-107084905D01*
X132455557Y-108037286D02*
X132407938Y-108084905D01*
X132407938Y-108084905D02*
X132360319Y-108180143D01*
X132360319Y-108180143D02*
X132360319Y-108418238D01*
X132360319Y-108418238D02*
X132407938Y-108513476D01*
X132407938Y-108513476D02*
X132455557Y-108561095D01*
X132455557Y-108561095D02*
X132550795Y-108608714D01*
X132550795Y-108608714D02*
X132646033Y-108608714D01*
X132646033Y-108608714D02*
X132788890Y-108561095D01*
X132788890Y-108561095D02*
X133360319Y-107989667D01*
X133360319Y-107989667D02*
X133360319Y-108608714D01*
X132742104Y-112856905D02*
X132742104Y-113333095D01*
X133027819Y-112761667D02*
X132027819Y-113095000D01*
X132027819Y-113095000D02*
X133027819Y-113428333D01*
X130360819Y-104959095D02*
X129360819Y-104959095D01*
X130360819Y-105530523D02*
X129789390Y-105101952D01*
X129360819Y-105530523D02*
X129932247Y-104959095D01*
%TO.C,L1*%
X143232166Y-113484819D02*
X143708356Y-113484819D01*
X143708356Y-113484819D02*
X143708356Y-112484819D01*
X142375023Y-113484819D02*
X142946451Y-113484819D01*
X142660737Y-113484819D02*
X142660737Y-112484819D01*
X142660737Y-112484819D02*
X142755975Y-112627676D01*
X142755975Y-112627676D02*
X142851213Y-112722914D01*
X142851213Y-112722914D02*
X142946451Y-112770533D01*
%TO.C,L2*%
X135313819Y-102514333D02*
X135313819Y-102038143D01*
X135313819Y-102038143D02*
X134313819Y-102038143D01*
X134409057Y-102800048D02*
X134361438Y-102847667D01*
X134361438Y-102847667D02*
X134313819Y-102942905D01*
X134313819Y-102942905D02*
X134313819Y-103181000D01*
X134313819Y-103181000D02*
X134361438Y-103276238D01*
X134361438Y-103276238D02*
X134409057Y-103323857D01*
X134409057Y-103323857D02*
X134504295Y-103371476D01*
X134504295Y-103371476D02*
X134599533Y-103371476D01*
X134599533Y-103371476D02*
X134742390Y-103323857D01*
X134742390Y-103323857D02*
X135313819Y-102752429D01*
X135313819Y-102752429D02*
X135313819Y-103371476D01*
%TO.C,R1*%
X129979819Y-82702333D02*
X129503628Y-82369000D01*
X129979819Y-82130905D02*
X128979819Y-82130905D01*
X128979819Y-82130905D02*
X128979819Y-82511857D01*
X128979819Y-82511857D02*
X129027438Y-82607095D01*
X129027438Y-82607095D02*
X129075057Y-82654714D01*
X129075057Y-82654714D02*
X129170295Y-82702333D01*
X129170295Y-82702333D02*
X129313152Y-82702333D01*
X129313152Y-82702333D02*
X129408390Y-82654714D01*
X129408390Y-82654714D02*
X129456009Y-82607095D01*
X129456009Y-82607095D02*
X129503628Y-82511857D01*
X129503628Y-82511857D02*
X129503628Y-82130905D01*
X129979819Y-83654714D02*
X129979819Y-83083286D01*
X129979819Y-83369000D02*
X128979819Y-83369000D01*
X128979819Y-83369000D02*
X129122676Y-83273762D01*
X129122676Y-83273762D02*
X129217914Y-83178524D01*
X129217914Y-83178524D02*
X129265533Y-83083286D01*
%TO.C,R2*%
X122232819Y-92989333D02*
X121756628Y-92656000D01*
X122232819Y-92417905D02*
X121232819Y-92417905D01*
X121232819Y-92417905D02*
X121232819Y-92798857D01*
X121232819Y-92798857D02*
X121280438Y-92894095D01*
X121280438Y-92894095D02*
X121328057Y-92941714D01*
X121328057Y-92941714D02*
X121423295Y-92989333D01*
X121423295Y-92989333D02*
X121566152Y-92989333D01*
X121566152Y-92989333D02*
X121661390Y-92941714D01*
X121661390Y-92941714D02*
X121709009Y-92894095D01*
X121709009Y-92894095D02*
X121756628Y-92798857D01*
X121756628Y-92798857D02*
X121756628Y-92417905D01*
X121328057Y-93370286D02*
X121280438Y-93417905D01*
X121280438Y-93417905D02*
X121232819Y-93513143D01*
X121232819Y-93513143D02*
X121232819Y-93751238D01*
X121232819Y-93751238D02*
X121280438Y-93846476D01*
X121280438Y-93846476D02*
X121328057Y-93894095D01*
X121328057Y-93894095D02*
X121423295Y-93941714D01*
X121423295Y-93941714D02*
X121518533Y-93941714D01*
X121518533Y-93941714D02*
X121661390Y-93894095D01*
X121661390Y-93894095D02*
X122232819Y-93322667D01*
X122232819Y-93322667D02*
X122232819Y-93941714D01*
%TO.C,R3*%
X151076819Y-93497333D02*
X150600628Y-93164000D01*
X151076819Y-92925905D02*
X150076819Y-92925905D01*
X150076819Y-92925905D02*
X150076819Y-93306857D01*
X150076819Y-93306857D02*
X150124438Y-93402095D01*
X150124438Y-93402095D02*
X150172057Y-93449714D01*
X150172057Y-93449714D02*
X150267295Y-93497333D01*
X150267295Y-93497333D02*
X150410152Y-93497333D01*
X150410152Y-93497333D02*
X150505390Y-93449714D01*
X150505390Y-93449714D02*
X150553009Y-93402095D01*
X150553009Y-93402095D02*
X150600628Y-93306857D01*
X150600628Y-93306857D02*
X150600628Y-92925905D01*
X150076819Y-93830667D02*
X150076819Y-94449714D01*
X150076819Y-94449714D02*
X150457771Y-94116381D01*
X150457771Y-94116381D02*
X150457771Y-94259238D01*
X150457771Y-94259238D02*
X150505390Y-94354476D01*
X150505390Y-94354476D02*
X150553009Y-94402095D01*
X150553009Y-94402095D02*
X150648247Y-94449714D01*
X150648247Y-94449714D02*
X150886342Y-94449714D01*
X150886342Y-94449714D02*
X150981580Y-94402095D01*
X150981580Y-94402095D02*
X151029200Y-94354476D01*
X151029200Y-94354476D02*
X151076819Y-94259238D01*
X151076819Y-94259238D02*
X151076819Y-93973524D01*
X151076819Y-93973524D02*
X151029200Y-93878286D01*
X151029200Y-93878286D02*
X150981580Y-93830667D01*
%TO.C,U1*%
X149590904Y-91284819D02*
X149590904Y-92094342D01*
X149590904Y-92094342D02*
X149543285Y-92189580D01*
X149543285Y-92189580D02*
X149495666Y-92237200D01*
X149495666Y-92237200D02*
X149400428Y-92284819D01*
X149400428Y-92284819D02*
X149209952Y-92284819D01*
X149209952Y-92284819D02*
X149114714Y-92237200D01*
X149114714Y-92237200D02*
X149067095Y-92189580D01*
X149067095Y-92189580D02*
X149019476Y-92094342D01*
X149019476Y-92094342D02*
X149019476Y-91284819D01*
X148019476Y-92284819D02*
X148590904Y-92284819D01*
X148305190Y-92284819D02*
X148305190Y-91284819D01*
X148305190Y-91284819D02*
X148400428Y-91427676D01*
X148400428Y-91427676D02*
X148495666Y-91522914D01*
X148495666Y-91522914D02*
X148590904Y-91570533D01*
%TO.C,U2*%
X139557904Y-85625819D02*
X139557904Y-86435342D01*
X139557904Y-86435342D02*
X139510285Y-86530580D01*
X139510285Y-86530580D02*
X139462666Y-86578200D01*
X139462666Y-86578200D02*
X139367428Y-86625819D01*
X139367428Y-86625819D02*
X139176952Y-86625819D01*
X139176952Y-86625819D02*
X139081714Y-86578200D01*
X139081714Y-86578200D02*
X139034095Y-86530580D01*
X139034095Y-86530580D02*
X138986476Y-86435342D01*
X138986476Y-86435342D02*
X138986476Y-85625819D01*
X138557904Y-85721057D02*
X138510285Y-85673438D01*
X138510285Y-85673438D02*
X138415047Y-85625819D01*
X138415047Y-85625819D02*
X138176952Y-85625819D01*
X138176952Y-85625819D02*
X138081714Y-85673438D01*
X138081714Y-85673438D02*
X138034095Y-85721057D01*
X138034095Y-85721057D02*
X137986476Y-85816295D01*
X137986476Y-85816295D02*
X137986476Y-85911533D01*
X137986476Y-85911533D02*
X138034095Y-86054390D01*
X138034095Y-86054390D02*
X138605523Y-86625819D01*
X138605523Y-86625819D02*
X137986476Y-86625819D01*
%TO.C,C4*%
X147423166Y-83925580D02*
X147470785Y-83973200D01*
X147470785Y-83973200D02*
X147613642Y-84020819D01*
X147613642Y-84020819D02*
X147708880Y-84020819D01*
X147708880Y-84020819D02*
X147851737Y-83973200D01*
X147851737Y-83973200D02*
X147946975Y-83877961D01*
X147946975Y-83877961D02*
X147994594Y-83782723D01*
X147994594Y-83782723D02*
X148042213Y-83592247D01*
X148042213Y-83592247D02*
X148042213Y-83449390D01*
X148042213Y-83449390D02*
X147994594Y-83258914D01*
X147994594Y-83258914D02*
X147946975Y-83163676D01*
X147946975Y-83163676D02*
X147851737Y-83068438D01*
X147851737Y-83068438D02*
X147708880Y-83020819D01*
X147708880Y-83020819D02*
X147613642Y-83020819D01*
X147613642Y-83020819D02*
X147470785Y-83068438D01*
X147470785Y-83068438D02*
X147423166Y-83116057D01*
X146566023Y-83354152D02*
X146566023Y-84020819D01*
X146804118Y-82973200D02*
X147042213Y-83687485D01*
X147042213Y-83687485D02*
X146423166Y-83687485D01*
%TO.C,C5*%
X129437666Y-98976580D02*
X129485285Y-99024200D01*
X129485285Y-99024200D02*
X129628142Y-99071819D01*
X129628142Y-99071819D02*
X129723380Y-99071819D01*
X129723380Y-99071819D02*
X129866237Y-99024200D01*
X129866237Y-99024200D02*
X129961475Y-98928961D01*
X129961475Y-98928961D02*
X130009094Y-98833723D01*
X130009094Y-98833723D02*
X130056713Y-98643247D01*
X130056713Y-98643247D02*
X130056713Y-98500390D01*
X130056713Y-98500390D02*
X130009094Y-98309914D01*
X130009094Y-98309914D02*
X129961475Y-98214676D01*
X129961475Y-98214676D02*
X129866237Y-98119438D01*
X129866237Y-98119438D02*
X129723380Y-98071819D01*
X129723380Y-98071819D02*
X129628142Y-98071819D01*
X129628142Y-98071819D02*
X129485285Y-98119438D01*
X129485285Y-98119438D02*
X129437666Y-98167057D01*
X128532904Y-98071819D02*
X129009094Y-98071819D01*
X129009094Y-98071819D02*
X129056713Y-98548009D01*
X129056713Y-98548009D02*
X129009094Y-98500390D01*
X129009094Y-98500390D02*
X128913856Y-98452771D01*
X128913856Y-98452771D02*
X128675761Y-98452771D01*
X128675761Y-98452771D02*
X128580523Y-98500390D01*
X128580523Y-98500390D02*
X128532904Y-98548009D01*
X128532904Y-98548009D02*
X128485285Y-98643247D01*
X128485285Y-98643247D02*
X128485285Y-98881342D01*
X128485285Y-98881342D02*
X128532904Y-98976580D01*
X128532904Y-98976580D02*
X128580523Y-99024200D01*
X128580523Y-99024200D02*
X128675761Y-99071819D01*
X128675761Y-99071819D02*
X128913856Y-99071819D01*
X128913856Y-99071819D02*
X129009094Y-99024200D01*
X129009094Y-99024200D02*
X129056713Y-98976580D01*
%TO.C,C7*%
X141898666Y-83354080D02*
X141946285Y-83401700D01*
X141946285Y-83401700D02*
X142089142Y-83449319D01*
X142089142Y-83449319D02*
X142184380Y-83449319D01*
X142184380Y-83449319D02*
X142327237Y-83401700D01*
X142327237Y-83401700D02*
X142422475Y-83306461D01*
X142422475Y-83306461D02*
X142470094Y-83211223D01*
X142470094Y-83211223D02*
X142517713Y-83020747D01*
X142517713Y-83020747D02*
X142517713Y-82877890D01*
X142517713Y-82877890D02*
X142470094Y-82687414D01*
X142470094Y-82687414D02*
X142422475Y-82592176D01*
X142422475Y-82592176D02*
X142327237Y-82496938D01*
X142327237Y-82496938D02*
X142184380Y-82449319D01*
X142184380Y-82449319D02*
X142089142Y-82449319D01*
X142089142Y-82449319D02*
X141946285Y-82496938D01*
X141946285Y-82496938D02*
X141898666Y-82544557D01*
X141565332Y-82449319D02*
X140898666Y-82449319D01*
X140898666Y-82449319D02*
X141327237Y-83449319D01*
%TO.C,C1*%
X145422000Y-100292000D02*
X141322000Y-100292000D01*
X145422000Y-103292000D02*
X141322000Y-103292000D01*
%TO.C,C2*%
X144980000Y-95958000D02*
X144980000Y-96958000D01*
X143280000Y-96958000D02*
X143280000Y-95958000D01*
%TO.C,C3*%
X149884000Y-84004000D02*
X149884000Y-83004000D01*
X151584000Y-83004000D02*
X151584000Y-84004000D01*
%TO.C,C6*%
X132692000Y-88672000D02*
X131692000Y-88672000D01*
X131692000Y-86972000D02*
X132692000Y-86972000D01*
%TO.C,D1*%
X149182060Y-106145560D02*
X148831540Y-106145560D01*
X149182060Y-106145560D02*
X149182060Y-110646440D01*
X145681940Y-106145560D02*
X146032460Y-106145560D01*
X145681940Y-106145560D02*
X145681940Y-110646440D01*
X149182060Y-106596860D02*
X148831540Y-106596860D01*
X145681940Y-106596860D02*
X146032460Y-106596860D01*
X149182060Y-110646440D02*
X148831540Y-110646440D01*
X145681940Y-110646440D02*
X146032460Y-110646440D01*
%TO.C,D2*%
X134450060Y-106145560D02*
X134099540Y-106145560D01*
X134450060Y-106145560D02*
X134450060Y-110646440D01*
X130949940Y-106145560D02*
X131300460Y-106145560D01*
X130949940Y-106145560D02*
X130949940Y-110646440D01*
X134450060Y-106596860D02*
X134099540Y-106596860D01*
X130949940Y-106596860D02*
X131300460Y-106596860D01*
X134450060Y-110646440D02*
X134099540Y-110646440D01*
X130949940Y-110646440D02*
X131300460Y-110646440D01*
%TO.C,L1*%
X139644500Y-112307000D02*
X140644500Y-112307000D01*
X140644500Y-114007000D02*
X139644500Y-114007000D01*
%TO.C,L2*%
X133804000Y-102308000D02*
X133804000Y-103308000D01*
X132104000Y-103308000D02*
X132104000Y-102308000D01*
%TO.C,R1*%
X128523000Y-85002000D02*
X128523000Y-86202000D01*
X130273000Y-86202000D02*
X130273000Y-85002000D01*
%TO.C,R2*%
X122653000Y-90962000D02*
X122653000Y-89762000D01*
X120903000Y-89762000D02*
X120903000Y-90962000D01*
%TO.C,R3*%
X153133000Y-94264000D02*
X153133000Y-93064000D01*
X151383000Y-93064000D02*
X151383000Y-94264000D01*
%TO.C,U1*%
X146754000Y-85755000D02*
X146754000Y-85900000D01*
X146754000Y-85755000D02*
X150904000Y-85755000D01*
X146754000Y-90760000D02*
X145354000Y-90760000D01*
X146754000Y-90905000D02*
X146754000Y-90760000D01*
X146754000Y-90905000D02*
X150904000Y-90905000D01*
X150904000Y-85755000D02*
X150904000Y-85900000D01*
X150904000Y-90905000D02*
X150904000Y-90760000D01*
%TO.C,U2*%
X136410001Y-87281534D02*
X136410001Y-87306534D01*
X136410001Y-87281534D02*
X141060001Y-87281534D01*
X136410001Y-95306534D02*
X135335001Y-95306534D01*
X136410001Y-95331534D02*
X136410001Y-95306534D01*
X136410001Y-95331534D02*
X141060001Y-95331534D01*
X141060001Y-87281534D02*
X141060001Y-87306534D01*
X141060001Y-95331534D02*
X141060001Y-95306534D01*
%TO.C,C4*%
X144997000Y-85004000D02*
X149097000Y-85004000D01*
X144997000Y-82004000D02*
X149097000Y-82004000D01*
%TO.C,C5*%
X127344000Y-102530000D02*
X131444000Y-102530000D01*
X127344000Y-99530000D02*
X131444000Y-99530000D01*
%TO.C,C7*%
X142168500Y-83781000D02*
X141168500Y-83781000D01*
X141168500Y-82081000D02*
X142168500Y-82081000D01*
%TD*%
M02*
